M48
; DRILL file {KiCad 8.0.7-8.0.7-0~ubuntu24.04.1} date 2025-01-01T23:44:24+0100
; FORMAT={-:-/ absolute / metric / decimal}
; #@! TF.CreationDate,2025-01-01T23:44:24+01:00
; #@! TF.GenerationSoftware,Kicad,Pcbnew,8.0.7-8.0.7-0~ubuntu24.04.1
; #@! TF.FileFunction,NonPlated,1,2,NPTH
FMAT,2
METRIC
; #@! TA.AperFunction,NonPlated,NPTH,ComponentDrill
T1C0.900
; #@! TA.AperFunction,NonPlated,NPTH,ComponentDrill
T2C1.200
; #@! TA.AperFunction,NonPlated,NPTH,ComponentDrill
T3C1.702
; #@! TA.AperFunction,NonPlated,NPTH,ComponentDrill
T4C3.000
; #@! TA.AperFunction,NonPlated,NPTH,ComponentDrill
T5C3.429
%
G90
G05
T1
X222.343Y-126.106
X222.343Y-126.106
X222.343Y-129.106
X222.343Y-129.106
T2
X215.313Y-118.506
X222.313Y-118.506
T3
X87.456Y-100.262
X89.822Y-117.096
X92.188Y-133.931
X94.554Y-150.765
X98.349Y-98.731
X100.715Y-115.565
X103.081Y-132.4
X105.281Y-97.757
X105.446Y-149.235
X107.646Y-114.591
X110.012Y-131.426
X112.378Y-148.26
X116.173Y-96.226
X118.539Y-113.06
X120.905Y-129.895
X123.271Y-146.729
X128.913Y-78.006
X128.913Y-95.006
X128.913Y-112.006
X128.913Y-129.006
X139.913Y-78.006
X139.913Y-95.006
X139.913Y-112.006
X139.913Y-129.006
X146.913Y-76.006
X146.913Y-93.006
X146.913Y-110.006
X146.913Y-127.006
X157.913Y-76.006
X157.913Y-93.006
X157.913Y-110.006
X157.913Y-127.006
X164.913Y-78.006
X164.913Y-95.006
X164.913Y-112.006
X164.913Y-129.006
X172.113Y-148.006
X175.913Y-78.006
X175.913Y-95.006
X175.913Y-112.006
X175.913Y-129.006
X182.913Y-80.006
X182.913Y-97.006
X182.913Y-114.006
X182.913Y-131.006
X183.113Y-148.006
X192.382Y-149.507
X193.913Y-80.006
X193.913Y-97.006
X193.913Y-114.006
X193.913Y-131.006
X202.844Y-152.906
X211.164Y-157.173
X220.063Y-163.639
T4
X88.473Y-103.906
X90.839Y-120.74
X93.205Y-137.575
X93.73Y-105.388
X93.73Y-105.388
X95.571Y-154.409
X96.096Y-122.223
X96.096Y-122.223
X98.375Y-102.514
X98.462Y-139.057
X98.462Y-139.057
X100.741Y-119.349
X100.828Y-155.892
X100.828Y-155.892
X103.107Y-136.183
X105.473Y-153.018
X106.298Y-101.401
X108.663Y-118.235
X111.029Y-135.07
X111.555Y-102.883
X111.555Y-102.883
X113.395Y-151.904
X113.921Y-119.718
X113.921Y-119.718
X116.2Y-100.009
X116.287Y-136.552
X116.287Y-136.552
X118.566Y-116.843
X118.653Y-153.387
X118.653Y-153.387
X120.932Y-133.678
X123.298Y-150.513
X129.413Y-81.756
X129.413Y-98.756
X129.413Y-115.756
X129.413Y-132.756
X134.413Y-83.956
X134.413Y-83.956
X134.413Y-100.956
X134.413Y-100.956
X134.413Y-117.956
X134.413Y-117.956
X134.413Y-134.956
X134.413Y-134.956
X139.413Y-81.756
X139.413Y-98.756
X139.413Y-115.756
X139.413Y-132.756
X147.413Y-79.756
X147.413Y-96.756
X147.413Y-113.756
X147.413Y-130.756
X152.413Y-81.956
X152.413Y-81.956
X152.413Y-98.956
X152.413Y-98.956
X152.413Y-115.956
X152.413Y-115.956
X152.413Y-132.956
X152.413Y-132.956
X157.413Y-79.756
X157.413Y-96.756
X157.413Y-113.756
X157.413Y-130.756
X165.413Y-81.756
X165.413Y-98.756
X165.413Y-115.756
X165.413Y-132.756
X170.413Y-83.956
X170.413Y-83.956
X170.413Y-100.956
X170.413Y-100.956
X170.413Y-117.956
X170.413Y-117.956
X170.413Y-134.956
X170.413Y-134.956
X172.613Y-151.756
X175.413Y-81.756
X175.413Y-98.756
X175.413Y-115.756
X175.413Y-132.756
X177.613Y-153.956
X177.613Y-153.956
X182.613Y-151.756
X183.413Y-83.756
X183.413Y-100.756
X183.413Y-117.756
X183.413Y-134.756
X188.413Y-85.956
X188.413Y-85.956
X188.413Y-102.956
X188.413Y-102.956
X188.413Y-119.956
X188.413Y-119.956
X188.413Y-136.956
X188.413Y-136.956
X191.699Y-153.228
X193.413Y-83.756
X193.413Y-100.756
X193.413Y-117.756
X193.413Y-134.756
X195.774Y-156.865
X195.774Y-156.865
X201.21Y-156.318
X209.364Y-160.501
X212.116Y-165.22
X212.116Y-165.22
X217.454Y-166.379
T5
X92.902Y-99.496
X95.268Y-116.331
X97.634Y-133.165
X100.0Y-150.0
X110.727Y-96.991
X113.093Y-113.826
X115.459Y-130.66
X117.825Y-147.495
X134.413Y-78.006
X134.413Y-95.006
X134.413Y-112.006
X134.413Y-129.006
X152.413Y-76.006
X152.413Y-93.006
X152.413Y-110.006
X152.413Y-127.006
X170.413Y-78.006
X170.413Y-95.006
X170.413Y-112.006
X170.413Y-129.006
X177.613Y-148.006
X188.413Y-80.006
X188.413Y-97.006
X188.413Y-114.006
X188.413Y-131.006
X197.613Y-151.206
X215.613Y-160.406
M30
