%TF.GenerationSoftware,KiCad,Pcbnew,8.0.7-8.0.7-0~ubuntu24.04.1*%
%TF.CreationDate,2025-01-01T23:44:22+01:00*%
%TF.ProjectId,speedy-o_north-face-finished-extended_VCC,73706565-6479-42d6-9f5f-6e6f7274682d,v1.0.0*%
%TF.SameCoordinates,Original*%
%TF.FileFunction,Drillmap*%
%TF.FilePolarity,Positive*%
%FSLAX45Y45*%
G04 Gerber Fmt 4.5, Leading zero omitted, Abs format (unit mm)*
G04 Created by KiCad (PCBNEW 8.0.7-8.0.7-0~ubuntu24.04.1) date 2025-01-01 23:44:22*
%MOMM*%
%LPD*%
G01*
G04 APERTURE LIST*
%ADD10C,0.150000*%
%ADD11C,0.120000*%
%ADD12C,0.200000*%
%ADD13C,0.100000*%
%ADD14C,0.170180*%
%ADD15C,0.300000*%
%ADD16C,0.342900*%
G04 APERTURE END LIST*
D10*
X22241315Y-7320631D02*
G75*
G02*
X22441319Y-7520631I-5J-200009D01*
G01*
X19620899Y-6980631D02*
G75*
G02*
X19797657Y-7087053I1J-199999D01*
G01*
X21953069Y-17338833D02*
G75*
G02*
X21673713Y-17383073I-161799J117563D01*
G01*
X12612349Y-6780631D02*
X14105698Y-6780631D01*
X10082697Y-8779191D02*
X12486195Y-6825437D01*
X13036789Y-15574898D02*
G75*
G02*
X12939533Y-15616901I-125109J156088D01*
G01*
X18121315Y-6980631D02*
X19620899Y-6980631D01*
X14208947Y-6751919D02*
G75*
G02*
X14105698Y-6780628I-103247J171299D01*
G01*
X10082697Y-8779191D02*
G75*
G02*
X9984377Y-8822050I-126137J155161D01*
G01*
X18464444Y-15820631D02*
G75*
G02*
X18497948Y-15823456I-4J-200079D01*
G01*
X21673709Y-17383079D02*
X20391277Y-16451338D01*
X20366132Y-16435771D02*
X20145648Y-16320896D01*
X20366132Y-16435771D02*
G75*
G02*
X20391277Y-16451338I-92412J-177369D01*
G01*
X13386489Y-15294579D02*
X13036789Y-15574898D01*
X14208947Y-6751919D02*
X14472592Y-6593000D01*
X17852242Y-6780631D02*
G75*
G02*
X18000902Y-6846837I-2J-200009D01*
G01*
X20115039Y-16308054D02*
G75*
G02*
X20145648Y-16320896I-61789J-190166D01*
G01*
X22509232Y-15375112D02*
G75*
G02*
X22443387Y-15227747I134148J148332D01*
G01*
X22441317Y-14801115D02*
G75*
G02*
X22441315Y-14800145I213843J995D01*
G01*
X20041731Y-7320631D02*
G75*
G02*
X19864972Y-7214209I-1J200001D01*
G01*
X8106606Y-9287920D02*
G75*
G02*
X8276824Y-9062028I198064J27830D01*
G01*
X16373140Y-6780631D02*
G75*
G02*
X16276011Y-6755462I0J200001D01*
G01*
X15910751Y-6580034D02*
G75*
G02*
X16005519Y-6605188I-2361J-199986D01*
G01*
X9044632Y-15962327D02*
X8106606Y-9287920D01*
X14472592Y-6593000D02*
G75*
G02*
X14578201Y-6564304I103248J-171300D01*
G01*
X16373140Y-6780631D02*
X17852242Y-6780631D01*
X16622151Y-15758179D02*
X16200479Y-15313082D01*
X19797656Y-7087053D02*
X19864974Y-7214208D01*
X18746953Y-15865768D02*
X18497948Y-15823457D01*
X18746953Y-15865768D02*
G75*
G02*
X18775252Y-15872731I-33493J-197112D01*
G01*
X13386489Y-15294579D02*
G75*
G02*
X13511580Y-15250631I125091J-156051D01*
G01*
X18000901Y-6846838D02*
X18121315Y-6980631D01*
X12486195Y-6825437D02*
G75*
G02*
X12612349Y-6780627I126155J-155183D01*
G01*
X16055288Y-15250631D02*
X13511580Y-15250631D01*
X20115039Y-16308054D02*
X18775252Y-15872731D01*
X8276825Y-9062032D02*
X9984378Y-8822051D01*
X16005519Y-6605188D02*
X16276011Y-6755462D01*
X16055288Y-15250631D02*
G75*
G02*
X16200477Y-15313083I2J-199989D01*
G01*
X9270521Y-16132546D02*
G75*
G02*
X9044635Y-15962326I-27831J198056D01*
G01*
X9270521Y-16132546D02*
X12939532Y-15616900D01*
X22509232Y-15375112D02*
X22901327Y-15729717D01*
X18464444Y-15820631D02*
X16767341Y-15820631D01*
X16767341Y-15820631D02*
G75*
G02*
X16622152Y-15758178I-1J199991D01*
G01*
X22441317Y-14801115D02*
X22443387Y-15227747D01*
X20041731Y-7320631D02*
X22241315Y-7320631D01*
X14578201Y-6564302D02*
X15910751Y-6580034D01*
X22928979Y-15995609D02*
X21953069Y-17338833D01*
X22901327Y-15729717D02*
G75*
G02*
X22928977Y-15995608I-134147J-148333D01*
G01*
X22441315Y-7520631D02*
X22441315Y-14800145D01*
D11*
X18661310Y-7375630D02*
X19021310Y-7375630D01*
X19021310Y-7685630D01*
X18661310Y-7685630D01*
X18661310Y-7375630D01*
X15061310Y-10375630D02*
X15421310Y-10375630D01*
X15421310Y-10685630D01*
X15061310Y-10685630D01*
X15061310Y-10375630D01*
X11207110Y-9362140D02*
X10850614Y-9412243D01*
X10807470Y-9105260D01*
X11163966Y-9055157D01*
X11207110Y-9362140D01*
X19021310Y-9385630D02*
X18661310Y-9385630D01*
X18661310Y-9075630D01*
X19021310Y-9075630D01*
X19021310Y-9385630D01*
X11680300Y-12729050D02*
X11323804Y-12779153D01*
X11280660Y-12472170D01*
X11637156Y-12422067D01*
X11680300Y-12729050D01*
X13261310Y-10575630D02*
X13621310Y-10575630D01*
X13621310Y-10885630D01*
X13261310Y-10885630D01*
X13261310Y-10575630D01*
X15421310Y-8985630D02*
X15061310Y-8985630D01*
X15061310Y-8675630D01*
X15421310Y-8675630D01*
X15421310Y-8985630D01*
X15421310Y-12385630D02*
X15061310Y-12385630D01*
X15061310Y-12075630D01*
X15421310Y-12075630D01*
X15421310Y-12385630D01*
X20125638Y-14581839D02*
X20029843Y-14876667D01*
X19687462Y-14765421D01*
X19783258Y-14470593D01*
X20125638Y-14581839D01*
X22074300Y-15640794D02*
X21892086Y-15891589D01*
X21600840Y-15679986D01*
X21783054Y-15429191D01*
X22074300Y-15640794D01*
X19021310Y-12785630D02*
X18661310Y-12785630D01*
X18661310Y-12475630D01*
X19021310Y-12475630D01*
X19021310Y-12785630D01*
X11916890Y-14412500D02*
X11560394Y-14462603D01*
X11517250Y-14155620D01*
X11873746Y-14105517D01*
X11916890Y-14412500D01*
X17221310Y-12585630D02*
X16861310Y-12585630D01*
X16861310Y-12275630D01*
X17221310Y-12275630D01*
X17221310Y-12585630D01*
X13621310Y-12585630D02*
X13261310Y-12585630D01*
X13261310Y-12275630D01*
X13621310Y-12275630D01*
X13621310Y-12585630D01*
X17221310Y-9185630D02*
X16861310Y-9185630D01*
X16861310Y-8875630D01*
X17221310Y-8875630D01*
X17221310Y-9185630D01*
X16861310Y-10575630D02*
X17221310Y-10575630D01*
X17221310Y-10885630D01*
X16861310Y-10885630D01*
X16861310Y-10575630D01*
X17581310Y-14175630D02*
X17941310Y-14175630D01*
X17941310Y-14485630D01*
X17581310Y-14485630D01*
X17581310Y-14175630D01*
X13261310Y-7175630D02*
X13621310Y-7175630D01*
X13621310Y-7485630D01*
X13261310Y-7485630D01*
X13261310Y-7175630D01*
X15061310Y-6975630D02*
X15421310Y-6975630D01*
X15421310Y-7285630D01*
X15061310Y-7285630D01*
X15061310Y-6975630D01*
X13621310Y-9185630D02*
X13261310Y-9185630D01*
X13261310Y-8875630D01*
X13621310Y-8875630D01*
X13621310Y-9185630D01*
X11443700Y-11045590D02*
X11087204Y-11095693D01*
X11044060Y-10788710D01*
X11400556Y-10738607D01*
X11443700Y-11045590D01*
X9661220Y-11296100D02*
X9304724Y-11346203D01*
X9261580Y-11039220D01*
X9618076Y-10989117D01*
X9661220Y-11296100D01*
X18661310Y-10775630D02*
X19021310Y-10775630D01*
X19021310Y-11085630D01*
X18661310Y-11085630D01*
X18661310Y-10775630D01*
X10134410Y-14663010D02*
X9777914Y-14713113D01*
X9734770Y-14406130D01*
X10091266Y-14356027D01*
X10134410Y-14663010D01*
X9424630Y-9612650D02*
X9068134Y-9662753D01*
X9024990Y-9355770D01*
X9381486Y-9305667D01*
X9424630Y-9612650D01*
X9897810Y-12979560D02*
X9541314Y-13029663D01*
X9498170Y-12722680D01*
X9854666Y-12672577D01*
X9897810Y-12979560D01*
X16861310Y-7175630D02*
X17221310Y-7175630D01*
X17221310Y-7485630D01*
X16861310Y-7485630D01*
X16861310Y-7175630D01*
D12*
D13*
X22189310Y-12565630D02*
X22279310Y-12655630D01*
X22279310Y-12565630D02*
X22189310Y-12655630D01*
X22189310Y-12565630D02*
X22279310Y-12655630D01*
X22279310Y-12565630D02*
X22189310Y-12655630D01*
X22189310Y-12865630D02*
X22279310Y-12955630D01*
X22279310Y-12865630D02*
X22189310Y-12955630D01*
X22189310Y-12865630D02*
X22279310Y-12955630D01*
X22279310Y-12865630D02*
X22189310Y-12955630D01*
D11*
X21591310Y-11850630D02*
G75*
G02*
X21471310Y-11850630I-60000J0D01*
G01*
X21471310Y-11850630D02*
G75*
G02*
X21591310Y-11850630I60000J0D01*
G01*
X22291310Y-11850630D02*
G75*
G02*
X22171310Y-11850630I-60000J0D01*
G01*
X22171310Y-11850630D02*
G75*
G02*
X22291310Y-11850630I60000J0D01*
G01*
D14*
X8745573Y-9941085D02*
X8745573Y-10111265D01*
X8660483Y-10026175D02*
X8830663Y-10026175D01*
X8982163Y-11624545D02*
X8982163Y-11794725D01*
X8897073Y-11709635D02*
X9067253Y-11709635D01*
X9218763Y-13307995D02*
X9218763Y-13478175D01*
X9133673Y-13393085D02*
X9303853Y-13393085D01*
X9455353Y-14991455D02*
X9455353Y-15161635D01*
X9370263Y-15076545D02*
X9540443Y-15076545D01*
X9834867Y-9787995D02*
X9834867Y-9958175D01*
X9749777Y-9873085D02*
X9919957Y-9873085D01*
X10071457Y-11471455D02*
X10071457Y-11641635D01*
X9986367Y-11556545D02*
X10156547Y-11556545D01*
X10308057Y-13154905D02*
X10308057Y-13325085D01*
X10222967Y-13239995D02*
X10393147Y-13239995D01*
X10528053Y-9690575D02*
X10528053Y-9860755D01*
X10442963Y-9775665D02*
X10613143Y-9775665D01*
X10544647Y-14838365D02*
X10544647Y-15008545D01*
X10459557Y-14923455D02*
X10629737Y-14923455D01*
X10764643Y-11374035D02*
X10764643Y-11544215D01*
X10679553Y-11459125D02*
X10849733Y-11459125D01*
X11001243Y-13057485D02*
X11001243Y-13227665D01*
X10916153Y-13142575D02*
X11086333Y-13142575D01*
X11237833Y-14740945D02*
X11237833Y-14911125D01*
X11152743Y-14826035D02*
X11322923Y-14826035D01*
X11617347Y-9537485D02*
X11617347Y-9707665D01*
X11532257Y-9622575D02*
X11702437Y-9622575D01*
X11853937Y-11220945D02*
X11853937Y-11391125D01*
X11768847Y-11306035D02*
X11939027Y-11306035D01*
X12090537Y-12904395D02*
X12090537Y-13074575D01*
X12005447Y-12989485D02*
X12175627Y-12989485D01*
X12327127Y-14587855D02*
X12327127Y-14758035D01*
X12242037Y-14672945D02*
X12412217Y-14672945D01*
X12891310Y-7715540D02*
X12891310Y-7885720D01*
X12806220Y-7800630D02*
X12976400Y-7800630D01*
X12891310Y-9415540D02*
X12891310Y-9585720D01*
X12806220Y-9500630D02*
X12976400Y-9500630D01*
X12891310Y-11115540D02*
X12891310Y-11285720D01*
X12806220Y-11200630D02*
X12976400Y-11200630D01*
X12891310Y-12815540D02*
X12891310Y-12985720D01*
X12806220Y-12900630D02*
X12976400Y-12900630D01*
X13991310Y-7715540D02*
X13991310Y-7885720D01*
X13906220Y-7800630D02*
X14076400Y-7800630D01*
X13991310Y-9415540D02*
X13991310Y-9585720D01*
X13906220Y-9500630D02*
X14076400Y-9500630D01*
X13991310Y-11115540D02*
X13991310Y-11285720D01*
X13906220Y-11200630D02*
X14076400Y-11200630D01*
X13991310Y-12815540D02*
X13991310Y-12985720D01*
X13906220Y-12900630D02*
X14076400Y-12900630D01*
X14691310Y-7515540D02*
X14691310Y-7685720D01*
X14606220Y-7600630D02*
X14776400Y-7600630D01*
X14691310Y-9215540D02*
X14691310Y-9385720D01*
X14606220Y-9300630D02*
X14776400Y-9300630D01*
X14691310Y-10915540D02*
X14691310Y-11085720D01*
X14606220Y-11000630D02*
X14776400Y-11000630D01*
X14691310Y-12615540D02*
X14691310Y-12785720D01*
X14606220Y-12700630D02*
X14776400Y-12700630D01*
X15791310Y-7515540D02*
X15791310Y-7685720D01*
X15706220Y-7600630D02*
X15876400Y-7600630D01*
X15791310Y-9215540D02*
X15791310Y-9385720D01*
X15706220Y-9300630D02*
X15876400Y-9300630D01*
X15791310Y-10915540D02*
X15791310Y-11085720D01*
X15706220Y-11000630D02*
X15876400Y-11000630D01*
X15791310Y-12615540D02*
X15791310Y-12785720D01*
X15706220Y-12700630D02*
X15876400Y-12700630D01*
X16491310Y-7715540D02*
X16491310Y-7885720D01*
X16406220Y-7800630D02*
X16576400Y-7800630D01*
X16491310Y-9415540D02*
X16491310Y-9585720D01*
X16406220Y-9500630D02*
X16576400Y-9500630D01*
X16491310Y-11115540D02*
X16491310Y-11285720D01*
X16406220Y-11200630D02*
X16576400Y-11200630D01*
X16491310Y-12815540D02*
X16491310Y-12985720D01*
X16406220Y-12900630D02*
X16576400Y-12900630D01*
X17211310Y-14715540D02*
X17211310Y-14885720D01*
X17126220Y-14800630D02*
X17296400Y-14800630D01*
X17591310Y-7715540D02*
X17591310Y-7885720D01*
X17506220Y-7800630D02*
X17676400Y-7800630D01*
X17591310Y-9415540D02*
X17591310Y-9585720D01*
X17506220Y-9500630D02*
X17676400Y-9500630D01*
X17591310Y-11115540D02*
X17591310Y-11285720D01*
X17506220Y-11200630D02*
X17676400Y-11200630D01*
X17591310Y-12815540D02*
X17591310Y-12985720D01*
X17506220Y-12900630D02*
X17676400Y-12900630D01*
X18291310Y-7915540D02*
X18291310Y-8085720D01*
X18206220Y-8000630D02*
X18376400Y-8000630D01*
X18291310Y-9615540D02*
X18291310Y-9785720D01*
X18206220Y-9700630D02*
X18376400Y-9700630D01*
X18291310Y-11315540D02*
X18291310Y-11485720D01*
X18206220Y-11400630D02*
X18376400Y-11400630D01*
X18291310Y-13015540D02*
X18291310Y-13185720D01*
X18206220Y-13100630D02*
X18376400Y-13100630D01*
X18311310Y-14715540D02*
X18311310Y-14885720D01*
X18226220Y-14800630D02*
X18396400Y-14800630D01*
X19238229Y-14865581D02*
X19238229Y-15035761D01*
X19153139Y-14950671D02*
X19323319Y-14950671D01*
X19391310Y-7915540D02*
X19391310Y-8085720D01*
X19306220Y-8000630D02*
X19476400Y-8000630D01*
X19391310Y-9615540D02*
X19391310Y-9785720D01*
X19306220Y-9700630D02*
X19476400Y-9700630D01*
X19391310Y-11315540D02*
X19391310Y-11485720D01*
X19306220Y-11400630D02*
X19476400Y-11400630D01*
X19391310Y-13015540D02*
X19391310Y-13185720D01*
X19306220Y-13100630D02*
X19476400Y-13100630D01*
X20284391Y-15205499D02*
X20284391Y-15375679D01*
X20199301Y-15290589D02*
X20369481Y-15290589D01*
X21116351Y-15632258D02*
X21116351Y-15802438D01*
X21031261Y-15717348D02*
X21201441Y-15717348D01*
X22006269Y-16278822D02*
X22006269Y-16449002D01*
X21921179Y-16363912D02*
X22091359Y-16363912D01*
D15*
X8953343Y-10496634D02*
X8953343Y-10284500D01*
X8741209Y-10284500D01*
X8741209Y-10496634D01*
X8953343Y-10496634D01*
X9189933Y-12180094D02*
X9189933Y-11967960D01*
X8977799Y-11967960D01*
X8977799Y-12180094D01*
X9189933Y-12180094D01*
X9426533Y-13863544D02*
X9426533Y-13651410D01*
X9214399Y-13651410D01*
X9214399Y-13863544D01*
X9426533Y-13863544D01*
X9479095Y-10644907D02*
X9479095Y-10432773D01*
X9266961Y-10432773D01*
X9266961Y-10644907D01*
X9479095Y-10644907D01*
X9479095Y-10644907D02*
X9479095Y-10432773D01*
X9266961Y-10432773D01*
X9266961Y-10644907D01*
X9479095Y-10644907D01*
X9663123Y-15547004D02*
X9663123Y-15334870D01*
X9450989Y-15334870D01*
X9450989Y-15547004D01*
X9663123Y-15547004D01*
X9715685Y-12328366D02*
X9715685Y-12116232D01*
X9503551Y-12116232D01*
X9503551Y-12328366D01*
X9715685Y-12328366D01*
X9715685Y-12328366D02*
X9715685Y-12116232D01*
X9503551Y-12116232D01*
X9503551Y-12328366D01*
X9715685Y-12328366D01*
X9943611Y-10357461D02*
X9943611Y-10145327D01*
X9731477Y-10145327D01*
X9731477Y-10357461D01*
X9943611Y-10357461D01*
X9952285Y-14011816D02*
X9952285Y-13799682D01*
X9740151Y-13799682D01*
X9740151Y-14011816D01*
X9952285Y-14011816D01*
X9952285Y-14011816D02*
X9952285Y-13799682D01*
X9740151Y-13799682D01*
X9740151Y-14011816D01*
X9952285Y-14011816D01*
X10180201Y-12040921D02*
X10180201Y-11828787D01*
X9968067Y-11828787D01*
X9968067Y-12040921D01*
X10180201Y-12040921D01*
X10188875Y-15695276D02*
X10188875Y-15483142D01*
X9976741Y-15483142D01*
X9976741Y-15695276D01*
X10188875Y-15695276D01*
X10188875Y-15695276D02*
X10188875Y-15483142D01*
X9976741Y-15483142D01*
X9976741Y-15695276D01*
X10188875Y-15695276D01*
X10416801Y-13724371D02*
X10416801Y-13512237D01*
X10204667Y-13512237D01*
X10204667Y-13724371D01*
X10416801Y-13724371D01*
X10653391Y-15407831D02*
X10653391Y-15195697D01*
X10441257Y-15195697D01*
X10441257Y-15407831D01*
X10653391Y-15407831D01*
X10735823Y-10246124D02*
X10735823Y-10033990D01*
X10523689Y-10033990D01*
X10523689Y-10246124D01*
X10735823Y-10246124D01*
X10972413Y-11929584D02*
X10972413Y-11717450D01*
X10760279Y-11717450D01*
X10760279Y-11929584D01*
X10972413Y-11929584D01*
X11209013Y-13613034D02*
X11209013Y-13400900D01*
X10996879Y-13400900D01*
X10996879Y-13613034D01*
X11209013Y-13613034D01*
X11261575Y-10394397D02*
X11261575Y-10182263D01*
X11049441Y-10182263D01*
X11049441Y-10394397D01*
X11261575Y-10394397D01*
X11261575Y-10394397D02*
X11261575Y-10182263D01*
X11049441Y-10182263D01*
X11049441Y-10394397D01*
X11261575Y-10394397D01*
X11445603Y-15296494D02*
X11445603Y-15084360D01*
X11233469Y-15084360D01*
X11233469Y-15296494D01*
X11445603Y-15296494D01*
X11498165Y-12077856D02*
X11498165Y-11865722D01*
X11286031Y-11865722D01*
X11286031Y-12077856D01*
X11498165Y-12077856D01*
X11498165Y-12077856D02*
X11498165Y-11865722D01*
X11286031Y-11865722D01*
X11286031Y-12077856D01*
X11498165Y-12077856D01*
X11726091Y-10106951D02*
X11726091Y-9894817D01*
X11513957Y-9894817D01*
X11513957Y-10106951D01*
X11726091Y-10106951D01*
X11734765Y-13761306D02*
X11734765Y-13549172D01*
X11522631Y-13549172D01*
X11522631Y-13761306D01*
X11734765Y-13761306D01*
X11734765Y-13761306D02*
X11734765Y-13549172D01*
X11522631Y-13549172D01*
X11522631Y-13761306D01*
X11734765Y-13761306D01*
X11962681Y-11790411D02*
X11962681Y-11578277D01*
X11750547Y-11578277D01*
X11750547Y-11790411D01*
X11962681Y-11790411D01*
X11971355Y-15444766D02*
X11971355Y-15232632D01*
X11759221Y-15232632D01*
X11759221Y-15444766D01*
X11971355Y-15444766D01*
X11971355Y-15444766D02*
X11971355Y-15232632D01*
X11759221Y-15232632D01*
X11759221Y-15444766D01*
X11971355Y-15444766D01*
X12199281Y-13473861D02*
X12199281Y-13261727D01*
X11987147Y-13261727D01*
X11987147Y-13473861D01*
X12199281Y-13473861D01*
X12435871Y-15157321D02*
X12435871Y-14945187D01*
X12223737Y-14945187D01*
X12223737Y-15157321D01*
X12435871Y-15157321D01*
X13047377Y-8281697D02*
X13047377Y-8069563D01*
X12835243Y-8069563D01*
X12835243Y-8281697D01*
X13047377Y-8281697D01*
X13047377Y-9981697D02*
X13047377Y-9769563D01*
X12835243Y-9769563D01*
X12835243Y-9981697D01*
X13047377Y-9981697D01*
X13047377Y-11681697D02*
X13047377Y-11469563D01*
X12835243Y-11469563D01*
X12835243Y-11681697D01*
X13047377Y-11681697D01*
X13047377Y-13381697D02*
X13047377Y-13169563D01*
X12835243Y-13169563D01*
X12835243Y-13381697D01*
X13047377Y-13381697D01*
X13547377Y-8501697D02*
X13547377Y-8289563D01*
X13335243Y-8289563D01*
X13335243Y-8501697D01*
X13547377Y-8501697D01*
X13547377Y-8501697D02*
X13547377Y-8289563D01*
X13335243Y-8289563D01*
X13335243Y-8501697D01*
X13547377Y-8501697D01*
X13547377Y-10201697D02*
X13547377Y-9989563D01*
X13335243Y-9989563D01*
X13335243Y-10201697D01*
X13547377Y-10201697D01*
X13547377Y-10201697D02*
X13547377Y-9989563D01*
X13335243Y-9989563D01*
X13335243Y-10201697D01*
X13547377Y-10201697D01*
X13547377Y-11901697D02*
X13547377Y-11689563D01*
X13335243Y-11689563D01*
X13335243Y-11901697D01*
X13547377Y-11901697D01*
X13547377Y-11901697D02*
X13547377Y-11689563D01*
X13335243Y-11689563D01*
X13335243Y-11901697D01*
X13547377Y-11901697D01*
X13547377Y-13601697D02*
X13547377Y-13389563D01*
X13335243Y-13389563D01*
X13335243Y-13601697D01*
X13547377Y-13601697D01*
X13547377Y-13601697D02*
X13547377Y-13389563D01*
X13335243Y-13389563D01*
X13335243Y-13601697D01*
X13547377Y-13601697D01*
X14047377Y-8281697D02*
X14047377Y-8069563D01*
X13835243Y-8069563D01*
X13835243Y-8281697D01*
X14047377Y-8281697D01*
X14047377Y-9981697D02*
X14047377Y-9769563D01*
X13835243Y-9769563D01*
X13835243Y-9981697D01*
X14047377Y-9981697D01*
X14047377Y-11681697D02*
X14047377Y-11469563D01*
X13835243Y-11469563D01*
X13835243Y-11681697D01*
X14047377Y-11681697D01*
X14047377Y-13381697D02*
X14047377Y-13169563D01*
X13835243Y-13169563D01*
X13835243Y-13381697D01*
X14047377Y-13381697D01*
X14847377Y-8081697D02*
X14847377Y-7869563D01*
X14635243Y-7869563D01*
X14635243Y-8081697D01*
X14847377Y-8081697D01*
X14847377Y-9781697D02*
X14847377Y-9569563D01*
X14635243Y-9569563D01*
X14635243Y-9781697D01*
X14847377Y-9781697D01*
X14847377Y-11481697D02*
X14847377Y-11269563D01*
X14635243Y-11269563D01*
X14635243Y-11481697D01*
X14847377Y-11481697D01*
X14847377Y-13181697D02*
X14847377Y-12969563D01*
X14635243Y-12969563D01*
X14635243Y-13181697D01*
X14847377Y-13181697D01*
X15347377Y-8301697D02*
X15347377Y-8089563D01*
X15135243Y-8089563D01*
X15135243Y-8301697D01*
X15347377Y-8301697D01*
X15347377Y-8301697D02*
X15347377Y-8089563D01*
X15135243Y-8089563D01*
X15135243Y-8301697D01*
X15347377Y-8301697D01*
X15347377Y-10001697D02*
X15347377Y-9789563D01*
X15135243Y-9789563D01*
X15135243Y-10001697D01*
X15347377Y-10001697D01*
X15347377Y-10001697D02*
X15347377Y-9789563D01*
X15135243Y-9789563D01*
X15135243Y-10001697D01*
X15347377Y-10001697D01*
X15347377Y-11701697D02*
X15347377Y-11489563D01*
X15135243Y-11489563D01*
X15135243Y-11701697D01*
X15347377Y-11701697D01*
X15347377Y-11701697D02*
X15347377Y-11489563D01*
X15135243Y-11489563D01*
X15135243Y-11701697D01*
X15347377Y-11701697D01*
X15347377Y-13401697D02*
X15347377Y-13189563D01*
X15135243Y-13189563D01*
X15135243Y-13401697D01*
X15347377Y-13401697D01*
X15347377Y-13401697D02*
X15347377Y-13189563D01*
X15135243Y-13189563D01*
X15135243Y-13401697D01*
X15347377Y-13401697D01*
X15847377Y-8081697D02*
X15847377Y-7869563D01*
X15635243Y-7869563D01*
X15635243Y-8081697D01*
X15847377Y-8081697D01*
X15847377Y-9781697D02*
X15847377Y-9569563D01*
X15635243Y-9569563D01*
X15635243Y-9781697D01*
X15847377Y-9781697D01*
X15847377Y-11481697D02*
X15847377Y-11269563D01*
X15635243Y-11269563D01*
X15635243Y-11481697D01*
X15847377Y-11481697D01*
X15847377Y-13181697D02*
X15847377Y-12969563D01*
X15635243Y-12969563D01*
X15635243Y-13181697D01*
X15847377Y-13181697D01*
X16647377Y-8281697D02*
X16647377Y-8069563D01*
X16435243Y-8069563D01*
X16435243Y-8281697D01*
X16647377Y-8281697D01*
X16647377Y-9981697D02*
X16647377Y-9769563D01*
X16435243Y-9769563D01*
X16435243Y-9981697D01*
X16647377Y-9981697D01*
X16647377Y-11681697D02*
X16647377Y-11469563D01*
X16435243Y-11469563D01*
X16435243Y-11681697D01*
X16647377Y-11681697D01*
X16647377Y-13381697D02*
X16647377Y-13169563D01*
X16435243Y-13169563D01*
X16435243Y-13381697D01*
X16647377Y-13381697D01*
X17147377Y-8501697D02*
X17147377Y-8289563D01*
X16935243Y-8289563D01*
X16935243Y-8501697D01*
X17147377Y-8501697D01*
X17147377Y-8501697D02*
X17147377Y-8289563D01*
X16935243Y-8289563D01*
X16935243Y-8501697D01*
X17147377Y-8501697D01*
X17147377Y-10201697D02*
X17147377Y-9989563D01*
X16935243Y-9989563D01*
X16935243Y-10201697D01*
X17147377Y-10201697D01*
X17147377Y-10201697D02*
X17147377Y-9989563D01*
X16935243Y-9989563D01*
X16935243Y-10201697D01*
X17147377Y-10201697D01*
X17147377Y-11901697D02*
X17147377Y-11689563D01*
X16935243Y-11689563D01*
X16935243Y-11901697D01*
X17147377Y-11901697D01*
X17147377Y-11901697D02*
X17147377Y-11689563D01*
X16935243Y-11689563D01*
X16935243Y-11901697D01*
X17147377Y-11901697D01*
X17147377Y-13601697D02*
X17147377Y-13389563D01*
X16935243Y-13389563D01*
X16935243Y-13601697D01*
X17147377Y-13601697D01*
X17147377Y-13601697D02*
X17147377Y-13389563D01*
X16935243Y-13389563D01*
X16935243Y-13601697D01*
X17147377Y-13601697D01*
X17367377Y-15281697D02*
X17367377Y-15069563D01*
X17155243Y-15069563D01*
X17155243Y-15281697D01*
X17367377Y-15281697D01*
X17647377Y-8281697D02*
X17647377Y-8069563D01*
X17435243Y-8069563D01*
X17435243Y-8281697D01*
X17647377Y-8281697D01*
X17647377Y-9981697D02*
X17647377Y-9769563D01*
X17435243Y-9769563D01*
X17435243Y-9981697D01*
X17647377Y-9981697D01*
X17647377Y-11681697D02*
X17647377Y-11469563D01*
X17435243Y-11469563D01*
X17435243Y-11681697D01*
X17647377Y-11681697D01*
X17647377Y-13381697D02*
X17647377Y-13169563D01*
X17435243Y-13169563D01*
X17435243Y-13381697D01*
X17647377Y-13381697D01*
X17867377Y-15501697D02*
X17867377Y-15289563D01*
X17655243Y-15289563D01*
X17655243Y-15501697D01*
X17867377Y-15501697D01*
X17867377Y-15501697D02*
X17867377Y-15289563D01*
X17655243Y-15289563D01*
X17655243Y-15501697D01*
X17867377Y-15501697D01*
X18367377Y-15281697D02*
X18367377Y-15069563D01*
X18155243Y-15069563D01*
X18155243Y-15281697D01*
X18367377Y-15281697D01*
X18447377Y-8481697D02*
X18447377Y-8269563D01*
X18235243Y-8269563D01*
X18235243Y-8481697D01*
X18447377Y-8481697D01*
X18447377Y-10181697D02*
X18447377Y-9969563D01*
X18235243Y-9969563D01*
X18235243Y-10181697D01*
X18447377Y-10181697D01*
X18447377Y-11881697D02*
X18447377Y-11669563D01*
X18235243Y-11669563D01*
X18235243Y-11881697D01*
X18447377Y-11881697D01*
X18447377Y-13581697D02*
X18447377Y-13369563D01*
X18235243Y-13369563D01*
X18235243Y-13581697D01*
X18447377Y-13581697D01*
X18947377Y-8701697D02*
X18947377Y-8489563D01*
X18735243Y-8489563D01*
X18735243Y-8701697D01*
X18947377Y-8701697D01*
X18947377Y-8701697D02*
X18947377Y-8489563D01*
X18735243Y-8489563D01*
X18735243Y-8701697D01*
X18947377Y-8701697D01*
X18947377Y-10401697D02*
X18947377Y-10189563D01*
X18735243Y-10189563D01*
X18735243Y-10401697D01*
X18947377Y-10401697D01*
X18947377Y-10401697D02*
X18947377Y-10189563D01*
X18735243Y-10189563D01*
X18735243Y-10401697D01*
X18947377Y-10401697D01*
X18947377Y-12101697D02*
X18947377Y-11889563D01*
X18735243Y-11889563D01*
X18735243Y-12101697D01*
X18947377Y-12101697D01*
X18947377Y-12101697D02*
X18947377Y-11889563D01*
X18735243Y-11889563D01*
X18735243Y-12101697D01*
X18947377Y-12101697D01*
X18947377Y-13801697D02*
X18947377Y-13589563D01*
X18735243Y-13589563D01*
X18735243Y-13801697D01*
X18947377Y-13801697D01*
X18947377Y-13801697D02*
X18947377Y-13589563D01*
X18735243Y-13589563D01*
X18735243Y-13801697D01*
X18947377Y-13801697D01*
X19275967Y-15428835D02*
X19275967Y-15216701D01*
X19063833Y-15216701D01*
X19063833Y-15428835D01*
X19275967Y-15428835D01*
X19447377Y-8481697D02*
X19447377Y-8269563D01*
X19235243Y-8269563D01*
X19235243Y-8481697D01*
X19447377Y-8481697D01*
X19447377Y-10181697D02*
X19447377Y-9969563D01*
X19235243Y-9969563D01*
X19235243Y-10181697D01*
X19447377Y-10181697D01*
X19447377Y-11881697D02*
X19447377Y-11669563D01*
X19235243Y-11669563D01*
X19235243Y-11881697D01*
X19447377Y-11881697D01*
X19447377Y-13581697D02*
X19447377Y-13369563D01*
X19235243Y-13369563D01*
X19235243Y-13581697D01*
X19447377Y-13581697D01*
X19683512Y-15792576D02*
X19683512Y-15580442D01*
X19471378Y-15580442D01*
X19471378Y-15792576D01*
X19683512Y-15792576D01*
X19683512Y-15792576D02*
X19683512Y-15580442D01*
X19471378Y-15580442D01*
X19471378Y-15792576D01*
X19683512Y-15792576D01*
X20227024Y-15737852D02*
X20227024Y-15525718D01*
X20014890Y-15525718D01*
X20014890Y-15737852D01*
X20227024Y-15737852D01*
X21042449Y-16156186D02*
X21042449Y-15944052D01*
X20830315Y-15944052D01*
X20830315Y-16156186D01*
X21042449Y-16156186D01*
X21317645Y-16628062D02*
X21317645Y-16415928D01*
X21105511Y-16415928D01*
X21105511Y-16628062D01*
X21317645Y-16628062D01*
X21317645Y-16628062D02*
X21317645Y-16415928D01*
X21105511Y-16415928D01*
X21105511Y-16628062D01*
X21317645Y-16628062D01*
X21851466Y-16743971D02*
X21851466Y-16531837D01*
X21639332Y-16531837D01*
X21639332Y-16743971D01*
X21851466Y-16743971D01*
D16*
X9290220Y-10121080D02*
X9461670Y-9949630D01*
X9290220Y-9778180D01*
X9118770Y-9949630D01*
X9290220Y-10121080D01*
X9526810Y-11804540D02*
X9698260Y-11633090D01*
X9526810Y-11461640D01*
X9355360Y-11633090D01*
X9526810Y-11804540D01*
X9763410Y-13487990D02*
X9934860Y-13316540D01*
X9763410Y-13145090D01*
X9591960Y-13316540D01*
X9763410Y-13487990D01*
X10000000Y-15171450D02*
X10171450Y-15000000D01*
X10000000Y-14828550D01*
X9828550Y-15000000D01*
X10000000Y-15171450D01*
X11072700Y-9870570D02*
X11244150Y-9699120D01*
X11072700Y-9527670D01*
X10901250Y-9699120D01*
X11072700Y-9870570D01*
X11309290Y-11554030D02*
X11480740Y-11382580D01*
X11309290Y-11211130D01*
X11137840Y-11382580D01*
X11309290Y-11554030D01*
X11545890Y-13237480D02*
X11717340Y-13066030D01*
X11545890Y-12894580D01*
X11374440Y-13066030D01*
X11545890Y-13237480D01*
X11782480Y-14920940D02*
X11953930Y-14749490D01*
X11782480Y-14578040D01*
X11611030Y-14749490D01*
X11782480Y-14920940D01*
X13441310Y-7972080D02*
X13612760Y-7800630D01*
X13441310Y-7629180D01*
X13269860Y-7800630D01*
X13441310Y-7972080D01*
X13441310Y-9672080D02*
X13612760Y-9500630D01*
X13441310Y-9329180D01*
X13269860Y-9500630D01*
X13441310Y-9672080D01*
X13441310Y-11372080D02*
X13612760Y-11200630D01*
X13441310Y-11029180D01*
X13269860Y-11200630D01*
X13441310Y-11372080D01*
X13441310Y-13072080D02*
X13612760Y-12900630D01*
X13441310Y-12729180D01*
X13269860Y-12900630D01*
X13441310Y-13072080D01*
X15241310Y-7772080D02*
X15412760Y-7600630D01*
X15241310Y-7429180D01*
X15069860Y-7600630D01*
X15241310Y-7772080D01*
X15241310Y-9472080D02*
X15412760Y-9300630D01*
X15241310Y-9129180D01*
X15069860Y-9300630D01*
X15241310Y-9472080D01*
X15241310Y-11172080D02*
X15412760Y-11000630D01*
X15241310Y-10829180D01*
X15069860Y-11000630D01*
X15241310Y-11172080D01*
X15241310Y-12872080D02*
X15412760Y-12700630D01*
X15241310Y-12529180D01*
X15069860Y-12700630D01*
X15241310Y-12872080D01*
X17041310Y-7972080D02*
X17212760Y-7800630D01*
X17041310Y-7629180D01*
X16869860Y-7800630D01*
X17041310Y-7972080D01*
X17041310Y-9672080D02*
X17212760Y-9500630D01*
X17041310Y-9329180D01*
X16869860Y-9500630D01*
X17041310Y-9672080D01*
X17041310Y-11372080D02*
X17212760Y-11200630D01*
X17041310Y-11029180D01*
X16869860Y-11200630D01*
X17041310Y-11372080D01*
X17041310Y-13072080D02*
X17212760Y-12900630D01*
X17041310Y-12729180D01*
X16869860Y-12900630D01*
X17041310Y-13072080D01*
X17761310Y-14972080D02*
X17932760Y-14800630D01*
X17761310Y-14629180D01*
X17589860Y-14800630D01*
X17761310Y-14972080D01*
X18841310Y-8172080D02*
X19012760Y-8000630D01*
X18841310Y-7829180D01*
X18669860Y-8000630D01*
X18841310Y-8172080D01*
X18841310Y-9872080D02*
X19012760Y-9700630D01*
X18841310Y-9529180D01*
X18669860Y-9700630D01*
X18841310Y-9872080D01*
X18841310Y-11572080D02*
X19012760Y-11400630D01*
X18841310Y-11229180D01*
X18669860Y-11400630D01*
X18841310Y-11572080D01*
X18841310Y-13272080D02*
X19012760Y-13100630D01*
X18841310Y-12929180D01*
X18669860Y-13100630D01*
X18841310Y-13272080D01*
X19761310Y-15292080D02*
X19932760Y-15120630D01*
X19761310Y-14949180D01*
X19589860Y-15120630D01*
X19761310Y-15292080D01*
X21561310Y-16212080D02*
X21732760Y-16040630D01*
X21561310Y-15869180D01*
X21389860Y-16040630D01*
X21561310Y-16212080D01*
D12*
X8357937Y-17740254D02*
X8357937Y-17540254D01*
X8357937Y-17540254D02*
X8405556Y-17540254D01*
X8405556Y-17540254D02*
X8434127Y-17549778D01*
X8434127Y-17549778D02*
X8453175Y-17568825D01*
X8453175Y-17568825D02*
X8462699Y-17587873D01*
X8462699Y-17587873D02*
X8472223Y-17625968D01*
X8472223Y-17625968D02*
X8472223Y-17654539D01*
X8472223Y-17654539D02*
X8462699Y-17692635D01*
X8462699Y-17692635D02*
X8453175Y-17711682D01*
X8453175Y-17711682D02*
X8434127Y-17730730D01*
X8434127Y-17730730D02*
X8405556Y-17740254D01*
X8405556Y-17740254D02*
X8357937Y-17740254D01*
X8557937Y-17740254D02*
X8557937Y-17606920D01*
X8557937Y-17645016D02*
X8567461Y-17625968D01*
X8567461Y-17625968D02*
X8576985Y-17616444D01*
X8576985Y-17616444D02*
X8596032Y-17606920D01*
X8596032Y-17606920D02*
X8615080Y-17606920D01*
X8681746Y-17740254D02*
X8681746Y-17606920D01*
X8681746Y-17540254D02*
X8672223Y-17549778D01*
X8672223Y-17549778D02*
X8681746Y-17559301D01*
X8681746Y-17559301D02*
X8691270Y-17549778D01*
X8691270Y-17549778D02*
X8681746Y-17540254D01*
X8681746Y-17540254D02*
X8681746Y-17559301D01*
X8805556Y-17740254D02*
X8786508Y-17730730D01*
X8786508Y-17730730D02*
X8776985Y-17711682D01*
X8776985Y-17711682D02*
X8776985Y-17540254D01*
X8910318Y-17740254D02*
X8891270Y-17730730D01*
X8891270Y-17730730D02*
X8881746Y-17711682D01*
X8881746Y-17711682D02*
X8881746Y-17540254D01*
X9138889Y-17740254D02*
X9138889Y-17540254D01*
X9138889Y-17540254D02*
X9205556Y-17683111D01*
X9205556Y-17683111D02*
X9272223Y-17540254D01*
X9272223Y-17540254D02*
X9272223Y-17740254D01*
X9453175Y-17740254D02*
X9453175Y-17635492D01*
X9453175Y-17635492D02*
X9443651Y-17616444D01*
X9443651Y-17616444D02*
X9424604Y-17606920D01*
X9424604Y-17606920D02*
X9386508Y-17606920D01*
X9386508Y-17606920D02*
X9367461Y-17616444D01*
X9453175Y-17730730D02*
X9434127Y-17740254D01*
X9434127Y-17740254D02*
X9386508Y-17740254D01*
X9386508Y-17740254D02*
X9367461Y-17730730D01*
X9367461Y-17730730D02*
X9357937Y-17711682D01*
X9357937Y-17711682D02*
X9357937Y-17692635D01*
X9357937Y-17692635D02*
X9367461Y-17673587D01*
X9367461Y-17673587D02*
X9386508Y-17664063D01*
X9386508Y-17664063D02*
X9434127Y-17664063D01*
X9434127Y-17664063D02*
X9453175Y-17654539D01*
X9548413Y-17606920D02*
X9548413Y-17806920D01*
X9548413Y-17616444D02*
X9567461Y-17606920D01*
X9567461Y-17606920D02*
X9605556Y-17606920D01*
X9605556Y-17606920D02*
X9624604Y-17616444D01*
X9624604Y-17616444D02*
X9634127Y-17625968D01*
X9634127Y-17625968D02*
X9643651Y-17645016D01*
X9643651Y-17645016D02*
X9643651Y-17702158D01*
X9643651Y-17702158D02*
X9634127Y-17721206D01*
X9634127Y-17721206D02*
X9624604Y-17730730D01*
X9624604Y-17730730D02*
X9605556Y-17740254D01*
X9605556Y-17740254D02*
X9567461Y-17740254D01*
X9567461Y-17740254D02*
X9548413Y-17730730D01*
X9729366Y-17721206D02*
X9738889Y-17730730D01*
X9738889Y-17730730D02*
X9729366Y-17740254D01*
X9729366Y-17740254D02*
X9719842Y-17730730D01*
X9719842Y-17730730D02*
X9729366Y-17721206D01*
X9729366Y-17721206D02*
X9729366Y-17740254D01*
X9729366Y-17616444D02*
X9738889Y-17625968D01*
X9738889Y-17625968D02*
X9729366Y-17635492D01*
X9729366Y-17635492D02*
X9719842Y-17625968D01*
X9719842Y-17625968D02*
X9729366Y-17616444D01*
X9729366Y-17616444D02*
X9729366Y-17635492D01*
D13*
X8007160Y-18023770D02*
X8097160Y-18113770D01*
X8097160Y-18023770D02*
X8007160Y-18113770D01*
D12*
X8396032Y-17960254D02*
X8415080Y-17960254D01*
X8415080Y-17960254D02*
X8434127Y-17969778D01*
X8434127Y-17969778D02*
X8443651Y-17979301D01*
X8443651Y-17979301D02*
X8453175Y-17998349D01*
X8453175Y-17998349D02*
X8462699Y-18036444D01*
X8462699Y-18036444D02*
X8462699Y-18084063D01*
X8462699Y-18084063D02*
X8453175Y-18122158D01*
X8453175Y-18122158D02*
X8443651Y-18141206D01*
X8443651Y-18141206D02*
X8434127Y-18150730D01*
X8434127Y-18150730D02*
X8415080Y-18160254D01*
X8415080Y-18160254D02*
X8396032Y-18160254D01*
X8396032Y-18160254D02*
X8376984Y-18150730D01*
X8376984Y-18150730D02*
X8367461Y-18141206D01*
X8367461Y-18141206D02*
X8357937Y-18122158D01*
X8357937Y-18122158D02*
X8348413Y-18084063D01*
X8348413Y-18084063D02*
X8348413Y-18036444D01*
X8348413Y-18036444D02*
X8357937Y-17998349D01*
X8357937Y-17998349D02*
X8367461Y-17979301D01*
X8367461Y-17979301D02*
X8376984Y-17969778D01*
X8376984Y-17969778D02*
X8396032Y-17960254D01*
X8548413Y-18141206D02*
X8557937Y-18150730D01*
X8557937Y-18150730D02*
X8548413Y-18160254D01*
X8548413Y-18160254D02*
X8538889Y-18150730D01*
X8538889Y-18150730D02*
X8548413Y-18141206D01*
X8548413Y-18141206D02*
X8548413Y-18160254D01*
X8653175Y-18160254D02*
X8691270Y-18160254D01*
X8691270Y-18160254D02*
X8710318Y-18150730D01*
X8710318Y-18150730D02*
X8719842Y-18141206D01*
X8719842Y-18141206D02*
X8738889Y-18112635D01*
X8738889Y-18112635D02*
X8748413Y-18074539D01*
X8748413Y-18074539D02*
X8748413Y-17998349D01*
X8748413Y-17998349D02*
X8738889Y-17979301D01*
X8738889Y-17979301D02*
X8729366Y-17969778D01*
X8729366Y-17969778D02*
X8710318Y-17960254D01*
X8710318Y-17960254D02*
X8672223Y-17960254D01*
X8672223Y-17960254D02*
X8653175Y-17969778D01*
X8653175Y-17969778D02*
X8643651Y-17979301D01*
X8643651Y-17979301D02*
X8634127Y-17998349D01*
X8634127Y-17998349D02*
X8634127Y-18045968D01*
X8634127Y-18045968D02*
X8643651Y-18065016D01*
X8643651Y-18065016D02*
X8653175Y-18074539D01*
X8653175Y-18074539D02*
X8672223Y-18084063D01*
X8672223Y-18084063D02*
X8710318Y-18084063D01*
X8710318Y-18084063D02*
X8729366Y-18074539D01*
X8729366Y-18074539D02*
X8738889Y-18065016D01*
X8738889Y-18065016D02*
X8748413Y-18045968D01*
X8872223Y-17960254D02*
X8891270Y-17960254D01*
X8891270Y-17960254D02*
X8910318Y-17969778D01*
X8910318Y-17969778D02*
X8919842Y-17979301D01*
X8919842Y-17979301D02*
X8929366Y-17998349D01*
X8929366Y-17998349D02*
X8938889Y-18036444D01*
X8938889Y-18036444D02*
X8938889Y-18084063D01*
X8938889Y-18084063D02*
X8929366Y-18122158D01*
X8929366Y-18122158D02*
X8919842Y-18141206D01*
X8919842Y-18141206D02*
X8910318Y-18150730D01*
X8910318Y-18150730D02*
X8891270Y-18160254D01*
X8891270Y-18160254D02*
X8872223Y-18160254D01*
X8872223Y-18160254D02*
X8853175Y-18150730D01*
X8853175Y-18150730D02*
X8843651Y-18141206D01*
X8843651Y-18141206D02*
X8834127Y-18122158D01*
X8834127Y-18122158D02*
X8824604Y-18084063D01*
X8824604Y-18084063D02*
X8824604Y-18036444D01*
X8824604Y-18036444D02*
X8834127Y-17998349D01*
X8834127Y-17998349D02*
X8843651Y-17979301D01*
X8843651Y-17979301D02*
X8853175Y-17969778D01*
X8853175Y-17969778D02*
X8872223Y-17960254D01*
X9062699Y-17960254D02*
X9081747Y-17960254D01*
X9081747Y-17960254D02*
X9100794Y-17969778D01*
X9100794Y-17969778D02*
X9110318Y-17979301D01*
X9110318Y-17979301D02*
X9119842Y-17998349D01*
X9119842Y-17998349D02*
X9129366Y-18036444D01*
X9129366Y-18036444D02*
X9129366Y-18084063D01*
X9129366Y-18084063D02*
X9119842Y-18122158D01*
X9119842Y-18122158D02*
X9110318Y-18141206D01*
X9110318Y-18141206D02*
X9100794Y-18150730D01*
X9100794Y-18150730D02*
X9081747Y-18160254D01*
X9081747Y-18160254D02*
X9062699Y-18160254D01*
X9062699Y-18160254D02*
X9043651Y-18150730D01*
X9043651Y-18150730D02*
X9034127Y-18141206D01*
X9034127Y-18141206D02*
X9024604Y-18122158D01*
X9024604Y-18122158D02*
X9015080Y-18084063D01*
X9015080Y-18084063D02*
X9015080Y-18036444D01*
X9015080Y-18036444D02*
X9024604Y-17998349D01*
X9024604Y-17998349D02*
X9034127Y-17979301D01*
X9034127Y-17979301D02*
X9043651Y-17969778D01*
X9043651Y-17969778D02*
X9062699Y-17960254D01*
X9215080Y-18160254D02*
X9215080Y-18026920D01*
X9215080Y-18045968D02*
X9224604Y-18036444D01*
X9224604Y-18036444D02*
X9243651Y-18026920D01*
X9243651Y-18026920D02*
X9272223Y-18026920D01*
X9272223Y-18026920D02*
X9291270Y-18036444D01*
X9291270Y-18036444D02*
X9300794Y-18055492D01*
X9300794Y-18055492D02*
X9300794Y-18160254D01*
X9300794Y-18055492D02*
X9310318Y-18036444D01*
X9310318Y-18036444D02*
X9329366Y-18026920D01*
X9329366Y-18026920D02*
X9357937Y-18026920D01*
X9357937Y-18026920D02*
X9376985Y-18036444D01*
X9376985Y-18036444D02*
X9386508Y-18055492D01*
X9386508Y-18055492D02*
X9386508Y-18160254D01*
X9481747Y-18160254D02*
X9481747Y-18026920D01*
X9481747Y-18045968D02*
X9491270Y-18036444D01*
X9491270Y-18036444D02*
X9510318Y-18026920D01*
X9510318Y-18026920D02*
X9538889Y-18026920D01*
X9538889Y-18026920D02*
X9557937Y-18036444D01*
X9557937Y-18036444D02*
X9567461Y-18055492D01*
X9567461Y-18055492D02*
X9567461Y-18160254D01*
X9567461Y-18055492D02*
X9576985Y-18036444D01*
X9576985Y-18036444D02*
X9596032Y-18026920D01*
X9596032Y-18026920D02*
X9624604Y-18026920D01*
X9624604Y-18026920D02*
X9643651Y-18036444D01*
X9643651Y-18036444D02*
X9653175Y-18055492D01*
X9653175Y-18055492D02*
X9653175Y-18160254D01*
X10043651Y-17950730D02*
X9872223Y-18207873D01*
X10300794Y-17960254D02*
X10319842Y-17960254D01*
X10319842Y-17960254D02*
X10338890Y-17969778D01*
X10338890Y-17969778D02*
X10348413Y-17979301D01*
X10348413Y-17979301D02*
X10357937Y-17998349D01*
X10357937Y-17998349D02*
X10367461Y-18036444D01*
X10367461Y-18036444D02*
X10367461Y-18084063D01*
X10367461Y-18084063D02*
X10357937Y-18122158D01*
X10357937Y-18122158D02*
X10348413Y-18141206D01*
X10348413Y-18141206D02*
X10338890Y-18150730D01*
X10338890Y-18150730D02*
X10319842Y-18160254D01*
X10319842Y-18160254D02*
X10300794Y-18160254D01*
X10300794Y-18160254D02*
X10281747Y-18150730D01*
X10281747Y-18150730D02*
X10272223Y-18141206D01*
X10272223Y-18141206D02*
X10262699Y-18122158D01*
X10262699Y-18122158D02*
X10253175Y-18084063D01*
X10253175Y-18084063D02*
X10253175Y-18036444D01*
X10253175Y-18036444D02*
X10262699Y-17998349D01*
X10262699Y-17998349D02*
X10272223Y-17979301D01*
X10272223Y-17979301D02*
X10281747Y-17969778D01*
X10281747Y-17969778D02*
X10300794Y-17960254D01*
X10453175Y-18141206D02*
X10462699Y-18150730D01*
X10462699Y-18150730D02*
X10453175Y-18160254D01*
X10453175Y-18160254D02*
X10443651Y-18150730D01*
X10443651Y-18150730D02*
X10453175Y-18141206D01*
X10453175Y-18141206D02*
X10453175Y-18160254D01*
X10586509Y-17960254D02*
X10605556Y-17960254D01*
X10605556Y-17960254D02*
X10624604Y-17969778D01*
X10624604Y-17969778D02*
X10634128Y-17979301D01*
X10634128Y-17979301D02*
X10643651Y-17998349D01*
X10643651Y-17998349D02*
X10653175Y-18036444D01*
X10653175Y-18036444D02*
X10653175Y-18084063D01*
X10653175Y-18084063D02*
X10643651Y-18122158D01*
X10643651Y-18122158D02*
X10634128Y-18141206D01*
X10634128Y-18141206D02*
X10624604Y-18150730D01*
X10624604Y-18150730D02*
X10605556Y-18160254D01*
X10605556Y-18160254D02*
X10586509Y-18160254D01*
X10586509Y-18160254D02*
X10567461Y-18150730D01*
X10567461Y-18150730D02*
X10557937Y-18141206D01*
X10557937Y-18141206D02*
X10548413Y-18122158D01*
X10548413Y-18122158D02*
X10538890Y-18084063D01*
X10538890Y-18084063D02*
X10538890Y-18036444D01*
X10538890Y-18036444D02*
X10548413Y-17998349D01*
X10548413Y-17998349D02*
X10557937Y-17979301D01*
X10557937Y-17979301D02*
X10567461Y-17969778D01*
X10567461Y-17969778D02*
X10586509Y-17960254D01*
X10719842Y-17960254D02*
X10843651Y-17960254D01*
X10843651Y-17960254D02*
X10776985Y-18036444D01*
X10776985Y-18036444D02*
X10805556Y-18036444D01*
X10805556Y-18036444D02*
X10824604Y-18045968D01*
X10824604Y-18045968D02*
X10834128Y-18055492D01*
X10834128Y-18055492D02*
X10843651Y-18074539D01*
X10843651Y-18074539D02*
X10843651Y-18122158D01*
X10843651Y-18122158D02*
X10834128Y-18141206D01*
X10834128Y-18141206D02*
X10824604Y-18150730D01*
X10824604Y-18150730D02*
X10805556Y-18160254D01*
X10805556Y-18160254D02*
X10748413Y-18160254D01*
X10748413Y-18160254D02*
X10729366Y-18150730D01*
X10729366Y-18150730D02*
X10719842Y-18141206D01*
X11024604Y-17960254D02*
X10929366Y-17960254D01*
X10929366Y-17960254D02*
X10919842Y-18055492D01*
X10919842Y-18055492D02*
X10929366Y-18045968D01*
X10929366Y-18045968D02*
X10948413Y-18036444D01*
X10948413Y-18036444D02*
X10996032Y-18036444D01*
X10996032Y-18036444D02*
X11015080Y-18045968D01*
X11015080Y-18045968D02*
X11024604Y-18055492D01*
X11024604Y-18055492D02*
X11034128Y-18074539D01*
X11034128Y-18074539D02*
X11034128Y-18122158D01*
X11034128Y-18122158D02*
X11024604Y-18141206D01*
X11024604Y-18141206D02*
X11015080Y-18150730D01*
X11015080Y-18150730D02*
X10996032Y-18160254D01*
X10996032Y-18160254D02*
X10948413Y-18160254D01*
X10948413Y-18160254D02*
X10929366Y-18150730D01*
X10929366Y-18150730D02*
X10919842Y-18141206D01*
X11205556Y-18026920D02*
X11205556Y-18160254D01*
X11157937Y-17950730D02*
X11110318Y-18093587D01*
X11110318Y-18093587D02*
X11234128Y-18093587D01*
X11300794Y-17960254D02*
X11300794Y-17998349D01*
X11376985Y-17960254D02*
X11376985Y-17998349D01*
X11672223Y-18236444D02*
X11662699Y-18226920D01*
X11662699Y-18226920D02*
X11643651Y-18198349D01*
X11643651Y-18198349D02*
X11634128Y-18179301D01*
X11634128Y-18179301D02*
X11624604Y-18150730D01*
X11624604Y-18150730D02*
X11615080Y-18103111D01*
X11615080Y-18103111D02*
X11615080Y-18065016D01*
X11615080Y-18065016D02*
X11624604Y-18017397D01*
X11624604Y-18017397D02*
X11634128Y-17988825D01*
X11634128Y-17988825D02*
X11643651Y-17969778D01*
X11643651Y-17969778D02*
X11662699Y-17941206D01*
X11662699Y-17941206D02*
X11672223Y-17931682D01*
X11834128Y-18026920D02*
X11834128Y-18160254D01*
X11786509Y-17950730D02*
X11738890Y-18093587D01*
X11738890Y-18093587D02*
X11862699Y-18093587D01*
X12091271Y-18160254D02*
X12091271Y-17960254D01*
X12176985Y-18160254D02*
X12176985Y-18055492D01*
X12176985Y-18055492D02*
X12167461Y-18036444D01*
X12167461Y-18036444D02*
X12148413Y-18026920D01*
X12148413Y-18026920D02*
X12119842Y-18026920D01*
X12119842Y-18026920D02*
X12100794Y-18036444D01*
X12100794Y-18036444D02*
X12091271Y-18045968D01*
X12300794Y-18160254D02*
X12281747Y-18150730D01*
X12281747Y-18150730D02*
X12272223Y-18141206D01*
X12272223Y-18141206D02*
X12262699Y-18122158D01*
X12262699Y-18122158D02*
X12262699Y-18065016D01*
X12262699Y-18065016D02*
X12272223Y-18045968D01*
X12272223Y-18045968D02*
X12281747Y-18036444D01*
X12281747Y-18036444D02*
X12300794Y-18026920D01*
X12300794Y-18026920D02*
X12329366Y-18026920D01*
X12329366Y-18026920D02*
X12348413Y-18036444D01*
X12348413Y-18036444D02*
X12357937Y-18045968D01*
X12357937Y-18045968D02*
X12367461Y-18065016D01*
X12367461Y-18065016D02*
X12367461Y-18122158D01*
X12367461Y-18122158D02*
X12357937Y-18141206D01*
X12357937Y-18141206D02*
X12348413Y-18150730D01*
X12348413Y-18150730D02*
X12329366Y-18160254D01*
X12329366Y-18160254D02*
X12300794Y-18160254D01*
X12481747Y-18160254D02*
X12462699Y-18150730D01*
X12462699Y-18150730D02*
X12453175Y-18131682D01*
X12453175Y-18131682D02*
X12453175Y-17960254D01*
X12634128Y-18150730D02*
X12615080Y-18160254D01*
X12615080Y-18160254D02*
X12576985Y-18160254D01*
X12576985Y-18160254D02*
X12557937Y-18150730D01*
X12557937Y-18150730D02*
X12548413Y-18131682D01*
X12548413Y-18131682D02*
X12548413Y-18055492D01*
X12548413Y-18055492D02*
X12557937Y-18036444D01*
X12557937Y-18036444D02*
X12576985Y-18026920D01*
X12576985Y-18026920D02*
X12615080Y-18026920D01*
X12615080Y-18026920D02*
X12634128Y-18036444D01*
X12634128Y-18036444D02*
X12643652Y-18055492D01*
X12643652Y-18055492D02*
X12643652Y-18074539D01*
X12643652Y-18074539D02*
X12548413Y-18093587D01*
X12719842Y-18150730D02*
X12738890Y-18160254D01*
X12738890Y-18160254D02*
X12776985Y-18160254D01*
X12776985Y-18160254D02*
X12796033Y-18150730D01*
X12796033Y-18150730D02*
X12805556Y-18131682D01*
X12805556Y-18131682D02*
X12805556Y-18122158D01*
X12805556Y-18122158D02*
X12796033Y-18103111D01*
X12796033Y-18103111D02*
X12776985Y-18093587D01*
X12776985Y-18093587D02*
X12748413Y-18093587D01*
X12748413Y-18093587D02*
X12729366Y-18084063D01*
X12729366Y-18084063D02*
X12719842Y-18065016D01*
X12719842Y-18065016D02*
X12719842Y-18055492D01*
X12719842Y-18055492D02*
X12729366Y-18036444D01*
X12729366Y-18036444D02*
X12748413Y-18026920D01*
X12748413Y-18026920D02*
X12776985Y-18026920D01*
X12776985Y-18026920D02*
X12796033Y-18036444D01*
X12872223Y-18236444D02*
X12881747Y-18226920D01*
X12881747Y-18226920D02*
X12900794Y-18198349D01*
X12900794Y-18198349D02*
X12910318Y-18179301D01*
X12910318Y-18179301D02*
X12919842Y-18150730D01*
X12919842Y-18150730D02*
X12929366Y-18103111D01*
X12929366Y-18103111D02*
X12929366Y-18065016D01*
X12929366Y-18065016D02*
X12919842Y-18017397D01*
X12919842Y-18017397D02*
X12910318Y-17988825D01*
X12910318Y-17988825D02*
X12900794Y-17969778D01*
X12900794Y-17969778D02*
X12881747Y-17941206D01*
X12881747Y-17941206D02*
X12872223Y-17931682D01*
X13234128Y-18236444D02*
X13224604Y-18226920D01*
X13224604Y-18226920D02*
X13205556Y-18198349D01*
X13205556Y-18198349D02*
X13196033Y-18179301D01*
X13196033Y-18179301D02*
X13186509Y-18150730D01*
X13186509Y-18150730D02*
X13176985Y-18103111D01*
X13176985Y-18103111D02*
X13176985Y-18065016D01*
X13176985Y-18065016D02*
X13186509Y-18017397D01*
X13186509Y-18017397D02*
X13196033Y-17988825D01*
X13196033Y-17988825D02*
X13205556Y-17969778D01*
X13205556Y-17969778D02*
X13224604Y-17941206D01*
X13224604Y-17941206D02*
X13234128Y-17931682D01*
X13310318Y-18026920D02*
X13310318Y-18160254D01*
X13310318Y-18045968D02*
X13319842Y-18036444D01*
X13319842Y-18036444D02*
X13338890Y-18026920D01*
X13338890Y-18026920D02*
X13367461Y-18026920D01*
X13367461Y-18026920D02*
X13386509Y-18036444D01*
X13386509Y-18036444D02*
X13396033Y-18055492D01*
X13396033Y-18055492D02*
X13396033Y-18160254D01*
X13519842Y-18160254D02*
X13500794Y-18150730D01*
X13500794Y-18150730D02*
X13491271Y-18141206D01*
X13491271Y-18141206D02*
X13481747Y-18122158D01*
X13481747Y-18122158D02*
X13481747Y-18065016D01*
X13481747Y-18065016D02*
X13491271Y-18045968D01*
X13491271Y-18045968D02*
X13500794Y-18036444D01*
X13500794Y-18036444D02*
X13519842Y-18026920D01*
X13519842Y-18026920D02*
X13548414Y-18026920D01*
X13548414Y-18026920D02*
X13567461Y-18036444D01*
X13567461Y-18036444D02*
X13576985Y-18045968D01*
X13576985Y-18045968D02*
X13586509Y-18065016D01*
X13586509Y-18065016D02*
X13586509Y-18122158D01*
X13586509Y-18122158D02*
X13576985Y-18141206D01*
X13576985Y-18141206D02*
X13567461Y-18150730D01*
X13567461Y-18150730D02*
X13548414Y-18160254D01*
X13548414Y-18160254D02*
X13519842Y-18160254D01*
X13643652Y-18026920D02*
X13719842Y-18026920D01*
X13672223Y-17960254D02*
X13672223Y-18131682D01*
X13672223Y-18131682D02*
X13681747Y-18150730D01*
X13681747Y-18150730D02*
X13700794Y-18160254D01*
X13700794Y-18160254D02*
X13719842Y-18160254D01*
X13938890Y-18026920D02*
X13938890Y-18226920D01*
X13938890Y-18036444D02*
X13957937Y-18026920D01*
X13957937Y-18026920D02*
X13996033Y-18026920D01*
X13996033Y-18026920D02*
X14015080Y-18036444D01*
X14015080Y-18036444D02*
X14024604Y-18045968D01*
X14024604Y-18045968D02*
X14034128Y-18065016D01*
X14034128Y-18065016D02*
X14034128Y-18122158D01*
X14034128Y-18122158D02*
X14024604Y-18141206D01*
X14024604Y-18141206D02*
X14015080Y-18150730D01*
X14015080Y-18150730D02*
X13996033Y-18160254D01*
X13996033Y-18160254D02*
X13957937Y-18160254D01*
X13957937Y-18160254D02*
X13938890Y-18150730D01*
X14148414Y-18160254D02*
X14129366Y-18150730D01*
X14129366Y-18150730D02*
X14119842Y-18131682D01*
X14119842Y-18131682D02*
X14119842Y-17960254D01*
X14310318Y-18160254D02*
X14310318Y-18055492D01*
X14310318Y-18055492D02*
X14300795Y-18036444D01*
X14300795Y-18036444D02*
X14281747Y-18026920D01*
X14281747Y-18026920D02*
X14243652Y-18026920D01*
X14243652Y-18026920D02*
X14224604Y-18036444D01*
X14310318Y-18150730D02*
X14291271Y-18160254D01*
X14291271Y-18160254D02*
X14243652Y-18160254D01*
X14243652Y-18160254D02*
X14224604Y-18150730D01*
X14224604Y-18150730D02*
X14215080Y-18131682D01*
X14215080Y-18131682D02*
X14215080Y-18112635D01*
X14215080Y-18112635D02*
X14224604Y-18093587D01*
X14224604Y-18093587D02*
X14243652Y-18084063D01*
X14243652Y-18084063D02*
X14291271Y-18084063D01*
X14291271Y-18084063D02*
X14310318Y-18074539D01*
X14376985Y-18026920D02*
X14453175Y-18026920D01*
X14405556Y-17960254D02*
X14405556Y-18131682D01*
X14405556Y-18131682D02*
X14415080Y-18150730D01*
X14415080Y-18150730D02*
X14434128Y-18160254D01*
X14434128Y-18160254D02*
X14453175Y-18160254D01*
X14596033Y-18150730D02*
X14576985Y-18160254D01*
X14576985Y-18160254D02*
X14538890Y-18160254D01*
X14538890Y-18160254D02*
X14519842Y-18150730D01*
X14519842Y-18150730D02*
X14510318Y-18131682D01*
X14510318Y-18131682D02*
X14510318Y-18055492D01*
X14510318Y-18055492D02*
X14519842Y-18036444D01*
X14519842Y-18036444D02*
X14538890Y-18026920D01*
X14538890Y-18026920D02*
X14576985Y-18026920D01*
X14576985Y-18026920D02*
X14596033Y-18036444D01*
X14596033Y-18036444D02*
X14605556Y-18055492D01*
X14605556Y-18055492D02*
X14605556Y-18074539D01*
X14605556Y-18074539D02*
X14510318Y-18093587D01*
X14776985Y-18160254D02*
X14776985Y-17960254D01*
X14776985Y-18150730D02*
X14757937Y-18160254D01*
X14757937Y-18160254D02*
X14719842Y-18160254D01*
X14719842Y-18160254D02*
X14700795Y-18150730D01*
X14700795Y-18150730D02*
X14691271Y-18141206D01*
X14691271Y-18141206D02*
X14681747Y-18122158D01*
X14681747Y-18122158D02*
X14681747Y-18065016D01*
X14681747Y-18065016D02*
X14691271Y-18045968D01*
X14691271Y-18045968D02*
X14700795Y-18036444D01*
X14700795Y-18036444D02*
X14719842Y-18026920D01*
X14719842Y-18026920D02*
X14757937Y-18026920D01*
X14757937Y-18026920D02*
X14776985Y-18036444D01*
X14853176Y-18236444D02*
X14862699Y-18226920D01*
X14862699Y-18226920D02*
X14881747Y-18198349D01*
X14881747Y-18198349D02*
X14891271Y-18179301D01*
X14891271Y-18179301D02*
X14900795Y-18150730D01*
X14900795Y-18150730D02*
X14910318Y-18103111D01*
X14910318Y-18103111D02*
X14910318Y-18065016D01*
X14910318Y-18065016D02*
X14900795Y-18017397D01*
X14900795Y-18017397D02*
X14891271Y-17988825D01*
X14891271Y-17988825D02*
X14881747Y-17969778D01*
X14881747Y-17969778D02*
X14862699Y-17941206D01*
X14862699Y-17941206D02*
X14853176Y-17931682D01*
D11*
X8097160Y-18332770D02*
G75*
G02*
X7977160Y-18332770I-60000J0D01*
G01*
X7977160Y-18332770D02*
G75*
G02*
X8097160Y-18332770I60000J0D01*
G01*
D12*
X8462699Y-18424254D02*
X8348413Y-18424254D01*
X8405556Y-18424254D02*
X8405556Y-18224254D01*
X8405556Y-18224254D02*
X8386508Y-18252825D01*
X8386508Y-18252825D02*
X8367461Y-18271873D01*
X8367461Y-18271873D02*
X8348413Y-18281397D01*
X8548413Y-18405206D02*
X8557937Y-18414730D01*
X8557937Y-18414730D02*
X8548413Y-18424254D01*
X8548413Y-18424254D02*
X8538889Y-18414730D01*
X8538889Y-18414730D02*
X8548413Y-18405206D01*
X8548413Y-18405206D02*
X8548413Y-18424254D01*
X8634127Y-18243301D02*
X8643651Y-18233778D01*
X8643651Y-18233778D02*
X8662699Y-18224254D01*
X8662699Y-18224254D02*
X8710318Y-18224254D01*
X8710318Y-18224254D02*
X8729366Y-18233778D01*
X8729366Y-18233778D02*
X8738889Y-18243301D01*
X8738889Y-18243301D02*
X8748413Y-18262349D01*
X8748413Y-18262349D02*
X8748413Y-18281397D01*
X8748413Y-18281397D02*
X8738889Y-18309968D01*
X8738889Y-18309968D02*
X8624604Y-18424254D01*
X8624604Y-18424254D02*
X8748413Y-18424254D01*
X8872223Y-18224254D02*
X8891270Y-18224254D01*
X8891270Y-18224254D02*
X8910318Y-18233778D01*
X8910318Y-18233778D02*
X8919842Y-18243301D01*
X8919842Y-18243301D02*
X8929366Y-18262349D01*
X8929366Y-18262349D02*
X8938889Y-18300444D01*
X8938889Y-18300444D02*
X8938889Y-18348063D01*
X8938889Y-18348063D02*
X8929366Y-18386158D01*
X8929366Y-18386158D02*
X8919842Y-18405206D01*
X8919842Y-18405206D02*
X8910318Y-18414730D01*
X8910318Y-18414730D02*
X8891270Y-18424254D01*
X8891270Y-18424254D02*
X8872223Y-18424254D01*
X8872223Y-18424254D02*
X8853175Y-18414730D01*
X8853175Y-18414730D02*
X8843651Y-18405206D01*
X8843651Y-18405206D02*
X8834127Y-18386158D01*
X8834127Y-18386158D02*
X8824604Y-18348063D01*
X8824604Y-18348063D02*
X8824604Y-18300444D01*
X8824604Y-18300444D02*
X8834127Y-18262349D01*
X8834127Y-18262349D02*
X8843651Y-18243301D01*
X8843651Y-18243301D02*
X8853175Y-18233778D01*
X8853175Y-18233778D02*
X8872223Y-18224254D01*
X9062699Y-18224254D02*
X9081747Y-18224254D01*
X9081747Y-18224254D02*
X9100794Y-18233778D01*
X9100794Y-18233778D02*
X9110318Y-18243301D01*
X9110318Y-18243301D02*
X9119842Y-18262349D01*
X9119842Y-18262349D02*
X9129366Y-18300444D01*
X9129366Y-18300444D02*
X9129366Y-18348063D01*
X9129366Y-18348063D02*
X9119842Y-18386158D01*
X9119842Y-18386158D02*
X9110318Y-18405206D01*
X9110318Y-18405206D02*
X9100794Y-18414730D01*
X9100794Y-18414730D02*
X9081747Y-18424254D01*
X9081747Y-18424254D02*
X9062699Y-18424254D01*
X9062699Y-18424254D02*
X9043651Y-18414730D01*
X9043651Y-18414730D02*
X9034127Y-18405206D01*
X9034127Y-18405206D02*
X9024604Y-18386158D01*
X9024604Y-18386158D02*
X9015080Y-18348063D01*
X9015080Y-18348063D02*
X9015080Y-18300444D01*
X9015080Y-18300444D02*
X9024604Y-18262349D01*
X9024604Y-18262349D02*
X9034127Y-18243301D01*
X9034127Y-18243301D02*
X9043651Y-18233778D01*
X9043651Y-18233778D02*
X9062699Y-18224254D01*
X9215080Y-18424254D02*
X9215080Y-18290920D01*
X9215080Y-18309968D02*
X9224604Y-18300444D01*
X9224604Y-18300444D02*
X9243651Y-18290920D01*
X9243651Y-18290920D02*
X9272223Y-18290920D01*
X9272223Y-18290920D02*
X9291270Y-18300444D01*
X9291270Y-18300444D02*
X9300794Y-18319492D01*
X9300794Y-18319492D02*
X9300794Y-18424254D01*
X9300794Y-18319492D02*
X9310318Y-18300444D01*
X9310318Y-18300444D02*
X9329366Y-18290920D01*
X9329366Y-18290920D02*
X9357937Y-18290920D01*
X9357937Y-18290920D02*
X9376985Y-18300444D01*
X9376985Y-18300444D02*
X9386508Y-18319492D01*
X9386508Y-18319492D02*
X9386508Y-18424254D01*
X9481747Y-18424254D02*
X9481747Y-18290920D01*
X9481747Y-18309968D02*
X9491270Y-18300444D01*
X9491270Y-18300444D02*
X9510318Y-18290920D01*
X9510318Y-18290920D02*
X9538889Y-18290920D01*
X9538889Y-18290920D02*
X9557937Y-18300444D01*
X9557937Y-18300444D02*
X9567461Y-18319492D01*
X9567461Y-18319492D02*
X9567461Y-18424254D01*
X9567461Y-18319492D02*
X9576985Y-18300444D01*
X9576985Y-18300444D02*
X9596032Y-18290920D01*
X9596032Y-18290920D02*
X9624604Y-18290920D01*
X9624604Y-18290920D02*
X9643651Y-18300444D01*
X9643651Y-18300444D02*
X9653175Y-18319492D01*
X9653175Y-18319492D02*
X9653175Y-18424254D01*
X10043651Y-18214730D02*
X9872223Y-18471873D01*
X10300794Y-18224254D02*
X10319842Y-18224254D01*
X10319842Y-18224254D02*
X10338890Y-18233778D01*
X10338890Y-18233778D02*
X10348413Y-18243301D01*
X10348413Y-18243301D02*
X10357937Y-18262349D01*
X10357937Y-18262349D02*
X10367461Y-18300444D01*
X10367461Y-18300444D02*
X10367461Y-18348063D01*
X10367461Y-18348063D02*
X10357937Y-18386158D01*
X10357937Y-18386158D02*
X10348413Y-18405206D01*
X10348413Y-18405206D02*
X10338890Y-18414730D01*
X10338890Y-18414730D02*
X10319842Y-18424254D01*
X10319842Y-18424254D02*
X10300794Y-18424254D01*
X10300794Y-18424254D02*
X10281747Y-18414730D01*
X10281747Y-18414730D02*
X10272223Y-18405206D01*
X10272223Y-18405206D02*
X10262699Y-18386158D01*
X10262699Y-18386158D02*
X10253175Y-18348063D01*
X10253175Y-18348063D02*
X10253175Y-18300444D01*
X10253175Y-18300444D02*
X10262699Y-18262349D01*
X10262699Y-18262349D02*
X10272223Y-18243301D01*
X10272223Y-18243301D02*
X10281747Y-18233778D01*
X10281747Y-18233778D02*
X10300794Y-18224254D01*
X10453175Y-18405206D02*
X10462699Y-18414730D01*
X10462699Y-18414730D02*
X10453175Y-18424254D01*
X10453175Y-18424254D02*
X10443651Y-18414730D01*
X10443651Y-18414730D02*
X10453175Y-18405206D01*
X10453175Y-18405206D02*
X10453175Y-18424254D01*
X10586509Y-18224254D02*
X10605556Y-18224254D01*
X10605556Y-18224254D02*
X10624604Y-18233778D01*
X10624604Y-18233778D02*
X10634128Y-18243301D01*
X10634128Y-18243301D02*
X10643651Y-18262349D01*
X10643651Y-18262349D02*
X10653175Y-18300444D01*
X10653175Y-18300444D02*
X10653175Y-18348063D01*
X10653175Y-18348063D02*
X10643651Y-18386158D01*
X10643651Y-18386158D02*
X10634128Y-18405206D01*
X10634128Y-18405206D02*
X10624604Y-18414730D01*
X10624604Y-18414730D02*
X10605556Y-18424254D01*
X10605556Y-18424254D02*
X10586509Y-18424254D01*
X10586509Y-18424254D02*
X10567461Y-18414730D01*
X10567461Y-18414730D02*
X10557937Y-18405206D01*
X10557937Y-18405206D02*
X10548413Y-18386158D01*
X10548413Y-18386158D02*
X10538890Y-18348063D01*
X10538890Y-18348063D02*
X10538890Y-18300444D01*
X10538890Y-18300444D02*
X10548413Y-18262349D01*
X10548413Y-18262349D02*
X10557937Y-18243301D01*
X10557937Y-18243301D02*
X10567461Y-18233778D01*
X10567461Y-18233778D02*
X10586509Y-18224254D01*
X10824604Y-18290920D02*
X10824604Y-18424254D01*
X10776985Y-18214730D02*
X10729366Y-18357587D01*
X10729366Y-18357587D02*
X10853175Y-18357587D01*
X10910318Y-18224254D02*
X11043651Y-18224254D01*
X11043651Y-18224254D02*
X10957937Y-18424254D01*
X11110318Y-18243301D02*
X11119842Y-18233778D01*
X11119842Y-18233778D02*
X11138890Y-18224254D01*
X11138890Y-18224254D02*
X11186509Y-18224254D01*
X11186509Y-18224254D02*
X11205556Y-18233778D01*
X11205556Y-18233778D02*
X11215080Y-18243301D01*
X11215080Y-18243301D02*
X11224604Y-18262349D01*
X11224604Y-18262349D02*
X11224604Y-18281397D01*
X11224604Y-18281397D02*
X11215080Y-18309968D01*
X11215080Y-18309968D02*
X11100794Y-18424254D01*
X11100794Y-18424254D02*
X11224604Y-18424254D01*
X11300794Y-18224254D02*
X11300794Y-18262349D01*
X11376985Y-18224254D02*
X11376985Y-18262349D01*
X11672223Y-18500444D02*
X11662699Y-18490920D01*
X11662699Y-18490920D02*
X11643651Y-18462349D01*
X11643651Y-18462349D02*
X11634128Y-18443301D01*
X11634128Y-18443301D02*
X11624604Y-18414730D01*
X11624604Y-18414730D02*
X11615080Y-18367111D01*
X11615080Y-18367111D02*
X11615080Y-18329016D01*
X11615080Y-18329016D02*
X11624604Y-18281397D01*
X11624604Y-18281397D02*
X11634128Y-18252825D01*
X11634128Y-18252825D02*
X11643651Y-18233778D01*
X11643651Y-18233778D02*
X11662699Y-18205206D01*
X11662699Y-18205206D02*
X11672223Y-18195682D01*
X11738890Y-18243301D02*
X11748413Y-18233778D01*
X11748413Y-18233778D02*
X11767461Y-18224254D01*
X11767461Y-18224254D02*
X11815080Y-18224254D01*
X11815080Y-18224254D02*
X11834128Y-18233778D01*
X11834128Y-18233778D02*
X11843651Y-18243301D01*
X11843651Y-18243301D02*
X11853175Y-18262349D01*
X11853175Y-18262349D02*
X11853175Y-18281397D01*
X11853175Y-18281397D02*
X11843651Y-18309968D01*
X11843651Y-18309968D02*
X11729366Y-18424254D01*
X11729366Y-18424254D02*
X11853175Y-18424254D01*
X12091271Y-18424254D02*
X12091271Y-18224254D01*
X12176985Y-18424254D02*
X12176985Y-18319492D01*
X12176985Y-18319492D02*
X12167461Y-18300444D01*
X12167461Y-18300444D02*
X12148413Y-18290920D01*
X12148413Y-18290920D02*
X12119842Y-18290920D01*
X12119842Y-18290920D02*
X12100794Y-18300444D01*
X12100794Y-18300444D02*
X12091271Y-18309968D01*
X12300794Y-18424254D02*
X12281747Y-18414730D01*
X12281747Y-18414730D02*
X12272223Y-18405206D01*
X12272223Y-18405206D02*
X12262699Y-18386158D01*
X12262699Y-18386158D02*
X12262699Y-18329016D01*
X12262699Y-18329016D02*
X12272223Y-18309968D01*
X12272223Y-18309968D02*
X12281747Y-18300444D01*
X12281747Y-18300444D02*
X12300794Y-18290920D01*
X12300794Y-18290920D02*
X12329366Y-18290920D01*
X12329366Y-18290920D02*
X12348413Y-18300444D01*
X12348413Y-18300444D02*
X12357937Y-18309968D01*
X12357937Y-18309968D02*
X12367461Y-18329016D01*
X12367461Y-18329016D02*
X12367461Y-18386158D01*
X12367461Y-18386158D02*
X12357937Y-18405206D01*
X12357937Y-18405206D02*
X12348413Y-18414730D01*
X12348413Y-18414730D02*
X12329366Y-18424254D01*
X12329366Y-18424254D02*
X12300794Y-18424254D01*
X12481747Y-18424254D02*
X12462699Y-18414730D01*
X12462699Y-18414730D02*
X12453175Y-18395682D01*
X12453175Y-18395682D02*
X12453175Y-18224254D01*
X12634128Y-18414730D02*
X12615080Y-18424254D01*
X12615080Y-18424254D02*
X12576985Y-18424254D01*
X12576985Y-18424254D02*
X12557937Y-18414730D01*
X12557937Y-18414730D02*
X12548413Y-18395682D01*
X12548413Y-18395682D02*
X12548413Y-18319492D01*
X12548413Y-18319492D02*
X12557937Y-18300444D01*
X12557937Y-18300444D02*
X12576985Y-18290920D01*
X12576985Y-18290920D02*
X12615080Y-18290920D01*
X12615080Y-18290920D02*
X12634128Y-18300444D01*
X12634128Y-18300444D02*
X12643652Y-18319492D01*
X12643652Y-18319492D02*
X12643652Y-18338539D01*
X12643652Y-18338539D02*
X12548413Y-18357587D01*
X12719842Y-18414730D02*
X12738890Y-18424254D01*
X12738890Y-18424254D02*
X12776985Y-18424254D01*
X12776985Y-18424254D02*
X12796033Y-18414730D01*
X12796033Y-18414730D02*
X12805556Y-18395682D01*
X12805556Y-18395682D02*
X12805556Y-18386158D01*
X12805556Y-18386158D02*
X12796033Y-18367111D01*
X12796033Y-18367111D02*
X12776985Y-18357587D01*
X12776985Y-18357587D02*
X12748413Y-18357587D01*
X12748413Y-18357587D02*
X12729366Y-18348063D01*
X12729366Y-18348063D02*
X12719842Y-18329016D01*
X12719842Y-18329016D02*
X12719842Y-18319492D01*
X12719842Y-18319492D02*
X12729366Y-18300444D01*
X12729366Y-18300444D02*
X12748413Y-18290920D01*
X12748413Y-18290920D02*
X12776985Y-18290920D01*
X12776985Y-18290920D02*
X12796033Y-18300444D01*
X12872223Y-18500444D02*
X12881747Y-18490920D01*
X12881747Y-18490920D02*
X12900794Y-18462349D01*
X12900794Y-18462349D02*
X12910318Y-18443301D01*
X12910318Y-18443301D02*
X12919842Y-18414730D01*
X12919842Y-18414730D02*
X12929366Y-18367111D01*
X12929366Y-18367111D02*
X12929366Y-18329016D01*
X12929366Y-18329016D02*
X12919842Y-18281397D01*
X12919842Y-18281397D02*
X12910318Y-18252825D01*
X12910318Y-18252825D02*
X12900794Y-18233778D01*
X12900794Y-18233778D02*
X12881747Y-18205206D01*
X12881747Y-18205206D02*
X12872223Y-18195682D01*
X13234128Y-18500444D02*
X13224604Y-18490920D01*
X13224604Y-18490920D02*
X13205556Y-18462349D01*
X13205556Y-18462349D02*
X13196033Y-18443301D01*
X13196033Y-18443301D02*
X13186509Y-18414730D01*
X13186509Y-18414730D02*
X13176985Y-18367111D01*
X13176985Y-18367111D02*
X13176985Y-18329016D01*
X13176985Y-18329016D02*
X13186509Y-18281397D01*
X13186509Y-18281397D02*
X13196033Y-18252825D01*
X13196033Y-18252825D02*
X13205556Y-18233778D01*
X13205556Y-18233778D02*
X13224604Y-18205206D01*
X13224604Y-18205206D02*
X13234128Y-18195682D01*
X13310318Y-18290920D02*
X13310318Y-18424254D01*
X13310318Y-18309968D02*
X13319842Y-18300444D01*
X13319842Y-18300444D02*
X13338890Y-18290920D01*
X13338890Y-18290920D02*
X13367461Y-18290920D01*
X13367461Y-18290920D02*
X13386509Y-18300444D01*
X13386509Y-18300444D02*
X13396033Y-18319492D01*
X13396033Y-18319492D02*
X13396033Y-18424254D01*
X13519842Y-18424254D02*
X13500794Y-18414730D01*
X13500794Y-18414730D02*
X13491271Y-18405206D01*
X13491271Y-18405206D02*
X13481747Y-18386158D01*
X13481747Y-18386158D02*
X13481747Y-18329016D01*
X13481747Y-18329016D02*
X13491271Y-18309968D01*
X13491271Y-18309968D02*
X13500794Y-18300444D01*
X13500794Y-18300444D02*
X13519842Y-18290920D01*
X13519842Y-18290920D02*
X13548414Y-18290920D01*
X13548414Y-18290920D02*
X13567461Y-18300444D01*
X13567461Y-18300444D02*
X13576985Y-18309968D01*
X13576985Y-18309968D02*
X13586509Y-18329016D01*
X13586509Y-18329016D02*
X13586509Y-18386158D01*
X13586509Y-18386158D02*
X13576985Y-18405206D01*
X13576985Y-18405206D02*
X13567461Y-18414730D01*
X13567461Y-18414730D02*
X13548414Y-18424254D01*
X13548414Y-18424254D02*
X13519842Y-18424254D01*
X13643652Y-18290920D02*
X13719842Y-18290920D01*
X13672223Y-18224254D02*
X13672223Y-18395682D01*
X13672223Y-18395682D02*
X13681747Y-18414730D01*
X13681747Y-18414730D02*
X13700794Y-18424254D01*
X13700794Y-18424254D02*
X13719842Y-18424254D01*
X13938890Y-18290920D02*
X13938890Y-18490920D01*
X13938890Y-18300444D02*
X13957937Y-18290920D01*
X13957937Y-18290920D02*
X13996033Y-18290920D01*
X13996033Y-18290920D02*
X14015080Y-18300444D01*
X14015080Y-18300444D02*
X14024604Y-18309968D01*
X14024604Y-18309968D02*
X14034128Y-18329016D01*
X14034128Y-18329016D02*
X14034128Y-18386158D01*
X14034128Y-18386158D02*
X14024604Y-18405206D01*
X14024604Y-18405206D02*
X14015080Y-18414730D01*
X14015080Y-18414730D02*
X13996033Y-18424254D01*
X13996033Y-18424254D02*
X13957937Y-18424254D01*
X13957937Y-18424254D02*
X13938890Y-18414730D01*
X14148414Y-18424254D02*
X14129366Y-18414730D01*
X14129366Y-18414730D02*
X14119842Y-18395682D01*
X14119842Y-18395682D02*
X14119842Y-18224254D01*
X14310318Y-18424254D02*
X14310318Y-18319492D01*
X14310318Y-18319492D02*
X14300795Y-18300444D01*
X14300795Y-18300444D02*
X14281747Y-18290920D01*
X14281747Y-18290920D02*
X14243652Y-18290920D01*
X14243652Y-18290920D02*
X14224604Y-18300444D01*
X14310318Y-18414730D02*
X14291271Y-18424254D01*
X14291271Y-18424254D02*
X14243652Y-18424254D01*
X14243652Y-18424254D02*
X14224604Y-18414730D01*
X14224604Y-18414730D02*
X14215080Y-18395682D01*
X14215080Y-18395682D02*
X14215080Y-18376635D01*
X14215080Y-18376635D02*
X14224604Y-18357587D01*
X14224604Y-18357587D02*
X14243652Y-18348063D01*
X14243652Y-18348063D02*
X14291271Y-18348063D01*
X14291271Y-18348063D02*
X14310318Y-18338539D01*
X14376985Y-18290920D02*
X14453175Y-18290920D01*
X14405556Y-18224254D02*
X14405556Y-18395682D01*
X14405556Y-18395682D02*
X14415080Y-18414730D01*
X14415080Y-18414730D02*
X14434128Y-18424254D01*
X14434128Y-18424254D02*
X14453175Y-18424254D01*
X14596033Y-18414730D02*
X14576985Y-18424254D01*
X14576985Y-18424254D02*
X14538890Y-18424254D01*
X14538890Y-18424254D02*
X14519842Y-18414730D01*
X14519842Y-18414730D02*
X14510318Y-18395682D01*
X14510318Y-18395682D02*
X14510318Y-18319492D01*
X14510318Y-18319492D02*
X14519842Y-18300444D01*
X14519842Y-18300444D02*
X14538890Y-18290920D01*
X14538890Y-18290920D02*
X14576985Y-18290920D01*
X14576985Y-18290920D02*
X14596033Y-18300444D01*
X14596033Y-18300444D02*
X14605556Y-18319492D01*
X14605556Y-18319492D02*
X14605556Y-18338539D01*
X14605556Y-18338539D02*
X14510318Y-18357587D01*
X14776985Y-18424254D02*
X14776985Y-18224254D01*
X14776985Y-18414730D02*
X14757937Y-18424254D01*
X14757937Y-18424254D02*
X14719842Y-18424254D01*
X14719842Y-18424254D02*
X14700795Y-18414730D01*
X14700795Y-18414730D02*
X14691271Y-18405206D01*
X14691271Y-18405206D02*
X14681747Y-18386158D01*
X14681747Y-18386158D02*
X14681747Y-18329016D01*
X14681747Y-18329016D02*
X14691271Y-18309968D01*
X14691271Y-18309968D02*
X14700795Y-18300444D01*
X14700795Y-18300444D02*
X14719842Y-18290920D01*
X14719842Y-18290920D02*
X14757937Y-18290920D01*
X14757937Y-18290920D02*
X14776985Y-18300444D01*
X14853176Y-18500444D02*
X14862699Y-18490920D01*
X14862699Y-18490920D02*
X14881747Y-18462349D01*
X14881747Y-18462349D02*
X14891271Y-18443301D01*
X14891271Y-18443301D02*
X14900795Y-18414730D01*
X14900795Y-18414730D02*
X14910318Y-18367111D01*
X14910318Y-18367111D02*
X14910318Y-18329016D01*
X14910318Y-18329016D02*
X14900795Y-18281397D01*
X14900795Y-18281397D02*
X14891271Y-18252825D01*
X14891271Y-18252825D02*
X14881747Y-18233778D01*
X14881747Y-18233778D02*
X14862699Y-18205206D01*
X14862699Y-18205206D02*
X14853176Y-18195682D01*
D14*
X8012070Y-18511680D02*
X8012070Y-18681860D01*
X7926980Y-18596770D02*
X8097160Y-18596770D01*
D12*
X8462699Y-18688254D02*
X8348413Y-18688254D01*
X8405556Y-18688254D02*
X8405556Y-18488254D01*
X8405556Y-18488254D02*
X8386508Y-18516825D01*
X8386508Y-18516825D02*
X8367461Y-18535873D01*
X8367461Y-18535873D02*
X8348413Y-18545397D01*
X8548413Y-18669206D02*
X8557937Y-18678730D01*
X8557937Y-18678730D02*
X8548413Y-18688254D01*
X8548413Y-18688254D02*
X8538889Y-18678730D01*
X8538889Y-18678730D02*
X8548413Y-18669206D01*
X8548413Y-18669206D02*
X8548413Y-18688254D01*
X8624604Y-18488254D02*
X8757937Y-18488254D01*
X8757937Y-18488254D02*
X8672223Y-18688254D01*
X8872223Y-18488254D02*
X8891270Y-18488254D01*
X8891270Y-18488254D02*
X8910318Y-18497778D01*
X8910318Y-18497778D02*
X8919842Y-18507301D01*
X8919842Y-18507301D02*
X8929366Y-18526349D01*
X8929366Y-18526349D02*
X8938889Y-18564444D01*
X8938889Y-18564444D02*
X8938889Y-18612063D01*
X8938889Y-18612063D02*
X8929366Y-18650158D01*
X8929366Y-18650158D02*
X8919842Y-18669206D01*
X8919842Y-18669206D02*
X8910318Y-18678730D01*
X8910318Y-18678730D02*
X8891270Y-18688254D01*
X8891270Y-18688254D02*
X8872223Y-18688254D01*
X8872223Y-18688254D02*
X8853175Y-18678730D01*
X8853175Y-18678730D02*
X8843651Y-18669206D01*
X8843651Y-18669206D02*
X8834127Y-18650158D01*
X8834127Y-18650158D02*
X8824604Y-18612063D01*
X8824604Y-18612063D02*
X8824604Y-18564444D01*
X8824604Y-18564444D02*
X8834127Y-18526349D01*
X8834127Y-18526349D02*
X8843651Y-18507301D01*
X8843651Y-18507301D02*
X8853175Y-18497778D01*
X8853175Y-18497778D02*
X8872223Y-18488254D01*
X9015080Y-18507301D02*
X9024604Y-18497778D01*
X9024604Y-18497778D02*
X9043651Y-18488254D01*
X9043651Y-18488254D02*
X9091270Y-18488254D01*
X9091270Y-18488254D02*
X9110318Y-18497778D01*
X9110318Y-18497778D02*
X9119842Y-18507301D01*
X9119842Y-18507301D02*
X9129366Y-18526349D01*
X9129366Y-18526349D02*
X9129366Y-18545397D01*
X9129366Y-18545397D02*
X9119842Y-18573968D01*
X9119842Y-18573968D02*
X9005556Y-18688254D01*
X9005556Y-18688254D02*
X9129366Y-18688254D01*
X9215080Y-18688254D02*
X9215080Y-18554920D01*
X9215080Y-18573968D02*
X9224604Y-18564444D01*
X9224604Y-18564444D02*
X9243651Y-18554920D01*
X9243651Y-18554920D02*
X9272223Y-18554920D01*
X9272223Y-18554920D02*
X9291270Y-18564444D01*
X9291270Y-18564444D02*
X9300794Y-18583492D01*
X9300794Y-18583492D02*
X9300794Y-18688254D01*
X9300794Y-18583492D02*
X9310318Y-18564444D01*
X9310318Y-18564444D02*
X9329366Y-18554920D01*
X9329366Y-18554920D02*
X9357937Y-18554920D01*
X9357937Y-18554920D02*
X9376985Y-18564444D01*
X9376985Y-18564444D02*
X9386508Y-18583492D01*
X9386508Y-18583492D02*
X9386508Y-18688254D01*
X9481747Y-18688254D02*
X9481747Y-18554920D01*
X9481747Y-18573968D02*
X9491270Y-18564444D01*
X9491270Y-18564444D02*
X9510318Y-18554920D01*
X9510318Y-18554920D02*
X9538889Y-18554920D01*
X9538889Y-18554920D02*
X9557937Y-18564444D01*
X9557937Y-18564444D02*
X9567461Y-18583492D01*
X9567461Y-18583492D02*
X9567461Y-18688254D01*
X9567461Y-18583492D02*
X9576985Y-18564444D01*
X9576985Y-18564444D02*
X9596032Y-18554920D01*
X9596032Y-18554920D02*
X9624604Y-18554920D01*
X9624604Y-18554920D02*
X9643651Y-18564444D01*
X9643651Y-18564444D02*
X9653175Y-18583492D01*
X9653175Y-18583492D02*
X9653175Y-18688254D01*
X10043651Y-18478730D02*
X9872223Y-18735873D01*
X10300794Y-18488254D02*
X10319842Y-18488254D01*
X10319842Y-18488254D02*
X10338890Y-18497778D01*
X10338890Y-18497778D02*
X10348413Y-18507301D01*
X10348413Y-18507301D02*
X10357937Y-18526349D01*
X10357937Y-18526349D02*
X10367461Y-18564444D01*
X10367461Y-18564444D02*
X10367461Y-18612063D01*
X10367461Y-18612063D02*
X10357937Y-18650158D01*
X10357937Y-18650158D02*
X10348413Y-18669206D01*
X10348413Y-18669206D02*
X10338890Y-18678730D01*
X10338890Y-18678730D02*
X10319842Y-18688254D01*
X10319842Y-18688254D02*
X10300794Y-18688254D01*
X10300794Y-18688254D02*
X10281747Y-18678730D01*
X10281747Y-18678730D02*
X10272223Y-18669206D01*
X10272223Y-18669206D02*
X10262699Y-18650158D01*
X10262699Y-18650158D02*
X10253175Y-18612063D01*
X10253175Y-18612063D02*
X10253175Y-18564444D01*
X10253175Y-18564444D02*
X10262699Y-18526349D01*
X10262699Y-18526349D02*
X10272223Y-18507301D01*
X10272223Y-18507301D02*
X10281747Y-18497778D01*
X10281747Y-18497778D02*
X10300794Y-18488254D01*
X10453175Y-18669206D02*
X10462699Y-18678730D01*
X10462699Y-18678730D02*
X10453175Y-18688254D01*
X10453175Y-18688254D02*
X10443651Y-18678730D01*
X10443651Y-18678730D02*
X10453175Y-18669206D01*
X10453175Y-18669206D02*
X10453175Y-18688254D01*
X10586509Y-18488254D02*
X10605556Y-18488254D01*
X10605556Y-18488254D02*
X10624604Y-18497778D01*
X10624604Y-18497778D02*
X10634128Y-18507301D01*
X10634128Y-18507301D02*
X10643651Y-18526349D01*
X10643651Y-18526349D02*
X10653175Y-18564444D01*
X10653175Y-18564444D02*
X10653175Y-18612063D01*
X10653175Y-18612063D02*
X10643651Y-18650158D01*
X10643651Y-18650158D02*
X10634128Y-18669206D01*
X10634128Y-18669206D02*
X10624604Y-18678730D01*
X10624604Y-18678730D02*
X10605556Y-18688254D01*
X10605556Y-18688254D02*
X10586509Y-18688254D01*
X10586509Y-18688254D02*
X10567461Y-18678730D01*
X10567461Y-18678730D02*
X10557937Y-18669206D01*
X10557937Y-18669206D02*
X10548413Y-18650158D01*
X10548413Y-18650158D02*
X10538890Y-18612063D01*
X10538890Y-18612063D02*
X10538890Y-18564444D01*
X10538890Y-18564444D02*
X10548413Y-18526349D01*
X10548413Y-18526349D02*
X10557937Y-18507301D01*
X10557937Y-18507301D02*
X10567461Y-18497778D01*
X10567461Y-18497778D02*
X10586509Y-18488254D01*
X10824604Y-18488254D02*
X10786509Y-18488254D01*
X10786509Y-18488254D02*
X10767461Y-18497778D01*
X10767461Y-18497778D02*
X10757937Y-18507301D01*
X10757937Y-18507301D02*
X10738890Y-18535873D01*
X10738890Y-18535873D02*
X10729366Y-18573968D01*
X10729366Y-18573968D02*
X10729366Y-18650158D01*
X10729366Y-18650158D02*
X10738890Y-18669206D01*
X10738890Y-18669206D02*
X10748413Y-18678730D01*
X10748413Y-18678730D02*
X10767461Y-18688254D01*
X10767461Y-18688254D02*
X10805556Y-18688254D01*
X10805556Y-18688254D02*
X10824604Y-18678730D01*
X10824604Y-18678730D02*
X10834128Y-18669206D01*
X10834128Y-18669206D02*
X10843651Y-18650158D01*
X10843651Y-18650158D02*
X10843651Y-18602539D01*
X10843651Y-18602539D02*
X10834128Y-18583492D01*
X10834128Y-18583492D02*
X10824604Y-18573968D01*
X10824604Y-18573968D02*
X10805556Y-18564444D01*
X10805556Y-18564444D02*
X10767461Y-18564444D01*
X10767461Y-18564444D02*
X10748413Y-18573968D01*
X10748413Y-18573968D02*
X10738890Y-18583492D01*
X10738890Y-18583492D02*
X10729366Y-18602539D01*
X10910318Y-18488254D02*
X11043651Y-18488254D01*
X11043651Y-18488254D02*
X10957937Y-18688254D01*
X11157937Y-18488254D02*
X11176985Y-18488254D01*
X11176985Y-18488254D02*
X11196032Y-18497778D01*
X11196032Y-18497778D02*
X11205556Y-18507301D01*
X11205556Y-18507301D02*
X11215080Y-18526349D01*
X11215080Y-18526349D02*
X11224604Y-18564444D01*
X11224604Y-18564444D02*
X11224604Y-18612063D01*
X11224604Y-18612063D02*
X11215080Y-18650158D01*
X11215080Y-18650158D02*
X11205556Y-18669206D01*
X11205556Y-18669206D02*
X11196032Y-18678730D01*
X11196032Y-18678730D02*
X11176985Y-18688254D01*
X11176985Y-18688254D02*
X11157937Y-18688254D01*
X11157937Y-18688254D02*
X11138890Y-18678730D01*
X11138890Y-18678730D02*
X11129366Y-18669206D01*
X11129366Y-18669206D02*
X11119842Y-18650158D01*
X11119842Y-18650158D02*
X11110318Y-18612063D01*
X11110318Y-18612063D02*
X11110318Y-18564444D01*
X11110318Y-18564444D02*
X11119842Y-18526349D01*
X11119842Y-18526349D02*
X11129366Y-18507301D01*
X11129366Y-18507301D02*
X11138890Y-18497778D01*
X11138890Y-18497778D02*
X11157937Y-18488254D01*
X11300794Y-18488254D02*
X11300794Y-18526349D01*
X11376985Y-18488254D02*
X11376985Y-18526349D01*
X11672223Y-18764444D02*
X11662699Y-18754920D01*
X11662699Y-18754920D02*
X11643651Y-18726349D01*
X11643651Y-18726349D02*
X11634128Y-18707301D01*
X11634128Y-18707301D02*
X11624604Y-18678730D01*
X11624604Y-18678730D02*
X11615080Y-18631111D01*
X11615080Y-18631111D02*
X11615080Y-18593016D01*
X11615080Y-18593016D02*
X11624604Y-18545397D01*
X11624604Y-18545397D02*
X11634128Y-18516825D01*
X11634128Y-18516825D02*
X11643651Y-18497778D01*
X11643651Y-18497778D02*
X11662699Y-18469206D01*
X11662699Y-18469206D02*
X11672223Y-18459682D01*
X11843651Y-18488254D02*
X11748413Y-18488254D01*
X11748413Y-18488254D02*
X11738890Y-18583492D01*
X11738890Y-18583492D02*
X11748413Y-18573968D01*
X11748413Y-18573968D02*
X11767461Y-18564444D01*
X11767461Y-18564444D02*
X11815080Y-18564444D01*
X11815080Y-18564444D02*
X11834128Y-18573968D01*
X11834128Y-18573968D02*
X11843651Y-18583492D01*
X11843651Y-18583492D02*
X11853175Y-18602539D01*
X11853175Y-18602539D02*
X11853175Y-18650158D01*
X11853175Y-18650158D02*
X11843651Y-18669206D01*
X11843651Y-18669206D02*
X11834128Y-18678730D01*
X11834128Y-18678730D02*
X11815080Y-18688254D01*
X11815080Y-18688254D02*
X11767461Y-18688254D01*
X11767461Y-18688254D02*
X11748413Y-18678730D01*
X11748413Y-18678730D02*
X11738890Y-18669206D01*
X12024604Y-18554920D02*
X12024604Y-18688254D01*
X11976985Y-18478730D02*
X11929366Y-18621587D01*
X11929366Y-18621587D02*
X12053175Y-18621587D01*
X12281747Y-18688254D02*
X12281747Y-18488254D01*
X12367461Y-18688254D02*
X12367461Y-18583492D01*
X12367461Y-18583492D02*
X12357937Y-18564444D01*
X12357937Y-18564444D02*
X12338890Y-18554920D01*
X12338890Y-18554920D02*
X12310318Y-18554920D01*
X12310318Y-18554920D02*
X12291271Y-18564444D01*
X12291271Y-18564444D02*
X12281747Y-18573968D01*
X12491271Y-18688254D02*
X12472223Y-18678730D01*
X12472223Y-18678730D02*
X12462699Y-18669206D01*
X12462699Y-18669206D02*
X12453175Y-18650158D01*
X12453175Y-18650158D02*
X12453175Y-18593016D01*
X12453175Y-18593016D02*
X12462699Y-18573968D01*
X12462699Y-18573968D02*
X12472223Y-18564444D01*
X12472223Y-18564444D02*
X12491271Y-18554920D01*
X12491271Y-18554920D02*
X12519842Y-18554920D01*
X12519842Y-18554920D02*
X12538890Y-18564444D01*
X12538890Y-18564444D02*
X12548413Y-18573968D01*
X12548413Y-18573968D02*
X12557937Y-18593016D01*
X12557937Y-18593016D02*
X12557937Y-18650158D01*
X12557937Y-18650158D02*
X12548413Y-18669206D01*
X12548413Y-18669206D02*
X12538890Y-18678730D01*
X12538890Y-18678730D02*
X12519842Y-18688254D01*
X12519842Y-18688254D02*
X12491271Y-18688254D01*
X12672223Y-18688254D02*
X12653175Y-18678730D01*
X12653175Y-18678730D02*
X12643652Y-18659682D01*
X12643652Y-18659682D02*
X12643652Y-18488254D01*
X12824604Y-18678730D02*
X12805556Y-18688254D01*
X12805556Y-18688254D02*
X12767461Y-18688254D01*
X12767461Y-18688254D02*
X12748413Y-18678730D01*
X12748413Y-18678730D02*
X12738890Y-18659682D01*
X12738890Y-18659682D02*
X12738890Y-18583492D01*
X12738890Y-18583492D02*
X12748413Y-18564444D01*
X12748413Y-18564444D02*
X12767461Y-18554920D01*
X12767461Y-18554920D02*
X12805556Y-18554920D01*
X12805556Y-18554920D02*
X12824604Y-18564444D01*
X12824604Y-18564444D02*
X12834128Y-18583492D01*
X12834128Y-18583492D02*
X12834128Y-18602539D01*
X12834128Y-18602539D02*
X12738890Y-18621587D01*
X12910318Y-18678730D02*
X12929366Y-18688254D01*
X12929366Y-18688254D02*
X12967461Y-18688254D01*
X12967461Y-18688254D02*
X12986509Y-18678730D01*
X12986509Y-18678730D02*
X12996033Y-18659682D01*
X12996033Y-18659682D02*
X12996033Y-18650158D01*
X12996033Y-18650158D02*
X12986509Y-18631111D01*
X12986509Y-18631111D02*
X12967461Y-18621587D01*
X12967461Y-18621587D02*
X12938890Y-18621587D01*
X12938890Y-18621587D02*
X12919842Y-18612063D01*
X12919842Y-18612063D02*
X12910318Y-18593016D01*
X12910318Y-18593016D02*
X12910318Y-18583492D01*
X12910318Y-18583492D02*
X12919842Y-18564444D01*
X12919842Y-18564444D02*
X12938890Y-18554920D01*
X12938890Y-18554920D02*
X12967461Y-18554920D01*
X12967461Y-18554920D02*
X12986509Y-18564444D01*
X13062699Y-18764444D02*
X13072223Y-18754920D01*
X13072223Y-18754920D02*
X13091271Y-18726349D01*
X13091271Y-18726349D02*
X13100794Y-18707301D01*
X13100794Y-18707301D02*
X13110318Y-18678730D01*
X13110318Y-18678730D02*
X13119842Y-18631111D01*
X13119842Y-18631111D02*
X13119842Y-18593016D01*
X13119842Y-18593016D02*
X13110318Y-18545397D01*
X13110318Y-18545397D02*
X13100794Y-18516825D01*
X13100794Y-18516825D02*
X13091271Y-18497778D01*
X13091271Y-18497778D02*
X13072223Y-18469206D01*
X13072223Y-18469206D02*
X13062699Y-18459682D01*
X13424604Y-18764444D02*
X13415080Y-18754920D01*
X13415080Y-18754920D02*
X13396033Y-18726349D01*
X13396033Y-18726349D02*
X13386509Y-18707301D01*
X13386509Y-18707301D02*
X13376985Y-18678730D01*
X13376985Y-18678730D02*
X13367461Y-18631111D01*
X13367461Y-18631111D02*
X13367461Y-18593016D01*
X13367461Y-18593016D02*
X13376985Y-18545397D01*
X13376985Y-18545397D02*
X13386509Y-18516825D01*
X13386509Y-18516825D02*
X13396033Y-18497778D01*
X13396033Y-18497778D02*
X13415080Y-18469206D01*
X13415080Y-18469206D02*
X13424604Y-18459682D01*
X13500794Y-18554920D02*
X13500794Y-18688254D01*
X13500794Y-18573968D02*
X13510318Y-18564444D01*
X13510318Y-18564444D02*
X13529366Y-18554920D01*
X13529366Y-18554920D02*
X13557937Y-18554920D01*
X13557937Y-18554920D02*
X13576985Y-18564444D01*
X13576985Y-18564444D02*
X13586509Y-18583492D01*
X13586509Y-18583492D02*
X13586509Y-18688254D01*
X13710318Y-18688254D02*
X13691271Y-18678730D01*
X13691271Y-18678730D02*
X13681747Y-18669206D01*
X13681747Y-18669206D02*
X13672223Y-18650158D01*
X13672223Y-18650158D02*
X13672223Y-18593016D01*
X13672223Y-18593016D02*
X13681747Y-18573968D01*
X13681747Y-18573968D02*
X13691271Y-18564444D01*
X13691271Y-18564444D02*
X13710318Y-18554920D01*
X13710318Y-18554920D02*
X13738890Y-18554920D01*
X13738890Y-18554920D02*
X13757937Y-18564444D01*
X13757937Y-18564444D02*
X13767461Y-18573968D01*
X13767461Y-18573968D02*
X13776985Y-18593016D01*
X13776985Y-18593016D02*
X13776985Y-18650158D01*
X13776985Y-18650158D02*
X13767461Y-18669206D01*
X13767461Y-18669206D02*
X13757937Y-18678730D01*
X13757937Y-18678730D02*
X13738890Y-18688254D01*
X13738890Y-18688254D02*
X13710318Y-18688254D01*
X13834128Y-18554920D02*
X13910318Y-18554920D01*
X13862699Y-18488254D02*
X13862699Y-18659682D01*
X13862699Y-18659682D02*
X13872223Y-18678730D01*
X13872223Y-18678730D02*
X13891271Y-18688254D01*
X13891271Y-18688254D02*
X13910318Y-18688254D01*
X14129366Y-18554920D02*
X14129366Y-18754920D01*
X14129366Y-18564444D02*
X14148414Y-18554920D01*
X14148414Y-18554920D02*
X14186509Y-18554920D01*
X14186509Y-18554920D02*
X14205556Y-18564444D01*
X14205556Y-18564444D02*
X14215080Y-18573968D01*
X14215080Y-18573968D02*
X14224604Y-18593016D01*
X14224604Y-18593016D02*
X14224604Y-18650158D01*
X14224604Y-18650158D02*
X14215080Y-18669206D01*
X14215080Y-18669206D02*
X14205556Y-18678730D01*
X14205556Y-18678730D02*
X14186509Y-18688254D01*
X14186509Y-18688254D02*
X14148414Y-18688254D01*
X14148414Y-18688254D02*
X14129366Y-18678730D01*
X14338890Y-18688254D02*
X14319842Y-18678730D01*
X14319842Y-18678730D02*
X14310318Y-18659682D01*
X14310318Y-18659682D02*
X14310318Y-18488254D01*
X14500795Y-18688254D02*
X14500795Y-18583492D01*
X14500795Y-18583492D02*
X14491271Y-18564444D01*
X14491271Y-18564444D02*
X14472223Y-18554920D01*
X14472223Y-18554920D02*
X14434128Y-18554920D01*
X14434128Y-18554920D02*
X14415080Y-18564444D01*
X14500795Y-18678730D02*
X14481747Y-18688254D01*
X14481747Y-18688254D02*
X14434128Y-18688254D01*
X14434128Y-18688254D02*
X14415080Y-18678730D01*
X14415080Y-18678730D02*
X14405556Y-18659682D01*
X14405556Y-18659682D02*
X14405556Y-18640635D01*
X14405556Y-18640635D02*
X14415080Y-18621587D01*
X14415080Y-18621587D02*
X14434128Y-18612063D01*
X14434128Y-18612063D02*
X14481747Y-18612063D01*
X14481747Y-18612063D02*
X14500795Y-18602539D01*
X14567461Y-18554920D02*
X14643652Y-18554920D01*
X14596033Y-18488254D02*
X14596033Y-18659682D01*
X14596033Y-18659682D02*
X14605556Y-18678730D01*
X14605556Y-18678730D02*
X14624604Y-18688254D01*
X14624604Y-18688254D02*
X14643652Y-18688254D01*
X14786509Y-18678730D02*
X14767461Y-18688254D01*
X14767461Y-18688254D02*
X14729366Y-18688254D01*
X14729366Y-18688254D02*
X14710318Y-18678730D01*
X14710318Y-18678730D02*
X14700795Y-18659682D01*
X14700795Y-18659682D02*
X14700795Y-18583492D01*
X14700795Y-18583492D02*
X14710318Y-18564444D01*
X14710318Y-18564444D02*
X14729366Y-18554920D01*
X14729366Y-18554920D02*
X14767461Y-18554920D01*
X14767461Y-18554920D02*
X14786509Y-18564444D01*
X14786509Y-18564444D02*
X14796033Y-18583492D01*
X14796033Y-18583492D02*
X14796033Y-18602539D01*
X14796033Y-18602539D02*
X14700795Y-18621587D01*
X14967461Y-18688254D02*
X14967461Y-18488254D01*
X14967461Y-18678730D02*
X14948414Y-18688254D01*
X14948414Y-18688254D02*
X14910318Y-18688254D01*
X14910318Y-18688254D02*
X14891271Y-18678730D01*
X14891271Y-18678730D02*
X14881747Y-18669206D01*
X14881747Y-18669206D02*
X14872223Y-18650158D01*
X14872223Y-18650158D02*
X14872223Y-18593016D01*
X14872223Y-18593016D02*
X14881747Y-18573968D01*
X14881747Y-18573968D02*
X14891271Y-18564444D01*
X14891271Y-18564444D02*
X14910318Y-18554920D01*
X14910318Y-18554920D02*
X14948414Y-18554920D01*
X14948414Y-18554920D02*
X14967461Y-18564444D01*
X15043652Y-18764444D02*
X15053176Y-18754920D01*
X15053176Y-18754920D02*
X15072223Y-18726349D01*
X15072223Y-18726349D02*
X15081747Y-18707301D01*
X15081747Y-18707301D02*
X15091271Y-18678730D01*
X15091271Y-18678730D02*
X15100795Y-18631111D01*
X15100795Y-18631111D02*
X15100795Y-18593016D01*
X15100795Y-18593016D02*
X15091271Y-18545397D01*
X15091271Y-18545397D02*
X15081747Y-18516825D01*
X15081747Y-18516825D02*
X15072223Y-18497778D01*
X15072223Y-18497778D02*
X15053176Y-18469206D01*
X15053176Y-18469206D02*
X15043652Y-18459682D01*
X8067871Y-18957661D02*
X8067871Y-18816239D01*
X7926449Y-18816239D01*
X7926449Y-18957661D01*
X8067871Y-18957661D01*
X8338889Y-18778434D02*
X8462699Y-18778434D01*
X8462699Y-18778434D02*
X8396032Y-18854624D01*
X8396032Y-18854624D02*
X8424604Y-18854624D01*
X8424604Y-18854624D02*
X8443651Y-18864148D01*
X8443651Y-18864148D02*
X8453175Y-18873672D01*
X8453175Y-18873672D02*
X8462699Y-18892719D01*
X8462699Y-18892719D02*
X8462699Y-18940338D01*
X8462699Y-18940338D02*
X8453175Y-18959386D01*
X8453175Y-18959386D02*
X8443651Y-18968910D01*
X8443651Y-18968910D02*
X8424604Y-18978434D01*
X8424604Y-18978434D02*
X8367461Y-18978434D01*
X8367461Y-18978434D02*
X8348413Y-18968910D01*
X8348413Y-18968910D02*
X8338889Y-18959386D01*
X8548413Y-18959386D02*
X8557937Y-18968910D01*
X8557937Y-18968910D02*
X8548413Y-18978434D01*
X8548413Y-18978434D02*
X8538889Y-18968910D01*
X8538889Y-18968910D02*
X8548413Y-18959386D01*
X8548413Y-18959386D02*
X8548413Y-18978434D01*
X8681746Y-18778434D02*
X8700794Y-18778434D01*
X8700794Y-18778434D02*
X8719842Y-18787958D01*
X8719842Y-18787958D02*
X8729366Y-18797481D01*
X8729366Y-18797481D02*
X8738889Y-18816529D01*
X8738889Y-18816529D02*
X8748413Y-18854624D01*
X8748413Y-18854624D02*
X8748413Y-18902243D01*
X8748413Y-18902243D02*
X8738889Y-18940338D01*
X8738889Y-18940338D02*
X8729366Y-18959386D01*
X8729366Y-18959386D02*
X8719842Y-18968910D01*
X8719842Y-18968910D02*
X8700794Y-18978434D01*
X8700794Y-18978434D02*
X8681746Y-18978434D01*
X8681746Y-18978434D02*
X8662699Y-18968910D01*
X8662699Y-18968910D02*
X8653175Y-18959386D01*
X8653175Y-18959386D02*
X8643651Y-18940338D01*
X8643651Y-18940338D02*
X8634127Y-18902243D01*
X8634127Y-18902243D02*
X8634127Y-18854624D01*
X8634127Y-18854624D02*
X8643651Y-18816529D01*
X8643651Y-18816529D02*
X8653175Y-18797481D01*
X8653175Y-18797481D02*
X8662699Y-18787958D01*
X8662699Y-18787958D02*
X8681746Y-18778434D01*
X8872223Y-18778434D02*
X8891270Y-18778434D01*
X8891270Y-18778434D02*
X8910318Y-18787958D01*
X8910318Y-18787958D02*
X8919842Y-18797481D01*
X8919842Y-18797481D02*
X8929366Y-18816529D01*
X8929366Y-18816529D02*
X8938889Y-18854624D01*
X8938889Y-18854624D02*
X8938889Y-18902243D01*
X8938889Y-18902243D02*
X8929366Y-18940338D01*
X8929366Y-18940338D02*
X8919842Y-18959386D01*
X8919842Y-18959386D02*
X8910318Y-18968910D01*
X8910318Y-18968910D02*
X8891270Y-18978434D01*
X8891270Y-18978434D02*
X8872223Y-18978434D01*
X8872223Y-18978434D02*
X8853175Y-18968910D01*
X8853175Y-18968910D02*
X8843651Y-18959386D01*
X8843651Y-18959386D02*
X8834127Y-18940338D01*
X8834127Y-18940338D02*
X8824604Y-18902243D01*
X8824604Y-18902243D02*
X8824604Y-18854624D01*
X8824604Y-18854624D02*
X8834127Y-18816529D01*
X8834127Y-18816529D02*
X8843651Y-18797481D01*
X8843651Y-18797481D02*
X8853175Y-18787958D01*
X8853175Y-18787958D02*
X8872223Y-18778434D01*
X9062699Y-18778434D02*
X9081747Y-18778434D01*
X9081747Y-18778434D02*
X9100794Y-18787958D01*
X9100794Y-18787958D02*
X9110318Y-18797481D01*
X9110318Y-18797481D02*
X9119842Y-18816529D01*
X9119842Y-18816529D02*
X9129366Y-18854624D01*
X9129366Y-18854624D02*
X9129366Y-18902243D01*
X9129366Y-18902243D02*
X9119842Y-18940338D01*
X9119842Y-18940338D02*
X9110318Y-18959386D01*
X9110318Y-18959386D02*
X9100794Y-18968910D01*
X9100794Y-18968910D02*
X9081747Y-18978434D01*
X9081747Y-18978434D02*
X9062699Y-18978434D01*
X9062699Y-18978434D02*
X9043651Y-18968910D01*
X9043651Y-18968910D02*
X9034127Y-18959386D01*
X9034127Y-18959386D02*
X9024604Y-18940338D01*
X9024604Y-18940338D02*
X9015080Y-18902243D01*
X9015080Y-18902243D02*
X9015080Y-18854624D01*
X9015080Y-18854624D02*
X9024604Y-18816529D01*
X9024604Y-18816529D02*
X9034127Y-18797481D01*
X9034127Y-18797481D02*
X9043651Y-18787958D01*
X9043651Y-18787958D02*
X9062699Y-18778434D01*
X9215080Y-18978434D02*
X9215080Y-18845100D01*
X9215080Y-18864148D02*
X9224604Y-18854624D01*
X9224604Y-18854624D02*
X9243651Y-18845100D01*
X9243651Y-18845100D02*
X9272223Y-18845100D01*
X9272223Y-18845100D02*
X9291270Y-18854624D01*
X9291270Y-18854624D02*
X9300794Y-18873672D01*
X9300794Y-18873672D02*
X9300794Y-18978434D01*
X9300794Y-18873672D02*
X9310318Y-18854624D01*
X9310318Y-18854624D02*
X9329366Y-18845100D01*
X9329366Y-18845100D02*
X9357937Y-18845100D01*
X9357937Y-18845100D02*
X9376985Y-18854624D01*
X9376985Y-18854624D02*
X9386508Y-18873672D01*
X9386508Y-18873672D02*
X9386508Y-18978434D01*
X9481747Y-18978434D02*
X9481747Y-18845100D01*
X9481747Y-18864148D02*
X9491270Y-18854624D01*
X9491270Y-18854624D02*
X9510318Y-18845100D01*
X9510318Y-18845100D02*
X9538889Y-18845100D01*
X9538889Y-18845100D02*
X9557937Y-18854624D01*
X9557937Y-18854624D02*
X9567461Y-18873672D01*
X9567461Y-18873672D02*
X9567461Y-18978434D01*
X9567461Y-18873672D02*
X9576985Y-18854624D01*
X9576985Y-18854624D02*
X9596032Y-18845100D01*
X9596032Y-18845100D02*
X9624604Y-18845100D01*
X9624604Y-18845100D02*
X9643651Y-18854624D01*
X9643651Y-18854624D02*
X9653175Y-18873672D01*
X9653175Y-18873672D02*
X9653175Y-18978434D01*
X10043651Y-18768910D02*
X9872223Y-19026053D01*
X10300794Y-18778434D02*
X10319842Y-18778434D01*
X10319842Y-18778434D02*
X10338890Y-18787958D01*
X10338890Y-18787958D02*
X10348413Y-18797481D01*
X10348413Y-18797481D02*
X10357937Y-18816529D01*
X10357937Y-18816529D02*
X10367461Y-18854624D01*
X10367461Y-18854624D02*
X10367461Y-18902243D01*
X10367461Y-18902243D02*
X10357937Y-18940338D01*
X10357937Y-18940338D02*
X10348413Y-18959386D01*
X10348413Y-18959386D02*
X10338890Y-18968910D01*
X10338890Y-18968910D02*
X10319842Y-18978434D01*
X10319842Y-18978434D02*
X10300794Y-18978434D01*
X10300794Y-18978434D02*
X10281747Y-18968910D01*
X10281747Y-18968910D02*
X10272223Y-18959386D01*
X10272223Y-18959386D02*
X10262699Y-18940338D01*
X10262699Y-18940338D02*
X10253175Y-18902243D01*
X10253175Y-18902243D02*
X10253175Y-18854624D01*
X10253175Y-18854624D02*
X10262699Y-18816529D01*
X10262699Y-18816529D02*
X10272223Y-18797481D01*
X10272223Y-18797481D02*
X10281747Y-18787958D01*
X10281747Y-18787958D02*
X10300794Y-18778434D01*
X10453175Y-18959386D02*
X10462699Y-18968910D01*
X10462699Y-18968910D02*
X10453175Y-18978434D01*
X10453175Y-18978434D02*
X10443651Y-18968910D01*
X10443651Y-18968910D02*
X10453175Y-18959386D01*
X10453175Y-18959386D02*
X10453175Y-18978434D01*
X10653175Y-18978434D02*
X10538890Y-18978434D01*
X10596032Y-18978434D02*
X10596032Y-18778434D01*
X10596032Y-18778434D02*
X10576985Y-18807005D01*
X10576985Y-18807005D02*
X10557937Y-18826053D01*
X10557937Y-18826053D02*
X10538890Y-18835577D01*
X10843651Y-18978434D02*
X10729366Y-18978434D01*
X10786509Y-18978434D02*
X10786509Y-18778434D01*
X10786509Y-18778434D02*
X10767461Y-18807005D01*
X10767461Y-18807005D02*
X10748413Y-18826053D01*
X10748413Y-18826053D02*
X10729366Y-18835577D01*
X10957937Y-18864148D02*
X10938890Y-18854624D01*
X10938890Y-18854624D02*
X10929366Y-18845100D01*
X10929366Y-18845100D02*
X10919842Y-18826053D01*
X10919842Y-18826053D02*
X10919842Y-18816529D01*
X10919842Y-18816529D02*
X10929366Y-18797481D01*
X10929366Y-18797481D02*
X10938890Y-18787958D01*
X10938890Y-18787958D02*
X10957937Y-18778434D01*
X10957937Y-18778434D02*
X10996032Y-18778434D01*
X10996032Y-18778434D02*
X11015080Y-18787958D01*
X11015080Y-18787958D02*
X11024604Y-18797481D01*
X11024604Y-18797481D02*
X11034128Y-18816529D01*
X11034128Y-18816529D02*
X11034128Y-18826053D01*
X11034128Y-18826053D02*
X11024604Y-18845100D01*
X11024604Y-18845100D02*
X11015080Y-18854624D01*
X11015080Y-18854624D02*
X10996032Y-18864148D01*
X10996032Y-18864148D02*
X10957937Y-18864148D01*
X10957937Y-18864148D02*
X10938890Y-18873672D01*
X10938890Y-18873672D02*
X10929366Y-18883196D01*
X10929366Y-18883196D02*
X10919842Y-18902243D01*
X10919842Y-18902243D02*
X10919842Y-18940338D01*
X10919842Y-18940338D02*
X10929366Y-18959386D01*
X10929366Y-18959386D02*
X10938890Y-18968910D01*
X10938890Y-18968910D02*
X10957937Y-18978434D01*
X10957937Y-18978434D02*
X10996032Y-18978434D01*
X10996032Y-18978434D02*
X11015080Y-18968910D01*
X11015080Y-18968910D02*
X11024604Y-18959386D01*
X11024604Y-18959386D02*
X11034128Y-18940338D01*
X11034128Y-18940338D02*
X11034128Y-18902243D01*
X11034128Y-18902243D02*
X11024604Y-18883196D01*
X11024604Y-18883196D02*
X11015080Y-18873672D01*
X11015080Y-18873672D02*
X10996032Y-18864148D01*
X11224604Y-18978434D02*
X11110318Y-18978434D01*
X11167461Y-18978434D02*
X11167461Y-18778434D01*
X11167461Y-18778434D02*
X11148413Y-18807005D01*
X11148413Y-18807005D02*
X11129366Y-18826053D01*
X11129366Y-18826053D02*
X11110318Y-18835577D01*
X11300794Y-18778434D02*
X11300794Y-18816529D01*
X11376985Y-18778434D02*
X11376985Y-18816529D01*
X11672223Y-19054624D02*
X11662699Y-19045100D01*
X11662699Y-19045100D02*
X11643651Y-19016529D01*
X11643651Y-19016529D02*
X11634128Y-18997481D01*
X11634128Y-18997481D02*
X11624604Y-18968910D01*
X11624604Y-18968910D02*
X11615080Y-18921291D01*
X11615080Y-18921291D02*
X11615080Y-18883196D01*
X11615080Y-18883196D02*
X11624604Y-18835577D01*
X11624604Y-18835577D02*
X11634128Y-18807005D01*
X11634128Y-18807005D02*
X11643651Y-18787958D01*
X11643651Y-18787958D02*
X11662699Y-18759386D01*
X11662699Y-18759386D02*
X11672223Y-18749862D01*
X11853175Y-18978434D02*
X11738890Y-18978434D01*
X11796032Y-18978434D02*
X11796032Y-18778434D01*
X11796032Y-18778434D02*
X11776985Y-18807005D01*
X11776985Y-18807005D02*
X11757937Y-18826053D01*
X11757937Y-18826053D02*
X11738890Y-18835577D01*
X11976985Y-18778434D02*
X11996032Y-18778434D01*
X11996032Y-18778434D02*
X12015080Y-18787958D01*
X12015080Y-18787958D02*
X12024604Y-18797481D01*
X12024604Y-18797481D02*
X12034128Y-18816529D01*
X12034128Y-18816529D02*
X12043651Y-18854624D01*
X12043651Y-18854624D02*
X12043651Y-18902243D01*
X12043651Y-18902243D02*
X12034128Y-18940338D01*
X12034128Y-18940338D02*
X12024604Y-18959386D01*
X12024604Y-18959386D02*
X12015080Y-18968910D01*
X12015080Y-18968910D02*
X11996032Y-18978434D01*
X11996032Y-18978434D02*
X11976985Y-18978434D01*
X11976985Y-18978434D02*
X11957937Y-18968910D01*
X11957937Y-18968910D02*
X11948413Y-18959386D01*
X11948413Y-18959386D02*
X11938890Y-18940338D01*
X11938890Y-18940338D02*
X11929366Y-18902243D01*
X11929366Y-18902243D02*
X11929366Y-18854624D01*
X11929366Y-18854624D02*
X11938890Y-18816529D01*
X11938890Y-18816529D02*
X11948413Y-18797481D01*
X11948413Y-18797481D02*
X11957937Y-18787958D01*
X11957937Y-18787958D02*
X11976985Y-18778434D01*
X12157937Y-18864148D02*
X12138890Y-18854624D01*
X12138890Y-18854624D02*
X12129366Y-18845100D01*
X12129366Y-18845100D02*
X12119842Y-18826053D01*
X12119842Y-18826053D02*
X12119842Y-18816529D01*
X12119842Y-18816529D02*
X12129366Y-18797481D01*
X12129366Y-18797481D02*
X12138890Y-18787958D01*
X12138890Y-18787958D02*
X12157937Y-18778434D01*
X12157937Y-18778434D02*
X12196032Y-18778434D01*
X12196032Y-18778434D02*
X12215080Y-18787958D01*
X12215080Y-18787958D02*
X12224604Y-18797481D01*
X12224604Y-18797481D02*
X12234128Y-18816529D01*
X12234128Y-18816529D02*
X12234128Y-18826053D01*
X12234128Y-18826053D02*
X12224604Y-18845100D01*
X12224604Y-18845100D02*
X12215080Y-18854624D01*
X12215080Y-18854624D02*
X12196032Y-18864148D01*
X12196032Y-18864148D02*
X12157937Y-18864148D01*
X12157937Y-18864148D02*
X12138890Y-18873672D01*
X12138890Y-18873672D02*
X12129366Y-18883196D01*
X12129366Y-18883196D02*
X12119842Y-18902243D01*
X12119842Y-18902243D02*
X12119842Y-18940338D01*
X12119842Y-18940338D02*
X12129366Y-18959386D01*
X12129366Y-18959386D02*
X12138890Y-18968910D01*
X12138890Y-18968910D02*
X12157937Y-18978434D01*
X12157937Y-18978434D02*
X12196032Y-18978434D01*
X12196032Y-18978434D02*
X12215080Y-18968910D01*
X12215080Y-18968910D02*
X12224604Y-18959386D01*
X12224604Y-18959386D02*
X12234128Y-18940338D01*
X12234128Y-18940338D02*
X12234128Y-18902243D01*
X12234128Y-18902243D02*
X12224604Y-18883196D01*
X12224604Y-18883196D02*
X12215080Y-18873672D01*
X12215080Y-18873672D02*
X12196032Y-18864148D01*
X12472223Y-18978434D02*
X12472223Y-18778434D01*
X12557937Y-18978434D02*
X12557937Y-18873672D01*
X12557937Y-18873672D02*
X12548413Y-18854624D01*
X12548413Y-18854624D02*
X12529366Y-18845100D01*
X12529366Y-18845100D02*
X12500794Y-18845100D01*
X12500794Y-18845100D02*
X12481747Y-18854624D01*
X12481747Y-18854624D02*
X12472223Y-18864148D01*
X12681747Y-18978434D02*
X12662699Y-18968910D01*
X12662699Y-18968910D02*
X12653175Y-18959386D01*
X12653175Y-18959386D02*
X12643652Y-18940338D01*
X12643652Y-18940338D02*
X12643652Y-18883196D01*
X12643652Y-18883196D02*
X12653175Y-18864148D01*
X12653175Y-18864148D02*
X12662699Y-18854624D01*
X12662699Y-18854624D02*
X12681747Y-18845100D01*
X12681747Y-18845100D02*
X12710318Y-18845100D01*
X12710318Y-18845100D02*
X12729366Y-18854624D01*
X12729366Y-18854624D02*
X12738890Y-18864148D01*
X12738890Y-18864148D02*
X12748413Y-18883196D01*
X12748413Y-18883196D02*
X12748413Y-18940338D01*
X12748413Y-18940338D02*
X12738890Y-18959386D01*
X12738890Y-18959386D02*
X12729366Y-18968910D01*
X12729366Y-18968910D02*
X12710318Y-18978434D01*
X12710318Y-18978434D02*
X12681747Y-18978434D01*
X12862699Y-18978434D02*
X12843652Y-18968910D01*
X12843652Y-18968910D02*
X12834128Y-18949862D01*
X12834128Y-18949862D02*
X12834128Y-18778434D01*
X13015080Y-18968910D02*
X12996033Y-18978434D01*
X12996033Y-18978434D02*
X12957937Y-18978434D01*
X12957937Y-18978434D02*
X12938890Y-18968910D01*
X12938890Y-18968910D02*
X12929366Y-18949862D01*
X12929366Y-18949862D02*
X12929366Y-18873672D01*
X12929366Y-18873672D02*
X12938890Y-18854624D01*
X12938890Y-18854624D02*
X12957937Y-18845100D01*
X12957937Y-18845100D02*
X12996033Y-18845100D01*
X12996033Y-18845100D02*
X13015080Y-18854624D01*
X13015080Y-18854624D02*
X13024604Y-18873672D01*
X13024604Y-18873672D02*
X13024604Y-18892719D01*
X13024604Y-18892719D02*
X12929366Y-18911767D01*
X13100794Y-18968910D02*
X13119842Y-18978434D01*
X13119842Y-18978434D02*
X13157937Y-18978434D01*
X13157937Y-18978434D02*
X13176985Y-18968910D01*
X13176985Y-18968910D02*
X13186509Y-18949862D01*
X13186509Y-18949862D02*
X13186509Y-18940338D01*
X13186509Y-18940338D02*
X13176985Y-18921291D01*
X13176985Y-18921291D02*
X13157937Y-18911767D01*
X13157937Y-18911767D02*
X13129366Y-18911767D01*
X13129366Y-18911767D02*
X13110318Y-18902243D01*
X13110318Y-18902243D02*
X13100794Y-18883196D01*
X13100794Y-18883196D02*
X13100794Y-18873672D01*
X13100794Y-18873672D02*
X13110318Y-18854624D01*
X13110318Y-18854624D02*
X13129366Y-18845100D01*
X13129366Y-18845100D02*
X13157937Y-18845100D01*
X13157937Y-18845100D02*
X13176985Y-18854624D01*
X13253175Y-19054624D02*
X13262699Y-19045100D01*
X13262699Y-19045100D02*
X13281747Y-19016529D01*
X13281747Y-19016529D02*
X13291271Y-18997481D01*
X13291271Y-18997481D02*
X13300794Y-18968910D01*
X13300794Y-18968910D02*
X13310318Y-18921291D01*
X13310318Y-18921291D02*
X13310318Y-18883196D01*
X13310318Y-18883196D02*
X13300794Y-18835577D01*
X13300794Y-18835577D02*
X13291271Y-18807005D01*
X13291271Y-18807005D02*
X13281747Y-18787958D01*
X13281747Y-18787958D02*
X13262699Y-18759386D01*
X13262699Y-18759386D02*
X13253175Y-18749862D01*
X13615080Y-19054624D02*
X13605556Y-19045100D01*
X13605556Y-19045100D02*
X13586509Y-19016529D01*
X13586509Y-19016529D02*
X13576985Y-18997481D01*
X13576985Y-18997481D02*
X13567461Y-18968910D01*
X13567461Y-18968910D02*
X13557937Y-18921291D01*
X13557937Y-18921291D02*
X13557937Y-18883196D01*
X13557937Y-18883196D02*
X13567461Y-18835577D01*
X13567461Y-18835577D02*
X13576985Y-18807005D01*
X13576985Y-18807005D02*
X13586509Y-18787958D01*
X13586509Y-18787958D02*
X13605556Y-18759386D01*
X13605556Y-18759386D02*
X13615080Y-18749862D01*
X13691271Y-18845100D02*
X13691271Y-18978434D01*
X13691271Y-18864148D02*
X13700794Y-18854624D01*
X13700794Y-18854624D02*
X13719842Y-18845100D01*
X13719842Y-18845100D02*
X13748414Y-18845100D01*
X13748414Y-18845100D02*
X13767461Y-18854624D01*
X13767461Y-18854624D02*
X13776985Y-18873672D01*
X13776985Y-18873672D02*
X13776985Y-18978434D01*
X13900794Y-18978434D02*
X13881747Y-18968910D01*
X13881747Y-18968910D02*
X13872223Y-18959386D01*
X13872223Y-18959386D02*
X13862699Y-18940338D01*
X13862699Y-18940338D02*
X13862699Y-18883196D01*
X13862699Y-18883196D02*
X13872223Y-18864148D01*
X13872223Y-18864148D02*
X13881747Y-18854624D01*
X13881747Y-18854624D02*
X13900794Y-18845100D01*
X13900794Y-18845100D02*
X13929366Y-18845100D01*
X13929366Y-18845100D02*
X13948414Y-18854624D01*
X13948414Y-18854624D02*
X13957937Y-18864148D01*
X13957937Y-18864148D02*
X13967461Y-18883196D01*
X13967461Y-18883196D02*
X13967461Y-18940338D01*
X13967461Y-18940338D02*
X13957937Y-18959386D01*
X13957937Y-18959386D02*
X13948414Y-18968910D01*
X13948414Y-18968910D02*
X13929366Y-18978434D01*
X13929366Y-18978434D02*
X13900794Y-18978434D01*
X14024604Y-18845100D02*
X14100794Y-18845100D01*
X14053175Y-18778434D02*
X14053175Y-18949862D01*
X14053175Y-18949862D02*
X14062699Y-18968910D01*
X14062699Y-18968910D02*
X14081747Y-18978434D01*
X14081747Y-18978434D02*
X14100794Y-18978434D01*
X14319842Y-18845100D02*
X14319842Y-19045100D01*
X14319842Y-18854624D02*
X14338890Y-18845100D01*
X14338890Y-18845100D02*
X14376985Y-18845100D01*
X14376985Y-18845100D02*
X14396033Y-18854624D01*
X14396033Y-18854624D02*
X14405556Y-18864148D01*
X14405556Y-18864148D02*
X14415080Y-18883196D01*
X14415080Y-18883196D02*
X14415080Y-18940338D01*
X14415080Y-18940338D02*
X14405556Y-18959386D01*
X14405556Y-18959386D02*
X14396033Y-18968910D01*
X14396033Y-18968910D02*
X14376985Y-18978434D01*
X14376985Y-18978434D02*
X14338890Y-18978434D01*
X14338890Y-18978434D02*
X14319842Y-18968910D01*
X14529366Y-18978434D02*
X14510318Y-18968910D01*
X14510318Y-18968910D02*
X14500795Y-18949862D01*
X14500795Y-18949862D02*
X14500795Y-18778434D01*
X14691271Y-18978434D02*
X14691271Y-18873672D01*
X14691271Y-18873672D02*
X14681747Y-18854624D01*
X14681747Y-18854624D02*
X14662699Y-18845100D01*
X14662699Y-18845100D02*
X14624604Y-18845100D01*
X14624604Y-18845100D02*
X14605556Y-18854624D01*
X14691271Y-18968910D02*
X14672223Y-18978434D01*
X14672223Y-18978434D02*
X14624604Y-18978434D01*
X14624604Y-18978434D02*
X14605556Y-18968910D01*
X14605556Y-18968910D02*
X14596033Y-18949862D01*
X14596033Y-18949862D02*
X14596033Y-18930815D01*
X14596033Y-18930815D02*
X14605556Y-18911767D01*
X14605556Y-18911767D02*
X14624604Y-18902243D01*
X14624604Y-18902243D02*
X14672223Y-18902243D01*
X14672223Y-18902243D02*
X14691271Y-18892719D01*
X14757937Y-18845100D02*
X14834128Y-18845100D01*
X14786509Y-18778434D02*
X14786509Y-18949862D01*
X14786509Y-18949862D02*
X14796033Y-18968910D01*
X14796033Y-18968910D02*
X14815080Y-18978434D01*
X14815080Y-18978434D02*
X14834128Y-18978434D01*
X14976985Y-18968910D02*
X14957937Y-18978434D01*
X14957937Y-18978434D02*
X14919842Y-18978434D01*
X14919842Y-18978434D02*
X14900795Y-18968910D01*
X14900795Y-18968910D02*
X14891271Y-18949862D01*
X14891271Y-18949862D02*
X14891271Y-18873672D01*
X14891271Y-18873672D02*
X14900795Y-18854624D01*
X14900795Y-18854624D02*
X14919842Y-18845100D01*
X14919842Y-18845100D02*
X14957937Y-18845100D01*
X14957937Y-18845100D02*
X14976985Y-18854624D01*
X14976985Y-18854624D02*
X14986509Y-18873672D01*
X14986509Y-18873672D02*
X14986509Y-18892719D01*
X14986509Y-18892719D02*
X14891271Y-18911767D01*
X15157937Y-18978434D02*
X15157937Y-18778434D01*
X15157937Y-18968910D02*
X15138890Y-18978434D01*
X15138890Y-18978434D02*
X15100795Y-18978434D01*
X15100795Y-18978434D02*
X15081747Y-18968910D01*
X15081747Y-18968910D02*
X15072223Y-18959386D01*
X15072223Y-18959386D02*
X15062699Y-18940338D01*
X15062699Y-18940338D02*
X15062699Y-18883196D01*
X15062699Y-18883196D02*
X15072223Y-18864148D01*
X15072223Y-18864148D02*
X15081747Y-18854624D01*
X15081747Y-18854624D02*
X15100795Y-18845100D01*
X15100795Y-18845100D02*
X15138890Y-18845100D01*
X15138890Y-18845100D02*
X15157937Y-18854624D01*
X15234128Y-19054624D02*
X15243652Y-19045100D01*
X15243652Y-19045100D02*
X15262699Y-19016529D01*
X15262699Y-19016529D02*
X15272223Y-18997481D01*
X15272223Y-18997481D02*
X15281747Y-18968910D01*
X15281747Y-18968910D02*
X15291271Y-18921291D01*
X15291271Y-18921291D02*
X15291271Y-18883196D01*
X15291271Y-18883196D02*
X15281747Y-18835577D01*
X15281747Y-18835577D02*
X15272223Y-18807005D01*
X15272223Y-18807005D02*
X15262699Y-18787958D01*
X15262699Y-18787958D02*
X15243652Y-18759386D01*
X15243652Y-18759386D02*
X15234128Y-18749862D01*
X7997160Y-19306950D02*
X8097160Y-19206950D01*
X7997160Y-19106950D01*
X7897160Y-19206950D01*
X7997160Y-19306950D01*
X8338889Y-19098434D02*
X8462699Y-19098434D01*
X8462699Y-19098434D02*
X8396032Y-19174624D01*
X8396032Y-19174624D02*
X8424604Y-19174624D01*
X8424604Y-19174624D02*
X8443651Y-19184148D01*
X8443651Y-19184148D02*
X8453175Y-19193672D01*
X8453175Y-19193672D02*
X8462699Y-19212719D01*
X8462699Y-19212719D02*
X8462699Y-19260338D01*
X8462699Y-19260338D02*
X8453175Y-19279386D01*
X8453175Y-19279386D02*
X8443651Y-19288910D01*
X8443651Y-19288910D02*
X8424604Y-19298434D01*
X8424604Y-19298434D02*
X8367461Y-19298434D01*
X8367461Y-19298434D02*
X8348413Y-19288910D01*
X8348413Y-19288910D02*
X8338889Y-19279386D01*
X8548413Y-19279386D02*
X8557937Y-19288910D01*
X8557937Y-19288910D02*
X8548413Y-19298434D01*
X8548413Y-19298434D02*
X8538889Y-19288910D01*
X8538889Y-19288910D02*
X8548413Y-19279386D01*
X8548413Y-19279386D02*
X8548413Y-19298434D01*
X8729366Y-19165100D02*
X8729366Y-19298434D01*
X8681746Y-19088910D02*
X8634127Y-19231767D01*
X8634127Y-19231767D02*
X8757937Y-19231767D01*
X8824604Y-19117481D02*
X8834127Y-19107958D01*
X8834127Y-19107958D02*
X8853175Y-19098434D01*
X8853175Y-19098434D02*
X8900794Y-19098434D01*
X8900794Y-19098434D02*
X8919842Y-19107958D01*
X8919842Y-19107958D02*
X8929366Y-19117481D01*
X8929366Y-19117481D02*
X8938889Y-19136529D01*
X8938889Y-19136529D02*
X8938889Y-19155577D01*
X8938889Y-19155577D02*
X8929366Y-19184148D01*
X8929366Y-19184148D02*
X8815080Y-19298434D01*
X8815080Y-19298434D02*
X8938889Y-19298434D01*
X9034127Y-19298434D02*
X9072223Y-19298434D01*
X9072223Y-19298434D02*
X9091270Y-19288910D01*
X9091270Y-19288910D02*
X9100794Y-19279386D01*
X9100794Y-19279386D02*
X9119842Y-19250815D01*
X9119842Y-19250815D02*
X9129366Y-19212719D01*
X9129366Y-19212719D02*
X9129366Y-19136529D01*
X9129366Y-19136529D02*
X9119842Y-19117481D01*
X9119842Y-19117481D02*
X9110318Y-19107958D01*
X9110318Y-19107958D02*
X9091270Y-19098434D01*
X9091270Y-19098434D02*
X9053175Y-19098434D01*
X9053175Y-19098434D02*
X9034127Y-19107958D01*
X9034127Y-19107958D02*
X9024604Y-19117481D01*
X9024604Y-19117481D02*
X9015080Y-19136529D01*
X9015080Y-19136529D02*
X9015080Y-19184148D01*
X9015080Y-19184148D02*
X9024604Y-19203196D01*
X9024604Y-19203196D02*
X9034127Y-19212719D01*
X9034127Y-19212719D02*
X9053175Y-19222243D01*
X9053175Y-19222243D02*
X9091270Y-19222243D01*
X9091270Y-19222243D02*
X9110318Y-19212719D01*
X9110318Y-19212719D02*
X9119842Y-19203196D01*
X9119842Y-19203196D02*
X9129366Y-19184148D01*
X9215080Y-19298434D02*
X9215080Y-19165100D01*
X9215080Y-19184148D02*
X9224604Y-19174624D01*
X9224604Y-19174624D02*
X9243651Y-19165100D01*
X9243651Y-19165100D02*
X9272223Y-19165100D01*
X9272223Y-19165100D02*
X9291270Y-19174624D01*
X9291270Y-19174624D02*
X9300794Y-19193672D01*
X9300794Y-19193672D02*
X9300794Y-19298434D01*
X9300794Y-19193672D02*
X9310318Y-19174624D01*
X9310318Y-19174624D02*
X9329366Y-19165100D01*
X9329366Y-19165100D02*
X9357937Y-19165100D01*
X9357937Y-19165100D02*
X9376985Y-19174624D01*
X9376985Y-19174624D02*
X9386508Y-19193672D01*
X9386508Y-19193672D02*
X9386508Y-19298434D01*
X9481747Y-19298434D02*
X9481747Y-19165100D01*
X9481747Y-19184148D02*
X9491270Y-19174624D01*
X9491270Y-19174624D02*
X9510318Y-19165100D01*
X9510318Y-19165100D02*
X9538889Y-19165100D01*
X9538889Y-19165100D02*
X9557937Y-19174624D01*
X9557937Y-19174624D02*
X9567461Y-19193672D01*
X9567461Y-19193672D02*
X9567461Y-19298434D01*
X9567461Y-19193672D02*
X9576985Y-19174624D01*
X9576985Y-19174624D02*
X9596032Y-19165100D01*
X9596032Y-19165100D02*
X9624604Y-19165100D01*
X9624604Y-19165100D02*
X9643651Y-19174624D01*
X9643651Y-19174624D02*
X9653175Y-19193672D01*
X9653175Y-19193672D02*
X9653175Y-19298434D01*
X10043651Y-19088910D02*
X9872223Y-19346053D01*
X10300794Y-19098434D02*
X10319842Y-19098434D01*
X10319842Y-19098434D02*
X10338890Y-19107958D01*
X10338890Y-19107958D02*
X10348413Y-19117481D01*
X10348413Y-19117481D02*
X10357937Y-19136529D01*
X10357937Y-19136529D02*
X10367461Y-19174624D01*
X10367461Y-19174624D02*
X10367461Y-19222243D01*
X10367461Y-19222243D02*
X10357937Y-19260338D01*
X10357937Y-19260338D02*
X10348413Y-19279386D01*
X10348413Y-19279386D02*
X10338890Y-19288910D01*
X10338890Y-19288910D02*
X10319842Y-19298434D01*
X10319842Y-19298434D02*
X10300794Y-19298434D01*
X10300794Y-19298434D02*
X10281747Y-19288910D01*
X10281747Y-19288910D02*
X10272223Y-19279386D01*
X10272223Y-19279386D02*
X10262699Y-19260338D01*
X10262699Y-19260338D02*
X10253175Y-19222243D01*
X10253175Y-19222243D02*
X10253175Y-19174624D01*
X10253175Y-19174624D02*
X10262699Y-19136529D01*
X10262699Y-19136529D02*
X10272223Y-19117481D01*
X10272223Y-19117481D02*
X10281747Y-19107958D01*
X10281747Y-19107958D02*
X10300794Y-19098434D01*
X10453175Y-19279386D02*
X10462699Y-19288910D01*
X10462699Y-19288910D02*
X10453175Y-19298434D01*
X10453175Y-19298434D02*
X10443651Y-19288910D01*
X10443651Y-19288910D02*
X10453175Y-19279386D01*
X10453175Y-19279386D02*
X10453175Y-19298434D01*
X10653175Y-19298434D02*
X10538890Y-19298434D01*
X10596032Y-19298434D02*
X10596032Y-19098434D01*
X10596032Y-19098434D02*
X10576985Y-19127005D01*
X10576985Y-19127005D02*
X10557937Y-19146053D01*
X10557937Y-19146053D02*
X10538890Y-19155577D01*
X10719842Y-19098434D02*
X10843651Y-19098434D01*
X10843651Y-19098434D02*
X10776985Y-19174624D01*
X10776985Y-19174624D02*
X10805556Y-19174624D01*
X10805556Y-19174624D02*
X10824604Y-19184148D01*
X10824604Y-19184148D02*
X10834128Y-19193672D01*
X10834128Y-19193672D02*
X10843651Y-19212719D01*
X10843651Y-19212719D02*
X10843651Y-19260338D01*
X10843651Y-19260338D02*
X10834128Y-19279386D01*
X10834128Y-19279386D02*
X10824604Y-19288910D01*
X10824604Y-19288910D02*
X10805556Y-19298434D01*
X10805556Y-19298434D02*
X10748413Y-19298434D01*
X10748413Y-19298434D02*
X10729366Y-19288910D01*
X10729366Y-19288910D02*
X10719842Y-19279386D01*
X11024604Y-19098434D02*
X10929366Y-19098434D01*
X10929366Y-19098434D02*
X10919842Y-19193672D01*
X10919842Y-19193672D02*
X10929366Y-19184148D01*
X10929366Y-19184148D02*
X10948413Y-19174624D01*
X10948413Y-19174624D02*
X10996032Y-19174624D01*
X10996032Y-19174624D02*
X11015080Y-19184148D01*
X11015080Y-19184148D02*
X11024604Y-19193672D01*
X11024604Y-19193672D02*
X11034128Y-19212719D01*
X11034128Y-19212719D02*
X11034128Y-19260338D01*
X11034128Y-19260338D02*
X11024604Y-19279386D01*
X11024604Y-19279386D02*
X11015080Y-19288910D01*
X11015080Y-19288910D02*
X10996032Y-19298434D01*
X10996032Y-19298434D02*
X10948413Y-19298434D01*
X10948413Y-19298434D02*
X10929366Y-19288910D01*
X10929366Y-19288910D02*
X10919842Y-19279386D01*
X11157937Y-19098434D02*
X11176985Y-19098434D01*
X11176985Y-19098434D02*
X11196032Y-19107958D01*
X11196032Y-19107958D02*
X11205556Y-19117481D01*
X11205556Y-19117481D02*
X11215080Y-19136529D01*
X11215080Y-19136529D02*
X11224604Y-19174624D01*
X11224604Y-19174624D02*
X11224604Y-19222243D01*
X11224604Y-19222243D02*
X11215080Y-19260338D01*
X11215080Y-19260338D02*
X11205556Y-19279386D01*
X11205556Y-19279386D02*
X11196032Y-19288910D01*
X11196032Y-19288910D02*
X11176985Y-19298434D01*
X11176985Y-19298434D02*
X11157937Y-19298434D01*
X11157937Y-19298434D02*
X11138890Y-19288910D01*
X11138890Y-19288910D02*
X11129366Y-19279386D01*
X11129366Y-19279386D02*
X11119842Y-19260338D01*
X11119842Y-19260338D02*
X11110318Y-19222243D01*
X11110318Y-19222243D02*
X11110318Y-19174624D01*
X11110318Y-19174624D02*
X11119842Y-19136529D01*
X11119842Y-19136529D02*
X11129366Y-19117481D01*
X11129366Y-19117481D02*
X11138890Y-19107958D01*
X11138890Y-19107958D02*
X11157937Y-19098434D01*
X11300794Y-19098434D02*
X11300794Y-19136529D01*
X11376985Y-19098434D02*
X11376985Y-19136529D01*
X11672223Y-19374624D02*
X11662699Y-19365100D01*
X11662699Y-19365100D02*
X11643651Y-19336529D01*
X11643651Y-19336529D02*
X11634128Y-19317481D01*
X11634128Y-19317481D02*
X11624604Y-19288910D01*
X11624604Y-19288910D02*
X11615080Y-19241291D01*
X11615080Y-19241291D02*
X11615080Y-19203196D01*
X11615080Y-19203196D02*
X11624604Y-19155577D01*
X11624604Y-19155577D02*
X11634128Y-19127005D01*
X11634128Y-19127005D02*
X11643651Y-19107958D01*
X11643651Y-19107958D02*
X11662699Y-19079386D01*
X11662699Y-19079386D02*
X11672223Y-19069862D01*
X11738890Y-19117481D02*
X11748413Y-19107958D01*
X11748413Y-19107958D02*
X11767461Y-19098434D01*
X11767461Y-19098434D02*
X11815080Y-19098434D01*
X11815080Y-19098434D02*
X11834128Y-19107958D01*
X11834128Y-19107958D02*
X11843651Y-19117481D01*
X11843651Y-19117481D02*
X11853175Y-19136529D01*
X11853175Y-19136529D02*
X11853175Y-19155577D01*
X11853175Y-19155577D02*
X11843651Y-19184148D01*
X11843651Y-19184148D02*
X11729366Y-19298434D01*
X11729366Y-19298434D02*
X11853175Y-19298434D01*
X11919842Y-19098434D02*
X12053175Y-19098434D01*
X12053175Y-19098434D02*
X11967461Y-19298434D01*
X12281747Y-19298434D02*
X12281747Y-19098434D01*
X12367461Y-19298434D02*
X12367461Y-19193672D01*
X12367461Y-19193672D02*
X12357937Y-19174624D01*
X12357937Y-19174624D02*
X12338890Y-19165100D01*
X12338890Y-19165100D02*
X12310318Y-19165100D01*
X12310318Y-19165100D02*
X12291271Y-19174624D01*
X12291271Y-19174624D02*
X12281747Y-19184148D01*
X12491271Y-19298434D02*
X12472223Y-19288910D01*
X12472223Y-19288910D02*
X12462699Y-19279386D01*
X12462699Y-19279386D02*
X12453175Y-19260338D01*
X12453175Y-19260338D02*
X12453175Y-19203196D01*
X12453175Y-19203196D02*
X12462699Y-19184148D01*
X12462699Y-19184148D02*
X12472223Y-19174624D01*
X12472223Y-19174624D02*
X12491271Y-19165100D01*
X12491271Y-19165100D02*
X12519842Y-19165100D01*
X12519842Y-19165100D02*
X12538890Y-19174624D01*
X12538890Y-19174624D02*
X12548413Y-19184148D01*
X12548413Y-19184148D02*
X12557937Y-19203196D01*
X12557937Y-19203196D02*
X12557937Y-19260338D01*
X12557937Y-19260338D02*
X12548413Y-19279386D01*
X12548413Y-19279386D02*
X12538890Y-19288910D01*
X12538890Y-19288910D02*
X12519842Y-19298434D01*
X12519842Y-19298434D02*
X12491271Y-19298434D01*
X12672223Y-19298434D02*
X12653175Y-19288910D01*
X12653175Y-19288910D02*
X12643652Y-19269862D01*
X12643652Y-19269862D02*
X12643652Y-19098434D01*
X12824604Y-19288910D02*
X12805556Y-19298434D01*
X12805556Y-19298434D02*
X12767461Y-19298434D01*
X12767461Y-19298434D02*
X12748413Y-19288910D01*
X12748413Y-19288910D02*
X12738890Y-19269862D01*
X12738890Y-19269862D02*
X12738890Y-19193672D01*
X12738890Y-19193672D02*
X12748413Y-19174624D01*
X12748413Y-19174624D02*
X12767461Y-19165100D01*
X12767461Y-19165100D02*
X12805556Y-19165100D01*
X12805556Y-19165100D02*
X12824604Y-19174624D01*
X12824604Y-19174624D02*
X12834128Y-19193672D01*
X12834128Y-19193672D02*
X12834128Y-19212719D01*
X12834128Y-19212719D02*
X12738890Y-19231767D01*
X12910318Y-19288910D02*
X12929366Y-19298434D01*
X12929366Y-19298434D02*
X12967461Y-19298434D01*
X12967461Y-19298434D02*
X12986509Y-19288910D01*
X12986509Y-19288910D02*
X12996033Y-19269862D01*
X12996033Y-19269862D02*
X12996033Y-19260338D01*
X12996033Y-19260338D02*
X12986509Y-19241291D01*
X12986509Y-19241291D02*
X12967461Y-19231767D01*
X12967461Y-19231767D02*
X12938890Y-19231767D01*
X12938890Y-19231767D02*
X12919842Y-19222243D01*
X12919842Y-19222243D02*
X12910318Y-19203196D01*
X12910318Y-19203196D02*
X12910318Y-19193672D01*
X12910318Y-19193672D02*
X12919842Y-19174624D01*
X12919842Y-19174624D02*
X12938890Y-19165100D01*
X12938890Y-19165100D02*
X12967461Y-19165100D01*
X12967461Y-19165100D02*
X12986509Y-19174624D01*
X13062699Y-19374624D02*
X13072223Y-19365100D01*
X13072223Y-19365100D02*
X13091271Y-19336529D01*
X13091271Y-19336529D02*
X13100794Y-19317481D01*
X13100794Y-19317481D02*
X13110318Y-19288910D01*
X13110318Y-19288910D02*
X13119842Y-19241291D01*
X13119842Y-19241291D02*
X13119842Y-19203196D01*
X13119842Y-19203196D02*
X13110318Y-19155577D01*
X13110318Y-19155577D02*
X13100794Y-19127005D01*
X13100794Y-19127005D02*
X13091271Y-19107958D01*
X13091271Y-19107958D02*
X13072223Y-19079386D01*
X13072223Y-19079386D02*
X13062699Y-19069862D01*
X13424604Y-19374624D02*
X13415080Y-19365100D01*
X13415080Y-19365100D02*
X13396033Y-19336529D01*
X13396033Y-19336529D02*
X13386509Y-19317481D01*
X13386509Y-19317481D02*
X13376985Y-19288910D01*
X13376985Y-19288910D02*
X13367461Y-19241291D01*
X13367461Y-19241291D02*
X13367461Y-19203196D01*
X13367461Y-19203196D02*
X13376985Y-19155577D01*
X13376985Y-19155577D02*
X13386509Y-19127005D01*
X13386509Y-19127005D02*
X13396033Y-19107958D01*
X13396033Y-19107958D02*
X13415080Y-19079386D01*
X13415080Y-19079386D02*
X13424604Y-19069862D01*
X13500794Y-19165100D02*
X13500794Y-19298434D01*
X13500794Y-19184148D02*
X13510318Y-19174624D01*
X13510318Y-19174624D02*
X13529366Y-19165100D01*
X13529366Y-19165100D02*
X13557937Y-19165100D01*
X13557937Y-19165100D02*
X13576985Y-19174624D01*
X13576985Y-19174624D02*
X13586509Y-19193672D01*
X13586509Y-19193672D02*
X13586509Y-19298434D01*
X13710318Y-19298434D02*
X13691271Y-19288910D01*
X13691271Y-19288910D02*
X13681747Y-19279386D01*
X13681747Y-19279386D02*
X13672223Y-19260338D01*
X13672223Y-19260338D02*
X13672223Y-19203196D01*
X13672223Y-19203196D02*
X13681747Y-19184148D01*
X13681747Y-19184148D02*
X13691271Y-19174624D01*
X13691271Y-19174624D02*
X13710318Y-19165100D01*
X13710318Y-19165100D02*
X13738890Y-19165100D01*
X13738890Y-19165100D02*
X13757937Y-19174624D01*
X13757937Y-19174624D02*
X13767461Y-19184148D01*
X13767461Y-19184148D02*
X13776985Y-19203196D01*
X13776985Y-19203196D02*
X13776985Y-19260338D01*
X13776985Y-19260338D02*
X13767461Y-19279386D01*
X13767461Y-19279386D02*
X13757937Y-19288910D01*
X13757937Y-19288910D02*
X13738890Y-19298434D01*
X13738890Y-19298434D02*
X13710318Y-19298434D01*
X13834128Y-19165100D02*
X13910318Y-19165100D01*
X13862699Y-19098434D02*
X13862699Y-19269862D01*
X13862699Y-19269862D02*
X13872223Y-19288910D01*
X13872223Y-19288910D02*
X13891271Y-19298434D01*
X13891271Y-19298434D02*
X13910318Y-19298434D01*
X14129366Y-19165100D02*
X14129366Y-19365100D01*
X14129366Y-19174624D02*
X14148414Y-19165100D01*
X14148414Y-19165100D02*
X14186509Y-19165100D01*
X14186509Y-19165100D02*
X14205556Y-19174624D01*
X14205556Y-19174624D02*
X14215080Y-19184148D01*
X14215080Y-19184148D02*
X14224604Y-19203196D01*
X14224604Y-19203196D02*
X14224604Y-19260338D01*
X14224604Y-19260338D02*
X14215080Y-19279386D01*
X14215080Y-19279386D02*
X14205556Y-19288910D01*
X14205556Y-19288910D02*
X14186509Y-19298434D01*
X14186509Y-19298434D02*
X14148414Y-19298434D01*
X14148414Y-19298434D02*
X14129366Y-19288910D01*
X14338890Y-19298434D02*
X14319842Y-19288910D01*
X14319842Y-19288910D02*
X14310318Y-19269862D01*
X14310318Y-19269862D02*
X14310318Y-19098434D01*
X14500795Y-19298434D02*
X14500795Y-19193672D01*
X14500795Y-19193672D02*
X14491271Y-19174624D01*
X14491271Y-19174624D02*
X14472223Y-19165100D01*
X14472223Y-19165100D02*
X14434128Y-19165100D01*
X14434128Y-19165100D02*
X14415080Y-19174624D01*
X14500795Y-19288910D02*
X14481747Y-19298434D01*
X14481747Y-19298434D02*
X14434128Y-19298434D01*
X14434128Y-19298434D02*
X14415080Y-19288910D01*
X14415080Y-19288910D02*
X14405556Y-19269862D01*
X14405556Y-19269862D02*
X14405556Y-19250815D01*
X14405556Y-19250815D02*
X14415080Y-19231767D01*
X14415080Y-19231767D02*
X14434128Y-19222243D01*
X14434128Y-19222243D02*
X14481747Y-19222243D01*
X14481747Y-19222243D02*
X14500795Y-19212719D01*
X14567461Y-19165100D02*
X14643652Y-19165100D01*
X14596033Y-19098434D02*
X14596033Y-19269862D01*
X14596033Y-19269862D02*
X14605556Y-19288910D01*
X14605556Y-19288910D02*
X14624604Y-19298434D01*
X14624604Y-19298434D02*
X14643652Y-19298434D01*
X14786509Y-19288910D02*
X14767461Y-19298434D01*
X14767461Y-19298434D02*
X14729366Y-19298434D01*
X14729366Y-19298434D02*
X14710318Y-19288910D01*
X14710318Y-19288910D02*
X14700795Y-19269862D01*
X14700795Y-19269862D02*
X14700795Y-19193672D01*
X14700795Y-19193672D02*
X14710318Y-19174624D01*
X14710318Y-19174624D02*
X14729366Y-19165100D01*
X14729366Y-19165100D02*
X14767461Y-19165100D01*
X14767461Y-19165100D02*
X14786509Y-19174624D01*
X14786509Y-19174624D02*
X14796033Y-19193672D01*
X14796033Y-19193672D02*
X14796033Y-19212719D01*
X14796033Y-19212719D02*
X14700795Y-19231767D01*
X14967461Y-19298434D02*
X14967461Y-19098434D01*
X14967461Y-19288910D02*
X14948414Y-19298434D01*
X14948414Y-19298434D02*
X14910318Y-19298434D01*
X14910318Y-19298434D02*
X14891271Y-19288910D01*
X14891271Y-19288910D02*
X14881747Y-19279386D01*
X14881747Y-19279386D02*
X14872223Y-19260338D01*
X14872223Y-19260338D02*
X14872223Y-19203196D01*
X14872223Y-19203196D02*
X14881747Y-19184148D01*
X14881747Y-19184148D02*
X14891271Y-19174624D01*
X14891271Y-19174624D02*
X14910318Y-19165100D01*
X14910318Y-19165100D02*
X14948414Y-19165100D01*
X14948414Y-19165100D02*
X14967461Y-19174624D01*
X15043652Y-19374624D02*
X15053176Y-19365100D01*
X15053176Y-19365100D02*
X15072223Y-19336529D01*
X15072223Y-19336529D02*
X15081747Y-19317481D01*
X15081747Y-19317481D02*
X15091271Y-19288910D01*
X15091271Y-19288910D02*
X15100795Y-19241291D01*
X15100795Y-19241291D02*
X15100795Y-19203196D01*
X15100795Y-19203196D02*
X15091271Y-19155577D01*
X15091271Y-19155577D02*
X15081747Y-19127005D01*
X15081747Y-19127005D02*
X15072223Y-19107958D01*
X15072223Y-19107958D02*
X15053176Y-19079386D01*
X15053176Y-19079386D02*
X15043652Y-19069862D01*
M02*
