M48
; DRILL file {KiCad 8.0.7-8.0.7-0~ubuntu24.04.1} date 2025-01-01T23:44:24+0100
; FORMAT={-:-/ absolute / metric / decimal}
; #@! TF.CreationDate,2025-01-01T23:44:24+01:00
; #@! TF.GenerationSoftware,Kicad,Pcbnew,8.0.7-8.0.7-0~ubuntu24.04.1
; #@! TF.FileFunction,Plated,1,2,PTH
FMAT,2
METRIC
; #@! TA.AperFunction,Plated,PTH,ViaDrill
T1C0.300
; #@! TA.AperFunction,Plated,PTH,ComponentDrill
T2C0.300
; #@! TA.AperFunction,Plated,PTH,ViaDrill
T3C0.400
; #@! TA.AperFunction,Plated,PTH,ComponentDrill
T4C0.400
; #@! TA.AperFunction,Plated,PTH,ComponentDrill
T5C0.750
; #@! TA.AperFunction,Plated,PTH,ComponentDrill
T6C0.900
; #@! TA.AperFunction,Plated,PTH,ComponentDrill
T7C1.000
; #@! TA.AperFunction,Plated,PTH,ComponentDrill
T8C2.200
%
G90
G05
T1
X87.0Y-112.4
X90.0Y-129.2
X94.6Y-103.0
X97.0Y-125.8
X97.6Y-93.773
X97.6Y-142.8
X98.2Y-108.4
X98.991Y-105.129
X99.4Y-131.0
X99.6Y-94.6
X101.0Y-124.4
X101.746Y-141.322
X103.2Y-153.2
X104.4Y-108.6
X105.915Y-141.35
X106.025Y-90.15
X107.2Y-145.05
X107.5Y-148.55
X111.9Y-145.25
X112.4Y-140.8
X112.939Y-100.34
X114.6Y-147.8
X116.188Y-91.268
X117.164Y-122.107
X119.606Y-138.604
X120.8Y-151.0
X122.225Y-88.025
X122.6Y-98.2
X122.8Y-92.4
X123.6Y-108.4
X124.2Y-119.4
X124.6Y-125.2
X125.35Y-137.95
X126.6Y-135.9
X131.8Y-127.2
X137.2Y-87.6
X137.688Y-103.063
X137.688Y-120.384
X137.688Y-137.647
X138.314Y-105.0
X138.317Y-86.008
X141.8Y-107.2
X141.8Y-111.2
X142.0Y-72.4
X145.2Y-88.6
X145.2Y-106.0
X145.5Y-134.5
X145.75Y-103.45
X146.0Y-72.2
X146.2Y-99.2
X148.6Y-91.2
X150.107Y-90.6
X153.4Y-85.4
X153.9Y-79.75
X155.0Y-91.8
X155.114Y-130.881
X155.145Y-96.482
X155.688Y-118.008
X157.4Y-89.6
X158.15Y-122.25
X158.8Y-116.2
X159.8Y-72.0
X159.8Y-110.0
X160.2Y-89.0
X160.2Y-127.8
X160.4Y-75.8
X162.2Y-136.6
X162.575Y-84.7
X163.6Y-72.8
X164.0Y-101.4
X167.2Y-77.8
X167.6Y-110.2
X167.6Y-127.6
X167.8Y-93.8
X168.4Y-141.0
X171.2Y-138.8
X171.6Y-144.6
X172.0Y-142.6
X172.2Y-87.6
X172.266Y-81.511
X173.0Y-98.8
X173.6Y-140.6
X173.688Y-120.084
X173.688Y-137.872
X174.877Y-105.0
X178.0Y-129.0
X178.472Y-111.657
X180.413Y-122.215
X180.6Y-74.4
X180.725Y-103.325
X180.9Y-156.3
X184.6Y-72.8
X184.8Y-144.6
X185.8Y-112.0
X189.595Y-140.975
X190.6Y-100.8
X191.2Y-112.0
X191.688Y-88.042
X191.688Y-122.394
X192.4Y-144.4
X192.473Y-78.345
X192.571Y-106.433
X193.4Y-72.8
X193.492Y-137.674
X194.55Y-127.0
X195.511Y-92.486
X196.215Y-122.163
X196.215Y-137.674
X197.682Y-155.56
X198.25Y-109.4
X198.395Y-154.666
X199.15Y-98.65
X200.4Y-114.6
X201.25Y-100.5
X201.4Y-151.0
X202.15Y-104.15
X202.65Y-109.35
X203.2Y-99.9
X203.7Y-111.218
X203.8Y-82.45
X203.8Y-84.9
X203.859Y-97.0
X204.2Y-159.8
X204.467Y-99.956
X206.741Y-110.609
X207.45Y-112.95
X209.2Y-121.2
X209.35Y-110.75
X209.4Y-148.2
X210.15Y-112.3
X210.975Y-100.59
X212.15Y-111.3
X213.0Y-98.05
X213.9Y-103.13
X214.433Y-164.467
X214.9Y-163.1
X215.4Y-139.0
X217.1Y-147.9
X217.125Y-124.025
X217.4Y-141.2
X217.775Y-112.925
X217.856Y-129.856
X218.8Y-128.4
X219.85Y-151.15
X222.2Y-112.6
X222.55Y-161.9
T2
X84.702Y-98.629
X85.091Y-101.402
X87.068Y-115.464
X87.457Y-118.236
X89.434Y-132.298
X89.823Y-135.071
X91.8Y-149.133
X92.189Y-151.906
X102.526Y-96.124
X102.916Y-98.897
X104.892Y-112.959
X105.282Y-115.731
X107.258Y-129.793
X107.648Y-132.566
X109.624Y-146.628
X110.014Y-149.4
X126.413Y-76.006
X126.413Y-78.806
X126.413Y-93.006
X126.413Y-95.806
X126.413Y-110.006
X126.413Y-112.806
X126.413Y-127.006
X126.413Y-129.806
X144.413Y-74.006
X144.413Y-76.806
X144.413Y-91.006
X144.413Y-93.806
X144.413Y-108.006
X144.413Y-110.806
X144.413Y-125.006
X144.413Y-127.806
X162.413Y-74.406
X162.413Y-77.206
X162.413Y-91.406
X162.413Y-94.206
X162.413Y-108.406
X162.413Y-111.206
X162.413Y-125.406
X162.413Y-128.206
X169.613Y-146.006
X169.613Y-148.806
X180.413Y-76.406
X180.413Y-79.206
X180.413Y-93.406
X180.413Y-96.206
X180.413Y-110.406
X180.413Y-113.206
X180.413Y-127.406
X180.413Y-130.206
X189.757Y-149.495
X190.623Y-146.832
X208.671Y-156.351
X210.317Y-154.086
T3
X87.249Y-94.838
X88.325Y-96.1
X88.95Y-111.5
X91.981Y-128.507
X93.057Y-129.769
X93.8Y-145.0
X98.732Y-111.805
X99.418Y-110.295
X102.156Y-127.4
X103.464Y-145.474
X104.15Y-143.964
X105.074Y-92.333
X106.15Y-93.595
X106.5Y-110.25
X109.806Y-126.002
X110.882Y-127.264
X110.9Y-143.45
X116.557Y-109.3
X117.243Y-107.789
X120.1Y-124.624
X121.289Y-142.969
X121.975Y-141.459
X128.9Y-106.606
X129.463Y-89.606
X129.463Y-123.606
X130.353Y-125.006
X130.4Y-91.0
X138.473Y-74.006
X138.473Y-108.006
X139.363Y-72.606
X139.363Y-106.606
X139.85Y-124.1
X140.1Y-89.606
X146.4Y-70.606
X146.85Y-104.6
X147.463Y-87.606
X147.463Y-121.606
X148.353Y-89.006
X148.353Y-123.006
X156.473Y-72.006
X156.473Y-106.006
X157.363Y-70.606
X157.363Y-104.606
X157.8Y-87.606
X164.65Y-72.6
X164.675Y-106.65
X165.463Y-89.606
X165.463Y-123.606
X166.353Y-91.006
X166.353Y-125.006
X174.473Y-74.006
X174.473Y-108.006
X175.363Y-72.606
X175.363Y-90.3
X175.363Y-106.606
X175.95Y-124.05
X181.673Y-144.006
X182.55Y-74.6
X182.563Y-142.606
X182.65Y-108.606
X183.463Y-91.606
X183.463Y-125.606
X184.3Y-126.5
X184.353Y-93.006
X192.473Y-76.006
X192.473Y-110.006
X193.363Y-92.486
X193.363Y-108.606
X193.7Y-143.65
X193.75Y-125.65
X194.228Y-75.472
X202.711Y-148.657
X203.99Y-147.6
X214.4Y-152.25
X221.249Y-159.557
X222.792Y-158.947
T4
X210.151Y-76.036
X210.151Y-78.576
X210.151Y-81.116
X210.151Y-83.656
X210.151Y-86.196
X210.151Y-88.736
X210.151Y-91.276
X210.151Y-93.816
X210.151Y-96.356
X210.151Y-98.896
X210.151Y-101.436
X210.151Y-103.976
X210.151Y-106.516
X216.675Y-76.036
X216.675Y-78.576
X216.675Y-81.116
X216.675Y-83.656
X216.675Y-86.196
X216.675Y-88.736
X216.675Y-91.276
X216.675Y-93.816
X216.675Y-96.356
X216.675Y-98.896
X216.675Y-101.436
X216.675Y-103.976
X216.675Y-106.516
T5
X200.013Y-102.106
X200.013Y-102.106
X202.013Y-102.106
X202.013Y-102.106
T7
X205.793Y-76.036
X205.793Y-78.576
X205.793Y-81.116
X205.793Y-83.656
X205.793Y-86.196
X205.793Y-88.736
X205.793Y-91.276
X205.793Y-93.816
X205.793Y-96.356
X205.793Y-98.896
X205.793Y-101.436
X205.793Y-103.976
X205.793Y-106.516
X221.033Y-76.036
X221.033Y-78.576
X221.033Y-81.116
X221.033Y-83.656
X221.033Y-86.196
X221.033Y-88.736
X221.033Y-91.276
X221.033Y-93.816
X221.033Y-96.356
X221.033Y-98.896
X221.033Y-101.436
X221.033Y-103.976
X221.033Y-106.516
T8
X120.013Y-78.006
X134.413Y-146.006
X161.413Y-146.006
X201.013Y-80.006
X208.663Y-140.497
T6
G00X212.913Y-116.206
M15
G01X212.313Y-116.206
M16
G05
G00X212.913Y-120.806
M15
G01X212.313Y-120.806
M16
G05
G00X214.013Y-116.206
M15
G01X213.413Y-116.206
M16
G05
G00X214.013Y-120.806
M15
G01X213.413Y-120.806
M16
G05
G00X218.013Y-116.206
M15
G01X217.413Y-116.206
M16
G05
G00X218.013Y-120.806
M15
G01X217.413Y-120.806
M16
G05
G00X221.013Y-116.206
M15
G01X220.413Y-116.206
M16
G05
G00X221.013Y-120.806
M15
G01X220.413Y-120.806
M16
G05
M30
