%TF.GenerationSoftware,KiCad,Pcbnew,8.0.7-8.0.7-0~ubuntu24.04.1*%
%TF.CreationDate,2025-01-01T23:44:26+01:00*%
%TF.ProjectId,speedy-o_north-face-finished-extended_VCC,73706565-6479-42d6-9f5f-6e6f7274682d,v1.0.0*%
%TF.SameCoordinates,Original*%
%TF.FileFunction,Legend,Top*%
%TF.FilePolarity,Positive*%
%FSLAX46Y46*%
G04 Gerber Fmt 4.6, Leading zero omitted, Abs format (unit mm)*
G04 Created by KiCad (PCBNEW 8.0.7-8.0.7-0~ubuntu24.04.1) date 2025-01-01 23:44:26*
%MOMM*%
%LPD*%
G01*
G04 APERTURE LIST*
%ADD10C,0.150000*%
%ADD11C,0.120000*%
%ADD12C,0.000000*%
G04 APERTURE END LIST*
D10*
X179663149Y-73756306D02*
X179663149Y-86256306D01*
X161163149Y-116256306D02*
G75*
G02*
X159163149Y-118256349I-2000049J6D01*
G01*
X181663149Y-122256306D02*
X195163149Y-122256306D01*
X204003537Y-159854308D02*
G75*
G02*
X201483395Y-161138373I-1902037J617908D01*
G01*
X197163149Y-137256306D02*
G75*
G02*
X195163149Y-139256349I-2000049J6D01*
G01*
X179663149Y-90756306D02*
G75*
G02*
X181663149Y-88756249I2000051J6D01*
G01*
X161163149Y-99256306D02*
X161163149Y-86756306D01*
X188644127Y-156966658D02*
G75*
G02*
X187360018Y-154446501I618073J1902158D01*
G01*
X125663149Y-88756306D02*
X125663149Y-101256306D01*
X179663149Y-73756306D02*
G75*
G02*
X181663149Y-71756249I2000051J6D01*
G01*
X109922751Y-139769457D02*
G75*
G02*
X107663846Y-138067270I-278351J1980557D01*
G01*
X143663149Y-69756306D02*
X143663149Y-82256306D01*
X195163149Y-105756306D02*
G75*
G02*
X197163194Y-107756306I-49J-2000094D01*
G01*
X102436849Y-104467739D02*
G75*
G02*
X100734663Y-106726649I-1980549J-278361D01*
G01*
X145663149Y-135256306D02*
G75*
G02*
X143663194Y-133256306I-49J1999906D01*
G01*
X100804246Y-107221756D02*
G75*
G02*
X103063144Y-108923944I278354J-1980544D01*
G01*
X186363149Y-154256306D02*
X186363149Y-141756306D01*
X161163149Y-82256306D02*
X161163149Y-69756306D01*
X127663149Y-120256306D02*
G75*
G02*
X125663194Y-118256306I-49J1999906D01*
G01*
X123360957Y-138385754D02*
X109992338Y-140264591D01*
X127359503Y-152466295D02*
X125619839Y-140087944D01*
X197163149Y-103256306D02*
X197163149Y-90756306D01*
X184363149Y-139756306D02*
X170863149Y-139756306D01*
X141163149Y-86756306D02*
X127663149Y-86756306D01*
X195163149Y-122756306D02*
G75*
G02*
X197163194Y-124756306I-49J-2000094D01*
G01*
X163663149Y-86256306D02*
G75*
G02*
X161663194Y-84256306I-49J1999906D01*
G01*
X105190866Y-106100343D02*
X118559485Y-104221506D01*
X161163149Y-133256306D02*
X161163149Y-120756306D01*
X177163149Y-69756306D02*
G75*
G02*
X179163194Y-71756306I-49J-2000094D01*
G01*
X104802792Y-121302296D02*
X103063128Y-108923946D01*
X143663149Y-120756306D02*
G75*
G02*
X145663149Y-118756249I2000051J6D01*
G01*
X186363149Y-154256306D02*
G75*
G02*
X184363149Y-156256349I-2000049J6D01*
G01*
X212207908Y-150206829D02*
G75*
G02*
X215001548Y-149764318I1618092J-1175671D01*
G01*
X188644127Y-156966658D02*
X201483390Y-161138387D01*
X204003537Y-159854308D02*
X207866250Y-147966102D01*
X179163149Y-84256306D02*
X179163149Y-71756306D01*
X197163149Y-86256306D02*
G75*
G02*
X195163149Y-88256349I-2000049J6D01*
G01*
X89731983Y-125440016D02*
X103100602Y-123561179D01*
X141163149Y-86756306D02*
G75*
G02*
X143163194Y-88756306I-49J-2000094D01*
G01*
X103558262Y-108854359D02*
G75*
G02*
X105260450Y-106595461I1980538J278359D01*
G01*
X177163149Y-120756306D02*
X163663149Y-120756306D01*
X206582171Y-145445955D02*
X193742908Y-141274225D01*
X90465322Y-145028589D02*
X92204986Y-157406940D01*
X161163149Y-116256306D02*
X161163149Y-103756306D01*
X181663149Y-122256306D02*
G75*
G02*
X179663194Y-120256306I-49J1999906D01*
G01*
X206582171Y-145445955D02*
G75*
G02*
X207866266Y-147966107I-618071J-1902145D01*
G01*
X219018390Y-170605783D02*
G75*
G02*
X216224754Y-171048290I-1618090J1175683D01*
G01*
X125663149Y-105756306D02*
X125663149Y-118256306D01*
X112288694Y-156604014D02*
X125657313Y-154725177D01*
X159163149Y-84756306D02*
X145663149Y-84756306D01*
X85733437Y-111359475D02*
X87473101Y-123737826D01*
X191222761Y-142558304D02*
G75*
G02*
X193742907Y-141274229I1902039J-617896D01*
G01*
X195163149Y-71756306D02*
G75*
G02*
X197163194Y-73756306I-49J-2000094D01*
G01*
X92097926Y-142274573D02*
G75*
G02*
X89839035Y-140572384I-278326J1980573D01*
G01*
X161663149Y-88756306D02*
X161663149Y-101256306D01*
X179163149Y-118256306D02*
G75*
G02*
X177163149Y-120256349I-2000049J6D01*
G01*
X85733437Y-111359475D02*
G75*
G02*
X87435631Y-109100622I1980463J278375D01*
G01*
X145663149Y-101256306D02*
X159163149Y-101256306D01*
X127663149Y-137256306D02*
G75*
G02*
X125663194Y-135256306I-49J1999906D01*
G01*
X143663149Y-103756306D02*
G75*
G02*
X145663149Y-101756249I2000051J6D01*
G01*
X177163149Y-103756306D02*
X163663149Y-103756306D01*
X159163149Y-118756306D02*
G75*
G02*
X161163194Y-120756306I-49J-2000094D01*
G01*
X197163149Y-86256306D02*
X197163149Y-73756306D01*
X143663149Y-120756306D02*
X143663149Y-133256306D01*
X127663149Y-137256306D02*
X141163149Y-137256306D01*
X195163149Y-88756306D02*
G75*
G02*
X197163194Y-90756306I-49J-2000094D01*
G01*
X143663149Y-86756306D02*
G75*
G02*
X145663149Y-84756249I2000051J6D01*
G01*
X127663149Y-120256306D02*
X141163149Y-120256306D01*
X125663149Y-88756306D02*
G75*
G02*
X127663149Y-86756249I2000051J6D01*
G01*
X161663149Y-122756306D02*
X161663149Y-135256306D01*
X170863149Y-156256306D02*
G75*
G02*
X168863194Y-154256306I-49J1999906D01*
G01*
X179163149Y-101256306D02*
G75*
G02*
X177163149Y-103256349I-2000049J6D01*
G01*
X159163149Y-101756306D02*
G75*
G02*
X161163194Y-103756306I-49J-2000094D01*
G01*
X90465323Y-145028589D02*
G75*
G02*
X92167512Y-142769709I1980477J278389D01*
G01*
X143163149Y-84256306D02*
X143163149Y-71756306D01*
X94463869Y-159109130D02*
G75*
G02*
X92204966Y-157406943I-278369J1980530D01*
G01*
X170863149Y-156256306D02*
X184363149Y-156256306D01*
X143163149Y-101256306D02*
X143163149Y-88756306D01*
X109534678Y-154971411D02*
X107795014Y-142593060D01*
X127663149Y-103256306D02*
X141163149Y-103256306D01*
X197163149Y-103256306D02*
G75*
G02*
X195163149Y-105256349I-2000049J6D01*
G01*
X177163149Y-103756306D02*
G75*
G02*
X179163194Y-105756306I-49J-2000094D01*
G01*
X123360957Y-138385754D02*
G75*
G02*
X125619844Y-140087943I278343J-1980546D01*
G01*
X145663149Y-84256306D02*
G75*
G02*
X143663194Y-82256306I-49J1999906D01*
G01*
X161663149Y-122756306D02*
G75*
G02*
X163663149Y-120756249I2000051J6D01*
G01*
X179163149Y-101256306D02*
X179163149Y-88756306D01*
X195163149Y-105756306D02*
X181663149Y-105756306D01*
X105924205Y-125688916D02*
X107663869Y-138067267D01*
X145663149Y-135256306D02*
X159163149Y-135256306D01*
X87366040Y-108605458D02*
G75*
G02*
X85107146Y-106903270I-278340J1980558D01*
G01*
X143163149Y-118256306D02*
X143163149Y-105756306D01*
X195163149Y-71756306D02*
X181663149Y-71756306D01*
X179163149Y-118256306D02*
X179163149Y-105756306D01*
X179163149Y-135256306D02*
X179163149Y-122756306D01*
X181663149Y-88256306D02*
X195163149Y-88256306D01*
X124993560Y-135631738D02*
G75*
G02*
X123291364Y-137890574I-1980460J-278362D01*
G01*
X145663149Y-84256306D02*
X159163149Y-84256306D01*
X118629071Y-104716640D02*
G75*
G02*
X120887954Y-106418830I278329J-1980560D01*
G01*
X168863149Y-141756306D02*
X168863149Y-154256306D01*
X141163149Y-120756306D02*
G75*
G02*
X143163194Y-122756306I-49J-2000094D01*
G01*
X120261675Y-101962623D02*
X118522011Y-89584273D01*
X101192320Y-92019802D02*
X102931983Y-104398153D01*
X143663149Y-69756306D02*
G75*
G02*
X145663149Y-67756249I2000051J6D01*
G01*
X118629071Y-104716640D02*
X105260452Y-106595477D01*
X163663149Y-120256306D02*
G75*
G02*
X161663194Y-118256306I-49J1999906D01*
G01*
X159163149Y-118756306D02*
X145663149Y-118756306D01*
X168863149Y-141756306D02*
G75*
G02*
X170863149Y-139756249I2000051J6D01*
G01*
X177163149Y-86756306D02*
G75*
G02*
X179163194Y-88756306I-49J-2000094D01*
G01*
X225923242Y-157699467D02*
G75*
G02*
X226365710Y-160493074I-1175542J-1618033D01*
G01*
X98438303Y-90387198D02*
X85069684Y-92266035D01*
X179663149Y-124756306D02*
G75*
G02*
X181663149Y-122756249I2000051J6D01*
G01*
X161663149Y-105756306D02*
X161663149Y-118256306D01*
X143163149Y-135256306D02*
G75*
G02*
X141163149Y-137256349I-2000049J6D01*
G01*
X163663149Y-137256306D02*
X177163149Y-137256306D01*
X109922751Y-139769457D02*
X123291370Y-137890620D01*
X83367494Y-94524918D02*
X85107158Y-106903268D01*
X181663149Y-105256306D02*
X195163149Y-105256306D01*
X163663149Y-86256306D02*
X177163149Y-86256306D01*
X159163149Y-67756306D02*
G75*
G02*
X161163194Y-69756306I-49J-2000094D01*
G01*
X103558262Y-108854359D02*
X105297926Y-121232710D01*
X107168735Y-138136854D02*
X105429071Y-125758503D01*
X212207908Y-150206829D02*
X204860592Y-160319541D01*
X108290148Y-142523473D02*
G75*
G02*
X109992344Y-140264632I1980452J278373D01*
G01*
X122627617Y-118797181D02*
X120887954Y-106418830D01*
X87366040Y-108605458D02*
X100734659Y-106726622D01*
X120995014Y-121551197D02*
G75*
G02*
X123253913Y-123253385I278386J-1980503D01*
G01*
X104802792Y-121302296D02*
G75*
G02*
X103100614Y-123561263I-1980692J-278304D01*
G01*
X195163149Y-122756306D02*
X181663149Y-122756306D01*
X141163149Y-103756306D02*
G75*
G02*
X143163194Y-105756306I-49J-2000094D01*
G01*
X105536131Y-140890870D02*
X92167512Y-142769707D01*
X89731983Y-125440016D02*
G75*
G02*
X87473076Y-123737829I-278383J1980516D01*
G01*
X109534677Y-154971411D02*
G75*
G02*
X107832488Y-157230291I-1980477J-278389D01*
G01*
X161663149Y-71756306D02*
X161663149Y-84256306D01*
X92097926Y-142274573D02*
X105466545Y-140395736D01*
X141163149Y-120756306D02*
X127663149Y-120756306D01*
X105536131Y-140890870D02*
G75*
G02*
X107795034Y-142593057I278369J-1980530D01*
G01*
X98438303Y-90387198D02*
G75*
G02*
X100697270Y-92089376I278297J-1980702D01*
G01*
X120261675Y-101962623D02*
G75*
G02*
X118559483Y-104221488I-1980475J-278377D01*
G01*
X122627617Y-118797181D02*
G75*
G02*
X120925432Y-121056101I-1980617J-278319D01*
G01*
X125663149Y-71756306D02*
X125663149Y-84256306D01*
X108290148Y-142523473D02*
X110029811Y-154901824D01*
X102436849Y-104467739D02*
X100697186Y-92089388D01*
X179663149Y-124756306D02*
X179663149Y-137256306D01*
X125663149Y-122756306D02*
G75*
G02*
X127663149Y-120756249I2000051J6D01*
G01*
X225923242Y-157699467D02*
X215001513Y-149764366D01*
X191222761Y-142558304D02*
X187360048Y-154446511D01*
X177163149Y-86756306D02*
X163663149Y-86756306D01*
X105190866Y-106100343D02*
G75*
G02*
X102931956Y-104398157I-278366J1980543D01*
G01*
X141163149Y-69756306D02*
G75*
G02*
X143163194Y-71756306I-49J-2000094D01*
G01*
X159163149Y-67756306D02*
X145663149Y-67756306D01*
X197163149Y-137256306D02*
X197163149Y-124756306D01*
X161163149Y-99256306D02*
G75*
G02*
X159163149Y-101256349I-2000049J6D01*
G01*
X163663149Y-137256306D02*
G75*
G02*
X161663194Y-135256306I-49J1999906D01*
G01*
X125663149Y-71756306D02*
G75*
G02*
X127663149Y-69756249I2000051J6D01*
G01*
X101192320Y-92019802D02*
G75*
G02*
X102894512Y-89760932I1980580J278302D01*
G01*
X88099380Y-128194032D02*
G75*
G02*
X89801562Y-125935095I1980620J278332D01*
G01*
X143663149Y-86756306D02*
X143663149Y-99256306D01*
X159163149Y-84756306D02*
G75*
G02*
X161163194Y-86756306I-49J-2000094D01*
G01*
X181663149Y-139256306D02*
X195163149Y-139256306D01*
X112288694Y-156604014D02*
G75*
G02*
X110029861Y-154901817I-278394J1980414D01*
G01*
X127663149Y-103256306D02*
G75*
G02*
X125663194Y-101256306I-49J1999906D01*
G01*
X163663149Y-103256306D02*
G75*
G02*
X161663194Y-101256306I-49J1999906D01*
G01*
X181663149Y-88256306D02*
G75*
G02*
X179663194Y-86256306I-49J1999906D01*
G01*
X103170189Y-124056313D02*
G75*
G02*
X105429075Y-125758502I278311J-1980587D01*
G01*
X141163149Y-69756306D02*
X127663149Y-69756306D01*
X125663149Y-105756306D02*
G75*
G02*
X127663149Y-103756249I2000051J6D01*
G01*
X127359503Y-152466295D02*
G75*
G02*
X125657314Y-154725188I-1980603J-278305D01*
G01*
X143163149Y-101256306D02*
G75*
G02*
X141163149Y-103256349I-2000049J6D01*
G01*
X145663149Y-101256306D02*
G75*
G02*
X143663194Y-99256306I-49J1999906D01*
G01*
X219018390Y-170605783D02*
X226365705Y-160493071D01*
X107556808Y-122934900D02*
G75*
G02*
X105297915Y-121232712I-278308J1980600D01*
G01*
X127663149Y-86256306D02*
X141163149Y-86256306D01*
X127663149Y-86256306D02*
G75*
G02*
X125663194Y-84256306I-49J1999906D01*
G01*
X124993560Y-135631738D02*
X123253896Y-123253387D01*
X177163149Y-120756306D02*
G75*
G02*
X179163194Y-122756306I-49J-2000094D01*
G01*
X205303056Y-163113146D02*
X216224785Y-171048247D01*
X94463869Y-159109130D02*
X107832488Y-157230293D01*
X195163149Y-88756306D02*
X181663149Y-88756306D01*
X179163149Y-135256306D02*
G75*
G02*
X177163149Y-137256349I-2000049J6D01*
G01*
X181663149Y-139256306D02*
G75*
G02*
X179663194Y-137256306I-49J1999906D01*
G01*
X103170189Y-124056313D02*
X89801570Y-125935150D01*
X179163149Y-84256306D02*
G75*
G02*
X177163149Y-86256349I-2000049J6D01*
G01*
X161663149Y-105756306D02*
G75*
G02*
X163663149Y-103756249I2000051J6D01*
G01*
X125663149Y-122756306D02*
X125663149Y-135256306D01*
X116263129Y-87882083D02*
G75*
G02*
X118522023Y-89584271I278371J-1980517D01*
G01*
X197163149Y-120256306D02*
X197163149Y-107756306D01*
X145663149Y-118256306D02*
X159163149Y-118256306D01*
X179663149Y-107756306D02*
X179663149Y-120256306D01*
X197163149Y-120256306D02*
G75*
G02*
X195163149Y-122256349I-2000049J6D01*
G01*
X116263129Y-87882083D02*
X102894510Y-89760919D01*
X184363149Y-139756306D02*
G75*
G02*
X186363194Y-141756306I-49J-2000094D01*
G01*
X143163149Y-118256306D02*
G75*
G02*
X141163149Y-120256349I-2000049J6D01*
G01*
X205303056Y-163113146D02*
G75*
G02*
X204860574Y-160319528I1175544J1618046D01*
G01*
X83367494Y-94524918D02*
G75*
G02*
X85069680Y-92266008I1980606J278318D01*
G01*
X105924205Y-125688916D02*
G75*
G02*
X107626393Y-123430018I1980595J278316D01*
G01*
X179663149Y-90756306D02*
X179663149Y-103256306D01*
X181663149Y-105256306D02*
G75*
G02*
X179663194Y-103256306I-49J1999906D01*
G01*
X143663149Y-103756306D02*
X143663149Y-116256306D01*
X100804246Y-107221756D02*
X87435627Y-109100592D01*
X88099380Y-128194032D02*
X89839044Y-140572383D01*
X163663149Y-120256306D02*
X177163149Y-120256306D01*
X161663149Y-71756306D02*
G75*
G02*
X163663149Y-69756249I2000051J6D01*
G01*
X161163149Y-82256306D02*
G75*
G02*
X159163149Y-84256349I-2000049J6D01*
G01*
X163663149Y-103256306D02*
X177163149Y-103256306D01*
X141163149Y-103756306D02*
X127663149Y-103756306D01*
X107556808Y-122934900D02*
X120925427Y-121056063D01*
X143163149Y-84256306D02*
G75*
G02*
X141163149Y-86256349I-2000049J6D01*
G01*
X107168735Y-138136854D02*
G75*
G02*
X105466545Y-140395735I-1980535J-278346D01*
G01*
X161663149Y-88756306D02*
G75*
G02*
X163663149Y-86756249I2000051J6D01*
G01*
X145663149Y-118256306D02*
G75*
G02*
X143663194Y-116256306I-49J1999906D01*
G01*
X177163149Y-69756306D02*
X163663149Y-69756306D01*
X179663149Y-107756306D02*
G75*
G02*
X181663149Y-105756249I2000051J6D01*
G01*
X159163149Y-101756306D02*
X145663149Y-101756306D01*
X161163149Y-133256306D02*
G75*
G02*
X159163149Y-135256349I-2000049J6D01*
G01*
X143163149Y-135256306D02*
X143163149Y-122756306D01*
X120995014Y-121551197D02*
X107626395Y-123430034D01*
X109538418Y-86456333D02*
X109686512Y-86483607D01*
X109686512Y-86483607D02*
X109922290Y-86450471D01*
X109922290Y-86450471D02*
X110009974Y-86390060D01*
X110009974Y-86390060D02*
X110050502Y-86336278D01*
X110050502Y-86336278D02*
X110084403Y-86235339D01*
X110084403Y-86235339D02*
X110071149Y-86141028D01*
X110071149Y-86141028D02*
X110010739Y-86053344D01*
X110010739Y-86053344D02*
X109956956Y-86012815D01*
X109956956Y-86012815D02*
X109856017Y-85978914D01*
X109856017Y-85978914D02*
X109660767Y-85958268D01*
X109660767Y-85958268D02*
X109559829Y-85924367D01*
X109559829Y-85924367D02*
X109506046Y-85883839D01*
X109506046Y-85883839D02*
X109445636Y-85796155D01*
X109445636Y-85796155D02*
X109432381Y-85701843D01*
X109432381Y-85701843D02*
X109466282Y-85600905D01*
X109466282Y-85600905D02*
X109506811Y-85547122D01*
X109506811Y-85547122D02*
X109594495Y-85486712D01*
X109594495Y-85486712D02*
X109830273Y-85453575D01*
X109830273Y-85453575D02*
X109978367Y-85480849D01*
X110442531Y-85704137D02*
X110581704Y-86694405D01*
X110449159Y-85751293D02*
X110536842Y-85690883D01*
X110536842Y-85690883D02*
X110725465Y-85664373D01*
X110725465Y-85664373D02*
X110826403Y-85698274D01*
X110826403Y-85698274D02*
X110880186Y-85738803D01*
X110880186Y-85738803D02*
X110940597Y-85826487D01*
X110940597Y-85826487D02*
X110980360Y-86109420D01*
X110980360Y-86109420D02*
X110946459Y-86210359D01*
X110946459Y-86210359D02*
X110905931Y-86264142D01*
X110905931Y-86264142D02*
X110818247Y-86324552D01*
X110818247Y-86324552D02*
X110629625Y-86351061D01*
X110629625Y-86351061D02*
X110528686Y-86317160D01*
X111801888Y-86138223D02*
X111714204Y-86198634D01*
X111714204Y-86198634D02*
X111525581Y-86225143D01*
X111525581Y-86225143D02*
X111424643Y-86191242D01*
X111424643Y-86191242D02*
X111364233Y-86103558D01*
X111364233Y-86103558D02*
X111311214Y-85726313D01*
X111311214Y-85726313D02*
X111345115Y-85625374D01*
X111345115Y-85625374D02*
X111432799Y-85564964D01*
X111432799Y-85564964D02*
X111621422Y-85538455D01*
X111621422Y-85538455D02*
X111722360Y-85572356D01*
X111722360Y-85572356D02*
X111782771Y-85660040D01*
X111782771Y-85660040D02*
X111796025Y-85754351D01*
X111796025Y-85754351D02*
X111337724Y-85914935D01*
X112650689Y-86018932D02*
X112563005Y-86079342D01*
X112563005Y-86079342D02*
X112374383Y-86105851D01*
X112374383Y-86105851D02*
X112273444Y-86071950D01*
X112273444Y-86071950D02*
X112213034Y-85984266D01*
X112213034Y-85984266D02*
X112160016Y-85607022D01*
X112160016Y-85607022D02*
X112193917Y-85506083D01*
X112193917Y-85506083D02*
X112281601Y-85445673D01*
X112281601Y-85445673D02*
X112470223Y-85419164D01*
X112470223Y-85419164D02*
X112571162Y-85453065D01*
X112571162Y-85453065D02*
X112631572Y-85540749D01*
X112631572Y-85540749D02*
X112644827Y-85635060D01*
X112644827Y-85635060D02*
X112186525Y-85795644D01*
X113553274Y-85940169D02*
X113414100Y-84949901D01*
X113546646Y-85893014D02*
X113458962Y-85953424D01*
X113458962Y-85953424D02*
X113270340Y-85979933D01*
X113270340Y-85979933D02*
X113169401Y-85946032D01*
X113169401Y-85946032D02*
X113115618Y-85905504D01*
X113115618Y-85905504D02*
X113055208Y-85817820D01*
X113055208Y-85817820D02*
X113015444Y-85534886D01*
X113015444Y-85534886D02*
X113049345Y-85433947D01*
X113049345Y-85433947D02*
X113089874Y-85380164D01*
X113089874Y-85380164D02*
X113177558Y-85319754D01*
X113177558Y-85319754D02*
X113366180Y-85293245D01*
X113366180Y-85293245D02*
X113467119Y-85327146D01*
X113837737Y-85226972D02*
X114166297Y-85854014D01*
X114309293Y-85160699D02*
X114166297Y-85854014D01*
X114166297Y-85854014D02*
X114105122Y-86103047D01*
X114105122Y-86103047D02*
X114064594Y-86156830D01*
X114064594Y-86156830D02*
X113976910Y-86217240D01*
X114726302Y-85390615D02*
X115480792Y-85284578D01*
X116054815Y-84578773D02*
X116243438Y-84552264D01*
X116243438Y-84552264D02*
X116344376Y-84586165D01*
X116344376Y-84586165D02*
X116451942Y-84667221D01*
X116451942Y-84667221D02*
X116525607Y-84849217D01*
X116525607Y-84849217D02*
X116571998Y-85179306D01*
X116571998Y-85179306D02*
X116551352Y-85374556D01*
X116551352Y-85374556D02*
X116470295Y-85482122D01*
X116470295Y-85482122D02*
X116382611Y-85542532D01*
X116382611Y-85542532D02*
X116193988Y-85569041D01*
X116193988Y-85569041D02*
X116093050Y-85535140D01*
X116093050Y-85535140D02*
X115985484Y-85454083D01*
X115985484Y-85454083D02*
X115911819Y-85272088D01*
X115911819Y-85272088D02*
X115865428Y-84941999D01*
X115865428Y-84941999D02*
X115886075Y-84746749D01*
X115886075Y-84746749D02*
X115967131Y-84639183D01*
X115967131Y-84639183D02*
X116054815Y-84578773D01*
X109629168Y-87444214D02*
X109957729Y-88071256D01*
X109957729Y-88071256D02*
X110100725Y-87377941D01*
X110620201Y-86968324D02*
X110714513Y-86955069D01*
X110714513Y-86955069D02*
X110815451Y-86988970D01*
X110815451Y-86988970D02*
X110869234Y-87029499D01*
X110869234Y-87029499D02*
X110929644Y-87117183D01*
X110929644Y-87117183D02*
X111003309Y-87299178D01*
X111003309Y-87299178D02*
X111036446Y-87534956D01*
X111036446Y-87534956D02*
X111015799Y-87730206D01*
X111015799Y-87730206D02*
X110981898Y-87831144D01*
X110981898Y-87831144D02*
X110941370Y-87884927D01*
X110941370Y-87884927D02*
X110853686Y-87945337D01*
X110853686Y-87945337D02*
X110759374Y-87958592D01*
X110759374Y-87958592D02*
X110658436Y-87924691D01*
X110658436Y-87924691D02*
X110604653Y-87884162D01*
X110604653Y-87884162D02*
X110544243Y-87796478D01*
X110544243Y-87796478D02*
X110470578Y-87614483D01*
X110470578Y-87614483D02*
X110437442Y-87378705D01*
X110437442Y-87378705D02*
X110458088Y-87183455D01*
X110458088Y-87183455D02*
X110491989Y-87082517D01*
X110491989Y-87082517D02*
X110532517Y-87028734D01*
X110532517Y-87028734D02*
X110620201Y-86968324D01*
X111500610Y-87758244D02*
X111554393Y-87798772D01*
X111554393Y-87798772D02*
X111513864Y-87852555D01*
X111513864Y-87852555D02*
X111460082Y-87812027D01*
X111460082Y-87812027D02*
X111500610Y-87758244D01*
X111500610Y-87758244D02*
X111513864Y-87852555D01*
X112504132Y-87713382D02*
X111938265Y-87792910D01*
X112221198Y-87753146D02*
X112082025Y-86762878D01*
X112082025Y-86762878D02*
X112007596Y-86917599D01*
X112007596Y-86917599D02*
X111926539Y-87025165D01*
X111926539Y-87025165D02*
X111838855Y-87085575D01*
X112915278Y-87559425D02*
X112969061Y-87599954D01*
X112969061Y-87599954D02*
X112928533Y-87653737D01*
X112928533Y-87653737D02*
X112874750Y-87613208D01*
X112874750Y-87613208D02*
X112915278Y-87559425D01*
X112915278Y-87559425D02*
X112928533Y-87653737D01*
X113449538Y-86570686D02*
X113543849Y-86557432D01*
X113543849Y-86557432D02*
X113644788Y-86591333D01*
X113644788Y-86591333D02*
X113698571Y-86631861D01*
X113698571Y-86631861D02*
X113758981Y-86719545D01*
X113758981Y-86719545D02*
X113832646Y-86901540D01*
X113832646Y-86901540D02*
X113865782Y-87137319D01*
X113865782Y-87137319D02*
X113845136Y-87332568D01*
X113845136Y-87332568D02*
X113811235Y-87433507D01*
X113811235Y-87433507D02*
X113770706Y-87487290D01*
X113770706Y-87487290D02*
X113683022Y-87547700D01*
X113683022Y-87547700D02*
X113588711Y-87560955D01*
X113588711Y-87560955D02*
X113487772Y-87527053D01*
X113487772Y-87527053D02*
X113433990Y-87486525D01*
X113433990Y-87486525D02*
X113373579Y-87398841D01*
X113373579Y-87398841D02*
X113299915Y-87216846D01*
X113299915Y-87216846D02*
X113266778Y-86981068D01*
X113266778Y-86981068D02*
X113287425Y-86785818D01*
X113287425Y-86785818D02*
X113321326Y-86684880D01*
X113321326Y-86684880D02*
X113361854Y-86631097D01*
X113361854Y-86631097D02*
X113449538Y-86570686D01*
X210341671Y-69794452D02*
X210341671Y-70794452D01*
X210341671Y-69842071D02*
X210436909Y-69794452D01*
X210436909Y-69794452D02*
X210627385Y-69794452D01*
X210627385Y-69794452D02*
X210722623Y-69842071D01*
X210722623Y-69842071D02*
X210770242Y-69889690D01*
X210770242Y-69889690D02*
X210817861Y-69984928D01*
X210817861Y-69984928D02*
X210817861Y-70270642D01*
X210817861Y-70270642D02*
X210770242Y-70365880D01*
X210770242Y-70365880D02*
X210722623Y-70413500D01*
X210722623Y-70413500D02*
X210627385Y-70461119D01*
X210627385Y-70461119D02*
X210436909Y-70461119D01*
X210436909Y-70461119D02*
X210341671Y-70413500D01*
X211246433Y-70461119D02*
X211246433Y-69794452D01*
X211246433Y-69984928D02*
X211294052Y-69889690D01*
X211294052Y-69889690D02*
X211341671Y-69842071D01*
X211341671Y-69842071D02*
X211436909Y-69794452D01*
X211436909Y-69794452D02*
X211532147Y-69794452D01*
X212008338Y-70461119D02*
X211913100Y-70413500D01*
X211913100Y-70413500D02*
X211865481Y-70365880D01*
X211865481Y-70365880D02*
X211817862Y-70270642D01*
X211817862Y-70270642D02*
X211817862Y-69984928D01*
X211817862Y-69984928D02*
X211865481Y-69889690D01*
X211865481Y-69889690D02*
X211913100Y-69842071D01*
X211913100Y-69842071D02*
X212008338Y-69794452D01*
X212008338Y-69794452D02*
X212151195Y-69794452D01*
X212151195Y-69794452D02*
X212246433Y-69842071D01*
X212246433Y-69842071D02*
X212294052Y-69889690D01*
X212294052Y-69889690D02*
X212341671Y-69984928D01*
X212341671Y-69984928D02*
X212341671Y-70270642D01*
X212341671Y-70270642D02*
X212294052Y-70365880D01*
X212294052Y-70365880D02*
X212246433Y-70413500D01*
X212246433Y-70413500D02*
X212151195Y-70461119D01*
X212151195Y-70461119D02*
X212008338Y-70461119D01*
X212770243Y-70461119D02*
X212770243Y-69794452D01*
X212770243Y-69889690D02*
X212817862Y-69842071D01*
X212817862Y-69842071D02*
X212913100Y-69794452D01*
X212913100Y-69794452D02*
X213055957Y-69794452D01*
X213055957Y-69794452D02*
X213151195Y-69842071D01*
X213151195Y-69842071D02*
X213198814Y-69937309D01*
X213198814Y-69937309D02*
X213198814Y-70461119D01*
X213198814Y-69937309D02*
X213246433Y-69842071D01*
X213246433Y-69842071D02*
X213341671Y-69794452D01*
X213341671Y-69794452D02*
X213484528Y-69794452D01*
X213484528Y-69794452D02*
X213579767Y-69842071D01*
X213579767Y-69842071D02*
X213627386Y-69937309D01*
X213627386Y-69937309D02*
X213627386Y-70461119D01*
X214103576Y-70461119D02*
X214103576Y-69794452D01*
X214103576Y-69461119D02*
X214055957Y-69508738D01*
X214055957Y-69508738D02*
X214103576Y-69556357D01*
X214103576Y-69556357D02*
X214151195Y-69508738D01*
X214151195Y-69508738D02*
X214103576Y-69461119D01*
X214103576Y-69461119D02*
X214103576Y-69556357D01*
X215008337Y-70413500D02*
X214913099Y-70461119D01*
X214913099Y-70461119D02*
X214722623Y-70461119D01*
X214722623Y-70461119D02*
X214627385Y-70413500D01*
X214627385Y-70413500D02*
X214579766Y-70365880D01*
X214579766Y-70365880D02*
X214532147Y-70270642D01*
X214532147Y-70270642D02*
X214532147Y-69984928D01*
X214532147Y-69984928D02*
X214579766Y-69889690D01*
X214579766Y-69889690D02*
X214627385Y-69842071D01*
X214627385Y-69842071D02*
X214722623Y-69794452D01*
X214722623Y-69794452D02*
X214913099Y-69794452D01*
X214913099Y-69794452D02*
X215008337Y-69842071D01*
X215436909Y-70461119D02*
X215436909Y-69794452D01*
X215436909Y-69984928D02*
X215484528Y-69889690D01*
X215484528Y-69889690D02*
X215532147Y-69842071D01*
X215532147Y-69842071D02*
X215627385Y-69794452D01*
X215627385Y-69794452D02*
X215722623Y-69794452D01*
X216198814Y-70461119D02*
X216103576Y-70413500D01*
X216103576Y-70413500D02*
X216055957Y-70365880D01*
X216055957Y-70365880D02*
X216008338Y-70270642D01*
X216008338Y-70270642D02*
X216008338Y-69984928D01*
X216008338Y-69984928D02*
X216055957Y-69889690D01*
X216055957Y-69889690D02*
X216103576Y-69842071D01*
X216103576Y-69842071D02*
X216198814Y-69794452D01*
X216198814Y-69794452D02*
X216341671Y-69794452D01*
X216341671Y-69794452D02*
X216436909Y-69842071D01*
X216436909Y-69842071D02*
X216484528Y-69889690D01*
X216484528Y-69889690D02*
X216532147Y-69984928D01*
X216532147Y-69984928D02*
X216532147Y-70270642D01*
X216532147Y-70270642D02*
X216484528Y-70365880D01*
X216484528Y-70365880D02*
X216436909Y-70413500D01*
X216436909Y-70413500D02*
X216341671Y-70461119D01*
X216341671Y-70461119D02*
X216198814Y-70461119D01*
X205365480Y-109461119D02*
X205032147Y-108984928D01*
X204794052Y-109461119D02*
X204794052Y-108461119D01*
X204794052Y-108461119D02*
X205175004Y-108461119D01*
X205175004Y-108461119D02*
X205270242Y-108508738D01*
X205270242Y-108508738D02*
X205317861Y-108556357D01*
X205317861Y-108556357D02*
X205365480Y-108651595D01*
X205365480Y-108651595D02*
X205365480Y-108794452D01*
X205365480Y-108794452D02*
X205317861Y-108889690D01*
X205317861Y-108889690D02*
X205270242Y-108937309D01*
X205270242Y-108937309D02*
X205175004Y-108984928D01*
X205175004Y-108984928D02*
X204794052Y-108984928D01*
X205794052Y-109365880D02*
X205841671Y-109413500D01*
X205841671Y-109413500D02*
X205794052Y-109461119D01*
X205794052Y-109461119D02*
X205746433Y-109413500D01*
X205746433Y-109413500D02*
X205794052Y-109365880D01*
X205794052Y-109365880D02*
X205794052Y-109461119D01*
X206984528Y-109413500D02*
X207127385Y-109461119D01*
X207127385Y-109461119D02*
X207365480Y-109461119D01*
X207365480Y-109461119D02*
X207460718Y-109413500D01*
X207460718Y-109413500D02*
X207508337Y-109365880D01*
X207508337Y-109365880D02*
X207555956Y-109270642D01*
X207555956Y-109270642D02*
X207555956Y-109175404D01*
X207555956Y-109175404D02*
X207508337Y-109080166D01*
X207508337Y-109080166D02*
X207460718Y-109032547D01*
X207460718Y-109032547D02*
X207365480Y-108984928D01*
X207365480Y-108984928D02*
X207175004Y-108937309D01*
X207175004Y-108937309D02*
X207079766Y-108889690D01*
X207079766Y-108889690D02*
X207032147Y-108842071D01*
X207032147Y-108842071D02*
X206984528Y-108746833D01*
X206984528Y-108746833D02*
X206984528Y-108651595D01*
X206984528Y-108651595D02*
X207032147Y-108556357D01*
X207032147Y-108556357D02*
X207079766Y-108508738D01*
X207079766Y-108508738D02*
X207175004Y-108461119D01*
X207175004Y-108461119D02*
X207413099Y-108461119D01*
X207413099Y-108461119D02*
X207555956Y-108508738D01*
X207984528Y-109461119D02*
X207984528Y-108794452D01*
X207984528Y-108461119D02*
X207936909Y-108508738D01*
X207936909Y-108508738D02*
X207984528Y-108556357D01*
X207984528Y-108556357D02*
X208032147Y-108508738D01*
X208032147Y-108508738D02*
X207984528Y-108461119D01*
X207984528Y-108461119D02*
X207984528Y-108556357D01*
X208889289Y-109461119D02*
X208889289Y-108461119D01*
X208889289Y-109413500D02*
X208794051Y-109461119D01*
X208794051Y-109461119D02*
X208603575Y-109461119D01*
X208603575Y-109461119D02*
X208508337Y-109413500D01*
X208508337Y-109413500D02*
X208460718Y-109365880D01*
X208460718Y-109365880D02*
X208413099Y-109270642D01*
X208413099Y-109270642D02*
X208413099Y-108984928D01*
X208413099Y-108984928D02*
X208460718Y-108889690D01*
X208460718Y-108889690D02*
X208508337Y-108842071D01*
X208508337Y-108842071D02*
X208603575Y-108794452D01*
X208603575Y-108794452D02*
X208794051Y-108794452D01*
X208794051Y-108794452D02*
X208889289Y-108842071D01*
X209746432Y-109413500D02*
X209651194Y-109461119D01*
X209651194Y-109461119D02*
X209460718Y-109461119D01*
X209460718Y-109461119D02*
X209365480Y-109413500D01*
X209365480Y-109413500D02*
X209317861Y-109318261D01*
X209317861Y-109318261D02*
X209317861Y-108937309D01*
X209317861Y-108937309D02*
X209365480Y-108842071D01*
X209365480Y-108842071D02*
X209460718Y-108794452D01*
X209460718Y-108794452D02*
X209651194Y-108794452D01*
X209651194Y-108794452D02*
X209746432Y-108842071D01*
X209746432Y-108842071D02*
X209794051Y-108937309D01*
X209794051Y-108937309D02*
X209794051Y-109032547D01*
X209794051Y-109032547D02*
X209317861Y-109127785D01*
X210984528Y-109080166D02*
X211746433Y-109080166D01*
X213270242Y-108461119D02*
X213270242Y-109175404D01*
X213270242Y-109175404D02*
X213222623Y-109318261D01*
X213222623Y-109318261D02*
X213127385Y-109413500D01*
X213127385Y-109413500D02*
X212984528Y-109461119D01*
X212984528Y-109461119D02*
X212889290Y-109461119D01*
X214175004Y-108794452D02*
X214175004Y-109461119D01*
X213746433Y-108794452D02*
X213746433Y-109318261D01*
X213746433Y-109318261D02*
X213794052Y-109413500D01*
X213794052Y-109413500D02*
X213889290Y-109461119D01*
X213889290Y-109461119D02*
X214032147Y-109461119D01*
X214032147Y-109461119D02*
X214127385Y-109413500D01*
X214127385Y-109413500D02*
X214175004Y-109365880D01*
X214651195Y-109461119D02*
X214651195Y-108794452D01*
X214651195Y-108889690D02*
X214698814Y-108842071D01*
X214698814Y-108842071D02*
X214794052Y-108794452D01*
X214794052Y-108794452D02*
X214936909Y-108794452D01*
X214936909Y-108794452D02*
X215032147Y-108842071D01*
X215032147Y-108842071D02*
X215079766Y-108937309D01*
X215079766Y-108937309D02*
X215079766Y-109461119D01*
X215079766Y-108937309D02*
X215127385Y-108842071D01*
X215127385Y-108842071D02*
X215222623Y-108794452D01*
X215222623Y-108794452D02*
X215365480Y-108794452D01*
X215365480Y-108794452D02*
X215460719Y-108842071D01*
X215460719Y-108842071D02*
X215508338Y-108937309D01*
X215508338Y-108937309D02*
X215508338Y-109461119D01*
X215984528Y-108794452D02*
X215984528Y-109794452D01*
X215984528Y-108842071D02*
X216079766Y-108794452D01*
X216079766Y-108794452D02*
X216270242Y-108794452D01*
X216270242Y-108794452D02*
X216365480Y-108842071D01*
X216365480Y-108842071D02*
X216413099Y-108889690D01*
X216413099Y-108889690D02*
X216460718Y-108984928D01*
X216460718Y-108984928D02*
X216460718Y-109270642D01*
X216460718Y-109270642D02*
X216413099Y-109365880D01*
X216413099Y-109365880D02*
X216365480Y-109413500D01*
X216365480Y-109413500D02*
X216270242Y-109461119D01*
X216270242Y-109461119D02*
X216079766Y-109461119D01*
X216079766Y-109461119D02*
X215984528Y-109413500D01*
X217270242Y-109413500D02*
X217175004Y-109461119D01*
X217175004Y-109461119D02*
X216984528Y-109461119D01*
X216984528Y-109461119D02*
X216889290Y-109413500D01*
X216889290Y-109413500D02*
X216841671Y-109318261D01*
X216841671Y-109318261D02*
X216841671Y-108937309D01*
X216841671Y-108937309D02*
X216889290Y-108842071D01*
X216889290Y-108842071D02*
X216984528Y-108794452D01*
X216984528Y-108794452D02*
X217175004Y-108794452D01*
X217175004Y-108794452D02*
X217270242Y-108842071D01*
X217270242Y-108842071D02*
X217317861Y-108937309D01*
X217317861Y-108937309D02*
X217317861Y-109032547D01*
X217317861Y-109032547D02*
X216841671Y-109127785D01*
X217746433Y-109461119D02*
X217746433Y-108794452D01*
X217746433Y-108984928D02*
X217794052Y-108889690D01*
X217794052Y-108889690D02*
X217841671Y-108842071D01*
X217841671Y-108842071D02*
X217936909Y-108794452D01*
X217936909Y-108794452D02*
X218032147Y-108794452D01*
X219127386Y-109461119D02*
X219127386Y-108461119D01*
X219127386Y-108937309D02*
X219698814Y-108937309D01*
X219698814Y-109461119D02*
X219698814Y-108461119D01*
X220555957Y-109413500D02*
X220460719Y-109461119D01*
X220460719Y-109461119D02*
X220270243Y-109461119D01*
X220270243Y-109461119D02*
X220175005Y-109413500D01*
X220175005Y-109413500D02*
X220127386Y-109318261D01*
X220127386Y-109318261D02*
X220127386Y-108937309D01*
X220127386Y-108937309D02*
X220175005Y-108842071D01*
X220175005Y-108842071D02*
X220270243Y-108794452D01*
X220270243Y-108794452D02*
X220460719Y-108794452D01*
X220460719Y-108794452D02*
X220555957Y-108842071D01*
X220555957Y-108842071D02*
X220603576Y-108937309D01*
X220603576Y-108937309D02*
X220603576Y-109032547D01*
X220603576Y-109032547D02*
X220127386Y-109127785D01*
X221032148Y-109461119D02*
X221032148Y-108794452D01*
X221032148Y-108984928D02*
X221079767Y-108889690D01*
X221079767Y-108889690D02*
X221127386Y-108842071D01*
X221127386Y-108842071D02*
X221222624Y-108794452D01*
X221222624Y-108794452D02*
X221317862Y-108794452D01*
X222032148Y-109413500D02*
X221936910Y-109461119D01*
X221936910Y-109461119D02*
X221746434Y-109461119D01*
X221746434Y-109461119D02*
X221651196Y-109413500D01*
X221651196Y-109413500D02*
X221603577Y-109318261D01*
X221603577Y-109318261D02*
X221603577Y-108937309D01*
X221603577Y-108937309D02*
X221651196Y-108842071D01*
X221651196Y-108842071D02*
X221746434Y-108794452D01*
X221746434Y-108794452D02*
X221936910Y-108794452D01*
X221936910Y-108794452D02*
X222032148Y-108842071D01*
X222032148Y-108842071D02*
X222079767Y-108937309D01*
X222079767Y-108937309D02*
X222079767Y-109032547D01*
X222079767Y-109032547D02*
X221603577Y-109127785D01*
%TO.C,B1*%
X216263100Y-139956300D02*
X216263100Y-142456300D01*
X217763100Y-138456300D02*
X216263100Y-139956300D01*
X217763100Y-143956300D02*
X216263100Y-142456300D01*
X220263100Y-138456300D02*
X217763100Y-138456300D01*
X220263100Y-138456300D02*
X221763100Y-139956300D01*
X220263100Y-143956300D02*
X217763100Y-143956300D01*
X220263100Y-143956300D02*
X221763100Y-142456300D01*
X221763100Y-139956300D02*
X221763100Y-142456300D01*
D11*
%TO.C,D20*%
X125463100Y-75146300D02*
X125463100Y-78806300D01*
X127363100Y-75146300D02*
X125463100Y-75146300D01*
X127363100Y-75146300D02*
X127363100Y-78806300D01*
%TO.C,D3*%
X161463100Y-90546300D02*
X161463100Y-94206300D01*
X163363100Y-90546300D02*
X161463100Y-90546300D01*
X163363100Y-90546300D02*
X163363100Y-94206300D01*
%TO.C,D13*%
X108563914Y-145908309D02*
X109073288Y-149532690D01*
X110445423Y-145643880D02*
X108563914Y-145908309D01*
X110445423Y-145643880D02*
X110954797Y-149268261D01*
%TO.C,D4*%
X161463100Y-73546300D02*
X161463100Y-77206300D01*
X163363100Y-73546300D02*
X161463100Y-73546300D01*
X163363100Y-73546300D02*
X163363100Y-77206300D01*
%TO.C,D1*%
X161463100Y-124546300D02*
X161463100Y-128206300D01*
X163363100Y-124546300D02*
X161463100Y-124546300D01*
X163363100Y-124546300D02*
X163363100Y-128206300D01*
%TO.C,D22*%
X143463100Y-107146300D02*
X143463100Y-110806300D01*
X145363100Y-107146300D02*
X143463100Y-107146300D01*
X145363100Y-107146300D02*
X145363100Y-110806300D01*
%TO.C,D19*%
X125463100Y-92146300D02*
X125463100Y-95806300D01*
X127363100Y-92146300D02*
X125463100Y-92146300D01*
X127363100Y-92146300D02*
X127363100Y-95806300D01*
%TO.C,D12*%
X83641214Y-97909809D02*
X84150588Y-101534190D01*
X85522723Y-97645380D02*
X83641214Y-97909809D01*
X85522723Y-97645380D02*
X86032097Y-101269761D01*
%TO.C,D23*%
X143463100Y-90146300D02*
X143463100Y-93806300D01*
X145363100Y-90146300D02*
X143463100Y-90146300D01*
X145363100Y-90146300D02*
X145363100Y-93806300D01*
%TO.C,D18*%
X125463100Y-109146300D02*
X125463100Y-112806300D01*
X127363100Y-109146300D02*
X125463100Y-109146300D01*
X127363100Y-109146300D02*
X127363100Y-112806300D01*
%TO.C,D26*%
X189984975Y-145720546D02*
X188853973Y-149201413D01*
X191791982Y-146307678D02*
X189984975Y-145720546D01*
X191791982Y-146307678D02*
X190660980Y-149788545D01*
%TO.C,D6*%
X179463100Y-109546300D02*
X179463100Y-113206300D01*
X181363100Y-109546300D02*
X179463100Y-109546300D01*
X181363100Y-109546300D02*
X181363100Y-113206300D01*
D12*
%TO.C,G\u002A\u002A\u002A*%
G36*
X147212047Y-138406247D02*
G01*
X147310270Y-138411401D01*
X147365878Y-138426173D01*
X147387587Y-138455624D01*
X147384111Y-138504811D01*
X147364166Y-138578794D01*
X147363682Y-138580481D01*
X147350162Y-138642992D01*
X147353457Y-138669377D01*
X147356176Y-138668821D01*
X147500348Y-138597230D01*
X147613693Y-138553485D01*
X147715523Y-138532391D01*
X147825150Y-138528753D01*
X147869701Y-138530685D01*
X148045408Y-138557718D01*
X148178780Y-138620103D01*
X148279793Y-138723711D01*
X148323932Y-138797955D01*
X148374772Y-138947221D01*
X148400727Y-139140375D01*
X148401186Y-139366383D01*
X148375536Y-139614210D01*
X148370850Y-139643817D01*
X148297852Y-139966972D01*
X148193095Y-140240676D01*
X148056942Y-140464327D01*
X147889754Y-140637324D01*
X147704099Y-140753463D01*
X147596393Y-140800481D01*
X147509005Y-140826392D01*
X147416278Y-140835953D01*
X147292558Y-140833921D01*
X147274467Y-140833126D01*
X147136646Y-140822646D01*
X147045093Y-140804214D01*
X146986229Y-140774798D01*
X146976328Y-140766561D01*
X146954021Y-140745340D01*
X146936652Y-140732353D01*
X146921885Y-140734236D01*
X146907385Y-140757625D01*
X146890817Y-140809154D01*
X146869845Y-140895459D01*
X146842134Y-141023176D01*
X146805349Y-141198940D01*
X146777946Y-141330243D01*
X146683908Y-141779803D01*
X146339995Y-141862728D01*
X146205205Y-141895195D01*
X146093886Y-141921947D01*
X146017753Y-141940171D01*
X145988576Y-141947048D01*
X145981071Y-141936398D01*
X145987110Y-141905886D01*
X146004340Y-141822926D01*
X146031426Y-141693797D01*
X146067035Y-141524779D01*
X146109833Y-141322151D01*
X146158486Y-141092192D01*
X146211661Y-140841181D01*
X146268025Y-140575397D01*
X146318916Y-140335639D01*
X147001708Y-140335639D01*
X147026910Y-140392243D01*
X147092342Y-140423083D01*
X147183387Y-140426842D01*
X147285428Y-140402199D01*
X147355248Y-140367547D01*
X147475340Y-140259449D01*
X147576713Y-140100157D01*
X147656825Y-139896303D01*
X147713134Y-139654518D01*
X147743100Y-139381436D01*
X147744607Y-139351398D01*
X147750138Y-139203192D01*
X147750062Y-139101943D01*
X147742969Y-139034707D01*
X147727449Y-138988540D01*
X147702095Y-138950498D01*
X147700786Y-138948876D01*
X147618073Y-138887747D01*
X147519358Y-138879766D01*
X147414728Y-138923994D01*
X147346934Y-138981746D01*
X147313737Y-139019699D01*
X147286036Y-139062285D01*
X147261037Y-139118383D01*
X147235947Y-139196871D01*
X147207973Y-139306631D01*
X147174321Y-139456539D01*
X147132198Y-139655476D01*
X147126734Y-139681658D01*
X147088730Y-139866516D01*
X147055384Y-140033640D01*
X147028561Y-140173273D01*
X147010128Y-140275657D01*
X147001949Y-140331034D01*
X147001708Y-140335639D01*
X146318916Y-140335639D01*
X146326243Y-140301119D01*
X146384981Y-140024628D01*
X146442908Y-139752200D01*
X146498687Y-139490117D01*
X146550987Y-139244657D01*
X146598473Y-139022099D01*
X146639812Y-138828722D01*
X146673669Y-138670806D01*
X146698712Y-138554629D01*
X146713607Y-138486471D01*
X146716627Y-138473206D01*
X146726697Y-138443641D01*
X146747285Y-138424259D01*
X146789371Y-138412915D01*
X146863936Y-138407466D01*
X146981961Y-138405767D01*
X147062494Y-138405653D01*
X147212047Y-138406247D01*
G37*
G36*
X145658243Y-137461431D02*
G01*
X145770308Y-137467347D01*
X145851400Y-137479678D01*
X145916033Y-137500443D01*
X145966059Y-137524712D01*
X146107797Y-137621762D01*
X146219087Y-137738584D01*
X146279397Y-137844664D01*
X146304593Y-137958935D01*
X146309516Y-138095120D01*
X146294952Y-138225921D01*
X146265787Y-138316565D01*
X146185340Y-138413274D01*
X146073116Y-138473842D01*
X145946810Y-138494234D01*
X145824119Y-138470414D01*
X145758376Y-138432265D01*
X145706668Y-138385543D01*
X145698903Y-138351643D01*
X145720683Y-138319677D01*
X145809745Y-138186775D01*
X145852928Y-138053078D01*
X145854497Y-137927146D01*
X145818717Y-137817544D01*
X145749853Y-137732831D01*
X145652169Y-137681572D01*
X145529930Y-137672328D01*
X145413290Y-137702533D01*
X145287038Y-137781635D01*
X145206579Y-137899569D01*
X145171934Y-138056302D01*
X145170432Y-138102651D01*
X145178641Y-138212803D01*
X145207257Y-138315896D01*
X145262260Y-138423369D01*
X145349633Y-138546657D01*
X145475357Y-138697199D01*
X145490273Y-138714196D01*
X145676777Y-138930071D01*
X145824421Y-139111881D01*
X145937433Y-139267382D01*
X146020039Y-139404332D01*
X146076469Y-139530489D01*
X146110947Y-139653609D01*
X146127703Y-139781451D01*
X146131189Y-139890326D01*
X146127084Y-140020994D01*
X146110163Y-140120940D01*
X146073514Y-140219199D01*
X146033612Y-140300225D01*
X145898368Y-140497924D01*
X145717338Y-140663531D01*
X145499776Y-140788963D01*
X145450963Y-140809191D01*
X145312499Y-140848388D01*
X145141249Y-140875567D01*
X144956815Y-140889679D01*
X144778798Y-140889671D01*
X144626799Y-140874494D01*
X144554948Y-140857244D01*
X144336819Y-140760802D01*
X144166229Y-140631837D01*
X144045599Y-140472356D01*
X144016044Y-140410695D01*
X143982942Y-140283356D01*
X143970703Y-140127168D01*
X143980227Y-139969913D01*
X143998818Y-139879226D01*
X144072725Y-139712925D01*
X144184550Y-139576900D01*
X144323832Y-139477163D01*
X144480112Y-139419726D01*
X144642928Y-139410602D01*
X144763973Y-139439437D01*
X144854884Y-139487411D01*
X144927294Y-139549326D01*
X144975329Y-139614681D01*
X144993113Y-139672975D01*
X144974770Y-139713710D01*
X144924711Y-139726693D01*
X144826600Y-139747110D01*
X144716070Y-139798917D01*
X144618296Y-139867947D01*
X144563958Y-139929691D01*
X144507471Y-140073859D01*
X144499884Y-140219466D01*
X144536860Y-140354544D01*
X144614064Y-140467124D01*
X144727160Y-140545238D01*
X144794990Y-140567447D01*
X144968526Y-140580026D01*
X145123231Y-140541445D01*
X145253351Y-140459146D01*
X145353133Y-140340574D01*
X145416826Y-140193173D01*
X145438676Y-140024387D01*
X145412932Y-139841661D01*
X145396448Y-139789118D01*
X145371823Y-139731157D01*
X145333566Y-139662454D01*
X145277292Y-139576895D01*
X145198611Y-139468367D01*
X145093134Y-139330756D01*
X144956475Y-139157951D01*
X144833048Y-139004264D01*
X144703299Y-138836800D01*
X144610859Y-138698739D01*
X144550032Y-138577577D01*
X144515124Y-138460808D01*
X144500439Y-138335926D01*
X144498902Y-138270547D01*
X144521110Y-138064978D01*
X144590676Y-137888528D01*
X144710878Y-137736355D01*
X144884994Y-137603615D01*
X144990290Y-137544555D01*
X145067116Y-137507493D01*
X145135369Y-137483146D01*
X145210978Y-137468874D01*
X145309871Y-137462034D01*
X145447979Y-137459984D01*
X145500692Y-137459908D01*
X145658243Y-137461431D01*
G37*
G36*
X151383019Y-141134014D02*
G01*
X151766738Y-141181001D01*
X152009801Y-141230973D01*
X152399969Y-141354638D01*
X152750446Y-141523037D01*
X153061303Y-141736270D01*
X153332613Y-141994438D01*
X153564447Y-142297643D01*
X153756878Y-142645985D01*
X153909977Y-143039566D01*
X154023817Y-143478486D01*
X154098469Y-143962847D01*
X154119102Y-144192934D01*
X154132291Y-144677670D01*
X154106987Y-145195239D01*
X154045484Y-145734406D01*
X153950078Y-146283937D01*
X153823063Y-146832595D01*
X153666735Y-147369147D01*
X153483390Y-147882357D01*
X153275321Y-148360991D01*
X153262028Y-148388513D01*
X153056953Y-148785270D01*
X152846176Y-149138324D01*
X152618302Y-149463749D01*
X152361937Y-149777619D01*
X152065685Y-150096007D01*
X152015822Y-150146435D01*
X151676073Y-150461011D01*
X151335387Y-150720560D01*
X150985033Y-150929590D01*
X150616281Y-151092615D01*
X150220401Y-151214145D01*
X149788661Y-151298690D01*
X149784545Y-151299303D01*
X149534221Y-151326838D01*
X149263867Y-151340092D01*
X148993815Y-151339063D01*
X148744397Y-151323750D01*
X148563104Y-151299375D01*
X148200056Y-151207048D01*
X147871775Y-151069748D01*
X147581342Y-150889349D01*
X147331838Y-150667728D01*
X147145978Y-150436277D01*
X146986996Y-150152163D01*
X146863631Y-149821743D01*
X146776098Y-149447216D01*
X146724614Y-149030778D01*
X146709396Y-148574627D01*
X146730659Y-148080960D01*
X146788621Y-147551975D01*
X146833514Y-147262627D01*
X146963321Y-146609032D01*
X147125114Y-145983160D01*
X147317067Y-145389328D01*
X147537351Y-144831853D01*
X147784141Y-144315054D01*
X148055609Y-143843246D01*
X148349928Y-143420748D01*
X148573776Y-143150826D01*
X148865144Y-142864149D01*
X149174672Y-142633955D01*
X149501520Y-142460648D01*
X149844847Y-142344632D01*
X150203811Y-142286311D01*
X150388619Y-142278913D01*
X150518175Y-142283404D01*
X150658348Y-142295673D01*
X150796568Y-142313644D01*
X150920264Y-142335242D01*
X151016866Y-142358391D01*
X151073802Y-142381014D01*
X151083683Y-142393698D01*
X151060243Y-142420198D01*
X151000730Y-142468808D01*
X150932235Y-142518892D01*
X150741226Y-142680342D01*
X150547639Y-142896449D01*
X150353551Y-143162005D01*
X150161040Y-143471799D01*
X149972187Y-143820623D01*
X149789068Y-144203267D01*
X149613762Y-144614522D01*
X149448349Y-145049179D01*
X149294906Y-145502029D01*
X149155512Y-145967862D01*
X149032246Y-146441469D01*
X148927186Y-146917642D01*
X148842411Y-147391170D01*
X148779998Y-147856845D01*
X148771947Y-147933025D01*
X148757416Y-148126696D01*
X148749396Y-148346616D01*
X148747530Y-148580474D01*
X148751462Y-148815957D01*
X148760838Y-149040755D01*
X148775301Y-149242556D01*
X148794495Y-149409048D01*
X148818025Y-149527777D01*
X148878718Y-149706432D01*
X148953514Y-149870119D01*
X149033643Y-150000887D01*
X149071714Y-150046999D01*
X149212363Y-150154276D01*
X149380248Y-150212672D01*
X149568431Y-150222679D01*
X149769971Y-150184791D01*
X149977930Y-150099499D01*
X150184380Y-149968046D01*
X150423744Y-149755849D01*
X150657110Y-149489425D01*
X150882626Y-149174447D01*
X151098439Y-148816592D01*
X151302696Y-148421536D01*
X151493543Y-147994954D01*
X151669128Y-147542521D01*
X151827599Y-147069914D01*
X151967101Y-146582808D01*
X152085783Y-146086878D01*
X152181791Y-145587800D01*
X152253272Y-145091251D01*
X152298374Y-144602904D01*
X152315243Y-144128437D01*
X152302027Y-143673525D01*
X152289847Y-143518852D01*
X152253137Y-143198394D01*
X152205825Y-142929098D01*
X152145072Y-142702585D01*
X152068043Y-142510474D01*
X151971901Y-142344387D01*
X151853808Y-142195942D01*
X151835234Y-142175956D01*
X151693297Y-142044810D01*
X151538756Y-141942331D01*
X151363657Y-141866301D01*
X151160041Y-141814497D01*
X150919952Y-141784701D01*
X150635432Y-141774691D01*
X150409558Y-141778145D01*
X149933046Y-141813152D01*
X149492749Y-141889492D01*
X149078620Y-142010211D01*
X148680611Y-142178360D01*
X148288678Y-142396986D01*
X148214457Y-142444231D01*
X147876591Y-142697085D01*
X147571100Y-142993615D01*
X147304456Y-143325602D01*
X147083127Y-143684824D01*
X146913582Y-144063061D01*
X146891569Y-144125157D01*
X146827390Y-144350988D01*
X146778358Y-144600964D01*
X146745293Y-144861743D01*
X146729014Y-145119983D01*
X146730341Y-145362342D01*
X146750093Y-145575478D01*
X146789089Y-145746050D01*
X146791589Y-145753308D01*
X146819917Y-145846697D01*
X146832748Y-145916413D01*
X146829119Y-145943701D01*
X146784736Y-145953030D01*
X146696531Y-145951151D01*
X146579268Y-145940018D01*
X146447711Y-145921587D01*
X146316626Y-145897810D01*
X146200776Y-145870643D01*
X146142782Y-145852850D01*
X145921762Y-145752696D01*
X145749446Y-145621827D01*
X145619575Y-145453711D01*
X145525889Y-145241815D01*
X145510854Y-145193301D01*
X145486761Y-145060313D01*
X145476395Y-144887338D01*
X145479142Y-144692698D01*
X145494388Y-144494716D01*
X145521518Y-144311713D01*
X145543651Y-144215227D01*
X145668622Y-143866556D01*
X145849801Y-143525625D01*
X146083548Y-143195287D01*
X146366224Y-142878395D01*
X146694188Y-142577800D01*
X147063802Y-142296357D01*
X147471424Y-142036917D01*
X147913416Y-141802332D01*
X148386137Y-141595456D01*
X148885947Y-141419142D01*
X149240661Y-141317842D01*
X149657632Y-141226539D01*
X150092754Y-141162115D01*
X150533627Y-141124961D01*
X150967849Y-141115464D01*
X151383019Y-141134014D01*
G37*
G36*
X154303412Y-137658773D02*
G01*
X154311657Y-137673336D01*
X154314288Y-137703894D01*
X154310445Y-137755591D01*
X154299262Y-137833572D01*
X154279878Y-137942980D01*
X154251429Y-138088959D01*
X154213053Y-138276654D01*
X154163887Y-138511208D01*
X154103067Y-138797765D01*
X154082655Y-138893537D01*
X154026029Y-139161280D01*
X153973531Y-139413787D01*
X153926488Y-139644357D01*
X153886226Y-139846285D01*
X153854075Y-140012870D01*
X153831361Y-140137409D01*
X153819412Y-140213198D01*
X153817890Y-140230332D01*
X153828272Y-140305721D01*
X153870413Y-140347354D01*
X153896265Y-140358697D01*
X154010952Y-140373802D01*
X154118174Y-140330331D01*
X154216126Y-140229489D01*
X154293453Y-140093747D01*
X154318446Y-140023440D01*
X154352350Y-139904745D01*
X154392518Y-139748194D01*
X154436299Y-139564322D01*
X154481047Y-139363664D01*
X154502748Y-139261327D01*
X154646586Y-138570783D01*
X154982504Y-138562294D01*
X155116404Y-138560316D01*
X155224963Y-138561389D01*
X155296178Y-138565214D01*
X155318423Y-138570674D01*
X155312379Y-138603395D01*
X155295349Y-138686925D01*
X155268990Y-138813367D01*
X155234957Y-138974828D01*
X155194905Y-139163413D01*
X155153293Y-139358149D01*
X155108710Y-139569259D01*
X155068689Y-139764632D01*
X155034931Y-139935483D01*
X155009137Y-140073026D01*
X154993009Y-140168479D01*
X154988163Y-140210804D01*
X155003758Y-140280966D01*
X155040777Y-140346952D01*
X155084571Y-140384875D01*
X155096354Y-140387213D01*
X155130486Y-140376732D01*
X155196996Y-140350876D01*
X155212536Y-140344449D01*
X155267513Y-140314295D01*
X155315687Y-140269035D01*
X155359514Y-140202269D01*
X155401452Y-140107599D01*
X155443954Y-139978626D01*
X155489479Y-139808950D01*
X155540482Y-139592173D01*
X155592401Y-139354773D01*
X155635080Y-139156182D01*
X155674329Y-138975269D01*
X155708182Y-138820960D01*
X155734673Y-138702181D01*
X155751835Y-138627857D01*
X155756837Y-138608313D01*
X155770803Y-138584954D01*
X155802832Y-138569653D01*
X155863612Y-138560777D01*
X155963831Y-138556695D01*
X156101061Y-138555771D01*
X156262754Y-138558645D01*
X156371489Y-138567080D01*
X156424403Y-138580797D01*
X156429298Y-138587805D01*
X156423249Y-138622886D01*
X156405925Y-138710729D01*
X156378563Y-138845366D01*
X156342397Y-139020830D01*
X156298663Y-139231153D01*
X156248596Y-139470368D01*
X156193430Y-139732506D01*
X156141864Y-139976398D01*
X156067324Y-140326387D01*
X156003015Y-140622671D01*
X155947269Y-140870403D01*
X155898418Y-141074737D01*
X155854795Y-141240824D01*
X155814733Y-141373817D01*
X155776564Y-141478868D01*
X155738620Y-141561131D01*
X155699234Y-141625757D01*
X155656739Y-141677899D01*
X155609468Y-141722710D01*
X155565254Y-141758146D01*
X155397783Y-141855518D01*
X155214639Y-141910419D01*
X155029994Y-141921491D01*
X154858025Y-141887371D01*
X154753154Y-141836113D01*
X154626833Y-141723933D01*
X154545756Y-141586032D01*
X154515969Y-141434556D01*
X154520421Y-141368357D01*
X154533417Y-141324690D01*
X154789542Y-141324690D01*
X154796197Y-141410091D01*
X154850336Y-141476818D01*
X154876235Y-141491763D01*
X154942491Y-141519021D01*
X154989897Y-141516312D01*
X155042096Y-141477900D01*
X155078108Y-141442785D01*
X155124387Y-141388660D01*
X155160805Y-141323055D01*
X155193115Y-141231755D01*
X155227066Y-141100541D01*
X155240925Y-141040227D01*
X155246482Y-140984158D01*
X155225949Y-140961601D01*
X155172653Y-140972856D01*
X155079924Y-141018221D01*
X155023347Y-141049962D01*
X154906231Y-141135273D01*
X154827258Y-141229966D01*
X154789542Y-141324690D01*
X154533417Y-141324690D01*
X154569213Y-141204413D01*
X154664522Y-141066350D01*
X154809814Y-140950884D01*
X155008558Y-140854730D01*
X155095369Y-140823709D01*
X155210962Y-140781437D01*
X155279104Y-140743773D01*
X155310997Y-140702462D01*
X155317963Y-140659698D01*
X155305727Y-140640839D01*
X155264438Y-140668031D01*
X155250460Y-140680783D01*
X155123125Y-140766706D01*
X154969075Y-140820094D01*
X154806272Y-140838728D01*
X154652679Y-140820390D01*
X154535199Y-140769127D01*
X154451960Y-140695452D01*
X154379634Y-140603538D01*
X154371080Y-140589159D01*
X154308521Y-140477631D01*
X154220505Y-140571326D01*
X154069733Y-140690826D01*
X153885527Y-140771630D01*
X153685690Y-140806351D01*
X153652111Y-140807139D01*
X153482833Y-140789609D01*
X153355761Y-140734065D01*
X153263718Y-140636659D01*
X153234030Y-140582868D01*
X153181039Y-140471197D01*
X153056291Y-140598428D01*
X152963804Y-140680733D01*
X152863642Y-140752130D01*
X152811449Y-140780955D01*
X152674649Y-140821507D01*
X152515684Y-140835436D01*
X152362565Y-140821900D01*
X152277096Y-140797005D01*
X152180745Y-140736918D01*
X152084729Y-140645597D01*
X152007108Y-140543005D01*
X151967070Y-140454216D01*
X151948120Y-140386609D01*
X151925587Y-140357266D01*
X151889063Y-140367440D01*
X151828145Y-140418381D01*
X151765990Y-140478402D01*
X151652513Y-140574986D01*
X151518192Y-140668693D01*
X151419157Y-140725125D01*
X151243315Y-140790227D01*
X151044408Y-140829155D01*
X150842743Y-140840273D01*
X150658624Y-140821948D01*
X150560129Y-140794301D01*
X150413480Y-140709104D01*
X150292698Y-140582903D01*
X150215153Y-140434518D01*
X150179522Y-140326555D01*
X150024327Y-140478688D01*
X149820712Y-140645969D01*
X149603934Y-140757817D01*
X149363688Y-140818777D01*
X149223483Y-140832000D01*
X148994821Y-140827871D01*
X148811596Y-140789513D01*
X148668184Y-140714297D01*
X148558961Y-140599595D01*
X148499443Y-140493538D01*
X148454808Y-140337825D01*
X148440002Y-140143694D01*
X148453457Y-139923909D01*
X148493606Y-139691238D01*
X148501750Y-139662196D01*
X149185495Y-139662196D01*
X149206765Y-139674919D01*
X149251138Y-139667989D01*
X149284093Y-139659694D01*
X149379802Y-139621399D01*
X149479986Y-139561072D01*
X149505396Y-139541573D01*
X149647314Y-139387012D01*
X149743992Y-139199886D01*
X149785749Y-139018056D01*
X149792882Y-138915043D01*
X149785607Y-138853702D01*
X149761046Y-138816775D01*
X149750784Y-138808536D01*
X149676487Y-138786968D01*
X149593120Y-138818396D01*
X149505271Y-138897342D01*
X149417528Y-139018331D01*
X149334481Y-139175884D01*
X149260719Y-139364525D01*
X149245638Y-139411445D01*
X149206398Y-139539926D01*
X149185861Y-139620354D01*
X149185495Y-139662196D01*
X148501750Y-139662196D01*
X148558882Y-139458448D01*
X148647719Y-139238304D01*
X148655508Y-139222208D01*
X148799601Y-138975338D01*
X148963578Y-138784168D01*
X149150027Y-138646898D01*
X149361533Y-138561726D01*
X149600685Y-138526850D01*
X149655653Y-138525748D01*
X149843374Y-138543024D01*
X149985308Y-138595989D01*
X150085170Y-138686347D01*
X150115947Y-138736814D01*
X150144322Y-138837317D01*
X150152969Y-138971262D01*
X150142732Y-139115678D01*
X150114452Y-139247593D01*
X150095361Y-139298313D01*
X149985242Y-139476866D01*
X149831706Y-139636925D01*
X149649049Y-139767878D01*
X149451568Y-139859110D01*
X149289258Y-139896758D01*
X149133553Y-139915199D01*
X149133553Y-140074734D01*
X149147706Y-140234540D01*
X149189544Y-140344978D01*
X149258138Y-140403712D01*
X149265710Y-140406421D01*
X149374073Y-140423144D01*
X149511891Y-140419989D01*
X149652814Y-140399251D01*
X149770493Y-140363225D01*
X149772625Y-140362276D01*
X149882697Y-140301294D01*
X149991304Y-140221820D01*
X150086015Y-140135355D01*
X150154398Y-140053403D01*
X150184020Y-139987466D01*
X150184380Y-139981305D01*
X150197722Y-139845678D01*
X150234111Y-139676693D01*
X150238391Y-139662196D01*
X150926866Y-139662196D01*
X150948136Y-139674919D01*
X150992510Y-139667989D01*
X151025464Y-139659694D01*
X151121173Y-139621399D01*
X151221357Y-139561072D01*
X151246767Y-139541573D01*
X151388685Y-139387012D01*
X151485363Y-139199886D01*
X151527120Y-139018056D01*
X151534253Y-138915043D01*
X151526979Y-138853702D01*
X151502417Y-138816775D01*
X151492155Y-138808536D01*
X151417859Y-138786968D01*
X151334491Y-138818396D01*
X151246642Y-138897342D01*
X151158899Y-139018331D01*
X151075852Y-139175884D01*
X151002090Y-139364525D01*
X150987010Y-139411445D01*
X150947769Y-139539926D01*
X150927232Y-139620354D01*
X150926866Y-139662196D01*
X150238391Y-139662196D01*
X150288088Y-139493847D01*
X150354197Y-139316632D01*
X150396879Y-139222208D01*
X150540972Y-138975338D01*
X150704949Y-138784168D01*
X150891398Y-138646898D01*
X151102905Y-138561726D01*
X151342056Y-138526850D01*
X151397024Y-138525748D01*
X151584745Y-138543024D01*
X151726679Y-138595989D01*
X151826542Y-138686347D01*
X151857318Y-138736814D01*
X151885693Y-138837317D01*
X151894341Y-138971262D01*
X151884103Y-139115678D01*
X151855823Y-139247593D01*
X151836732Y-139298313D01*
X151726614Y-139476866D01*
X151573077Y-139636925D01*
X151390420Y-139767878D01*
X151192939Y-139859110D01*
X151030629Y-139896758D01*
X150874924Y-139915199D01*
X150874924Y-140074734D01*
X150884561Y-140227003D01*
X150919007Y-140329709D01*
X150986566Y-140391024D01*
X151095542Y-140419120D01*
X151228772Y-140422942D01*
X151421425Y-140393301D01*
X151605127Y-140311553D01*
X151783139Y-140178650D01*
X151866349Y-140098057D01*
X151910223Y-140034420D01*
X151910738Y-140032256D01*
X152616739Y-140032256D01*
X152618169Y-140151232D01*
X152625921Y-140226450D01*
X152644346Y-140274169D01*
X152677794Y-140310647D01*
X152694975Y-140324650D01*
X152788388Y-140367782D01*
X152894349Y-140356618D01*
X153000631Y-140302946D01*
X153043032Y-140269810D01*
X153079512Y-140225187D01*
X153112794Y-140161351D01*
X153145605Y-140070580D01*
X153180667Y-139945150D01*
X153220707Y-139777336D01*
X153268448Y-139559416D01*
X153276917Y-139519693D01*
X153322613Y-139300634D01*
X153354192Y-139133183D01*
X153371069Y-139010440D01*
X153372659Y-138925511D01*
X153358376Y-138871498D01*
X153327634Y-138841504D01*
X153279848Y-138828633D01*
X153218015Y-138825984D01*
X153103486Y-138847162D01*
X153000732Y-138913918D01*
X152904474Y-139031083D01*
X152812484Y-139197117D01*
X152691341Y-139509703D01*
X152627960Y-139826709D01*
X152616739Y-140032256D01*
X151910738Y-140032256D01*
X151925265Y-139971205D01*
X151925751Y-139954122D01*
X151937722Y-139837829D01*
X151970010Y-139686509D01*
X152017180Y-139519379D01*
X152073795Y-139355654D01*
X152134420Y-139214551D01*
X152135676Y-139212011D01*
X152283460Y-138967225D01*
X152458199Y-138772705D01*
X152657420Y-138631119D01*
X152691039Y-138613733D01*
X152797821Y-138564337D01*
X152882580Y-138537218D01*
X152971153Y-138527292D01*
X153089377Y-138529476D01*
X153113396Y-138530642D01*
X153236140Y-138539387D01*
X153314672Y-138553431D01*
X153364824Y-138577229D01*
X153399094Y-138611060D01*
X153454809Y-138679865D01*
X153471019Y-138610312D01*
X153483396Y-138554483D01*
X153505040Y-138454201D01*
X153532881Y-138323781D01*
X153563227Y-138180476D01*
X153593823Y-138037066D01*
X153621059Y-137912398D01*
X153641984Y-137819786D01*
X153653645Y-137772548D01*
X153653690Y-137772400D01*
X153677830Y-137746315D01*
X153738494Y-137724415D01*
X153844355Y-137704291D01*
X153951109Y-137689835D01*
X154080963Y-137674583D01*
X154192780Y-137662734D01*
X154269963Y-137655989D01*
X154290417Y-137655062D01*
X154303412Y-137658773D01*
G37*
D11*
%TO.C,D5*%
X179463100Y-126546300D02*
X179463100Y-130206300D01*
X181363100Y-126546300D02*
X179463100Y-126546300D01*
X181363100Y-126546300D02*
X181363100Y-130206300D01*
%TO.C,D14*%
X106197914Y-129073809D02*
X106707288Y-132698190D01*
X108079423Y-128809380D02*
X106197914Y-129073809D01*
X108079423Y-128809380D02*
X108588797Y-132433761D01*
%TO.C,D21*%
X143463100Y-124146300D02*
X143463100Y-127806300D01*
X145363100Y-124146300D02*
X143463100Y-124146300D01*
X145363100Y-124146300D02*
X145363100Y-127806300D01*
%TO.C,D16*%
X101466014Y-95404609D02*
X101975388Y-99028990D01*
X103347523Y-95140180D02*
X101466014Y-95404609D01*
X103347523Y-95140180D02*
X103856897Y-98764561D01*
%TO.C,D25*%
X168663100Y-145146300D02*
X168663100Y-148806300D01*
X170563100Y-145146300D02*
X168663100Y-145146300D01*
X170563100Y-145146300D02*
X170563100Y-148806300D01*
%TO.C,D7*%
X179463100Y-92546300D02*
X179463100Y-96206300D01*
X181363100Y-92546300D02*
X179463100Y-92546300D01*
X181363100Y-92546300D02*
X181363100Y-96206300D01*
%TO.C,D8*%
X179463100Y-75546300D02*
X179463100Y-79206300D01*
X181363100Y-75546300D02*
X179463100Y-75546300D01*
X181363100Y-75546300D02*
X181363100Y-79206300D01*
D10*
%TO.C,JST1*%
X198063100Y-100756300D02*
X198063100Y-108356300D01*
X198063100Y-108356300D02*
X203963100Y-108356300D01*
X198763100Y-100756300D02*
X198063100Y-100756300D01*
X198763100Y-102356300D02*
X198763100Y-100756300D01*
X199763100Y-103856300D02*
X200263100Y-103856300D01*
X200013100Y-103606300D02*
X200013100Y-104106300D01*
X203263100Y-100756300D02*
X203263100Y-102356300D01*
X203263100Y-102356300D02*
X198763100Y-102356300D01*
X203963100Y-100756300D02*
X203263100Y-100756300D01*
X203963100Y-108356300D02*
X203963100Y-100756300D01*
D11*
%TO.C,D9*%
X90739114Y-148413409D02*
X91248488Y-152037790D01*
X92620623Y-148148980D02*
X90739114Y-148413409D01*
X92620623Y-148148980D02*
X93129997Y-151773361D01*
%TO.C,D15*%
X103832014Y-112239209D02*
X104341388Y-115863590D01*
X105713523Y-111974780D02*
X103832014Y-112239209D01*
X105713523Y-111974780D02*
X106222897Y-115599161D01*
%TO.C,D24*%
X143463100Y-73146300D02*
X143463100Y-76806300D01*
X145363100Y-73146300D02*
X143463100Y-73146300D01*
X145363100Y-73146300D02*
X145363100Y-76806300D01*
D10*
%TO.C,pm*%
X204523100Y-74766300D02*
X204523100Y-107786300D01*
X204523100Y-107786300D02*
X222303100Y-107786300D01*
X209603100Y-72226300D02*
X209603100Y-74766300D01*
X209603100Y-74766300D02*
X204523100Y-74766300D01*
X217223100Y-72226300D02*
X209603100Y-72226300D01*
X217223100Y-74766300D02*
X217223100Y-72226300D01*
X222303100Y-74766300D02*
X217223100Y-74766300D01*
X222303100Y-74766300D02*
X222303100Y-107786300D01*
D11*
%TO.C,D17*%
X125463100Y-126146300D02*
X125463100Y-129806300D01*
X127363100Y-126146300D02*
X125463100Y-126146300D01*
X127363100Y-126146300D02*
X127363100Y-129806300D01*
%TO.C,D10*%
X88373114Y-131578909D02*
X88882488Y-135203290D01*
X90254623Y-131314480D02*
X88373114Y-131578909D01*
X90254623Y-131314480D02*
X90763997Y-134938861D01*
%TO.C,D11*%
X86007214Y-114744309D02*
X86516588Y-118368690D01*
X87888723Y-114479880D02*
X86007214Y-114744309D01*
X87888723Y-114479880D02*
X88398097Y-118104261D01*
%TO.C,D27*%
X210053529Y-152831826D02*
X207902235Y-155792828D01*
X211590661Y-153948618D02*
X209439367Y-156909620D01*
X211590661Y-153948618D02*
X210053529Y-152831826D01*
%TO.C,D2*%
X161463100Y-107546300D02*
X161463100Y-111206300D01*
X163363100Y-107546300D02*
X161463100Y-107546300D01*
X163363100Y-107546300D02*
X163363100Y-111206300D01*
%TO.C,LED24*%
X184613100Y-75306300D02*
X184613100Y-76906300D01*
X184613100Y-76906300D02*
X186213100Y-76906300D01*
%TO.C,LED14*%
X148613100Y-105306300D02*
X148613100Y-106906300D01*
X148613100Y-106906300D02*
X150213100Y-106906300D01*
%TO.C,LED8*%
X113613242Y-90223713D02*
X112028813Y-90446390D01*
X113835919Y-91808142D02*
X113613242Y-90223713D01*
%TO.C,LED23*%
X192213100Y-90706300D02*
X190613100Y-90706300D01*
X192213100Y-92306300D02*
X192213100Y-90706300D01*
%TO.C,LED6*%
X118345142Y-123892813D02*
X116760713Y-124115490D01*
X118567819Y-125477242D02*
X118345142Y-123892813D01*
%TO.C,LED10*%
X130613100Y-107306300D02*
X130613100Y-108906300D01*
X130613100Y-108906300D02*
X132213100Y-108906300D01*
%TO.C,LED15*%
X156213100Y-86706300D02*
X154613100Y-86706300D01*
X156213100Y-88306300D02*
X156213100Y-86706300D01*
%TO.C,LED13*%
X156213100Y-120706300D02*
X154613100Y-120706300D01*
X156213100Y-122306300D02*
X156213100Y-120706300D01*
%TO.C,LED26*%
X194957058Y-147083726D02*
X196478748Y-147578153D01*
X195451485Y-145562035D02*
X194957058Y-147083726D01*
%TO.C,LED27*%
X214360979Y-155664743D02*
X215655406Y-156605200D01*
X215301435Y-154370316D02*
X214360979Y-155664743D01*
%TO.C,LED21*%
X192213100Y-124706300D02*
X190613100Y-124706300D01*
X192213100Y-126306300D02*
X192213100Y-124706300D01*
%TO.C,LED5*%
X113407681Y-143369458D02*
X113630358Y-144953887D01*
X113630358Y-144953887D02*
X115214787Y-144731210D01*
%TO.C,LED17*%
X174213100Y-122706300D02*
X172613100Y-122706300D01*
X174213100Y-124306300D02*
X174213100Y-122706300D01*
%TO.C,LED9*%
X138213100Y-122706300D02*
X136613100Y-122706300D01*
X138213100Y-124306300D02*
X138213100Y-122706300D01*
%TO.C,LED19*%
X174213100Y-88706300D02*
X172613100Y-88706300D01*
X174213100Y-90306300D02*
X174213100Y-88706300D01*
%TO.C,LED18*%
X166613100Y-107306300D02*
X166613100Y-108906300D01*
X166613100Y-108906300D02*
X168213100Y-108906300D01*
%TO.C,LED25*%
X173813100Y-143306300D02*
X173813100Y-144906300D01*
X173813100Y-144906300D02*
X175413100Y-144906300D01*
%TO.C,LED12*%
X130613100Y-73306300D02*
X130613100Y-74906300D01*
X130613100Y-74906300D02*
X132213100Y-74906300D01*
%TO.C,LED16*%
X148613100Y-71306300D02*
X148613100Y-72906300D01*
X148613100Y-72906300D02*
X150213100Y-72906300D01*
%TO.C,LED11*%
X138213100Y-88706300D02*
X136613100Y-88706300D01*
X138213100Y-90306300D02*
X138213100Y-88706300D01*
%TO.C,LED7*%
X108675781Y-109700358D02*
X108898458Y-111284787D01*
X108898458Y-111284787D02*
X110482887Y-111062110D01*
%TO.C,LED3*%
X90850981Y-112205458D02*
X91073658Y-113789887D01*
X91073658Y-113789887D02*
X92658087Y-113567210D01*
%TO.C,LED22*%
X184613100Y-109306300D02*
X184613100Y-110906300D01*
X184613100Y-110906300D02*
X186213100Y-110906300D01*
%TO.C,LED1*%
X95582881Y-145874558D02*
X95805558Y-147458987D01*
X95805558Y-147458987D02*
X97389987Y-147236310D01*
%TO.C,LED4*%
X95788442Y-92728813D02*
X94204013Y-92951490D01*
X96011119Y-94313242D02*
X95788442Y-92728813D01*
%TO.C,LED2*%
X100520242Y-126397913D02*
X98935813Y-126620590D01*
X100742919Y-127982342D02*
X100520242Y-126397913D01*
%TO.C,LED20*%
X166613100Y-73306300D02*
X166613100Y-74906300D01*
X166613100Y-74906300D02*
X168213100Y-74906300D01*
%TD*%
M02*
