%TF.GenerationSoftware,KiCad,Pcbnew,8.0.7-8.0.7-0~ubuntu24.04.1*%
%TF.CreationDate,2025-01-01T23:44:26+01:00*%
%TF.ProjectId,speedy-o_north-face-finished-extended_VCC,73706565-6479-42d6-9f5f-6e6f7274682d,v1.0.0*%
%TF.SameCoordinates,Original*%
%TF.FileFunction,Paste,Top*%
%TF.FilePolarity,Positive*%
%FSLAX46Y46*%
G04 Gerber Fmt 4.6, Leading zero omitted, Abs format (unit mm)*
G04 Created by KiCad (PCBNEW 8.0.7-8.0.7-0~ubuntu24.04.1) date 2025-01-01 23:44:26*
%MOMM*%
%LPD*%
G01*
G04 APERTURE LIST*
G04 Aperture macros list*
%AMRotRect*
0 Rectangle, with rotation*
0 The origin of the aperture is its center*
0 $1 length*
0 $2 width*
0 $3 Rotation angle, in degrees counterclockwise*
0 Add horizontal line*
21,1,$1,$2,0,0,$3*%
G04 Aperture macros list end*
%ADD10R,1.100000X1.800000*%
%ADD11R,2.600000X2.600000*%
%ADD12RotRect,2.600000X2.600000X144.000000*%
%ADD13RotRect,2.600000X2.600000X188.000000*%
%ADD14RotRect,2.600000X2.600000X162.000000*%
%ADD15R,0.800000X1.000000*%
%ADD16R,1.500000X0.700000*%
%ADD17R,1.400000X1.000000*%
%ADD18RotRect,1.400000X1.000000X188.000000*%
%ADD19RotRect,1.400000X1.000000X342.000000*%
%ADD20RotRect,1.400000X1.000000X324.000000*%
%ADD21RotRect,1.400000X1.000000X8.000000*%
G04 APERTURE END LIST*
D10*
%TO.C,B1*%
X220863100Y-138106300D03*
X220863100Y-144306300D03*
X217163100Y-138106300D03*
X217163100Y-144306300D03*
%TD*%
D11*
%TO.C,S15*%
X149138100Y-98956300D03*
X160688100Y-96756300D03*
%TD*%
%TO.C,S13*%
X149138100Y-132956300D03*
X160688100Y-130756300D03*
%TD*%
D12*
%TO.C,S27*%
X209466247Y-163294954D03*
X220103521Y-168304037D03*
%TD*%
D11*
%TO.C,S12*%
X131138100Y-83956300D03*
X142688100Y-81756300D03*
%TD*%
%TO.C,S22*%
X185138100Y-119956300D03*
X196688100Y-117756300D03*
%TD*%
%TO.C,S11*%
X131138100Y-100956300D03*
X142688100Y-98756300D03*
%TD*%
%TO.C,S19*%
X167138100Y-100956300D03*
X178688100Y-98756300D03*
%TD*%
%TO.C,S25*%
X174338100Y-153956300D03*
X185888100Y-151756300D03*
%TD*%
%TO.C,S16*%
X149138100Y-81956300D03*
X160688100Y-79756300D03*
%TD*%
%TO.C,S23*%
X185138100Y-102956300D03*
X196688100Y-100756300D03*
%TD*%
D13*
%TO.C,S4*%
X90487152Y-105844187D03*
X101618567Y-102058148D03*
%TD*%
D11*
%TO.C,S24*%
X185138100Y-85956300D03*
X196688100Y-83756300D03*
%TD*%
%TO.C,S20*%
X167138100Y-83956300D03*
X178688100Y-81756300D03*
%TD*%
%TO.C,S21*%
X185138100Y-136956300D03*
X196688100Y-134756300D03*
%TD*%
%TO.C,S10*%
X131138100Y-117956300D03*
X142688100Y-115756300D03*
%TD*%
D13*
%TO.C,S8*%
X108311952Y-103339087D03*
X119443367Y-99553048D03*
%TD*%
D11*
%TO.C,S18*%
X167138100Y-117956300D03*
X178688100Y-115756300D03*
%TD*%
D14*
%TO.C,S26*%
X192659739Y-155853056D03*
X204324279Y-157329878D03*
%TD*%
D11*
%TO.C,S14*%
X149138100Y-115956300D03*
X160688100Y-113756300D03*
%TD*%
D13*
%TO.C,S2*%
X95219052Y-139513287D03*
X106350467Y-135727248D03*
%TD*%
D11*
%TO.C,S9*%
X131138100Y-134956300D03*
X142688100Y-132756300D03*
%TD*%
D13*
%TO.C,S7*%
X110677852Y-120173687D03*
X121809267Y-116387648D03*
%TD*%
%TO.C,S1*%
X97584952Y-156347887D03*
X108716367Y-152561848D03*
%TD*%
%TO.C,S6*%
X113043852Y-137008187D03*
X124175267Y-133222148D03*
%TD*%
D15*
%TO.C,T1*%
X221233100Y-131256300D03*
X223443100Y-131256300D03*
D16*
X220583100Y-125356300D03*
D15*
X221233100Y-123956300D03*
X223443100Y-123956300D03*
D16*
X220583100Y-129856300D03*
X220583100Y-126856300D03*
%TD*%
D13*
%TO.C,S5*%
X115409752Y-153842787D03*
X126541167Y-150056748D03*
%TD*%
%TO.C,S3*%
X92853052Y-122678787D03*
X103984467Y-118892748D03*
%TD*%
D11*
%TO.C,S17*%
X167138100Y-134956300D03*
X178688100Y-132756300D03*
%TD*%
D17*
%TO.C,LED24*%
X191113100Y-74606300D03*
X191113100Y-76006300D03*
X185713100Y-76006300D03*
X185713100Y-74606300D03*
%TD*%
%TO.C,LED14*%
X155113100Y-104606300D03*
X155113100Y-106006300D03*
X149713100Y-106006300D03*
X149713100Y-104606300D03*
%TD*%
D18*
%TO.C,LED8*%
X107496597Y-93405955D03*
X107301755Y-92019580D03*
X112649203Y-91268045D03*
X112844045Y-92654420D03*
%TD*%
D17*
%TO.C,LED23*%
X185713100Y-93006300D03*
X185713100Y-91606300D03*
X191113100Y-91606300D03*
X191113100Y-93006300D03*
%TD*%
D18*
%TO.C,LED6*%
X112228497Y-127075055D03*
X112033655Y-125688680D03*
X117381103Y-124937145D03*
X117575945Y-126323520D03*
%TD*%
D17*
%TO.C,LED10*%
X137113100Y-106606300D03*
X137113100Y-108006300D03*
X131713100Y-108006300D03*
X131713100Y-106606300D03*
%TD*%
%TO.C,LED15*%
X149713100Y-89006300D03*
X149713100Y-87606300D03*
X155113100Y-87606300D03*
X155113100Y-89006300D03*
%TD*%
%TO.C,LED13*%
X149713100Y-123006300D03*
X149713100Y-121606300D03*
X155113100Y-121606300D03*
X155113100Y-123006300D03*
%TD*%
D19*
%TO.C,LED26*%
X201849664Y-146904906D03*
X201417041Y-148236384D03*
X196281336Y-146567694D03*
X196713959Y-145236216D03*
%TD*%
D20*
%TO.C,LED27*%
X220971496Y-157624608D03*
X220148596Y-158757232D03*
X215779904Y-155583192D03*
X216602804Y-154450568D03*
%TD*%
D17*
%TO.C,LED21*%
X185713100Y-127006300D03*
X185713100Y-125606300D03*
X191113100Y-125606300D03*
X191113100Y-127006300D03*
%TD*%
D21*
%TO.C,LED5*%
X119747003Y-141771645D03*
X119941845Y-143158020D03*
X114594397Y-143909555D03*
X114399555Y-142523180D03*
%TD*%
D17*
%TO.C,LED17*%
X167713100Y-125006300D03*
X167713100Y-123606300D03*
X173113100Y-123606300D03*
X173113100Y-125006300D03*
%TD*%
%TO.C,LED9*%
X131713100Y-125006300D03*
X131713100Y-123606300D03*
X137113100Y-123606300D03*
X137113100Y-125006300D03*
%TD*%
%TO.C,LED19*%
X167713100Y-91006300D03*
X167713100Y-89606300D03*
X173113100Y-89606300D03*
X173113100Y-91006300D03*
%TD*%
%TO.C,LED18*%
X173113100Y-106606300D03*
X173113100Y-108006300D03*
X167713100Y-108006300D03*
X167713100Y-106606300D03*
%TD*%
%TO.C,LED25*%
X180313100Y-142606300D03*
X180313100Y-144006300D03*
X174913100Y-144006300D03*
X174913100Y-142606300D03*
%TD*%
%TO.C,LED12*%
X137113100Y-72606300D03*
X137113100Y-74006300D03*
X131713100Y-74006300D03*
X131713100Y-72606300D03*
%TD*%
%TO.C,LED16*%
X155113100Y-70606300D03*
X155113100Y-72006300D03*
X149713100Y-72006300D03*
X149713100Y-70606300D03*
%TD*%
%TO.C,LED11*%
X131713100Y-91006300D03*
X131713100Y-89606300D03*
X137113100Y-89606300D03*
X137113100Y-91006300D03*
%TD*%
D21*
%TO.C,LED7*%
X115015103Y-108102545D03*
X115209945Y-109488920D03*
X109862497Y-110240455D03*
X109667655Y-108854080D03*
%TD*%
%TO.C,LED3*%
X97190303Y-110607645D03*
X97385145Y-111994020D03*
X92037697Y-112745555D03*
X91842855Y-111359180D03*
%TD*%
D17*
%TO.C,LED22*%
X191113100Y-108606300D03*
X191113100Y-110006300D03*
X185713100Y-110006300D03*
X185713100Y-108606300D03*
%TD*%
D21*
%TO.C,LED1*%
X101922203Y-144276745D03*
X102117045Y-145663120D03*
X96769597Y-146414655D03*
X96574755Y-145028280D03*
%TD*%
D18*
%TO.C,LED4*%
X89671797Y-95911055D03*
X89476955Y-94524680D03*
X94824403Y-93773145D03*
X95019245Y-95159520D03*
%TD*%
%TO.C,LED2*%
X94403597Y-129580155D03*
X94208755Y-128193780D03*
X99556203Y-127442245D03*
X99751045Y-128828620D03*
%TD*%
D17*
%TO.C,LED20*%
X173113100Y-72606300D03*
X173113100Y-74006300D03*
X167713100Y-74006300D03*
X167713100Y-72606300D03*
%TD*%
M02*
