%TF.GenerationSoftware,KiCad,Pcbnew,8.0.7-8.0.7-0~ubuntu24.04.1*%
%TF.CreationDate,2025-01-01T23:44:26+01:00*%
%TF.ProjectId,speedy-o_north-face-finished-extended_VCC,73706565-6479-42d6-9f5f-6e6f7274682d,v1.0.0*%
%TF.SameCoordinates,Original*%
%TF.FileFunction,Profile,NP*%
%FSLAX46Y46*%
G04 Gerber Fmt 4.6, Leading zero omitted, Abs format (unit mm)*
G04 Created by KiCad (PCBNEW 8.0.7-8.0.7-0~ubuntu24.04.1) date 2025-01-01 23:44:26*
%MOMM*%
%LPD*%
G01*
G04 APERTURE LIST*
%TA.AperFunction,Profile*%
%ADD10C,0.150000*%
%TD*%
%TA.AperFunction,Profile*%
%ADD11C,0.120000*%
%TD*%
G04 APERTURE END LIST*
D10*
X222413149Y-73206306D02*
G75*
G02*
X224413194Y-75206306I-49J-2000094D01*
G01*
X196208986Y-69806306D02*
G75*
G02*
X197976570Y-70870527I14J-1999994D01*
G01*
X219530693Y-173388326D02*
G75*
G02*
X216737130Y-173830734I-1617993J1175626D01*
G01*
X126123488Y-67806306D02*
X141056984Y-67806306D01*
X100826970Y-87791912D02*
X124861948Y-68254367D01*
X130367889Y-155748982D02*
G75*
G02*
X129395326Y-156169009I-1251089J1560882D01*
G01*
X181213149Y-69806306D02*
X196208986Y-69806306D01*
X142089472Y-67519189D02*
G75*
G02*
X141056984Y-67806282I-1032472J1712989D01*
G01*
X100826970Y-87791912D02*
G75*
G02*
X99843774Y-88220495I-1261370J1551612D01*
G01*
X184644435Y-158206306D02*
G75*
G02*
X184979479Y-158234564I-35J-2000794D01*
G01*
X216737089Y-173830790D02*
X203912771Y-164513377D01*
X203661323Y-164357715D02*
X201456480Y-163208958D01*
X203661323Y-164357715D02*
G75*
G02*
X203912770Y-164513378I-924123J-1773685D01*
G01*
X133864894Y-152945786D02*
X130367889Y-155748982D01*
X142089472Y-67519189D02*
X144725916Y-65929999D01*
X178522424Y-67806306D02*
G75*
G02*
X180009023Y-68468368I-24J-2000094D01*
G01*
X201150391Y-163080541D02*
G75*
G02*
X201456477Y-163208965I-617891J-1901659D01*
G01*
X225092324Y-153751120D02*
G75*
G02*
X224433874Y-152277471I1341476J1483320D01*
G01*
X224413172Y-148011151D02*
G75*
G02*
X224413149Y-148001450I2138428J9951D01*
G01*
X200417312Y-73206306D02*
G75*
G02*
X198649724Y-72142088I-12J2000006D01*
G01*
X81066057Y-92879200D02*
G75*
G02*
X82768242Y-90620279I1980643J278300D01*
G01*
X163731401Y-67806306D02*
G75*
G02*
X162760115Y-67554622I-1J2000006D01*
G01*
X159107511Y-65800337D02*
G75*
G02*
X160055187Y-66051883I-23611J-1999863D01*
G01*
X90446324Y-159623268D02*
X81066057Y-92879200D01*
X144725916Y-65929999D02*
G75*
G02*
X145782013Y-65643040I1032484J-1713001D01*
G01*
X163731401Y-67806306D02*
X178522424Y-67806306D01*
X166221507Y-157581795D02*
X162004791Y-153130817D01*
X197976562Y-70870531D02*
X198649736Y-72142082D01*
X187469530Y-158657685D02*
X184979478Y-158234569D01*
X187469530Y-158657685D02*
G75*
G02*
X187752520Y-158727315I-334930J-1971115D01*
G01*
X133864894Y-152945786D02*
G75*
G02*
X135115805Y-152506308I1250906J-1560514D01*
G01*
X180009012Y-68468377D02*
X181213149Y-69806306D01*
X124861948Y-68254367D02*
G75*
G02*
X126123488Y-67806275I1261552J-1551833D01*
G01*
X160552885Y-152506306D02*
X135115805Y-152506306D01*
X201150391Y-163080541D02*
X187752522Y-158727309D01*
X82768247Y-90620317D02*
X99843776Y-88220508D01*
X160055187Y-66051883D02*
X162760115Y-67554621D01*
X160552885Y-152506306D02*
G75*
G02*
X162004775Y-153130832I15J-1999894D01*
G01*
X92705207Y-161325458D02*
G75*
G02*
X90446350Y-159623264I-278307J1980558D01*
G01*
X92705207Y-161325458D02*
X129395324Y-156168998D01*
X225092324Y-153751120D02*
X229013272Y-157297167D01*
X184644435Y-158206306D02*
X167673413Y-158206306D01*
X167673413Y-158206306D02*
G75*
G02*
X166221522Y-157581781I-13J1999906D01*
G01*
X224413172Y-148011151D02*
X224433867Y-152277471D01*
X200417312Y-73206306D02*
X222413149Y-73206306D01*
X145782013Y-65643022D02*
X159107511Y-65800337D01*
X229289787Y-159956087D02*
X219530693Y-173388326D01*
X229013272Y-157297167D02*
G75*
G02*
X229289774Y-159956078I-1341472J-1483333D01*
G01*
X224413149Y-75206306D02*
X224413149Y-148001450D01*
%TO.C,LED24*%
D11*
X186613100Y-73756300D02*
X190213100Y-73756300D01*
X190213100Y-76856300D01*
X186613100Y-76856300D01*
X186613100Y-73756300D01*
%TO.C,LED14*%
X150613100Y-103756300D02*
X154213100Y-103756300D01*
X154213100Y-106856300D01*
X150613100Y-106856300D01*
X150613100Y-103756300D01*
%TO.C,LED8*%
X112071101Y-93621404D02*
X108506136Y-94122427D01*
X108074699Y-91052596D01*
X111639664Y-90551573D01*
X112071101Y-93621404D01*
%TO.C,LED23*%
X190213100Y-93856300D02*
X186613100Y-93856300D01*
X186613100Y-90756300D01*
X190213100Y-90756300D01*
X190213100Y-93856300D01*
%TO.C,LED6*%
X116803001Y-127290504D02*
X113238036Y-127791527D01*
X112806599Y-124721696D01*
X116371564Y-124220673D01*
X116803001Y-127290504D01*
%TO.C,LED10*%
X132613100Y-105756300D02*
X136213100Y-105756300D01*
X136213100Y-108856300D01*
X132613100Y-108856300D01*
X132613100Y-105756300D01*
%TO.C,LED15*%
X154213100Y-89856300D02*
X150613100Y-89856300D01*
X150613100Y-86756300D01*
X154213100Y-86756300D01*
X154213100Y-89856300D01*
%TO.C,LED13*%
X154213100Y-123856300D02*
X150613100Y-123856300D01*
X150613100Y-120756300D01*
X154213100Y-120756300D01*
X154213100Y-123856300D01*
%TO.C,LED26*%
X201256378Y-145818393D02*
X200298425Y-148766668D01*
X196874622Y-147654207D01*
X197832575Y-144705932D01*
X201256378Y-145818393D01*
%TO.C,LED27*%
X220742998Y-156407937D02*
X218920863Y-158915890D01*
X216008402Y-156799863D01*
X217830537Y-154291910D01*
X220742998Y-156407937D01*
%TO.C,LED21*%
X190213100Y-127856300D02*
X186613100Y-127856300D01*
X186613100Y-124756300D01*
X190213100Y-124756300D01*
X190213100Y-127856300D01*
%TO.C,LED5*%
X119168901Y-144125004D02*
X115603936Y-144626027D01*
X115172499Y-141556196D01*
X118737464Y-141055173D01*
X119168901Y-144125004D01*
%TO.C,LED17*%
X172213100Y-125856300D02*
X168613100Y-125856300D01*
X168613100Y-122756300D01*
X172213100Y-122756300D01*
X172213100Y-125856300D01*
%TO.C,LED9*%
X136213100Y-125856300D02*
X132613100Y-125856300D01*
X132613100Y-122756300D01*
X136213100Y-122756300D01*
X136213100Y-125856300D01*
%TO.C,LED19*%
X172213100Y-91856300D02*
X168613100Y-91856300D01*
X168613100Y-88756300D01*
X172213100Y-88756300D01*
X172213100Y-91856300D01*
%TO.C,LED18*%
X168613100Y-105756300D02*
X172213100Y-105756300D01*
X172213100Y-108856300D01*
X168613100Y-108856300D01*
X168613100Y-105756300D01*
%TO.C,LED25*%
X175813100Y-141756300D02*
X179413100Y-141756300D01*
X179413100Y-144856300D01*
X175813100Y-144856300D01*
X175813100Y-141756300D01*
%TO.C,LED12*%
X132613100Y-71756300D02*
X136213100Y-71756300D01*
X136213100Y-74856300D01*
X132613100Y-74856300D01*
X132613100Y-71756300D01*
%TO.C,LED16*%
X150613100Y-69756300D02*
X154213100Y-69756300D01*
X154213100Y-72856300D01*
X150613100Y-72856300D01*
X150613100Y-69756300D01*
%TO.C,LED11*%
X136213100Y-91856300D02*
X132613100Y-91856300D01*
X132613100Y-88756300D01*
X136213100Y-88756300D01*
X136213100Y-91856300D01*
%TO.C,LED7*%
X114437001Y-110455904D02*
X110872036Y-110956927D01*
X110440599Y-107887096D01*
X114005564Y-107386073D01*
X114437001Y-110455904D01*
%TO.C,LED3*%
X96612201Y-112961004D02*
X93047236Y-113462027D01*
X92615799Y-110392196D01*
X96180764Y-109891173D01*
X96612201Y-112961004D01*
%TO.C,LED22*%
X186613100Y-107756300D02*
X190213100Y-107756300D01*
X190213100Y-110856300D01*
X186613100Y-110856300D01*
X186613100Y-107756300D01*
%TO.C,LED1*%
X101344101Y-146630104D02*
X97779136Y-147131127D01*
X97347699Y-144061296D01*
X100912664Y-143560273D01*
X101344101Y-146630104D01*
%TO.C,LED4*%
X94246301Y-96126504D02*
X90681336Y-96627527D01*
X90249899Y-93557696D01*
X93814864Y-93056673D01*
X94246301Y-96126504D01*
%TO.C,LED2*%
X98978101Y-129795604D02*
X95413136Y-130296627D01*
X94981699Y-127226796D01*
X98546664Y-126725773D01*
X98978101Y-129795604D01*
%TO.C,LED20*%
X168613100Y-71756300D02*
X172213100Y-71756300D01*
X172213100Y-74856300D01*
X168613100Y-74856300D01*
X168613100Y-71756300D01*
%TD*%
M02*
