%TF.GenerationSoftware,KiCad,Pcbnew,8.0.7-8.0.7-0~ubuntu24.04.1*%
%TF.CreationDate,2025-01-01T23:44:26+01:00*%
%TF.ProjectId,speedy-o_north-face-finished-extended_VCC,73706565-6479-42d6-9f5f-6e6f7274682d,v1.0.0*%
%TF.SameCoordinates,Original*%
%TF.FileFunction,Soldermask,Top*%
%TF.FilePolarity,Negative*%
%FSLAX46Y46*%
G04 Gerber Fmt 4.6, Leading zero omitted, Abs format (unit mm)*
G04 Created by KiCad (PCBNEW 8.0.7-8.0.7-0~ubuntu24.04.1) date 2025-01-01 23:44:26*
%MOMM*%
%LPD*%
G01*
G04 APERTURE LIST*
G04 Aperture macros list*
%AMRoundRect*
0 Rectangle with rounded corners*
0 $1 Rounding radius*
0 $2 $3 $4 $5 $6 $7 $8 $9 X,Y pos of 4 corners*
0 Add a 4 corners polygon primitive as box body*
4,1,4,$2,$3,$4,$5,$6,$7,$8,$9,$2,$3,0*
0 Add four circle primitives for the rounded corners*
1,1,$1+$1,$2,$3*
1,1,$1+$1,$4,$5*
1,1,$1+$1,$6,$7*
1,1,$1+$1,$8,$9*
0 Add four rect primitives between the rounded corners*
20,1,$1+$1,$2,$3,$4,$5,0*
20,1,$1+$1,$4,$5,$6,$7,0*
20,1,$1+$1,$6,$7,$8,$9,0*
20,1,$1+$1,$8,$9,$2,$3,0*%
%AMFreePoly0*
4,1,16,-0.214645,0.660355,-0.210957,0.656235,0.289043,0.031235,0.299694,-0.005522,0.289043,-0.031235,-0.210957,-0.656235,-0.244478,-0.674694,-0.250000,-0.675000,-0.500000,-0.675000,-0.535355,-0.660355,-0.550000,-0.625000,-0.550000,0.625000,-0.535355,0.660355,-0.500000,0.675000,-0.250000,0.675000,-0.214645,0.660355,-0.214645,0.660355,$1*%
%AMFreePoly1*
4,1,16,0.535355,0.660355,0.550000,0.625000,0.550000,-0.625000,0.535355,-0.660355,0.500000,-0.675000,-0.650000,-0.675000,-0.685355,-0.660355,-0.700000,-0.625000,-0.689043,-0.593765,-0.214031,0.000000,-0.689043,0.593765,-0.699694,0.630522,-0.681235,0.664043,-0.650000,0.675000,0.500000,0.675000,0.535355,0.660355,0.535355,0.660355,$1*%
G04 Aperture macros list end*
%ADD10C,0.000000*%
%ADD11RoundRect,0.050000X-0.550000X0.900000X-0.550000X-0.900000X0.550000X-0.900000X0.550000X0.900000X0*%
%ADD12RoundRect,0.050000X-0.600000X0.600000X-0.600000X-0.600000X0.600000X-0.600000X0.600000X0.600000X0*%
%ADD13RoundRect,0.050000X-0.677665X0.510657X-0.510657X-0.677665X0.677665X-0.510657X0.510657X0.677665X0*%
%ADD14C,1.801800*%
%ADD15C,3.100000*%
%ADD16C,3.529000*%
%ADD17RoundRect,0.050000X1.300000X1.300000X-1.300000X1.300000X-1.300000X-1.300000X1.300000X-1.300000X0*%
%ADD18C,1.300000*%
%ADD19O,2.300000X1.700000*%
%ADD20C,3.900000*%
%ADD21RoundRect,0.050000X1.815843X0.287601X-0.287601X1.815843X-1.815843X-0.287601X0.287601X-1.815843X0*%
%ADD22RoundRect,0.050000X-0.385224X0.756044X-0.756044X-0.385224X0.385224X-0.756044X0.756044X0.385224X0*%
%ADD23RoundRect,0.050000X-0.600000X-0.850000X0.600000X-0.850000X0.600000X0.850000X-0.600000X0.850000X0*%
%ADD24O,1.300000X1.800000*%
%ADD25RoundRect,0.050000X1.106423X1.468274X-1.468274X1.106423X-1.106423X-1.468274X1.468274X-1.106423X0*%
%ADD26O,1.800000X1.800000*%
%ADD27FreePoly0,0.000000*%
%ADD28C,0.900000*%
%ADD29FreePoly1,180.000000*%
%ADD30FreePoly1,0.000000*%
%ADD31FreePoly0,180.000000*%
%ADD32RoundRect,0.050000X1.638096X0.834651X-0.834651X1.638096X-1.638096X-0.834651X0.834651X-1.638096X0*%
%ADD33RoundRect,0.050000X-0.132739X0.838081X-0.838081X-0.132739X0.132739X-0.838081X0.838081X0.132739X0*%
%ADD34RoundRect,0.050000X0.400000X-0.500000X0.400000X0.500000X-0.400000X0.500000X-0.400000X-0.500000X0*%
%ADD35C,1.000000*%
%ADD36RoundRect,0.050000X0.750000X-0.350000X0.750000X0.350000X-0.750000X0.350000X-0.750000X-0.350000X0*%
%ADD37RoundRect,0.050000X-0.700000X-0.500000X0.700000X-0.500000X0.700000X0.500000X-0.700000X0.500000X0*%
%ADD38RoundRect,0.050000X0.623601X0.592555X-0.762774X0.397713X-0.623601X-0.592555X0.762774X-0.397713X0*%
%ADD39RoundRect,0.050000X0.700000X0.500000X-0.700000X0.500000X-0.700000X-0.500000X0.700000X-0.500000X0*%
%ADD40RoundRect,0.050000X-0.820248X-0.259216X0.511231X-0.691840X0.820248X0.259216X-0.511231X0.691840X0*%
%ADD41RoundRect,0.050000X-0.860205X0.006941X0.272419X-0.815958X0.860205X-0.006941X-0.272419X0.815958X0*%
%ADD42RoundRect,0.050000X-0.623601X-0.592555X0.762774X-0.397713X0.623601X0.592555X-0.762774X0.397713X0*%
G04 APERTURE END LIST*
D10*
%TO.C,G\u002A\u002A\u002A*%
G36*
X202439229Y-132411447D02*
G01*
X202431900Y-132418776D01*
X202424572Y-132411447D01*
X202431900Y-132404119D01*
X202439229Y-132411447D01*
G37*
G36*
X205927515Y-126153051D02*
G01*
X205920187Y-126160380D01*
X205912858Y-126153051D01*
X205920187Y-126145723D01*
X205927515Y-126153051D01*
G37*
G36*
X207012108Y-134184904D02*
G01*
X207004780Y-134192232D01*
X206997452Y-134184904D01*
X207004780Y-134177575D01*
X207012108Y-134184904D01*
G37*
G36*
X209093355Y-133085654D02*
G01*
X209086026Y-133092982D01*
X209078698Y-133085654D01*
X209086026Y-133078325D01*
X209093355Y-133085654D01*
G37*
G36*
X209459771Y-125302965D02*
G01*
X209452443Y-125310293D01*
X209445115Y-125302965D01*
X209452443Y-125295636D01*
X209459771Y-125302965D01*
G37*
G36*
X209562368Y-125229681D02*
G01*
X209555040Y-125237010D01*
X209547711Y-125229681D01*
X209555040Y-125222353D01*
X209562368Y-125229681D01*
G37*
G36*
X209635651Y-125185711D02*
G01*
X209628323Y-125193040D01*
X209620995Y-125185711D01*
X209628323Y-125178383D01*
X209635651Y-125185711D01*
G37*
G36*
X209664965Y-125200368D02*
G01*
X209657636Y-125207696D01*
X209650308Y-125200368D01*
X209657636Y-125193040D01*
X209664965Y-125200368D01*
G37*
G36*
X209694278Y-125185711D02*
G01*
X209686950Y-125193040D01*
X209679621Y-125185711D01*
X209686950Y-125178383D01*
X209694278Y-125185711D01*
G37*
G36*
X209738248Y-125112428D02*
G01*
X209730920Y-125119756D01*
X209723591Y-125112428D01*
X209730920Y-125105100D01*
X209738248Y-125112428D01*
G37*
G36*
X205439201Y-125029068D02*
G01*
X205440948Y-125051975D01*
X205438043Y-125057160D01*
X205431382Y-125052789D01*
X205430346Y-125037923D01*
X205433925Y-125022284D01*
X205439201Y-125029068D01*
G37*
G36*
X206318359Y-133317718D02*
G01*
X206316347Y-133326431D01*
X206308588Y-133327489D01*
X206296524Y-133322126D01*
X206298817Y-133317718D01*
X206316211Y-133315964D01*
X206318359Y-133317718D01*
G37*
G36*
X207065849Y-133889328D02*
G01*
X207067603Y-133906722D01*
X207065849Y-133908870D01*
X207057136Y-133906858D01*
X207056078Y-133899099D01*
X207061441Y-133887035D01*
X207065849Y-133889328D01*
G37*
G36*
X207710743Y-132218468D02*
G01*
X207712497Y-132235862D01*
X207710743Y-132238010D01*
X207702029Y-132235998D01*
X207700971Y-132228239D01*
X207706334Y-132216175D01*
X207710743Y-132218468D01*
G37*
G36*
X203671910Y-133117954D02*
G01*
X203679125Y-133136321D01*
X203672678Y-133142865D01*
X203652825Y-133141569D01*
X203647949Y-133136216D01*
X203644530Y-133115409D01*
X203658708Y-133109805D01*
X203671910Y-133117954D01*
G37*
G36*
X202218250Y-131708597D02*
G01*
X202219379Y-131713526D01*
X202208683Y-131734245D01*
X202204722Y-131737241D01*
X202191195Y-131736571D01*
X202190065Y-131731642D01*
X202200761Y-131710922D01*
X202204722Y-131707927D01*
X202218250Y-131708597D01*
G37*
G36*
X202365526Y-131901655D02*
G01*
X202365945Y-131904927D01*
X202355292Y-131924777D01*
X202351289Y-131927777D01*
X202338741Y-131924455D01*
X202336632Y-131913986D01*
X202344284Y-131893932D01*
X202351289Y-131891136D01*
X202365526Y-131901655D01*
G37*
G36*
X203459755Y-132559850D02*
G01*
X203465195Y-132572670D01*
X203454308Y-132591126D01*
X203431159Y-132593551D01*
X203416340Y-132584884D01*
X203406950Y-132563968D01*
X203423485Y-132551827D01*
X203435882Y-132550686D01*
X203459755Y-132559850D01*
G37*
G36*
X204002519Y-132734351D02*
G01*
X204004847Y-132758395D01*
X203992164Y-132789058D01*
X203970129Y-132794735D01*
X203953125Y-132783589D01*
X203942349Y-132757582D01*
X203954585Y-132734967D01*
X203980766Y-132726565D01*
X204002519Y-132734351D01*
G37*
G36*
X204446772Y-132810368D02*
G01*
X204447192Y-132813640D01*
X204436538Y-132833491D01*
X204432535Y-132836490D01*
X204419988Y-132833168D01*
X204417879Y-132822699D01*
X204425531Y-132802645D01*
X204432535Y-132799849D01*
X204446772Y-132810368D01*
G37*
G36*
X205941777Y-126186216D02*
G01*
X205942172Y-126189693D01*
X205930242Y-126202556D01*
X205919322Y-126204350D01*
X205904151Y-126197244D01*
X205905530Y-126189693D01*
X205924268Y-126175595D01*
X205928380Y-126175036D01*
X205941777Y-126186216D01*
G37*
G36*
X206268947Y-133059666D02*
G01*
X206271947Y-133063669D01*
X206268624Y-133076216D01*
X206258155Y-133078325D01*
X206238102Y-133070673D01*
X206235305Y-133063669D01*
X206245824Y-133049432D01*
X206249097Y-133049012D01*
X206268947Y-133059666D01*
G37*
G36*
X206518110Y-134583959D02*
G01*
X206521110Y-134587962D01*
X206517787Y-134600509D01*
X206507318Y-134602619D01*
X206487265Y-134594966D01*
X206484468Y-134587962D01*
X206494988Y-134573725D01*
X206498260Y-134573305D01*
X206518110Y-134583959D01*
G37*
G36*
X208125589Y-132151452D02*
G01*
X208126015Y-132154956D01*
X208114861Y-132169186D01*
X208111358Y-132169612D01*
X208097127Y-132158459D01*
X208096701Y-132154956D01*
X208107855Y-132140725D01*
X208111358Y-132140299D01*
X208125589Y-132151452D01*
G37*
G36*
X208284764Y-132968527D02*
G01*
X208287238Y-132974864D01*
X208277540Y-132994003D01*
X208258743Y-132998586D01*
X208252641Y-132994873D01*
X208243725Y-132973597D01*
X208259412Y-132961498D01*
X208265253Y-132961072D01*
X208284764Y-132968527D01*
G37*
G36*
X209198354Y-128070085D02*
G01*
X209203280Y-128080403D01*
X209186398Y-128093900D01*
X209160349Y-128085544D01*
X209151981Y-128080403D01*
X209142237Y-128070299D01*
X209157764Y-128066317D01*
X209171167Y-128065971D01*
X209198354Y-128070085D01*
G37*
G36*
X209470125Y-128547500D02*
G01*
X209474428Y-128571401D01*
X209472811Y-128601014D01*
X209464583Y-128605016D01*
X209448046Y-128590455D01*
X209432091Y-128563739D01*
X209435404Y-128541950D01*
X209452443Y-128534759D01*
X209470125Y-128547500D01*
G37*
G36*
X209706845Y-125145194D02*
G01*
X209685175Y-125159284D01*
X209683134Y-125160258D01*
X209657188Y-125171636D01*
X209654344Y-125168904D01*
X209667517Y-125154892D01*
X209692335Y-125138157D01*
X209707016Y-125136376D01*
X209706845Y-125145194D01*
G37*
G36*
X203009503Y-133175856D02*
G01*
X203010839Y-133176995D01*
X203035212Y-133203502D01*
X203038110Y-133220732D01*
X203026011Y-133224892D01*
X203008580Y-133213477D01*
X202996698Y-133196542D01*
X202983144Y-133166788D01*
X202987250Y-133160117D01*
X203009503Y-133175856D01*
G37*
G36*
X203026702Y-133938220D02*
G01*
X203034525Y-133945817D01*
X203051090Y-133971026D01*
X203052663Y-133986149D01*
X203042191Y-133994427D01*
X203028976Y-133984657D01*
X203012928Y-133956725D01*
X203010839Y-133944325D01*
X203013698Y-133930399D01*
X203026702Y-133938220D01*
G37*
G36*
X203123515Y-132563886D02*
G01*
X203128092Y-132594655D01*
X203120635Y-132627648D01*
X203103554Y-132639063D01*
X203084787Y-132626613D01*
X203076835Y-132609443D01*
X203074502Y-132573007D01*
X203092911Y-132552958D01*
X203106972Y-132550686D01*
X203123515Y-132563886D01*
G37*
G36*
X203251351Y-132442281D02*
G01*
X203272871Y-132459891D01*
X203270395Y-132479634D01*
X203246605Y-132491497D01*
X203238017Y-132492059D01*
X203208954Y-132484700D01*
X203201375Y-132470939D01*
X203212063Y-132444388D01*
X203239949Y-132438999D01*
X203251351Y-132442281D01*
G37*
G36*
X208994342Y-129648726D02*
G01*
X209007407Y-129667631D01*
X209007646Y-129670284D01*
X208998449Y-129687363D01*
X208977591Y-129684490D01*
X208961556Y-129670785D01*
X208950403Y-129648016D01*
X208952731Y-129637838D01*
X208971416Y-129636017D01*
X208994342Y-129648726D01*
G37*
G36*
X209205507Y-130978089D02*
G01*
X209207850Y-130986255D01*
X209203437Y-131006022D01*
X209176413Y-131011736D01*
X209150313Y-131007199D01*
X209146270Y-130989057D01*
X209147920Y-130981713D01*
X209164136Y-130959637D01*
X209187401Y-130958737D01*
X209205507Y-130978089D01*
G37*
G36*
X209409398Y-130596317D02*
G01*
X209412930Y-130628745D01*
X209399100Y-130661842D01*
X209370459Y-130670684D01*
X209338854Y-130658999D01*
X209315907Y-130633832D01*
X209319685Y-130607074D01*
X209346182Y-130588146D01*
X209386946Y-130581105D01*
X209409398Y-130596317D01*
G37*
G36*
X209874285Y-129470647D02*
G01*
X209883619Y-129500254D01*
X209882390Y-129524087D01*
X209874616Y-129539445D01*
X209859165Y-129529340D01*
X209844724Y-129504120D01*
X209841602Y-129476751D01*
X209850352Y-129459506D01*
X209855961Y-129458129D01*
X209874285Y-129470647D01*
G37*
G36*
X210146667Y-130830694D02*
G01*
X210153954Y-130857087D01*
X210149585Y-130892764D01*
X210141221Y-130916329D01*
X210130112Y-130914013D01*
X210121520Y-130904460D01*
X210107991Y-130873312D01*
X210111356Y-130842444D01*
X210128508Y-130825458D01*
X210146667Y-130830694D01*
G37*
G36*
X202637029Y-132089172D02*
G01*
X202656303Y-132101928D01*
X202672174Y-132127230D01*
X202664588Y-132151566D01*
X202636288Y-132177470D01*
X202604917Y-132177503D01*
X202586472Y-132163099D01*
X202574255Y-132132073D01*
X202583656Y-132104989D01*
X202607105Y-132088477D01*
X202637029Y-132089172D01*
G37*
G36*
X202782233Y-132198608D02*
G01*
X202790989Y-132206254D01*
X202814676Y-132233470D01*
X202819353Y-132252358D01*
X202808577Y-132257552D01*
X202789115Y-132248378D01*
X202779263Y-132239964D01*
X202763571Y-132212549D01*
X202761675Y-132201051D01*
X202765924Y-132189355D01*
X202782233Y-132198608D01*
G37*
G36*
X204142001Y-132978787D02*
G01*
X204151187Y-133006834D01*
X204146258Y-133039935D01*
X204127527Y-133055702D01*
X204103035Y-133049145D01*
X204095293Y-133041517D01*
X204082621Y-133010679D01*
X204089788Y-132982696D01*
X204113416Y-132968630D01*
X204117618Y-132968400D01*
X204142001Y-132978787D01*
G37*
G36*
X204757918Y-133824855D02*
G01*
X204769606Y-133852886D01*
X204769638Y-133854669D01*
X204764227Y-133879559D01*
X204745934Y-133880854D01*
X204717477Y-133863444D01*
X204698838Y-133843697D01*
X204705203Y-133826063D01*
X204706362Y-133824856D01*
X204733024Y-133813715D01*
X204757918Y-133824855D01*
G37*
G36*
X205024546Y-133024056D02*
G01*
X205043863Y-133051923D01*
X205040296Y-133081790D01*
X205017495Y-133103199D01*
X204995369Y-133107639D01*
X204964687Y-133099995D01*
X204951147Y-133086510D01*
X204945708Y-133045515D01*
X204960578Y-133018139D01*
X204989537Y-133009675D01*
X205024546Y-133024056D01*
G37*
G36*
X205133064Y-133502200D02*
G01*
X205149994Y-133520726D01*
X205150712Y-133525476D01*
X205142021Y-133549451D01*
X205114851Y-133551956D01*
X205095749Y-133546090D01*
X205067808Y-133527969D01*
X205065618Y-133507409D01*
X205077560Y-133495959D01*
X205104201Y-133492040D01*
X205133064Y-133502200D01*
G37*
G36*
X205217391Y-133019093D02*
G01*
X205236398Y-133035069D01*
X205238652Y-133043393D01*
X205227227Y-133058899D01*
X205202439Y-133063295D01*
X205178516Y-133055369D01*
X205172697Y-133049012D01*
X205169918Y-133025363D01*
X205171846Y-133021075D01*
X205190989Y-133012796D01*
X205217391Y-133019093D01*
G37*
G36*
X205434250Y-133032248D02*
G01*
X205453736Y-133061472D01*
X205456048Y-133087399D01*
X205442129Y-133113687D01*
X205418090Y-133113756D01*
X205393363Y-133093885D01*
X205376721Y-133062838D01*
X205379009Y-133035033D01*
X205398702Y-133020238D01*
X205404949Y-133019699D01*
X205434250Y-133032248D01*
G37*
G36*
X205806598Y-133680702D02*
G01*
X205833459Y-133703306D01*
X205837889Y-133736048D01*
X205821987Y-133764257D01*
X205791109Y-133780811D01*
X205760944Y-133768074D01*
X205746243Y-133750849D01*
X205731075Y-133713097D01*
X205740216Y-133685728D01*
X205769107Y-133674045D01*
X205806598Y-133680702D01*
G37*
G36*
X205868585Y-133547177D02*
G01*
X205895235Y-133570443D01*
X205894915Y-133591998D01*
X205869336Y-133604831D01*
X205854232Y-133605965D01*
X205821886Y-133601233D01*
X205810621Y-133583954D01*
X205810262Y-133577517D01*
X205819239Y-133546055D01*
X205844385Y-133538437D01*
X205868585Y-133547177D01*
G37*
G36*
X205885176Y-133147858D02*
G01*
X205906351Y-133173616D01*
X205907630Y-133202720D01*
X205887843Y-133222625D01*
X205858937Y-133219372D01*
X205842506Y-133207304D01*
X205826314Y-133178749D01*
X205828335Y-133151864D01*
X205847051Y-133137406D01*
X205852437Y-133136952D01*
X205885176Y-133147858D01*
G37*
G36*
X205946007Y-132914895D02*
G01*
X205967172Y-132945038D01*
X205968863Y-132971192D01*
X205952483Y-132996283D01*
X205924417Y-133000847D01*
X205901561Y-132987882D01*
X205885367Y-132958931D01*
X205884511Y-132928056D01*
X205897755Y-132906398D01*
X205911064Y-132902445D01*
X205946007Y-132914895D01*
G37*
G36*
X206171301Y-133234273D02*
G01*
X206185107Y-133260701D01*
X206188541Y-133293997D01*
X206184521Y-133311999D01*
X206161480Y-133326307D01*
X206132103Y-133323111D01*
X206112291Y-133304305D01*
X206102440Y-133259083D01*
X206113920Y-133232211D01*
X206139757Y-133224892D01*
X206171301Y-133234273D01*
G37*
G36*
X206373165Y-132973718D02*
G01*
X206393190Y-133003647D01*
X206396528Y-133022630D01*
X206385229Y-133042292D01*
X206359747Y-133049388D01*
X206332710Y-133043213D01*
X206317945Y-133027027D01*
X206315178Y-132995022D01*
X206327180Y-132969024D01*
X206343867Y-132961072D01*
X206373165Y-132973718D01*
G37*
G36*
X206534159Y-132900023D02*
G01*
X206548458Y-132929590D01*
X206547018Y-132947651D01*
X206537163Y-132970326D01*
X206518392Y-132971658D01*
X206502789Y-132966022D01*
X206488881Y-132948746D01*
X206484943Y-132921098D01*
X206490848Y-132896434D01*
X206503522Y-132887789D01*
X206534159Y-132900023D01*
G37*
G36*
X206593573Y-132733856D02*
G01*
X206606991Y-132761096D01*
X206605128Y-132793468D01*
X206595605Y-132822417D01*
X206578681Y-132826204D01*
X206551631Y-132809873D01*
X206532665Y-132782645D01*
X206534365Y-132752574D01*
X206554992Y-132731532D01*
X206563492Y-132728956D01*
X206593573Y-132733856D01*
G37*
G36*
X206595828Y-133192553D02*
G01*
X206601722Y-133226113D01*
X206592082Y-133259383D01*
X206568041Y-133270348D01*
X206536918Y-133256392D01*
X206531370Y-133251274D01*
X206514741Y-133220329D01*
X206525797Y-133192912D01*
X206539431Y-133183418D01*
X206574556Y-133175235D01*
X206595828Y-133192553D01*
G37*
G36*
X206677160Y-133031360D02*
G01*
X206698809Y-133062367D01*
X206698347Y-133100120D01*
X206679563Y-133129576D01*
X206649739Y-133138370D01*
X206618740Y-133126390D01*
X206599481Y-133101245D01*
X206589710Y-133058856D01*
X206602614Y-133030200D01*
X206636109Y-133019699D01*
X206677160Y-133031360D01*
G37*
G36*
X206964694Y-132591676D02*
G01*
X206978396Y-132617548D01*
X206974649Y-132639948D01*
X206956471Y-132650046D01*
X206928039Y-132652938D01*
X206903086Y-132648644D01*
X206894855Y-132639824D01*
X206904317Y-132602959D01*
X206927979Y-132581871D01*
X206938825Y-132579999D01*
X206964694Y-132591676D01*
G37*
G36*
X207148621Y-132661788D02*
G01*
X207169021Y-132686018D01*
X207167708Y-132717664D01*
X207149161Y-132747998D01*
X207120997Y-132755372D01*
X207093256Y-132738577D01*
X207085907Y-132727529D01*
X207071281Y-132686242D01*
X207078932Y-132660867D01*
X207103712Y-132653507D01*
X207148621Y-132661788D01*
G37*
G36*
X207311088Y-133047074D02*
G01*
X207331464Y-133077474D01*
X207334555Y-133095913D01*
X207327142Y-133118976D01*
X207306653Y-133117108D01*
X207284303Y-133099264D01*
X207265359Y-133070880D01*
X207263094Y-133046156D01*
X207278083Y-133034451D01*
X207280325Y-133034355D01*
X207311088Y-133047074D01*
G37*
G36*
X208286257Y-132089979D02*
G01*
X208298865Y-132115189D01*
X208294525Y-132140430D01*
X208276048Y-132165936D01*
X208248806Y-132164893D01*
X208231543Y-132152024D01*
X208213949Y-132121513D01*
X208218861Y-132095179D01*
X208243967Y-132081970D01*
X208249731Y-132081672D01*
X208286257Y-132089979D01*
G37*
G36*
X208477071Y-133598414D02*
G01*
X208502813Y-133616262D01*
X208502250Y-133641856D01*
X208475555Y-133670353D01*
X208474513Y-133671089D01*
X208435589Y-133691383D01*
X208412148Y-133687067D01*
X208404491Y-133659058D01*
X208415457Y-133619711D01*
X208443500Y-133597974D01*
X208477071Y-133598414D01*
G37*
G36*
X208483949Y-131970368D02*
G01*
X208499447Y-131992747D01*
X208502363Y-132029359D01*
X208481737Y-132048664D01*
X208453951Y-132052359D01*
X208427766Y-132048003D01*
X208420633Y-132028906D01*
X208421839Y-132012053D01*
X208434966Y-131980281D01*
X208458865Y-131965591D01*
X208483949Y-131970368D01*
G37*
G36*
X208608570Y-131814445D02*
G01*
X208623020Y-131841913D01*
X208614634Y-131873935D01*
X208590118Y-131898873D01*
X208563951Y-131895010D01*
X208545971Y-131878955D01*
X208529253Y-131845751D01*
X208537107Y-131817959D01*
X208566410Y-131803707D01*
X208575071Y-131803196D01*
X208608570Y-131814445D01*
G37*
G36*
X208912090Y-131561545D02*
G01*
X208928444Y-131588376D01*
X208929357Y-131602508D01*
X208914206Y-131631509D01*
X208886847Y-131638447D01*
X208862207Y-131624812D01*
X208846684Y-131595679D01*
X208846697Y-131564145D01*
X208858545Y-131546891D01*
X208885189Y-131544888D01*
X208912090Y-131561545D01*
G37*
G36*
X208996260Y-132250016D02*
G01*
X209015452Y-132276569D01*
X209009359Y-132300969D01*
X208981405Y-132315130D01*
X208968259Y-132316179D01*
X208940920Y-132311871D01*
X208933633Y-132292849D01*
X208934822Y-132277003D01*
X208945527Y-132242141D01*
X208966998Y-132234450D01*
X208996260Y-132250016D01*
G37*
G36*
X209136462Y-129301695D02*
G01*
X209151046Y-129326894D01*
X209151981Y-129335342D01*
X209142204Y-129352827D01*
X209119609Y-129352453D01*
X209094300Y-129334634D01*
X209092839Y-129332926D01*
X209082006Y-129308866D01*
X209090423Y-129293975D01*
X209112611Y-129288273D01*
X209136462Y-129301695D01*
G37*
G36*
X209153888Y-130626346D02*
G01*
X209166638Y-130637991D01*
X209176282Y-130655175D01*
X209160603Y-130659925D01*
X209156219Y-130659976D01*
X209127628Y-130655481D01*
X209117782Y-130650205D01*
X209108406Y-130628891D01*
X209122505Y-130616480D01*
X209128202Y-130616006D01*
X209153888Y-130626346D01*
G37*
G36*
X209161022Y-133082481D02*
G01*
X209154994Y-133093972D01*
X209131405Y-133112692D01*
X209130454Y-133113320D01*
X209104873Y-133126064D01*
X209093401Y-133123842D01*
X209093355Y-133123149D01*
X209104142Y-133106972D01*
X209127886Y-133090320D01*
X209151661Y-133080961D01*
X209161022Y-133082481D01*
G37*
G36*
X209304187Y-128581349D02*
G01*
X209311859Y-128596064D01*
X209310555Y-128624082D01*
X209300642Y-128664299D01*
X209280906Y-128677346D01*
X209256960Y-128668438D01*
X209241174Y-128644312D01*
X209244395Y-128613587D01*
X209263205Y-128588540D01*
X209281242Y-128581241D01*
X209304187Y-128581349D01*
G37*
G36*
X209327861Y-129128354D02*
G01*
X209339207Y-129148557D01*
X209342518Y-129173189D01*
X209337390Y-129200317D01*
X209327861Y-129208966D01*
X209317647Y-129196210D01*
X209313210Y-129165393D01*
X209313205Y-129164131D01*
X209317174Y-129134831D01*
X209327358Y-129128065D01*
X209327861Y-129128354D01*
G37*
G36*
X209335471Y-129785813D02*
G01*
X209326233Y-129816520D01*
X209311993Y-129847653D01*
X209297767Y-129866881D01*
X209293746Y-129868516D01*
X209287445Y-129856386D01*
X209290668Y-129828210D01*
X209304429Y-129790189D01*
X209320900Y-129768153D01*
X209334690Y-129767863D01*
X209335471Y-129785813D01*
G37*
G36*
X209402788Y-128272948D02*
G01*
X209413111Y-128303917D01*
X209412545Y-128333140D01*
X209396179Y-128343371D01*
X209379673Y-128344223D01*
X209348071Y-128336648D01*
X209333161Y-128322238D01*
X209330315Y-128286470D01*
X209348344Y-128263107D01*
X209375430Y-128258919D01*
X209402788Y-128272948D01*
G37*
G36*
X210051634Y-131508184D02*
G01*
X210057653Y-131537722D01*
X210051784Y-131570574D01*
X210034218Y-131611222D01*
X210012839Y-131623054D01*
X209990526Y-131609911D01*
X209973784Y-131575771D01*
X209984240Y-131538196D01*
X210002414Y-131517077D01*
X210032151Y-131500143D01*
X210051634Y-131508184D01*
G37*
G36*
X202464461Y-131973244D02*
G01*
X202489125Y-132003236D01*
X202495285Y-132042738D01*
X202482529Y-132075151D01*
X202459343Y-132094517D01*
X202437225Y-132087573D01*
X202427503Y-132078741D01*
X202412022Y-132045230D01*
X202414125Y-132002956D01*
X202424379Y-131979076D01*
X202441906Y-131965006D01*
X202464461Y-131973244D01*
G37*
G36*
X202993831Y-132296459D02*
G01*
X203010790Y-132323380D01*
X203018946Y-132366743D01*
X203009261Y-132394345D01*
X202987518Y-132402406D01*
X202959498Y-132387141D01*
X202943488Y-132367404D01*
X202928341Y-132337092D01*
X202932730Y-132315363D01*
X202937616Y-132308777D01*
X202966885Y-132288500D01*
X202993831Y-132296459D01*
G37*
G36*
X203240350Y-132796738D02*
G01*
X203267659Y-132824881D01*
X203274659Y-132850100D01*
X203262464Y-132866866D01*
X203232346Y-132872284D01*
X203194003Y-132864820D01*
X203190383Y-132863425D01*
X203176216Y-132844685D01*
X203172062Y-132820612D01*
X203179264Y-132792682D01*
X203202422Y-132785192D01*
X203240350Y-132796738D01*
G37*
G36*
X203438522Y-133147465D02*
G01*
X203458771Y-133175288D01*
X203454375Y-133214850D01*
X203453008Y-133217998D01*
X203433878Y-133247958D01*
X203412969Y-133249976D01*
X203386855Y-133227402D01*
X203365331Y-133191782D01*
X203363582Y-133160138D01*
X203380704Y-133140169D01*
X203397446Y-133136952D01*
X203438522Y-133147465D01*
G37*
G36*
X203539498Y-133394672D02*
G01*
X203550598Y-133423950D01*
X203539316Y-133449323D01*
X203512570Y-133466011D01*
X203477278Y-133469237D01*
X203446976Y-133458581D01*
X203430400Y-133445393D01*
X203432090Y-133428859D01*
X203444998Y-133407429D01*
X203476539Y-133377663D01*
X203511096Y-133374514D01*
X203539498Y-133394672D01*
G37*
G36*
X203895166Y-132988189D02*
G01*
X203916088Y-133023002D01*
X203919552Y-133051943D01*
X203912681Y-133083869D01*
X203891045Y-133091240D01*
X203857261Y-133077151D01*
X203838049Y-133054322D01*
X203830847Y-133022590D01*
X203835576Y-132992976D01*
X203852155Y-132976503D01*
X203857994Y-132975729D01*
X203895166Y-132988189D01*
G37*
G36*
X203970067Y-133523847D02*
G01*
X204005384Y-133545379D01*
X204018380Y-133582406D01*
X204014595Y-133606676D01*
X203994088Y-133635564D01*
X203958349Y-133639693D01*
X203937873Y-133633825D01*
X203912108Y-133614037D01*
X203904895Y-133577989D01*
X203911885Y-133537417D01*
X203934762Y-133520727D01*
X203970067Y-133523847D01*
G37*
G36*
X204239980Y-133734077D02*
G01*
X204269216Y-133760015D01*
X204283808Y-133793627D01*
X204283421Y-133806236D01*
X204267449Y-133831825D01*
X204236980Y-133834845D01*
X204200859Y-133817405D01*
X204176533Y-133788699D01*
X204172228Y-133757472D01*
X204187384Y-133733363D01*
X204206166Y-133726238D01*
X204239980Y-133734077D01*
G37*
G36*
X204274108Y-133412635D02*
G01*
X204295158Y-133443867D01*
X204294654Y-133481193D01*
X204283541Y-133507240D01*
X204262662Y-133515009D01*
X204224366Y-133508055D01*
X204197194Y-133489347D01*
X204187072Y-133459096D01*
X204193028Y-133427663D01*
X204214089Y-133405412D01*
X204234444Y-133400772D01*
X204274108Y-133412635D01*
G37*
G36*
X204424303Y-133581725D02*
G01*
X204441627Y-133615101D01*
X204441169Y-133657459D01*
X204419446Y-133684074D01*
X204382434Y-133689698D01*
X204362916Y-133684199D01*
X204347740Y-133664491D01*
X204346168Y-133631539D01*
X204357683Y-133597789D01*
X204367004Y-133585650D01*
X204397077Y-133570465D01*
X204424303Y-133581725D01*
G37*
G36*
X204513193Y-133210393D02*
G01*
X204526903Y-133218321D01*
X204555545Y-133246704D01*
X204558238Y-133273026D01*
X204535727Y-133291343D01*
X204517197Y-133295435D01*
X204486165Y-133293304D01*
X204470835Y-133271878D01*
X204467830Y-133261385D01*
X204465439Y-133221695D01*
X204481498Y-133204015D01*
X204513193Y-133210393D01*
G37*
G36*
X204563971Y-132987560D02*
G01*
X204577648Y-133008706D01*
X204584691Y-133049157D01*
X204568485Y-133071980D01*
X204533843Y-133078325D01*
X204500251Y-133071771D01*
X204484113Y-133047535D01*
X204482733Y-133042517D01*
X204480210Y-133001838D01*
X204499220Y-132980419D01*
X204529141Y-132975729D01*
X204563971Y-132987560D01*
G37*
G36*
X204767028Y-132926421D02*
G01*
X204794507Y-132948887D01*
X204808499Y-132978481D01*
X204804167Y-133002236D01*
X204775621Y-133026180D01*
X204740346Y-133030079D01*
X204712268Y-133013884D01*
X204698354Y-132980780D01*
X204702693Y-132946856D01*
X204722624Y-132923698D01*
X204733806Y-132920121D01*
X204767028Y-132926421D01*
G37*
G36*
X205228241Y-134127982D02*
G01*
X205249951Y-134151407D01*
X205250964Y-134172003D01*
X205234364Y-134192382D01*
X205201686Y-134204091D01*
X205164794Y-134205826D01*
X205135553Y-134196288D01*
X205126969Y-134185609D01*
X205128322Y-134154565D01*
X205150637Y-134129337D01*
X205185484Y-134119173D01*
X205228241Y-134127982D01*
G37*
G36*
X205475169Y-133337663D02*
G01*
X205494707Y-133362019D01*
X205499671Y-133391311D01*
X205488078Y-133416289D01*
X205464398Y-133427129D01*
X205431202Y-133421081D01*
X205415702Y-133409511D01*
X205404664Y-133379371D01*
X205411643Y-133348591D01*
X205432599Y-133329292D01*
X205443038Y-133327489D01*
X205475169Y-133337663D01*
G37*
G36*
X205544550Y-133710848D02*
G01*
X205558572Y-133737829D01*
X205556635Y-133767618D01*
X205538581Y-133790172D01*
X205516266Y-133796278D01*
X205499276Y-133788791D01*
X205481492Y-133777064D01*
X205461740Y-133749306D01*
X205465030Y-133720361D01*
X205487266Y-133700129D01*
X205514722Y-133696717D01*
X205544550Y-133710848D01*
G37*
G36*
X205587481Y-133937186D02*
G01*
X205622217Y-133959501D01*
X205630564Y-133989739D01*
X205612082Y-134021901D01*
X205579988Y-134042900D01*
X205545099Y-134038502D01*
X205528121Y-134029835D01*
X205504157Y-134004157D01*
X205502762Y-133974815D01*
X205519294Y-133949049D01*
X205549114Y-133934104D01*
X205587481Y-133937186D01*
G37*
G36*
X205703062Y-133018553D02*
G01*
X205720003Y-133042431D01*
X205715606Y-133073620D01*
X205707081Y-133086357D01*
X205684278Y-133105100D01*
X205660551Y-133100537D01*
X205634382Y-133078325D01*
X205609348Y-133046811D01*
X205609789Y-133025696D01*
X205628252Y-133013939D01*
X205670555Y-133007288D01*
X205703062Y-133018553D01*
G37*
G36*
X205756775Y-133991966D02*
G01*
X205771995Y-134013172D01*
X205774489Y-134021923D01*
X205776688Y-134064701D01*
X205759886Y-134086778D01*
X205728282Y-134085363D01*
X205701544Y-134070346D01*
X205680876Y-134042053D01*
X205684912Y-134013147D01*
X205710827Y-133993088D01*
X205725600Y-133989779D01*
X205756775Y-133991966D01*
G37*
G36*
X206234209Y-127339468D02*
G01*
X206251291Y-127356513D01*
X206265055Y-127377699D01*
X206272714Y-127399809D01*
X206259982Y-127406163D01*
X206257806Y-127406196D01*
X206237963Y-127399064D01*
X206235305Y-127392738D01*
X206230469Y-127368553D01*
X206225486Y-127353692D01*
X206223526Y-127337265D01*
X206234209Y-127339468D01*
G37*
G36*
X206766617Y-132642201D02*
G01*
X206783155Y-132658862D01*
X206790054Y-132686705D01*
X206786701Y-132713365D01*
X206772486Y-132726473D01*
X206770787Y-132726565D01*
X206745453Y-132714692D01*
X206738932Y-132704580D01*
X206735853Y-132674056D01*
X206746118Y-132649370D01*
X206764767Y-132641698D01*
X206766617Y-132642201D01*
G37*
G36*
X207118369Y-133344790D02*
G01*
X207144575Y-133357536D01*
X207151347Y-133385915D01*
X207141889Y-133415329D01*
X207120180Y-133429231D01*
X207096215Y-133421355D01*
X207095669Y-133420821D01*
X207087637Y-133399477D01*
X207085392Y-133375325D01*
X207090903Y-133349245D01*
X207112571Y-133344102D01*
X207118369Y-133344790D01*
G37*
G36*
X207351487Y-133439658D02*
G01*
X207370314Y-133462551D01*
X207368003Y-133490028D01*
X207363868Y-133496040D01*
X207342789Y-133515063D01*
X207321121Y-133512851D01*
X207298333Y-133498160D01*
X207280201Y-133472133D01*
X207284715Y-133446020D01*
X207308741Y-133430867D01*
X207317644Y-133430085D01*
X207351487Y-133439658D01*
G37*
G36*
X207444036Y-133136046D02*
G01*
X207457935Y-133150281D01*
X207478429Y-133186707D01*
X207477890Y-133219783D01*
X207460503Y-133242633D01*
X207430457Y-133248382D01*
X207404174Y-133238572D01*
X207381711Y-133211467D01*
X207383696Y-133176685D01*
X207405459Y-133146433D01*
X207427209Y-133130548D01*
X207444036Y-133136046D01*
G37*
G36*
X207671789Y-133085695D02*
G01*
X207693682Y-133103243D01*
X207701858Y-133130118D01*
X207695923Y-133154921D01*
X207675480Y-133166253D01*
X207674589Y-133166265D01*
X207642078Y-133156986D01*
X207630619Y-133148677D01*
X207613201Y-133117934D01*
X207620117Y-133093203D01*
X207646432Y-133082039D01*
X207671789Y-133085695D01*
G37*
G36*
X207713512Y-133602145D02*
G01*
X207734486Y-133627969D01*
X207737033Y-133658749D01*
X207729507Y-133672857D01*
X207698933Y-133692458D01*
X207665240Y-133683294D01*
X207652025Y-133672178D01*
X207636377Y-133641266D01*
X207642674Y-133611332D01*
X207667212Y-133593013D01*
X207680180Y-133591309D01*
X207713512Y-133602145D01*
G37*
G36*
X207720054Y-132508387D02*
G01*
X207729574Y-132542204D01*
X207716854Y-132567384D01*
X207688763Y-132578767D01*
X207652167Y-132571192D01*
X207643178Y-132566167D01*
X207630005Y-132551129D01*
X207634282Y-132526679D01*
X207639675Y-132514050D01*
X207663785Y-132485036D01*
X207692969Y-132483277D01*
X207720054Y-132508387D01*
G37*
G36*
X207749574Y-133766424D02*
G01*
X207776615Y-133788408D01*
X207786402Y-133819564D01*
X207785830Y-133823930D01*
X207769401Y-133845256D01*
X207739519Y-133852166D01*
X207709424Y-133842354D01*
X207704464Y-133838102D01*
X207687579Y-133807058D01*
X207693251Y-133778228D01*
X207715886Y-133762874D01*
X207749574Y-133766424D01*
G37*
G36*
X208105513Y-132463621D02*
G01*
X208111203Y-132469887D01*
X208122137Y-132498497D01*
X208114562Y-132524637D01*
X208092105Y-132536029D01*
X208067993Y-132525963D01*
X208044593Y-132505821D01*
X208027040Y-132482393D01*
X208030295Y-132468299D01*
X208038658Y-132462075D01*
X208075430Y-132449149D01*
X208105513Y-132463621D01*
G37*
G36*
X208269397Y-132548119D02*
G01*
X208279906Y-132587863D01*
X208279910Y-132588724D01*
X208271016Y-132624059D01*
X208246150Y-132635476D01*
X208210291Y-132622992D01*
X208190521Y-132598302D01*
X208185556Y-132564891D01*
X208195618Y-132535773D01*
X208208619Y-132525908D01*
X208243326Y-132525433D01*
X208269397Y-132548119D01*
G37*
G36*
X208379457Y-132845060D02*
G01*
X208389834Y-132878069D01*
X208389835Y-132878432D01*
X208380324Y-132911886D01*
X208351495Y-132923448D01*
X208327544Y-132920651D01*
X208306511Y-132904236D01*
X208303846Y-132875941D01*
X208320123Y-132847179D01*
X208323693Y-132843974D01*
X208354517Y-132832188D01*
X208379457Y-132845060D01*
G37*
G36*
X208384226Y-132180168D02*
G01*
X208406515Y-132203137D01*
X208416644Y-132237481D01*
X208416037Y-132250118D01*
X208400515Y-132275242D01*
X208371410Y-132284118D01*
X208340960Y-132274378D01*
X208332379Y-132266291D01*
X208321388Y-132233394D01*
X208331587Y-132198958D01*
X208357028Y-132177497D01*
X208384226Y-132180168D01*
G37*
G36*
X208629677Y-132042238D02*
G01*
X208648583Y-132062948D01*
X208653845Y-132096909D01*
X208645836Y-132131625D01*
X208626366Y-132153872D01*
X208592562Y-132159453D01*
X208573676Y-132149902D01*
X208554410Y-132121589D01*
X208555505Y-132087939D01*
X208572313Y-132057888D01*
X208600185Y-132040374D01*
X208629677Y-132042238D01*
G37*
G36*
X208665965Y-133470935D02*
G01*
X208677999Y-133497630D01*
X208672902Y-133527609D01*
X208659978Y-133542558D01*
X208623834Y-133559181D01*
X208590297Y-133559502D01*
X208573299Y-133547753D01*
X208573784Y-133524596D01*
X208590348Y-133495131D01*
X208615076Y-133469889D01*
X208639696Y-133459399D01*
X208665965Y-133470935D01*
G37*
G36*
X208781189Y-133307838D02*
G01*
X208798998Y-133332630D01*
X208792113Y-133366260D01*
X208790514Y-133368914D01*
X208767986Y-133392832D01*
X208743231Y-133390788D01*
X208713565Y-133365497D01*
X208690906Y-133331998D01*
X208695373Y-133309499D01*
X208726571Y-133298905D01*
X208742920Y-133298175D01*
X208781189Y-133307838D01*
G37*
G36*
X209093459Y-129512114D02*
G01*
X209120981Y-129532362D01*
X209143684Y-129558928D01*
X209151494Y-129579047D01*
X209140395Y-129588390D01*
X209113402Y-129587745D01*
X209081906Y-129577833D01*
X209075034Y-129574209D01*
X209053068Y-129550320D01*
X209052816Y-129523989D01*
X209071404Y-129507386D01*
X209093459Y-129512114D01*
G37*
G36*
X209262515Y-132891418D02*
G01*
X209267429Y-132924032D01*
X209260627Y-132953418D01*
X209246433Y-132972370D01*
X209229167Y-132973682D01*
X209219357Y-132963371D01*
X209219459Y-132941848D01*
X209231637Y-132909238D01*
X209232040Y-132908456D01*
X209247764Y-132882830D01*
X209257705Y-132881977D01*
X209262515Y-132891418D01*
G37*
G36*
X209280574Y-131303043D02*
G01*
X209292577Y-131327044D01*
X209292624Y-131370215D01*
X209271614Y-131397373D01*
X209235093Y-131403510D01*
X209214272Y-131397759D01*
X209199655Y-131378900D01*
X209195951Y-131357877D01*
X209205279Y-131320378D01*
X209227876Y-131297022D01*
X209255667Y-131290384D01*
X209280574Y-131303043D01*
G37*
G36*
X209312380Y-131611060D02*
G01*
X209336195Y-131644312D01*
X209342518Y-131677650D01*
X209331059Y-131695512D01*
X209303910Y-131701476D01*
X209271916Y-131696108D01*
X209245919Y-131679969D01*
X209240489Y-131672347D01*
X209231685Y-131634735D01*
X209246206Y-131607589D01*
X209277615Y-131598002D01*
X209312380Y-131611060D01*
G37*
G36*
X209350615Y-131082348D02*
G01*
X209354303Y-131112541D01*
X209340245Y-131142156D01*
X209313619Y-131157788D01*
X209285646Y-131153935D01*
X209279624Y-131149149D01*
X209269502Y-131123181D01*
X209272687Y-131090694D01*
X209287020Y-131067334D01*
X209291220Y-131065062D01*
X209327998Y-131062140D01*
X209350615Y-131082348D01*
G37*
G36*
X209368772Y-128913277D02*
G01*
X209378299Y-128933502D01*
X209379160Y-128952474D01*
X209373966Y-128985626D01*
X209354370Y-128999559D01*
X209346117Y-129001136D01*
X209315698Y-128996184D01*
X209304571Y-128983672D01*
X209299115Y-128943270D01*
X209315283Y-128916306D01*
X209342719Y-128908504D01*
X209368772Y-128913277D01*
G37*
G36*
X209389496Y-132737934D02*
G01*
X209396835Y-132766273D01*
X209387101Y-132798704D01*
X209363075Y-132822042D01*
X209332363Y-132828835D01*
X209307510Y-132816752D01*
X209305478Y-132813861D01*
X209305773Y-132790618D01*
X209321412Y-132760762D01*
X209344599Y-132735671D01*
X209365301Y-132726565D01*
X209389496Y-132737934D01*
G37*
G36*
X209404251Y-128444864D02*
G01*
X209419987Y-128475531D01*
X209421729Y-128513009D01*
X209420668Y-128517733D01*
X209406118Y-128544099D01*
X209380658Y-128545821D01*
X209345779Y-128526600D01*
X209317790Y-128495261D01*
X209315960Y-128464503D01*
X209337816Y-128441186D01*
X209379843Y-128432163D01*
X209404251Y-128444864D01*
G37*
G36*
X209436481Y-132591877D02*
G01*
X209458346Y-132618921D01*
X209470141Y-132648247D01*
X209469337Y-132660065D01*
X209452291Y-132680714D01*
X209430884Y-132674100D01*
X209416317Y-132654246D01*
X209403668Y-132619817D01*
X209402590Y-132591693D01*
X209413462Y-132579999D01*
X209413530Y-132579999D01*
X209436481Y-132591877D01*
G37*
G36*
X209448713Y-130384135D02*
G01*
X209476116Y-130400335D01*
X209487871Y-130431657D01*
X209480939Y-130466760D01*
X209473758Y-130477574D01*
X209449254Y-130496892D01*
X209428507Y-130488262D01*
X209413560Y-130463045D01*
X209403618Y-130421640D01*
X209414096Y-130393276D01*
X209442496Y-130383560D01*
X209448713Y-130384135D01*
G37*
G36*
X209452877Y-130921327D02*
G01*
X209483273Y-130945443D01*
X209485243Y-130975846D01*
X209466053Y-131003360D01*
X209431378Y-131024684D01*
X209398849Y-131016850D01*
X209389419Y-131008804D01*
X209371482Y-130975617D01*
X209376550Y-130943841D01*
X209399005Y-130921219D01*
X209433232Y-130915492D01*
X209452877Y-130921327D01*
G37*
G36*
X209540720Y-130201188D02*
G01*
X209552769Y-130215813D01*
X209555040Y-130249388D01*
X209547461Y-130290106D01*
X209527226Y-130305695D01*
X209498081Y-130294528D01*
X209483234Y-130280536D01*
X209462332Y-130244484D01*
X209466769Y-130215690D01*
X209494625Y-130199785D01*
X209511270Y-130198291D01*
X209540720Y-130201188D01*
G37*
G36*
X209820928Y-129248884D02*
G01*
X209848456Y-129269129D01*
X209865429Y-129297352D01*
X209865326Y-129317670D01*
X209845833Y-129333686D01*
X209812191Y-129340755D01*
X209778504Y-129337749D01*
X209760152Y-129326088D01*
X209756615Y-129296738D01*
X209770467Y-129264870D01*
X209792790Y-129246391D01*
X209820928Y-129248884D01*
G37*
G36*
X209873085Y-131888117D02*
G01*
X209887677Y-131914160D01*
X209885763Y-131941301D01*
X209881197Y-131947517D01*
X209852620Y-131962220D01*
X209821267Y-131961721D01*
X209804390Y-131950065D01*
X209803504Y-131925301D01*
X209818123Y-131896787D01*
X209840139Y-131878149D01*
X209848173Y-131876479D01*
X209873085Y-131888117D01*
G37*
G36*
X209936664Y-131368634D02*
G01*
X209953633Y-131406700D01*
X209955312Y-131455777D01*
X209942259Y-131493784D01*
X209914956Y-131507729D01*
X209876719Y-131497013D01*
X209846246Y-131475407D01*
X209804203Y-131439168D01*
X209834987Y-131397668D01*
X209872612Y-131361834D01*
X209908081Y-131352917D01*
X209936664Y-131368634D01*
G37*
G36*
X210023006Y-130726978D02*
G01*
X210042101Y-130750476D01*
X210042140Y-130771862D01*
X210023222Y-130803281D01*
X209993533Y-130831234D01*
X209964083Y-130829881D01*
X209935409Y-130800197D01*
X209921897Y-130760811D01*
X209930621Y-130728307D01*
X209954931Y-130708246D01*
X209988177Y-130706185D01*
X210023006Y-130726978D01*
G37*
G36*
X210133978Y-129905158D02*
G01*
X210155349Y-129933757D01*
X210162761Y-129962625D01*
X210155068Y-129982297D01*
X210143749Y-129985769D01*
X210118822Y-129979259D01*
X210114436Y-129975998D01*
X210107426Y-129955626D01*
X210104664Y-129922428D01*
X210105948Y-129892852D01*
X210114077Y-129888806D01*
X210133978Y-129905158D01*
G37*
G36*
X210171711Y-130622467D02*
G01*
X210174802Y-130666373D01*
X210168792Y-130705366D01*
X210158281Y-130734420D01*
X210145538Y-130739283D01*
X210122985Y-130725531D01*
X210094833Y-130693356D01*
X210095669Y-130657128D01*
X210125488Y-130617098D01*
X210125905Y-130616706D01*
X210161801Y-130582982D01*
X210171711Y-130622467D01*
G37*
G36*
X202839260Y-132735944D02*
G01*
X202847968Y-132740340D01*
X202871599Y-132761498D01*
X202876790Y-132795627D01*
X202876121Y-132804367D01*
X202863866Y-132842658D01*
X202837856Y-132855180D01*
X202801981Y-132842842D01*
X202779509Y-132815070D01*
X202781148Y-132777020D01*
X202795813Y-132749496D01*
X202815190Y-132731679D01*
X202839260Y-132735944D01*
G37*
G36*
X203054941Y-132689966D02*
G01*
X203076724Y-132703984D01*
X203082204Y-132732593D01*
X203081293Y-132746139D01*
X203067716Y-132782844D01*
X203041150Y-132798983D01*
X203009516Y-132790996D01*
X202999675Y-132782822D01*
X202982592Y-132749920D01*
X202987980Y-132717219D01*
X203010595Y-132693530D01*
X203045193Y-132687665D01*
X203054941Y-132689966D01*
G37*
G36*
X203220710Y-132607068D02*
G01*
X203245414Y-132628067D01*
X203257396Y-132657066D01*
X203256920Y-132666054D01*
X203240647Y-132686164D01*
X203211388Y-132695762D01*
X203184882Y-132690189D01*
X203182451Y-132688099D01*
X203172379Y-132662286D01*
X203175376Y-132629877D01*
X203189362Y-132606515D01*
X203193623Y-132604175D01*
X203220710Y-132607068D01*
G37*
G36*
X203521789Y-132844698D02*
G01*
X203528732Y-132846941D01*
X203581057Y-132870752D01*
X203604620Y-132898108D01*
X203603404Y-132921828D01*
X203585741Y-132941249D01*
X203551959Y-132942740D01*
X203505501Y-132929380D01*
X203472871Y-132907527D01*
X203465195Y-132881682D01*
X203469450Y-132849124D01*
X203486281Y-132837908D01*
X203521789Y-132844698D01*
G37*
G36*
X203557740Y-132649892D02*
G01*
X203573147Y-132665759D01*
X203591376Y-132698586D01*
X203593014Y-132731239D01*
X203581656Y-132756869D01*
X203560895Y-132768628D01*
X203534323Y-132759668D01*
X203527181Y-132753375D01*
X203510258Y-132717925D01*
X203519399Y-132676212D01*
X203528000Y-132662441D01*
X203543425Y-132645576D01*
X203557740Y-132649892D01*
G37*
G36*
X203701410Y-133445717D02*
G01*
X203712999Y-133451367D01*
X203752409Y-133475647D01*
X203767984Y-133497901D01*
X203764691Y-133522587D01*
X203741475Y-133546491D01*
X203702422Y-133552305D01*
X203673506Y-133545624D01*
X203648085Y-133525736D01*
X203641075Y-133490049D01*
X203646795Y-133450841D01*
X203665922Y-133436593D01*
X203701410Y-133445717D01*
G37*
G36*
X203748241Y-132938484D02*
G01*
X203775036Y-132953711D01*
X203787635Y-132974280D01*
X203787642Y-132974722D01*
X203779746Y-132993397D01*
X203769321Y-133008946D01*
X203747123Y-133024910D01*
X203725351Y-133018348D01*
X203704681Y-132994219D01*
X203701223Y-132963909D01*
X203715526Y-132940305D01*
X203721874Y-132936987D01*
X203748241Y-132938484D01*
G37*
G36*
X203798551Y-132758561D02*
G01*
X203825968Y-132765539D01*
X203837098Y-132784169D01*
X203838940Y-132814505D01*
X203835361Y-132850523D01*
X203821117Y-132866689D01*
X203806105Y-132870469D01*
X203775371Y-132864359D01*
X203756544Y-132838426D01*
X203745747Y-132795223D01*
X203757518Y-132767297D01*
X203790114Y-132757957D01*
X203798551Y-132758561D01*
G37*
G36*
X203805074Y-133115248D02*
G01*
X203831844Y-133137274D01*
X203851783Y-133172764D01*
X203857958Y-133207926D01*
X203856004Y-133216575D01*
X203835492Y-133235830D01*
X203803933Y-133237331D01*
X203775917Y-133221961D01*
X203760473Y-133192972D01*
X203759291Y-133159086D01*
X203769818Y-133129641D01*
X203789502Y-133113981D01*
X203805074Y-133115248D01*
G37*
G36*
X204175474Y-133526040D02*
G01*
X204201885Y-133544681D01*
X204222450Y-133571298D01*
X204221873Y-133597219D01*
X204215635Y-133612672D01*
X204198013Y-133642250D01*
X204177524Y-133646937D01*
X204150394Y-133634105D01*
X204131436Y-133609851D01*
X204124809Y-133574690D01*
X204130791Y-133541278D01*
X204147951Y-133522857D01*
X204175474Y-133526040D01*
G37*
G36*
X204204097Y-133931900D02*
G01*
X204233494Y-133946808D01*
X204257513Y-133964576D01*
X204263919Y-133972278D01*
X204269604Y-133983156D01*
X204263770Y-133984561D01*
X204240488Y-133975607D01*
X204216349Y-133965187D01*
X204184678Y-133947413D01*
X204169061Y-133930787D01*
X204168715Y-133928743D01*
X204179208Y-133924371D01*
X204204097Y-133931900D01*
G37*
G36*
X204306627Y-133220768D02*
G01*
X204324513Y-133254463D01*
X204322524Y-133296121D01*
X204316012Y-133311467D01*
X204291288Y-133338075D01*
X204262698Y-133336191D01*
X204235501Y-133309571D01*
X204217028Y-133270052D01*
X204214356Y-133233099D01*
X204227695Y-133208459D01*
X204233257Y-133205478D01*
X204274373Y-133202089D01*
X204306627Y-133220768D01*
G37*
G36*
X204354811Y-133055951D02*
G01*
X204370626Y-133077929D01*
X204366539Y-133107770D01*
X204346665Y-133129353D01*
X204314261Y-133137956D01*
X204284519Y-133130128D01*
X204281083Y-133127181D01*
X204273371Y-133106209D01*
X204271312Y-133083211D01*
X204276732Y-133058460D01*
X204298705Y-133049617D01*
X204314417Y-133049012D01*
X204354811Y-133055951D01*
G37*
G36*
X204497291Y-133424325D02*
G01*
X204516759Y-133444454D01*
X204519240Y-133475622D01*
X204507581Y-133507286D01*
X204484628Y-133528899D01*
X204468040Y-133532682D01*
X204445095Y-133522461D01*
X204432175Y-133510263D01*
X204421045Y-133484589D01*
X204430066Y-133451636D01*
X204448892Y-133422284D01*
X204473615Y-133417136D01*
X204497291Y-133424325D01*
G37*
G36*
X204553459Y-133736485D02*
G01*
X204553888Y-133736648D01*
X204590203Y-133761766D01*
X204603317Y-133796992D01*
X204599494Y-133817354D01*
X204577017Y-133842725D01*
X204538699Y-133843575D01*
X204524139Y-133839018D01*
X204498375Y-133819230D01*
X204491162Y-133783183D01*
X204496901Y-133743680D01*
X204516484Y-133728991D01*
X204553459Y-133736485D01*
G37*
G36*
X204805276Y-134029309D02*
G01*
X204824891Y-134061857D01*
X204828265Y-134085238D01*
X204822932Y-134109400D01*
X204801256Y-134118244D01*
X204783835Y-134118949D01*
X204749379Y-134112669D01*
X204731408Y-134098109D01*
X204731552Y-134069013D01*
X204745575Y-134037988D01*
X204766531Y-134018194D01*
X204774551Y-134016352D01*
X204805276Y-134029309D01*
G37*
G36*
X204869051Y-133881875D02*
G01*
X204879560Y-133921620D01*
X204879563Y-133922480D01*
X204870292Y-133957956D01*
X204846747Y-133970181D01*
X204815329Y-133956686D01*
X204808059Y-133950082D01*
X204788061Y-133916989D01*
X204787046Y-133883791D01*
X204804987Y-133861119D01*
X204808272Y-133859664D01*
X204842980Y-133859189D01*
X204869051Y-133881875D01*
G37*
G36*
X204902259Y-133667904D02*
G01*
X204918782Y-133682568D01*
X204924410Y-133699510D01*
X204928033Y-133733092D01*
X204924048Y-133751699D01*
X204902235Y-133764202D01*
X204868096Y-133766625D01*
X204835591Y-133759721D01*
X204819237Y-133746060D01*
X204814150Y-133704609D01*
X204834386Y-133677311D01*
X204868188Y-133667365D01*
X204902259Y-133667904D01*
G37*
G36*
X205100391Y-133167224D02*
G01*
X205113821Y-133180647D01*
X205130903Y-133205817D01*
X205126055Y-133226162D01*
X205121627Y-133231945D01*
X205092726Y-133250913D01*
X205075634Y-133254205D01*
X205056490Y-133247685D01*
X205048849Y-133223248D01*
X205048115Y-133202907D01*
X205054401Y-133164117D01*
X205072303Y-133152061D01*
X205100391Y-133167224D01*
G37*
G36*
X205171911Y-133671704D02*
G01*
X205180218Y-133705846D01*
X205171129Y-133744005D01*
X205160749Y-133762378D01*
X205144137Y-133764526D01*
X205112365Y-133751044D01*
X205106872Y-133748284D01*
X205073906Y-133722504D01*
X205066405Y-133695004D01*
X205084962Y-133671478D01*
X205098220Y-133665046D01*
X205143660Y-133657110D01*
X205171911Y-133671704D01*
G37*
G36*
X205264929Y-133307449D02*
G01*
X205288922Y-133332391D01*
X205290720Y-133368944D01*
X205290173Y-133370755D01*
X205271855Y-133392034D01*
X205242397Y-133401140D01*
X205214529Y-133396380D01*
X205202246Y-133382451D01*
X205191319Y-133337425D01*
X205197579Y-133312099D01*
X205222444Y-133301461D01*
X205225250Y-133301099D01*
X205264929Y-133307449D01*
G37*
G36*
X205367615Y-133835528D02*
G01*
X205386427Y-133848894D01*
X205412905Y-133885311D01*
X205414249Y-133917269D01*
X205394588Y-133938564D01*
X205358050Y-133942998D01*
X205329255Y-133934779D01*
X205296294Y-133916801D01*
X205284741Y-133894907D01*
X205285285Y-133873736D01*
X205300425Y-133840428D01*
X205330598Y-133827021D01*
X205367615Y-133835528D01*
G37*
G36*
X205603190Y-133147226D02*
G01*
X205628555Y-133174166D01*
X205631808Y-133205867D01*
X205615055Y-133226645D01*
X205582572Y-133236779D01*
X205546443Y-133234870D01*
X205518757Y-133219516D01*
X205518333Y-133219016D01*
X205505375Y-133185649D01*
X205516382Y-133155655D01*
X205546610Y-133138316D01*
X205560291Y-133136952D01*
X205603190Y-133147226D01*
G37*
G36*
X205991471Y-133383678D02*
G01*
X206022126Y-133402940D01*
X206042303Y-133430386D01*
X206044768Y-133442642D01*
X206033253Y-133478485D01*
X206005356Y-133499022D01*
X205971051Y-133500464D01*
X205942330Y-133481574D01*
X205931693Y-133450666D01*
X205936570Y-133414148D01*
X205954085Y-133386381D01*
X205962348Y-133381509D01*
X205991471Y-133383678D01*
G37*
G36*
X206143701Y-132905136D02*
G01*
X206173892Y-132914469D01*
X206183739Y-132938254D01*
X206184007Y-132946415D01*
X206175411Y-132977275D01*
X206154090Y-132987340D01*
X206124967Y-132986359D01*
X206113784Y-132981233D01*
X206105659Y-132959788D01*
X206103395Y-132935671D01*
X206108019Y-132910606D01*
X206127816Y-132903955D01*
X206143701Y-132905136D01*
G37*
G36*
X206651039Y-134567518D02*
G01*
X206659515Y-134572172D01*
X206672744Y-134587875D01*
X206667934Y-134613245D01*
X206663493Y-134623554D01*
X206639840Y-134650687D01*
X206607599Y-134661846D01*
X206577507Y-134655576D01*
X206562287Y-134637268D01*
X206561571Y-134602852D01*
X206581716Y-134576011D01*
X206614334Y-134562361D01*
X206651039Y-134567518D01*
G37*
G36*
X206924271Y-132954409D02*
G01*
X206944628Y-132965473D01*
X206962979Y-132985526D01*
X206958380Y-133010203D01*
X206954822Y-133017195D01*
X206930106Y-133040804D01*
X206897071Y-133048853D01*
X206867479Y-133040415D01*
X206855421Y-133025035D01*
X206855724Y-132991026D01*
X206875215Y-132960863D01*
X206896709Y-132949656D01*
X206924271Y-132954409D01*
G37*
G36*
X207055517Y-132753782D02*
G01*
X207076553Y-132783076D01*
X207081464Y-132816526D01*
X207079652Y-132822979D01*
X207060437Y-132838527D01*
X207028589Y-132843432D01*
X206999118Y-132836803D01*
X206989608Y-132828329D01*
X206983957Y-132798145D01*
X206994176Y-132765847D01*
X207014880Y-132744146D01*
X207026528Y-132741222D01*
X207055517Y-132753782D01*
G37*
G36*
X207179253Y-134074444D02*
G01*
X207216291Y-134096904D01*
X207227383Y-134129193D01*
X207218262Y-134167719D01*
X207198216Y-134199473D01*
X207171919Y-134203257D01*
X207137932Y-134179157D01*
X207131916Y-134172966D01*
X207106246Y-134133111D01*
X207103176Y-134098321D01*
X207119812Y-134074620D01*
X207153258Y-134068035D01*
X207179253Y-134074444D01*
G37*
G36*
X207367656Y-132612141D02*
G01*
X207406430Y-132622668D01*
X207418351Y-132642844D01*
X207402564Y-132671050D01*
X207400117Y-132673566D01*
X207368294Y-132692804D01*
X207334812Y-132695938D01*
X207312489Y-132682464D01*
X207309067Y-132657683D01*
X207312877Y-132637659D01*
X207327365Y-132616237D01*
X207357335Y-132611360D01*
X207367656Y-132612141D01*
G37*
G36*
X207382426Y-133873438D02*
G01*
X207401843Y-133901299D01*
X207403288Y-133933474D01*
X207390250Y-133954794D01*
X207362349Y-133970727D01*
X207328290Y-133963025D01*
X207316234Y-133956551D01*
X207296699Y-133932284D01*
X207291407Y-133899102D01*
X207300728Y-133870069D01*
X207313504Y-133860070D01*
X207350994Y-133857245D01*
X207382426Y-133873438D01*
G37*
G36*
X207576186Y-133467957D02*
G01*
X207589816Y-133492948D01*
X207578802Y-133533345D01*
X207578420Y-133534117D01*
X207552362Y-133565937D01*
X207522102Y-133572460D01*
X207496458Y-133555486D01*
X207484946Y-133522624D01*
X207487092Y-133496231D01*
X207501460Y-133468409D01*
X207531389Y-133459544D01*
X207538459Y-133459399D01*
X207576186Y-133467957D01*
G37*
G36*
X207671419Y-132843931D02*
G01*
X207685831Y-132871340D01*
X207686315Y-132879097D01*
X207677744Y-132913567D01*
X207657532Y-132939642D01*
X207640460Y-132946415D01*
X207622689Y-132937180D01*
X207606750Y-132923384D01*
X207586636Y-132897008D01*
X207590595Y-132874659D01*
X207610912Y-132853065D01*
X207643499Y-132836822D01*
X207671419Y-132843931D01*
G37*
G36*
X207727740Y-133926258D02*
G01*
X207739009Y-133950739D01*
X207758247Y-133988230D01*
X207779191Y-134009366D01*
X207810090Y-134031009D01*
X207779788Y-134031009D01*
X207746128Y-134020415D01*
X207727295Y-134005359D01*
X207705900Y-133972280D01*
X207696023Y-133940372D01*
X207699389Y-133918460D01*
X207709393Y-133913755D01*
X207727740Y-133926258D01*
G37*
G36*
X207766297Y-133407498D02*
G01*
X207774215Y-133432944D01*
X207774255Y-133436215D01*
X207769780Y-133477931D01*
X207758575Y-133508330D01*
X207746175Y-133518025D01*
X207727290Y-133510280D01*
X207710046Y-133499130D01*
X207691512Y-133471147D01*
X207692928Y-133437976D01*
X207710975Y-133410818D01*
X207739202Y-133400772D01*
X207766297Y-133407498D01*
G37*
G36*
X207906548Y-133821391D02*
G01*
X207935956Y-133845074D01*
X207957267Y-133874976D01*
X207961577Y-133897027D01*
X207944100Y-133920653D01*
X207911774Y-133932133D01*
X207877833Y-133927722D01*
X207869697Y-133923023D01*
X207852935Y-133897034D01*
X207849690Y-133862095D01*
X207858899Y-133830382D01*
X207879183Y-133814130D01*
X207906548Y-133821391D01*
G37*
G36*
X207926158Y-132350028D02*
G01*
X207944832Y-132370236D01*
X207949218Y-132401595D01*
X207939189Y-132429884D01*
X207926951Y-132439192D01*
X207896312Y-132447220D01*
X207871856Y-132439620D01*
X207864417Y-132435116D01*
X207848967Y-132412488D01*
X207854003Y-132384992D01*
X207873691Y-132360669D01*
X207902199Y-132347556D01*
X207926158Y-132350028D01*
G37*
G36*
X207930704Y-132768068D02*
G01*
X207935137Y-132770353D01*
X207959546Y-132796058D01*
X207963731Y-132828482D01*
X207949251Y-132856846D01*
X207920718Y-132870098D01*
X207885473Y-132866679D01*
X207865756Y-132856174D01*
X207848809Y-132826516D01*
X207859526Y-132796011D01*
X207875632Y-132778967D01*
X207902786Y-132762114D01*
X207930704Y-132768068D01*
G37*
G36*
X208019516Y-133676143D02*
G01*
X208042984Y-133705099D01*
X208047825Y-133742911D01*
X208031542Y-133781032D01*
X208018007Y-133794910D01*
X207999276Y-133799646D01*
X207973806Y-133783286D01*
X207958524Y-133768296D01*
X207930377Y-133727742D01*
X207926451Y-133693881D01*
X207945788Y-133671356D01*
X207979920Y-133664592D01*
X208019516Y-133676143D01*
G37*
G36*
X208110149Y-132852858D02*
G01*
X208131447Y-132878650D01*
X208127946Y-132919204D01*
X208126693Y-132922648D01*
X208105466Y-132954162D01*
X208078538Y-132957518D01*
X208049126Y-132932482D01*
X208046234Y-132928498D01*
X208024810Y-132886437D01*
X208027592Y-132857767D01*
X208054120Y-132844500D01*
X208065593Y-132843819D01*
X208110149Y-132852858D01*
G37*
G36*
X208115339Y-127683092D02*
G01*
X208143075Y-127716000D01*
X208155257Y-127759257D01*
X208155328Y-127762774D01*
X208146095Y-127793161D01*
X208123336Y-127802417D01*
X208094458Y-127789934D01*
X208075547Y-127769352D01*
X208056612Y-127730375D01*
X208053518Y-127695848D01*
X208065923Y-127673851D01*
X208079773Y-127670016D01*
X208115339Y-127683092D01*
G37*
G36*
X208142411Y-133775234D02*
G01*
X208163325Y-133787850D01*
X208182277Y-133804122D01*
X208180969Y-133818657D01*
X208163854Y-133839148D01*
X208135256Y-133860903D01*
X208106247Y-133869345D01*
X208086149Y-133863068D01*
X208082245Y-133851464D01*
X208087943Y-133811663D01*
X208101206Y-133780054D01*
X208117594Y-133767189D01*
X208142411Y-133775234D01*
G37*
G36*
X208179499Y-132714599D02*
G01*
X208218989Y-132729157D01*
X208240013Y-132756719D01*
X208237674Y-132789993D01*
X208234294Y-132796185D01*
X208205891Y-132822321D01*
X208174171Y-132822685D01*
X208158687Y-132812002D01*
X208145334Y-132784763D01*
X208140671Y-132751974D01*
X208144242Y-132722314D01*
X208160640Y-132713441D01*
X208179499Y-132714599D01*
G37*
G36*
X208314460Y-132386843D02*
G01*
X208336581Y-132416046D01*
X208337739Y-132452045D01*
X208336916Y-132454355D01*
X208316789Y-132474470D01*
X208285971Y-132473076D01*
X208253052Y-132450746D01*
X208251090Y-132448635D01*
X208233292Y-132415125D01*
X208240744Y-132388346D01*
X208270843Y-132375194D01*
X208278934Y-132374806D01*
X208314460Y-132386843D01*
G37*
G36*
X208376745Y-133228576D02*
G01*
X208389818Y-133258326D01*
X208389835Y-133259590D01*
X208378612Y-133301233D01*
X208348486Y-133323233D01*
X208304765Y-133322465D01*
X208290902Y-133317782D01*
X208274764Y-133297920D01*
X208272430Y-133265914D01*
X208282486Y-133234674D01*
X208301895Y-133217564D01*
X208344766Y-133213712D01*
X208376745Y-133228576D01*
G37*
G36*
X208476169Y-133058052D02*
G01*
X208501417Y-133081373D01*
X208503402Y-133113279D01*
X208484056Y-133143234D01*
X208449381Y-133164557D01*
X208416852Y-133156723D01*
X208407423Y-133148677D01*
X208394273Y-133121670D01*
X208389835Y-133090051D01*
X208394258Y-133060212D01*
X208413727Y-133049822D01*
X208430873Y-133049012D01*
X208476169Y-133058052D01*
G37*
G36*
X208571047Y-128210887D02*
G01*
X208588013Y-128227316D01*
X208604209Y-128254833D01*
X208593925Y-128275373D01*
X208557291Y-128291449D01*
X208530221Y-128290981D01*
X208508796Y-128266693D01*
X208506670Y-128262830D01*
X208494299Y-128234160D01*
X208498905Y-128218301D01*
X208507765Y-128211584D01*
X208541289Y-128198921D01*
X208571047Y-128210887D01*
G37*
G36*
X208781196Y-132142953D02*
G01*
X208801532Y-132159339D01*
X208809648Y-132190375D01*
X208805876Y-132224221D01*
X208790549Y-132249036D01*
X208778065Y-132254450D01*
X208745033Y-132249695D01*
X208730431Y-132240526D01*
X208713889Y-132207665D01*
X208719594Y-132174035D01*
X208742610Y-132149123D01*
X208777997Y-132142422D01*
X208781196Y-132142953D01*
G37*
G36*
X208895795Y-132338219D02*
G01*
X208923222Y-132364318D01*
X208929232Y-132410030D01*
X208929216Y-132410199D01*
X208915719Y-132447219D01*
X208887181Y-132460591D01*
X208847339Y-132449172D01*
X208832362Y-132439778D01*
X208805799Y-132408511D01*
X208801302Y-132374335D01*
X208817491Y-132346204D01*
X208848742Y-132333441D01*
X208895795Y-132338219D01*
G37*
G36*
X208999369Y-131397240D02*
G01*
X209017061Y-131425079D01*
X209013733Y-131457838D01*
X209011621Y-131461556D01*
X208985976Y-131488210D01*
X208957668Y-131487196D01*
X208949278Y-131482585D01*
X208934652Y-131459732D01*
X208934045Y-131427734D01*
X208945189Y-131398897D01*
X208965816Y-131385523D01*
X208967176Y-131385481D01*
X208999369Y-131397240D01*
G37*
G36*
X209041719Y-131625316D02*
G01*
X209058173Y-131655291D01*
X209061502Y-131688800D01*
X209046551Y-131714448D01*
X209018171Y-131728181D01*
X208987980Y-131727538D01*
X208967595Y-131710061D01*
X208967078Y-131708796D01*
X208968382Y-131682854D01*
X208982070Y-131650053D01*
X209001583Y-131622630D01*
X209018615Y-131612659D01*
X209041719Y-131625316D01*
G37*
G36*
X209067255Y-132035158D02*
G01*
X209088539Y-132068387D01*
X209090749Y-132106435D01*
X209076469Y-132140341D01*
X209046969Y-132151464D01*
X209006812Y-132138654D01*
X208994422Y-132130722D01*
X208967120Y-132098293D01*
X208964568Y-132063959D01*
X208984101Y-132036126D01*
X209023057Y-132023197D01*
X209028536Y-132023046D01*
X209067255Y-132035158D01*
G37*
G36*
X209094767Y-131093897D02*
G01*
X209122311Y-131111096D01*
X209146116Y-131139718D01*
X209145527Y-131170205D01*
X209125237Y-131196247D01*
X209094723Y-131200377D01*
X209064753Y-131181145D01*
X209064711Y-131181094D01*
X209053018Y-131151972D01*
X209053897Y-131118113D01*
X209066130Y-131093316D01*
X209072815Y-131089349D01*
X209094767Y-131093897D01*
G37*
G36*
X209289227Y-130811078D02*
G01*
X209309146Y-130831502D01*
X209312334Y-130863343D01*
X209301456Y-130896043D01*
X209279179Y-130919041D01*
X209260770Y-130923796D01*
X209237578Y-130913589D01*
X209225849Y-130902515D01*
X209213379Y-130869399D01*
X209222363Y-130836782D01*
X209246662Y-130813517D01*
X209280139Y-130808459D01*
X209289227Y-130811078D01*
G37*
G36*
X209425119Y-128672680D02*
G01*
X209448023Y-128695960D01*
X209457340Y-128734655D01*
X209456855Y-128746033D01*
X209443146Y-128781917D01*
X209416524Y-128797491D01*
X209385582Y-128789547D01*
X209372576Y-128777492D01*
X209361560Y-128745887D01*
X209366251Y-128708225D01*
X209383751Y-128678534D01*
X209394440Y-128671730D01*
X209425119Y-128672680D01*
G37*
G36*
X209532451Y-129014444D02*
G01*
X209556706Y-129045387D01*
X209559763Y-129087162D01*
X209545239Y-129121293D01*
X209517198Y-129133542D01*
X209483661Y-129121912D01*
X209469955Y-129109525D01*
X209450643Y-129073588D01*
X209445115Y-129042924D01*
X209449658Y-129014650D01*
X209469379Y-129004607D01*
X209487290Y-129003773D01*
X209532451Y-129014444D01*
G37*
G36*
X209555691Y-129908592D02*
G01*
X209579877Y-129931145D01*
X209589817Y-129967771D01*
X209589274Y-129978033D01*
X209577884Y-130015134D01*
X209556766Y-130025376D01*
X209527892Y-130007824D01*
X209527427Y-130007362D01*
X209508953Y-129976018D01*
X209504767Y-129940898D01*
X209515244Y-129913881D01*
X209524302Y-129907732D01*
X209555691Y-129908592D01*
G37*
G36*
X209561459Y-130689605D02*
G01*
X209578482Y-130724178D01*
X209581609Y-130756505D01*
X209580909Y-130758908D01*
X209562783Y-130773857D01*
X209532643Y-130776213D01*
X209504577Y-130766721D01*
X209494026Y-130754309D01*
X209492274Y-130724369D01*
X209503146Y-130693197D01*
X209521179Y-130671482D01*
X209537952Y-130668399D01*
X209561459Y-130689605D01*
G37*
G36*
X209604222Y-128807050D02*
G01*
X209618123Y-128839030D01*
X209615545Y-128876922D01*
X209596006Y-128906977D01*
X209564049Y-128916661D01*
X209529769Y-128904381D01*
X209517237Y-128892449D01*
X209505749Y-128870665D01*
X209511925Y-128844932D01*
X209519669Y-128830158D01*
X209547981Y-128799193D01*
X209578503Y-128792630D01*
X209604222Y-128807050D01*
G37*
G36*
X209647257Y-128598384D02*
G01*
X209662202Y-128627176D01*
X209663929Y-128661090D01*
X209648337Y-128692069D01*
X209647377Y-128693051D01*
X209624052Y-128708988D01*
X209601409Y-128701829D01*
X209584620Y-128686827D01*
X209566554Y-128651414D01*
X209571820Y-128613574D01*
X209594117Y-128588404D01*
X209623194Y-128582774D01*
X209647257Y-128598384D01*
G37*
G36*
X209684016Y-129332099D02*
G01*
X209700485Y-129354467D01*
X209702908Y-129362828D01*
X209706870Y-129409812D01*
X209692235Y-129436381D01*
X209661675Y-129440094D01*
X209631987Y-129427642D01*
X209611857Y-129400974D01*
X209606338Y-129369461D01*
X209610090Y-129338749D01*
X209627571Y-129327487D01*
X209650029Y-129326219D01*
X209684016Y-129332099D01*
G37*
G36*
X209714610Y-130255193D02*
G01*
X209751905Y-130273701D01*
X209764231Y-130305609D01*
X209752795Y-130352449D01*
X209728706Y-130386985D01*
X209695414Y-130393985D01*
X209661300Y-130380325D01*
X209640168Y-130352986D01*
X209637802Y-130313562D01*
X209654804Y-130272977D01*
X209655356Y-130272214D01*
X209680349Y-130253193D01*
X209714610Y-130255193D01*
G37*
G36*
X209729545Y-131742810D02*
G01*
X209765374Y-131766960D01*
X209789501Y-131800983D01*
X209794388Y-131834964D01*
X209778559Y-131863591D01*
X209746603Y-131873942D01*
X209705878Y-131865287D01*
X209675156Y-131846799D01*
X209643435Y-131810477D01*
X209637620Y-131774544D01*
X209656234Y-131745732D01*
X209690377Y-131733933D01*
X209729545Y-131742810D01*
G37*
G36*
X209771869Y-131248213D02*
G01*
X209784040Y-131266373D01*
X209792265Y-131310127D01*
X209777834Y-131343025D01*
X209746879Y-131359732D01*
X209705533Y-131354912D01*
X209690614Y-131347665D01*
X209671517Y-131323399D01*
X209665228Y-131288722D01*
X209672041Y-131256427D01*
X209688148Y-131240482D01*
X209736754Y-131232094D01*
X209771869Y-131248213D01*
G37*
G36*
X209783315Y-129821280D02*
G01*
X209786671Y-129822039D01*
X209806275Y-129838511D01*
X209809890Y-129866485D01*
X209799148Y-129894033D01*
X209775680Y-129909232D01*
X209774718Y-129909383D01*
X209741686Y-129904628D01*
X209727084Y-129895460D01*
X209708532Y-129863688D01*
X209714748Y-129837004D01*
X209741189Y-129821003D01*
X209783315Y-129821280D01*
G37*
G36*
X209804941Y-130061673D02*
G01*
X209821766Y-130094295D01*
X209823583Y-130127785D01*
X209809482Y-130162521D01*
X209782853Y-130175042D01*
X209751574Y-130164181D01*
X209730804Y-130141545D01*
X209715413Y-130108006D01*
X209721073Y-130078587D01*
X209723065Y-130074692D01*
X209748580Y-130048169D01*
X209778209Y-130045064D01*
X209804941Y-130061673D01*
G37*
G36*
X209835261Y-130596497D02*
G01*
X209849220Y-130607631D01*
X209867642Y-130640886D01*
X209864337Y-130673778D01*
X209841783Y-130696322D01*
X209826188Y-130700414D01*
X209790166Y-130698572D01*
X209770052Y-130691496D01*
X209757106Y-130668428D01*
X209755395Y-130636400D01*
X209770619Y-130601822D01*
X209800256Y-130587596D01*
X209835261Y-130596497D01*
G37*
G36*
X209929118Y-130839465D02*
G01*
X209953174Y-130869288D01*
X209955907Y-130907166D01*
X209940510Y-130935521D01*
X209908830Y-130952174D01*
X209878125Y-130939696D01*
X209871032Y-130932177D01*
X209861942Y-130910430D01*
X209870160Y-130880122D01*
X209876898Y-130866306D01*
X209894689Y-130837185D01*
X209910602Y-130830717D01*
X209929118Y-130839465D01*
G37*
G36*
X209966954Y-129318096D02*
G01*
X209990972Y-129341896D01*
X210001934Y-129381374D01*
X210002068Y-129386641D01*
X209992373Y-129419499D01*
X209968255Y-129430240D01*
X209937166Y-129416258D01*
X209931716Y-129411228D01*
X209916806Y-129381952D01*
X209916070Y-129347530D01*
X209928851Y-129321430D01*
X209936299Y-129316791D01*
X209966954Y-129318096D01*
G37*
G36*
X210040888Y-130495512D02*
G01*
X210067970Y-130522890D01*
X210075351Y-130547635D01*
X210066284Y-130586837D01*
X210044161Y-130609754D01*
X210016596Y-130612971D01*
X209991207Y-130593074D01*
X209987572Y-130586993D01*
X209979793Y-130556033D01*
X209981829Y-130520808D01*
X209991736Y-130493053D01*
X210004620Y-130484096D01*
X210040888Y-130495512D01*
G37*
G36*
X210097171Y-130287953D02*
G01*
X210128098Y-130309965D01*
X210145156Y-130342802D01*
X210145615Y-130358705D01*
X210129620Y-130383456D01*
X210097481Y-130393741D01*
X210059504Y-130387733D01*
X210040564Y-130377339D01*
X210022186Y-130349267D01*
X210026264Y-130316873D01*
X210050194Y-130291045D01*
X210062495Y-130285659D01*
X210097171Y-130287953D01*
G37*
G36*
X202472655Y-132386291D02*
G01*
X202504403Y-132406444D01*
X202530946Y-132441515D01*
X202541711Y-132476999D01*
X202529624Y-132499324D01*
X202506181Y-132515805D01*
X202479576Y-132524436D01*
X202466135Y-132512564D01*
X202459856Y-132493820D01*
X202450750Y-132448557D01*
X202447752Y-132417442D01*
X202451330Y-132390163D01*
X202467722Y-132385198D01*
X202472655Y-132386291D01*
G37*
G36*
X202673003Y-134100754D02*
G01*
X202673726Y-134101337D01*
X202697747Y-134129460D01*
X202698787Y-134162915D01*
X202697651Y-134167774D01*
X202678057Y-134197949D01*
X202646054Y-134207791D01*
X202611858Y-134195604D01*
X202599725Y-134184028D01*
X202588209Y-134152344D01*
X202594267Y-134122935D01*
X202613320Y-134087913D01*
X202638235Y-134080881D01*
X202673003Y-134100754D01*
G37*
G36*
X202741379Y-132312739D02*
G01*
X202760499Y-132336989D01*
X202769696Y-132371269D01*
X202768680Y-132405281D01*
X202757160Y-132428723D01*
X202744784Y-132433432D01*
X202725915Y-132423950D01*
X202698505Y-132400874D01*
X202696004Y-132398406D01*
X202673037Y-132363287D01*
X202670163Y-132330804D01*
X202683822Y-132307673D01*
X202710458Y-132300611D01*
X202741379Y-132312739D01*
G37*
G36*
X202930116Y-132470050D02*
G01*
X202950484Y-132501106D01*
X202952212Y-132513730D01*
X202947196Y-132540700D01*
X202926182Y-132549379D01*
X202911906Y-132549528D01*
X202875082Y-132546088D01*
X202853280Y-132540979D01*
X202838231Y-132521630D01*
X202836091Y-132490723D01*
X202846107Y-132462639D01*
X202857878Y-132453030D01*
X202895558Y-132451651D01*
X202930116Y-132470050D01*
G37*
G36*
X203161813Y-133851428D02*
G01*
X203188860Y-133866053D01*
X203227117Y-133901293D01*
X203244199Y-133944964D01*
X203240058Y-133979678D01*
X203219774Y-133998291D01*
X203187586Y-133999036D01*
X203154731Y-133982041D01*
X203151124Y-133978663D01*
X203131642Y-133940800D01*
X203129780Y-133891398D01*
X203136958Y-133863735D01*
X203145808Y-133849753D01*
X203161813Y-133851428D01*
G37*
G36*
X203609082Y-133256023D02*
G01*
X203634207Y-133273315D01*
X203638851Y-133304570D01*
X203638395Y-133309060D01*
X203623490Y-133342257D01*
X203595018Y-133355563D01*
X203562884Y-133345257D01*
X203556628Y-133339776D01*
X203541765Y-133311511D01*
X203539852Y-133278422D01*
X203550864Y-133254021D01*
X203556799Y-133250371D01*
X203583921Y-133249689D01*
X203609082Y-133256023D01*
G37*
G36*
X203775328Y-133289129D02*
G01*
X203783115Y-133291731D01*
X203813971Y-133309590D01*
X203824021Y-133340120D01*
X203824284Y-133349626D01*
X203816642Y-133384683D01*
X203792486Y-133396814D01*
X203749967Y-133386889D01*
X203747336Y-133385834D01*
X203720080Y-133361769D01*
X203716722Y-133325735D01*
X203728377Y-133298707D01*
X203745627Y-133285130D01*
X203775328Y-133289129D01*
G37*
G36*
X204040209Y-133155136D02*
G01*
X204059152Y-133172623D01*
X204086548Y-133211275D01*
X204093112Y-133245700D01*
X204081963Y-133270152D01*
X204056220Y-133278889D01*
X204019001Y-133266166D01*
X204011156Y-133261036D01*
X203985151Y-133228736D01*
X203979532Y-133189799D01*
X203995533Y-133155807D01*
X203999547Y-133152121D01*
X204018205Y-133144148D01*
X204040209Y-133155136D01*
G37*
G36*
X204045129Y-133368241D02*
G01*
X204050706Y-133371054D01*
X204075930Y-133400254D01*
X204080775Y-133430601D01*
X204076516Y-133461986D01*
X204059493Y-133473095D01*
X204047798Y-133473729D01*
X204011809Y-133464656D01*
X203980299Y-133446853D01*
X203954898Y-133416052D01*
X203953659Y-133387431D01*
X203971603Y-133366349D01*
X204003752Y-133358166D01*
X204045129Y-133368241D01*
G37*
G36*
X204741187Y-133402960D02*
G01*
X204764910Y-133430752D01*
X204765007Y-133475688D01*
X204764189Y-133479115D01*
X204745735Y-133510233D01*
X204715469Y-133516991D01*
X204678546Y-133498932D01*
X204666141Y-133487811D01*
X204645068Y-133454575D01*
X204640491Y-133425520D01*
X204649805Y-133402956D01*
X204674741Y-133394240D01*
X204694758Y-133393444D01*
X204741187Y-133402960D01*
G37*
G36*
X204801194Y-133191918D02*
G01*
X204825390Y-133211084D01*
X204839782Y-133244511D01*
X204838694Y-133277442D01*
X204836108Y-133282686D01*
X204813331Y-133295833D01*
X204779039Y-133296368D01*
X204748016Y-133284626D01*
X204743256Y-133280587D01*
X204726394Y-133248244D01*
X204732737Y-133217044D01*
X204757006Y-133195065D01*
X204793925Y-133190383D01*
X204801194Y-133191918D01*
G37*
G36*
X205069843Y-133781748D02*
G01*
X205098283Y-133799188D01*
X205104838Y-133827639D01*
X205104050Y-133836815D01*
X205089130Y-133869942D01*
X205060627Y-133883194D01*
X205028487Y-133872847D01*
X205022295Y-133867416D01*
X205008059Y-133839736D01*
X205004814Y-133805407D01*
X205013307Y-133779047D01*
X205017572Y-133775277D01*
X205039848Y-133773936D01*
X205069843Y-133781748D01*
G37*
G36*
X205256805Y-133985473D02*
G01*
X205257945Y-133985904D01*
X205287593Y-134003053D01*
X205295498Y-134029173D01*
X205294587Y-134041883D01*
X205283764Y-134073272D01*
X205257960Y-134084552D01*
X205212604Y-134077587D01*
X205209338Y-134076680D01*
X205179603Y-134058286D01*
X205172697Y-134031945D01*
X205183274Y-133994869D01*
X205212542Y-133978713D01*
X205256805Y-133985473D01*
G37*
G36*
X205373944Y-133649836D02*
G01*
X205383124Y-133685646D01*
X205382490Y-133697469D01*
X205374855Y-133731659D01*
X205356161Y-133745764D01*
X205341248Y-133748030D01*
X205305623Y-133747317D01*
X205286286Y-133743144D01*
X205269045Y-133722875D01*
X205269195Y-133692075D01*
X205284663Y-133662130D01*
X205303672Y-133647694D01*
X205346906Y-133636836D01*
X205373944Y-133649836D01*
G37*
G36*
X205411725Y-133488264D02*
G01*
X205429516Y-133500687D01*
X205451593Y-133523722D01*
X205451508Y-133546080D01*
X205445280Y-133559313D01*
X205417700Y-133583766D01*
X205378453Y-133591470D01*
X205340678Y-133581294D01*
X205326750Y-133569514D01*
X205315801Y-133537836D01*
X205317906Y-133510887D01*
X205337108Y-133481844D01*
X205370549Y-133474105D01*
X205411725Y-133488264D01*
G37*
G36*
X205680217Y-134116314D02*
G01*
X205707952Y-134144873D01*
X205720398Y-134178706D01*
X205719822Y-134187477D01*
X205703415Y-134208202D01*
X205671996Y-134219183D01*
X205637989Y-134218941D01*
X205613819Y-134205997D01*
X205610715Y-134200464D01*
X205606401Y-134164091D01*
X205616242Y-134129221D01*
X205635992Y-134107096D01*
X205647046Y-134104292D01*
X205680217Y-134116314D01*
G37*
G36*
X205681607Y-133310029D02*
G01*
X205704688Y-133342416D01*
X205707665Y-133364130D01*
X205699321Y-133396851D01*
X205679976Y-133422758D01*
X205663319Y-133430085D01*
X205648005Y-133420460D01*
X205623133Y-133397050D01*
X205620896Y-133394691D01*
X205598631Y-133358263D01*
X205597716Y-133325208D01*
X205616671Y-133303097D01*
X205639766Y-133298175D01*
X205681607Y-133310029D01*
G37*
G36*
X205684385Y-133803063D02*
G01*
X205712729Y-133823059D01*
X205720052Y-133853159D01*
X205702444Y-133887425D01*
X205699290Y-133890723D01*
X205675994Y-133909720D01*
X205654790Y-133909963D01*
X205623637Y-133891393D01*
X205622152Y-133890355D01*
X205595886Y-133860042D01*
X205594028Y-133829185D01*
X205615065Y-133806009D01*
X205638932Y-133799107D01*
X205684385Y-133803063D01*
G37*
G36*
X206077763Y-133052235D02*
G01*
X206109676Y-133072044D01*
X206128145Y-133095591D01*
X206132708Y-133107639D01*
X206121414Y-133130494D01*
X206096068Y-133153750D01*
X206069475Y-133166060D01*
X206066538Y-133166265D01*
X206043642Y-133155289D01*
X206024311Y-133134686D01*
X206011170Y-133098490D01*
X206020330Y-133069283D01*
X206044845Y-133052165D01*
X206077763Y-133052235D01*
G37*
G36*
X206753205Y-133227721D02*
G01*
X206786903Y-133235658D01*
X206801328Y-133256148D01*
X206804224Y-133272526D01*
X206803814Y-133301496D01*
X206787528Y-133311705D01*
X206767583Y-133312608D01*
X206729822Y-133308143D01*
X206706414Y-133299781D01*
X206693541Y-133275792D01*
X206696674Y-133255200D01*
X206710530Y-133232673D01*
X206738242Y-133226764D01*
X206753205Y-133227721D01*
G37*
G36*
X206790693Y-132840189D02*
G01*
X206805728Y-132865149D01*
X206802660Y-132893371D01*
X206778565Y-132916586D01*
X206753963Y-132928764D01*
X206737465Y-132928243D01*
X206714050Y-132913484D01*
X206708193Y-132909373D01*
X206685877Y-132881619D01*
X206690877Y-132853385D01*
X206721938Y-132830744D01*
X206724678Y-132829668D01*
X206762147Y-132825894D01*
X206790693Y-132840189D01*
G37*
G36*
X206807450Y-134551892D02*
G01*
X206820290Y-134570911D01*
X206826820Y-134597798D01*
X206813218Y-134627421D01*
X206805528Y-134637694D01*
X206773480Y-134668870D01*
X206747340Y-134671808D01*
X206725218Y-134646530D01*
X206721328Y-134638571D01*
X206706098Y-134593000D01*
X206711461Y-134562782D01*
X206734777Y-134543379D01*
X206775159Y-134533562D01*
X206807450Y-134551892D01*
G37*
G36*
X206986814Y-133197977D02*
G01*
X207004480Y-133225827D01*
X207006140Y-133263311D01*
X207004125Y-133270927D01*
X206984782Y-133290917D01*
X206952765Y-133298911D01*
X206923346Y-133291762D01*
X206919283Y-133288404D01*
X206909820Y-133261909D01*
X206913370Y-133226497D01*
X206928079Y-133198512D01*
X206929639Y-133197121D01*
X206959685Y-133186247D01*
X206986814Y-133197977D01*
G37*
G36*
X207064918Y-134190615D02*
G01*
X207093865Y-134203058D01*
X207132554Y-134230235D01*
X207142674Y-134262237D01*
X207125691Y-134299633D01*
X207109766Y-134316056D01*
X207091947Y-134313002D01*
X207074506Y-134301683D01*
X207036592Y-134266255D01*
X207019504Y-134230437D01*
X207026109Y-134200385D01*
X207026893Y-134199406D01*
X207042399Y-134187857D01*
X207064918Y-134190615D01*
G37*
G36*
X207101768Y-133032496D02*
G01*
X207120770Y-133053621D01*
X207126845Y-133087531D01*
X207126576Y-133090304D01*
X207115860Y-133121080D01*
X207087476Y-133133492D01*
X207081727Y-133134261D01*
X207052151Y-133133411D01*
X207041955Y-133117513D01*
X207041422Y-133107649D01*
X207048479Y-133068149D01*
X207056694Y-133047862D01*
X207077767Y-133028972D01*
X207101768Y-133032496D01*
G37*
G36*
X207211489Y-133778229D02*
G01*
X207224970Y-133795423D01*
X207229223Y-133822151D01*
X207230388Y-133853919D01*
X207221342Y-133866048D01*
X207195618Y-133861784D01*
X207168844Y-133852476D01*
X207138423Y-133834422D01*
X207131950Y-133807970D01*
X207132202Y-133805999D01*
X207143058Y-133782612D01*
X207171785Y-133774714D01*
X207180660Y-133774517D01*
X207211489Y-133778229D01*
G37*
G36*
X207255914Y-132808679D02*
G01*
X207278697Y-132829359D01*
X207286464Y-132861153D01*
X207277422Y-132896121D01*
X207249779Y-132926323D01*
X207247213Y-132927984D01*
X207222948Y-132937605D01*
X207201434Y-132927139D01*
X207188422Y-132914192D01*
X207162576Y-132873799D01*
X207165049Y-132840215D01*
X207195266Y-132815395D01*
X207219908Y-132807053D01*
X207255914Y-132808679D01*
G37*
G36*
X207413926Y-133318539D02*
G01*
X207444375Y-133336810D01*
X207450433Y-133366030D01*
X207431276Y-133399717D01*
X207425029Y-133405807D01*
X207405228Y-133420280D01*
X207388520Y-133416940D01*
X207363947Y-133393527D01*
X207363564Y-133393120D01*
X207341489Y-133366822D01*
X207338835Y-133349842D01*
X207352461Y-133332615D01*
X207387886Y-133315962D01*
X207413926Y-133318539D01*
G37*
G36*
X207614685Y-133277706D02*
G01*
X207655253Y-133297381D01*
X207667739Y-133325390D01*
X207652311Y-133362242D01*
X207645530Y-133371164D01*
X207618171Y-133404951D01*
X207570888Y-133362556D01*
X207542207Y-133334588D01*
X207533216Y-133315811D01*
X207540568Y-133297286D01*
X207544423Y-133291843D01*
X207563522Y-133273587D01*
X207589041Y-133271558D01*
X207614685Y-133277706D01*
G37*
G36*
X207769336Y-132645927D02*
G01*
X207785980Y-132656213D01*
X207801273Y-132686069D01*
X207800891Y-132719878D01*
X207785660Y-132744223D01*
X207780384Y-132746982D01*
X207749741Y-132755021D01*
X207724808Y-132746996D01*
X207708940Y-132736174D01*
X207690001Y-132708270D01*
X207690546Y-132675338D01*
X207707619Y-132648466D01*
X207734961Y-132638625D01*
X207769336Y-132645927D01*
G37*
G36*
X207786404Y-124808471D02*
G01*
X207778023Y-124837342D01*
X207759177Y-124877003D01*
X207734154Y-124918227D01*
X207703012Y-124958489D01*
X207682481Y-124971524D01*
X207672612Y-124957312D01*
X207671658Y-124943149D01*
X207681350Y-124897575D01*
X207706030Y-124852372D01*
X207739106Y-124816284D01*
X207773986Y-124798057D01*
X207781607Y-124797310D01*
X207786404Y-124808471D01*
G37*
G36*
X207828879Y-132989811D02*
G01*
X207830258Y-132991087D01*
X207851789Y-133017537D01*
X207850979Y-133041679D01*
X207847163Y-133049714D01*
X207820624Y-133072592D01*
X207783906Y-133076820D01*
X207750069Y-133061609D01*
X207744581Y-133055906D01*
X207733451Y-133030233D01*
X207742472Y-132997280D01*
X207764429Y-132967450D01*
X207792345Y-132965023D01*
X207828879Y-132989811D01*
G37*
G36*
X207900116Y-133217603D02*
G01*
X207912243Y-133232370D01*
X207925740Y-133272952D01*
X207915454Y-133308063D01*
X207886913Y-133332435D01*
X207845647Y-133340797D01*
X207807232Y-133332439D01*
X207792919Y-133312749D01*
X207789733Y-133277282D01*
X207798007Y-133237516D01*
X207804084Y-133223929D01*
X207830541Y-133199948D01*
X207865748Y-133198089D01*
X207900116Y-133217603D01*
G37*
G36*
X207945495Y-133482918D02*
G01*
X207960822Y-133513572D01*
X207960701Y-133546681D01*
X207941042Y-133573384D01*
X207936442Y-133576136D01*
X207911472Y-133588402D01*
X207895417Y-133587675D01*
X207875632Y-133576846D01*
X207861176Y-133553831D01*
X207858768Y-133518278D01*
X207867287Y-133483840D01*
X207884869Y-133464435D01*
X207918813Y-133463585D01*
X207945495Y-133482918D01*
G37*
G36*
X208007920Y-133063577D02*
G01*
X208003524Y-133093521D01*
X207996976Y-133129888D01*
X207994110Y-133152989D01*
X207994105Y-133153441D01*
X207985394Y-133165724D01*
X207965347Y-133158782D01*
X207950804Y-133145087D01*
X207936492Y-133110652D01*
X207942923Y-133076728D01*
X207966912Y-133054330D01*
X207977875Y-133051383D01*
X208001226Y-133050780D01*
X208007920Y-133063577D01*
G37*
G36*
X208008756Y-132559398D02*
G01*
X208037383Y-132579175D01*
X208038075Y-132579709D01*
X208062264Y-132603155D01*
X208064049Y-132623458D01*
X208058489Y-132634346D01*
X208030357Y-132660856D01*
X207999133Y-132661451D01*
X207980128Y-132646773D01*
X207970914Y-132621785D01*
X207970693Y-132589236D01*
X207978091Y-132561537D01*
X207990720Y-132551011D01*
X208008756Y-132559398D01*
G37*
G36*
X208179397Y-133099524D02*
G01*
X208205995Y-133112500D01*
X208212042Y-133138928D01*
X208211215Y-133148456D01*
X208202123Y-133177802D01*
X208177726Y-133190382D01*
X208161408Y-133192663D01*
X208120024Y-133188686D01*
X208097907Y-133175046D01*
X208081763Y-133140962D01*
X208090353Y-133113742D01*
X208119229Y-133097510D01*
X208163940Y-133096391D01*
X208179397Y-133099524D01*
G37*
G36*
X208351710Y-133455656D02*
G01*
X208385109Y-133479540D01*
X208406907Y-133512653D01*
X208409701Y-133549002D01*
X208405017Y-133561013D01*
X208377738Y-133586123D01*
X208340375Y-133588293D01*
X208300780Y-133567768D01*
X208289793Y-133557387D01*
X208262197Y-133515703D01*
X208263176Y-133479963D01*
X208279719Y-133459557D01*
X208314113Y-133446997D01*
X208351710Y-133455656D01*
G37*
G36*
X208395394Y-128251034D02*
G01*
X208429194Y-128273308D01*
X208458708Y-128299523D01*
X208471411Y-128317949D01*
X208473189Y-128352105D01*
X208457182Y-128370591D01*
X208431021Y-128372346D01*
X208402337Y-128356303D01*
X208382883Y-128330294D01*
X208366496Y-128290401D01*
X208360586Y-128258258D01*
X208366432Y-128242182D01*
X208369252Y-128241626D01*
X208395394Y-128251034D01*
G37*
G36*
X208469408Y-132574437D02*
G01*
X208482250Y-132578914D01*
X208520147Y-132601447D01*
X208531860Y-132633348D01*
X208522706Y-132672740D01*
X208498868Y-132704330D01*
X208465343Y-132710619D01*
X208429103Y-132690424D01*
X208427523Y-132688877D01*
X208406349Y-132649842D01*
X208413040Y-132606314D01*
X208423248Y-132589264D01*
X208442540Y-132572413D01*
X208469408Y-132574437D01*
G37*
G36*
X208575569Y-132323423D02*
G01*
X208610628Y-132343777D01*
X208634621Y-132371819D01*
X208638998Y-132388232D01*
X208626852Y-132415239D01*
X208597444Y-132430796D01*
X208561316Y-132432730D01*
X208529014Y-132418868D01*
X208522414Y-132412254D01*
X208509605Y-132380548D01*
X208513304Y-132346491D01*
X208531055Y-132322575D01*
X208540786Y-132318779D01*
X208575569Y-132323423D01*
G37*
G36*
X208578544Y-132820169D02*
G01*
X208599536Y-132844831D01*
X208602408Y-132849169D01*
X208617246Y-132886446D01*
X208610437Y-132922452D01*
X208591465Y-132953138D01*
X208565611Y-132957422D01*
X208529248Y-132935736D01*
X208525409Y-132932586D01*
X208497167Y-132898017D01*
X208498134Y-132865607D01*
X208525006Y-132837322D01*
X208557328Y-132818221D01*
X208578544Y-132820169D01*
G37*
G36*
X208734382Y-132680220D02*
G01*
X208744941Y-132707997D01*
X208727628Y-132744309D01*
X208725949Y-132746478D01*
X208700873Y-132775098D01*
X208681451Y-132782900D01*
X208656694Y-132773196D01*
X208649990Y-132769361D01*
X208627428Y-132743167D01*
X208624879Y-132710105D01*
X208638529Y-132679327D01*
X208664562Y-132659983D01*
X208695598Y-132659967D01*
X208734382Y-132680220D01*
G37*
G36*
X208796557Y-132478836D02*
G01*
X208818699Y-132493126D01*
X208828119Y-132520100D01*
X208829535Y-132550213D01*
X208824645Y-132591072D01*
X208807675Y-132608498D01*
X208775171Y-132603820D01*
X208737047Y-132585809D01*
X208706211Y-132557746D01*
X208698742Y-132525632D01*
X208710810Y-132496352D01*
X208738584Y-132476789D01*
X208778234Y-132473830D01*
X208796557Y-132478836D01*
G37*
G36*
X208991589Y-132623077D02*
G01*
X209013447Y-132644971D01*
X209026963Y-132686768D01*
X209011527Y-132727519D01*
X208986020Y-132753729D01*
X208969229Y-132760350D01*
X208948782Y-132749495D01*
X208919114Y-132718865D01*
X208891416Y-132683623D01*
X208882507Y-132659133D01*
X208888526Y-132637944D01*
X208915632Y-132613925D01*
X208953562Y-132609171D01*
X208991589Y-132623077D01*
G37*
G36*
X209088572Y-132497417D02*
G01*
X209112104Y-132517922D01*
X209117100Y-132551955D01*
X209110480Y-132573105D01*
X209089012Y-132602705D01*
X209062262Y-132605166D01*
X209027726Y-132580444D01*
X209018962Y-132571489D01*
X208996262Y-132545549D01*
X208992712Y-132530560D01*
X209007089Y-132516394D01*
X209011880Y-132512863D01*
X209052998Y-132494407D01*
X209088572Y-132497417D01*
G37*
G36*
X209152993Y-131489646D02*
G01*
X209169605Y-131499306D01*
X209173841Y-131524491D01*
X209173966Y-131539376D01*
X209170810Y-131574732D01*
X209157130Y-131590479D01*
X209136560Y-131595032D01*
X209093751Y-131586554D01*
X209072984Y-131570473D01*
X209050775Y-131533946D01*
X209055773Y-131506425D01*
X209086538Y-131490698D01*
X209115540Y-131488077D01*
X209152993Y-131489646D01*
G37*
G36*
X209337510Y-131972347D02*
G01*
X209366341Y-131986369D01*
X209400604Y-132009406D01*
X209413059Y-132033552D01*
X209412851Y-132051387D01*
X209397509Y-132081910D01*
X209365702Y-132094238D01*
X209325111Y-132086802D01*
X209302212Y-132073996D01*
X209274490Y-132041377D01*
X209272762Y-132005597D01*
X209292344Y-131978143D01*
X209312355Y-131967781D01*
X209337510Y-131972347D01*
G37*
G36*
X209418589Y-129528710D02*
G01*
X209440249Y-129561762D01*
X209442509Y-129600145D01*
X209431896Y-129632380D01*
X209405135Y-129645079D01*
X209401042Y-129645632D01*
X209365796Y-129642212D01*
X209346079Y-129631708D01*
X209328476Y-129598499D01*
X209329529Y-129561482D01*
X209346320Y-129530865D01*
X209375932Y-129516854D01*
X209378933Y-129516756D01*
X209418589Y-129528710D01*
G37*
G36*
X209507908Y-131175732D02*
G01*
X209541822Y-131183428D01*
X209556467Y-131203251D01*
X209559763Y-131221479D01*
X209555266Y-131263965D01*
X209535463Y-131293139D01*
X209507368Y-131305331D01*
X209477997Y-131296871D01*
X209459041Y-131274191D01*
X209449597Y-131235880D01*
X209451699Y-131207344D01*
X209462984Y-131182326D01*
X209485967Y-131174658D01*
X209507908Y-131175732D01*
G37*
G36*
X209538222Y-131606770D02*
G01*
X209570772Y-131632579D01*
X209589566Y-131673956D01*
X209591681Y-131694894D01*
X209585220Y-131721668D01*
X209560401Y-131729815D01*
X209555040Y-131729912D01*
X209517128Y-131719718D01*
X209489085Y-131700599D01*
X209463499Y-131662948D01*
X209462941Y-131630118D01*
X209486871Y-131607454D01*
X209498886Y-131603400D01*
X209538222Y-131606770D01*
G37*
G36*
X209581069Y-129671909D02*
G01*
X209601692Y-129698292D01*
X209603761Y-129738143D01*
X209596208Y-129773548D01*
X209578112Y-129789009D01*
X209562265Y-129792198D01*
X209527019Y-129788779D01*
X209507302Y-129778274D01*
X209490015Y-129745586D01*
X209490657Y-129708735D01*
X209506453Y-129678005D01*
X209534624Y-129663680D01*
X209538287Y-129663547D01*
X209581069Y-129671909D01*
G37*
G36*
X209606469Y-129494813D02*
G01*
X209627978Y-129510895D01*
X209635489Y-129545457D01*
X209635651Y-129554385D01*
X209629131Y-129591533D01*
X209607597Y-129604765D01*
X209568086Y-129595808D01*
X209566032Y-129594989D01*
X209552930Y-129576346D01*
X209548087Y-129543698D01*
X209552004Y-129511306D01*
X209562499Y-129494690D01*
X209587393Y-129491190D01*
X209606469Y-129494813D01*
G37*
G36*
X209704915Y-130874326D02*
G01*
X209728077Y-130902941D01*
X209734723Y-130950998D01*
X209731597Y-130976637D01*
X209720544Y-131011807D01*
X209701251Y-131025333D01*
X209689049Y-131026392D01*
X209654098Y-131016644D01*
X209623758Y-130996508D01*
X209596301Y-130957371D01*
X209596952Y-130919683D01*
X209624256Y-130887985D01*
X209669040Y-130868294D01*
X209704915Y-130874326D01*
G37*
G36*
X209767654Y-128997831D02*
G01*
X209790075Y-129009676D01*
X209808922Y-129030291D01*
X209808058Y-129057673D01*
X209803869Y-129070769D01*
X209785208Y-129106865D01*
X209762711Y-129114388D01*
X209732936Y-129094077D01*
X209726411Y-129087385D01*
X209700737Y-129049790D01*
X209694335Y-129016641D01*
X209707090Y-128994520D01*
X209728118Y-128989116D01*
X209767654Y-128997831D01*
G37*
G36*
X209774922Y-130739286D02*
G01*
X209803323Y-130759192D01*
X209812499Y-130795571D01*
X209801170Y-130841717D01*
X209796359Y-130851476D01*
X209778939Y-130874926D01*
X209759575Y-130875151D01*
X209731599Y-130851622D01*
X209726146Y-130845904D01*
X209698435Y-130803853D01*
X209694975Y-130767849D01*
X209713302Y-130743275D01*
X209750953Y-130735517D01*
X209774922Y-130739286D01*
G37*
G36*
X209798515Y-131567830D02*
G01*
X209822836Y-131578624D01*
X209858533Y-131599563D01*
X209874150Y-131622555D01*
X209877486Y-131656629D01*
X209869167Y-131696659D01*
X209845494Y-131712466D01*
X209808391Y-131703506D01*
X209778554Y-131684575D01*
X209745371Y-131646018D01*
X209738248Y-131612301D01*
X209743808Y-131575025D01*
X209762761Y-131560653D01*
X209798515Y-131567830D01*
G37*
G36*
X209864104Y-131013850D02*
G01*
X209875215Y-131023882D01*
X209897376Y-131063157D01*
X209891535Y-131099173D01*
X209881883Y-131111401D01*
X209854709Y-131127494D01*
X209824827Y-131119200D01*
X209799638Y-131099105D01*
X209774194Y-131070866D01*
X209768977Y-131045970D01*
X209776458Y-131020263D01*
X209797027Y-131001131D01*
X209829953Y-130999130D01*
X209864104Y-131013850D01*
G37*
G36*
X209934194Y-129926488D02*
G01*
X209949385Y-129954422D01*
X209953141Y-129984276D01*
X209948264Y-129998242D01*
X209924129Y-130019016D01*
X209892932Y-130027618D01*
X209867778Y-130021202D01*
X209863764Y-130016595D01*
X209859958Y-129988428D01*
X209868788Y-129950873D01*
X209886196Y-129918638D01*
X209892600Y-129912106D01*
X209913342Y-129909405D01*
X209934194Y-129926488D01*
G37*
G36*
X209970468Y-130176022D02*
G01*
X209976419Y-130178802D01*
X209994608Y-130202394D01*
X210002048Y-130240507D01*
X209997906Y-130280080D01*
X209984480Y-130305284D01*
X209954600Y-130321746D01*
X209923650Y-130310023D01*
X209909071Y-130296069D01*
X209888052Y-130257751D01*
X209887676Y-130219633D01*
X209903949Y-130188670D01*
X209932878Y-130171815D01*
X209970468Y-130176022D01*
G37*
G36*
X210077841Y-131268425D02*
G01*
X210087706Y-131285912D01*
X210101300Y-131322409D01*
X210104664Y-131345074D01*
X210098156Y-131374806D01*
X210083015Y-131401313D01*
X210065820Y-131415272D01*
X210056628Y-131413170D01*
X210048918Y-131389987D01*
X210047627Y-131350844D01*
X210052484Y-131308319D01*
X210059423Y-131283211D01*
X210068862Y-131263454D01*
X210077841Y-131268425D01*
G37*
G36*
X210089883Y-130961183D02*
G01*
X210110632Y-130972287D01*
X210127772Y-130990384D01*
X210130865Y-131015808D01*
X210124722Y-131048531D01*
X210108846Y-131093451D01*
X210089272Y-131109326D01*
X210065889Y-131096202D01*
X210053235Y-131079548D01*
X210037691Y-131041444D01*
X210034807Y-131001362D01*
X210043941Y-130969511D01*
X210060978Y-130956475D01*
X210089883Y-130961183D01*
G37*
G36*
X210200663Y-130390074D02*
G01*
X210213958Y-130410793D01*
X210218205Y-130447589D01*
X210210729Y-130496055D01*
X210209596Y-130500123D01*
X210200237Y-130525387D01*
X210194546Y-130526835D01*
X210193926Y-130521892D01*
X210183349Y-130489271D01*
X210167571Y-130466071D01*
X210151214Y-130437892D01*
X210157626Y-130414491D01*
X210180994Y-130389838D01*
X210200663Y-130390074D01*
G37*
G36*
X202978580Y-132885278D02*
G01*
X202995229Y-132914934D01*
X202996996Y-132919067D01*
X203008067Y-132952084D01*
X203003855Y-132971395D01*
X202988645Y-132985022D01*
X202950970Y-133003330D01*
X202922820Y-132998665D01*
X202915969Y-132991031D01*
X202915444Y-132969556D01*
X202925114Y-132935927D01*
X202940317Y-132901504D01*
X202956392Y-132877650D01*
X202964343Y-132873132D01*
X202978580Y-132885278D01*
G37*
G36*
X203311894Y-133271655D02*
G01*
X203342067Y-133281451D01*
X203365391Y-133297826D01*
X203368374Y-133301840D01*
X203376833Y-133335477D01*
X203363822Y-133362995D01*
X203337180Y-133378786D01*
X203304745Y-133377241D01*
X203282923Y-133362973D01*
X203266786Y-133335714D01*
X203266487Y-133317072D01*
X203273961Y-133288982D01*
X203274659Y-133281346D01*
X203285787Y-133270824D01*
X203311894Y-133271655D01*
G37*
G36*
X203362132Y-134034540D02*
G01*
X203391909Y-134046683D01*
X203410066Y-134079903D01*
X203411803Y-134085680D01*
X203415673Y-134133736D01*
X203396962Y-134165320D01*
X203357499Y-134177522D01*
X203354064Y-134177575D01*
X203329644Y-134171496D01*
X203312770Y-134148501D01*
X203301895Y-134117797D01*
X203293595Y-134069963D01*
X203305224Y-134042667D01*
X203338597Y-134033400D01*
X203362132Y-134034540D01*
G37*
G36*
X203479171Y-133014226D02*
G01*
X203507684Y-133036535D01*
X203519141Y-133064108D01*
X203517337Y-133074086D01*
X203510024Y-133096545D01*
X203509165Y-133101509D01*
X203497956Y-133108679D01*
X203472268Y-133105614D01*
X203444011Y-133094844D01*
X203429601Y-133084607D01*
X203408501Y-133051850D01*
X203408834Y-133023244D01*
X203429366Y-133006603D01*
X203442163Y-133005042D01*
X203479171Y-133014226D01*
G37*
G36*
X203542189Y-134012552D02*
G01*
X203574456Y-134038402D01*
X203594801Y-134069164D01*
X203597105Y-134081108D01*
X203586648Y-134122215D01*
X203560513Y-134145912D01*
X203526554Y-134148292D01*
X203497440Y-134130674D01*
X203485863Y-134105242D01*
X203480022Y-134065289D01*
X203479852Y-134057391D01*
X203482596Y-134020217D01*
X203493544Y-134004318D01*
X203509165Y-134001695D01*
X203542189Y-134012552D01*
G37*
G36*
X204686038Y-133586880D02*
G01*
X204707751Y-133599468D01*
X204734574Y-133630552D01*
X204737409Y-133663939D01*
X204715871Y-133691130D01*
X204711975Y-133693390D01*
X204687029Y-133705313D01*
X204668997Y-133704760D01*
X204646215Y-133689097D01*
X204629339Y-133674726D01*
X204601681Y-133639520D01*
X204598425Y-133608426D01*
X204614669Y-133586150D01*
X204645507Y-133577399D01*
X204686038Y-133586880D01*
G37*
G36*
X205333782Y-133161049D02*
G01*
X205366518Y-133174721D01*
X205392422Y-133194563D01*
X205399875Y-133209742D01*
X205389124Y-133226273D01*
X205364786Y-133247796D01*
X205338734Y-133264775D01*
X205326262Y-133268862D01*
X205309871Y-133259853D01*
X205300210Y-133251274D01*
X205284793Y-133221114D01*
X205285545Y-133187173D01*
X205301517Y-133162806D01*
X205306672Y-133160173D01*
X205333782Y-133161049D01*
G37*
G36*
X205636468Y-133511994D02*
G01*
X205665208Y-133530960D01*
X205688103Y-133554234D01*
X205689487Y-133577431D01*
X205681803Y-133596915D01*
X205654494Y-133627309D01*
X205616533Y-133635246D01*
X205577576Y-133619408D01*
X205569474Y-133612247D01*
X205550786Y-133585259D01*
X205546442Y-133569324D01*
X205557970Y-133540687D01*
X205584167Y-133514474D01*
X205611820Y-133503369D01*
X205636468Y-133511994D01*
G37*
G36*
X206869677Y-133095210D02*
G01*
X206891744Y-133111652D01*
X206894855Y-133120256D01*
X206885175Y-133137411D01*
X206861774Y-133162915D01*
X206860691Y-133163938D01*
X206836053Y-133184891D01*
X206820457Y-133186252D01*
X206802100Y-133169042D01*
X206802064Y-133169003D01*
X206780514Y-133132848D01*
X206783126Y-133102852D01*
X206806361Y-133085829D01*
X206837001Y-133084963D01*
X206869677Y-133095210D01*
G37*
G36*
X207212380Y-133175563D02*
G01*
X207245097Y-133191211D01*
X207269907Y-133213776D01*
X207275928Y-133229297D01*
X207266560Y-133258903D01*
X207244651Y-133289754D01*
X207219497Y-133310165D01*
X207209480Y-133312832D01*
X207186597Y-133301626D01*
X207166841Y-133279526D01*
X207153007Y-133240062D01*
X207157951Y-133201900D01*
X207179829Y-133176243D01*
X207184169Y-133174275D01*
X207212380Y-133175563D01*
G37*
G36*
X207216991Y-134297952D02*
G01*
X207254810Y-134332953D01*
X207268719Y-134361958D01*
X207261338Y-134391436D01*
X207257508Y-134398005D01*
X207231196Y-134422560D01*
X207200348Y-134418562D01*
X207164405Y-134385914D01*
X207160906Y-134381573D01*
X207139321Y-134351495D01*
X207135210Y-134330863D01*
X207146934Y-134306895D01*
X207150606Y-134301231D01*
X207174717Y-134264433D01*
X207216991Y-134297952D01*
G37*
G36*
X207249880Y-133946607D02*
G01*
X207279709Y-133973171D01*
X207298303Y-134006380D01*
X207298763Y-134037179D01*
X207296458Y-134041657D01*
X207274143Y-134066132D01*
X207246636Y-134068063D01*
X207217302Y-134055996D01*
X207190541Y-134034524D01*
X207181057Y-134000211D01*
X207180660Y-133986606D01*
X207183540Y-133952014D01*
X207196102Y-133937951D01*
X207215720Y-133935740D01*
X207249880Y-133946607D01*
G37*
G36*
X207390276Y-133703856D02*
G01*
X207416604Y-133733019D01*
X207436832Y-133788221D01*
X207438759Y-133796395D01*
X207447318Y-133842926D01*
X207446287Y-133862806D01*
X207435848Y-133855585D01*
X207423346Y-133834735D01*
X207395330Y-133800164D01*
X207369583Y-133780982D01*
X207342158Y-133756154D01*
X207335929Y-133728005D01*
X207352103Y-133705641D01*
X207359142Y-133702263D01*
X207390276Y-133703856D01*
G37*
G36*
X207454134Y-133600117D02*
G01*
X207485120Y-133618412D01*
X207512450Y-133642966D01*
X207525046Y-133665541D01*
X207525091Y-133666631D01*
X207513754Y-133681961D01*
X207496812Y-133693352D01*
X207473346Y-133699503D01*
X207451595Y-133685639D01*
X207438186Y-133669906D01*
X207413661Y-133633566D01*
X207410644Y-133611107D01*
X207428572Y-133597115D01*
X207430569Y-133596323D01*
X207454134Y-133600117D01*
G37*
G36*
X207560863Y-132727325D02*
G01*
X207562432Y-132730430D01*
X207563659Y-132760375D01*
X207552703Y-132794796D01*
X207534829Y-132821509D01*
X207519750Y-132829162D01*
X207494184Y-132820425D01*
X207464424Y-132800767D01*
X207441461Y-132776694D01*
X207440951Y-132755448D01*
X207445958Y-132745805D01*
X207469810Y-132726030D01*
X207504684Y-132715333D01*
X207538922Y-132715251D01*
X207560863Y-132727325D01*
G37*
G36*
X207988871Y-124816030D02*
G01*
X207987306Y-124845979D01*
X207967204Y-124886691D01*
X207936379Y-124925871D01*
X207896209Y-124961135D01*
X207863685Y-124972139D01*
X207841571Y-124958182D01*
X207838042Y-124950842D01*
X207840630Y-124923787D01*
X207858584Y-124886203D01*
X207885670Y-124847378D01*
X207915654Y-124816598D01*
X207936389Y-124804349D01*
X207971899Y-124800827D01*
X207988871Y-124816030D01*
G37*
G36*
X208118932Y-133513950D02*
G01*
X208154528Y-133529000D01*
X208178125Y-133551899D01*
X208179249Y-133554428D01*
X208178030Y-133582042D01*
X208163930Y-133613407D01*
X208134780Y-133640753D01*
X208101086Y-133649945D01*
X208072396Y-133640203D01*
X208060455Y-133621868D01*
X208056961Y-133584949D01*
X208064456Y-133546193D01*
X208079753Y-133518584D01*
X208087032Y-133513683D01*
X208118932Y-133513950D01*
G37*
G36*
X208151401Y-130745402D02*
G01*
X208183996Y-130775609D01*
X208210582Y-130814543D01*
X208224310Y-130852868D01*
X208222804Y-130873820D01*
X208202873Y-130891421D01*
X208170920Y-130891767D01*
X208138395Y-130875167D01*
X208134390Y-130871450D01*
X208122769Y-130848728D01*
X208114410Y-130813216D01*
X208110414Y-130775247D01*
X208111883Y-130745153D01*
X208119650Y-130733259D01*
X208151401Y-130745402D01*
G37*
G36*
X208170068Y-132265404D02*
G01*
X208200355Y-132284053D01*
X208213926Y-132306138D01*
X208213955Y-132307095D01*
X208202037Y-132334146D01*
X208174248Y-132360011D01*
X208142536Y-132374264D01*
X208136369Y-132374806D01*
X208110969Y-132363104D01*
X208096701Y-132345492D01*
X208090116Y-132310725D01*
X208101304Y-132278059D01*
X208125304Y-132258940D01*
X208134822Y-132257552D01*
X208170068Y-132265404D01*
G37*
G36*
X208248979Y-127594250D02*
G01*
X208277108Y-127624750D01*
X208303686Y-127664541D01*
X208322679Y-127704588D01*
X208328056Y-127735821D01*
X208316287Y-127765381D01*
X208295479Y-127769741D01*
X208269076Y-127750223D01*
X208240524Y-127708151D01*
X208236661Y-127700753D01*
X208210139Y-127642531D01*
X208200879Y-127605176D01*
X208208629Y-127586048D01*
X208225336Y-127582076D01*
X208248979Y-127594250D01*
G37*
G36*
X208273535Y-133638280D02*
G01*
X208299134Y-133673562D01*
X208306919Y-133699580D01*
X208294813Y-133722952D01*
X208282063Y-133735853D01*
X208254093Y-133759914D01*
X208234345Y-133764209D01*
X208209990Y-133749371D01*
X208198268Y-133739989D01*
X208176457Y-133718606D01*
X208173205Y-133697129D01*
X208183766Y-133666705D01*
X208209082Y-133630370D01*
X208240566Y-133620987D01*
X208273535Y-133638280D01*
G37*
G36*
X208452075Y-133304028D02*
G01*
X208506862Y-133324125D01*
X208539245Y-133356155D01*
X208546382Y-133396747D01*
X208542711Y-133411448D01*
X208519372Y-133446224D01*
X208486311Y-133455187D01*
X208449156Y-133437498D01*
X208438202Y-133427031D01*
X208411259Y-133389910D01*
X208402215Y-133349148D01*
X208402755Y-133321992D01*
X208408691Y-133303927D01*
X208428763Y-133300322D01*
X208452075Y-133304028D01*
G37*
G36*
X208628637Y-133164479D02*
G01*
X208672925Y-133196802D01*
X208692187Y-133224955D01*
X208688985Y-133254671D01*
X208677957Y-133274710D01*
X208656661Y-133302952D01*
X208636665Y-133309986D01*
X208604685Y-133300031D01*
X208601847Y-133298886D01*
X208560969Y-133274695D01*
X208546327Y-133242715D01*
X208555701Y-133197273D01*
X208558914Y-133189248D01*
X208581634Y-133134873D01*
X208628637Y-133164479D01*
G37*
G36*
X208863922Y-133099127D02*
G01*
X208915081Y-133117728D01*
X208942639Y-133145989D01*
X208944706Y-133179994D01*
X208919985Y-133215292D01*
X208891990Y-133235250D01*
X208867869Y-133234625D01*
X208838810Y-133211902D01*
X208826586Y-133199243D01*
X208802412Y-133168881D01*
X208797769Y-133144875D01*
X208804666Y-133124689D01*
X208821738Y-133100839D01*
X208848393Y-133096618D01*
X208863922Y-133099127D01*
G37*
G36*
X208888789Y-132785528D02*
G01*
X208924925Y-132816816D01*
X208939173Y-132855949D01*
X208932131Y-132887789D01*
X208904849Y-132912089D01*
X208865525Y-132914212D01*
X208820985Y-132894411D01*
X208806298Y-132883102D01*
X208780823Y-132859117D01*
X208775492Y-132841250D01*
X208787926Y-132816858D01*
X208792510Y-132809819D01*
X208822642Y-132777741D01*
X208857077Y-132772947D01*
X208888789Y-132785528D01*
G37*
G36*
X209070251Y-132936607D02*
G01*
X209080101Y-132942247D01*
X209114462Y-132972519D01*
X209119754Y-133005143D01*
X209095865Y-133039412D01*
X209064299Y-133059042D01*
X209030108Y-133057653D01*
X208987120Y-133036680D01*
X208956614Y-133015064D01*
X208949202Y-132994773D01*
X208962771Y-132965232D01*
X208970459Y-132953228D01*
X208996758Y-132924854D01*
X209027700Y-132919546D01*
X209070251Y-132936607D01*
G37*
G36*
X209245949Y-132639062D02*
G01*
X209272446Y-132660252D01*
X209276850Y-132668842D01*
X209277300Y-132702288D01*
X209263729Y-132734888D01*
X209242113Y-132754399D01*
X209234349Y-132755879D01*
X209210350Y-132745866D01*
X209190895Y-132729076D01*
X209172191Y-132695944D01*
X209167196Y-132660271D01*
X209177205Y-132634347D01*
X209180621Y-132631714D01*
X209210451Y-132627663D01*
X209245949Y-132639062D01*
G37*
G36*
X209302575Y-132456470D02*
G01*
X209335601Y-132475236D01*
X209366411Y-132501606D01*
X209384841Y-132527859D01*
X209386488Y-132535854D01*
X209374670Y-132570214D01*
X209345464Y-132590044D01*
X209308244Y-132592777D01*
X209272383Y-132575847D01*
X209265405Y-132569006D01*
X209251375Y-132537515D01*
X209250866Y-132498891D01*
X209262542Y-132465947D01*
X209277496Y-132453031D01*
X209302575Y-132456470D01*
G37*
G36*
X209459826Y-132305655D02*
G01*
X209492119Y-132334780D01*
X209510736Y-132367752D01*
X209517436Y-132399928D01*
X209504694Y-132421384D01*
X209496942Y-132427529D01*
X209453181Y-132446643D01*
X209413829Y-132436782D01*
X209396088Y-132421286D01*
X209375920Y-132382387D01*
X209374279Y-132339065D01*
X209391286Y-132303949D01*
X209394930Y-132300598D01*
X209424636Y-132292641D01*
X209459826Y-132305655D01*
G37*
G36*
X209619116Y-132473832D02*
G01*
X209617479Y-132502896D01*
X209600649Y-132543650D01*
X209596121Y-132551629D01*
X209567015Y-132590134D01*
X209540974Y-132600282D01*
X209516225Y-132582626D01*
X209512576Y-132577702D01*
X209498676Y-132548185D01*
X209497978Y-132529906D01*
X209515441Y-132510241D01*
X209547721Y-132487349D01*
X209582458Y-132468990D01*
X209604935Y-132462746D01*
X209619116Y-132473832D01*
G37*
G36*
X209665583Y-130476336D02*
G01*
X209671094Y-130478336D01*
X209690224Y-130499304D01*
X209692066Y-130534768D01*
X209676586Y-130575529D01*
X209671462Y-130583431D01*
X209644607Y-130610469D01*
X209616801Y-130611218D01*
X209582896Y-130585464D01*
X209577161Y-130579509D01*
X209554447Y-130540942D01*
X209556484Y-130506440D01*
X209578720Y-130480903D01*
X209616603Y-130469235D01*
X209665583Y-130476336D01*
G37*
G36*
X209694963Y-131950828D02*
G01*
X209729214Y-131985657D01*
X209737151Y-131999010D01*
X209749621Y-132029282D01*
X209743703Y-132051364D01*
X209731048Y-132066873D01*
X209701878Y-132091068D01*
X209673131Y-132092297D01*
X209636155Y-132070480D01*
X209630299Y-132065952D01*
X209598338Y-132029251D01*
X209595672Y-131992538D01*
X209621054Y-131957037D01*
X209657152Y-131940652D01*
X209694963Y-131950828D01*
G37*
G36*
X209709657Y-129158317D02*
G01*
X209732806Y-129183811D01*
X209738248Y-129208966D01*
X209730409Y-129243385D01*
X209715064Y-129258696D01*
X209693825Y-129265915D01*
X209689415Y-129266664D01*
X209675710Y-129261185D01*
X209655472Y-129253034D01*
X209622895Y-129234203D01*
X209615196Y-129209178D01*
X209622243Y-129183317D01*
X209644735Y-129155938D01*
X209677087Y-129148316D01*
X209709657Y-129158317D01*
G37*
G36*
X209822696Y-129613714D02*
G01*
X209846594Y-129643936D01*
X209857088Y-129681260D01*
X209849378Y-129718290D01*
X209837913Y-129733675D01*
X209819027Y-129748265D01*
X209799990Y-129746853D01*
X209771097Y-129727800D01*
X209762209Y-129720885D01*
X209732281Y-129684974D01*
X209724610Y-129646859D01*
X209739765Y-129614537D01*
X209753887Y-129604170D01*
X209790194Y-129597993D01*
X209822696Y-129613714D01*
G37*
G36*
X209970046Y-131672932D02*
G01*
X209978803Y-131676095D01*
X209990815Y-131684378D01*
X209992603Y-131701294D01*
X209984036Y-131734608D01*
X209977487Y-131754853D01*
X209957780Y-131808792D01*
X209943890Y-131834631D01*
X209936158Y-131832275D01*
X209934925Y-131801627D01*
X209937832Y-131765909D01*
X209943834Y-131712998D01*
X209949490Y-131683621D01*
X209957371Y-131672144D01*
X209970046Y-131672932D01*
G37*
G36*
X210006823Y-131127163D02*
G01*
X210029158Y-131158432D01*
X210041170Y-131197301D01*
X210040046Y-131224151D01*
X210022514Y-131253926D01*
X209993758Y-131258552D01*
X209957657Y-131238002D01*
X209943953Y-131224802D01*
X209922004Y-131198535D01*
X209919239Y-131178974D01*
X209933864Y-131152350D01*
X209934408Y-131151519D01*
X209958279Y-131124930D01*
X209980083Y-131114332D01*
X210006823Y-131127163D01*
G37*
G36*
X210024201Y-129539643D02*
G01*
X210045912Y-129568548D01*
X210053169Y-129584501D01*
X210069454Y-129632817D01*
X210074932Y-129670510D01*
X210068952Y-129690853D01*
X210063669Y-129692636D01*
X210047671Y-129682952D01*
X210019153Y-129658088D01*
X209997205Y-129636534D01*
X209962553Y-129592996D01*
X209951626Y-129559306D01*
X209964449Y-129537974D01*
X209996111Y-129531413D01*
X210024201Y-129539643D01*
G37*
G36*
X213035203Y-134381707D02*
G01*
X213068411Y-134398102D01*
X213076343Y-134409121D01*
X213073981Y-134436239D01*
X213050000Y-134459160D01*
X213011996Y-134476068D01*
X212967567Y-134485150D01*
X212924309Y-134484591D01*
X212889819Y-134472578D01*
X212875342Y-134457114D01*
X212866155Y-134419668D01*
X212884047Y-134393072D01*
X212928492Y-134377887D01*
X212985805Y-134374386D01*
X213035203Y-134381707D01*
G37*
G36*
X202770365Y-134080801D02*
G01*
X202803221Y-134091527D01*
X202828992Y-134098615D01*
X202856656Y-134115212D01*
X202863397Y-134147705D01*
X202849978Y-134198606D01*
X202827353Y-134228381D01*
X202797075Y-134235180D01*
X202768868Y-134217980D01*
X202762191Y-134207852D01*
X202751856Y-134174032D01*
X202747060Y-134129742D01*
X202747019Y-134125672D01*
X202749467Y-134090566D01*
X202758831Y-134078696D01*
X202770365Y-134080801D01*
G37*
G36*
X202963150Y-134057867D02*
G01*
X202997094Y-134088245D01*
X203025235Y-134127453D01*
X203039622Y-134166151D01*
X203040152Y-134173517D01*
X203030844Y-134220131D01*
X203007567Y-134246105D01*
X202977292Y-134249770D01*
X202946991Y-134229456D01*
X202929479Y-134200031D01*
X202913894Y-134149772D01*
X202908170Y-134102404D01*
X202912216Y-134065509D01*
X202925940Y-134046672D01*
X202931355Y-134045665D01*
X202963150Y-134057867D01*
G37*
G36*
X203180086Y-133072624D02*
G01*
X203191366Y-133089211D01*
X203194037Y-133125205D01*
X203194047Y-133129624D01*
X203191191Y-133168873D01*
X203180099Y-133187207D01*
X203164734Y-133191999D01*
X203130221Y-133188953D01*
X203115167Y-133182611D01*
X203102246Y-133161944D01*
X203103829Y-133122320D01*
X203105007Y-133115679D01*
X203114236Y-133080359D01*
X203128822Y-133066581D01*
X203154573Y-133066440D01*
X203180086Y-133072624D01*
G37*
G36*
X203185695Y-134084712D02*
G01*
X203210519Y-134114701D01*
X203216032Y-134151556D01*
X203207703Y-134187111D01*
X203178436Y-134207251D01*
X203140710Y-134219474D01*
X203119269Y-134219179D01*
X203108550Y-134211774D01*
X203102542Y-134192254D01*
X203099098Y-134154888D01*
X203098779Y-134138491D01*
X203100276Y-134098866D01*
X203108242Y-134080460D01*
X203127890Y-134075205D01*
X203139817Y-134074979D01*
X203185695Y-134084712D01*
G37*
G36*
X204661114Y-133955994D02*
G01*
X204673323Y-133966101D01*
X204691742Y-133998807D01*
X204696355Y-134024727D01*
X204685708Y-134052356D01*
X204654330Y-134059977D01*
X204603063Y-134047428D01*
X204594938Y-134044289D01*
X204571475Y-134030608D01*
X204573878Y-134015934D01*
X204576617Y-134012974D01*
X204591697Y-133984019D01*
X204593759Y-133969451D01*
X204604449Y-133948466D01*
X204630108Y-133943845D01*
X204661114Y-133955994D01*
G37*
G36*
X208196635Y-133342688D02*
G01*
X208197943Y-133344067D01*
X208222373Y-133374123D01*
X208225688Y-133395400D01*
X208208914Y-133418332D01*
X208205579Y-133421710D01*
X208181941Y-133440385D01*
X208159865Y-133440641D01*
X208130243Y-133421187D01*
X208115840Y-133408988D01*
X208089552Y-133382080D01*
X208084423Y-133361443D01*
X208090870Y-133346698D01*
X208120971Y-133320426D01*
X208158894Y-133319024D01*
X208196635Y-133342688D01*
G37*
G36*
X208346043Y-130703259D02*
G01*
X208380968Y-130744234D01*
X208390558Y-130758745D01*
X208417904Y-130810341D01*
X208428330Y-130849092D01*
X208422724Y-130871722D01*
X208401973Y-130874960D01*
X208366966Y-130855531D01*
X208364760Y-130853829D01*
X208339212Y-130824374D01*
X208313406Y-130780735D01*
X208293924Y-130735602D01*
X208287238Y-130704416D01*
X208299523Y-130692172D01*
X208316874Y-130689289D01*
X208346043Y-130703259D01*
G37*
G36*
X208719203Y-132959169D02*
G01*
X208748885Y-132977546D01*
X208787941Y-133012225D01*
X208798351Y-133044426D01*
X208780504Y-133075713D01*
X208774572Y-133081153D01*
X208740326Y-133106833D01*
X208716178Y-133111423D01*
X208692639Y-133095643D01*
X208685098Y-133087922D01*
X208660441Y-133046841D01*
X208655049Y-133003019D01*
X208669696Y-132966907D01*
X208675702Y-132961020D01*
X208694725Y-132952192D01*
X208719203Y-132959169D01*
G37*
G36*
X209110032Y-132734967D02*
G01*
X209122905Y-132741349D01*
X209161908Y-132766784D01*
X209186511Y-132786906D01*
X209206094Y-132811798D01*
X209203900Y-132838518D01*
X209198741Y-132850878D01*
X209172394Y-132880753D01*
X209135950Y-132886311D01*
X209095928Y-132867387D01*
X209081253Y-132853867D01*
X209054056Y-132813914D01*
X209053817Y-132776794D01*
X209068866Y-132749496D01*
X209087378Y-132731838D01*
X209110032Y-132734967D01*
G37*
G36*
X209175575Y-131792266D02*
G01*
X209200719Y-131823879D01*
X209201555Y-131825972D01*
X209209643Y-131859103D01*
X209199723Y-131885216D01*
X209181295Y-131905792D01*
X209146636Y-131930310D01*
X209110430Y-131930081D01*
X209097019Y-131925399D01*
X209082267Y-131905614D01*
X209078989Y-131870605D01*
X209086318Y-131831737D01*
X209103390Y-131800375D01*
X209106792Y-131796971D01*
X209141043Y-131782310D01*
X209175575Y-131792266D01*
G37*
G36*
X209478689Y-131816687D02*
G01*
X209479548Y-131817013D01*
X209515353Y-131843826D01*
X209528151Y-131883317D01*
X209518694Y-131919895D01*
X209503915Y-131942150D01*
X209486696Y-131946985D01*
X209457531Y-131935267D01*
X209441819Y-131926915D01*
X209399686Y-131895519D01*
X209381917Y-131862293D01*
X209390392Y-131831277D01*
X209394892Y-131826198D01*
X209417762Y-131807831D01*
X209441486Y-131805117D01*
X209478689Y-131816687D01*
G37*
G36*
X209644319Y-131419750D02*
G01*
X209655676Y-131426792D01*
X209681821Y-131458350D01*
X209692245Y-131500349D01*
X209684377Y-131539407D01*
X209678886Y-131547590D01*
X209662152Y-131563871D01*
X209643878Y-131565117D01*
X209612239Y-131551877D01*
X209610002Y-131550801D01*
X209584403Y-131524268D01*
X209577008Y-131485392D01*
X209588685Y-131445465D01*
X209600713Y-131429841D01*
X209622153Y-131414364D01*
X209644319Y-131419750D01*
G37*
G36*
X209998354Y-129736438D02*
G01*
X210027934Y-129760763D01*
X210032204Y-129767457D01*
X210041332Y-129801841D01*
X210038008Y-129837296D01*
X210024560Y-129862683D01*
X210011093Y-129868516D01*
X209986635Y-129860016D01*
X209954407Y-129839431D01*
X209952746Y-129838139D01*
X209925890Y-129806031D01*
X209914181Y-129769517D01*
X209919767Y-129738753D01*
X209929617Y-129728763D01*
X209961096Y-129724079D01*
X209998354Y-129736438D01*
G37*
G36*
X202757054Y-132908085D02*
G01*
X202776749Y-132925500D01*
X202819915Y-132962825D01*
X202861244Y-132995339D01*
X202882593Y-133010114D01*
X202908387Y-133032596D01*
X202922590Y-133056838D01*
X202921658Y-133074435D01*
X202911355Y-133078325D01*
X202896084Y-133068440D01*
X202867454Y-133042602D01*
X202833887Y-133008706D01*
X202786971Y-132958067D01*
X202754648Y-132920965D01*
X202738101Y-132899120D01*
X202738509Y-132894254D01*
X202757054Y-132908085D01*
G37*
G36*
X202814783Y-131755294D02*
G01*
X202846912Y-131782191D01*
X202879968Y-131817343D01*
X202906750Y-131852831D01*
X202920057Y-131880737D01*
X202920264Y-131886927D01*
X202903641Y-131910563D01*
X202872122Y-131916626D01*
X202834838Y-131904334D01*
X202821860Y-131895344D01*
X202801887Y-131869345D01*
X202786603Y-131832430D01*
X202777843Y-131793496D01*
X202777438Y-131761438D01*
X202787223Y-131745152D01*
X202790783Y-131744569D01*
X202814783Y-131755294D01*
G37*
G36*
X205008615Y-134039775D02*
G01*
X205036375Y-134065905D01*
X205040406Y-134109143D01*
X205039309Y-134115347D01*
X205028506Y-134148628D01*
X205008976Y-134160926D01*
X204991321Y-134161762D01*
X204955022Y-134158180D01*
X204934526Y-134153212D01*
X204922590Y-134134887D01*
X204916464Y-134098408D01*
X204916205Y-134088414D01*
X204918128Y-134051283D01*
X204927928Y-134034973D01*
X204951655Y-134031050D01*
X204957374Y-134031009D01*
X205008615Y-134039775D01*
G37*
G36*
X205457599Y-134070042D02*
G01*
X205476823Y-134080725D01*
X205495588Y-134108244D01*
X205502190Y-134145125D01*
X205496373Y-134179245D01*
X205479288Y-134197992D01*
X205458068Y-134204823D01*
X205453639Y-134205188D01*
X205439374Y-134200858D01*
X205421860Y-134196437D01*
X205387046Y-134182138D01*
X205373374Y-134156679D01*
X205376718Y-134112715D01*
X205387509Y-134076471D01*
X205405274Y-134062095D01*
X205418860Y-134060788D01*
X205457599Y-134070042D01*
G37*
G36*
X207452276Y-132928649D02*
G01*
X207484424Y-132943072D01*
X207502392Y-132946415D01*
X207528441Y-132958698D01*
X207542728Y-132987345D01*
X207539625Y-133020056D01*
X207537777Y-133023741D01*
X207518267Y-133046406D01*
X207495409Y-133042484D01*
X207488450Y-133037795D01*
X207467106Y-133016122D01*
X207443700Y-132984262D01*
X207424029Y-132951439D01*
X207413888Y-132926881D01*
X207414542Y-132920169D01*
X207432555Y-132919627D01*
X207452276Y-132928649D01*
G37*
G36*
X209170103Y-132327714D02*
G01*
X209176559Y-132334500D01*
X209207922Y-132372905D01*
X209219123Y-132399638D01*
X209212123Y-132422261D01*
X209202444Y-132434356D01*
X209177157Y-132456431D01*
X209152571Y-132459365D01*
X209120345Y-132442414D01*
X209097142Y-132424975D01*
X209067663Y-132399945D01*
X209058096Y-132381428D01*
X209064942Y-132358294D01*
X209071869Y-132344526D01*
X209100073Y-132310161D01*
X209133328Y-132304508D01*
X209170103Y-132327714D01*
G37*
G36*
X209416075Y-129190182D02*
G01*
X209443506Y-129207827D01*
X209446990Y-129210301D01*
X209477435Y-129238179D01*
X209486978Y-129269135D01*
X209486231Y-129287489D01*
X209478759Y-129320436D01*
X209458458Y-129334456D01*
X209435498Y-129338038D01*
X209400641Y-129336951D01*
X209380353Y-129328122D01*
X209380087Y-129327719D01*
X209376336Y-129303376D01*
X209383288Y-129257366D01*
X209396242Y-129205061D01*
X209403019Y-129189539D01*
X209416075Y-129190182D01*
G37*
G36*
X204977053Y-133416609D02*
G01*
X204980132Y-133422757D01*
X204981454Y-133459938D01*
X204965115Y-133496085D01*
X204953916Y-133506808D01*
X204947647Y-133516275D01*
X204956511Y-133517801D01*
X204973545Y-133527284D01*
X204974832Y-133532682D01*
X204965442Y-133546378D01*
X204940678Y-133538642D01*
X204936720Y-133536122D01*
X204908062Y-133503834D01*
X204895593Y-133462900D01*
X204901548Y-133430085D01*
X204925251Y-133406898D01*
X204954318Y-133402042D01*
X204977053Y-133416609D01*
G37*
G36*
X208805911Y-131836709D02*
G01*
X208811817Y-131845334D01*
X208826811Y-131870470D01*
X208847157Y-131894101D01*
X208865651Y-131922019D01*
X208867770Y-131943567D01*
X208852761Y-131961366D01*
X208835894Y-131962240D01*
X208829535Y-131948598D01*
X208817145Y-131939209D01*
X208789229Y-131941243D01*
X208744180Y-131942167D01*
X208718743Y-131923285D01*
X208714663Y-131889773D01*
X208728093Y-131863305D01*
X208754091Y-131842751D01*
X208783187Y-131832442D01*
X208805911Y-131836709D01*
G37*
G36*
X209244636Y-132163257D02*
G01*
X209280096Y-132179083D01*
X209290052Y-132185969D01*
X209319743Y-132219528D01*
X209325006Y-132255589D01*
X209309863Y-132287282D01*
X209278560Y-132300548D01*
X209238125Y-132294895D01*
X209195583Y-132269828D01*
X209190176Y-132265036D01*
X209163031Y-132231875D01*
X209157668Y-132205309D01*
X209157955Y-132204499D01*
X209165733Y-132176737D01*
X209166638Y-132168413D01*
X209178455Y-132156578D01*
X209207605Y-132155307D01*
X209244636Y-132163257D01*
G37*
G36*
X209876506Y-130369778D02*
G01*
X209906300Y-130375878D01*
X209920246Y-130392497D01*
X209925963Y-130428916D01*
X209926066Y-130430156D01*
X209923298Y-130477715D01*
X209908882Y-130513007D01*
X209886247Y-130527986D01*
X209884323Y-130528066D01*
X209868365Y-130517841D01*
X209842991Y-130492411D01*
X209835355Y-130483609D01*
X209811807Y-130451411D01*
X209806639Y-130426938D01*
X209814752Y-130402268D01*
X209833714Y-130375716D01*
X209863665Y-130368941D01*
X209876506Y-130369778D01*
G37*
G36*
X200865578Y-134217784D02*
G01*
X200910120Y-134228838D01*
X200928324Y-134247906D01*
X200921257Y-134275518D01*
X200920399Y-134276911D01*
X200897818Y-134291653D01*
X200856982Y-134302181D01*
X200806782Y-134308036D01*
X200756107Y-134308759D01*
X200713847Y-134303890D01*
X200688894Y-134292971D01*
X200686306Y-134289003D01*
X200681707Y-134255831D01*
X200683179Y-134240722D01*
X200690012Y-134226724D01*
X200707839Y-134218655D01*
X200742998Y-134214997D01*
X200793628Y-134214217D01*
X200865578Y-134217784D01*
G37*
G36*
X202648640Y-130751659D02*
G01*
X202653789Y-130790412D01*
X202639377Y-130838552D01*
X202624651Y-130864453D01*
X202568190Y-130941612D01*
X202517055Y-130995135D01*
X202472662Y-131023970D01*
X202436430Y-131027064D01*
X202419687Y-131016621D01*
X202409612Y-130988281D01*
X202413045Y-130944388D01*
X202428284Y-130894451D01*
X202448544Y-130855433D01*
X202482399Y-130813291D01*
X202524507Y-130774652D01*
X202567711Y-130744694D01*
X202604853Y-130728594D01*
X202623961Y-130728544D01*
X202648640Y-130751659D01*
G37*
G36*
X202843015Y-130787339D02*
G01*
X202857488Y-130814754D01*
X202854718Y-130855101D01*
X202835949Y-130904006D01*
X202802424Y-130957097D01*
X202755389Y-131009999D01*
X202739741Y-131024382D01*
X202694429Y-131055378D01*
X202652282Y-131069061D01*
X202619771Y-131064314D01*
X202605450Y-131047589D01*
X202605556Y-131012063D01*
X202623694Y-130964736D01*
X202654972Y-130912075D01*
X202694496Y-130860545D01*
X202737372Y-130816613D01*
X202778708Y-130786745D01*
X202810055Y-130777229D01*
X202843015Y-130787339D01*
G37*
G36*
X202981960Y-131690512D02*
G01*
X203015868Y-131714469D01*
X203045737Y-131744569D01*
X203078099Y-131777380D01*
X203104303Y-131798656D01*
X203114472Y-131803196D01*
X203125457Y-131814838D01*
X203125377Y-131828845D01*
X203108779Y-131848851D01*
X203076827Y-131859118D01*
X203042715Y-131856552D01*
X203031004Y-131850962D01*
X203008696Y-131827014D01*
X202983679Y-131788383D01*
X202962688Y-131746987D01*
X202952457Y-131714748D01*
X202952267Y-131711591D01*
X202960022Y-131689292D01*
X202981960Y-131690512D01*
G37*
G36*
X203056664Y-130874702D02*
G01*
X203069080Y-130916082D01*
X203069465Y-130926992D01*
X203056390Y-130981348D01*
X203021873Y-131032900D01*
X202972977Y-131072009D01*
X202957832Y-131079349D01*
X202915787Y-131095136D01*
X202890451Y-131097636D01*
X202872328Y-131086701D01*
X202864430Y-131077881D01*
X202852863Y-131045254D01*
X202863999Y-131000671D01*
X202898470Y-130941996D01*
X202908933Y-130927412D01*
X202951726Y-130881524D01*
X202993563Y-130857435D01*
X203030017Y-130855157D01*
X203056664Y-130874702D01*
G37*
G36*
X204468242Y-133889384D02*
G01*
X204485947Y-133909867D01*
X204490237Y-133944685D01*
X204479998Y-133981564D01*
X204477054Y-133986652D01*
X204472817Y-134010866D01*
X204480943Y-134019405D01*
X204488751Y-134028613D01*
X204483834Y-134029570D01*
X204462675Y-134021754D01*
X204429118Y-134003717D01*
X204421543Y-133999132D01*
X204389250Y-133972016D01*
X204374161Y-133944622D01*
X204373909Y-133941405D01*
X204386577Y-133914679D01*
X204416632Y-133894155D01*
X204452150Y-133886407D01*
X204468242Y-133889384D01*
G37*
G36*
X207600396Y-130937794D02*
G01*
X207631362Y-130978320D01*
X207650850Y-131044069D01*
X207653130Y-131060817D01*
X207648312Y-131136503D01*
X207616482Y-131201401D01*
X207570684Y-131245087D01*
X207516094Y-131271781D01*
X207467684Y-131270077D01*
X207426145Y-131240022D01*
X207422264Y-131235292D01*
X207399930Y-131183774D01*
X207401931Y-131118940D01*
X207428130Y-131043613D01*
X207431957Y-131035846D01*
X207473733Y-130971517D01*
X207518072Y-130933996D01*
X207561463Y-130922887D01*
X207600396Y-130937794D01*
G37*
G36*
X202406664Y-130707662D02*
G01*
X202422485Y-130721712D01*
X202419912Y-130750451D01*
X202399846Y-130798234D01*
X202393646Y-130810790D01*
X202368944Y-130853080D01*
X202338725Y-130895373D01*
X202308912Y-130930348D01*
X202285427Y-130950684D01*
X202278525Y-130953109D01*
X202261342Y-130945567D01*
X202237297Y-130930293D01*
X202208285Y-130895101D01*
X202205531Y-130850725D01*
X202228610Y-130800122D01*
X202261625Y-130760848D01*
X202302443Y-130724886D01*
X202337539Y-130707774D01*
X202371549Y-130703946D01*
X202406664Y-130707662D01*
G37*
G36*
X207260117Y-130935831D02*
G01*
X207283225Y-130967668D01*
X207286559Y-131015866D01*
X207274167Y-131076325D01*
X207249318Y-131138976D01*
X207215284Y-131193757D01*
X207206291Y-131204418D01*
X207156483Y-131246590D01*
X207109309Y-131261007D01*
X207066505Y-131247371D01*
X207048651Y-131231476D01*
X207027036Y-131187427D01*
X207025586Y-131131868D01*
X207041537Y-131071553D01*
X207072125Y-131013235D01*
X207114588Y-130963670D01*
X207166161Y-130929611D01*
X207173358Y-130926687D01*
X207220250Y-130920646D01*
X207260117Y-130935831D01*
G37*
G36*
X203209879Y-132953936D02*
G01*
X203225860Y-132969629D01*
X203236495Y-132983671D01*
X203245555Y-132975389D01*
X203267446Y-132964975D01*
X203288340Y-132968091D01*
X203313434Y-132986650D01*
X203316759Y-133012496D01*
X203300330Y-133035778D01*
X203272379Y-133046188D01*
X203240608Y-133044999D01*
X203225049Y-133037088D01*
X203205898Y-133024792D01*
X203172367Y-133014630D01*
X203138451Y-133001083D01*
X203128094Y-132976498D01*
X203128092Y-132976095D01*
X203134758Y-132954499D01*
X203159845Y-132946785D01*
X203172522Y-132946415D01*
X203209879Y-132953936D01*
G37*
G36*
X207086985Y-133479273D02*
G01*
X207137759Y-133504852D01*
X207193049Y-133541765D01*
X207233043Y-133574360D01*
X207269088Y-133609383D01*
X207285092Y-133634947D01*
X207285220Y-133658133D01*
X207284260Y-133661431D01*
X207270159Y-133686547D01*
X207247973Y-133690699D01*
X207214199Y-133673188D01*
X207171702Y-133638943D01*
X207107746Y-133582663D01*
X207062981Y-133542437D01*
X207034505Y-133515053D01*
X207019417Y-133497298D01*
X207014816Y-133485958D01*
X207017800Y-133477820D01*
X207022007Y-133473156D01*
X207046482Y-133467787D01*
X207086985Y-133479273D01*
G37*
G36*
X209521019Y-132076641D02*
G01*
X209552144Y-132098259D01*
X209584608Y-132128232D01*
X209610269Y-132159024D01*
X209620988Y-132183099D01*
X209620995Y-132183516D01*
X209611272Y-132210122D01*
X209589034Y-132238372D01*
X209564677Y-132256091D01*
X209557781Y-132257552D01*
X209541818Y-132248639D01*
X209513506Y-132226342D01*
X209502690Y-132216913D01*
X209474033Y-132188002D01*
X209464347Y-132163597D01*
X209469007Y-132130814D01*
X209470155Y-132126306D01*
X209483053Y-132091411D01*
X209497584Y-132071765D01*
X209499372Y-132070915D01*
X209521019Y-132076641D01*
G37*
G36*
X212716397Y-134584946D02*
G01*
X212725147Y-134602444D01*
X212714500Y-134621724D01*
X212681704Y-134645555D01*
X212626467Y-134675470D01*
X212552283Y-134705839D01*
X212477802Y-134724085D01*
X212411442Y-134728785D01*
X212364367Y-134719744D01*
X212338394Y-134698622D01*
X212335195Y-134679636D01*
X212346048Y-134663613D01*
X212375042Y-134650977D01*
X212427334Y-134639634D01*
X212438306Y-134637783D01*
X212505678Y-134624678D01*
X212576322Y-134607819D01*
X212618901Y-134595738D01*
X212675211Y-134581165D01*
X212708240Y-134580516D01*
X212716397Y-134584946D01*
G37*
G36*
X202757829Y-132529537D02*
G01*
X202778214Y-132558798D01*
X202780819Y-132565342D01*
X202798218Y-132596791D01*
X202825404Y-132608330D01*
X202845500Y-132609312D01*
X202879490Y-132613091D01*
X202892510Y-132627568D01*
X202893585Y-132638625D01*
X202883243Y-132663100D01*
X202864129Y-132667939D01*
X202832443Y-132657350D01*
X202809573Y-132638625D01*
X202771291Y-132614594D01*
X202736433Y-132609312D01*
X202703417Y-132606413D01*
X202690451Y-132592158D01*
X202688392Y-132565342D01*
X202692265Y-132533987D01*
X202709058Y-132522490D01*
X202726307Y-132521372D01*
X202757829Y-132529537D01*
G37*
G36*
X204063660Y-133715110D02*
G01*
X204095295Y-133736402D01*
X204101625Y-133770004D01*
X204082078Y-133812489D01*
X204080337Y-133814887D01*
X204060822Y-133846904D01*
X204060674Y-133868523D01*
X204066836Y-133877978D01*
X204076151Y-133895364D01*
X204066335Y-133898081D01*
X204043068Y-133887067D01*
X204020108Y-133870273D01*
X204000473Y-133850471D01*
X203999199Y-133841026D01*
X204000164Y-133840913D01*
X204009545Y-133827551D01*
X204015020Y-133794869D01*
X204015516Y-133782324D01*
X204018691Y-133736268D01*
X204029140Y-133714348D01*
X204050399Y-133711631D01*
X204063660Y-133715110D01*
G37*
G36*
X210034489Y-130028043D02*
G01*
X210063805Y-130053153D01*
X210106971Y-130091187D01*
X210148736Y-130125681D01*
X210168211Y-130140541D01*
X210197972Y-130169374D01*
X210205649Y-130202210D01*
X210204853Y-130212299D01*
X210199933Y-130254151D01*
X210148634Y-130211852D01*
X210105896Y-130174079D01*
X210068211Y-130136367D01*
X210041429Y-130104980D01*
X210031399Y-130086330D01*
X210019369Y-130079322D01*
X210006294Y-130079002D01*
X209984296Y-130069255D01*
X209974466Y-130044278D01*
X209980762Y-130016984D01*
X209985483Y-130011148D01*
X210003408Y-130009025D01*
X210034489Y-130028043D01*
G37*
G36*
X201116635Y-134516282D02*
G01*
X201169216Y-134520022D01*
X201202658Y-134526410D01*
X201207486Y-134528665D01*
X201217637Y-134547221D01*
X201203850Y-134570747D01*
X201170202Y-134595587D01*
X201120770Y-134618082D01*
X201100408Y-134624750D01*
X201039171Y-134638002D01*
X200971757Y-134644903D01*
X200906929Y-134645373D01*
X200853451Y-134639332D01*
X200820875Y-134627299D01*
X200801065Y-134598625D01*
X200806304Y-134566031D01*
X200834827Y-134537436D01*
X200841782Y-134533584D01*
X200872141Y-134525675D01*
X200922667Y-134519885D01*
X200985499Y-134516319D01*
X201052775Y-134515082D01*
X201116635Y-134516282D01*
G37*
G36*
X206937577Y-134466774D02*
G01*
X206963598Y-134494610D01*
X206966806Y-134533066D01*
X206944483Y-134575647D01*
X206942489Y-134577948D01*
X206925687Y-134598010D01*
X206930729Y-134599185D01*
X206950927Y-134588985D01*
X206974479Y-134578104D01*
X206976993Y-134584861D01*
X206968732Y-134601509D01*
X206948777Y-134623743D01*
X206926206Y-134631842D01*
X206911156Y-134623498D01*
X206909512Y-134614995D01*
X206901215Y-134593576D01*
X206880455Y-134560434D01*
X206871577Y-134548322D01*
X206845922Y-134504505D01*
X206845276Y-134474083D01*
X206869394Y-134458193D01*
X206891464Y-134456052D01*
X206937577Y-134466774D01*
G37*
G36*
X211314440Y-134945253D02*
G01*
X211333875Y-134963967D01*
X211329033Y-134991931D01*
X211300962Y-135023628D01*
X211299358Y-135024905D01*
X211255960Y-135046591D01*
X211184049Y-135066072D01*
X211084354Y-135083184D01*
X210997476Y-135093765D01*
X210944193Y-135096920D01*
X210912414Y-135091754D01*
X210898291Y-135081570D01*
X210887433Y-135050708D01*
X210903063Y-135021725D01*
X210940531Y-135000393D01*
X210977547Y-134990408D01*
X211031747Y-134979308D01*
X211095935Y-134968152D01*
X211162912Y-134958003D01*
X211225482Y-134949922D01*
X211276446Y-134944970D01*
X211308608Y-134944208D01*
X211314440Y-134945253D01*
G37*
G36*
X205593799Y-125405774D02*
G01*
X205598322Y-125416554D01*
X205603000Y-125450178D01*
X205592287Y-125473470D01*
X205570484Y-125477563D01*
X205568982Y-125477030D01*
X205552072Y-125480776D01*
X205546197Y-125504876D01*
X205551008Y-125542668D01*
X205566158Y-125587494D01*
X205575784Y-125607308D01*
X205595169Y-125645653D01*
X205598945Y-125659239D01*
X205587095Y-125648062D01*
X205559603Y-125612113D01*
X205548926Y-125597366D01*
X205516489Y-125546795D01*
X205504482Y-125511051D01*
X205512085Y-125484768D01*
X205529250Y-125468683D01*
X205558961Y-125439415D01*
X205572235Y-125420218D01*
X205585383Y-125400353D01*
X205593799Y-125405774D01*
G37*
G36*
X209220074Y-135249586D02*
G01*
X209256782Y-135252460D01*
X209261572Y-135253447D01*
X209290412Y-135270948D01*
X209296791Y-135297016D01*
X209281498Y-135322362D01*
X209254578Y-135335778D01*
X209223898Y-135340564D01*
X209172548Y-135345291D01*
X209107821Y-135349629D01*
X209037011Y-135353248D01*
X208967413Y-135355818D01*
X208906321Y-135357009D01*
X208861028Y-135356492D01*
X208840527Y-135354496D01*
X208819627Y-135337031D01*
X208816442Y-135308160D01*
X208832236Y-135280738D01*
X208833199Y-135279920D01*
X208854854Y-135273118D01*
X208899031Y-135266440D01*
X208958938Y-135260304D01*
X209027787Y-135255131D01*
X209098786Y-135251341D01*
X209165145Y-135249352D01*
X209220074Y-135249586D01*
G37*
G36*
X203632363Y-133598711D02*
G01*
X203663810Y-133612679D01*
X203701012Y-133634161D01*
X203735219Y-133657988D01*
X203757683Y-133678989D01*
X203760379Y-133683080D01*
X203778789Y-133700927D01*
X203795206Y-133693335D01*
X203802299Y-133663727D01*
X203807724Y-133639324D01*
X203823805Y-133642064D01*
X203850207Y-133671837D01*
X203863302Y-133700525D01*
X203871096Y-133737250D01*
X203872652Y-133771657D01*
X203867033Y-133793389D01*
X203861472Y-133796276D01*
X203845744Y-133789447D01*
X203811733Y-133771681D01*
X203766540Y-133746700D01*
X203762650Y-133744499D01*
X203713824Y-133712803D01*
X203669710Y-133677186D01*
X203635333Y-133642666D01*
X203615717Y-133614261D01*
X203615417Y-133597425D01*
X203632363Y-133598711D01*
G37*
G36*
X211540823Y-135118840D02*
G01*
X211555817Y-135127786D01*
X211560651Y-135136744D01*
X211565979Y-135168390D01*
X211553407Y-135194420D01*
X211520338Y-135216314D01*
X211464172Y-135235552D01*
X211382311Y-135253612D01*
X211343153Y-135260607D01*
X211272324Y-135272228D01*
X211221793Y-135279017D01*
X211183076Y-135281719D01*
X211147692Y-135281079D01*
X211126967Y-135279605D01*
X211089220Y-135272909D01*
X211073643Y-135258560D01*
X211072004Y-135247143D01*
X211083757Y-135217648D01*
X211098360Y-135205125D01*
X211133945Y-135191140D01*
X211190266Y-135174531D01*
X211259103Y-135157226D01*
X211332234Y-135141156D01*
X211401439Y-135128251D01*
X211458496Y-135120439D01*
X211459585Y-135120336D01*
X211511121Y-135116742D01*
X211540823Y-135118840D01*
G37*
G36*
X202293168Y-132058385D02*
G01*
X202300690Y-132084855D01*
X202317610Y-132140649D01*
X202339755Y-132170642D01*
X202370220Y-132178269D01*
X202383133Y-132176353D01*
X202421375Y-132179571D01*
X202466990Y-132199165D01*
X202511506Y-132229218D01*
X202546447Y-132263811D01*
X202563340Y-132297027D01*
X202563810Y-132302541D01*
X202555199Y-132333086D01*
X202532567Y-132340753D01*
X202500720Y-132325135D01*
X202483662Y-132309344D01*
X202453304Y-132284003D01*
X202426367Y-132272301D01*
X202424572Y-132272209D01*
X202397823Y-132262091D01*
X202369908Y-132239231D01*
X202344369Y-132207099D01*
X202316334Y-132165163D01*
X202289996Y-132120756D01*
X202269551Y-132081215D01*
X202259191Y-132053874D01*
X202259609Y-132046328D01*
X202278435Y-132038560D01*
X202293168Y-132058385D01*
G37*
G36*
X203555860Y-127922753D02*
G01*
X203628312Y-127937265D01*
X203675171Y-127964847D01*
X203697438Y-128006239D01*
X203699702Y-128029066D01*
X203697559Y-128055334D01*
X203688300Y-128076201D01*
X203667683Y-128094443D01*
X203631464Y-128112836D01*
X203575399Y-128134154D01*
X203500219Y-128159536D01*
X203434116Y-128183968D01*
X203368944Y-128212446D01*
X203317405Y-128239357D01*
X203311759Y-128242832D01*
X203264667Y-128269455D01*
X203220364Y-128289258D01*
X203200492Y-128295300D01*
X203169341Y-128297335D01*
X203154346Y-128282259D01*
X203149714Y-128267384D01*
X203151114Y-128214052D01*
X203178928Y-128150790D01*
X203232484Y-128078867D01*
X203271838Y-128036909D01*
X203343443Y-127974788D01*
X203412308Y-127937282D01*
X203485721Y-127921462D01*
X203555860Y-127922753D01*
G37*
G36*
X207021527Y-127835119D02*
G01*
X207123583Y-127856163D01*
X207220704Y-127900121D01*
X207308000Y-127962743D01*
X207380581Y-128039779D01*
X207433558Y-128126978D01*
X207461657Y-128217675D01*
X207462237Y-128260755D01*
X207443906Y-128293259D01*
X207438801Y-128298603D01*
X207415352Y-128318934D01*
X207393032Y-128326671D01*
X207365004Y-128320814D01*
X207324427Y-128300361D01*
X207283256Y-128275822D01*
X207127897Y-128194460D01*
X206965988Y-128134569D01*
X206896998Y-128116519D01*
X206822187Y-128095500D01*
X206772727Y-128070686D01*
X206744659Y-128038877D01*
X206734029Y-127996876D01*
X206733632Y-127984468D01*
X206746933Y-127928608D01*
X206784909Y-127884215D01*
X206844666Y-127852790D01*
X206923313Y-127835833D01*
X207017957Y-127834846D01*
X207021527Y-127835119D01*
G37*
G36*
X207393167Y-134050800D02*
G01*
X207394341Y-134081997D01*
X207387492Y-134126710D01*
X207374453Y-134178256D01*
X207357058Y-134229954D01*
X207337140Y-134275121D01*
X207316534Y-134307074D01*
X207306315Y-134316150D01*
X207290092Y-134310935D01*
X207266825Y-134287539D01*
X207260957Y-134279731D01*
X207237768Y-134231809D01*
X207238131Y-134198947D01*
X207253430Y-134169503D01*
X207279603Y-134165837D01*
X207314712Y-134184386D01*
X207344698Y-134197431D01*
X207361790Y-134188501D01*
X207363868Y-134177273D01*
X207354815Y-134160852D01*
X207332549Y-134133495D01*
X207327757Y-134128234D01*
X207303777Y-134091560D01*
X207303004Y-134062180D01*
X207324923Y-134045323D01*
X207336123Y-134043467D01*
X207369561Y-134040808D01*
X207382137Y-134039803D01*
X207393167Y-134050800D01*
G37*
G36*
X209851384Y-132069715D02*
G01*
X209847448Y-132084675D01*
X209831161Y-132122581D01*
X209812480Y-132154956D01*
X209791588Y-132191280D01*
X209768137Y-132239149D01*
X209760035Y-132257552D01*
X209738546Y-132303848D01*
X209713339Y-132351789D01*
X209688605Y-132394155D01*
X209668536Y-132423726D01*
X209657968Y-132433432D01*
X209646713Y-132422245D01*
X209636167Y-132405082D01*
X209621828Y-132359244D01*
X209634233Y-132324478D01*
X209641675Y-132317262D01*
X209662349Y-132307825D01*
X209672578Y-132316640D01*
X209684291Y-132314545D01*
X209704259Y-132292381D01*
X209728510Y-132256721D01*
X209753070Y-132214137D01*
X209773968Y-132171201D01*
X209787230Y-132134485D01*
X209789478Y-132123250D01*
X209788460Y-132093067D01*
X209778708Y-132081672D01*
X209767461Y-132077850D01*
X209777018Y-132069264D01*
X209800314Y-132060239D01*
X209820611Y-132056028D01*
X209846877Y-132055641D01*
X209851384Y-132069715D01*
G37*
G36*
X205268272Y-130579509D02*
G01*
X205305273Y-130608011D01*
X205334630Y-130653557D01*
X205336897Y-130701747D01*
X205313905Y-130750442D01*
X205267486Y-130797506D01*
X205199470Y-130840800D01*
X205111689Y-130878188D01*
X205060067Y-130894247D01*
X204967796Y-130912441D01*
X204861766Y-130921672D01*
X204753265Y-130921772D01*
X204653585Y-130912577D01*
X204597132Y-130901072D01*
X204509147Y-130872215D01*
X204439551Y-130836057D01*
X204377456Y-130786802D01*
X204370895Y-130780603D01*
X204324023Y-130723402D01*
X204305461Y-130669146D01*
X204315468Y-130618749D01*
X204321653Y-130608082D01*
X204345605Y-130580950D01*
X204372763Y-130574528D01*
X204409746Y-130588854D01*
X204441362Y-130608748D01*
X204530816Y-130653670D01*
X204645648Y-130684218D01*
X204753411Y-130698130D01*
X204841746Y-130700674D01*
X204931895Y-130695020D01*
X205018455Y-130682383D01*
X205096024Y-130663979D01*
X205159199Y-130641025D01*
X205202578Y-130614736D01*
X205218949Y-130593359D01*
X205237966Y-130574010D01*
X205268272Y-130579509D01*
G37*
G36*
X207003366Y-134328801D02*
G01*
X207039759Y-134353083D01*
X207073485Y-134387708D01*
X207085350Y-134404687D01*
X207112700Y-134439438D01*
X207141120Y-134461946D01*
X207146334Y-134464115D01*
X207161157Y-134471079D01*
X207162073Y-134482259D01*
X207146669Y-134503059D01*
X207113241Y-134538155D01*
X207074551Y-134576515D01*
X207049976Y-134596079D01*
X207033596Y-134599445D01*
X207019488Y-134589213D01*
X207013272Y-134582036D01*
X207003521Y-134551897D01*
X207008639Y-134515057D01*
X207021610Y-134492694D01*
X207085392Y-134492694D01*
X207092720Y-134500022D01*
X207100048Y-134492694D01*
X207092720Y-134485365D01*
X207085392Y-134492694D01*
X207021610Y-134492694D01*
X207025494Y-134485997D01*
X207035416Y-134479557D01*
X207053737Y-134464040D01*
X207052192Y-134447334D01*
X207036070Y-134441395D01*
X207009587Y-134432294D01*
X206977556Y-134410643D01*
X206950527Y-134384927D01*
X206939049Y-134363628D01*
X206939049Y-134363384D01*
X206946624Y-134335780D01*
X206951036Y-134327597D01*
X206971420Y-134318944D01*
X207003366Y-134328801D01*
G37*
G36*
X207348530Y-125569237D02*
G01*
X207399572Y-125575427D01*
X207451320Y-125589465D01*
X207515944Y-125613835D01*
X207523479Y-125616893D01*
X207629250Y-125662772D01*
X207729919Y-125711638D01*
X207822031Y-125761348D01*
X207902130Y-125809758D01*
X207966759Y-125854725D01*
X208012462Y-125894104D01*
X208035784Y-125925753D01*
X208038075Y-125936077D01*
X208025738Y-125950912D01*
X207991334Y-125952297D01*
X207938774Y-125940364D01*
X207913493Y-125931874D01*
X207863820Y-125912782D01*
X207817351Y-125893259D01*
X207810896Y-125890333D01*
X207774330Y-125874250D01*
X207722376Y-125852344D01*
X207671658Y-125831542D01*
X207617515Y-125808970D01*
X207569474Y-125787746D01*
X207539748Y-125773383D01*
X207509918Y-125759776D01*
X207460849Y-125739872D01*
X207400976Y-125717036D01*
X207371196Y-125706138D01*
X207277225Y-125669976D01*
X207209053Y-125638700D01*
X207167478Y-125612762D01*
X207153299Y-125592613D01*
X207156711Y-125584871D01*
X207177635Y-125577617D01*
X207219584Y-125571859D01*
X207274273Y-125568652D01*
X207286029Y-125568409D01*
X207348530Y-125569237D01*
G37*
G36*
X209786204Y-126313138D02*
G01*
X209812969Y-126337520D01*
X209837445Y-126384563D01*
X209856230Y-126450307D01*
X209874553Y-126523434D01*
X209897801Y-126576628D01*
X209931695Y-126619258D01*
X209981956Y-126660693D01*
X209986879Y-126664253D01*
X210025589Y-126694122D01*
X210052316Y-126718681D01*
X210060694Y-126731050D01*
X210048885Y-126745201D01*
X210018512Y-126766925D01*
X209991075Y-126783155D01*
X209934933Y-126819227D01*
X209896085Y-126859488D01*
X209868457Y-126912383D01*
X209846553Y-126984052D01*
X209823428Y-127055868D01*
X209797161Y-127103951D01*
X209769244Y-127126738D01*
X209741170Y-127122664D01*
X209726993Y-127109399D01*
X209717248Y-127087066D01*
X209704631Y-127044144D01*
X209691496Y-126988891D01*
X209688348Y-126973825D01*
X209673438Y-126913430D01*
X209655616Y-126860184D01*
X209638309Y-126824041D01*
X209635363Y-126819930D01*
X209597213Y-126771689D01*
X209575879Y-126739900D01*
X209570564Y-126717583D01*
X209580466Y-126697759D01*
X209604787Y-126673451D01*
X209617265Y-126661937D01*
X209641881Y-126637867D01*
X209660371Y-126614547D01*
X209674851Y-126586393D01*
X209687440Y-126547819D01*
X209700256Y-126493240D01*
X209715416Y-126417072D01*
X209720787Y-126388920D01*
X209737252Y-126337541D01*
X209760012Y-126312712D01*
X209786204Y-126313138D01*
G37*
G36*
X201288102Y-126972063D02*
G01*
X201309813Y-126991669D01*
X201325253Y-127029667D01*
X201336637Y-127090413D01*
X201341549Y-127131150D01*
X201354551Y-127239220D01*
X201368992Y-127322699D01*
X201387356Y-127386291D01*
X201412128Y-127434702D01*
X201445790Y-127472634D01*
X201490827Y-127504793D01*
X201549722Y-127535883D01*
X201557108Y-127539418D01*
X201614613Y-127567463D01*
X201650187Y-127587650D01*
X201668680Y-127604032D01*
X201674947Y-127620662D01*
X201674361Y-127637352D01*
X201665768Y-127664181D01*
X201642791Y-127686799D01*
X201598931Y-127711374D01*
X201593542Y-127713986D01*
X201519265Y-127755846D01*
X201463586Y-127803549D01*
X201423240Y-127862394D01*
X201394961Y-127937679D01*
X201375486Y-128034704D01*
X201369879Y-128076993D01*
X201361279Y-128137110D01*
X201351366Y-128188647D01*
X201341963Y-128222481D01*
X201339843Y-128227224D01*
X201313051Y-128251351D01*
X201277199Y-128254485D01*
X201243266Y-128237024D01*
X201232013Y-128223305D01*
X201219166Y-128193534D01*
X201203851Y-128144490D01*
X201188979Y-128085719D01*
X201186194Y-128073074D01*
X201160640Y-127968861D01*
X201132137Y-127889176D01*
X201097039Y-127829243D01*
X201051703Y-127784286D01*
X200992484Y-127749527D01*
X200917413Y-127720735D01*
X200855527Y-127698055D01*
X200818365Y-127677148D01*
X200801816Y-127654518D01*
X200801767Y-127626667D01*
X200802605Y-127623084D01*
X200814350Y-127600236D01*
X200840803Y-127578339D01*
X200887327Y-127553517D01*
X200918356Y-127539428D01*
X200973622Y-127513627D01*
X201021677Y-127488523D01*
X201053273Y-127468993D01*
X201056021Y-127466846D01*
X201096076Y-127419191D01*
X201128303Y-127348110D01*
X201153279Y-127251885D01*
X201171581Y-127128800D01*
X201172493Y-127120391D01*
X201186234Y-127043276D01*
X201208488Y-126993252D01*
X201239888Y-126969175D01*
X201257911Y-126966496D01*
X201288102Y-126972063D01*
G37*
G36*
X203492842Y-128768858D02*
G01*
X203620352Y-128809976D01*
X203740411Y-128875519D01*
X203849385Y-128963043D01*
X203943637Y-129070104D01*
X204019531Y-129194259D01*
X204021466Y-129198180D01*
X204068836Y-129303259D01*
X204101045Y-129398049D01*
X204120448Y-129493047D01*
X204129398Y-129598750D01*
X204130701Y-129685308D01*
X204129281Y-129769123D01*
X204125072Y-129833179D01*
X204116809Y-129886988D01*
X204103224Y-129940064D01*
X204092100Y-129975188D01*
X204028606Y-130127661D01*
X203945601Y-130264090D01*
X203845556Y-130381928D01*
X203730944Y-130478623D01*
X203604236Y-130551627D01*
X203494509Y-130591622D01*
X203395591Y-130611774D01*
X203288845Y-130621833D01*
X203188269Y-130620797D01*
X203148642Y-130616427D01*
X203000809Y-130580082D01*
X202867631Y-130518887D01*
X202750722Y-130434246D01*
X202651698Y-130327562D01*
X202572172Y-130200237D01*
X202518453Y-130068688D01*
X202491522Y-129953196D01*
X202478190Y-129824880D01*
X203328018Y-129824880D01*
X203331202Y-129875859D01*
X203339151Y-129895000D01*
X203375285Y-129938238D01*
X203422095Y-129956977D01*
X203472766Y-129950240D01*
X203517160Y-129920480D01*
X203547074Y-129875151D01*
X203549038Y-129829603D01*
X203522959Y-129787914D01*
X203520158Y-129785315D01*
X203474475Y-129752885D01*
X203431466Y-129744455D01*
X203393709Y-129752832D01*
X203349774Y-129781474D01*
X203328018Y-129824880D01*
X202478190Y-129824880D01*
X202477925Y-129822330D01*
X202477948Y-129686968D01*
X202491879Y-129557984D01*
X202503452Y-129502099D01*
X202552729Y-129350280D01*
X202858469Y-129350280D01*
X202861898Y-129429502D01*
X202885659Y-129502710D01*
X202930743Y-129565516D01*
X202979452Y-129603338D01*
X203041887Y-129626210D01*
X203119855Y-129633360D01*
X203204490Y-129625321D01*
X203286930Y-129602621D01*
X203331492Y-129582272D01*
X203422382Y-129521382D01*
X203493453Y-129450461D01*
X203543798Y-129373040D01*
X203572510Y-129292651D01*
X203578682Y-129212825D01*
X203561406Y-129137094D01*
X203519775Y-129068989D01*
X203474218Y-129026663D01*
X203426767Y-129005054D01*
X203359961Y-128992514D01*
X203282391Y-128989260D01*
X203202645Y-128995509D01*
X203129314Y-129011478D01*
X203111665Y-129017508D01*
X203028281Y-129060994D01*
X202960279Y-129120401D01*
X202908650Y-129191343D01*
X202874383Y-129269432D01*
X202858469Y-129350280D01*
X202552729Y-129350280D01*
X202556036Y-129340092D01*
X202628990Y-129193940D01*
X202720168Y-129065514D01*
X202827422Y-128956683D01*
X202948606Y-128869318D01*
X203081575Y-128805287D01*
X203224181Y-128766461D01*
X203361520Y-128754609D01*
X203492842Y-128768858D01*
G37*
G36*
X206898028Y-128734849D02*
G01*
X207030190Y-128765052D01*
X207155798Y-128818221D01*
X207281572Y-128896672D01*
X207309614Y-128917314D01*
X207436218Y-129030774D01*
X207540897Y-129162364D01*
X207622319Y-129309353D01*
X207679152Y-129469009D01*
X207710063Y-129638601D01*
X207715628Y-129749770D01*
X207711447Y-129864235D01*
X207697298Y-129961993D01*
X207670771Y-130054660D01*
X207633706Y-130144651D01*
X207548195Y-130299616D01*
X207443685Y-130434443D01*
X207322049Y-130547533D01*
X207185162Y-130637288D01*
X207034895Y-130702109D01*
X206953482Y-130725106D01*
X206868540Y-130738655D01*
X206767574Y-130744952D01*
X206663021Y-130743758D01*
X206567319Y-130734836D01*
X206554193Y-130732765D01*
X206405013Y-130696097D01*
X206263254Y-130638995D01*
X206136354Y-130564844D01*
X206067848Y-130511311D01*
X205960174Y-130397733D01*
X205874781Y-130268374D01*
X205811810Y-130126662D01*
X205771401Y-129976027D01*
X205761148Y-129885618D01*
X206651831Y-129885618D01*
X206656327Y-129936070D01*
X206686488Y-129985573D01*
X206699537Y-129998263D01*
X206736612Y-130022509D01*
X206777149Y-130026157D01*
X206790281Y-130024382D01*
X206833573Y-130011005D01*
X206867696Y-129990095D01*
X206868799Y-129989026D01*
X206889618Y-129956104D01*
X206903781Y-129912517D01*
X206904395Y-129909022D01*
X206906417Y-129868317D01*
X206892394Y-129837479D01*
X206873499Y-129816514D01*
X206842866Y-129791027D01*
X206812027Y-129782443D01*
X206772846Y-129785218D01*
X206712040Y-129804527D01*
X206671052Y-129839882D01*
X206651831Y-129885618D01*
X205761148Y-129885618D01*
X205753695Y-129819896D01*
X205758832Y-129661700D01*
X205786952Y-129504867D01*
X205827403Y-129384846D01*
X206155921Y-129384846D01*
X206167992Y-129478697D01*
X206203844Y-129555466D01*
X206263665Y-129615405D01*
X206347640Y-129658764D01*
X206363757Y-129664318D01*
X206432043Y-129675083D01*
X206514315Y-129670813D01*
X206600342Y-129652987D01*
X206679890Y-129623084D01*
X206692149Y-129616844D01*
X206769378Y-129568339D01*
X206840834Y-129510065D01*
X206899821Y-129448353D01*
X206939646Y-129389533D01*
X206945151Y-129377655D01*
X206964410Y-129301486D01*
X206966570Y-129215660D01*
X206951981Y-129133705D01*
X206937938Y-129097209D01*
X206893577Y-129037854D01*
X206828076Y-128994335D01*
X206745663Y-128967806D01*
X206650568Y-128959416D01*
X206547018Y-128970318D01*
X206506453Y-128979726D01*
X206389209Y-129022699D01*
X206294751Y-129082365D01*
X206223975Y-129157691D01*
X206177774Y-129247643D01*
X206157041Y-129351191D01*
X206155921Y-129384846D01*
X205827403Y-129384846D01*
X205838195Y-129352825D01*
X205912701Y-129209004D01*
X206009224Y-129078420D01*
X206133505Y-128953477D01*
X206264640Y-128856573D01*
X206404365Y-128786883D01*
X206554414Y-128743583D01*
X206716522Y-128725849D01*
X206752597Y-128725296D01*
X206898028Y-128734849D01*
G37*
G36*
X208939460Y-124475472D02*
G01*
X209017465Y-124483232D01*
X209117590Y-124494918D01*
X209234851Y-124509804D01*
X209364261Y-124527164D01*
X209500833Y-124546270D01*
X209639582Y-124566396D01*
X209775521Y-124586815D01*
X209903665Y-124606801D01*
X210019027Y-124625627D01*
X210116621Y-124642566D01*
X210191462Y-124656892D01*
X210207261Y-124660248D01*
X210280770Y-124677656D01*
X210349833Y-124696327D01*
X210405820Y-124713797D01*
X210435850Y-124725468D01*
X210484128Y-124757415D01*
X210514769Y-124796469D01*
X210523304Y-124836098D01*
X210520266Y-124848832D01*
X210506013Y-124865644D01*
X210472868Y-124896228D01*
X210425323Y-124936675D01*
X210367870Y-124983078D01*
X210348443Y-124998299D01*
X210289520Y-125046952D01*
X210213565Y-125114177D01*
X210123590Y-125197156D01*
X210022605Y-125293069D01*
X209913621Y-125399099D01*
X209804203Y-125507850D01*
X209696682Y-125615336D01*
X209606531Y-125704243D01*
X209530870Y-125777191D01*
X209466819Y-125836794D01*
X209411499Y-125885672D01*
X209362028Y-125926441D01*
X209315529Y-125961719D01*
X209269235Y-125994045D01*
X209103636Y-126094896D01*
X208929897Y-126178851D01*
X208739228Y-126250000D01*
X208677761Y-126269354D01*
X208561780Y-126302651D01*
X208456581Y-126328169D01*
X208354488Y-126347045D01*
X208247823Y-126360417D01*
X208128910Y-126369420D01*
X207990071Y-126375193D01*
X207956845Y-126376123D01*
X207861223Y-126378255D01*
X207777620Y-126378927D01*
X207701664Y-126377626D01*
X207628983Y-126373839D01*
X207555205Y-126367054D01*
X207475958Y-126356757D01*
X207386870Y-126342436D01*
X207283570Y-126323579D01*
X207161684Y-126299673D01*
X207016841Y-126270204D01*
X206968138Y-126260177D01*
X206825678Y-126230930D01*
X206708824Y-126207440D01*
X206614499Y-126189399D01*
X206539631Y-126176502D01*
X206481144Y-126168441D01*
X206435964Y-126164910D01*
X206401017Y-126165602D01*
X206373228Y-126170210D01*
X206349522Y-126178427D01*
X206326826Y-126189948D01*
X206317578Y-126195273D01*
X206271727Y-126226070D01*
X206247417Y-126256625D01*
X206241003Y-126295866D01*
X206248841Y-126352722D01*
X206250329Y-126360014D01*
X206255492Y-126386597D01*
X206260919Y-126407030D01*
X206270209Y-126422386D01*
X206286964Y-126433741D01*
X206314783Y-126442170D01*
X206357267Y-126448747D01*
X206418016Y-126454549D01*
X206500630Y-126460649D01*
X206608710Y-126468123D01*
X206613521Y-126468459D01*
X206955130Y-126506046D01*
X207292001Y-126570166D01*
X207621510Y-126659871D01*
X207941036Y-126774214D01*
X208247954Y-126912247D01*
X208539642Y-127073021D01*
X208813476Y-127255589D01*
X208834307Y-127270940D01*
X208890952Y-127315915D01*
X208962291Y-127377053D01*
X209042755Y-127449331D01*
X209126780Y-127527726D01*
X209208797Y-127607214D01*
X209226430Y-127624761D01*
X209480226Y-127894693D01*
X209705460Y-128168454D01*
X209902767Y-128447255D01*
X210072782Y-128732307D01*
X210216139Y-129024820D01*
X210333473Y-129326004D01*
X210425418Y-129637071D01*
X210492609Y-129959230D01*
X210510238Y-130073709D01*
X210520067Y-130164853D01*
X210527713Y-130278640D01*
X210533130Y-130408478D01*
X210536271Y-130547774D01*
X210537091Y-130689936D01*
X210535541Y-130828371D01*
X210531577Y-130956488D01*
X210525152Y-131067694D01*
X210517765Y-131143646D01*
X210465801Y-131458925D01*
X210390951Y-131758947D01*
X210293680Y-132042113D01*
X210188365Y-132279190D01*
X210115034Y-132417865D01*
X210028794Y-132565976D01*
X209933064Y-132718612D01*
X209831266Y-132870863D01*
X209726820Y-133017819D01*
X209623148Y-133154570D01*
X209523669Y-133276206D01*
X209431805Y-133377817D01*
X209402280Y-133407549D01*
X209365383Y-133446021D01*
X209338759Y-133478382D01*
X209327893Y-133497928D01*
X209327861Y-133498489D01*
X209329359Y-133505641D01*
X209335818Y-133511846D01*
X209350184Y-133517544D01*
X209375402Y-133523171D01*
X209414420Y-133529168D01*
X209470184Y-133535972D01*
X209545639Y-133544023D01*
X209643733Y-133553758D01*
X209767412Y-133565616D01*
X209798999Y-133568615D01*
X210174868Y-133604267D01*
X210325436Y-133538910D01*
X210394427Y-133506714D01*
X210460285Y-133472061D01*
X210513996Y-133439888D01*
X210538916Y-133422001D01*
X210586972Y-133386096D01*
X210636393Y-133357999D01*
X210694856Y-133334391D01*
X210770034Y-133311954D01*
X210826645Y-133297603D01*
X210901674Y-133280553D01*
X210975591Y-133266630D01*
X211053612Y-133255258D01*
X211140951Y-133245861D01*
X211242825Y-133237863D01*
X211364449Y-133230689D01*
X211484704Y-133224921D01*
X211639909Y-133220248D01*
X211820737Y-133218769D01*
X212023684Y-133220402D01*
X212245243Y-133225064D01*
X212481908Y-133232674D01*
X212730175Y-133243151D01*
X212986536Y-133256413D01*
X213087296Y-133262283D01*
X213227174Y-133271191D01*
X213340009Y-133279593D01*
X213428058Y-133287794D01*
X213493581Y-133296096D01*
X213538835Y-133304806D01*
X213566080Y-133314226D01*
X213577573Y-133324662D01*
X213578294Y-133328416D01*
X213572095Y-133340737D01*
X213551339Y-133351831D01*
X213512786Y-133362488D01*
X213453195Y-133373498D01*
X213369327Y-133385652D01*
X213314474Y-133392759D01*
X213205406Y-133408104D01*
X213072655Y-133429460D01*
X212921034Y-133455966D01*
X212755357Y-133486759D01*
X212580436Y-133520975D01*
X212445478Y-133548490D01*
X212187863Y-133591969D01*
X211910456Y-133620159D01*
X211618659Y-133632751D01*
X211317879Y-133629433D01*
X211167273Y-133621806D01*
X211018508Y-133612442D01*
X210896158Y-133605097D01*
X210797399Y-133599691D01*
X210719408Y-133596144D01*
X210659362Y-133594377D01*
X210614437Y-133594309D01*
X210581810Y-133595860D01*
X210558658Y-133598950D01*
X210542156Y-133603500D01*
X210540700Y-133604057D01*
X210511824Y-133621737D01*
X210500394Y-133640722D01*
X210504737Y-133649014D01*
X210519492Y-133657425D01*
X210547255Y-133666496D01*
X210590618Y-133676770D01*
X210652176Y-133688788D01*
X210734523Y-133703091D01*
X210840251Y-133720223D01*
X210971954Y-133740724D01*
X210998721Y-133744830D01*
X211226678Y-133783464D01*
X211436184Y-133826556D01*
X211625619Y-133873583D01*
X211793365Y-133924024D01*
X211937801Y-133977356D01*
X212057308Y-134033058D01*
X212150266Y-134090608D01*
X212198541Y-134131578D01*
X212251198Y-134199230D01*
X212277681Y-134268641D01*
X212277599Y-134336333D01*
X212250559Y-134398829D01*
X212231299Y-134422451D01*
X212172679Y-134469788D01*
X212086456Y-134518256D01*
X211974296Y-134567429D01*
X211837869Y-134616879D01*
X211678840Y-134666181D01*
X211498880Y-134714908D01*
X211299654Y-134762633D01*
X211082832Y-134808929D01*
X210850081Y-134853371D01*
X210603069Y-134895532D01*
X210343463Y-134934984D01*
X210097336Y-134968217D01*
X209975728Y-134983219D01*
X209852980Y-134997358D01*
X209726079Y-135010896D01*
X209592008Y-135024093D01*
X209447753Y-135037209D01*
X209290300Y-135050505D01*
X209116633Y-135064242D01*
X208923738Y-135078682D01*
X208708600Y-135094083D01*
X208468203Y-135110708D01*
X208382506Y-135116528D01*
X208335799Y-135118789D01*
X208263987Y-135121073D01*
X208170213Y-135123351D01*
X208057621Y-135125594D01*
X207929355Y-135127771D01*
X207788558Y-135129855D01*
X207638374Y-135131815D01*
X207481947Y-135133622D01*
X207322420Y-135135247D01*
X207162938Y-135136661D01*
X207006643Y-135137834D01*
X206856680Y-135138738D01*
X206716192Y-135139342D01*
X206588323Y-135139617D01*
X206476217Y-135139535D01*
X206383017Y-135139065D01*
X206311867Y-135138179D01*
X206265910Y-135136847D01*
X206257290Y-135136341D01*
X206225221Y-135134637D01*
X206167889Y-135132267D01*
X206089335Y-135129370D01*
X205993598Y-135126088D01*
X205884719Y-135122559D01*
X205766736Y-135118923D01*
X205682907Y-135116448D01*
X205508633Y-135109911D01*
X205311784Y-135099955D01*
X205098835Y-135087073D01*
X204876260Y-135071759D01*
X204650536Y-135054508D01*
X204428137Y-135035812D01*
X204215538Y-135016165D01*
X204019216Y-134996061D01*
X203853597Y-134976978D01*
X203658174Y-134952470D01*
X203467446Y-134927755D01*
X203284109Y-134903229D01*
X203110860Y-134879284D01*
X202950396Y-134856315D01*
X202805414Y-134834716D01*
X202678611Y-134814881D01*
X202572683Y-134797203D01*
X202490329Y-134782077D01*
X202434244Y-134769897D01*
X202431900Y-134769301D01*
X202376758Y-134753487D01*
X202306765Y-134731131D01*
X202234410Y-134706273D01*
X202212050Y-134698176D01*
X202134520Y-134670407D01*
X202048468Y-134640739D01*
X201970161Y-134614758D01*
X201956355Y-134610336D01*
X201838822Y-134565516D01*
X201741029Y-134512886D01*
X201664547Y-134454278D01*
X201610947Y-134391525D01*
X201581798Y-134326459D01*
X201578673Y-134260914D01*
X201602606Y-134197594D01*
X201632790Y-134157331D01*
X201673967Y-134120425D01*
X201730555Y-134083990D01*
X201806972Y-134045141D01*
X201896448Y-134005687D01*
X202062834Y-133935568D01*
X202064585Y-133900947D01*
X202280126Y-133900947D01*
X202280223Y-133965202D01*
X202284099Y-134029130D01*
X202290998Y-134073428D01*
X202303501Y-134107776D01*
X202324193Y-134141854D01*
X202329304Y-134149155D01*
X202392931Y-134214919D01*
X202480184Y-134268835D01*
X202587550Y-134310140D01*
X202711520Y-134338072D01*
X202848580Y-134351870D01*
X202995222Y-134350769D01*
X203147932Y-134334009D01*
X203166478Y-134330913D01*
X203259212Y-134312525D01*
X203356242Y-134289221D01*
X203453118Y-134262500D01*
X203545387Y-134233861D01*
X203628598Y-134204804D01*
X203698300Y-134176826D01*
X203750041Y-134151428D01*
X203779371Y-134130107D01*
X203783842Y-134123019D01*
X203775029Y-134108760D01*
X203746138Y-134094513D01*
X203736699Y-134091604D01*
X203702245Y-134076841D01*
X203652364Y-134048944D01*
X203594957Y-134012531D01*
X203559559Y-133988067D01*
X203493046Y-133941772D01*
X203447176Y-133913172D01*
X203419931Y-133901371D01*
X203409288Y-133905476D01*
X203412582Y-133922941D01*
X203413443Y-133954855D01*
X203394159Y-133976702D01*
X203363142Y-133985038D01*
X203328803Y-133976415D01*
X203312347Y-133964007D01*
X203295184Y-133933293D01*
X203289848Y-133895211D01*
X203296419Y-133861699D01*
X203311548Y-133845677D01*
X203317242Y-133835628D01*
X203299434Y-133817103D01*
X203265712Y-133793979D01*
X203222064Y-133763828D01*
X203166616Y-133722105D01*
X203109602Y-133676574D01*
X203095227Y-133664601D01*
X203043594Y-133622927D01*
X202994612Y-133586461D01*
X202956463Y-133561196D01*
X202946862Y-133555950D01*
X202918310Y-133537154D01*
X202874863Y-133502738D01*
X202822503Y-133457657D01*
X202769004Y-133408569D01*
X202717953Y-133360871D01*
X202674565Y-133321560D01*
X202643220Y-133294520D01*
X202628297Y-133283632D01*
X202627965Y-133283574D01*
X202614659Y-133293529D01*
X202586130Y-133320398D01*
X202547099Y-133359615D01*
X202518040Y-133389875D01*
X202416823Y-133512319D01*
X202344028Y-133636872D01*
X202298760Y-133765695D01*
X202280126Y-133900947D01*
X202064585Y-133900947D01*
X202066582Y-133861453D01*
X202080665Y-133777004D01*
X202113141Y-133678705D01*
X202160807Y-133572531D01*
X202220461Y-133464454D01*
X202288900Y-133360447D01*
X202362921Y-133266484D01*
X202415466Y-133210736D01*
X202454438Y-133170997D01*
X202483459Y-133137889D01*
X202497346Y-133117424D01*
X202497855Y-133115216D01*
X202488813Y-133097051D01*
X202465144Y-133064446D01*
X202433077Y-133025756D01*
X202344692Y-132915878D01*
X202251071Y-132783660D01*
X202155479Y-132634818D01*
X202061176Y-132475067D01*
X201971425Y-132310122D01*
X201889488Y-132145698D01*
X201818626Y-131987511D01*
X201770540Y-131864991D01*
X201670280Y-131548760D01*
X201598985Y-131232630D01*
X201556360Y-130914939D01*
X201542110Y-130594025D01*
X201542132Y-130579364D01*
X201543254Y-130554405D01*
X201810584Y-130554405D01*
X201820354Y-130804931D01*
X201850331Y-131055544D01*
X201900283Y-131309559D01*
X201918763Y-131385481D01*
X202021196Y-131732898D01*
X202148533Y-132065887D01*
X202294045Y-132371359D01*
X202431515Y-132617283D01*
X202572723Y-132837507D01*
X202721098Y-133035643D01*
X202880072Y-133215303D01*
X203053075Y-133380099D01*
X203243537Y-133533642D01*
X203454890Y-133679546D01*
X203648404Y-133797297D01*
X203800585Y-133881722D01*
X203947660Y-133955378D01*
X204094370Y-134019874D01*
X204245457Y-134076820D01*
X204405662Y-134127824D01*
X204579727Y-134174494D01*
X204772392Y-134218441D01*
X204988400Y-134261273D01*
X205048115Y-134272270D01*
X205138457Y-134287426D01*
X205244366Y-134303160D01*
X205359530Y-134318726D01*
X205477638Y-134333376D01*
X205592377Y-134346362D01*
X205697435Y-134356938D01*
X205786502Y-134364354D01*
X205853263Y-134367866D01*
X205855934Y-134367926D01*
X205857507Y-134355077D01*
X205852813Y-134321297D01*
X205843451Y-134276508D01*
X205830695Y-134187150D01*
X205828691Y-134083592D01*
X205836871Y-133978548D01*
X205854662Y-133884737D01*
X205862142Y-133859618D01*
X205899371Y-133781432D01*
X205957880Y-133698635D01*
X206031631Y-133617242D01*
X206114584Y-133543268D01*
X206200701Y-133482730D01*
X206280452Y-133442947D01*
X206349189Y-133421567D01*
X206418129Y-133408190D01*
X206480329Y-133403362D01*
X206528843Y-133407625D01*
X206556542Y-133421300D01*
X206570191Y-133442070D01*
X206570833Y-133449496D01*
X206555780Y-133456738D01*
X206519960Y-133472932D01*
X206469487Y-133495333D01*
X206434357Y-133510767D01*
X206313975Y-133571319D01*
X206216724Y-133638707D01*
X206136508Y-133717478D01*
X206105640Y-133756111D01*
X206057073Y-133823989D01*
X206024827Y-133878183D01*
X206005744Y-133926914D01*
X205996669Y-133978404D01*
X205994445Y-134040874D01*
X205994463Y-134045665D01*
X206009340Y-134177911D01*
X206050605Y-134306831D01*
X206115355Y-134427952D01*
X206200689Y-134536799D01*
X206303702Y-134628899D01*
X206417668Y-134697952D01*
X206495587Y-134733106D01*
X206561793Y-134756066D01*
X206626714Y-134768975D01*
X206700781Y-134773978D01*
X206784930Y-134773468D01*
X206859669Y-134770360D01*
X206915463Y-134764085D01*
X206962656Y-134752679D01*
X207011592Y-134734180D01*
X207026765Y-134727573D01*
X207124443Y-134677516D01*
X207216943Y-134617709D01*
X207296524Y-134553726D01*
X207355444Y-134491141D01*
X207355788Y-134490691D01*
X207402644Y-134414134D01*
X207416884Y-134381286D01*
X209640823Y-134381286D01*
X209641070Y-134405230D01*
X209661852Y-134421943D01*
X209694781Y-134426739D01*
X209737244Y-134421844D01*
X209761625Y-134413833D01*
X209960664Y-134413833D01*
X209980172Y-134433433D01*
X210012738Y-134432535D01*
X210046816Y-134421779D01*
X210065733Y-134411746D01*
X210073744Y-134389478D01*
X210072861Y-134373333D01*
X210056460Y-134353279D01*
X210025171Y-134344600D01*
X209991003Y-134347369D01*
X209965968Y-134361663D01*
X209960723Y-134372632D01*
X209960664Y-134413833D01*
X209761625Y-134413833D01*
X209768525Y-134411566D01*
X209792065Y-134382962D01*
X209796874Y-134351308D01*
X209795134Y-134322313D01*
X209784261Y-134311600D01*
X209755775Y-134313754D01*
X209741912Y-134316212D01*
X209693382Y-134331763D01*
X209658973Y-134355126D01*
X209640823Y-134381286D01*
X207416884Y-134381286D01*
X207445307Y-134315724D01*
X207481482Y-134203270D01*
X209453542Y-134203270D01*
X209461313Y-134216075D01*
X209490429Y-134231794D01*
X209532020Y-134235301D01*
X209572068Y-134226924D01*
X209592701Y-134212988D01*
X209602205Y-134182874D01*
X209588779Y-134153865D01*
X209557332Y-134136253D01*
X209555973Y-134135972D01*
X209511253Y-134135741D01*
X209475313Y-134150232D01*
X209454096Y-134174417D01*
X209453542Y-134203270D01*
X207481482Y-134203270D01*
X207481617Y-134202850D01*
X207509416Y-134082902D01*
X207526541Y-133963268D01*
X207530869Y-133891770D01*
X207533763Y-133837540D01*
X207539016Y-133796984D01*
X207545640Y-133776929D01*
X207547680Y-133775924D01*
X207569563Y-133791495D01*
X207592704Y-133829904D01*
X207615023Y-133884863D01*
X207634440Y-133950089D01*
X207648875Y-134019294D01*
X207656247Y-134086193D01*
X207656772Y-134105513D01*
X207659897Y-134157854D01*
X207669416Y-134183275D01*
X207686229Y-134183651D01*
X207692295Y-134179578D01*
X207711742Y-134169802D01*
X207752643Y-134152499D01*
X207808904Y-134130158D01*
X207870911Y-134106581D01*
X208083824Y-134018350D01*
X208294193Y-133914250D01*
X208493490Y-133798899D01*
X208673185Y-133676914D01*
X208695422Y-133660231D01*
X208864855Y-133524182D01*
X209033166Y-133375194D01*
X209195881Y-133217904D01*
X209348523Y-133056953D01*
X209486615Y-132896979D01*
X209605680Y-132742623D01*
X209667005Y-132653282D01*
X209708017Y-132590202D01*
X209749174Y-132526900D01*
X209783892Y-132473498D01*
X209795646Y-132455417D01*
X209871816Y-132326383D01*
X209947924Y-132175446D01*
X210020938Y-132009866D01*
X210087825Y-131836902D01*
X210145552Y-131663813D01*
X210184472Y-131524719D01*
X210231878Y-131289174D01*
X210260653Y-131036394D01*
X210271001Y-130771606D01*
X210263126Y-130500035D01*
X210237234Y-130226908D01*
X210193528Y-129957449D01*
X210132214Y-129696885D01*
X210109850Y-129619353D01*
X210072031Y-129498007D01*
X210037507Y-129395115D01*
X210007201Y-129313164D01*
X209982033Y-129254639D01*
X209962924Y-129222028D01*
X209962516Y-129221548D01*
X209933176Y-129204802D01*
X209913514Y-129204880D01*
X209878736Y-129207131D01*
X209863313Y-129203851D01*
X209849848Y-129186675D01*
X209854116Y-129160190D01*
X209872065Y-129134699D01*
X209895784Y-129121316D01*
X209911083Y-129115957D01*
X209916353Y-129105825D01*
X209910844Y-129084455D01*
X209893808Y-129045383D01*
X209884718Y-129025758D01*
X209857300Y-128965926D01*
X209829650Y-128904262D01*
X209813828Y-128868139D01*
X209782006Y-128812657D01*
X209746547Y-128784292D01*
X209746374Y-128784226D01*
X209715457Y-128765628D01*
X209711058Y-128745360D01*
X209724187Y-128732256D01*
X209732915Y-128711015D01*
X209722112Y-128673617D01*
X209693253Y-128624352D01*
X209681584Y-128608283D01*
X209648438Y-128562339D01*
X209613322Y-128510652D01*
X209604442Y-128496973D01*
X209578646Y-128460508D01*
X209557129Y-128444181D01*
X209530646Y-128442120D01*
X209520166Y-128443433D01*
X209488118Y-128445088D01*
X209475810Y-128434106D01*
X209474428Y-128420216D01*
X209484448Y-128385689D01*
X209497855Y-128366860D01*
X209509223Y-128351802D01*
X209508292Y-128335244D01*
X209492493Y-128310117D01*
X209464877Y-128276047D01*
X209424424Y-128227115D01*
X209383507Y-128176696D01*
X209364503Y-128152840D01*
X209275654Y-128043556D01*
X209187918Y-127942232D01*
X209104551Y-127852281D01*
X209028811Y-127777117D01*
X208963953Y-127720155D01*
X208924441Y-127691452D01*
X208893702Y-127668819D01*
X208849730Y-127632466D01*
X208800416Y-127589000D01*
X208783460Y-127573427D01*
X208616678Y-127433868D01*
X208425275Y-127301128D01*
X208213594Y-127177506D01*
X207985976Y-127065301D01*
X207746762Y-126966811D01*
X207500295Y-126884333D01*
X207459136Y-126872396D01*
X207266782Y-126823024D01*
X207054388Y-126777686D01*
X206831127Y-126737999D01*
X206606175Y-126705582D01*
X206388705Y-126682050D01*
X206370879Y-126680513D01*
X206249962Y-126670312D01*
X206249962Y-126796419D01*
X206251441Y-126853092D01*
X206255393Y-126896567D01*
X206261086Y-126920155D01*
X206263745Y-126922526D01*
X206283346Y-126917839D01*
X206322579Y-126905447D01*
X206373600Y-126887852D01*
X206383001Y-126884480D01*
X206439374Y-126865284D01*
X206476518Y-126856449D01*
X206502193Y-126856894D01*
X206523113Y-126864972D01*
X206548655Y-126881476D01*
X206557540Y-126892025D01*
X206545676Y-126903169D01*
X206515294Y-126922971D01*
X206485919Y-126939915D01*
X206438143Y-126971609D01*
X206396413Y-127008243D01*
X206381041Y-127026290D01*
X206347573Y-127073290D01*
X206405028Y-127061036D01*
X206469252Y-127052879D01*
X206537853Y-127053129D01*
X206603881Y-127060659D01*
X206660384Y-127074343D01*
X206700411Y-127093052D01*
X206716102Y-127111473D01*
X206714174Y-127124748D01*
X206691628Y-127124908D01*
X206680582Y-127122748D01*
X206636235Y-127115623D01*
X206578467Y-127109730D01*
X206513720Y-127105290D01*
X206448438Y-127102525D01*
X206389065Y-127101657D01*
X206342045Y-127102907D01*
X206313822Y-127106497D01*
X206308588Y-127109948D01*
X206319046Y-127127043D01*
X206346339Y-127155845D01*
X206380903Y-127186951D01*
X206433964Y-127238896D01*
X206471804Y-127290633D01*
X206491142Y-127336725D01*
X206490282Y-127368217D01*
X206473083Y-127388366D01*
X206444217Y-127386524D01*
X206402176Y-127362031D01*
X206345454Y-127314227D01*
X206326803Y-127296640D01*
X206248809Y-127231235D01*
X206168110Y-127180434D01*
X206090135Y-127146781D01*
X206020314Y-127132821D01*
X205982672Y-127135343D01*
X205932361Y-127151831D01*
X205866380Y-127181666D01*
X205792451Y-127220533D01*
X205718295Y-127264116D01*
X205651634Y-127308096D01*
X205600192Y-127348159D01*
X205597290Y-127350769D01*
X205521364Y-127419923D01*
X205490272Y-127386826D01*
X205470901Y-127363581D01*
X205467333Y-127343936D01*
X205478675Y-127314981D01*
X205484489Y-127303271D01*
X205510333Y-127267842D01*
X205551676Y-127227273D01*
X205590412Y-127196957D01*
X205632193Y-127165632D01*
X205662890Y-127138154D01*
X205675488Y-127121177D01*
X205665681Y-127104652D01*
X205629311Y-127093247D01*
X205568719Y-127087228D01*
X205486252Y-127086860D01*
X205406919Y-127090757D01*
X205333428Y-127094333D01*
X205280496Y-127093865D01*
X205251700Y-127089442D01*
X205247844Y-127086766D01*
X205253079Y-127071353D01*
X205282195Y-127053380D01*
X205330049Y-127034365D01*
X205391494Y-127015826D01*
X205461384Y-126999280D01*
X205534574Y-126986246D01*
X205605917Y-126978240D01*
X205618586Y-126977426D01*
X205666380Y-126971208D01*
X205685853Y-126960199D01*
X205677393Y-126945514D01*
X205641391Y-126928270D01*
X205596544Y-126914326D01*
X205546753Y-126899952D01*
X205522155Y-126889885D01*
X205519321Y-126882112D01*
X205531066Y-126875954D01*
X205569988Y-126873926D01*
X205626559Y-126891322D01*
X205634585Y-126894698D01*
X205676979Y-126910553D01*
X205708665Y-126918074D01*
X205718890Y-126917319D01*
X205723033Y-126900470D01*
X205723293Y-126863950D01*
X205720470Y-126817027D01*
X205715365Y-126768968D01*
X205708777Y-126729038D01*
X205701507Y-126706505D01*
X205700586Y-126705368D01*
X205683200Y-126703255D01*
X205642119Y-126704065D01*
X205582762Y-126707333D01*
X205510550Y-126712593D01*
X205430905Y-126719380D01*
X205349245Y-126727228D01*
X205270993Y-126735671D01*
X205201569Y-126744243D01*
X205146394Y-126752478D01*
X205140723Y-126753469D01*
X205013020Y-126779386D01*
X204868902Y-126813900D01*
X204715635Y-126854867D01*
X204560486Y-126900146D01*
X204410720Y-126947597D01*
X204273603Y-126995076D01*
X204156402Y-127040443D01*
X204132074Y-127050766D01*
X203847492Y-127183584D01*
X203588550Y-127325041D01*
X203352226Y-127477631D01*
X203135497Y-127643851D01*
X202935342Y-127826197D01*
X202748737Y-128027165D01*
X202572661Y-128249250D01*
X202428094Y-128457899D01*
X202289756Y-128688762D01*
X202174058Y-128925419D01*
X202076044Y-129178043D01*
X202072982Y-129186981D01*
X201978226Y-129486827D01*
X201904842Y-129770175D01*
X201852595Y-130040343D01*
X201821253Y-130300647D01*
X201810584Y-130554405D01*
X201543254Y-130554405D01*
X201556657Y-130256117D01*
X201597316Y-129932455D01*
X201663050Y-129611936D01*
X201752803Y-129298120D01*
X201865520Y-128994564D01*
X202000142Y-128704829D01*
X202155614Y-128432472D01*
X202199839Y-128364165D01*
X202355045Y-128146043D01*
X202526999Y-127932042D01*
X202709811Y-127728815D01*
X202897590Y-127543015D01*
X203032185Y-127424079D01*
X203241693Y-127264260D01*
X203475162Y-127114398D01*
X203728456Y-126976092D01*
X203997439Y-126850940D01*
X204277977Y-126740538D01*
X204565934Y-126646486D01*
X204857174Y-126570381D01*
X205147563Y-126513821D01*
X205432964Y-126478404D01*
X205491479Y-126473830D01*
X205557994Y-126468514D01*
X205600357Y-126462931D01*
X205623711Y-126455790D01*
X205633202Y-126445802D01*
X205634382Y-126437992D01*
X205628114Y-126409547D01*
X205611297Y-126361949D01*
X205586912Y-126302052D01*
X205557939Y-126236708D01*
X205527358Y-126172769D01*
X205498149Y-126117087D01*
X205484955Y-126094425D01*
X205406877Y-125982568D01*
X205307125Y-125864775D01*
X205191004Y-125746564D01*
X205063823Y-125633451D01*
X204971368Y-125560494D01*
X204902559Y-125502874D01*
X204879552Y-125474921D01*
X205194682Y-125474921D01*
X205204697Y-125488524D01*
X205232309Y-125518539D01*
X205273870Y-125561184D01*
X205325728Y-125612676D01*
X205356021Y-125642145D01*
X205509574Y-125802884D01*
X205635139Y-125961709D01*
X205733831Y-126120220D01*
X205806763Y-126280014D01*
X205813931Y-126299618D01*
X205835659Y-126371618D01*
X205857977Y-126464637D01*
X205879336Y-126570460D01*
X205898187Y-126680870D01*
X205912979Y-126787652D01*
X205921059Y-126867564D01*
X205926224Y-126921028D01*
X205931890Y-126960963D01*
X205937007Y-126980341D01*
X205938028Y-126981153D01*
X205954448Y-126974137D01*
X205985493Y-126956662D01*
X205996036Y-126950253D01*
X206026568Y-126929146D01*
X206034377Y-126915042D01*
X206023944Y-126902619D01*
X206012207Y-126882393D01*
X206000806Y-126838614D01*
X205989314Y-126769253D01*
X205979379Y-126690606D01*
X205959922Y-126549346D01*
X205940702Y-126446185D01*
X205971485Y-126446185D01*
X205978813Y-126453513D01*
X205986142Y-126446185D01*
X205978813Y-126438856D01*
X205971485Y-126446185D01*
X205940702Y-126446185D01*
X205935824Y-126420006D01*
X205908307Y-126308242D01*
X205878595Y-126219712D01*
X205876393Y-126214360D01*
X205863830Y-126180650D01*
X205859765Y-126161812D01*
X205860745Y-126160380D01*
X205873940Y-126172531D01*
X205893312Y-126203039D01*
X205914297Y-126242987D01*
X205932332Y-126283458D01*
X205942853Y-126315532D01*
X205943906Y-126322891D01*
X205945908Y-126344060D01*
X205950339Y-126339705D01*
X205958064Y-126314275D01*
X205965602Y-126289303D01*
X205967758Y-126289791D01*
X205965339Y-126317378D01*
X205964305Y-126326961D01*
X205966121Y-126379141D01*
X205979460Y-126404955D01*
X205993918Y-126415808D01*
X205999815Y-126405503D01*
X206000798Y-126378574D01*
X205997078Y-126336891D01*
X205987556Y-126282351D01*
X205979950Y-126249281D01*
X205968880Y-126204299D01*
X205953317Y-126138828D01*
X205935904Y-126064155D01*
X206118731Y-126064155D01*
X206118782Y-126088932D01*
X206126128Y-126099772D01*
X206129044Y-126099055D01*
X206146611Y-126090471D01*
X206183205Y-126072381D01*
X206231619Y-126048349D01*
X206242633Y-126042871D01*
X206345230Y-125991828D01*
X206565080Y-125992632D01*
X206681059Y-125995055D01*
X206791736Y-126002043D01*
X206904963Y-126014506D01*
X207028589Y-126033351D01*
X207170463Y-126059489D01*
X207209973Y-126067323D01*
X207426928Y-126106062D01*
X207625250Y-126130692D01*
X207811903Y-126141393D01*
X207993853Y-126138340D01*
X208178064Y-126121712D01*
X208345865Y-126096292D01*
X208499209Y-126065703D01*
X208632880Y-126030288D01*
X208756488Y-125986585D01*
X208879640Y-125931132D01*
X209011947Y-125860469D01*
X209031534Y-125849288D01*
X209218522Y-125727671D01*
X209400547Y-125580238D01*
X209579589Y-125405362D01*
X209605163Y-125377910D01*
X209644527Y-125336683D01*
X209693493Y-125287437D01*
X209732862Y-125249108D01*
X209779606Y-125199309D01*
X209801804Y-125161402D01*
X209800347Y-125132701D01*
X209778290Y-125111771D01*
X209766375Y-125101279D01*
X209783439Y-125101279D01*
X209789801Y-125104521D01*
X209801760Y-125105100D01*
X209822784Y-125097883D01*
X209826188Y-125090443D01*
X209837455Y-125076350D01*
X209841709Y-125075786D01*
X209850513Y-125084743D01*
X209848277Y-125090275D01*
X209850607Y-125098675D01*
X209861415Y-125096286D01*
X209875442Y-125084870D01*
X209865841Y-125068510D01*
X209848201Y-125057451D01*
X209826325Y-125067434D01*
X209818859Y-125073336D01*
X209794621Y-125092866D01*
X209783439Y-125101279D01*
X209766375Y-125101279D01*
X209766243Y-125101163D01*
X209770147Y-125088286D01*
X209793352Y-125068047D01*
X209819478Y-125049161D01*
X209835288Y-125039145D01*
X209870158Y-125039145D01*
X209877486Y-125046473D01*
X209884814Y-125039145D01*
X209877486Y-125031816D01*
X209870158Y-125039145D01*
X209835288Y-125039145D01*
X209858286Y-125024576D01*
X209888060Y-125010736D01*
X209899341Y-125009751D01*
X209917089Y-125006932D01*
X209922708Y-125000478D01*
X209924801Y-124990330D01*
X209914128Y-124995175D01*
X209901749Y-124998995D01*
X209904508Y-124991554D01*
X209922587Y-124977391D01*
X209960460Y-124977391D01*
X209964027Y-124985582D01*
X209978784Y-125001317D01*
X209987268Y-124998089D01*
X209987411Y-124996040D01*
X209977001Y-124983643D01*
X209970490Y-124979119D01*
X209960460Y-124977391D01*
X209922587Y-124977391D01*
X209924124Y-124976187D01*
X209958044Y-124960749D01*
X209958573Y-124960564D01*
X209987311Y-124953326D01*
X209995005Y-124957930D01*
X209994376Y-124959121D01*
X209993461Y-124972011D01*
X210014027Y-124970090D01*
X210052830Y-124954291D01*
X210102366Y-124928006D01*
X210142033Y-124903600D01*
X210167605Y-124884612D01*
X210173499Y-124875915D01*
X210155355Y-124869858D01*
X210111683Y-124860450D01*
X210046009Y-124848224D01*
X209961861Y-124833712D01*
X209862764Y-124817446D01*
X209752246Y-124799958D01*
X209633833Y-124781782D01*
X209511053Y-124763449D01*
X209387431Y-124745491D01*
X209266495Y-124728442D01*
X209151772Y-124712833D01*
X209046787Y-124699197D01*
X208955068Y-124688066D01*
X208880141Y-124679972D01*
X208867354Y-124678753D01*
X208756855Y-124671598D01*
X208627900Y-124668260D01*
X208488466Y-124668534D01*
X208346532Y-124672216D01*
X208210073Y-124679102D01*
X208087070Y-124688986D01*
X207987853Y-124701294D01*
X207756284Y-124748078D01*
X207513988Y-124817093D01*
X207375816Y-124864877D01*
X207183819Y-124942704D01*
X207015743Y-125027374D01*
X206866372Y-125122521D01*
X206730489Y-125231774D01*
X206602880Y-125358765D01*
X206509158Y-125468213D01*
X206467094Y-125523012D01*
X206426900Y-125580033D01*
X206391518Y-125634460D01*
X206363884Y-125681479D01*
X206346940Y-125716275D01*
X206343623Y-125734035D01*
X206346090Y-125735336D01*
X206362020Y-125728444D01*
X206396350Y-125710191D01*
X206442295Y-125684216D01*
X206452598Y-125678229D01*
X206499286Y-125652622D01*
X206562952Y-125619957D01*
X206637545Y-125583099D01*
X206717013Y-125544914D01*
X206795303Y-125508269D01*
X206866365Y-125476030D01*
X206924146Y-125451062D01*
X206962596Y-125436231D01*
X206965586Y-125435280D01*
X206994999Y-125424323D01*
X207041771Y-125404818D01*
X207096703Y-125380626D01*
X207106956Y-125375976D01*
X207160862Y-125350525D01*
X207194659Y-125330345D01*
X207215171Y-125309136D01*
X207229226Y-125280603D01*
X207238226Y-125254860D01*
X207263440Y-125192628D01*
X207295967Y-125131200D01*
X207330947Y-125078394D01*
X207363520Y-125042031D01*
X207376002Y-125033167D01*
X207407301Y-125026954D01*
X207425481Y-125041742D01*
X207424543Y-125070098D01*
X207417109Y-125084114D01*
X207402406Y-125111669D01*
X207382043Y-125157136D01*
X207360333Y-125210863D01*
X207359554Y-125212899D01*
X207321207Y-125313370D01*
X207353530Y-125304160D01*
X207432771Y-125283047D01*
X207525066Y-125260766D01*
X207622286Y-125239056D01*
X207716303Y-125219659D01*
X207798990Y-125204317D01*
X207862219Y-125194769D01*
X207866498Y-125194274D01*
X207922231Y-125186381D01*
X207965428Y-125177141D01*
X207988863Y-125168207D01*
X207990977Y-125165781D01*
X208009728Y-125127938D01*
X208042688Y-125077352D01*
X208083630Y-125022294D01*
X208126327Y-124971036D01*
X208164552Y-124931851D01*
X208171688Y-124925717D01*
X208220374Y-124890594D01*
X208263949Y-124867627D01*
X208297210Y-124858708D01*
X208314957Y-124865730D01*
X208316551Y-124872982D01*
X208308351Y-124893499D01*
X208286513Y-124930486D01*
X208255185Y-124977111D01*
X208243268Y-124993726D01*
X208209857Y-125040927D01*
X208184429Y-125079460D01*
X208171061Y-125103045D01*
X208169985Y-125106635D01*
X208171500Y-125111299D01*
X208178473Y-125113568D01*
X208194546Y-125112870D01*
X208223361Y-125108633D01*
X208268560Y-125100284D01*
X208333785Y-125087252D01*
X208422676Y-125068963D01*
X208463118Y-125060579D01*
X208614642Y-125031640D01*
X208769356Y-125006681D01*
X208921051Y-124986435D01*
X209063518Y-124971636D01*
X209190548Y-124963015D01*
X209295932Y-124961308D01*
X209302276Y-124961465D01*
X209368902Y-124964601D01*
X209421641Y-124969566D01*
X209454843Y-124975692D01*
X209463499Y-124980518D01*
X209457571Y-124996887D01*
X209430689Y-125013304D01*
X209381346Y-125030163D01*
X209308035Y-125047855D01*
X209209250Y-125066771D01*
X209083484Y-125087303D01*
X209011092Y-125098139D01*
X208858600Y-125120814D01*
X208731814Y-125140594D01*
X208627338Y-125158117D01*
X208541776Y-125174019D01*
X208471734Y-125188937D01*
X208413818Y-125203508D01*
X208364631Y-125218368D01*
X208357828Y-125220650D01*
X208282918Y-125246113D01*
X208427981Y-125280360D01*
X208559311Y-125313702D01*
X208686420Y-125350367D01*
X208805259Y-125388873D01*
X208911776Y-125427737D01*
X209001922Y-125465475D01*
X209071644Y-125500604D01*
X209116895Y-125531641D01*
X209118705Y-125533305D01*
X209147825Y-125567425D01*
X209150689Y-125589943D01*
X209127981Y-125600809D01*
X209080384Y-125599971D01*
X209008584Y-125587379D01*
X208913264Y-125562984D01*
X208873505Y-125551357D01*
X208795994Y-125528220D01*
X208701031Y-125500120D01*
X208599333Y-125470215D01*
X208501612Y-125441662D01*
X208477775Y-125434733D01*
X208395534Y-125410463D01*
X208318686Y-125387068D01*
X208253695Y-125366569D01*
X208207026Y-125350986D01*
X208191970Y-125345426D01*
X208135305Y-125331355D01*
X208059104Y-125324212D01*
X207972347Y-125324147D01*
X207884018Y-125331315D01*
X207832937Y-125339354D01*
X207762075Y-125354696D01*
X207672731Y-125376579D01*
X207571669Y-125403096D01*
X207465648Y-125432342D01*
X207361432Y-125462410D01*
X207265781Y-125491396D01*
X207185459Y-125517393D01*
X207129362Y-125537645D01*
X207006280Y-125586671D01*
X206905049Y-125627838D01*
X206820140Y-125663764D01*
X206746025Y-125697065D01*
X206677177Y-125730359D01*
X206608068Y-125766263D01*
X206533171Y-125807395D01*
X206446959Y-125856372D01*
X206403857Y-125881173D01*
X206342423Y-125915465D01*
X206281735Y-125947436D01*
X206232318Y-125971594D01*
X206220648Y-125976759D01*
X206177879Y-125996053D01*
X206145118Y-126012883D01*
X206136372Y-126018391D01*
X206124940Y-126036842D01*
X206118731Y-126064155D01*
X205935904Y-126064155D01*
X205935165Y-126060985D01*
X205916330Y-125978887D01*
X205912614Y-125962515D01*
X205879180Y-125819451D01*
X205847989Y-125697258D01*
X205816551Y-125587876D01*
X205782379Y-125483247D01*
X205742982Y-125375312D01*
X205695874Y-125256012D01*
X205689926Y-125241387D01*
X205646896Y-125135839D01*
X205538988Y-125243049D01*
X205466612Y-125309778D01*
X205398269Y-125360068D01*
X205322399Y-125402298D01*
X205312881Y-125406915D01*
X205260481Y-125433215D01*
X205219994Y-125455790D01*
X205197409Y-125471191D01*
X205194682Y-125474921D01*
X204879552Y-125474921D01*
X204857510Y-125448140D01*
X204832312Y-125389507D01*
X204823055Y-125320187D01*
X204822769Y-125302554D01*
X204829341Y-125253590D01*
X205007335Y-125253590D01*
X205010305Y-125303526D01*
X205018340Y-125327359D01*
X205032379Y-125337575D01*
X205061253Y-125337607D01*
X205089174Y-125334194D01*
X205138672Y-125322482D01*
X205199562Y-125301041D01*
X205252737Y-125277342D01*
X205320032Y-125236492D01*
X205394580Y-125179705D01*
X205455414Y-125125227D01*
X205505418Y-125075571D01*
X205536968Y-125040110D01*
X205553662Y-125013729D01*
X205559102Y-124991315D01*
X205558582Y-124978660D01*
X205554772Y-124956137D01*
X205545225Y-124943626D01*
X205523002Y-124938308D01*
X205481167Y-124937361D01*
X205457525Y-124937573D01*
X205368156Y-124948092D01*
X205280504Y-124975582D01*
X205198550Y-125016785D01*
X205126275Y-125068446D01*
X205067661Y-125127305D01*
X205026687Y-125190105D01*
X205007335Y-125253590D01*
X204829341Y-125253590D01*
X204836812Y-125197923D01*
X204879110Y-125099705D01*
X204949913Y-125007386D01*
X204983473Y-124974540D01*
X205075081Y-124903061D01*
X205175179Y-124846169D01*
X205279569Y-124804484D01*
X205384051Y-124778629D01*
X205484428Y-124769225D01*
X205576500Y-124776893D01*
X205656069Y-124802254D01*
X205718936Y-124845931D01*
X205734466Y-124863400D01*
X205755873Y-124894080D01*
X205766137Y-124915604D01*
X205766292Y-124917107D01*
X205771875Y-124934058D01*
X205787443Y-124973558D01*
X205811220Y-125031305D01*
X205841430Y-125102996D01*
X205876299Y-125184330D01*
X205881897Y-125197271D01*
X205920689Y-125287601D01*
X205958249Y-125376442D01*
X205991906Y-125457380D01*
X206018992Y-125523999D01*
X206036234Y-125568252D01*
X206057871Y-125622911D01*
X206078621Y-125669513D01*
X206094283Y-125698675D01*
X206095303Y-125700130D01*
X206110603Y-125717688D01*
X206124123Y-125715819D01*
X206145983Y-125692959D01*
X206146640Y-125692202D01*
X206169604Y-125660243D01*
X206198334Y-125612850D01*
X206222737Y-125567713D01*
X206326180Y-125392630D01*
X206450841Y-125233650D01*
X206597945Y-125089702D01*
X206768720Y-124959715D01*
X206964392Y-124842621D01*
X207163017Y-124747278D01*
X207458709Y-124635058D01*
X207764017Y-124550486D01*
X208078724Y-124493595D01*
X208402613Y-124464419D01*
X208735468Y-124462991D01*
X208939460Y-124475472D01*
G37*
%TD*%
D11*
%TO.C,B1*%
X220863100Y-138106300D03*
X220863100Y-144306300D03*
X217163100Y-138106300D03*
X217163100Y-144306300D03*
%TD*%
D12*
%TO.C,D20*%
X126413100Y-76006300D03*
X126413100Y-78806300D03*
%TD*%
%TO.C,D3*%
X162413100Y-91406300D03*
X162413100Y-94206300D03*
%TD*%
D13*
%TO.C,D13*%
X109624358Y-146627725D03*
X110014042Y-149400475D03*
%TD*%
D14*
%TO.C,S15*%
X157913100Y-93006300D03*
D15*
X157413100Y-96756300D03*
X152413100Y-98956300D03*
X152413100Y-98956300D03*
D16*
X152413100Y-93006300D03*
D15*
X147413100Y-96756300D03*
D14*
X146913100Y-93006300D03*
D17*
X149138100Y-98956300D03*
X160688100Y-96756300D03*
%TD*%
D12*
%TO.C,D4*%
X162413100Y-74406300D03*
X162413100Y-77206300D03*
%TD*%
%TO.C,D1*%
X162413100Y-125406300D03*
X162413100Y-128206300D03*
%TD*%
D18*
%TO.C,TRRS*%
X222313100Y-118506300D03*
X215313100Y-118506300D03*
D19*
X212613100Y-116206300D03*
X212613100Y-120806300D03*
X213713100Y-116206300D03*
X213713100Y-120806300D03*
X217713100Y-116206300D03*
X217713100Y-120806300D03*
X220713100Y-116206300D03*
X220713100Y-120806300D03*
%TD*%
D14*
%TO.C,S13*%
X157913100Y-127006300D03*
D15*
X157413100Y-130756300D03*
X152413100Y-132956300D03*
X152413100Y-132956300D03*
D16*
X152413100Y-127006300D03*
D15*
X147413100Y-130756300D03*
D14*
X146913100Y-127006300D03*
D17*
X149138100Y-132956300D03*
X160688100Y-130756300D03*
%TD*%
D20*
%TO.C,H1*%
X120013100Y-78006300D03*
%TD*%
D12*
%TO.C,D22*%
X144413100Y-108006300D03*
X144413100Y-110806300D03*
%TD*%
%TO.C,D19*%
X126413100Y-93006300D03*
X126413100Y-95806300D03*
%TD*%
D14*
%TO.C,S27*%
X220062693Y-163639119D03*
D15*
X217453990Y-166379040D03*
X212115778Y-165219951D03*
X212115778Y-165219951D03*
D16*
X215613100Y-160406300D03*
D15*
X209363820Y-160501187D03*
D14*
X211163507Y-157173481D03*
D21*
X209466247Y-163294954D03*
X220103521Y-168304037D03*
%TD*%
D14*
%TO.C,S12*%
X139913100Y-78006300D03*
D15*
X139413100Y-81756300D03*
X134413100Y-83956300D03*
X134413100Y-83956300D03*
D16*
X134413100Y-78006300D03*
D15*
X129413100Y-81756300D03*
D14*
X128913100Y-78006300D03*
D17*
X131138100Y-83956300D03*
X142688100Y-81756300D03*
%TD*%
D13*
%TO.C,D12*%
X84701658Y-98629225D03*
X85091342Y-101401975D03*
%TD*%
D20*
%TO.C,H5*%
X201013100Y-80006300D03*
%TD*%
D14*
%TO.C,S22*%
X193913100Y-114006300D03*
D15*
X193413100Y-117756300D03*
X188413100Y-119956300D03*
X188413100Y-119956300D03*
D16*
X188413100Y-114006300D03*
D15*
X183413100Y-117756300D03*
D14*
X182913100Y-114006300D03*
D17*
X185138100Y-119956300D03*
X196688100Y-117756300D03*
%TD*%
D12*
%TO.C,D23*%
X144413100Y-91006300D03*
X144413100Y-93806300D03*
%TD*%
D14*
%TO.C,S11*%
X139913100Y-95006300D03*
D15*
X139413100Y-98756300D03*
X134413100Y-100956300D03*
X134413100Y-100956300D03*
D16*
X134413100Y-95006300D03*
D15*
X129413100Y-98756300D03*
D14*
X128913100Y-95006300D03*
D17*
X131138100Y-100956300D03*
X142688100Y-98756300D03*
%TD*%
D12*
%TO.C,D18*%
X126413100Y-110006300D03*
X126413100Y-112806300D03*
%TD*%
D22*
%TO.C,D26*%
X190622724Y-146832021D03*
X189757476Y-149494979D03*
%TD*%
D23*
%TO.C,JST2*%
X200013100Y-102106300D03*
D24*
X202013100Y-102106300D03*
%TD*%
D14*
%TO.C,S19*%
X175913100Y-95006300D03*
D15*
X175413100Y-98756300D03*
X170413100Y-100956300D03*
X170413100Y-100956300D03*
D16*
X170413100Y-95006300D03*
D15*
X165413100Y-98756300D03*
D14*
X164913100Y-95006300D03*
D17*
X167138100Y-100956300D03*
X178688100Y-98756300D03*
%TD*%
D12*
%TO.C,D6*%
X180413100Y-110406300D03*
X180413100Y-113206300D03*
%TD*%
%TO.C,D5*%
X180413100Y-127406300D03*
X180413100Y-130206300D03*
%TD*%
D13*
%TO.C,D14*%
X107258358Y-129793225D03*
X107648042Y-132565975D03*
%TD*%
D14*
%TO.C,S25*%
X183113100Y-148006300D03*
D15*
X182613100Y-151756300D03*
X177613100Y-153956300D03*
X177613100Y-153956300D03*
D16*
X177613100Y-148006300D03*
D15*
X172613100Y-151756300D03*
D14*
X172113100Y-148006300D03*
D17*
X174338100Y-153956300D03*
X185888100Y-151756300D03*
%TD*%
D14*
%TO.C,S16*%
X157913100Y-76006300D03*
D15*
X157413100Y-79756300D03*
X152413100Y-81956300D03*
X152413100Y-81956300D03*
D16*
X152413100Y-76006300D03*
D15*
X147413100Y-79756300D03*
D14*
X146913100Y-76006300D03*
D17*
X149138100Y-81956300D03*
X160688100Y-79756300D03*
%TD*%
D12*
%TO.C,D21*%
X144413100Y-125006300D03*
X144413100Y-127806300D03*
%TD*%
D14*
%TO.C,S23*%
X193913100Y-97006300D03*
D15*
X193413100Y-100756300D03*
X188413100Y-102956300D03*
X188413100Y-102956300D03*
D16*
X188413100Y-97006300D03*
D15*
X183413100Y-100756300D03*
D14*
X182913100Y-97006300D03*
D17*
X185138100Y-102956300D03*
X196688100Y-100756300D03*
%TD*%
D13*
%TO.C,D16*%
X102526458Y-96124025D03*
X102916142Y-98896775D03*
%TD*%
D12*
%TO.C,D25*%
X169613100Y-146006300D03*
X169613100Y-148806300D03*
%TD*%
%TO.C,D7*%
X180413100Y-93406300D03*
X180413100Y-96206300D03*
%TD*%
D14*
%TO.C,S4*%
X98348674Y-98730848D03*
D15*
X98375438Y-102513940D03*
X93730280Y-105388395D03*
X93730280Y-105388395D03*
D16*
X92902200Y-99496300D03*
D15*
X88472759Y-103905671D03*
D14*
X87455726Y-100261752D03*
D25*
X90487152Y-105844187D03*
X101618567Y-102058148D03*
%TD*%
D14*
%TO.C,S24*%
X193913100Y-80006300D03*
D15*
X193413100Y-83756300D03*
X188413100Y-85956300D03*
X188413100Y-85956300D03*
D16*
X188413100Y-80006300D03*
D15*
X183413100Y-83756300D03*
D14*
X182913100Y-80006300D03*
D17*
X185138100Y-85956300D03*
X196688100Y-83756300D03*
%TD*%
D12*
%TO.C,D8*%
X180413100Y-76406300D03*
X180413100Y-79206300D03*
%TD*%
D14*
%TO.C,S20*%
X175913100Y-78006300D03*
D15*
X175413100Y-81756300D03*
X170413100Y-83956300D03*
X170413100Y-83956300D03*
D16*
X170413100Y-78006300D03*
D15*
X165413100Y-81756300D03*
D14*
X164913100Y-78006300D03*
D17*
X167138100Y-83956300D03*
X178688100Y-81756300D03*
%TD*%
D20*
%TO.C,H3*%
X161413100Y-146006300D03*
%TD*%
D14*
%TO.C,S21*%
X193913100Y-131006300D03*
D15*
X193413100Y-134756300D03*
X188413100Y-136956300D03*
X188413100Y-136956300D03*
D16*
X188413100Y-131006300D03*
D15*
X183413100Y-134756300D03*
D14*
X182913100Y-131006300D03*
D17*
X185138100Y-136956300D03*
X196688100Y-134756300D03*
%TD*%
D23*
%TO.C,JST1*%
X200013100Y-102106300D03*
D24*
X202013100Y-102106300D03*
%TD*%
D13*
%TO.C,D9*%
X91799558Y-149132825D03*
X92189242Y-151905575D03*
%TD*%
D14*
%TO.C,S10*%
X139913100Y-112006300D03*
D15*
X139413100Y-115756300D03*
X134413100Y-117956300D03*
X134413100Y-117956300D03*
D16*
X134413100Y-112006300D03*
D15*
X129413100Y-115756300D03*
D14*
X128913100Y-112006300D03*
D17*
X131138100Y-117956300D03*
X142688100Y-115756300D03*
%TD*%
D20*
%TO.C,H2*%
X134413100Y-146006300D03*
%TD*%
D14*
%TO.C,S8*%
X116173474Y-96225748D03*
D15*
X116200238Y-100008840D03*
X111555080Y-102883295D03*
X111555080Y-102883295D03*
D16*
X110727000Y-96991200D03*
D15*
X106297559Y-101400571D03*
D14*
X105280526Y-97756652D03*
D25*
X108311952Y-103339087D03*
X119443367Y-99553048D03*
%TD*%
D14*
%TO.C,S18*%
X175913100Y-112006300D03*
D15*
X175413100Y-115756300D03*
X170413100Y-117956300D03*
X170413100Y-117956300D03*
D16*
X170413100Y-112006300D03*
D15*
X165413100Y-115756300D03*
D14*
X164913100Y-112006300D03*
D17*
X167138100Y-117956300D03*
X178688100Y-115756300D03*
%TD*%
D13*
%TO.C,D15*%
X104892458Y-112958625D03*
X105282142Y-115731375D03*
%TD*%
D12*
%TO.C,D24*%
X144413100Y-74006300D03*
X144413100Y-76806300D03*
%TD*%
D20*
%TO.C,H4*%
X208663400Y-140496900D03*
%TD*%
D26*
%TO.C,pm*%
X205793100Y-76036300D03*
D27*
X207793100Y-76036300D03*
D28*
X210151100Y-76036300D03*
D29*
X218188100Y-76036300D03*
D26*
X205793100Y-78576300D03*
D27*
X207793100Y-78576300D03*
D28*
X210151100Y-78576300D03*
D29*
X218188100Y-78576300D03*
D26*
X205793100Y-81116300D03*
D27*
X207793100Y-81116300D03*
D28*
X210151100Y-81116300D03*
D29*
X218188100Y-81116300D03*
D26*
X205793100Y-83656300D03*
D27*
X207793100Y-83656300D03*
D28*
X210151100Y-83656300D03*
D29*
X218188100Y-83656300D03*
D26*
X205793100Y-86196300D03*
D27*
X207793100Y-86196300D03*
D28*
X210151100Y-86196300D03*
D29*
X218188100Y-86196300D03*
D26*
X205793100Y-88736300D03*
D27*
X207793100Y-88736300D03*
D28*
X210151100Y-88736300D03*
D29*
X218188100Y-88736300D03*
D26*
X205793100Y-91276300D03*
D27*
X207793100Y-91276300D03*
D28*
X210151100Y-91276300D03*
D29*
X218188100Y-91276300D03*
D26*
X205793100Y-93816300D03*
D27*
X207793100Y-93816300D03*
D28*
X210151100Y-93816300D03*
D29*
X218188100Y-93816300D03*
D26*
X205793100Y-96356300D03*
D27*
X207793100Y-96356300D03*
D28*
X210151100Y-96356300D03*
D29*
X218188100Y-96356300D03*
D26*
X205793100Y-98896300D03*
D27*
X207793100Y-98896300D03*
D28*
X210151100Y-98896300D03*
D29*
X218188100Y-98896300D03*
D26*
X205793100Y-101436300D03*
D27*
X207793100Y-101436300D03*
D28*
X210151100Y-101436300D03*
D29*
X218188100Y-101436300D03*
D26*
X205793100Y-103976300D03*
D27*
X207793100Y-103976300D03*
D28*
X210151100Y-103976300D03*
D29*
X218188100Y-103976300D03*
D26*
X205793100Y-106516300D03*
D27*
X207793100Y-106516300D03*
D28*
X210151100Y-106516300D03*
D29*
X218188100Y-106516300D03*
D30*
X208638100Y-106516300D03*
D28*
X216675100Y-106516300D03*
D31*
X219033100Y-106516300D03*
D26*
X221033100Y-106516300D03*
D30*
X208638100Y-103976300D03*
D28*
X216675100Y-103976300D03*
D31*
X219033100Y-103976300D03*
D26*
X221033100Y-103976300D03*
D30*
X208638100Y-101436300D03*
D28*
X216675100Y-101436300D03*
D31*
X219033100Y-101436300D03*
D26*
X221033100Y-101436300D03*
D30*
X208638100Y-98896300D03*
D28*
X216675100Y-98896300D03*
D31*
X219033100Y-98896300D03*
D26*
X221033100Y-98896300D03*
D30*
X208638100Y-96356300D03*
D28*
X216675100Y-96356300D03*
D31*
X219033100Y-96356300D03*
D26*
X221033100Y-96356300D03*
D30*
X208638100Y-93816300D03*
D28*
X216675100Y-93816300D03*
D31*
X219033100Y-93816300D03*
D26*
X221033100Y-93816300D03*
D30*
X208638100Y-91276300D03*
D28*
X216675100Y-91276300D03*
D31*
X219033100Y-91276300D03*
D26*
X221033100Y-91276300D03*
D30*
X208638100Y-88736300D03*
D28*
X216675100Y-88736300D03*
D31*
X219033100Y-88736300D03*
D26*
X221033100Y-88736300D03*
D30*
X208638100Y-86196300D03*
D28*
X216675100Y-86196300D03*
D31*
X219033100Y-86196300D03*
D26*
X221033100Y-86196300D03*
D30*
X208638100Y-83656300D03*
D28*
X216675100Y-83656300D03*
D31*
X219033100Y-83656300D03*
D26*
X221033100Y-83656300D03*
D30*
X208638100Y-81116300D03*
D28*
X216675100Y-81116300D03*
D31*
X219033100Y-81116300D03*
D26*
X221033100Y-81116300D03*
D30*
X208638100Y-78576300D03*
D28*
X216675100Y-78576300D03*
D31*
X219033100Y-78576300D03*
D26*
X221033100Y-78576300D03*
D30*
X208638100Y-76036300D03*
D28*
X216675100Y-76036300D03*
D31*
X219033100Y-76036300D03*
D26*
X221033100Y-76036300D03*
%TD*%
D14*
%TO.C,S26*%
X202843911Y-152905893D03*
D15*
X201209569Y-156317847D03*
X195774449Y-156865086D03*
X195774449Y-156865086D03*
D16*
X197613100Y-151206300D03*
D15*
X191699004Y-153227677D03*
D14*
X192382289Y-149506707D03*
D32*
X192659739Y-155853056D03*
X204324279Y-157329878D03*
%TD*%
D12*
%TO.C,D17*%
X126413100Y-127006300D03*
X126413100Y-129806300D03*
%TD*%
D14*
%TO.C,S14*%
X157913100Y-110006300D03*
D15*
X157413100Y-113756300D03*
X152413100Y-115956300D03*
X152413100Y-115956300D03*
D16*
X152413100Y-110006300D03*
D15*
X147413100Y-113756300D03*
D14*
X146913100Y-110006300D03*
D17*
X149138100Y-115956300D03*
X160688100Y-113756300D03*
%TD*%
D14*
%TO.C,S2*%
X103080574Y-132399948D03*
D15*
X103107338Y-136183040D03*
X98462180Y-139057495D03*
X98462180Y-139057495D03*
D16*
X97634100Y-133165400D03*
D15*
X93204659Y-137574771D03*
D14*
X92187626Y-133930852D03*
D25*
X95219052Y-139513287D03*
X106350467Y-135727248D03*
%TD*%
D14*
%TO.C,S9*%
X139913100Y-129006300D03*
D15*
X139413100Y-132756300D03*
X134413100Y-134956300D03*
X134413100Y-134956300D03*
D16*
X134413100Y-129006300D03*
D15*
X129413100Y-132756300D03*
D14*
X128913100Y-129006300D03*
D17*
X131138100Y-134956300D03*
X142688100Y-132756300D03*
%TD*%
D13*
%TO.C,D10*%
X89433558Y-132298325D03*
X89823242Y-135071075D03*
%TD*%
%TO.C,D11*%
X87067658Y-115463725D03*
X87457342Y-118236475D03*
%TD*%
D14*
%TO.C,S7*%
X118539374Y-113060348D03*
D15*
X118566138Y-116843440D03*
X113920980Y-119717895D03*
X113920980Y-119717895D03*
D16*
X113092900Y-113825800D03*
D15*
X108663459Y-118235171D03*
D14*
X107646426Y-114591252D03*
D25*
X110677852Y-120173687D03*
X121809267Y-116387648D03*
%TD*%
D14*
%TO.C,S1*%
X105446474Y-149234548D03*
D15*
X105473238Y-153017640D03*
X100828080Y-155892095D03*
X100828080Y-155892095D03*
D16*
X100000000Y-150000000D03*
D15*
X95570559Y-154409371D03*
D14*
X94553526Y-150765452D03*
D25*
X97584952Y-156347887D03*
X108716367Y-152561848D03*
%TD*%
D33*
%TO.C,D27*%
X210316599Y-154085976D03*
X208670801Y-156351224D03*
%TD*%
D12*
%TO.C,D2*%
X162413100Y-108406300D03*
X162413100Y-111206300D03*
%TD*%
D14*
%TO.C,S6*%
X120905374Y-129894848D03*
D15*
X120932138Y-133677940D03*
X116286980Y-136552395D03*
X116286980Y-136552395D03*
D16*
X115458900Y-130660300D03*
D15*
X111029459Y-135069671D03*
D14*
X110012426Y-131425752D03*
D25*
X113043852Y-137008187D03*
X124175267Y-133222148D03*
%TD*%
D34*
%TO.C,T1*%
X221233100Y-131256300D03*
X223443100Y-131256300D03*
D35*
X222343100Y-129106300D03*
X222343100Y-129106300D03*
X222343100Y-126106300D03*
X222343100Y-126106300D03*
D36*
X220583100Y-125356300D03*
D34*
X221233100Y-123956300D03*
X223443100Y-123956300D03*
D36*
X220583100Y-129856300D03*
X220583100Y-126856300D03*
%TD*%
D14*
%TO.C,S5*%
X123271274Y-146729448D03*
D15*
X123298038Y-150512540D03*
X118652880Y-153386995D03*
X118652880Y-153386995D03*
D16*
X117824800Y-147494900D03*
D15*
X113395359Y-151904271D03*
D14*
X112378326Y-148260352D03*
D25*
X115409752Y-153842787D03*
X126541167Y-150056748D03*
%TD*%
D14*
%TO.C,S3*%
X100714574Y-115565448D03*
D15*
X100741338Y-119348540D03*
X96096180Y-122222995D03*
X96096180Y-122222995D03*
D16*
X95268100Y-116330900D03*
D15*
X90838659Y-120740271D03*
D14*
X89821626Y-117096352D03*
D25*
X92853052Y-122678787D03*
X103984467Y-118892748D03*
%TD*%
D14*
%TO.C,S17*%
X175913100Y-129006300D03*
D15*
X175413100Y-132756300D03*
X170413100Y-134956300D03*
X170413100Y-134956300D03*
D16*
X170413100Y-129006300D03*
D15*
X165413100Y-132756300D03*
D14*
X164913100Y-129006300D03*
D17*
X167138100Y-134956300D03*
X178688100Y-132756300D03*
%TD*%
D37*
%TO.C,LED24*%
X191113100Y-74606300D03*
X191113100Y-76006300D03*
X185713100Y-76006300D03*
X185713100Y-74606300D03*
%TD*%
%TO.C,LED14*%
X155113100Y-104606300D03*
X155113100Y-106006300D03*
X149713100Y-106006300D03*
X149713100Y-104606300D03*
%TD*%
D38*
%TO.C,LED8*%
X107496597Y-93405955D03*
X107301755Y-92019580D03*
X112649203Y-91268045D03*
X112844045Y-92654420D03*
%TD*%
D39*
%TO.C,LED23*%
X185713100Y-93006300D03*
X185713100Y-91606300D03*
X191113100Y-91606300D03*
X191113100Y-93006300D03*
%TD*%
D38*
%TO.C,LED6*%
X112228497Y-127075055D03*
X112033655Y-125688680D03*
X117381103Y-124937145D03*
X117575945Y-126323520D03*
%TD*%
D37*
%TO.C,LED10*%
X137113100Y-106606300D03*
X137113100Y-108006300D03*
X131713100Y-108006300D03*
X131713100Y-106606300D03*
%TD*%
D39*
%TO.C,LED15*%
X149713100Y-89006300D03*
X149713100Y-87606300D03*
X155113100Y-87606300D03*
X155113100Y-89006300D03*
%TD*%
%TO.C,LED13*%
X149713100Y-123006300D03*
X149713100Y-121606300D03*
X155113100Y-121606300D03*
X155113100Y-123006300D03*
%TD*%
D40*
%TO.C,LED26*%
X201849664Y-146904906D03*
X201417041Y-148236384D03*
X196281336Y-146567694D03*
X196713959Y-145236216D03*
%TD*%
D41*
%TO.C,LED27*%
X220971496Y-157624608D03*
X220148596Y-158757232D03*
X215779904Y-155583192D03*
X216602804Y-154450568D03*
%TD*%
D39*
%TO.C,LED21*%
X185713100Y-127006300D03*
X185713100Y-125606300D03*
X191113100Y-125606300D03*
X191113100Y-127006300D03*
%TD*%
D42*
%TO.C,LED5*%
X119747003Y-141771645D03*
X119941845Y-143158020D03*
X114594397Y-143909555D03*
X114399555Y-142523180D03*
%TD*%
D39*
%TO.C,LED17*%
X167713100Y-125006300D03*
X167713100Y-123606300D03*
X173113100Y-123606300D03*
X173113100Y-125006300D03*
%TD*%
%TO.C,LED9*%
X131713100Y-125006300D03*
X131713100Y-123606300D03*
X137113100Y-123606300D03*
X137113100Y-125006300D03*
%TD*%
%TO.C,LED19*%
X167713100Y-91006300D03*
X167713100Y-89606300D03*
X173113100Y-89606300D03*
X173113100Y-91006300D03*
%TD*%
D37*
%TO.C,LED18*%
X173113100Y-106606300D03*
X173113100Y-108006300D03*
X167713100Y-108006300D03*
X167713100Y-106606300D03*
%TD*%
%TO.C,LED25*%
X180313100Y-142606300D03*
X180313100Y-144006300D03*
X174913100Y-144006300D03*
X174913100Y-142606300D03*
%TD*%
%TO.C,LED12*%
X137113100Y-72606300D03*
X137113100Y-74006300D03*
X131713100Y-74006300D03*
X131713100Y-72606300D03*
%TD*%
%TO.C,LED16*%
X155113100Y-70606300D03*
X155113100Y-72006300D03*
X149713100Y-72006300D03*
X149713100Y-70606300D03*
%TD*%
D39*
%TO.C,LED11*%
X131713100Y-91006300D03*
X131713100Y-89606300D03*
X137113100Y-89606300D03*
X137113100Y-91006300D03*
%TD*%
D42*
%TO.C,LED7*%
X115015103Y-108102545D03*
X115209945Y-109488920D03*
X109862497Y-110240455D03*
X109667655Y-108854080D03*
%TD*%
%TO.C,LED3*%
X97190303Y-110607645D03*
X97385145Y-111994020D03*
X92037697Y-112745555D03*
X91842855Y-111359180D03*
%TD*%
D37*
%TO.C,LED22*%
X191113100Y-108606300D03*
X191113100Y-110006300D03*
X185713100Y-110006300D03*
X185713100Y-108606300D03*
%TD*%
D42*
%TO.C,LED1*%
X101922203Y-144276745D03*
X102117045Y-145663120D03*
X96769597Y-146414655D03*
X96574755Y-145028280D03*
%TD*%
D38*
%TO.C,LED4*%
X89671797Y-95911055D03*
X89476955Y-94524680D03*
X94824403Y-93773145D03*
X95019245Y-95159520D03*
%TD*%
%TO.C,LED2*%
X94403597Y-129580155D03*
X94208755Y-128193780D03*
X99556203Y-127442245D03*
X99751045Y-128828620D03*
%TD*%
D37*
%TO.C,LED20*%
X173113100Y-72606300D03*
X173113100Y-74006300D03*
X167713100Y-74006300D03*
X167713100Y-72606300D03*
%TD*%
M02*
