%TF.GenerationSoftware,KiCad,Pcbnew,8.0.7-8.0.7-0~ubuntu24.04.1*%
%TF.CreationDate,2025-01-01T23:44:22+01:00*%
%TF.ProjectId,speedy-o_north-face-finished-extended_VCC,73706565-6479-42d6-9f5f-6e6f7274682d,v1.0.0*%
%TF.SameCoordinates,Original*%
%TF.FileFunction,Drillmap*%
%TF.FilePolarity,Positive*%
%FSLAX45Y45*%
G04 Gerber Fmt 4.5, Leading zero omitted, Abs format (unit mm)*
G04 Created by KiCad (PCBNEW 8.0.7-8.0.7-0~ubuntu24.04.1) date 2025-01-01 23:44:22*
%MOMM*%
%LPD*%
G01*
G04 APERTURE LIST*
%ADD10C,0.150000*%
%ADD11C,0.120000*%
%ADD12C,0.200000*%
%ADD13C,0.100000*%
%ADD14C,0.220000*%
G04 APERTURE END LIST*
D10*
X22241315Y-7320631D02*
G75*
G02*
X22441319Y-7520631I-5J-200009D01*
G01*
X19620899Y-6980631D02*
G75*
G02*
X19797657Y-7087053I1J-199999D01*
G01*
X21953069Y-17338833D02*
G75*
G02*
X21673713Y-17383073I-161799J117563D01*
G01*
X12612349Y-6780631D02*
X14105698Y-6780631D01*
X10082697Y-8779191D02*
X12486195Y-6825437D01*
X13036789Y-15574898D02*
G75*
G02*
X12939533Y-15616901I-125109J156088D01*
G01*
X18121315Y-6980631D02*
X19620899Y-6980631D01*
X14208947Y-6751919D02*
G75*
G02*
X14105698Y-6780628I-103247J171299D01*
G01*
X10082697Y-8779191D02*
G75*
G02*
X9984377Y-8822050I-126137J155161D01*
G01*
X18464444Y-15820631D02*
G75*
G02*
X18497948Y-15823456I-4J-200079D01*
G01*
X21673709Y-17383079D02*
X20391277Y-16451338D01*
X20366132Y-16435771D02*
X20145648Y-16320896D01*
X20366132Y-16435771D02*
G75*
G02*
X20391277Y-16451338I-92412J-177369D01*
G01*
X13386489Y-15294579D02*
X13036789Y-15574898D01*
X14208947Y-6751919D02*
X14472592Y-6593000D01*
X17852242Y-6780631D02*
G75*
G02*
X18000902Y-6846837I-2J-200009D01*
G01*
X20115039Y-16308054D02*
G75*
G02*
X20145648Y-16320896I-61789J-190166D01*
G01*
X22509232Y-15375112D02*
G75*
G02*
X22443387Y-15227747I134148J148332D01*
G01*
X22441317Y-14801115D02*
G75*
G02*
X22441315Y-14800145I213843J995D01*
G01*
X20041731Y-7320631D02*
G75*
G02*
X19864972Y-7214209I-1J200001D01*
G01*
X8106606Y-9287920D02*
G75*
G02*
X8276824Y-9062028I198064J27830D01*
G01*
X16373140Y-6780631D02*
G75*
G02*
X16276011Y-6755462I0J200001D01*
G01*
X15910751Y-6580034D02*
G75*
G02*
X16005519Y-6605188I-2361J-199986D01*
G01*
X9044632Y-15962327D02*
X8106606Y-9287920D01*
X14472592Y-6593000D02*
G75*
G02*
X14578201Y-6564304I103248J-171300D01*
G01*
X16373140Y-6780631D02*
X17852242Y-6780631D01*
X16622151Y-15758179D02*
X16200479Y-15313082D01*
X19797656Y-7087053D02*
X19864974Y-7214208D01*
X18746953Y-15865768D02*
X18497948Y-15823457D01*
X18746953Y-15865768D02*
G75*
G02*
X18775252Y-15872731I-33493J-197112D01*
G01*
X13386489Y-15294579D02*
G75*
G02*
X13511580Y-15250631I125091J-156051D01*
G01*
X18000901Y-6846838D02*
X18121315Y-6980631D01*
X12486195Y-6825437D02*
G75*
G02*
X12612349Y-6780627I126155J-155183D01*
G01*
X16055288Y-15250631D02*
X13511580Y-15250631D01*
X20115039Y-16308054D02*
X18775252Y-15872731D01*
X8276825Y-9062032D02*
X9984378Y-8822051D01*
X16005519Y-6605188D02*
X16276011Y-6755462D01*
X16055288Y-15250631D02*
G75*
G02*
X16200477Y-15313083I2J-199989D01*
G01*
X9270521Y-16132546D02*
G75*
G02*
X9044635Y-15962326I-27831J198056D01*
G01*
X9270521Y-16132546D02*
X12939532Y-15616900D01*
X22509232Y-15375112D02*
X22901327Y-15729717D01*
X18464444Y-15820631D02*
X16767341Y-15820631D01*
X16767341Y-15820631D02*
G75*
G02*
X16622152Y-15758178I-1J199991D01*
G01*
X22441317Y-14801115D02*
X22443387Y-15227747D01*
X20041731Y-7320631D02*
X22241315Y-7320631D01*
X14578201Y-6564302D02*
X15910751Y-6580034D01*
X22928979Y-15995609D02*
X21953069Y-17338833D01*
X22901327Y-15729717D02*
G75*
G02*
X22928977Y-15995608I-134147J-148333D01*
G01*
X22441315Y-7520631D02*
X22441315Y-14800145D01*
D11*
X18661310Y-7375630D02*
X19021310Y-7375630D01*
X19021310Y-7685630D01*
X18661310Y-7685630D01*
X18661310Y-7375630D01*
X15061310Y-10375630D02*
X15421310Y-10375630D01*
X15421310Y-10685630D01*
X15061310Y-10685630D01*
X15061310Y-10375630D01*
X11207110Y-9362140D02*
X10850614Y-9412243D01*
X10807470Y-9105260D01*
X11163966Y-9055157D01*
X11207110Y-9362140D01*
X19021310Y-9385630D02*
X18661310Y-9385630D01*
X18661310Y-9075630D01*
X19021310Y-9075630D01*
X19021310Y-9385630D01*
X11680300Y-12729050D02*
X11323804Y-12779153D01*
X11280660Y-12472170D01*
X11637156Y-12422067D01*
X11680300Y-12729050D01*
X13261310Y-10575630D02*
X13621310Y-10575630D01*
X13621310Y-10885630D01*
X13261310Y-10885630D01*
X13261310Y-10575630D01*
X15421310Y-8985630D02*
X15061310Y-8985630D01*
X15061310Y-8675630D01*
X15421310Y-8675630D01*
X15421310Y-8985630D01*
X15421310Y-12385630D02*
X15061310Y-12385630D01*
X15061310Y-12075630D01*
X15421310Y-12075630D01*
X15421310Y-12385630D01*
X20125638Y-14581839D02*
X20029843Y-14876667D01*
X19687462Y-14765421D01*
X19783258Y-14470593D01*
X20125638Y-14581839D01*
X22074300Y-15640794D02*
X21892086Y-15891589D01*
X21600840Y-15679986D01*
X21783054Y-15429191D01*
X22074300Y-15640794D01*
X19021310Y-12785630D02*
X18661310Y-12785630D01*
X18661310Y-12475630D01*
X19021310Y-12475630D01*
X19021310Y-12785630D01*
X11916890Y-14412500D02*
X11560394Y-14462603D01*
X11517250Y-14155620D01*
X11873746Y-14105517D01*
X11916890Y-14412500D01*
X17221310Y-12585630D02*
X16861310Y-12585630D01*
X16861310Y-12275630D01*
X17221310Y-12275630D01*
X17221310Y-12585630D01*
X13621310Y-12585630D02*
X13261310Y-12585630D01*
X13261310Y-12275630D01*
X13621310Y-12275630D01*
X13621310Y-12585630D01*
X17221310Y-9185630D02*
X16861310Y-9185630D01*
X16861310Y-8875630D01*
X17221310Y-8875630D01*
X17221310Y-9185630D01*
X16861310Y-10575630D02*
X17221310Y-10575630D01*
X17221310Y-10885630D01*
X16861310Y-10885630D01*
X16861310Y-10575630D01*
X17581310Y-14175630D02*
X17941310Y-14175630D01*
X17941310Y-14485630D01*
X17581310Y-14485630D01*
X17581310Y-14175630D01*
X13261310Y-7175630D02*
X13621310Y-7175630D01*
X13621310Y-7485630D01*
X13261310Y-7485630D01*
X13261310Y-7175630D01*
X15061310Y-6975630D02*
X15421310Y-6975630D01*
X15421310Y-7285630D01*
X15061310Y-7285630D01*
X15061310Y-6975630D01*
X13621310Y-9185630D02*
X13261310Y-9185630D01*
X13261310Y-8875630D01*
X13621310Y-8875630D01*
X13621310Y-9185630D01*
X11443700Y-11045590D02*
X11087204Y-11095693D01*
X11044060Y-10788710D01*
X11400556Y-10738607D01*
X11443700Y-11045590D01*
X9661220Y-11296100D02*
X9304724Y-11346203D01*
X9261580Y-11039220D01*
X9618076Y-10989117D01*
X9661220Y-11296100D01*
X18661310Y-10775630D02*
X19021310Y-10775630D01*
X19021310Y-11085630D01*
X18661310Y-11085630D01*
X18661310Y-10775630D01*
X10134410Y-14663010D02*
X9777914Y-14713113D01*
X9734770Y-14406130D01*
X10091266Y-14356027D01*
X10134410Y-14663010D01*
X9424630Y-9612650D02*
X9068134Y-9662753D01*
X9024990Y-9355770D01*
X9381486Y-9305667D01*
X9424630Y-9612650D01*
X9897810Y-12979560D02*
X9541314Y-13029663D01*
X9498170Y-12722680D01*
X9854666Y-12672577D01*
X9897810Y-12979560D01*
X16861310Y-7175630D02*
X17221310Y-7175630D01*
X17221310Y-7485630D01*
X16861310Y-7485630D01*
X16861310Y-7175630D01*
D12*
D13*
X8685000Y-11225000D02*
X8715000Y-11255000D01*
X8715000Y-11225000D02*
X8685000Y-11255000D01*
X8985000Y-12905000D02*
X9015000Y-12935000D01*
X9015000Y-12905000D02*
X8985000Y-12935000D01*
X9445000Y-10285000D02*
X9475000Y-10315000D01*
X9475000Y-10285000D02*
X9445000Y-10315000D01*
X9685000Y-12565000D02*
X9715000Y-12595000D01*
X9715000Y-12565000D02*
X9685000Y-12595000D01*
X9745000Y-9362310D02*
X9775000Y-9392310D01*
X9775000Y-9362310D02*
X9745000Y-9392310D01*
X9745000Y-14265000D02*
X9775000Y-14295000D01*
X9775000Y-14265000D02*
X9745000Y-14295000D01*
X9805000Y-10825000D02*
X9835000Y-10855000D01*
X9835000Y-10825000D02*
X9805000Y-10855000D01*
X9884080Y-10497950D02*
X9914080Y-10527950D01*
X9914080Y-10497950D02*
X9884080Y-10527950D01*
X9925000Y-13085000D02*
X9955000Y-13115000D01*
X9955000Y-13085000D02*
X9925000Y-13115000D01*
X9945000Y-9445000D02*
X9975000Y-9475000D01*
X9975000Y-9445000D02*
X9945000Y-9475000D01*
X10085000Y-12425000D02*
X10115000Y-12455000D01*
X10115000Y-12425000D02*
X10085000Y-12455000D01*
X10159640Y-14117240D02*
X10189640Y-14147240D01*
X10189640Y-14117240D02*
X10159640Y-14147240D01*
X10305000Y-15305000D02*
X10335000Y-15335000D01*
X10335000Y-15305000D02*
X10305000Y-15335000D01*
X10425000Y-10845000D02*
X10455000Y-10875000D01*
X10455000Y-10845000D02*
X10425000Y-10875000D01*
X10576460Y-14120000D02*
X10606460Y-14150000D01*
X10606460Y-14120000D02*
X10576460Y-14150000D01*
X10587500Y-9000000D02*
X10617500Y-9030000D01*
X10617500Y-9000000D02*
X10587500Y-9030000D01*
X10705000Y-14490000D02*
X10735000Y-14520000D01*
X10735000Y-14490000D02*
X10705000Y-14520000D01*
X10735000Y-14840000D02*
X10765000Y-14870000D01*
X10765000Y-14840000D02*
X10735000Y-14870000D01*
X11175000Y-14510000D02*
X11205000Y-14540000D01*
X11205000Y-14510000D02*
X11175000Y-14540000D01*
X11225000Y-14065000D02*
X11255000Y-14095000D01*
X11255000Y-14065000D02*
X11225000Y-14095000D01*
X11278950Y-10018950D02*
X11308950Y-10048950D01*
X11308950Y-10018950D02*
X11278950Y-10048950D01*
X11445000Y-14765000D02*
X11475000Y-14795000D01*
X11475000Y-14765000D02*
X11445000Y-14795000D01*
X11603825Y-9111805D02*
X11633825Y-9141805D01*
X11633825Y-9111805D02*
X11603825Y-9141805D01*
X11701410Y-12195750D02*
X11731410Y-12225750D01*
X11731410Y-12195750D02*
X11701410Y-12225750D01*
X11945640Y-13845410D02*
X11975640Y-13875410D01*
X11975640Y-13845410D02*
X11945640Y-13875410D01*
X12065000Y-15085000D02*
X12095000Y-15115000D01*
X12095000Y-15085000D02*
X12065000Y-15115000D01*
X12207500Y-8787500D02*
X12237500Y-8817500D01*
X12237500Y-8787500D02*
X12207500Y-8817500D01*
X12245000Y-9805000D02*
X12275000Y-9835000D01*
X12275000Y-9805000D02*
X12245000Y-9835000D01*
X12265000Y-9225000D02*
X12295000Y-9255000D01*
X12295000Y-9225000D02*
X12265000Y-9255000D01*
X12345000Y-10825000D02*
X12375000Y-10855000D01*
X12375000Y-10825000D02*
X12345000Y-10855000D01*
X12405000Y-11925000D02*
X12435000Y-11955000D01*
X12435000Y-11925000D02*
X12405000Y-11955000D01*
X12445000Y-12505000D02*
X12475000Y-12535000D01*
X12475000Y-12505000D02*
X12445000Y-12535000D01*
X12520000Y-13780000D02*
X12550000Y-13810000D01*
X12550000Y-13780000D02*
X12520000Y-13810000D01*
X12645000Y-13575000D02*
X12675000Y-13605000D01*
X12675000Y-13575000D02*
X12645000Y-13605000D01*
X13165000Y-12705000D02*
X13195000Y-12735000D01*
X13195000Y-12705000D02*
X13165000Y-12735000D01*
X13705000Y-8745000D02*
X13735000Y-8775000D01*
X13735000Y-8745000D02*
X13705000Y-8775000D01*
X13753810Y-10291260D02*
X13783810Y-10321260D01*
X13783810Y-10291260D02*
X13753810Y-10321260D01*
X13753810Y-12023370D02*
X13783810Y-12053370D01*
X13783810Y-12023370D02*
X13753810Y-12053370D01*
X13753810Y-13749680D02*
X13783810Y-13779680D01*
X13783810Y-13749680D02*
X13753810Y-13779680D01*
X13816430Y-10485000D02*
X13846430Y-10515000D01*
X13846430Y-10485000D02*
X13816430Y-10515000D01*
X13816710Y-8585800D02*
X13846710Y-8615800D01*
X13846710Y-8585800D02*
X13816710Y-8615800D01*
X14165000Y-10705000D02*
X14195000Y-10735000D01*
X14195000Y-10705000D02*
X14165000Y-10735000D01*
X14165000Y-11105000D02*
X14195000Y-11135000D01*
X14195000Y-11105000D02*
X14165000Y-11135000D01*
X14185000Y-7225000D02*
X14215000Y-7255000D01*
X14215000Y-7225000D02*
X14185000Y-7255000D01*
X14505000Y-8845000D02*
X14535000Y-8875000D01*
X14535000Y-8845000D02*
X14505000Y-8875000D01*
X14505000Y-10585000D02*
X14535000Y-10615000D01*
X14535000Y-10585000D02*
X14505000Y-10615000D01*
X14535000Y-13435000D02*
X14565000Y-13465000D01*
X14565000Y-13435000D02*
X14535000Y-13465000D01*
X14560000Y-10330000D02*
X14590000Y-10360000D01*
X14590000Y-10330000D02*
X14560000Y-10360000D01*
X14585000Y-7205000D02*
X14615000Y-7235000D01*
X14615000Y-7205000D02*
X14585000Y-7235000D01*
X14605000Y-9905000D02*
X14635000Y-9935000D01*
X14635000Y-9905000D02*
X14605000Y-9935000D01*
X14845000Y-9105000D02*
X14875000Y-9135000D01*
X14875000Y-9105000D02*
X14845000Y-9135000D01*
X14995750Y-9045000D02*
X15025750Y-9075000D01*
X15025750Y-9045000D02*
X14995750Y-9075000D01*
X15325000Y-8525000D02*
X15355000Y-8555000D01*
X15355000Y-8525000D02*
X15325000Y-8555000D01*
X15375000Y-7960000D02*
X15405000Y-7990000D01*
X15405000Y-7960000D02*
X15375000Y-7990000D01*
X15485000Y-9165000D02*
X15515000Y-9195000D01*
X15515000Y-9165000D02*
X15485000Y-9195000D01*
X15496420Y-13073100D02*
X15526420Y-13103100D01*
X15526420Y-13073100D02*
X15496420Y-13103100D01*
X15499520Y-9633190D02*
X15529520Y-9663190D01*
X15529520Y-9633190D02*
X15499520Y-9663190D01*
X15553810Y-11785800D02*
X15583810Y-11815800D01*
X15583810Y-11785800D02*
X15553810Y-11815800D01*
X15725000Y-8945000D02*
X15755000Y-8975000D01*
X15755000Y-8945000D02*
X15725000Y-8975000D01*
X15800000Y-12210000D02*
X15830000Y-12240000D01*
X15830000Y-12210000D02*
X15800000Y-12240000D01*
X15865000Y-11605000D02*
X15895000Y-11635000D01*
X15895000Y-11605000D02*
X15865000Y-11635000D01*
X15965000Y-7185000D02*
X15995000Y-7215000D01*
X15995000Y-7185000D02*
X15965000Y-7215000D01*
X15965000Y-10985000D02*
X15995000Y-11015000D01*
X15995000Y-10985000D02*
X15965000Y-11015000D01*
X16005000Y-8885000D02*
X16035000Y-8915000D01*
X16035000Y-8885000D02*
X16005000Y-8915000D01*
X16005000Y-12765000D02*
X16035000Y-12795000D01*
X16035000Y-12765000D02*
X16005000Y-12795000D01*
X16025000Y-7565000D02*
X16055000Y-7595000D01*
X16055000Y-7565000D02*
X16025000Y-7595000D01*
X16205000Y-13645000D02*
X16235000Y-13675000D01*
X16235000Y-13645000D02*
X16205000Y-13675000D01*
X16242500Y-8455000D02*
X16272500Y-8485000D01*
X16272500Y-8455000D02*
X16242500Y-8485000D01*
X16345000Y-7265000D02*
X16375000Y-7295000D01*
X16375000Y-7265000D02*
X16345000Y-7295000D01*
X16385000Y-10125000D02*
X16415000Y-10155000D01*
X16415000Y-10125000D02*
X16385000Y-10155000D01*
X16705000Y-7765000D02*
X16735000Y-7795000D01*
X16735000Y-7765000D02*
X16705000Y-7795000D01*
X16745000Y-11005000D02*
X16775000Y-11035000D01*
X16775000Y-11005000D02*
X16745000Y-11035000D01*
X16745000Y-12745000D02*
X16775000Y-12775000D01*
X16775000Y-12745000D02*
X16745000Y-12775000D01*
X16765000Y-9365000D02*
X16795000Y-9395000D01*
X16795000Y-9365000D02*
X16765000Y-9395000D01*
X16825000Y-14085000D02*
X16855000Y-14115000D01*
X16855000Y-14085000D02*
X16825000Y-14115000D01*
X17105000Y-13865000D02*
X17135000Y-13895000D01*
X17135000Y-13865000D02*
X17105000Y-13895000D01*
X17145000Y-14445000D02*
X17175000Y-14475000D01*
X17175000Y-14445000D02*
X17145000Y-14475000D01*
X17185000Y-14245000D02*
X17215000Y-14275000D01*
X17215000Y-14245000D02*
X17185000Y-14275000D01*
X17205000Y-8745000D02*
X17235000Y-8775000D01*
X17235000Y-8745000D02*
X17205000Y-8775000D01*
X17211630Y-8136130D02*
X17241630Y-8166130D01*
X17241630Y-8136130D02*
X17211630Y-8166130D01*
X17285000Y-9865000D02*
X17315000Y-9895000D01*
X17315000Y-9865000D02*
X17285000Y-9895000D01*
X17345000Y-14045000D02*
X17375000Y-14075000D01*
X17375000Y-14045000D02*
X17345000Y-14075000D01*
X17353810Y-11993430D02*
X17383810Y-12023430D01*
X17383810Y-11993430D02*
X17353810Y-12023430D01*
X17353810Y-13772180D02*
X17383810Y-13802180D01*
X17383810Y-13772180D02*
X17353810Y-13802180D01*
X17472670Y-10485000D02*
X17502670Y-10515000D01*
X17502670Y-10485000D02*
X17472670Y-10515000D01*
X17785000Y-12885000D02*
X17815000Y-12915000D01*
X17815000Y-12885000D02*
X17785000Y-12915000D01*
X17832200Y-11150730D02*
X17862200Y-11180730D01*
X17862200Y-11150730D02*
X17832200Y-11180730D01*
X18026310Y-12206460D02*
X18056310Y-12236460D01*
X18056310Y-12206460D02*
X18026310Y-12236460D01*
X18045000Y-7425000D02*
X18075000Y-7455000D01*
X18075000Y-7425000D02*
X18045000Y-7455000D01*
X18057500Y-10317500D02*
X18087500Y-10347500D01*
X18087500Y-10317500D02*
X18057500Y-10347500D01*
X18075000Y-15615000D02*
X18105000Y-15645000D01*
X18105000Y-15615000D02*
X18075000Y-15645000D01*
X18445000Y-7265000D02*
X18475000Y-7295000D01*
X18475000Y-7265000D02*
X18445000Y-7295000D01*
X18465000Y-14445000D02*
X18495000Y-14475000D01*
X18495000Y-14445000D02*
X18465000Y-14475000D01*
X18565000Y-11185000D02*
X18595000Y-11215000D01*
X18595000Y-11185000D02*
X18565000Y-11215000D01*
X18944460Y-14082500D02*
X18974460Y-14112500D01*
X18974460Y-14082500D02*
X18944460Y-14112500D01*
X19045000Y-10065000D02*
X19075000Y-10095000D01*
X19075000Y-10065000D02*
X19045000Y-10095000D01*
X19105000Y-11185000D02*
X19135000Y-11215000D01*
X19135000Y-11185000D02*
X19105000Y-11215000D01*
X19153810Y-8789220D02*
X19183810Y-8819220D01*
X19183810Y-8789220D02*
X19153810Y-8819220D01*
X19153810Y-12224450D02*
X19183810Y-12254450D01*
X19183810Y-12224450D02*
X19153810Y-12254450D01*
X19225000Y-14425000D02*
X19255000Y-14455000D01*
X19255000Y-14425000D02*
X19225000Y-14455000D01*
X19232300Y-7819530D02*
X19262300Y-7849530D01*
X19262300Y-7819530D02*
X19232300Y-7849530D01*
X19242120Y-10628280D02*
X19272120Y-10658280D01*
X19272120Y-10628280D02*
X19242120Y-10658280D01*
X19325000Y-7265000D02*
X19355000Y-7295000D01*
X19355000Y-7265000D02*
X19325000Y-7295000D01*
X19334190Y-13752420D02*
X19364190Y-13782420D01*
X19364190Y-13752420D02*
X19334190Y-13782420D01*
X19440000Y-12685000D02*
X19470000Y-12715000D01*
X19470000Y-12685000D02*
X19440000Y-12715000D01*
X19536150Y-9233630D02*
X19566150Y-9263630D01*
X19566150Y-9233630D02*
X19536150Y-9263630D01*
X19606540Y-12201290D02*
X19636540Y-12231290D01*
X19636540Y-12201290D02*
X19606540Y-12231290D01*
X19606540Y-13752420D02*
X19636540Y-13782420D01*
X19636540Y-13752420D02*
X19606540Y-13782420D01*
X19753200Y-15540980D02*
X19783200Y-15570980D01*
X19783200Y-15540980D02*
X19753200Y-15570980D01*
X19810000Y-10925000D02*
X19840000Y-10955000D01*
X19840000Y-10925000D02*
X19810000Y-10955000D01*
X19824490Y-15451620D02*
X19854490Y-15481620D01*
X19854490Y-15451620D02*
X19824490Y-15481620D01*
X19900000Y-9850000D02*
X19930000Y-9880000D01*
X19930000Y-9850000D02*
X19900000Y-9880000D01*
X20025000Y-11445000D02*
X20055000Y-11475000D01*
X20055000Y-11445000D02*
X20025000Y-11475000D01*
X20110000Y-10035000D02*
X20140000Y-10065000D01*
X20140000Y-10035000D02*
X20110000Y-10065000D01*
X20125000Y-15085000D02*
X20155000Y-15115000D01*
X20155000Y-15085000D02*
X20125000Y-15115000D01*
X20200000Y-10400000D02*
X20230000Y-10430000D01*
X20230000Y-10400000D02*
X20200000Y-10430000D01*
X20250000Y-10920000D02*
X20280000Y-10950000D01*
X20280000Y-10920000D02*
X20250000Y-10950000D01*
X20305000Y-9975000D02*
X20335000Y-10005000D01*
X20335000Y-9975000D02*
X20305000Y-10005000D01*
X20355000Y-11106800D02*
X20385000Y-11136800D01*
X20385000Y-11106800D02*
X20355000Y-11136800D01*
X20365000Y-8230000D02*
X20395000Y-8260000D01*
X20395000Y-8230000D02*
X20365000Y-8260000D01*
X20365000Y-8475000D02*
X20395000Y-8505000D01*
X20395000Y-8475000D02*
X20365000Y-8505000D01*
X20370920Y-9685000D02*
X20400920Y-9715000D01*
X20400920Y-9685000D02*
X20370920Y-9715000D01*
X20405000Y-15965000D02*
X20435000Y-15995000D01*
X20435000Y-15965000D02*
X20405000Y-15995000D01*
X20431720Y-9980590D02*
X20461720Y-10010590D01*
X20461720Y-9980590D02*
X20431720Y-10010590D01*
X20659130Y-11045870D02*
X20689130Y-11075870D01*
X20689130Y-11045870D02*
X20659130Y-11075870D01*
X20730000Y-11280000D02*
X20760000Y-11310000D01*
X20760000Y-11280000D02*
X20730000Y-11310000D01*
X20905000Y-12105000D02*
X20935000Y-12135000D01*
X20935000Y-12105000D02*
X20905000Y-12135000D01*
X20920000Y-11060000D02*
X20950000Y-11090000D01*
X20950000Y-11060000D02*
X20920000Y-11090000D01*
X20925000Y-14805000D02*
X20955000Y-14835000D01*
X20955000Y-14805000D02*
X20925000Y-14835000D01*
X21000000Y-11215000D02*
X21030000Y-11245000D01*
X21030000Y-11215000D02*
X21000000Y-11245000D01*
X21082500Y-10044000D02*
X21112500Y-10074000D01*
X21112500Y-10044000D02*
X21082500Y-10074000D01*
X21200000Y-11115000D02*
X21230000Y-11145000D01*
X21230000Y-11115000D02*
X21200000Y-11145000D01*
X21285000Y-9790000D02*
X21315000Y-9820000D01*
X21315000Y-9790000D02*
X21285000Y-9820000D01*
X21375000Y-10298000D02*
X21405000Y-10328000D01*
X21405000Y-10298000D02*
X21375000Y-10328000D01*
X21428265Y-16431735D02*
X21458265Y-16461735D01*
X21458265Y-16431735D02*
X21428265Y-16461735D01*
X21475000Y-16295000D02*
X21505000Y-16325000D01*
X21505000Y-16295000D02*
X21475000Y-16325000D01*
X21525000Y-13885000D02*
X21555000Y-13915000D01*
X21555000Y-13885000D02*
X21525000Y-13915000D01*
X21695000Y-14775000D02*
X21725000Y-14805000D01*
X21725000Y-14775000D02*
X21695000Y-14805000D01*
X21697500Y-12387500D02*
X21727500Y-12417500D01*
X21727500Y-12387500D02*
X21697500Y-12417500D01*
X21725000Y-14105000D02*
X21755000Y-14135000D01*
X21755000Y-14105000D02*
X21725000Y-14135000D01*
X21762500Y-11277500D02*
X21792500Y-11307500D01*
X21792500Y-11277500D02*
X21762500Y-11307500D01*
X21770630Y-12970630D02*
X21800630Y-13000630D01*
X21800630Y-12970630D02*
X21770630Y-13000630D01*
X21865000Y-12825000D02*
X21895000Y-12855000D01*
X21895000Y-12825000D02*
X21865000Y-12855000D01*
X21970000Y-15100000D02*
X22000000Y-15130000D01*
X22000000Y-15100000D02*
X21970000Y-15130000D01*
X22205000Y-11245000D02*
X22235000Y-11275000D01*
X22235000Y-11245000D02*
X22205000Y-11275000D01*
X22240000Y-16175000D02*
X22270000Y-16205000D01*
X22270000Y-16175000D02*
X22240000Y-16205000D01*
X8485166Y-9862923D02*
G75*
G02*
X8455166Y-9862923I-15000J0D01*
G01*
X8455166Y-9862923D02*
G75*
G02*
X8485166Y-9862923I15000J0D01*
G01*
X8524134Y-10140198D02*
G75*
G02*
X8494134Y-10140198I-15000J0D01*
G01*
X8494134Y-10140198D02*
G75*
G02*
X8524134Y-10140198I15000J0D01*
G01*
X8721766Y-11546372D02*
G75*
G02*
X8691766Y-11546372I-15000J0D01*
G01*
X8691766Y-11546372D02*
G75*
G02*
X8721766Y-11546372I15000J0D01*
G01*
X8760734Y-11823647D02*
G75*
G02*
X8730734Y-11823647I-15000J0D01*
G01*
X8730734Y-11823647D02*
G75*
G02*
X8760734Y-11823647I15000J0D01*
G01*
X8958356Y-13229832D02*
G75*
G02*
X8928356Y-13229832I-15000J0D01*
G01*
X8928356Y-13229832D02*
G75*
G02*
X8958356Y-13229832I15000J0D01*
G01*
X8997324Y-13507107D02*
G75*
G02*
X8967324Y-13507107I-15000J0D01*
G01*
X8967324Y-13507107D02*
G75*
G02*
X8997324Y-13507107I15000J0D01*
G01*
X9194956Y-14913282D02*
G75*
G02*
X9164956Y-14913282I-15000J0D01*
G01*
X9164956Y-14913282D02*
G75*
G02*
X9194956Y-14913282I15000J0D01*
G01*
X9233924Y-15190557D02*
G75*
G02*
X9203924Y-15190557I-15000J0D01*
G01*
X9203924Y-15190557D02*
G75*
G02*
X9233924Y-15190557I15000J0D01*
G01*
X10267646Y-9612403D02*
G75*
G02*
X10237646Y-9612403I-15000J0D01*
G01*
X10237646Y-9612403D02*
G75*
G02*
X10267646Y-9612403I15000J0D01*
G01*
X10306614Y-9889678D02*
G75*
G02*
X10276614Y-9889678I-15000J0D01*
G01*
X10276614Y-9889678D02*
G75*
G02*
X10306614Y-9889678I15000J0D01*
G01*
X10504246Y-11295862D02*
G75*
G02*
X10474246Y-11295862I-15000J0D01*
G01*
X10474246Y-11295862D02*
G75*
G02*
X10504246Y-11295862I15000J0D01*
G01*
X10543214Y-11573137D02*
G75*
G02*
X10513214Y-11573137I-15000J0D01*
G01*
X10513214Y-11573137D02*
G75*
G02*
X10543214Y-11573137I15000J0D01*
G01*
X10740836Y-12979322D02*
G75*
G02*
X10710836Y-12979322I-15000J0D01*
G01*
X10710836Y-12979322D02*
G75*
G02*
X10740836Y-12979322I15000J0D01*
G01*
X10779804Y-13256597D02*
G75*
G02*
X10749804Y-13256597I-15000J0D01*
G01*
X10749804Y-13256597D02*
G75*
G02*
X10779804Y-13256597I15000J0D01*
G01*
X10977436Y-14662772D02*
G75*
G02*
X10947436Y-14662772I-15000J0D01*
G01*
X10947436Y-14662772D02*
G75*
G02*
X10977436Y-14662772I15000J0D01*
G01*
X11016404Y-14940047D02*
G75*
G02*
X10986404Y-14940047I-15000J0D01*
G01*
X10986404Y-14940047D02*
G75*
G02*
X11016404Y-14940047I15000J0D01*
G01*
X12656310Y-7600630D02*
G75*
G02*
X12626310Y-7600630I-15000J0D01*
G01*
X12626310Y-7600630D02*
G75*
G02*
X12656310Y-7600630I15000J0D01*
G01*
X12656310Y-7880630D02*
G75*
G02*
X12626310Y-7880630I-15000J0D01*
G01*
X12626310Y-7880630D02*
G75*
G02*
X12656310Y-7880630I15000J0D01*
G01*
X12656310Y-9300630D02*
G75*
G02*
X12626310Y-9300630I-15000J0D01*
G01*
X12626310Y-9300630D02*
G75*
G02*
X12656310Y-9300630I15000J0D01*
G01*
X12656310Y-9580630D02*
G75*
G02*
X12626310Y-9580630I-15000J0D01*
G01*
X12626310Y-9580630D02*
G75*
G02*
X12656310Y-9580630I15000J0D01*
G01*
X12656310Y-11000630D02*
G75*
G02*
X12626310Y-11000630I-15000J0D01*
G01*
X12626310Y-11000630D02*
G75*
G02*
X12656310Y-11000630I15000J0D01*
G01*
X12656310Y-11280630D02*
G75*
G02*
X12626310Y-11280630I-15000J0D01*
G01*
X12626310Y-11280630D02*
G75*
G02*
X12656310Y-11280630I15000J0D01*
G01*
X12656310Y-12700630D02*
G75*
G02*
X12626310Y-12700630I-15000J0D01*
G01*
X12626310Y-12700630D02*
G75*
G02*
X12656310Y-12700630I15000J0D01*
G01*
X12656310Y-12980630D02*
G75*
G02*
X12626310Y-12980630I-15000J0D01*
G01*
X12626310Y-12980630D02*
G75*
G02*
X12656310Y-12980630I15000J0D01*
G01*
X14456310Y-7400630D02*
G75*
G02*
X14426310Y-7400630I-15000J0D01*
G01*
X14426310Y-7400630D02*
G75*
G02*
X14456310Y-7400630I15000J0D01*
G01*
X14456310Y-7680630D02*
G75*
G02*
X14426310Y-7680630I-15000J0D01*
G01*
X14426310Y-7680630D02*
G75*
G02*
X14456310Y-7680630I15000J0D01*
G01*
X14456310Y-9100630D02*
G75*
G02*
X14426310Y-9100630I-15000J0D01*
G01*
X14426310Y-9100630D02*
G75*
G02*
X14456310Y-9100630I15000J0D01*
G01*
X14456310Y-9380630D02*
G75*
G02*
X14426310Y-9380630I-15000J0D01*
G01*
X14426310Y-9380630D02*
G75*
G02*
X14456310Y-9380630I15000J0D01*
G01*
X14456310Y-10800630D02*
G75*
G02*
X14426310Y-10800630I-15000J0D01*
G01*
X14426310Y-10800630D02*
G75*
G02*
X14456310Y-10800630I15000J0D01*
G01*
X14456310Y-11080630D02*
G75*
G02*
X14426310Y-11080630I-15000J0D01*
G01*
X14426310Y-11080630D02*
G75*
G02*
X14456310Y-11080630I15000J0D01*
G01*
X14456310Y-12500630D02*
G75*
G02*
X14426310Y-12500630I-15000J0D01*
G01*
X14426310Y-12500630D02*
G75*
G02*
X14456310Y-12500630I15000J0D01*
G01*
X14456310Y-12780630D02*
G75*
G02*
X14426310Y-12780630I-15000J0D01*
G01*
X14426310Y-12780630D02*
G75*
G02*
X14456310Y-12780630I15000J0D01*
G01*
X16256310Y-7440630D02*
G75*
G02*
X16226310Y-7440630I-15000J0D01*
G01*
X16226310Y-7440630D02*
G75*
G02*
X16256310Y-7440630I15000J0D01*
G01*
X16256310Y-7720630D02*
G75*
G02*
X16226310Y-7720630I-15000J0D01*
G01*
X16226310Y-7720630D02*
G75*
G02*
X16256310Y-7720630I15000J0D01*
G01*
X16256310Y-9140630D02*
G75*
G02*
X16226310Y-9140630I-15000J0D01*
G01*
X16226310Y-9140630D02*
G75*
G02*
X16256310Y-9140630I15000J0D01*
G01*
X16256310Y-9420630D02*
G75*
G02*
X16226310Y-9420630I-15000J0D01*
G01*
X16226310Y-9420630D02*
G75*
G02*
X16256310Y-9420630I15000J0D01*
G01*
X16256310Y-10840630D02*
G75*
G02*
X16226310Y-10840630I-15000J0D01*
G01*
X16226310Y-10840630D02*
G75*
G02*
X16256310Y-10840630I15000J0D01*
G01*
X16256310Y-11120630D02*
G75*
G02*
X16226310Y-11120630I-15000J0D01*
G01*
X16226310Y-11120630D02*
G75*
G02*
X16256310Y-11120630I15000J0D01*
G01*
X16256310Y-12540630D02*
G75*
G02*
X16226310Y-12540630I-15000J0D01*
G01*
X16226310Y-12540630D02*
G75*
G02*
X16256310Y-12540630I15000J0D01*
G01*
X16256310Y-12820630D02*
G75*
G02*
X16226310Y-12820630I-15000J0D01*
G01*
X16226310Y-12820630D02*
G75*
G02*
X16256310Y-12820630I15000J0D01*
G01*
X16976310Y-14600630D02*
G75*
G02*
X16946310Y-14600630I-15000J0D01*
G01*
X16946310Y-14600630D02*
G75*
G02*
X16976310Y-14600630I15000J0D01*
G01*
X16976310Y-14880630D02*
G75*
G02*
X16946310Y-14880630I-15000J0D01*
G01*
X16946310Y-14880630D02*
G75*
G02*
X16976310Y-14880630I15000J0D01*
G01*
X18056310Y-7640630D02*
G75*
G02*
X18026310Y-7640630I-15000J0D01*
G01*
X18026310Y-7640630D02*
G75*
G02*
X18056310Y-7640630I15000J0D01*
G01*
X18056310Y-7920630D02*
G75*
G02*
X18026310Y-7920630I-15000J0D01*
G01*
X18026310Y-7920630D02*
G75*
G02*
X18056310Y-7920630I15000J0D01*
G01*
X18056310Y-9340630D02*
G75*
G02*
X18026310Y-9340630I-15000J0D01*
G01*
X18026310Y-9340630D02*
G75*
G02*
X18056310Y-9340630I15000J0D01*
G01*
X18056310Y-9620630D02*
G75*
G02*
X18026310Y-9620630I-15000J0D01*
G01*
X18026310Y-9620630D02*
G75*
G02*
X18056310Y-9620630I15000J0D01*
G01*
X18056310Y-11040630D02*
G75*
G02*
X18026310Y-11040630I-15000J0D01*
G01*
X18026310Y-11040630D02*
G75*
G02*
X18056310Y-11040630I15000J0D01*
G01*
X18056310Y-11320630D02*
G75*
G02*
X18026310Y-11320630I-15000J0D01*
G01*
X18026310Y-11320630D02*
G75*
G02*
X18056310Y-11320630I15000J0D01*
G01*
X18056310Y-12740630D02*
G75*
G02*
X18026310Y-12740630I-15000J0D01*
G01*
X18026310Y-12740630D02*
G75*
G02*
X18056310Y-12740630I15000J0D01*
G01*
X18056310Y-13020630D02*
G75*
G02*
X18026310Y-13020630I-15000J0D01*
G01*
X18026310Y-13020630D02*
G75*
G02*
X18056310Y-13020630I15000J0D01*
G01*
X18990748Y-14949498D02*
G75*
G02*
X18960748Y-14949498I-15000J0D01*
G01*
X18960748Y-14949498D02*
G75*
G02*
X18990748Y-14949498I15000J0D01*
G01*
X19077272Y-14683202D02*
G75*
G02*
X19047272Y-14683202I-15000J0D01*
G01*
X19047272Y-14683202D02*
G75*
G02*
X19077272Y-14683202I15000J0D01*
G01*
X20882080Y-15635122D02*
G75*
G02*
X20852080Y-15635122I-15000J0D01*
G01*
X20852080Y-15635122D02*
G75*
G02*
X20882080Y-15635122I15000J0D01*
G01*
X21046660Y-15408598D02*
G75*
G02*
X21016660Y-15408598I-15000J0D01*
G01*
X21016660Y-15408598D02*
G75*
G02*
X21046660Y-15408598I15000J0D01*
G01*
X8724880Y-9463780D02*
X8724880Y-9503780D01*
X8704880Y-9483780D02*
X8744880Y-9483780D01*
X8832500Y-9590030D02*
X8832500Y-9630030D01*
X8812500Y-9610030D02*
X8852500Y-9610030D01*
X8895000Y-11130000D02*
X8895000Y-11170000D01*
X8875000Y-11150000D02*
X8915000Y-11150000D01*
X9198070Y-12830700D02*
X9198070Y-12870700D01*
X9178070Y-12850700D02*
X9218070Y-12850700D01*
X9305690Y-12956900D02*
X9305690Y-12996900D01*
X9285690Y-12976900D02*
X9325690Y-12976900D01*
X9380000Y-14480000D02*
X9380000Y-14520000D01*
X9360000Y-14500000D02*
X9400000Y-14500000D01*
X9873190Y-11160500D02*
X9873190Y-11200500D01*
X9853190Y-11180500D02*
X9893190Y-11180500D01*
X9941840Y-11009500D02*
X9941840Y-11049500D01*
X9921840Y-11029500D02*
X9961840Y-11029500D01*
X10215650Y-12720000D02*
X10215650Y-12760000D01*
X10195650Y-12740000D02*
X10235650Y-12740000D01*
X10346400Y-14527400D02*
X10346400Y-14567400D01*
X10326400Y-14547400D02*
X10366400Y-14547400D01*
X10415000Y-14376400D02*
X10415000Y-14416400D01*
X10395000Y-14396400D02*
X10435000Y-14396400D01*
X10507400Y-9213270D02*
X10507400Y-9253270D01*
X10487400Y-9233270D02*
X10527400Y-9233270D01*
X10615000Y-9339520D02*
X10615000Y-9379520D01*
X10595000Y-9359520D02*
X10635000Y-9359520D01*
X10650000Y-11005000D02*
X10650000Y-11045000D01*
X10630000Y-11025000D02*
X10670000Y-11025000D01*
X10980600Y-12580200D02*
X10980600Y-12620200D01*
X10960600Y-12600200D02*
X11000600Y-12600200D01*
X11088200Y-12706400D02*
X11088200Y-12746400D01*
X11068200Y-12726400D02*
X11108200Y-12726400D01*
X11090000Y-14325000D02*
X11090000Y-14365000D01*
X11070000Y-14345000D02*
X11110000Y-14345000D01*
X11655700Y-10910000D02*
X11655700Y-10950000D01*
X11635700Y-10930000D02*
X11675700Y-10930000D01*
X11724300Y-10758900D02*
X11724300Y-10798900D01*
X11704300Y-10778900D02*
X11744300Y-10778900D01*
X12010000Y-12442400D02*
X12010000Y-12482400D01*
X11990000Y-12462400D02*
X12030000Y-12462400D01*
X12128900Y-14276900D02*
X12128900Y-14316900D01*
X12108900Y-14296900D02*
X12148900Y-14296900D01*
X12197500Y-14125900D02*
X12197500Y-14165900D01*
X12177500Y-14145900D02*
X12217500Y-14145900D01*
X12890000Y-10640600D02*
X12890000Y-10680600D01*
X12870000Y-10660600D02*
X12910000Y-10660600D01*
X12946300Y-8940630D02*
X12946300Y-8980630D01*
X12926300Y-8960630D02*
X12966300Y-8960630D01*
X12946300Y-12340600D02*
X12946300Y-12380600D01*
X12926300Y-12360600D02*
X12966300Y-12360600D01*
X13035300Y-12480600D02*
X13035300Y-12520600D01*
X13015300Y-12500600D02*
X13055300Y-12500600D01*
X13040000Y-9080000D02*
X13040000Y-9120000D01*
X13020000Y-9100000D02*
X13060000Y-9100000D01*
X13847300Y-7380630D02*
X13847300Y-7420630D01*
X13827300Y-7400630D02*
X13867300Y-7400630D01*
X13847300Y-10780600D02*
X13847300Y-10820600D01*
X13827300Y-10800600D02*
X13867300Y-10800600D01*
X13936300Y-7240630D02*
X13936300Y-7280630D01*
X13916300Y-7260630D02*
X13956300Y-7260630D01*
X13936300Y-10640600D02*
X13936300Y-10680600D01*
X13916300Y-10660600D02*
X13956300Y-10660600D01*
X13985000Y-12390000D02*
X13985000Y-12430000D01*
X13965000Y-12410000D02*
X14005000Y-12410000D01*
X14010000Y-8940630D02*
X14010000Y-8980630D01*
X13990000Y-8960630D02*
X14030000Y-8960630D01*
X14640000Y-7040630D02*
X14640000Y-7080630D01*
X14620000Y-7060630D02*
X14660000Y-7060630D01*
X14685000Y-10440000D02*
X14685000Y-10480000D01*
X14665000Y-10460000D02*
X14705000Y-10460000D01*
X14746300Y-8740630D02*
X14746300Y-8780630D01*
X14726300Y-8760630D02*
X14766300Y-8760630D01*
X14746300Y-12140600D02*
X14746300Y-12180600D01*
X14726300Y-12160600D02*
X14766300Y-12160600D01*
X14835300Y-8880630D02*
X14835300Y-8920630D01*
X14815300Y-8900630D02*
X14855300Y-8900630D01*
X14835300Y-12280600D02*
X14835300Y-12320600D01*
X14815300Y-12300600D02*
X14855300Y-12300600D01*
X15647300Y-7180630D02*
X15647300Y-7220630D01*
X15627300Y-7200630D02*
X15667300Y-7200630D01*
X15647300Y-10580600D02*
X15647300Y-10620600D01*
X15627300Y-10600600D02*
X15667300Y-10600600D01*
X15736300Y-7040630D02*
X15736300Y-7080630D01*
X15716300Y-7060630D02*
X15756300Y-7060630D01*
X15736300Y-10440600D02*
X15736300Y-10480600D01*
X15716300Y-10460600D02*
X15756300Y-10460600D01*
X15780000Y-8740630D02*
X15780000Y-8780630D01*
X15760000Y-8760630D02*
X15800000Y-8760630D01*
X16465000Y-7240000D02*
X16465000Y-7280000D01*
X16445000Y-7260000D02*
X16485000Y-7260000D01*
X16467500Y-10645000D02*
X16467500Y-10685000D01*
X16447500Y-10665000D02*
X16487500Y-10665000D01*
X16546300Y-8940630D02*
X16546300Y-8980630D01*
X16526300Y-8960630D02*
X16566300Y-8960630D01*
X16546300Y-12340600D02*
X16546300Y-12380600D01*
X16526300Y-12360600D02*
X16566300Y-12360600D01*
X16635300Y-9080630D02*
X16635300Y-9120630D01*
X16615300Y-9100630D02*
X16655300Y-9100630D01*
X16635300Y-12480600D02*
X16635300Y-12520600D01*
X16615300Y-12500600D02*
X16655300Y-12500600D01*
X17447300Y-7380630D02*
X17447300Y-7420630D01*
X17427300Y-7400630D02*
X17467300Y-7400630D01*
X17447300Y-10780600D02*
X17447300Y-10820600D01*
X17427300Y-10800600D02*
X17467300Y-10800600D01*
X17536300Y-7240630D02*
X17536300Y-7280630D01*
X17516300Y-7260630D02*
X17556300Y-7260630D01*
X17536300Y-9010000D02*
X17536300Y-9050000D01*
X17516300Y-9030000D02*
X17556300Y-9030000D01*
X17536300Y-10640600D02*
X17536300Y-10680600D01*
X17516300Y-10660600D02*
X17556300Y-10660600D01*
X17595000Y-12385000D02*
X17595000Y-12425000D01*
X17575000Y-12405000D02*
X17615000Y-12405000D01*
X18167300Y-14380600D02*
X18167300Y-14420600D01*
X18147300Y-14400600D02*
X18187300Y-14400600D01*
X18255000Y-7440000D02*
X18255000Y-7480000D01*
X18235000Y-7460000D02*
X18275000Y-7460000D01*
X18256300Y-14240600D02*
X18256300Y-14280600D01*
X18236300Y-14260600D02*
X18276300Y-14260600D01*
X18265000Y-10840600D02*
X18265000Y-10880600D01*
X18245000Y-10860600D02*
X18285000Y-10860600D01*
X18346300Y-9140630D02*
X18346300Y-9180630D01*
X18326300Y-9160630D02*
X18366300Y-9160630D01*
X18346300Y-12540600D02*
X18346300Y-12580600D01*
X18326300Y-12560600D02*
X18366300Y-12560600D01*
X18430000Y-12630000D02*
X18430000Y-12670000D01*
X18410000Y-12650000D02*
X18450000Y-12650000D01*
X18435300Y-9280630D02*
X18435300Y-9320630D01*
X18415300Y-9300630D02*
X18455300Y-9300630D01*
X19247300Y-7580630D02*
X19247300Y-7620630D01*
X19227300Y-7600630D02*
X19267300Y-7600630D01*
X19247300Y-10980600D02*
X19247300Y-11020600D01*
X19227300Y-11000600D02*
X19267300Y-11000600D01*
X19336300Y-9228630D02*
X19336300Y-9268630D01*
X19316300Y-9248630D02*
X19356300Y-9248630D01*
X19336300Y-10840600D02*
X19336300Y-10880600D01*
X19316300Y-10860600D02*
X19356300Y-10860600D01*
X19370000Y-14345000D02*
X19370000Y-14385000D01*
X19350000Y-14365000D02*
X19390000Y-14365000D01*
X19375000Y-12545000D02*
X19375000Y-12585000D01*
X19355000Y-12565000D02*
X19395000Y-12565000D01*
X19422835Y-7527165D02*
X19422835Y-7567165D01*
X19402835Y-7547165D02*
X19442835Y-7547165D01*
X20271100Y-14845700D02*
X20271100Y-14885700D01*
X20251100Y-14865700D02*
X20291100Y-14865700D01*
X20399000Y-14740000D02*
X20399000Y-14780000D01*
X20379000Y-14760000D02*
X20419000Y-14760000D01*
X21440000Y-15205000D02*
X21440000Y-15245000D01*
X21420000Y-15225000D02*
X21460000Y-15225000D01*
X22124900Y-15935700D02*
X22124900Y-15975700D01*
X22104900Y-15955700D02*
X22144900Y-15955700D01*
X22279200Y-15874700D02*
X22279200Y-15914700D01*
X22259200Y-15894700D02*
X22299200Y-15894700D01*
X21029252Y-7617772D02*
X21029252Y-7589488D01*
X21000968Y-7589488D01*
X21000968Y-7617772D01*
X21029252Y-7617772D01*
X21029252Y-7871772D02*
X21029252Y-7843488D01*
X21000968Y-7843488D01*
X21000968Y-7871772D01*
X21029252Y-7871772D01*
X21029252Y-8125772D02*
X21029252Y-8097488D01*
X21000968Y-8097488D01*
X21000968Y-8125772D01*
X21029252Y-8125772D01*
X21029252Y-8379772D02*
X21029252Y-8351488D01*
X21000968Y-8351488D01*
X21000968Y-8379772D01*
X21029252Y-8379772D01*
X21029252Y-8633772D02*
X21029252Y-8605488D01*
X21000968Y-8605488D01*
X21000968Y-8633772D01*
X21029252Y-8633772D01*
X21029252Y-8887772D02*
X21029252Y-8859488D01*
X21000968Y-8859488D01*
X21000968Y-8887772D01*
X21029252Y-8887772D01*
X21029252Y-9141772D02*
X21029252Y-9113488D01*
X21000968Y-9113488D01*
X21000968Y-9141772D01*
X21029252Y-9141772D01*
X21029252Y-9395772D02*
X21029252Y-9367488D01*
X21000968Y-9367488D01*
X21000968Y-9395772D01*
X21029252Y-9395772D01*
X21029252Y-9649772D02*
X21029252Y-9621488D01*
X21000968Y-9621488D01*
X21000968Y-9649772D01*
X21029252Y-9649772D01*
X21029252Y-9903772D02*
X21029252Y-9875488D01*
X21000968Y-9875488D01*
X21000968Y-9903772D01*
X21029252Y-9903772D01*
X21029252Y-10157772D02*
X21029252Y-10129488D01*
X21000968Y-10129488D01*
X21000968Y-10157772D01*
X21029252Y-10157772D01*
X21029252Y-10411772D02*
X21029252Y-10383488D01*
X21000968Y-10383488D01*
X21000968Y-10411772D01*
X21029252Y-10411772D01*
X21029252Y-10665772D02*
X21029252Y-10637488D01*
X21000968Y-10637488D01*
X21000968Y-10665772D01*
X21029252Y-10665772D01*
X21681652Y-7617772D02*
X21681652Y-7589488D01*
X21653368Y-7589488D01*
X21653368Y-7617772D01*
X21681652Y-7617772D01*
X21681652Y-7871772D02*
X21681652Y-7843488D01*
X21653368Y-7843488D01*
X21653368Y-7871772D01*
X21681652Y-7871772D01*
X21681652Y-8125772D02*
X21681652Y-8097488D01*
X21653368Y-8097488D01*
X21653368Y-8125772D01*
X21681652Y-8125772D01*
X21681652Y-8379772D02*
X21681652Y-8351488D01*
X21653368Y-8351488D01*
X21653368Y-8379772D01*
X21681652Y-8379772D01*
X21681652Y-8633772D02*
X21681652Y-8605488D01*
X21653368Y-8605488D01*
X21653368Y-8633772D01*
X21681652Y-8633772D01*
X21681652Y-8887772D02*
X21681652Y-8859488D01*
X21653368Y-8859488D01*
X21653368Y-8887772D01*
X21681652Y-8887772D01*
X21681652Y-9141772D02*
X21681652Y-9113488D01*
X21653368Y-9113488D01*
X21653368Y-9141772D01*
X21681652Y-9141772D01*
X21681652Y-9395772D02*
X21681652Y-9367488D01*
X21653368Y-9367488D01*
X21653368Y-9395772D01*
X21681652Y-9395772D01*
X21681652Y-9649772D02*
X21681652Y-9621488D01*
X21653368Y-9621488D01*
X21653368Y-9649772D01*
X21681652Y-9649772D01*
X21681652Y-9903772D02*
X21681652Y-9875488D01*
X21653368Y-9875488D01*
X21653368Y-9903772D01*
X21681652Y-9903772D01*
X21681652Y-10157772D02*
X21681652Y-10129488D01*
X21653368Y-10129488D01*
X21653368Y-10157772D01*
X21681652Y-10157772D01*
X21681652Y-10411772D02*
X21681652Y-10383488D01*
X21653368Y-10383488D01*
X21653368Y-10411772D01*
X21681652Y-10411772D01*
X21681652Y-10665772D02*
X21681652Y-10637488D01*
X21653368Y-10637488D01*
X21653368Y-10665772D01*
X21681652Y-10665772D01*
X20001310Y-10248130D02*
X20038810Y-10210630D01*
X20001310Y-10173130D01*
X19963810Y-10210630D01*
X20001310Y-10248130D01*
X20001310Y-10248130D02*
X20038810Y-10210630D01*
X20001310Y-10173130D01*
X19963810Y-10210630D01*
X20001310Y-10248130D01*
X20201310Y-10248130D02*
X20238810Y-10210630D01*
X20201310Y-10173130D01*
X20163810Y-10210630D01*
X20201310Y-10248130D01*
X20201310Y-10248130D02*
X20238810Y-10210630D01*
X20201310Y-10173130D01*
X20163810Y-10210630D01*
X20201310Y-10248130D01*
X21216310Y-11575630D02*
X21306310Y-11665630D01*
X21306310Y-11575630D02*
X21216310Y-11665630D01*
X21306310Y-11620630D02*
G75*
G02*
X21216310Y-11620630I-45000J0D01*
G01*
X21216310Y-11620630D02*
G75*
G02*
X21306310Y-11620630I45000J0D01*
G01*
X21291310Y-11575630D02*
X21231310Y-11575630D01*
X21231310Y-11665630D02*
G75*
G02*
X21231310Y-11575630I0J45000D01*
G01*
X21231310Y-11665630D02*
X21291310Y-11665630D01*
X21291310Y-11665630D02*
G75*
G03*
X21291310Y-11575630I0J45000D01*
G01*
X21216310Y-12035630D02*
X21306310Y-12125630D01*
X21306310Y-12035630D02*
X21216310Y-12125630D01*
X21306310Y-12080630D02*
G75*
G02*
X21216310Y-12080630I-45000J0D01*
G01*
X21216310Y-12080630D02*
G75*
G02*
X21306310Y-12080630I45000J0D01*
G01*
X21291310Y-12035630D02*
X21231310Y-12035630D01*
X21231310Y-12125630D02*
G75*
G02*
X21231310Y-12035630I0J45000D01*
G01*
X21231310Y-12125630D02*
X21291310Y-12125630D01*
X21291310Y-12125630D02*
G75*
G03*
X21291310Y-12035630I0J45000D01*
G01*
X21326310Y-11575630D02*
X21416310Y-11665630D01*
X21416310Y-11575630D02*
X21326310Y-11665630D01*
X21416310Y-11620630D02*
G75*
G02*
X21326310Y-11620630I-45000J0D01*
G01*
X21326310Y-11620630D02*
G75*
G02*
X21416310Y-11620630I45000J0D01*
G01*
X21401310Y-11575630D02*
X21341310Y-11575630D01*
X21341310Y-11665630D02*
G75*
G02*
X21341310Y-11575630I0J45000D01*
G01*
X21341310Y-11665630D02*
X21401310Y-11665630D01*
X21401310Y-11665630D02*
G75*
G03*
X21401310Y-11575630I0J45000D01*
G01*
X21326310Y-12035630D02*
X21416310Y-12125630D01*
X21416310Y-12035630D02*
X21326310Y-12125630D01*
X21416310Y-12080630D02*
G75*
G02*
X21326310Y-12080630I-45000J0D01*
G01*
X21326310Y-12080630D02*
G75*
G02*
X21416310Y-12080630I45000J0D01*
G01*
X21401310Y-12035630D02*
X21341310Y-12035630D01*
X21341310Y-12125630D02*
G75*
G02*
X21341310Y-12035630I0J45000D01*
G01*
X21341310Y-12125630D02*
X21401310Y-12125630D01*
X21401310Y-12125630D02*
G75*
G03*
X21401310Y-12035630I0J45000D01*
G01*
X21726310Y-11575630D02*
X21816310Y-11665630D01*
X21816310Y-11575630D02*
X21726310Y-11665630D01*
X21816310Y-11620630D02*
G75*
G02*
X21726310Y-11620630I-45000J0D01*
G01*
X21726310Y-11620630D02*
G75*
G02*
X21816310Y-11620630I45000J0D01*
G01*
X21801310Y-11575630D02*
X21741310Y-11575630D01*
X21741310Y-11665630D02*
G75*
G02*
X21741310Y-11575630I0J45000D01*
G01*
X21741310Y-11665630D02*
X21801310Y-11665630D01*
X21801310Y-11665630D02*
G75*
G03*
X21801310Y-11575630I0J45000D01*
G01*
X21726310Y-12035630D02*
X21816310Y-12125630D01*
X21816310Y-12035630D02*
X21726310Y-12125630D01*
X21816310Y-12080630D02*
G75*
G02*
X21726310Y-12080630I-45000J0D01*
G01*
X21726310Y-12080630D02*
G75*
G02*
X21816310Y-12080630I45000J0D01*
G01*
X21801310Y-12035630D02*
X21741310Y-12035630D01*
X21741310Y-12125630D02*
G75*
G02*
X21741310Y-12035630I0J45000D01*
G01*
X21741310Y-12125630D02*
X21801310Y-12125630D01*
X21801310Y-12125630D02*
G75*
G03*
X21801310Y-12035630I0J45000D01*
G01*
X22026310Y-11575630D02*
X22116310Y-11665630D01*
X22116310Y-11575630D02*
X22026310Y-11665630D01*
X22116310Y-11620630D02*
G75*
G02*
X22026310Y-11620630I-45000J0D01*
G01*
X22026310Y-11620630D02*
G75*
G02*
X22116310Y-11620630I45000J0D01*
G01*
X22101310Y-11575630D02*
X22041310Y-11575630D01*
X22041310Y-11665630D02*
G75*
G02*
X22041310Y-11575630I0J45000D01*
G01*
X22041310Y-11665630D02*
X22101310Y-11665630D01*
X22101310Y-11665630D02*
G75*
G03*
X22101310Y-11575630I0J45000D01*
G01*
X22026310Y-12035630D02*
X22116310Y-12125630D01*
X22116310Y-12035630D02*
X22026310Y-12125630D01*
X22116310Y-12080630D02*
G75*
G02*
X22026310Y-12080630I-45000J0D01*
G01*
X22026310Y-12080630D02*
G75*
G02*
X22116310Y-12080630I45000J0D01*
G01*
X22101310Y-12035630D02*
X22041310Y-12035630D01*
X22041310Y-12125630D02*
G75*
G02*
X22041310Y-12035630I0J45000D01*
G01*
X22041310Y-12125630D02*
X22101310Y-12125630D01*
X22101310Y-12125630D02*
G75*
G03*
X22101310Y-12035630I0J45000D01*
G01*
X20529310Y-7553630D02*
X20629310Y-7653630D01*
X20629310Y-7553630D02*
X20529310Y-7653630D01*
X20579310Y-7553630D02*
X20579310Y-7653630D01*
X20529310Y-7603630D02*
X20629310Y-7603630D01*
X20529310Y-7807630D02*
X20629310Y-7907630D01*
X20629310Y-7807630D02*
X20529310Y-7907630D01*
X20579310Y-7807630D02*
X20579310Y-7907630D01*
X20529310Y-7857630D02*
X20629310Y-7857630D01*
X20529310Y-8061630D02*
X20629310Y-8161630D01*
X20629310Y-8061630D02*
X20529310Y-8161630D01*
X20579310Y-8061630D02*
X20579310Y-8161630D01*
X20529310Y-8111630D02*
X20629310Y-8111630D01*
X20529310Y-8315630D02*
X20629310Y-8415630D01*
X20629310Y-8315630D02*
X20529310Y-8415630D01*
X20579310Y-8315630D02*
X20579310Y-8415630D01*
X20529310Y-8365630D02*
X20629310Y-8365630D01*
X20529310Y-8569630D02*
X20629310Y-8669630D01*
X20629310Y-8569630D02*
X20529310Y-8669630D01*
X20579310Y-8569630D02*
X20579310Y-8669630D01*
X20529310Y-8619630D02*
X20629310Y-8619630D01*
X20529310Y-8823630D02*
X20629310Y-8923630D01*
X20629310Y-8823630D02*
X20529310Y-8923630D01*
X20579310Y-8823630D02*
X20579310Y-8923630D01*
X20529310Y-8873630D02*
X20629310Y-8873630D01*
X20529310Y-9077630D02*
X20629310Y-9177630D01*
X20629310Y-9077630D02*
X20529310Y-9177630D01*
X20579310Y-9077630D02*
X20579310Y-9177630D01*
X20529310Y-9127630D02*
X20629310Y-9127630D01*
X20529310Y-9331630D02*
X20629310Y-9431630D01*
X20629310Y-9331630D02*
X20529310Y-9431630D01*
X20579310Y-9331630D02*
X20579310Y-9431630D01*
X20529310Y-9381630D02*
X20629310Y-9381630D01*
X20529310Y-9585630D02*
X20629310Y-9685630D01*
X20629310Y-9585630D02*
X20529310Y-9685630D01*
X20579310Y-9585630D02*
X20579310Y-9685630D01*
X20529310Y-9635630D02*
X20629310Y-9635630D01*
X20529310Y-9839630D02*
X20629310Y-9939630D01*
X20629310Y-9839630D02*
X20529310Y-9939630D01*
X20579310Y-9839630D02*
X20579310Y-9939630D01*
X20529310Y-9889630D02*
X20629310Y-9889630D01*
X20529310Y-10093630D02*
X20629310Y-10193630D01*
X20629310Y-10093630D02*
X20529310Y-10193630D01*
X20579310Y-10093630D02*
X20579310Y-10193630D01*
X20529310Y-10143630D02*
X20629310Y-10143630D01*
X20529310Y-10347630D02*
X20629310Y-10447630D01*
X20629310Y-10347630D02*
X20529310Y-10447630D01*
X20579310Y-10347630D02*
X20579310Y-10447630D01*
X20529310Y-10397630D02*
X20629310Y-10397630D01*
X20529310Y-10601630D02*
X20629310Y-10701630D01*
X20629310Y-10601630D02*
X20529310Y-10701630D01*
X20579310Y-10601630D02*
X20579310Y-10701630D01*
X20529310Y-10651630D02*
X20629310Y-10651630D01*
X22053310Y-7553630D02*
X22153310Y-7653630D01*
X22153310Y-7553630D02*
X22053310Y-7653630D01*
X22103310Y-7553630D02*
X22103310Y-7653630D01*
X22053310Y-7603630D02*
X22153310Y-7603630D01*
X22053310Y-7807630D02*
X22153310Y-7907630D01*
X22153310Y-7807630D02*
X22053310Y-7907630D01*
X22103310Y-7807630D02*
X22103310Y-7907630D01*
X22053310Y-7857630D02*
X22153310Y-7857630D01*
X22053310Y-8061630D02*
X22153310Y-8161630D01*
X22153310Y-8061630D02*
X22053310Y-8161630D01*
X22103310Y-8061630D02*
X22103310Y-8161630D01*
X22053310Y-8111630D02*
X22153310Y-8111630D01*
X22053310Y-8315630D02*
X22153310Y-8415630D01*
X22153310Y-8315630D02*
X22053310Y-8415630D01*
X22103310Y-8315630D02*
X22103310Y-8415630D01*
X22053310Y-8365630D02*
X22153310Y-8365630D01*
X22053310Y-8569630D02*
X22153310Y-8669630D01*
X22153310Y-8569630D02*
X22053310Y-8669630D01*
X22103310Y-8569630D02*
X22103310Y-8669630D01*
X22053310Y-8619630D02*
X22153310Y-8619630D01*
X22053310Y-8823630D02*
X22153310Y-8923630D01*
X22153310Y-8823630D02*
X22053310Y-8923630D01*
X22103310Y-8823630D02*
X22103310Y-8923630D01*
X22053310Y-8873630D02*
X22153310Y-8873630D01*
X22053310Y-9077630D02*
X22153310Y-9177630D01*
X22153310Y-9077630D02*
X22053310Y-9177630D01*
X22103310Y-9077630D02*
X22103310Y-9177630D01*
X22053310Y-9127630D02*
X22153310Y-9127630D01*
X22053310Y-9331630D02*
X22153310Y-9431630D01*
X22153310Y-9331630D02*
X22053310Y-9431630D01*
X22103310Y-9331630D02*
X22103310Y-9431630D01*
X22053310Y-9381630D02*
X22153310Y-9381630D01*
X22053310Y-9585630D02*
X22153310Y-9685630D01*
X22153310Y-9585630D02*
X22053310Y-9685630D01*
X22103310Y-9585630D02*
X22103310Y-9685630D01*
X22053310Y-9635630D02*
X22153310Y-9635630D01*
X22053310Y-9839630D02*
X22153310Y-9939630D01*
X22153310Y-9839630D02*
X22053310Y-9939630D01*
X22103310Y-9839630D02*
X22103310Y-9939630D01*
X22053310Y-9889630D02*
X22153310Y-9889630D01*
X22053310Y-10093630D02*
X22153310Y-10193630D01*
X22153310Y-10093630D02*
X22053310Y-10193630D01*
X22103310Y-10093630D02*
X22103310Y-10193630D01*
X22053310Y-10143630D02*
X22153310Y-10143630D01*
X22053310Y-10347630D02*
X22153310Y-10447630D01*
X22153310Y-10347630D02*
X22053310Y-10447630D01*
X22103310Y-10347630D02*
X22103310Y-10447630D01*
X22053310Y-10397630D02*
X22153310Y-10397630D01*
X22053310Y-10601630D02*
X22153310Y-10701630D01*
X22153310Y-10601630D02*
X22053310Y-10701630D01*
X22103310Y-10601630D02*
X22103310Y-10701630D01*
X22053310Y-10651630D02*
X22153310Y-10651630D01*
D14*
X11891310Y-7690630D02*
X12111310Y-7910630D01*
X12111310Y-7690630D02*
X11891310Y-7910630D01*
X12079092Y-7878412D02*
X12079092Y-7722847D01*
X11923527Y-7722847D01*
X11923527Y-7878412D01*
X12079092Y-7878412D01*
X13331310Y-14490630D02*
X13551310Y-14710630D01*
X13551310Y-14490630D02*
X13331310Y-14710630D01*
X13519092Y-14678412D02*
X13519092Y-14522847D01*
X13363527Y-14522847D01*
X13363527Y-14678412D01*
X13519092Y-14678412D01*
X16031310Y-14490630D02*
X16251310Y-14710630D01*
X16251310Y-14490630D02*
X16031310Y-14710630D01*
X16219092Y-14678412D02*
X16219092Y-14522847D01*
X16063527Y-14522847D01*
X16063527Y-14678412D01*
X16219092Y-14678412D01*
X19991310Y-7890630D02*
X20211310Y-8110630D01*
X20211310Y-7890630D02*
X19991310Y-8110630D01*
X20179093Y-8078412D02*
X20179093Y-7922847D01*
X20023528Y-7922847D01*
X20023528Y-8078412D01*
X20179093Y-8078412D01*
X20756340Y-13939690D02*
X20976340Y-14159690D01*
X20976340Y-13939690D02*
X20756340Y-14159690D01*
X20944123Y-14127472D02*
X20944123Y-13971907D01*
X20788558Y-13971907D01*
X20788558Y-14127472D01*
X20944123Y-14127472D01*
D12*
X8357937Y-17740254D02*
X8357937Y-17540254D01*
X8357937Y-17540254D02*
X8405556Y-17540254D01*
X8405556Y-17540254D02*
X8434127Y-17549778D01*
X8434127Y-17549778D02*
X8453175Y-17568825D01*
X8453175Y-17568825D02*
X8462699Y-17587873D01*
X8462699Y-17587873D02*
X8472223Y-17625968D01*
X8472223Y-17625968D02*
X8472223Y-17654539D01*
X8472223Y-17654539D02*
X8462699Y-17692635D01*
X8462699Y-17692635D02*
X8453175Y-17711682D01*
X8453175Y-17711682D02*
X8434127Y-17730730D01*
X8434127Y-17730730D02*
X8405556Y-17740254D01*
X8405556Y-17740254D02*
X8357937Y-17740254D01*
X8557937Y-17740254D02*
X8557937Y-17606920D01*
X8557937Y-17645016D02*
X8567461Y-17625968D01*
X8567461Y-17625968D02*
X8576985Y-17616444D01*
X8576985Y-17616444D02*
X8596032Y-17606920D01*
X8596032Y-17606920D02*
X8615080Y-17606920D01*
X8681746Y-17740254D02*
X8681746Y-17606920D01*
X8681746Y-17540254D02*
X8672223Y-17549778D01*
X8672223Y-17549778D02*
X8681746Y-17559301D01*
X8681746Y-17559301D02*
X8691270Y-17549778D01*
X8691270Y-17549778D02*
X8681746Y-17540254D01*
X8681746Y-17540254D02*
X8681746Y-17559301D01*
X8805556Y-17740254D02*
X8786508Y-17730730D01*
X8786508Y-17730730D02*
X8776985Y-17711682D01*
X8776985Y-17711682D02*
X8776985Y-17540254D01*
X8910318Y-17740254D02*
X8891270Y-17730730D01*
X8891270Y-17730730D02*
X8881746Y-17711682D01*
X8881746Y-17711682D02*
X8881746Y-17540254D01*
X9138889Y-17740254D02*
X9138889Y-17540254D01*
X9138889Y-17540254D02*
X9205556Y-17683111D01*
X9205556Y-17683111D02*
X9272223Y-17540254D01*
X9272223Y-17540254D02*
X9272223Y-17740254D01*
X9453175Y-17740254D02*
X9453175Y-17635492D01*
X9453175Y-17635492D02*
X9443651Y-17616444D01*
X9443651Y-17616444D02*
X9424604Y-17606920D01*
X9424604Y-17606920D02*
X9386508Y-17606920D01*
X9386508Y-17606920D02*
X9367461Y-17616444D01*
X9453175Y-17730730D02*
X9434127Y-17740254D01*
X9434127Y-17740254D02*
X9386508Y-17740254D01*
X9386508Y-17740254D02*
X9367461Y-17730730D01*
X9367461Y-17730730D02*
X9357937Y-17711682D01*
X9357937Y-17711682D02*
X9357937Y-17692635D01*
X9357937Y-17692635D02*
X9367461Y-17673587D01*
X9367461Y-17673587D02*
X9386508Y-17664063D01*
X9386508Y-17664063D02*
X9434127Y-17664063D01*
X9434127Y-17664063D02*
X9453175Y-17654539D01*
X9548413Y-17606920D02*
X9548413Y-17806920D01*
X9548413Y-17616444D02*
X9567461Y-17606920D01*
X9567461Y-17606920D02*
X9605556Y-17606920D01*
X9605556Y-17606920D02*
X9624604Y-17616444D01*
X9624604Y-17616444D02*
X9634127Y-17625968D01*
X9634127Y-17625968D02*
X9643651Y-17645016D01*
X9643651Y-17645016D02*
X9643651Y-17702158D01*
X9643651Y-17702158D02*
X9634127Y-17721206D01*
X9634127Y-17721206D02*
X9624604Y-17730730D01*
X9624604Y-17730730D02*
X9605556Y-17740254D01*
X9605556Y-17740254D02*
X9567461Y-17740254D01*
X9567461Y-17740254D02*
X9548413Y-17730730D01*
X9729366Y-17721206D02*
X9738889Y-17730730D01*
X9738889Y-17730730D02*
X9729366Y-17740254D01*
X9729366Y-17740254D02*
X9719842Y-17730730D01*
X9719842Y-17730730D02*
X9729366Y-17721206D01*
X9729366Y-17721206D02*
X9729366Y-17740254D01*
X9729366Y-17616444D02*
X9738889Y-17625968D01*
X9738889Y-17625968D02*
X9729366Y-17635492D01*
X9729366Y-17635492D02*
X9719842Y-17625968D01*
X9719842Y-17625968D02*
X9729366Y-17616444D01*
X9729366Y-17616444D02*
X9729366Y-17635492D01*
D13*
X8067160Y-18053770D02*
X8097160Y-18083770D01*
X8097160Y-18053770D02*
X8067160Y-18083770D01*
D12*
X8396032Y-17960254D02*
X8415080Y-17960254D01*
X8415080Y-17960254D02*
X8434127Y-17969778D01*
X8434127Y-17969778D02*
X8443651Y-17979301D01*
X8443651Y-17979301D02*
X8453175Y-17998349D01*
X8453175Y-17998349D02*
X8462699Y-18036444D01*
X8462699Y-18036444D02*
X8462699Y-18084063D01*
X8462699Y-18084063D02*
X8453175Y-18122158D01*
X8453175Y-18122158D02*
X8443651Y-18141206D01*
X8443651Y-18141206D02*
X8434127Y-18150730D01*
X8434127Y-18150730D02*
X8415080Y-18160254D01*
X8415080Y-18160254D02*
X8396032Y-18160254D01*
X8396032Y-18160254D02*
X8376984Y-18150730D01*
X8376984Y-18150730D02*
X8367461Y-18141206D01*
X8367461Y-18141206D02*
X8357937Y-18122158D01*
X8357937Y-18122158D02*
X8348413Y-18084063D01*
X8348413Y-18084063D02*
X8348413Y-18036444D01*
X8348413Y-18036444D02*
X8357937Y-17998349D01*
X8357937Y-17998349D02*
X8367461Y-17979301D01*
X8367461Y-17979301D02*
X8376984Y-17969778D01*
X8376984Y-17969778D02*
X8396032Y-17960254D01*
X8548413Y-18141206D02*
X8557937Y-18150730D01*
X8557937Y-18150730D02*
X8548413Y-18160254D01*
X8548413Y-18160254D02*
X8538889Y-18150730D01*
X8538889Y-18150730D02*
X8548413Y-18141206D01*
X8548413Y-18141206D02*
X8548413Y-18160254D01*
X8624604Y-17960254D02*
X8748413Y-17960254D01*
X8748413Y-17960254D02*
X8681746Y-18036444D01*
X8681746Y-18036444D02*
X8710318Y-18036444D01*
X8710318Y-18036444D02*
X8729366Y-18045968D01*
X8729366Y-18045968D02*
X8738889Y-18055492D01*
X8738889Y-18055492D02*
X8748413Y-18074539D01*
X8748413Y-18074539D02*
X8748413Y-18122158D01*
X8748413Y-18122158D02*
X8738889Y-18141206D01*
X8738889Y-18141206D02*
X8729366Y-18150730D01*
X8729366Y-18150730D02*
X8710318Y-18160254D01*
X8710318Y-18160254D02*
X8653175Y-18160254D01*
X8653175Y-18160254D02*
X8634127Y-18150730D01*
X8634127Y-18150730D02*
X8624604Y-18141206D01*
X8872223Y-17960254D02*
X8891270Y-17960254D01*
X8891270Y-17960254D02*
X8910318Y-17969778D01*
X8910318Y-17969778D02*
X8919842Y-17979301D01*
X8919842Y-17979301D02*
X8929366Y-17998349D01*
X8929366Y-17998349D02*
X8938889Y-18036444D01*
X8938889Y-18036444D02*
X8938889Y-18084063D01*
X8938889Y-18084063D02*
X8929366Y-18122158D01*
X8929366Y-18122158D02*
X8919842Y-18141206D01*
X8919842Y-18141206D02*
X8910318Y-18150730D01*
X8910318Y-18150730D02*
X8891270Y-18160254D01*
X8891270Y-18160254D02*
X8872223Y-18160254D01*
X8872223Y-18160254D02*
X8853175Y-18150730D01*
X8853175Y-18150730D02*
X8843651Y-18141206D01*
X8843651Y-18141206D02*
X8834127Y-18122158D01*
X8834127Y-18122158D02*
X8824604Y-18084063D01*
X8824604Y-18084063D02*
X8824604Y-18036444D01*
X8824604Y-18036444D02*
X8834127Y-17998349D01*
X8834127Y-17998349D02*
X8843651Y-17979301D01*
X8843651Y-17979301D02*
X8853175Y-17969778D01*
X8853175Y-17969778D02*
X8872223Y-17960254D01*
X9062699Y-17960254D02*
X9081747Y-17960254D01*
X9081747Y-17960254D02*
X9100794Y-17969778D01*
X9100794Y-17969778D02*
X9110318Y-17979301D01*
X9110318Y-17979301D02*
X9119842Y-17998349D01*
X9119842Y-17998349D02*
X9129366Y-18036444D01*
X9129366Y-18036444D02*
X9129366Y-18084063D01*
X9129366Y-18084063D02*
X9119842Y-18122158D01*
X9119842Y-18122158D02*
X9110318Y-18141206D01*
X9110318Y-18141206D02*
X9100794Y-18150730D01*
X9100794Y-18150730D02*
X9081747Y-18160254D01*
X9081747Y-18160254D02*
X9062699Y-18160254D01*
X9062699Y-18160254D02*
X9043651Y-18150730D01*
X9043651Y-18150730D02*
X9034127Y-18141206D01*
X9034127Y-18141206D02*
X9024604Y-18122158D01*
X9024604Y-18122158D02*
X9015080Y-18084063D01*
X9015080Y-18084063D02*
X9015080Y-18036444D01*
X9015080Y-18036444D02*
X9024604Y-17998349D01*
X9024604Y-17998349D02*
X9034127Y-17979301D01*
X9034127Y-17979301D02*
X9043651Y-17969778D01*
X9043651Y-17969778D02*
X9062699Y-17960254D01*
X9215080Y-18160254D02*
X9215080Y-18026920D01*
X9215080Y-18045968D02*
X9224604Y-18036444D01*
X9224604Y-18036444D02*
X9243651Y-18026920D01*
X9243651Y-18026920D02*
X9272223Y-18026920D01*
X9272223Y-18026920D02*
X9291270Y-18036444D01*
X9291270Y-18036444D02*
X9300794Y-18055492D01*
X9300794Y-18055492D02*
X9300794Y-18160254D01*
X9300794Y-18055492D02*
X9310318Y-18036444D01*
X9310318Y-18036444D02*
X9329366Y-18026920D01*
X9329366Y-18026920D02*
X9357937Y-18026920D01*
X9357937Y-18026920D02*
X9376985Y-18036444D01*
X9376985Y-18036444D02*
X9386508Y-18055492D01*
X9386508Y-18055492D02*
X9386508Y-18160254D01*
X9481747Y-18160254D02*
X9481747Y-18026920D01*
X9481747Y-18045968D02*
X9491270Y-18036444D01*
X9491270Y-18036444D02*
X9510318Y-18026920D01*
X9510318Y-18026920D02*
X9538889Y-18026920D01*
X9538889Y-18026920D02*
X9557937Y-18036444D01*
X9557937Y-18036444D02*
X9567461Y-18055492D01*
X9567461Y-18055492D02*
X9567461Y-18160254D01*
X9567461Y-18055492D02*
X9576985Y-18036444D01*
X9576985Y-18036444D02*
X9596032Y-18026920D01*
X9596032Y-18026920D02*
X9624604Y-18026920D01*
X9624604Y-18026920D02*
X9643651Y-18036444D01*
X9643651Y-18036444D02*
X9653175Y-18055492D01*
X9653175Y-18055492D02*
X9653175Y-18160254D01*
X10043651Y-17950730D02*
X9872223Y-18207873D01*
X10300794Y-17960254D02*
X10319842Y-17960254D01*
X10319842Y-17960254D02*
X10338890Y-17969778D01*
X10338890Y-17969778D02*
X10348413Y-17979301D01*
X10348413Y-17979301D02*
X10357937Y-17998349D01*
X10357937Y-17998349D02*
X10367461Y-18036444D01*
X10367461Y-18036444D02*
X10367461Y-18084063D01*
X10367461Y-18084063D02*
X10357937Y-18122158D01*
X10357937Y-18122158D02*
X10348413Y-18141206D01*
X10348413Y-18141206D02*
X10338890Y-18150730D01*
X10338890Y-18150730D02*
X10319842Y-18160254D01*
X10319842Y-18160254D02*
X10300794Y-18160254D01*
X10300794Y-18160254D02*
X10281747Y-18150730D01*
X10281747Y-18150730D02*
X10272223Y-18141206D01*
X10272223Y-18141206D02*
X10262699Y-18122158D01*
X10262699Y-18122158D02*
X10253175Y-18084063D01*
X10253175Y-18084063D02*
X10253175Y-18036444D01*
X10253175Y-18036444D02*
X10262699Y-17998349D01*
X10262699Y-17998349D02*
X10272223Y-17979301D01*
X10272223Y-17979301D02*
X10281747Y-17969778D01*
X10281747Y-17969778D02*
X10300794Y-17960254D01*
X10453175Y-18141206D02*
X10462699Y-18150730D01*
X10462699Y-18150730D02*
X10453175Y-18160254D01*
X10453175Y-18160254D02*
X10443651Y-18150730D01*
X10443651Y-18150730D02*
X10453175Y-18141206D01*
X10453175Y-18141206D02*
X10453175Y-18160254D01*
X10586509Y-17960254D02*
X10605556Y-17960254D01*
X10605556Y-17960254D02*
X10624604Y-17969778D01*
X10624604Y-17969778D02*
X10634128Y-17979301D01*
X10634128Y-17979301D02*
X10643651Y-17998349D01*
X10643651Y-17998349D02*
X10653175Y-18036444D01*
X10653175Y-18036444D02*
X10653175Y-18084063D01*
X10653175Y-18084063D02*
X10643651Y-18122158D01*
X10643651Y-18122158D02*
X10634128Y-18141206D01*
X10634128Y-18141206D02*
X10624604Y-18150730D01*
X10624604Y-18150730D02*
X10605556Y-18160254D01*
X10605556Y-18160254D02*
X10586509Y-18160254D01*
X10586509Y-18160254D02*
X10567461Y-18150730D01*
X10567461Y-18150730D02*
X10557937Y-18141206D01*
X10557937Y-18141206D02*
X10548413Y-18122158D01*
X10548413Y-18122158D02*
X10538890Y-18084063D01*
X10538890Y-18084063D02*
X10538890Y-18036444D01*
X10538890Y-18036444D02*
X10548413Y-17998349D01*
X10548413Y-17998349D02*
X10557937Y-17979301D01*
X10557937Y-17979301D02*
X10567461Y-17969778D01*
X10567461Y-17969778D02*
X10586509Y-17960254D01*
X10843651Y-18160254D02*
X10729366Y-18160254D01*
X10786509Y-18160254D02*
X10786509Y-17960254D01*
X10786509Y-17960254D02*
X10767461Y-17988825D01*
X10767461Y-17988825D02*
X10748413Y-18007873D01*
X10748413Y-18007873D02*
X10729366Y-18017397D01*
X11034128Y-18160254D02*
X10919842Y-18160254D01*
X10976985Y-18160254D02*
X10976985Y-17960254D01*
X10976985Y-17960254D02*
X10957937Y-17988825D01*
X10957937Y-17988825D02*
X10938890Y-18007873D01*
X10938890Y-18007873D02*
X10919842Y-18017397D01*
X11148413Y-18045968D02*
X11129366Y-18036444D01*
X11129366Y-18036444D02*
X11119842Y-18026920D01*
X11119842Y-18026920D02*
X11110318Y-18007873D01*
X11110318Y-18007873D02*
X11110318Y-17998349D01*
X11110318Y-17998349D02*
X11119842Y-17979301D01*
X11119842Y-17979301D02*
X11129366Y-17969778D01*
X11129366Y-17969778D02*
X11148413Y-17960254D01*
X11148413Y-17960254D02*
X11186509Y-17960254D01*
X11186509Y-17960254D02*
X11205556Y-17969778D01*
X11205556Y-17969778D02*
X11215080Y-17979301D01*
X11215080Y-17979301D02*
X11224604Y-17998349D01*
X11224604Y-17998349D02*
X11224604Y-18007873D01*
X11224604Y-18007873D02*
X11215080Y-18026920D01*
X11215080Y-18026920D02*
X11205556Y-18036444D01*
X11205556Y-18036444D02*
X11186509Y-18045968D01*
X11186509Y-18045968D02*
X11148413Y-18045968D01*
X11148413Y-18045968D02*
X11129366Y-18055492D01*
X11129366Y-18055492D02*
X11119842Y-18065016D01*
X11119842Y-18065016D02*
X11110318Y-18084063D01*
X11110318Y-18084063D02*
X11110318Y-18122158D01*
X11110318Y-18122158D02*
X11119842Y-18141206D01*
X11119842Y-18141206D02*
X11129366Y-18150730D01*
X11129366Y-18150730D02*
X11148413Y-18160254D01*
X11148413Y-18160254D02*
X11186509Y-18160254D01*
X11186509Y-18160254D02*
X11205556Y-18150730D01*
X11205556Y-18150730D02*
X11215080Y-18141206D01*
X11215080Y-18141206D02*
X11224604Y-18122158D01*
X11224604Y-18122158D02*
X11224604Y-18084063D01*
X11224604Y-18084063D02*
X11215080Y-18065016D01*
X11215080Y-18065016D02*
X11205556Y-18055492D01*
X11205556Y-18055492D02*
X11186509Y-18045968D01*
X11300794Y-17960254D02*
X11300794Y-17998349D01*
X11376985Y-17960254D02*
X11376985Y-17998349D01*
X11672223Y-18236444D02*
X11662699Y-18226920D01*
X11662699Y-18226920D02*
X11643651Y-18198349D01*
X11643651Y-18198349D02*
X11634128Y-18179301D01*
X11634128Y-18179301D02*
X11624604Y-18150730D01*
X11624604Y-18150730D02*
X11615080Y-18103111D01*
X11615080Y-18103111D02*
X11615080Y-18065016D01*
X11615080Y-18065016D02*
X11624604Y-18017397D01*
X11624604Y-18017397D02*
X11634128Y-17988825D01*
X11634128Y-17988825D02*
X11643651Y-17969778D01*
X11643651Y-17969778D02*
X11662699Y-17941206D01*
X11662699Y-17941206D02*
X11672223Y-17931682D01*
X11853175Y-18160254D02*
X11738890Y-18160254D01*
X11796032Y-18160254D02*
X11796032Y-17960254D01*
X11796032Y-17960254D02*
X11776985Y-17988825D01*
X11776985Y-17988825D02*
X11757937Y-18007873D01*
X11757937Y-18007873D02*
X11738890Y-18017397D01*
X12024604Y-18026920D02*
X12024604Y-18160254D01*
X11976985Y-17950730D02*
X11929366Y-18093587D01*
X11929366Y-18093587D02*
X12053175Y-18093587D01*
X12215080Y-17960254D02*
X12176985Y-17960254D01*
X12176985Y-17960254D02*
X12157937Y-17969778D01*
X12157937Y-17969778D02*
X12148413Y-17979301D01*
X12148413Y-17979301D02*
X12129366Y-18007873D01*
X12129366Y-18007873D02*
X12119842Y-18045968D01*
X12119842Y-18045968D02*
X12119842Y-18122158D01*
X12119842Y-18122158D02*
X12129366Y-18141206D01*
X12129366Y-18141206D02*
X12138890Y-18150730D01*
X12138890Y-18150730D02*
X12157937Y-18160254D01*
X12157937Y-18160254D02*
X12196032Y-18160254D01*
X12196032Y-18160254D02*
X12215080Y-18150730D01*
X12215080Y-18150730D02*
X12224604Y-18141206D01*
X12224604Y-18141206D02*
X12234128Y-18122158D01*
X12234128Y-18122158D02*
X12234128Y-18074539D01*
X12234128Y-18074539D02*
X12224604Y-18055492D01*
X12224604Y-18055492D02*
X12215080Y-18045968D01*
X12215080Y-18045968D02*
X12196032Y-18036444D01*
X12196032Y-18036444D02*
X12157937Y-18036444D01*
X12157937Y-18036444D02*
X12138890Y-18045968D01*
X12138890Y-18045968D02*
X12129366Y-18055492D01*
X12129366Y-18055492D02*
X12119842Y-18074539D01*
X12472223Y-18160254D02*
X12472223Y-17960254D01*
X12557937Y-18160254D02*
X12557937Y-18055492D01*
X12557937Y-18055492D02*
X12548413Y-18036444D01*
X12548413Y-18036444D02*
X12529366Y-18026920D01*
X12529366Y-18026920D02*
X12500794Y-18026920D01*
X12500794Y-18026920D02*
X12481747Y-18036444D01*
X12481747Y-18036444D02*
X12472223Y-18045968D01*
X12681747Y-18160254D02*
X12662699Y-18150730D01*
X12662699Y-18150730D02*
X12653175Y-18141206D01*
X12653175Y-18141206D02*
X12643652Y-18122158D01*
X12643652Y-18122158D02*
X12643652Y-18065016D01*
X12643652Y-18065016D02*
X12653175Y-18045968D01*
X12653175Y-18045968D02*
X12662699Y-18036444D01*
X12662699Y-18036444D02*
X12681747Y-18026920D01*
X12681747Y-18026920D02*
X12710318Y-18026920D01*
X12710318Y-18026920D02*
X12729366Y-18036444D01*
X12729366Y-18036444D02*
X12738890Y-18045968D01*
X12738890Y-18045968D02*
X12748413Y-18065016D01*
X12748413Y-18065016D02*
X12748413Y-18122158D01*
X12748413Y-18122158D02*
X12738890Y-18141206D01*
X12738890Y-18141206D02*
X12729366Y-18150730D01*
X12729366Y-18150730D02*
X12710318Y-18160254D01*
X12710318Y-18160254D02*
X12681747Y-18160254D01*
X12862699Y-18160254D02*
X12843652Y-18150730D01*
X12843652Y-18150730D02*
X12834128Y-18131682D01*
X12834128Y-18131682D02*
X12834128Y-17960254D01*
X13015080Y-18150730D02*
X12996033Y-18160254D01*
X12996033Y-18160254D02*
X12957937Y-18160254D01*
X12957937Y-18160254D02*
X12938890Y-18150730D01*
X12938890Y-18150730D02*
X12929366Y-18131682D01*
X12929366Y-18131682D02*
X12929366Y-18055492D01*
X12929366Y-18055492D02*
X12938890Y-18036444D01*
X12938890Y-18036444D02*
X12957937Y-18026920D01*
X12957937Y-18026920D02*
X12996033Y-18026920D01*
X12996033Y-18026920D02*
X13015080Y-18036444D01*
X13015080Y-18036444D02*
X13024604Y-18055492D01*
X13024604Y-18055492D02*
X13024604Y-18074539D01*
X13024604Y-18074539D02*
X12929366Y-18093587D01*
X13100794Y-18150730D02*
X13119842Y-18160254D01*
X13119842Y-18160254D02*
X13157937Y-18160254D01*
X13157937Y-18160254D02*
X13176985Y-18150730D01*
X13176985Y-18150730D02*
X13186509Y-18131682D01*
X13186509Y-18131682D02*
X13186509Y-18122158D01*
X13186509Y-18122158D02*
X13176985Y-18103111D01*
X13176985Y-18103111D02*
X13157937Y-18093587D01*
X13157937Y-18093587D02*
X13129366Y-18093587D01*
X13129366Y-18093587D02*
X13110318Y-18084063D01*
X13110318Y-18084063D02*
X13100794Y-18065016D01*
X13100794Y-18065016D02*
X13100794Y-18055492D01*
X13100794Y-18055492D02*
X13110318Y-18036444D01*
X13110318Y-18036444D02*
X13129366Y-18026920D01*
X13129366Y-18026920D02*
X13157937Y-18026920D01*
X13157937Y-18026920D02*
X13176985Y-18036444D01*
X13253175Y-18236444D02*
X13262699Y-18226920D01*
X13262699Y-18226920D02*
X13281747Y-18198349D01*
X13281747Y-18198349D02*
X13291271Y-18179301D01*
X13291271Y-18179301D02*
X13300794Y-18150730D01*
X13300794Y-18150730D02*
X13310318Y-18103111D01*
X13310318Y-18103111D02*
X13310318Y-18065016D01*
X13310318Y-18065016D02*
X13300794Y-18017397D01*
X13300794Y-18017397D02*
X13291271Y-17988825D01*
X13291271Y-17988825D02*
X13281747Y-17969778D01*
X13281747Y-17969778D02*
X13262699Y-17941206D01*
X13262699Y-17941206D02*
X13253175Y-17931682D01*
D13*
X8097160Y-18332770D02*
G75*
G02*
X8067160Y-18332770I-15000J0D01*
G01*
X8067160Y-18332770D02*
G75*
G02*
X8097160Y-18332770I15000J0D01*
G01*
D12*
X8396032Y-18224254D02*
X8415080Y-18224254D01*
X8415080Y-18224254D02*
X8434127Y-18233778D01*
X8434127Y-18233778D02*
X8443651Y-18243301D01*
X8443651Y-18243301D02*
X8453175Y-18262349D01*
X8453175Y-18262349D02*
X8462699Y-18300444D01*
X8462699Y-18300444D02*
X8462699Y-18348063D01*
X8462699Y-18348063D02*
X8453175Y-18386158D01*
X8453175Y-18386158D02*
X8443651Y-18405206D01*
X8443651Y-18405206D02*
X8434127Y-18414730D01*
X8434127Y-18414730D02*
X8415080Y-18424254D01*
X8415080Y-18424254D02*
X8396032Y-18424254D01*
X8396032Y-18424254D02*
X8376984Y-18414730D01*
X8376984Y-18414730D02*
X8367461Y-18405206D01*
X8367461Y-18405206D02*
X8357937Y-18386158D01*
X8357937Y-18386158D02*
X8348413Y-18348063D01*
X8348413Y-18348063D02*
X8348413Y-18300444D01*
X8348413Y-18300444D02*
X8357937Y-18262349D01*
X8357937Y-18262349D02*
X8367461Y-18243301D01*
X8367461Y-18243301D02*
X8376984Y-18233778D01*
X8376984Y-18233778D02*
X8396032Y-18224254D01*
X8548413Y-18405206D02*
X8557937Y-18414730D01*
X8557937Y-18414730D02*
X8548413Y-18424254D01*
X8548413Y-18424254D02*
X8538889Y-18414730D01*
X8538889Y-18414730D02*
X8548413Y-18405206D01*
X8548413Y-18405206D02*
X8548413Y-18424254D01*
X8624604Y-18224254D02*
X8748413Y-18224254D01*
X8748413Y-18224254D02*
X8681746Y-18300444D01*
X8681746Y-18300444D02*
X8710318Y-18300444D01*
X8710318Y-18300444D02*
X8729366Y-18309968D01*
X8729366Y-18309968D02*
X8738889Y-18319492D01*
X8738889Y-18319492D02*
X8748413Y-18338539D01*
X8748413Y-18338539D02*
X8748413Y-18386158D01*
X8748413Y-18386158D02*
X8738889Y-18405206D01*
X8738889Y-18405206D02*
X8729366Y-18414730D01*
X8729366Y-18414730D02*
X8710318Y-18424254D01*
X8710318Y-18424254D02*
X8653175Y-18424254D01*
X8653175Y-18424254D02*
X8634127Y-18414730D01*
X8634127Y-18414730D02*
X8624604Y-18405206D01*
X8872223Y-18224254D02*
X8891270Y-18224254D01*
X8891270Y-18224254D02*
X8910318Y-18233778D01*
X8910318Y-18233778D02*
X8919842Y-18243301D01*
X8919842Y-18243301D02*
X8929366Y-18262349D01*
X8929366Y-18262349D02*
X8938889Y-18300444D01*
X8938889Y-18300444D02*
X8938889Y-18348063D01*
X8938889Y-18348063D02*
X8929366Y-18386158D01*
X8929366Y-18386158D02*
X8919842Y-18405206D01*
X8919842Y-18405206D02*
X8910318Y-18414730D01*
X8910318Y-18414730D02*
X8891270Y-18424254D01*
X8891270Y-18424254D02*
X8872223Y-18424254D01*
X8872223Y-18424254D02*
X8853175Y-18414730D01*
X8853175Y-18414730D02*
X8843651Y-18405206D01*
X8843651Y-18405206D02*
X8834127Y-18386158D01*
X8834127Y-18386158D02*
X8824604Y-18348063D01*
X8824604Y-18348063D02*
X8824604Y-18300444D01*
X8824604Y-18300444D02*
X8834127Y-18262349D01*
X8834127Y-18262349D02*
X8843651Y-18243301D01*
X8843651Y-18243301D02*
X8853175Y-18233778D01*
X8853175Y-18233778D02*
X8872223Y-18224254D01*
X9062699Y-18224254D02*
X9081747Y-18224254D01*
X9081747Y-18224254D02*
X9100794Y-18233778D01*
X9100794Y-18233778D02*
X9110318Y-18243301D01*
X9110318Y-18243301D02*
X9119842Y-18262349D01*
X9119842Y-18262349D02*
X9129366Y-18300444D01*
X9129366Y-18300444D02*
X9129366Y-18348063D01*
X9129366Y-18348063D02*
X9119842Y-18386158D01*
X9119842Y-18386158D02*
X9110318Y-18405206D01*
X9110318Y-18405206D02*
X9100794Y-18414730D01*
X9100794Y-18414730D02*
X9081747Y-18424254D01*
X9081747Y-18424254D02*
X9062699Y-18424254D01*
X9062699Y-18424254D02*
X9043651Y-18414730D01*
X9043651Y-18414730D02*
X9034127Y-18405206D01*
X9034127Y-18405206D02*
X9024604Y-18386158D01*
X9024604Y-18386158D02*
X9015080Y-18348063D01*
X9015080Y-18348063D02*
X9015080Y-18300444D01*
X9015080Y-18300444D02*
X9024604Y-18262349D01*
X9024604Y-18262349D02*
X9034127Y-18243301D01*
X9034127Y-18243301D02*
X9043651Y-18233778D01*
X9043651Y-18233778D02*
X9062699Y-18224254D01*
X9215080Y-18424254D02*
X9215080Y-18290920D01*
X9215080Y-18309968D02*
X9224604Y-18300444D01*
X9224604Y-18300444D02*
X9243651Y-18290920D01*
X9243651Y-18290920D02*
X9272223Y-18290920D01*
X9272223Y-18290920D02*
X9291270Y-18300444D01*
X9291270Y-18300444D02*
X9300794Y-18319492D01*
X9300794Y-18319492D02*
X9300794Y-18424254D01*
X9300794Y-18319492D02*
X9310318Y-18300444D01*
X9310318Y-18300444D02*
X9329366Y-18290920D01*
X9329366Y-18290920D02*
X9357937Y-18290920D01*
X9357937Y-18290920D02*
X9376985Y-18300444D01*
X9376985Y-18300444D02*
X9386508Y-18319492D01*
X9386508Y-18319492D02*
X9386508Y-18424254D01*
X9481747Y-18424254D02*
X9481747Y-18290920D01*
X9481747Y-18309968D02*
X9491270Y-18300444D01*
X9491270Y-18300444D02*
X9510318Y-18290920D01*
X9510318Y-18290920D02*
X9538889Y-18290920D01*
X9538889Y-18290920D02*
X9557937Y-18300444D01*
X9557937Y-18300444D02*
X9567461Y-18319492D01*
X9567461Y-18319492D02*
X9567461Y-18424254D01*
X9567461Y-18319492D02*
X9576985Y-18300444D01*
X9576985Y-18300444D02*
X9596032Y-18290920D01*
X9596032Y-18290920D02*
X9624604Y-18290920D01*
X9624604Y-18290920D02*
X9643651Y-18300444D01*
X9643651Y-18300444D02*
X9653175Y-18319492D01*
X9653175Y-18319492D02*
X9653175Y-18424254D01*
X10043651Y-18214730D02*
X9872223Y-18471873D01*
X10300794Y-18224254D02*
X10319842Y-18224254D01*
X10319842Y-18224254D02*
X10338890Y-18233778D01*
X10338890Y-18233778D02*
X10348413Y-18243301D01*
X10348413Y-18243301D02*
X10357937Y-18262349D01*
X10357937Y-18262349D02*
X10367461Y-18300444D01*
X10367461Y-18300444D02*
X10367461Y-18348063D01*
X10367461Y-18348063D02*
X10357937Y-18386158D01*
X10357937Y-18386158D02*
X10348413Y-18405206D01*
X10348413Y-18405206D02*
X10338890Y-18414730D01*
X10338890Y-18414730D02*
X10319842Y-18424254D01*
X10319842Y-18424254D02*
X10300794Y-18424254D01*
X10300794Y-18424254D02*
X10281747Y-18414730D01*
X10281747Y-18414730D02*
X10272223Y-18405206D01*
X10272223Y-18405206D02*
X10262699Y-18386158D01*
X10262699Y-18386158D02*
X10253175Y-18348063D01*
X10253175Y-18348063D02*
X10253175Y-18300444D01*
X10253175Y-18300444D02*
X10262699Y-18262349D01*
X10262699Y-18262349D02*
X10272223Y-18243301D01*
X10272223Y-18243301D02*
X10281747Y-18233778D01*
X10281747Y-18233778D02*
X10300794Y-18224254D01*
X10453175Y-18405206D02*
X10462699Y-18414730D01*
X10462699Y-18414730D02*
X10453175Y-18424254D01*
X10453175Y-18424254D02*
X10443651Y-18414730D01*
X10443651Y-18414730D02*
X10453175Y-18405206D01*
X10453175Y-18405206D02*
X10453175Y-18424254D01*
X10586509Y-18224254D02*
X10605556Y-18224254D01*
X10605556Y-18224254D02*
X10624604Y-18233778D01*
X10624604Y-18233778D02*
X10634128Y-18243301D01*
X10634128Y-18243301D02*
X10643651Y-18262349D01*
X10643651Y-18262349D02*
X10653175Y-18300444D01*
X10653175Y-18300444D02*
X10653175Y-18348063D01*
X10653175Y-18348063D02*
X10643651Y-18386158D01*
X10643651Y-18386158D02*
X10634128Y-18405206D01*
X10634128Y-18405206D02*
X10624604Y-18414730D01*
X10624604Y-18414730D02*
X10605556Y-18424254D01*
X10605556Y-18424254D02*
X10586509Y-18424254D01*
X10586509Y-18424254D02*
X10567461Y-18414730D01*
X10567461Y-18414730D02*
X10557937Y-18405206D01*
X10557937Y-18405206D02*
X10548413Y-18386158D01*
X10548413Y-18386158D02*
X10538890Y-18348063D01*
X10538890Y-18348063D02*
X10538890Y-18300444D01*
X10538890Y-18300444D02*
X10548413Y-18262349D01*
X10548413Y-18262349D02*
X10557937Y-18243301D01*
X10557937Y-18243301D02*
X10567461Y-18233778D01*
X10567461Y-18233778D02*
X10586509Y-18224254D01*
X10843651Y-18424254D02*
X10729366Y-18424254D01*
X10786509Y-18424254D02*
X10786509Y-18224254D01*
X10786509Y-18224254D02*
X10767461Y-18252825D01*
X10767461Y-18252825D02*
X10748413Y-18271873D01*
X10748413Y-18271873D02*
X10729366Y-18281397D01*
X11034128Y-18424254D02*
X10919842Y-18424254D01*
X10976985Y-18424254D02*
X10976985Y-18224254D01*
X10976985Y-18224254D02*
X10957937Y-18252825D01*
X10957937Y-18252825D02*
X10938890Y-18271873D01*
X10938890Y-18271873D02*
X10919842Y-18281397D01*
X11148413Y-18309968D02*
X11129366Y-18300444D01*
X11129366Y-18300444D02*
X11119842Y-18290920D01*
X11119842Y-18290920D02*
X11110318Y-18271873D01*
X11110318Y-18271873D02*
X11110318Y-18262349D01*
X11110318Y-18262349D02*
X11119842Y-18243301D01*
X11119842Y-18243301D02*
X11129366Y-18233778D01*
X11129366Y-18233778D02*
X11148413Y-18224254D01*
X11148413Y-18224254D02*
X11186509Y-18224254D01*
X11186509Y-18224254D02*
X11205556Y-18233778D01*
X11205556Y-18233778D02*
X11215080Y-18243301D01*
X11215080Y-18243301D02*
X11224604Y-18262349D01*
X11224604Y-18262349D02*
X11224604Y-18271873D01*
X11224604Y-18271873D02*
X11215080Y-18290920D01*
X11215080Y-18290920D02*
X11205556Y-18300444D01*
X11205556Y-18300444D02*
X11186509Y-18309968D01*
X11186509Y-18309968D02*
X11148413Y-18309968D01*
X11148413Y-18309968D02*
X11129366Y-18319492D01*
X11129366Y-18319492D02*
X11119842Y-18329016D01*
X11119842Y-18329016D02*
X11110318Y-18348063D01*
X11110318Y-18348063D02*
X11110318Y-18386158D01*
X11110318Y-18386158D02*
X11119842Y-18405206D01*
X11119842Y-18405206D02*
X11129366Y-18414730D01*
X11129366Y-18414730D02*
X11148413Y-18424254D01*
X11148413Y-18424254D02*
X11186509Y-18424254D01*
X11186509Y-18424254D02*
X11205556Y-18414730D01*
X11205556Y-18414730D02*
X11215080Y-18405206D01*
X11215080Y-18405206D02*
X11224604Y-18386158D01*
X11224604Y-18386158D02*
X11224604Y-18348063D01*
X11224604Y-18348063D02*
X11215080Y-18329016D01*
X11215080Y-18329016D02*
X11205556Y-18319492D01*
X11205556Y-18319492D02*
X11186509Y-18309968D01*
X11300794Y-18224254D02*
X11300794Y-18262349D01*
X11376985Y-18224254D02*
X11376985Y-18262349D01*
X11672223Y-18500444D02*
X11662699Y-18490920D01*
X11662699Y-18490920D02*
X11643651Y-18462349D01*
X11643651Y-18462349D02*
X11634128Y-18443301D01*
X11634128Y-18443301D02*
X11624604Y-18414730D01*
X11624604Y-18414730D02*
X11615080Y-18367111D01*
X11615080Y-18367111D02*
X11615080Y-18329016D01*
X11615080Y-18329016D02*
X11624604Y-18281397D01*
X11624604Y-18281397D02*
X11634128Y-18252825D01*
X11634128Y-18252825D02*
X11643651Y-18233778D01*
X11643651Y-18233778D02*
X11662699Y-18205206D01*
X11662699Y-18205206D02*
X11672223Y-18195682D01*
X11843651Y-18224254D02*
X11748413Y-18224254D01*
X11748413Y-18224254D02*
X11738890Y-18319492D01*
X11738890Y-18319492D02*
X11748413Y-18309968D01*
X11748413Y-18309968D02*
X11767461Y-18300444D01*
X11767461Y-18300444D02*
X11815080Y-18300444D01*
X11815080Y-18300444D02*
X11834128Y-18309968D01*
X11834128Y-18309968D02*
X11843651Y-18319492D01*
X11843651Y-18319492D02*
X11853175Y-18338539D01*
X11853175Y-18338539D02*
X11853175Y-18386158D01*
X11853175Y-18386158D02*
X11843651Y-18405206D01*
X11843651Y-18405206D02*
X11834128Y-18414730D01*
X11834128Y-18414730D02*
X11815080Y-18424254D01*
X11815080Y-18424254D02*
X11767461Y-18424254D01*
X11767461Y-18424254D02*
X11748413Y-18414730D01*
X11748413Y-18414730D02*
X11738890Y-18405206D01*
X12024604Y-18290920D02*
X12024604Y-18424254D01*
X11976985Y-18214730D02*
X11929366Y-18357587D01*
X11929366Y-18357587D02*
X12053175Y-18357587D01*
X12281747Y-18424254D02*
X12281747Y-18224254D01*
X12367461Y-18424254D02*
X12367461Y-18319492D01*
X12367461Y-18319492D02*
X12357937Y-18300444D01*
X12357937Y-18300444D02*
X12338890Y-18290920D01*
X12338890Y-18290920D02*
X12310318Y-18290920D01*
X12310318Y-18290920D02*
X12291271Y-18300444D01*
X12291271Y-18300444D02*
X12281747Y-18309968D01*
X12491271Y-18424254D02*
X12472223Y-18414730D01*
X12472223Y-18414730D02*
X12462699Y-18405206D01*
X12462699Y-18405206D02*
X12453175Y-18386158D01*
X12453175Y-18386158D02*
X12453175Y-18329016D01*
X12453175Y-18329016D02*
X12462699Y-18309968D01*
X12462699Y-18309968D02*
X12472223Y-18300444D01*
X12472223Y-18300444D02*
X12491271Y-18290920D01*
X12491271Y-18290920D02*
X12519842Y-18290920D01*
X12519842Y-18290920D02*
X12538890Y-18300444D01*
X12538890Y-18300444D02*
X12548413Y-18309968D01*
X12548413Y-18309968D02*
X12557937Y-18329016D01*
X12557937Y-18329016D02*
X12557937Y-18386158D01*
X12557937Y-18386158D02*
X12548413Y-18405206D01*
X12548413Y-18405206D02*
X12538890Y-18414730D01*
X12538890Y-18414730D02*
X12519842Y-18424254D01*
X12519842Y-18424254D02*
X12491271Y-18424254D01*
X12672223Y-18424254D02*
X12653175Y-18414730D01*
X12653175Y-18414730D02*
X12643652Y-18395682D01*
X12643652Y-18395682D02*
X12643652Y-18224254D01*
X12824604Y-18414730D02*
X12805556Y-18424254D01*
X12805556Y-18424254D02*
X12767461Y-18424254D01*
X12767461Y-18424254D02*
X12748413Y-18414730D01*
X12748413Y-18414730D02*
X12738890Y-18395682D01*
X12738890Y-18395682D02*
X12738890Y-18319492D01*
X12738890Y-18319492D02*
X12748413Y-18300444D01*
X12748413Y-18300444D02*
X12767461Y-18290920D01*
X12767461Y-18290920D02*
X12805556Y-18290920D01*
X12805556Y-18290920D02*
X12824604Y-18300444D01*
X12824604Y-18300444D02*
X12834128Y-18319492D01*
X12834128Y-18319492D02*
X12834128Y-18338539D01*
X12834128Y-18338539D02*
X12738890Y-18357587D01*
X12910318Y-18414730D02*
X12929366Y-18424254D01*
X12929366Y-18424254D02*
X12967461Y-18424254D01*
X12967461Y-18424254D02*
X12986509Y-18414730D01*
X12986509Y-18414730D02*
X12996033Y-18395682D01*
X12996033Y-18395682D02*
X12996033Y-18386158D01*
X12996033Y-18386158D02*
X12986509Y-18367111D01*
X12986509Y-18367111D02*
X12967461Y-18357587D01*
X12967461Y-18357587D02*
X12938890Y-18357587D01*
X12938890Y-18357587D02*
X12919842Y-18348063D01*
X12919842Y-18348063D02*
X12910318Y-18329016D01*
X12910318Y-18329016D02*
X12910318Y-18319492D01*
X12910318Y-18319492D02*
X12919842Y-18300444D01*
X12919842Y-18300444D02*
X12938890Y-18290920D01*
X12938890Y-18290920D02*
X12967461Y-18290920D01*
X12967461Y-18290920D02*
X12986509Y-18300444D01*
X13062699Y-18500444D02*
X13072223Y-18490920D01*
X13072223Y-18490920D02*
X13091271Y-18462349D01*
X13091271Y-18462349D02*
X13100794Y-18443301D01*
X13100794Y-18443301D02*
X13110318Y-18414730D01*
X13110318Y-18414730D02*
X13119842Y-18367111D01*
X13119842Y-18367111D02*
X13119842Y-18329016D01*
X13119842Y-18329016D02*
X13110318Y-18281397D01*
X13110318Y-18281397D02*
X13100794Y-18252825D01*
X13100794Y-18252825D02*
X13091271Y-18233778D01*
X13091271Y-18233778D02*
X13072223Y-18205206D01*
X13072223Y-18205206D02*
X13062699Y-18195682D01*
D13*
X8077160Y-18576770D02*
X8077160Y-18616770D01*
X8057160Y-18596770D02*
X8097160Y-18596770D01*
D12*
X8396032Y-18488254D02*
X8415080Y-18488254D01*
X8415080Y-18488254D02*
X8434127Y-18497778D01*
X8434127Y-18497778D02*
X8443651Y-18507301D01*
X8443651Y-18507301D02*
X8453175Y-18526349D01*
X8453175Y-18526349D02*
X8462699Y-18564444D01*
X8462699Y-18564444D02*
X8462699Y-18612063D01*
X8462699Y-18612063D02*
X8453175Y-18650158D01*
X8453175Y-18650158D02*
X8443651Y-18669206D01*
X8443651Y-18669206D02*
X8434127Y-18678730D01*
X8434127Y-18678730D02*
X8415080Y-18688254D01*
X8415080Y-18688254D02*
X8396032Y-18688254D01*
X8396032Y-18688254D02*
X8376984Y-18678730D01*
X8376984Y-18678730D02*
X8367461Y-18669206D01*
X8367461Y-18669206D02*
X8357937Y-18650158D01*
X8357937Y-18650158D02*
X8348413Y-18612063D01*
X8348413Y-18612063D02*
X8348413Y-18564444D01*
X8348413Y-18564444D02*
X8357937Y-18526349D01*
X8357937Y-18526349D02*
X8367461Y-18507301D01*
X8367461Y-18507301D02*
X8376984Y-18497778D01*
X8376984Y-18497778D02*
X8396032Y-18488254D01*
X8548413Y-18669206D02*
X8557937Y-18678730D01*
X8557937Y-18678730D02*
X8548413Y-18688254D01*
X8548413Y-18688254D02*
X8538889Y-18678730D01*
X8538889Y-18678730D02*
X8548413Y-18669206D01*
X8548413Y-18669206D02*
X8548413Y-18688254D01*
X8729366Y-18554920D02*
X8729366Y-18688254D01*
X8681746Y-18478730D02*
X8634127Y-18621587D01*
X8634127Y-18621587D02*
X8757937Y-18621587D01*
X8872223Y-18488254D02*
X8891270Y-18488254D01*
X8891270Y-18488254D02*
X8910318Y-18497778D01*
X8910318Y-18497778D02*
X8919842Y-18507301D01*
X8919842Y-18507301D02*
X8929366Y-18526349D01*
X8929366Y-18526349D02*
X8938889Y-18564444D01*
X8938889Y-18564444D02*
X8938889Y-18612063D01*
X8938889Y-18612063D02*
X8929366Y-18650158D01*
X8929366Y-18650158D02*
X8919842Y-18669206D01*
X8919842Y-18669206D02*
X8910318Y-18678730D01*
X8910318Y-18678730D02*
X8891270Y-18688254D01*
X8891270Y-18688254D02*
X8872223Y-18688254D01*
X8872223Y-18688254D02*
X8853175Y-18678730D01*
X8853175Y-18678730D02*
X8843651Y-18669206D01*
X8843651Y-18669206D02*
X8834127Y-18650158D01*
X8834127Y-18650158D02*
X8824604Y-18612063D01*
X8824604Y-18612063D02*
X8824604Y-18564444D01*
X8824604Y-18564444D02*
X8834127Y-18526349D01*
X8834127Y-18526349D02*
X8843651Y-18507301D01*
X8843651Y-18507301D02*
X8853175Y-18497778D01*
X8853175Y-18497778D02*
X8872223Y-18488254D01*
X9062699Y-18488254D02*
X9081747Y-18488254D01*
X9081747Y-18488254D02*
X9100794Y-18497778D01*
X9100794Y-18497778D02*
X9110318Y-18507301D01*
X9110318Y-18507301D02*
X9119842Y-18526349D01*
X9119842Y-18526349D02*
X9129366Y-18564444D01*
X9129366Y-18564444D02*
X9129366Y-18612063D01*
X9129366Y-18612063D02*
X9119842Y-18650158D01*
X9119842Y-18650158D02*
X9110318Y-18669206D01*
X9110318Y-18669206D02*
X9100794Y-18678730D01*
X9100794Y-18678730D02*
X9081747Y-18688254D01*
X9081747Y-18688254D02*
X9062699Y-18688254D01*
X9062699Y-18688254D02*
X9043651Y-18678730D01*
X9043651Y-18678730D02*
X9034127Y-18669206D01*
X9034127Y-18669206D02*
X9024604Y-18650158D01*
X9024604Y-18650158D02*
X9015080Y-18612063D01*
X9015080Y-18612063D02*
X9015080Y-18564444D01*
X9015080Y-18564444D02*
X9024604Y-18526349D01*
X9024604Y-18526349D02*
X9034127Y-18507301D01*
X9034127Y-18507301D02*
X9043651Y-18497778D01*
X9043651Y-18497778D02*
X9062699Y-18488254D01*
X9215080Y-18688254D02*
X9215080Y-18554920D01*
X9215080Y-18573968D02*
X9224604Y-18564444D01*
X9224604Y-18564444D02*
X9243651Y-18554920D01*
X9243651Y-18554920D02*
X9272223Y-18554920D01*
X9272223Y-18554920D02*
X9291270Y-18564444D01*
X9291270Y-18564444D02*
X9300794Y-18583492D01*
X9300794Y-18583492D02*
X9300794Y-18688254D01*
X9300794Y-18583492D02*
X9310318Y-18564444D01*
X9310318Y-18564444D02*
X9329366Y-18554920D01*
X9329366Y-18554920D02*
X9357937Y-18554920D01*
X9357937Y-18554920D02*
X9376985Y-18564444D01*
X9376985Y-18564444D02*
X9386508Y-18583492D01*
X9386508Y-18583492D02*
X9386508Y-18688254D01*
X9481747Y-18688254D02*
X9481747Y-18554920D01*
X9481747Y-18573968D02*
X9491270Y-18564444D01*
X9491270Y-18564444D02*
X9510318Y-18554920D01*
X9510318Y-18554920D02*
X9538889Y-18554920D01*
X9538889Y-18554920D02*
X9557937Y-18564444D01*
X9557937Y-18564444D02*
X9567461Y-18583492D01*
X9567461Y-18583492D02*
X9567461Y-18688254D01*
X9567461Y-18583492D02*
X9576985Y-18564444D01*
X9576985Y-18564444D02*
X9596032Y-18554920D01*
X9596032Y-18554920D02*
X9624604Y-18554920D01*
X9624604Y-18554920D02*
X9643651Y-18564444D01*
X9643651Y-18564444D02*
X9653175Y-18583492D01*
X9653175Y-18583492D02*
X9653175Y-18688254D01*
X10043651Y-18478730D02*
X9872223Y-18735873D01*
X10300794Y-18488254D02*
X10319842Y-18488254D01*
X10319842Y-18488254D02*
X10338890Y-18497778D01*
X10338890Y-18497778D02*
X10348413Y-18507301D01*
X10348413Y-18507301D02*
X10357937Y-18526349D01*
X10357937Y-18526349D02*
X10367461Y-18564444D01*
X10367461Y-18564444D02*
X10367461Y-18612063D01*
X10367461Y-18612063D02*
X10357937Y-18650158D01*
X10357937Y-18650158D02*
X10348413Y-18669206D01*
X10348413Y-18669206D02*
X10338890Y-18678730D01*
X10338890Y-18678730D02*
X10319842Y-18688254D01*
X10319842Y-18688254D02*
X10300794Y-18688254D01*
X10300794Y-18688254D02*
X10281747Y-18678730D01*
X10281747Y-18678730D02*
X10272223Y-18669206D01*
X10272223Y-18669206D02*
X10262699Y-18650158D01*
X10262699Y-18650158D02*
X10253175Y-18612063D01*
X10253175Y-18612063D02*
X10253175Y-18564444D01*
X10253175Y-18564444D02*
X10262699Y-18526349D01*
X10262699Y-18526349D02*
X10272223Y-18507301D01*
X10272223Y-18507301D02*
X10281747Y-18497778D01*
X10281747Y-18497778D02*
X10300794Y-18488254D01*
X10453175Y-18669206D02*
X10462699Y-18678730D01*
X10462699Y-18678730D02*
X10453175Y-18688254D01*
X10453175Y-18688254D02*
X10443651Y-18678730D01*
X10443651Y-18678730D02*
X10453175Y-18669206D01*
X10453175Y-18669206D02*
X10453175Y-18688254D01*
X10586509Y-18488254D02*
X10605556Y-18488254D01*
X10605556Y-18488254D02*
X10624604Y-18497778D01*
X10624604Y-18497778D02*
X10634128Y-18507301D01*
X10634128Y-18507301D02*
X10643651Y-18526349D01*
X10643651Y-18526349D02*
X10653175Y-18564444D01*
X10653175Y-18564444D02*
X10653175Y-18612063D01*
X10653175Y-18612063D02*
X10643651Y-18650158D01*
X10643651Y-18650158D02*
X10634128Y-18669206D01*
X10634128Y-18669206D02*
X10624604Y-18678730D01*
X10624604Y-18678730D02*
X10605556Y-18688254D01*
X10605556Y-18688254D02*
X10586509Y-18688254D01*
X10586509Y-18688254D02*
X10567461Y-18678730D01*
X10567461Y-18678730D02*
X10557937Y-18669206D01*
X10557937Y-18669206D02*
X10548413Y-18650158D01*
X10548413Y-18650158D02*
X10538890Y-18612063D01*
X10538890Y-18612063D02*
X10538890Y-18564444D01*
X10538890Y-18564444D02*
X10548413Y-18526349D01*
X10548413Y-18526349D02*
X10557937Y-18507301D01*
X10557937Y-18507301D02*
X10567461Y-18497778D01*
X10567461Y-18497778D02*
X10586509Y-18488254D01*
X10843651Y-18688254D02*
X10729366Y-18688254D01*
X10786509Y-18688254D02*
X10786509Y-18488254D01*
X10786509Y-18488254D02*
X10767461Y-18516825D01*
X10767461Y-18516825D02*
X10748413Y-18535873D01*
X10748413Y-18535873D02*
X10729366Y-18545397D01*
X11024604Y-18488254D02*
X10929366Y-18488254D01*
X10929366Y-18488254D02*
X10919842Y-18583492D01*
X10919842Y-18583492D02*
X10929366Y-18573968D01*
X10929366Y-18573968D02*
X10948413Y-18564444D01*
X10948413Y-18564444D02*
X10996032Y-18564444D01*
X10996032Y-18564444D02*
X11015080Y-18573968D01*
X11015080Y-18573968D02*
X11024604Y-18583492D01*
X11024604Y-18583492D02*
X11034128Y-18602539D01*
X11034128Y-18602539D02*
X11034128Y-18650158D01*
X11034128Y-18650158D02*
X11024604Y-18669206D01*
X11024604Y-18669206D02*
X11015080Y-18678730D01*
X11015080Y-18678730D02*
X10996032Y-18688254D01*
X10996032Y-18688254D02*
X10948413Y-18688254D01*
X10948413Y-18688254D02*
X10929366Y-18678730D01*
X10929366Y-18678730D02*
X10919842Y-18669206D01*
X11100794Y-18488254D02*
X11234128Y-18488254D01*
X11234128Y-18488254D02*
X11148413Y-18688254D01*
X11300794Y-18488254D02*
X11300794Y-18526349D01*
X11376985Y-18488254D02*
X11376985Y-18526349D01*
X11672223Y-18764444D02*
X11662699Y-18754920D01*
X11662699Y-18754920D02*
X11643651Y-18726349D01*
X11643651Y-18726349D02*
X11634128Y-18707301D01*
X11634128Y-18707301D02*
X11624604Y-18678730D01*
X11624604Y-18678730D02*
X11615080Y-18631111D01*
X11615080Y-18631111D02*
X11615080Y-18593016D01*
X11615080Y-18593016D02*
X11624604Y-18545397D01*
X11624604Y-18545397D02*
X11634128Y-18516825D01*
X11634128Y-18516825D02*
X11643651Y-18497778D01*
X11643651Y-18497778D02*
X11662699Y-18469206D01*
X11662699Y-18469206D02*
X11672223Y-18459682D01*
X11729366Y-18488254D02*
X11862699Y-18488254D01*
X11862699Y-18488254D02*
X11776985Y-18688254D01*
X12024604Y-18488254D02*
X11986509Y-18488254D01*
X11986509Y-18488254D02*
X11967461Y-18497778D01*
X11967461Y-18497778D02*
X11957937Y-18507301D01*
X11957937Y-18507301D02*
X11938890Y-18535873D01*
X11938890Y-18535873D02*
X11929366Y-18573968D01*
X11929366Y-18573968D02*
X11929366Y-18650158D01*
X11929366Y-18650158D02*
X11938890Y-18669206D01*
X11938890Y-18669206D02*
X11948413Y-18678730D01*
X11948413Y-18678730D02*
X11967461Y-18688254D01*
X11967461Y-18688254D02*
X12005556Y-18688254D01*
X12005556Y-18688254D02*
X12024604Y-18678730D01*
X12024604Y-18678730D02*
X12034128Y-18669206D01*
X12034128Y-18669206D02*
X12043651Y-18650158D01*
X12043651Y-18650158D02*
X12043651Y-18602539D01*
X12043651Y-18602539D02*
X12034128Y-18583492D01*
X12034128Y-18583492D02*
X12024604Y-18573968D01*
X12024604Y-18573968D02*
X12005556Y-18564444D01*
X12005556Y-18564444D02*
X11967461Y-18564444D01*
X11967461Y-18564444D02*
X11948413Y-18573968D01*
X11948413Y-18573968D02*
X11938890Y-18583492D01*
X11938890Y-18583492D02*
X11929366Y-18602539D01*
X12281747Y-18688254D02*
X12281747Y-18488254D01*
X12367461Y-18688254D02*
X12367461Y-18583492D01*
X12367461Y-18583492D02*
X12357937Y-18564444D01*
X12357937Y-18564444D02*
X12338890Y-18554920D01*
X12338890Y-18554920D02*
X12310318Y-18554920D01*
X12310318Y-18554920D02*
X12291271Y-18564444D01*
X12291271Y-18564444D02*
X12281747Y-18573968D01*
X12491271Y-18688254D02*
X12472223Y-18678730D01*
X12472223Y-18678730D02*
X12462699Y-18669206D01*
X12462699Y-18669206D02*
X12453175Y-18650158D01*
X12453175Y-18650158D02*
X12453175Y-18593016D01*
X12453175Y-18593016D02*
X12462699Y-18573968D01*
X12462699Y-18573968D02*
X12472223Y-18564444D01*
X12472223Y-18564444D02*
X12491271Y-18554920D01*
X12491271Y-18554920D02*
X12519842Y-18554920D01*
X12519842Y-18554920D02*
X12538890Y-18564444D01*
X12538890Y-18564444D02*
X12548413Y-18573968D01*
X12548413Y-18573968D02*
X12557937Y-18593016D01*
X12557937Y-18593016D02*
X12557937Y-18650158D01*
X12557937Y-18650158D02*
X12548413Y-18669206D01*
X12548413Y-18669206D02*
X12538890Y-18678730D01*
X12538890Y-18678730D02*
X12519842Y-18688254D01*
X12519842Y-18688254D02*
X12491271Y-18688254D01*
X12672223Y-18688254D02*
X12653175Y-18678730D01*
X12653175Y-18678730D02*
X12643652Y-18659682D01*
X12643652Y-18659682D02*
X12643652Y-18488254D01*
X12824604Y-18678730D02*
X12805556Y-18688254D01*
X12805556Y-18688254D02*
X12767461Y-18688254D01*
X12767461Y-18688254D02*
X12748413Y-18678730D01*
X12748413Y-18678730D02*
X12738890Y-18659682D01*
X12738890Y-18659682D02*
X12738890Y-18583492D01*
X12738890Y-18583492D02*
X12748413Y-18564444D01*
X12748413Y-18564444D02*
X12767461Y-18554920D01*
X12767461Y-18554920D02*
X12805556Y-18554920D01*
X12805556Y-18554920D02*
X12824604Y-18564444D01*
X12824604Y-18564444D02*
X12834128Y-18583492D01*
X12834128Y-18583492D02*
X12834128Y-18602539D01*
X12834128Y-18602539D02*
X12738890Y-18621587D01*
X12910318Y-18678730D02*
X12929366Y-18688254D01*
X12929366Y-18688254D02*
X12967461Y-18688254D01*
X12967461Y-18688254D02*
X12986509Y-18678730D01*
X12986509Y-18678730D02*
X12996033Y-18659682D01*
X12996033Y-18659682D02*
X12996033Y-18650158D01*
X12996033Y-18650158D02*
X12986509Y-18631111D01*
X12986509Y-18631111D02*
X12967461Y-18621587D01*
X12967461Y-18621587D02*
X12938890Y-18621587D01*
X12938890Y-18621587D02*
X12919842Y-18612063D01*
X12919842Y-18612063D02*
X12910318Y-18593016D01*
X12910318Y-18593016D02*
X12910318Y-18583492D01*
X12910318Y-18583492D02*
X12919842Y-18564444D01*
X12919842Y-18564444D02*
X12938890Y-18554920D01*
X12938890Y-18554920D02*
X12967461Y-18554920D01*
X12967461Y-18554920D02*
X12986509Y-18564444D01*
X13062699Y-18764444D02*
X13072223Y-18754920D01*
X13072223Y-18754920D02*
X13091271Y-18726349D01*
X13091271Y-18726349D02*
X13100794Y-18707301D01*
X13100794Y-18707301D02*
X13110318Y-18678730D01*
X13110318Y-18678730D02*
X13119842Y-18631111D01*
X13119842Y-18631111D02*
X13119842Y-18593016D01*
X13119842Y-18593016D02*
X13110318Y-18545397D01*
X13110318Y-18545397D02*
X13100794Y-18516825D01*
X13100794Y-18516825D02*
X13091271Y-18497778D01*
X13091271Y-18497778D02*
X13072223Y-18469206D01*
X13072223Y-18469206D02*
X13062699Y-18459682D01*
D13*
X8091302Y-18874912D02*
X8091302Y-18846628D01*
X8063018Y-18846628D01*
X8063018Y-18874912D01*
X8091302Y-18874912D01*
D12*
X8396032Y-18752254D02*
X8415080Y-18752254D01*
X8415080Y-18752254D02*
X8434127Y-18761778D01*
X8434127Y-18761778D02*
X8443651Y-18771301D01*
X8443651Y-18771301D02*
X8453175Y-18790349D01*
X8453175Y-18790349D02*
X8462699Y-18828444D01*
X8462699Y-18828444D02*
X8462699Y-18876063D01*
X8462699Y-18876063D02*
X8453175Y-18914158D01*
X8453175Y-18914158D02*
X8443651Y-18933206D01*
X8443651Y-18933206D02*
X8434127Y-18942730D01*
X8434127Y-18942730D02*
X8415080Y-18952254D01*
X8415080Y-18952254D02*
X8396032Y-18952254D01*
X8396032Y-18952254D02*
X8376984Y-18942730D01*
X8376984Y-18942730D02*
X8367461Y-18933206D01*
X8367461Y-18933206D02*
X8357937Y-18914158D01*
X8357937Y-18914158D02*
X8348413Y-18876063D01*
X8348413Y-18876063D02*
X8348413Y-18828444D01*
X8348413Y-18828444D02*
X8357937Y-18790349D01*
X8357937Y-18790349D02*
X8367461Y-18771301D01*
X8367461Y-18771301D02*
X8376984Y-18761778D01*
X8376984Y-18761778D02*
X8396032Y-18752254D01*
X8548413Y-18933206D02*
X8557937Y-18942730D01*
X8557937Y-18942730D02*
X8548413Y-18952254D01*
X8548413Y-18952254D02*
X8538889Y-18942730D01*
X8538889Y-18942730D02*
X8548413Y-18933206D01*
X8548413Y-18933206D02*
X8548413Y-18952254D01*
X8729366Y-18818920D02*
X8729366Y-18952254D01*
X8681746Y-18742730D02*
X8634127Y-18885587D01*
X8634127Y-18885587D02*
X8757937Y-18885587D01*
X8872223Y-18752254D02*
X8891270Y-18752254D01*
X8891270Y-18752254D02*
X8910318Y-18761778D01*
X8910318Y-18761778D02*
X8919842Y-18771301D01*
X8919842Y-18771301D02*
X8929366Y-18790349D01*
X8929366Y-18790349D02*
X8938889Y-18828444D01*
X8938889Y-18828444D02*
X8938889Y-18876063D01*
X8938889Y-18876063D02*
X8929366Y-18914158D01*
X8929366Y-18914158D02*
X8919842Y-18933206D01*
X8919842Y-18933206D02*
X8910318Y-18942730D01*
X8910318Y-18942730D02*
X8891270Y-18952254D01*
X8891270Y-18952254D02*
X8872223Y-18952254D01*
X8872223Y-18952254D02*
X8853175Y-18942730D01*
X8853175Y-18942730D02*
X8843651Y-18933206D01*
X8843651Y-18933206D02*
X8834127Y-18914158D01*
X8834127Y-18914158D02*
X8824604Y-18876063D01*
X8824604Y-18876063D02*
X8824604Y-18828444D01*
X8824604Y-18828444D02*
X8834127Y-18790349D01*
X8834127Y-18790349D02*
X8843651Y-18771301D01*
X8843651Y-18771301D02*
X8853175Y-18761778D01*
X8853175Y-18761778D02*
X8872223Y-18752254D01*
X9062699Y-18752254D02*
X9081747Y-18752254D01*
X9081747Y-18752254D02*
X9100794Y-18761778D01*
X9100794Y-18761778D02*
X9110318Y-18771301D01*
X9110318Y-18771301D02*
X9119842Y-18790349D01*
X9119842Y-18790349D02*
X9129366Y-18828444D01*
X9129366Y-18828444D02*
X9129366Y-18876063D01*
X9129366Y-18876063D02*
X9119842Y-18914158D01*
X9119842Y-18914158D02*
X9110318Y-18933206D01*
X9110318Y-18933206D02*
X9100794Y-18942730D01*
X9100794Y-18942730D02*
X9081747Y-18952254D01*
X9081747Y-18952254D02*
X9062699Y-18952254D01*
X9062699Y-18952254D02*
X9043651Y-18942730D01*
X9043651Y-18942730D02*
X9034127Y-18933206D01*
X9034127Y-18933206D02*
X9024604Y-18914158D01*
X9024604Y-18914158D02*
X9015080Y-18876063D01*
X9015080Y-18876063D02*
X9015080Y-18828444D01*
X9015080Y-18828444D02*
X9024604Y-18790349D01*
X9024604Y-18790349D02*
X9034127Y-18771301D01*
X9034127Y-18771301D02*
X9043651Y-18761778D01*
X9043651Y-18761778D02*
X9062699Y-18752254D01*
X9215080Y-18952254D02*
X9215080Y-18818920D01*
X9215080Y-18837968D02*
X9224604Y-18828444D01*
X9224604Y-18828444D02*
X9243651Y-18818920D01*
X9243651Y-18818920D02*
X9272223Y-18818920D01*
X9272223Y-18818920D02*
X9291270Y-18828444D01*
X9291270Y-18828444D02*
X9300794Y-18847492D01*
X9300794Y-18847492D02*
X9300794Y-18952254D01*
X9300794Y-18847492D02*
X9310318Y-18828444D01*
X9310318Y-18828444D02*
X9329366Y-18818920D01*
X9329366Y-18818920D02*
X9357937Y-18818920D01*
X9357937Y-18818920D02*
X9376985Y-18828444D01*
X9376985Y-18828444D02*
X9386508Y-18847492D01*
X9386508Y-18847492D02*
X9386508Y-18952254D01*
X9481747Y-18952254D02*
X9481747Y-18818920D01*
X9481747Y-18837968D02*
X9491270Y-18828444D01*
X9491270Y-18828444D02*
X9510318Y-18818920D01*
X9510318Y-18818920D02*
X9538889Y-18818920D01*
X9538889Y-18818920D02*
X9557937Y-18828444D01*
X9557937Y-18828444D02*
X9567461Y-18847492D01*
X9567461Y-18847492D02*
X9567461Y-18952254D01*
X9567461Y-18847492D02*
X9576985Y-18828444D01*
X9576985Y-18828444D02*
X9596032Y-18818920D01*
X9596032Y-18818920D02*
X9624604Y-18818920D01*
X9624604Y-18818920D02*
X9643651Y-18828444D01*
X9643651Y-18828444D02*
X9653175Y-18847492D01*
X9653175Y-18847492D02*
X9653175Y-18952254D01*
X10043651Y-18742730D02*
X9872223Y-18999873D01*
X10300794Y-18752254D02*
X10319842Y-18752254D01*
X10319842Y-18752254D02*
X10338890Y-18761778D01*
X10338890Y-18761778D02*
X10348413Y-18771301D01*
X10348413Y-18771301D02*
X10357937Y-18790349D01*
X10357937Y-18790349D02*
X10367461Y-18828444D01*
X10367461Y-18828444D02*
X10367461Y-18876063D01*
X10367461Y-18876063D02*
X10357937Y-18914158D01*
X10357937Y-18914158D02*
X10348413Y-18933206D01*
X10348413Y-18933206D02*
X10338890Y-18942730D01*
X10338890Y-18942730D02*
X10319842Y-18952254D01*
X10319842Y-18952254D02*
X10300794Y-18952254D01*
X10300794Y-18952254D02*
X10281747Y-18942730D01*
X10281747Y-18942730D02*
X10272223Y-18933206D01*
X10272223Y-18933206D02*
X10262699Y-18914158D01*
X10262699Y-18914158D02*
X10253175Y-18876063D01*
X10253175Y-18876063D02*
X10253175Y-18828444D01*
X10253175Y-18828444D02*
X10262699Y-18790349D01*
X10262699Y-18790349D02*
X10272223Y-18771301D01*
X10272223Y-18771301D02*
X10281747Y-18761778D01*
X10281747Y-18761778D02*
X10300794Y-18752254D01*
X10453175Y-18933206D02*
X10462699Y-18942730D01*
X10462699Y-18942730D02*
X10453175Y-18952254D01*
X10453175Y-18952254D02*
X10443651Y-18942730D01*
X10443651Y-18942730D02*
X10453175Y-18933206D01*
X10453175Y-18933206D02*
X10453175Y-18952254D01*
X10586509Y-18752254D02*
X10605556Y-18752254D01*
X10605556Y-18752254D02*
X10624604Y-18761778D01*
X10624604Y-18761778D02*
X10634128Y-18771301D01*
X10634128Y-18771301D02*
X10643651Y-18790349D01*
X10643651Y-18790349D02*
X10653175Y-18828444D01*
X10653175Y-18828444D02*
X10653175Y-18876063D01*
X10653175Y-18876063D02*
X10643651Y-18914158D01*
X10643651Y-18914158D02*
X10634128Y-18933206D01*
X10634128Y-18933206D02*
X10624604Y-18942730D01*
X10624604Y-18942730D02*
X10605556Y-18952254D01*
X10605556Y-18952254D02*
X10586509Y-18952254D01*
X10586509Y-18952254D02*
X10567461Y-18942730D01*
X10567461Y-18942730D02*
X10557937Y-18933206D01*
X10557937Y-18933206D02*
X10548413Y-18914158D01*
X10548413Y-18914158D02*
X10538890Y-18876063D01*
X10538890Y-18876063D02*
X10538890Y-18828444D01*
X10538890Y-18828444D02*
X10548413Y-18790349D01*
X10548413Y-18790349D02*
X10557937Y-18771301D01*
X10557937Y-18771301D02*
X10567461Y-18761778D01*
X10567461Y-18761778D02*
X10586509Y-18752254D01*
X10843651Y-18952254D02*
X10729366Y-18952254D01*
X10786509Y-18952254D02*
X10786509Y-18752254D01*
X10786509Y-18752254D02*
X10767461Y-18780825D01*
X10767461Y-18780825D02*
X10748413Y-18799873D01*
X10748413Y-18799873D02*
X10729366Y-18809397D01*
X11024604Y-18752254D02*
X10929366Y-18752254D01*
X10929366Y-18752254D02*
X10919842Y-18847492D01*
X10919842Y-18847492D02*
X10929366Y-18837968D01*
X10929366Y-18837968D02*
X10948413Y-18828444D01*
X10948413Y-18828444D02*
X10996032Y-18828444D01*
X10996032Y-18828444D02*
X11015080Y-18837968D01*
X11015080Y-18837968D02*
X11024604Y-18847492D01*
X11024604Y-18847492D02*
X11034128Y-18866539D01*
X11034128Y-18866539D02*
X11034128Y-18914158D01*
X11034128Y-18914158D02*
X11024604Y-18933206D01*
X11024604Y-18933206D02*
X11015080Y-18942730D01*
X11015080Y-18942730D02*
X10996032Y-18952254D01*
X10996032Y-18952254D02*
X10948413Y-18952254D01*
X10948413Y-18952254D02*
X10929366Y-18942730D01*
X10929366Y-18942730D02*
X10919842Y-18933206D01*
X11100794Y-18752254D02*
X11234128Y-18752254D01*
X11234128Y-18752254D02*
X11148413Y-18952254D01*
X11300794Y-18752254D02*
X11300794Y-18790349D01*
X11376985Y-18752254D02*
X11376985Y-18790349D01*
X11672223Y-19028444D02*
X11662699Y-19018920D01*
X11662699Y-19018920D02*
X11643651Y-18990349D01*
X11643651Y-18990349D02*
X11634128Y-18971301D01*
X11634128Y-18971301D02*
X11624604Y-18942730D01*
X11624604Y-18942730D02*
X11615080Y-18895111D01*
X11615080Y-18895111D02*
X11615080Y-18857016D01*
X11615080Y-18857016D02*
X11624604Y-18809397D01*
X11624604Y-18809397D02*
X11634128Y-18780825D01*
X11634128Y-18780825D02*
X11643651Y-18761778D01*
X11643651Y-18761778D02*
X11662699Y-18733206D01*
X11662699Y-18733206D02*
X11672223Y-18723682D01*
X11738890Y-18771301D02*
X11748413Y-18761778D01*
X11748413Y-18761778D02*
X11767461Y-18752254D01*
X11767461Y-18752254D02*
X11815080Y-18752254D01*
X11815080Y-18752254D02*
X11834128Y-18761778D01*
X11834128Y-18761778D02*
X11843651Y-18771301D01*
X11843651Y-18771301D02*
X11853175Y-18790349D01*
X11853175Y-18790349D02*
X11853175Y-18809397D01*
X11853175Y-18809397D02*
X11843651Y-18837968D01*
X11843651Y-18837968D02*
X11729366Y-18952254D01*
X11729366Y-18952254D02*
X11853175Y-18952254D01*
X12024604Y-18752254D02*
X11986509Y-18752254D01*
X11986509Y-18752254D02*
X11967461Y-18761778D01*
X11967461Y-18761778D02*
X11957937Y-18771301D01*
X11957937Y-18771301D02*
X11938890Y-18799873D01*
X11938890Y-18799873D02*
X11929366Y-18837968D01*
X11929366Y-18837968D02*
X11929366Y-18914158D01*
X11929366Y-18914158D02*
X11938890Y-18933206D01*
X11938890Y-18933206D02*
X11948413Y-18942730D01*
X11948413Y-18942730D02*
X11967461Y-18952254D01*
X11967461Y-18952254D02*
X12005556Y-18952254D01*
X12005556Y-18952254D02*
X12024604Y-18942730D01*
X12024604Y-18942730D02*
X12034128Y-18933206D01*
X12034128Y-18933206D02*
X12043651Y-18914158D01*
X12043651Y-18914158D02*
X12043651Y-18866539D01*
X12043651Y-18866539D02*
X12034128Y-18847492D01*
X12034128Y-18847492D02*
X12024604Y-18837968D01*
X12024604Y-18837968D02*
X12005556Y-18828444D01*
X12005556Y-18828444D02*
X11967461Y-18828444D01*
X11967461Y-18828444D02*
X11948413Y-18837968D01*
X11948413Y-18837968D02*
X11938890Y-18847492D01*
X11938890Y-18847492D02*
X11929366Y-18866539D01*
X12281747Y-18952254D02*
X12281747Y-18752254D01*
X12367461Y-18952254D02*
X12367461Y-18847492D01*
X12367461Y-18847492D02*
X12357937Y-18828444D01*
X12357937Y-18828444D02*
X12338890Y-18818920D01*
X12338890Y-18818920D02*
X12310318Y-18818920D01*
X12310318Y-18818920D02*
X12291271Y-18828444D01*
X12291271Y-18828444D02*
X12281747Y-18837968D01*
X12491271Y-18952254D02*
X12472223Y-18942730D01*
X12472223Y-18942730D02*
X12462699Y-18933206D01*
X12462699Y-18933206D02*
X12453175Y-18914158D01*
X12453175Y-18914158D02*
X12453175Y-18857016D01*
X12453175Y-18857016D02*
X12462699Y-18837968D01*
X12462699Y-18837968D02*
X12472223Y-18828444D01*
X12472223Y-18828444D02*
X12491271Y-18818920D01*
X12491271Y-18818920D02*
X12519842Y-18818920D01*
X12519842Y-18818920D02*
X12538890Y-18828444D01*
X12538890Y-18828444D02*
X12548413Y-18837968D01*
X12548413Y-18837968D02*
X12557937Y-18857016D01*
X12557937Y-18857016D02*
X12557937Y-18914158D01*
X12557937Y-18914158D02*
X12548413Y-18933206D01*
X12548413Y-18933206D02*
X12538890Y-18942730D01*
X12538890Y-18942730D02*
X12519842Y-18952254D01*
X12519842Y-18952254D02*
X12491271Y-18952254D01*
X12672223Y-18952254D02*
X12653175Y-18942730D01*
X12653175Y-18942730D02*
X12643652Y-18923682D01*
X12643652Y-18923682D02*
X12643652Y-18752254D01*
X12824604Y-18942730D02*
X12805556Y-18952254D01*
X12805556Y-18952254D02*
X12767461Y-18952254D01*
X12767461Y-18952254D02*
X12748413Y-18942730D01*
X12748413Y-18942730D02*
X12738890Y-18923682D01*
X12738890Y-18923682D02*
X12738890Y-18847492D01*
X12738890Y-18847492D02*
X12748413Y-18828444D01*
X12748413Y-18828444D02*
X12767461Y-18818920D01*
X12767461Y-18818920D02*
X12805556Y-18818920D01*
X12805556Y-18818920D02*
X12824604Y-18828444D01*
X12824604Y-18828444D02*
X12834128Y-18847492D01*
X12834128Y-18847492D02*
X12834128Y-18866539D01*
X12834128Y-18866539D02*
X12738890Y-18885587D01*
X12910318Y-18942730D02*
X12929366Y-18952254D01*
X12929366Y-18952254D02*
X12967461Y-18952254D01*
X12967461Y-18952254D02*
X12986509Y-18942730D01*
X12986509Y-18942730D02*
X12996033Y-18923682D01*
X12996033Y-18923682D02*
X12996033Y-18914158D01*
X12996033Y-18914158D02*
X12986509Y-18895111D01*
X12986509Y-18895111D02*
X12967461Y-18885587D01*
X12967461Y-18885587D02*
X12938890Y-18885587D01*
X12938890Y-18885587D02*
X12919842Y-18876063D01*
X12919842Y-18876063D02*
X12910318Y-18857016D01*
X12910318Y-18857016D02*
X12910318Y-18847492D01*
X12910318Y-18847492D02*
X12919842Y-18828444D01*
X12919842Y-18828444D02*
X12938890Y-18818920D01*
X12938890Y-18818920D02*
X12967461Y-18818920D01*
X12967461Y-18818920D02*
X12986509Y-18828444D01*
X13062699Y-19028444D02*
X13072223Y-19018920D01*
X13072223Y-19018920D02*
X13091271Y-18990349D01*
X13091271Y-18990349D02*
X13100794Y-18971301D01*
X13100794Y-18971301D02*
X13110318Y-18942730D01*
X13110318Y-18942730D02*
X13119842Y-18895111D01*
X13119842Y-18895111D02*
X13119842Y-18857016D01*
X13119842Y-18857016D02*
X13110318Y-18809397D01*
X13110318Y-18809397D02*
X13100794Y-18780825D01*
X13100794Y-18780825D02*
X13091271Y-18761778D01*
X13091271Y-18761778D02*
X13072223Y-18733206D01*
X13072223Y-18733206D02*
X13062699Y-18723682D01*
D13*
X8059660Y-19162270D02*
X8097160Y-19124770D01*
X8059660Y-19087270D01*
X8022160Y-19124770D01*
X8059660Y-19162270D01*
D12*
X8396032Y-19016254D02*
X8415080Y-19016254D01*
X8415080Y-19016254D02*
X8434127Y-19025778D01*
X8434127Y-19025778D02*
X8443651Y-19035301D01*
X8443651Y-19035301D02*
X8453175Y-19054349D01*
X8453175Y-19054349D02*
X8462699Y-19092444D01*
X8462699Y-19092444D02*
X8462699Y-19140063D01*
X8462699Y-19140063D02*
X8453175Y-19178158D01*
X8453175Y-19178158D02*
X8443651Y-19197206D01*
X8443651Y-19197206D02*
X8434127Y-19206730D01*
X8434127Y-19206730D02*
X8415080Y-19216254D01*
X8415080Y-19216254D02*
X8396032Y-19216254D01*
X8396032Y-19216254D02*
X8376984Y-19206730D01*
X8376984Y-19206730D02*
X8367461Y-19197206D01*
X8367461Y-19197206D02*
X8357937Y-19178158D01*
X8357937Y-19178158D02*
X8348413Y-19140063D01*
X8348413Y-19140063D02*
X8348413Y-19092444D01*
X8348413Y-19092444D02*
X8357937Y-19054349D01*
X8357937Y-19054349D02*
X8367461Y-19035301D01*
X8367461Y-19035301D02*
X8376984Y-19025778D01*
X8376984Y-19025778D02*
X8396032Y-19016254D01*
X8548413Y-19197206D02*
X8557937Y-19206730D01*
X8557937Y-19206730D02*
X8548413Y-19216254D01*
X8548413Y-19216254D02*
X8538889Y-19206730D01*
X8538889Y-19206730D02*
X8548413Y-19197206D01*
X8548413Y-19197206D02*
X8548413Y-19216254D01*
X8624604Y-19016254D02*
X8757937Y-19016254D01*
X8757937Y-19016254D02*
X8672223Y-19216254D01*
X8929366Y-19016254D02*
X8834127Y-19016254D01*
X8834127Y-19016254D02*
X8824604Y-19111492D01*
X8824604Y-19111492D02*
X8834127Y-19101968D01*
X8834127Y-19101968D02*
X8853175Y-19092444D01*
X8853175Y-19092444D02*
X8900794Y-19092444D01*
X8900794Y-19092444D02*
X8919842Y-19101968D01*
X8919842Y-19101968D02*
X8929366Y-19111492D01*
X8929366Y-19111492D02*
X8938889Y-19130539D01*
X8938889Y-19130539D02*
X8938889Y-19178158D01*
X8938889Y-19178158D02*
X8929366Y-19197206D01*
X8929366Y-19197206D02*
X8919842Y-19206730D01*
X8919842Y-19206730D02*
X8900794Y-19216254D01*
X8900794Y-19216254D02*
X8853175Y-19216254D01*
X8853175Y-19216254D02*
X8834127Y-19206730D01*
X8834127Y-19206730D02*
X8824604Y-19197206D01*
X9062699Y-19016254D02*
X9081747Y-19016254D01*
X9081747Y-19016254D02*
X9100794Y-19025778D01*
X9100794Y-19025778D02*
X9110318Y-19035301D01*
X9110318Y-19035301D02*
X9119842Y-19054349D01*
X9119842Y-19054349D02*
X9129366Y-19092444D01*
X9129366Y-19092444D02*
X9129366Y-19140063D01*
X9129366Y-19140063D02*
X9119842Y-19178158D01*
X9119842Y-19178158D02*
X9110318Y-19197206D01*
X9110318Y-19197206D02*
X9100794Y-19206730D01*
X9100794Y-19206730D02*
X9081747Y-19216254D01*
X9081747Y-19216254D02*
X9062699Y-19216254D01*
X9062699Y-19216254D02*
X9043651Y-19206730D01*
X9043651Y-19206730D02*
X9034127Y-19197206D01*
X9034127Y-19197206D02*
X9024604Y-19178158D01*
X9024604Y-19178158D02*
X9015080Y-19140063D01*
X9015080Y-19140063D02*
X9015080Y-19092444D01*
X9015080Y-19092444D02*
X9024604Y-19054349D01*
X9024604Y-19054349D02*
X9034127Y-19035301D01*
X9034127Y-19035301D02*
X9043651Y-19025778D01*
X9043651Y-19025778D02*
X9062699Y-19016254D01*
X9215080Y-19216254D02*
X9215080Y-19082920D01*
X9215080Y-19101968D02*
X9224604Y-19092444D01*
X9224604Y-19092444D02*
X9243651Y-19082920D01*
X9243651Y-19082920D02*
X9272223Y-19082920D01*
X9272223Y-19082920D02*
X9291270Y-19092444D01*
X9291270Y-19092444D02*
X9300794Y-19111492D01*
X9300794Y-19111492D02*
X9300794Y-19216254D01*
X9300794Y-19111492D02*
X9310318Y-19092444D01*
X9310318Y-19092444D02*
X9329366Y-19082920D01*
X9329366Y-19082920D02*
X9357937Y-19082920D01*
X9357937Y-19082920D02*
X9376985Y-19092444D01*
X9376985Y-19092444D02*
X9386508Y-19111492D01*
X9386508Y-19111492D02*
X9386508Y-19216254D01*
X9481747Y-19216254D02*
X9481747Y-19082920D01*
X9481747Y-19101968D02*
X9491270Y-19092444D01*
X9491270Y-19092444D02*
X9510318Y-19082920D01*
X9510318Y-19082920D02*
X9538889Y-19082920D01*
X9538889Y-19082920D02*
X9557937Y-19092444D01*
X9557937Y-19092444D02*
X9567461Y-19111492D01*
X9567461Y-19111492D02*
X9567461Y-19216254D01*
X9567461Y-19111492D02*
X9576985Y-19092444D01*
X9576985Y-19092444D02*
X9596032Y-19082920D01*
X9596032Y-19082920D02*
X9624604Y-19082920D01*
X9624604Y-19082920D02*
X9643651Y-19092444D01*
X9643651Y-19092444D02*
X9653175Y-19111492D01*
X9653175Y-19111492D02*
X9653175Y-19216254D01*
X10043651Y-19006730D02*
X9872223Y-19263873D01*
X10300794Y-19016254D02*
X10319842Y-19016254D01*
X10319842Y-19016254D02*
X10338890Y-19025778D01*
X10338890Y-19025778D02*
X10348413Y-19035301D01*
X10348413Y-19035301D02*
X10357937Y-19054349D01*
X10357937Y-19054349D02*
X10367461Y-19092444D01*
X10367461Y-19092444D02*
X10367461Y-19140063D01*
X10367461Y-19140063D02*
X10357937Y-19178158D01*
X10357937Y-19178158D02*
X10348413Y-19197206D01*
X10348413Y-19197206D02*
X10338890Y-19206730D01*
X10338890Y-19206730D02*
X10319842Y-19216254D01*
X10319842Y-19216254D02*
X10300794Y-19216254D01*
X10300794Y-19216254D02*
X10281747Y-19206730D01*
X10281747Y-19206730D02*
X10272223Y-19197206D01*
X10272223Y-19197206D02*
X10262699Y-19178158D01*
X10262699Y-19178158D02*
X10253175Y-19140063D01*
X10253175Y-19140063D02*
X10253175Y-19092444D01*
X10253175Y-19092444D02*
X10262699Y-19054349D01*
X10262699Y-19054349D02*
X10272223Y-19035301D01*
X10272223Y-19035301D02*
X10281747Y-19025778D01*
X10281747Y-19025778D02*
X10300794Y-19016254D01*
X10453175Y-19197206D02*
X10462699Y-19206730D01*
X10462699Y-19206730D02*
X10453175Y-19216254D01*
X10453175Y-19216254D02*
X10443651Y-19206730D01*
X10443651Y-19206730D02*
X10453175Y-19197206D01*
X10453175Y-19197206D02*
X10453175Y-19216254D01*
X10586509Y-19016254D02*
X10605556Y-19016254D01*
X10605556Y-19016254D02*
X10624604Y-19025778D01*
X10624604Y-19025778D02*
X10634128Y-19035301D01*
X10634128Y-19035301D02*
X10643651Y-19054349D01*
X10643651Y-19054349D02*
X10653175Y-19092444D01*
X10653175Y-19092444D02*
X10653175Y-19140063D01*
X10653175Y-19140063D02*
X10643651Y-19178158D01*
X10643651Y-19178158D02*
X10634128Y-19197206D01*
X10634128Y-19197206D02*
X10624604Y-19206730D01*
X10624604Y-19206730D02*
X10605556Y-19216254D01*
X10605556Y-19216254D02*
X10586509Y-19216254D01*
X10586509Y-19216254D02*
X10567461Y-19206730D01*
X10567461Y-19206730D02*
X10557937Y-19197206D01*
X10557937Y-19197206D02*
X10548413Y-19178158D01*
X10548413Y-19178158D02*
X10538890Y-19140063D01*
X10538890Y-19140063D02*
X10538890Y-19092444D01*
X10538890Y-19092444D02*
X10548413Y-19054349D01*
X10548413Y-19054349D02*
X10557937Y-19035301D01*
X10557937Y-19035301D02*
X10567461Y-19025778D01*
X10567461Y-19025778D02*
X10586509Y-19016254D01*
X10729366Y-19035301D02*
X10738890Y-19025778D01*
X10738890Y-19025778D02*
X10757937Y-19016254D01*
X10757937Y-19016254D02*
X10805556Y-19016254D01*
X10805556Y-19016254D02*
X10824604Y-19025778D01*
X10824604Y-19025778D02*
X10834128Y-19035301D01*
X10834128Y-19035301D02*
X10843651Y-19054349D01*
X10843651Y-19054349D02*
X10843651Y-19073397D01*
X10843651Y-19073397D02*
X10834128Y-19101968D01*
X10834128Y-19101968D02*
X10719842Y-19216254D01*
X10719842Y-19216254D02*
X10843651Y-19216254D01*
X10938890Y-19216254D02*
X10976985Y-19216254D01*
X10976985Y-19216254D02*
X10996032Y-19206730D01*
X10996032Y-19206730D02*
X11005556Y-19197206D01*
X11005556Y-19197206D02*
X11024604Y-19168635D01*
X11024604Y-19168635D02*
X11034128Y-19130539D01*
X11034128Y-19130539D02*
X11034128Y-19054349D01*
X11034128Y-19054349D02*
X11024604Y-19035301D01*
X11024604Y-19035301D02*
X11015080Y-19025778D01*
X11015080Y-19025778D02*
X10996032Y-19016254D01*
X10996032Y-19016254D02*
X10957937Y-19016254D01*
X10957937Y-19016254D02*
X10938890Y-19025778D01*
X10938890Y-19025778D02*
X10929366Y-19035301D01*
X10929366Y-19035301D02*
X10919842Y-19054349D01*
X10919842Y-19054349D02*
X10919842Y-19101968D01*
X10919842Y-19101968D02*
X10929366Y-19121016D01*
X10929366Y-19121016D02*
X10938890Y-19130539D01*
X10938890Y-19130539D02*
X10957937Y-19140063D01*
X10957937Y-19140063D02*
X10996032Y-19140063D01*
X10996032Y-19140063D02*
X11015080Y-19130539D01*
X11015080Y-19130539D02*
X11024604Y-19121016D01*
X11024604Y-19121016D02*
X11034128Y-19101968D01*
X11215080Y-19016254D02*
X11119842Y-19016254D01*
X11119842Y-19016254D02*
X11110318Y-19111492D01*
X11110318Y-19111492D02*
X11119842Y-19101968D01*
X11119842Y-19101968D02*
X11138890Y-19092444D01*
X11138890Y-19092444D02*
X11186509Y-19092444D01*
X11186509Y-19092444D02*
X11205556Y-19101968D01*
X11205556Y-19101968D02*
X11215080Y-19111492D01*
X11215080Y-19111492D02*
X11224604Y-19130539D01*
X11224604Y-19130539D02*
X11224604Y-19178158D01*
X11224604Y-19178158D02*
X11215080Y-19197206D01*
X11215080Y-19197206D02*
X11205556Y-19206730D01*
X11205556Y-19206730D02*
X11186509Y-19216254D01*
X11186509Y-19216254D02*
X11138890Y-19216254D01*
X11138890Y-19216254D02*
X11119842Y-19206730D01*
X11119842Y-19206730D02*
X11110318Y-19197206D01*
X11300794Y-19016254D02*
X11300794Y-19054349D01*
X11376985Y-19016254D02*
X11376985Y-19054349D01*
X11672223Y-19292444D02*
X11662699Y-19282920D01*
X11662699Y-19282920D02*
X11643651Y-19254349D01*
X11643651Y-19254349D02*
X11634128Y-19235301D01*
X11634128Y-19235301D02*
X11624604Y-19206730D01*
X11624604Y-19206730D02*
X11615080Y-19159111D01*
X11615080Y-19159111D02*
X11615080Y-19121016D01*
X11615080Y-19121016D02*
X11624604Y-19073397D01*
X11624604Y-19073397D02*
X11634128Y-19044825D01*
X11634128Y-19044825D02*
X11643651Y-19025778D01*
X11643651Y-19025778D02*
X11662699Y-18997206D01*
X11662699Y-18997206D02*
X11672223Y-18987682D01*
X11834128Y-19082920D02*
X11834128Y-19216254D01*
X11786509Y-19006730D02*
X11738890Y-19149587D01*
X11738890Y-19149587D02*
X11862699Y-19149587D01*
X12091271Y-19216254D02*
X12091271Y-19016254D01*
X12176985Y-19216254D02*
X12176985Y-19111492D01*
X12176985Y-19111492D02*
X12167461Y-19092444D01*
X12167461Y-19092444D02*
X12148413Y-19082920D01*
X12148413Y-19082920D02*
X12119842Y-19082920D01*
X12119842Y-19082920D02*
X12100794Y-19092444D01*
X12100794Y-19092444D02*
X12091271Y-19101968D01*
X12300794Y-19216254D02*
X12281747Y-19206730D01*
X12281747Y-19206730D02*
X12272223Y-19197206D01*
X12272223Y-19197206D02*
X12262699Y-19178158D01*
X12262699Y-19178158D02*
X12262699Y-19121016D01*
X12262699Y-19121016D02*
X12272223Y-19101968D01*
X12272223Y-19101968D02*
X12281747Y-19092444D01*
X12281747Y-19092444D02*
X12300794Y-19082920D01*
X12300794Y-19082920D02*
X12329366Y-19082920D01*
X12329366Y-19082920D02*
X12348413Y-19092444D01*
X12348413Y-19092444D02*
X12357937Y-19101968D01*
X12357937Y-19101968D02*
X12367461Y-19121016D01*
X12367461Y-19121016D02*
X12367461Y-19178158D01*
X12367461Y-19178158D02*
X12357937Y-19197206D01*
X12357937Y-19197206D02*
X12348413Y-19206730D01*
X12348413Y-19206730D02*
X12329366Y-19216254D01*
X12329366Y-19216254D02*
X12300794Y-19216254D01*
X12481747Y-19216254D02*
X12462699Y-19206730D01*
X12462699Y-19206730D02*
X12453175Y-19187682D01*
X12453175Y-19187682D02*
X12453175Y-19016254D01*
X12634128Y-19206730D02*
X12615080Y-19216254D01*
X12615080Y-19216254D02*
X12576985Y-19216254D01*
X12576985Y-19216254D02*
X12557937Y-19206730D01*
X12557937Y-19206730D02*
X12548413Y-19187682D01*
X12548413Y-19187682D02*
X12548413Y-19111492D01*
X12548413Y-19111492D02*
X12557937Y-19092444D01*
X12557937Y-19092444D02*
X12576985Y-19082920D01*
X12576985Y-19082920D02*
X12615080Y-19082920D01*
X12615080Y-19082920D02*
X12634128Y-19092444D01*
X12634128Y-19092444D02*
X12643652Y-19111492D01*
X12643652Y-19111492D02*
X12643652Y-19130539D01*
X12643652Y-19130539D02*
X12548413Y-19149587D01*
X12719842Y-19206730D02*
X12738890Y-19216254D01*
X12738890Y-19216254D02*
X12776985Y-19216254D01*
X12776985Y-19216254D02*
X12796033Y-19206730D01*
X12796033Y-19206730D02*
X12805556Y-19187682D01*
X12805556Y-19187682D02*
X12805556Y-19178158D01*
X12805556Y-19178158D02*
X12796033Y-19159111D01*
X12796033Y-19159111D02*
X12776985Y-19149587D01*
X12776985Y-19149587D02*
X12748413Y-19149587D01*
X12748413Y-19149587D02*
X12729366Y-19140063D01*
X12729366Y-19140063D02*
X12719842Y-19121016D01*
X12719842Y-19121016D02*
X12719842Y-19111492D01*
X12719842Y-19111492D02*
X12729366Y-19092444D01*
X12729366Y-19092444D02*
X12748413Y-19082920D01*
X12748413Y-19082920D02*
X12776985Y-19082920D01*
X12776985Y-19082920D02*
X12796033Y-19092444D01*
X12872223Y-19292444D02*
X12881747Y-19282920D01*
X12881747Y-19282920D02*
X12900794Y-19254349D01*
X12900794Y-19254349D02*
X12910318Y-19235301D01*
X12910318Y-19235301D02*
X12919842Y-19206730D01*
X12919842Y-19206730D02*
X12929366Y-19159111D01*
X12929366Y-19159111D02*
X12929366Y-19121016D01*
X12929366Y-19121016D02*
X12919842Y-19073397D01*
X12919842Y-19073397D02*
X12910318Y-19044825D01*
X12910318Y-19044825D02*
X12900794Y-19025778D01*
X12900794Y-19025778D02*
X12881747Y-18997206D01*
X12881747Y-18997206D02*
X12872223Y-18987682D01*
D13*
X8007160Y-19343770D02*
X8097160Y-19433770D01*
X8097160Y-19343770D02*
X8007160Y-19433770D01*
X8097160Y-19388770D02*
G75*
G02*
X8007160Y-19388770I-45000J0D01*
G01*
X8007160Y-19388770D02*
G75*
G02*
X8097160Y-19388770I45000J0D01*
G01*
D12*
X8396032Y-19280254D02*
X8415080Y-19280254D01*
X8415080Y-19280254D02*
X8434127Y-19289778D01*
X8434127Y-19289778D02*
X8443651Y-19299301D01*
X8443651Y-19299301D02*
X8453175Y-19318349D01*
X8453175Y-19318349D02*
X8462699Y-19356444D01*
X8462699Y-19356444D02*
X8462699Y-19404063D01*
X8462699Y-19404063D02*
X8453175Y-19442158D01*
X8453175Y-19442158D02*
X8443651Y-19461206D01*
X8443651Y-19461206D02*
X8434127Y-19470730D01*
X8434127Y-19470730D02*
X8415080Y-19480254D01*
X8415080Y-19480254D02*
X8396032Y-19480254D01*
X8396032Y-19480254D02*
X8376984Y-19470730D01*
X8376984Y-19470730D02*
X8367461Y-19461206D01*
X8367461Y-19461206D02*
X8357937Y-19442158D01*
X8357937Y-19442158D02*
X8348413Y-19404063D01*
X8348413Y-19404063D02*
X8348413Y-19356444D01*
X8348413Y-19356444D02*
X8357937Y-19318349D01*
X8357937Y-19318349D02*
X8367461Y-19299301D01*
X8367461Y-19299301D02*
X8376984Y-19289778D01*
X8376984Y-19289778D02*
X8396032Y-19280254D01*
X8548413Y-19461206D02*
X8557937Y-19470730D01*
X8557937Y-19470730D02*
X8548413Y-19480254D01*
X8548413Y-19480254D02*
X8538889Y-19470730D01*
X8538889Y-19470730D02*
X8548413Y-19461206D01*
X8548413Y-19461206D02*
X8548413Y-19480254D01*
X8653175Y-19480254D02*
X8691270Y-19480254D01*
X8691270Y-19480254D02*
X8710318Y-19470730D01*
X8710318Y-19470730D02*
X8719842Y-19461206D01*
X8719842Y-19461206D02*
X8738889Y-19432635D01*
X8738889Y-19432635D02*
X8748413Y-19394539D01*
X8748413Y-19394539D02*
X8748413Y-19318349D01*
X8748413Y-19318349D02*
X8738889Y-19299301D01*
X8738889Y-19299301D02*
X8729366Y-19289778D01*
X8729366Y-19289778D02*
X8710318Y-19280254D01*
X8710318Y-19280254D02*
X8672223Y-19280254D01*
X8672223Y-19280254D02*
X8653175Y-19289778D01*
X8653175Y-19289778D02*
X8643651Y-19299301D01*
X8643651Y-19299301D02*
X8634127Y-19318349D01*
X8634127Y-19318349D02*
X8634127Y-19365968D01*
X8634127Y-19365968D02*
X8643651Y-19385016D01*
X8643651Y-19385016D02*
X8653175Y-19394539D01*
X8653175Y-19394539D02*
X8672223Y-19404063D01*
X8672223Y-19404063D02*
X8710318Y-19404063D01*
X8710318Y-19404063D02*
X8729366Y-19394539D01*
X8729366Y-19394539D02*
X8738889Y-19385016D01*
X8738889Y-19385016D02*
X8748413Y-19365968D01*
X8872223Y-19280254D02*
X8891270Y-19280254D01*
X8891270Y-19280254D02*
X8910318Y-19289778D01*
X8910318Y-19289778D02*
X8919842Y-19299301D01*
X8919842Y-19299301D02*
X8929366Y-19318349D01*
X8929366Y-19318349D02*
X8938889Y-19356444D01*
X8938889Y-19356444D02*
X8938889Y-19404063D01*
X8938889Y-19404063D02*
X8929366Y-19442158D01*
X8929366Y-19442158D02*
X8919842Y-19461206D01*
X8919842Y-19461206D02*
X8910318Y-19470730D01*
X8910318Y-19470730D02*
X8891270Y-19480254D01*
X8891270Y-19480254D02*
X8872223Y-19480254D01*
X8872223Y-19480254D02*
X8853175Y-19470730D01*
X8853175Y-19470730D02*
X8843651Y-19461206D01*
X8843651Y-19461206D02*
X8834127Y-19442158D01*
X8834127Y-19442158D02*
X8824604Y-19404063D01*
X8824604Y-19404063D02*
X8824604Y-19356444D01*
X8824604Y-19356444D02*
X8834127Y-19318349D01*
X8834127Y-19318349D02*
X8843651Y-19299301D01*
X8843651Y-19299301D02*
X8853175Y-19289778D01*
X8853175Y-19289778D02*
X8872223Y-19280254D01*
X9062699Y-19280254D02*
X9081747Y-19280254D01*
X9081747Y-19280254D02*
X9100794Y-19289778D01*
X9100794Y-19289778D02*
X9110318Y-19299301D01*
X9110318Y-19299301D02*
X9119842Y-19318349D01*
X9119842Y-19318349D02*
X9129366Y-19356444D01*
X9129366Y-19356444D02*
X9129366Y-19404063D01*
X9129366Y-19404063D02*
X9119842Y-19442158D01*
X9119842Y-19442158D02*
X9110318Y-19461206D01*
X9110318Y-19461206D02*
X9100794Y-19470730D01*
X9100794Y-19470730D02*
X9081747Y-19480254D01*
X9081747Y-19480254D02*
X9062699Y-19480254D01*
X9062699Y-19480254D02*
X9043651Y-19470730D01*
X9043651Y-19470730D02*
X9034127Y-19461206D01*
X9034127Y-19461206D02*
X9024604Y-19442158D01*
X9024604Y-19442158D02*
X9015080Y-19404063D01*
X9015080Y-19404063D02*
X9015080Y-19356444D01*
X9015080Y-19356444D02*
X9024604Y-19318349D01*
X9024604Y-19318349D02*
X9034127Y-19299301D01*
X9034127Y-19299301D02*
X9043651Y-19289778D01*
X9043651Y-19289778D02*
X9062699Y-19280254D01*
X9215080Y-19480254D02*
X9215080Y-19346920D01*
X9215080Y-19365968D02*
X9224604Y-19356444D01*
X9224604Y-19356444D02*
X9243651Y-19346920D01*
X9243651Y-19346920D02*
X9272223Y-19346920D01*
X9272223Y-19346920D02*
X9291270Y-19356444D01*
X9291270Y-19356444D02*
X9300794Y-19375492D01*
X9300794Y-19375492D02*
X9300794Y-19480254D01*
X9300794Y-19375492D02*
X9310318Y-19356444D01*
X9310318Y-19356444D02*
X9329366Y-19346920D01*
X9329366Y-19346920D02*
X9357937Y-19346920D01*
X9357937Y-19346920D02*
X9376985Y-19356444D01*
X9376985Y-19356444D02*
X9386508Y-19375492D01*
X9386508Y-19375492D02*
X9386508Y-19480254D01*
X9481747Y-19480254D02*
X9481747Y-19346920D01*
X9481747Y-19365968D02*
X9491270Y-19356444D01*
X9491270Y-19356444D02*
X9510318Y-19346920D01*
X9510318Y-19346920D02*
X9538889Y-19346920D01*
X9538889Y-19346920D02*
X9557937Y-19356444D01*
X9557937Y-19356444D02*
X9567461Y-19375492D01*
X9567461Y-19375492D02*
X9567461Y-19480254D01*
X9567461Y-19375492D02*
X9576985Y-19356444D01*
X9576985Y-19356444D02*
X9596032Y-19346920D01*
X9596032Y-19346920D02*
X9624604Y-19346920D01*
X9624604Y-19346920D02*
X9643651Y-19356444D01*
X9643651Y-19356444D02*
X9653175Y-19375492D01*
X9653175Y-19375492D02*
X9653175Y-19480254D01*
X10043651Y-19270730D02*
X9872223Y-19527873D01*
X10300794Y-19280254D02*
X10319842Y-19280254D01*
X10319842Y-19280254D02*
X10338890Y-19289778D01*
X10338890Y-19289778D02*
X10348413Y-19299301D01*
X10348413Y-19299301D02*
X10357937Y-19318349D01*
X10357937Y-19318349D02*
X10367461Y-19356444D01*
X10367461Y-19356444D02*
X10367461Y-19404063D01*
X10367461Y-19404063D02*
X10357937Y-19442158D01*
X10357937Y-19442158D02*
X10348413Y-19461206D01*
X10348413Y-19461206D02*
X10338890Y-19470730D01*
X10338890Y-19470730D02*
X10319842Y-19480254D01*
X10319842Y-19480254D02*
X10300794Y-19480254D01*
X10300794Y-19480254D02*
X10281747Y-19470730D01*
X10281747Y-19470730D02*
X10272223Y-19461206D01*
X10272223Y-19461206D02*
X10262699Y-19442158D01*
X10262699Y-19442158D02*
X10253175Y-19404063D01*
X10253175Y-19404063D02*
X10253175Y-19356444D01*
X10253175Y-19356444D02*
X10262699Y-19318349D01*
X10262699Y-19318349D02*
X10272223Y-19299301D01*
X10272223Y-19299301D02*
X10281747Y-19289778D01*
X10281747Y-19289778D02*
X10300794Y-19280254D01*
X10453175Y-19461206D02*
X10462699Y-19470730D01*
X10462699Y-19470730D02*
X10453175Y-19480254D01*
X10453175Y-19480254D02*
X10443651Y-19470730D01*
X10443651Y-19470730D02*
X10453175Y-19461206D01*
X10453175Y-19461206D02*
X10453175Y-19480254D01*
X10586509Y-19280254D02*
X10605556Y-19280254D01*
X10605556Y-19280254D02*
X10624604Y-19289778D01*
X10624604Y-19289778D02*
X10634128Y-19299301D01*
X10634128Y-19299301D02*
X10643651Y-19318349D01*
X10643651Y-19318349D02*
X10653175Y-19356444D01*
X10653175Y-19356444D02*
X10653175Y-19404063D01*
X10653175Y-19404063D02*
X10643651Y-19442158D01*
X10643651Y-19442158D02*
X10634128Y-19461206D01*
X10634128Y-19461206D02*
X10624604Y-19470730D01*
X10624604Y-19470730D02*
X10605556Y-19480254D01*
X10605556Y-19480254D02*
X10586509Y-19480254D01*
X10586509Y-19480254D02*
X10567461Y-19470730D01*
X10567461Y-19470730D02*
X10557937Y-19461206D01*
X10557937Y-19461206D02*
X10548413Y-19442158D01*
X10548413Y-19442158D02*
X10538890Y-19404063D01*
X10538890Y-19404063D02*
X10538890Y-19356444D01*
X10538890Y-19356444D02*
X10548413Y-19318349D01*
X10548413Y-19318349D02*
X10557937Y-19299301D01*
X10557937Y-19299301D02*
X10567461Y-19289778D01*
X10567461Y-19289778D02*
X10586509Y-19280254D01*
X10719842Y-19280254D02*
X10843651Y-19280254D01*
X10843651Y-19280254D02*
X10776985Y-19356444D01*
X10776985Y-19356444D02*
X10805556Y-19356444D01*
X10805556Y-19356444D02*
X10824604Y-19365968D01*
X10824604Y-19365968D02*
X10834128Y-19375492D01*
X10834128Y-19375492D02*
X10843651Y-19394539D01*
X10843651Y-19394539D02*
X10843651Y-19442158D01*
X10843651Y-19442158D02*
X10834128Y-19461206D01*
X10834128Y-19461206D02*
X10824604Y-19470730D01*
X10824604Y-19470730D02*
X10805556Y-19480254D01*
X10805556Y-19480254D02*
X10748413Y-19480254D01*
X10748413Y-19480254D02*
X10729366Y-19470730D01*
X10729366Y-19470730D02*
X10719842Y-19461206D01*
X11024604Y-19280254D02*
X10929366Y-19280254D01*
X10929366Y-19280254D02*
X10919842Y-19375492D01*
X10919842Y-19375492D02*
X10929366Y-19365968D01*
X10929366Y-19365968D02*
X10948413Y-19356444D01*
X10948413Y-19356444D02*
X10996032Y-19356444D01*
X10996032Y-19356444D02*
X11015080Y-19365968D01*
X11015080Y-19365968D02*
X11024604Y-19375492D01*
X11024604Y-19375492D02*
X11034128Y-19394539D01*
X11034128Y-19394539D02*
X11034128Y-19442158D01*
X11034128Y-19442158D02*
X11024604Y-19461206D01*
X11024604Y-19461206D02*
X11015080Y-19470730D01*
X11015080Y-19470730D02*
X10996032Y-19480254D01*
X10996032Y-19480254D02*
X10948413Y-19480254D01*
X10948413Y-19480254D02*
X10929366Y-19470730D01*
X10929366Y-19470730D02*
X10919842Y-19461206D01*
X11205556Y-19346920D02*
X11205556Y-19480254D01*
X11157937Y-19270730D02*
X11110318Y-19413587D01*
X11110318Y-19413587D02*
X11234128Y-19413587D01*
X11300794Y-19280254D02*
X11300794Y-19318349D01*
X11376985Y-19280254D02*
X11376985Y-19318349D01*
X11672223Y-19556444D02*
X11662699Y-19546920D01*
X11662699Y-19546920D02*
X11643651Y-19518349D01*
X11643651Y-19518349D02*
X11634128Y-19499301D01*
X11634128Y-19499301D02*
X11624604Y-19470730D01*
X11624604Y-19470730D02*
X11615080Y-19423111D01*
X11615080Y-19423111D02*
X11615080Y-19385016D01*
X11615080Y-19385016D02*
X11624604Y-19337397D01*
X11624604Y-19337397D02*
X11634128Y-19308825D01*
X11634128Y-19308825D02*
X11643651Y-19289778D01*
X11643651Y-19289778D02*
X11662699Y-19261206D01*
X11662699Y-19261206D02*
X11672223Y-19251682D01*
X11786509Y-19280254D02*
X11805556Y-19280254D01*
X11805556Y-19280254D02*
X11824604Y-19289778D01*
X11824604Y-19289778D02*
X11834128Y-19299301D01*
X11834128Y-19299301D02*
X11843651Y-19318349D01*
X11843651Y-19318349D02*
X11853175Y-19356444D01*
X11853175Y-19356444D02*
X11853175Y-19404063D01*
X11853175Y-19404063D02*
X11843651Y-19442158D01*
X11843651Y-19442158D02*
X11834128Y-19461206D01*
X11834128Y-19461206D02*
X11824604Y-19470730D01*
X11824604Y-19470730D02*
X11805556Y-19480254D01*
X11805556Y-19480254D02*
X11786509Y-19480254D01*
X11786509Y-19480254D02*
X11767461Y-19470730D01*
X11767461Y-19470730D02*
X11757937Y-19461206D01*
X11757937Y-19461206D02*
X11748413Y-19442158D01*
X11748413Y-19442158D02*
X11738890Y-19404063D01*
X11738890Y-19404063D02*
X11738890Y-19356444D01*
X11738890Y-19356444D02*
X11748413Y-19318349D01*
X11748413Y-19318349D02*
X11757937Y-19299301D01*
X11757937Y-19299301D02*
X11767461Y-19289778D01*
X11767461Y-19289778D02*
X11786509Y-19280254D01*
X12091271Y-19480254D02*
X12091271Y-19280254D01*
X12176985Y-19480254D02*
X12176985Y-19375492D01*
X12176985Y-19375492D02*
X12167461Y-19356444D01*
X12167461Y-19356444D02*
X12148413Y-19346920D01*
X12148413Y-19346920D02*
X12119842Y-19346920D01*
X12119842Y-19346920D02*
X12100794Y-19356444D01*
X12100794Y-19356444D02*
X12091271Y-19365968D01*
X12300794Y-19480254D02*
X12281747Y-19470730D01*
X12281747Y-19470730D02*
X12272223Y-19461206D01*
X12272223Y-19461206D02*
X12262699Y-19442158D01*
X12262699Y-19442158D02*
X12262699Y-19385016D01*
X12262699Y-19385016D02*
X12272223Y-19365968D01*
X12272223Y-19365968D02*
X12281747Y-19356444D01*
X12281747Y-19356444D02*
X12300794Y-19346920D01*
X12300794Y-19346920D02*
X12329366Y-19346920D01*
X12329366Y-19346920D02*
X12348413Y-19356444D01*
X12348413Y-19356444D02*
X12357937Y-19365968D01*
X12357937Y-19365968D02*
X12367461Y-19385016D01*
X12367461Y-19385016D02*
X12367461Y-19442158D01*
X12367461Y-19442158D02*
X12357937Y-19461206D01*
X12357937Y-19461206D02*
X12348413Y-19470730D01*
X12348413Y-19470730D02*
X12329366Y-19480254D01*
X12329366Y-19480254D02*
X12300794Y-19480254D01*
X12481747Y-19480254D02*
X12462699Y-19470730D01*
X12462699Y-19470730D02*
X12453175Y-19451682D01*
X12453175Y-19451682D02*
X12453175Y-19280254D01*
X12634128Y-19470730D02*
X12615080Y-19480254D01*
X12615080Y-19480254D02*
X12576985Y-19480254D01*
X12576985Y-19480254D02*
X12557937Y-19470730D01*
X12557937Y-19470730D02*
X12548413Y-19451682D01*
X12548413Y-19451682D02*
X12548413Y-19375492D01*
X12548413Y-19375492D02*
X12557937Y-19356444D01*
X12557937Y-19356444D02*
X12576985Y-19346920D01*
X12576985Y-19346920D02*
X12615080Y-19346920D01*
X12615080Y-19346920D02*
X12634128Y-19356444D01*
X12634128Y-19356444D02*
X12643652Y-19375492D01*
X12643652Y-19375492D02*
X12643652Y-19394539D01*
X12643652Y-19394539D02*
X12548413Y-19413587D01*
X12719842Y-19470730D02*
X12738890Y-19480254D01*
X12738890Y-19480254D02*
X12776985Y-19480254D01*
X12776985Y-19480254D02*
X12796033Y-19470730D01*
X12796033Y-19470730D02*
X12805556Y-19451682D01*
X12805556Y-19451682D02*
X12805556Y-19442158D01*
X12805556Y-19442158D02*
X12796033Y-19423111D01*
X12796033Y-19423111D02*
X12776985Y-19413587D01*
X12776985Y-19413587D02*
X12748413Y-19413587D01*
X12748413Y-19413587D02*
X12729366Y-19404063D01*
X12729366Y-19404063D02*
X12719842Y-19385016D01*
X12719842Y-19385016D02*
X12719842Y-19375492D01*
X12719842Y-19375492D02*
X12729366Y-19356444D01*
X12729366Y-19356444D02*
X12748413Y-19346920D01*
X12748413Y-19346920D02*
X12776985Y-19346920D01*
X12776985Y-19346920D02*
X12796033Y-19356444D01*
X13043652Y-19404063D02*
X13196033Y-19404063D01*
X13119842Y-19480254D02*
X13119842Y-19327873D01*
X13472223Y-19365968D02*
X13453175Y-19356444D01*
X13453175Y-19356444D02*
X13443652Y-19346920D01*
X13443652Y-19346920D02*
X13434128Y-19327873D01*
X13434128Y-19327873D02*
X13434128Y-19318349D01*
X13434128Y-19318349D02*
X13443652Y-19299301D01*
X13443652Y-19299301D02*
X13453175Y-19289778D01*
X13453175Y-19289778D02*
X13472223Y-19280254D01*
X13472223Y-19280254D02*
X13510318Y-19280254D01*
X13510318Y-19280254D02*
X13529366Y-19289778D01*
X13529366Y-19289778D02*
X13538890Y-19299301D01*
X13538890Y-19299301D02*
X13548414Y-19318349D01*
X13548414Y-19318349D02*
X13548414Y-19327873D01*
X13548414Y-19327873D02*
X13538890Y-19346920D01*
X13538890Y-19346920D02*
X13529366Y-19356444D01*
X13529366Y-19356444D02*
X13510318Y-19365968D01*
X13510318Y-19365968D02*
X13472223Y-19365968D01*
X13472223Y-19365968D02*
X13453175Y-19375492D01*
X13453175Y-19375492D02*
X13443652Y-19385016D01*
X13443652Y-19385016D02*
X13434128Y-19404063D01*
X13434128Y-19404063D02*
X13434128Y-19442158D01*
X13434128Y-19442158D02*
X13443652Y-19461206D01*
X13443652Y-19461206D02*
X13453175Y-19470730D01*
X13453175Y-19470730D02*
X13472223Y-19480254D01*
X13472223Y-19480254D02*
X13510318Y-19480254D01*
X13510318Y-19480254D02*
X13529366Y-19470730D01*
X13529366Y-19470730D02*
X13538890Y-19461206D01*
X13538890Y-19461206D02*
X13548414Y-19442158D01*
X13548414Y-19442158D02*
X13548414Y-19404063D01*
X13548414Y-19404063D02*
X13538890Y-19385016D01*
X13538890Y-19385016D02*
X13529366Y-19375492D01*
X13529366Y-19375492D02*
X13510318Y-19365968D01*
X13776985Y-19470730D02*
X13796033Y-19480254D01*
X13796033Y-19480254D02*
X13834128Y-19480254D01*
X13834128Y-19480254D02*
X13853176Y-19470730D01*
X13853176Y-19470730D02*
X13862699Y-19451682D01*
X13862699Y-19451682D02*
X13862699Y-19442158D01*
X13862699Y-19442158D02*
X13853176Y-19423111D01*
X13853176Y-19423111D02*
X13834128Y-19413587D01*
X13834128Y-19413587D02*
X13805556Y-19413587D01*
X13805556Y-19413587D02*
X13786509Y-19404063D01*
X13786509Y-19404063D02*
X13776985Y-19385016D01*
X13776985Y-19385016D02*
X13776985Y-19375492D01*
X13776985Y-19375492D02*
X13786509Y-19356444D01*
X13786509Y-19356444D02*
X13805556Y-19346920D01*
X13805556Y-19346920D02*
X13834128Y-19346920D01*
X13834128Y-19346920D02*
X13853176Y-19356444D01*
X13976985Y-19480254D02*
X13957937Y-19470730D01*
X13957937Y-19470730D02*
X13948414Y-19451682D01*
X13948414Y-19451682D02*
X13948414Y-19280254D01*
X14081747Y-19480254D02*
X14062699Y-19470730D01*
X14062699Y-19470730D02*
X14053176Y-19461206D01*
X14053176Y-19461206D02*
X14043652Y-19442158D01*
X14043652Y-19442158D02*
X14043652Y-19385016D01*
X14043652Y-19385016D02*
X14053176Y-19365968D01*
X14053176Y-19365968D02*
X14062699Y-19356444D01*
X14062699Y-19356444D02*
X14081747Y-19346920D01*
X14081747Y-19346920D02*
X14110318Y-19346920D01*
X14110318Y-19346920D02*
X14129366Y-19356444D01*
X14129366Y-19356444D02*
X14138890Y-19365968D01*
X14138890Y-19365968D02*
X14148414Y-19385016D01*
X14148414Y-19385016D02*
X14148414Y-19442158D01*
X14148414Y-19442158D02*
X14138890Y-19461206D01*
X14138890Y-19461206D02*
X14129366Y-19470730D01*
X14129366Y-19470730D02*
X14110318Y-19480254D01*
X14110318Y-19480254D02*
X14081747Y-19480254D01*
X14205557Y-19346920D02*
X14281747Y-19346920D01*
X14234128Y-19280254D02*
X14234128Y-19451682D01*
X14234128Y-19451682D02*
X14243652Y-19470730D01*
X14243652Y-19470730D02*
X14262699Y-19480254D01*
X14262699Y-19480254D02*
X14281747Y-19480254D01*
X14338890Y-19470730D02*
X14357937Y-19480254D01*
X14357937Y-19480254D02*
X14396033Y-19480254D01*
X14396033Y-19480254D02*
X14415080Y-19470730D01*
X14415080Y-19470730D02*
X14424604Y-19451682D01*
X14424604Y-19451682D02*
X14424604Y-19442158D01*
X14424604Y-19442158D02*
X14415080Y-19423111D01*
X14415080Y-19423111D02*
X14396033Y-19413587D01*
X14396033Y-19413587D02*
X14367461Y-19413587D01*
X14367461Y-19413587D02*
X14348414Y-19404063D01*
X14348414Y-19404063D02*
X14338890Y-19385016D01*
X14338890Y-19385016D02*
X14338890Y-19375492D01*
X14338890Y-19375492D02*
X14348414Y-19356444D01*
X14348414Y-19356444D02*
X14367461Y-19346920D01*
X14367461Y-19346920D02*
X14396033Y-19346920D01*
X14396033Y-19346920D02*
X14415080Y-19356444D01*
X14491271Y-19556444D02*
X14500795Y-19546920D01*
X14500795Y-19546920D02*
X14519842Y-19518349D01*
X14519842Y-19518349D02*
X14529366Y-19499301D01*
X14529366Y-19499301D02*
X14538890Y-19470730D01*
X14538890Y-19470730D02*
X14548414Y-19423111D01*
X14548414Y-19423111D02*
X14548414Y-19385016D01*
X14548414Y-19385016D02*
X14538890Y-19337397D01*
X14538890Y-19337397D02*
X14529366Y-19308825D01*
X14529366Y-19308825D02*
X14519842Y-19289778D01*
X14519842Y-19289778D02*
X14500795Y-19261206D01*
X14500795Y-19261206D02*
X14491271Y-19251682D01*
D13*
X7997160Y-19602770D02*
X8097160Y-19702770D01*
X8097160Y-19602770D02*
X7997160Y-19702770D01*
X8047160Y-19602770D02*
X8047160Y-19702770D01*
X7997160Y-19652770D02*
X8097160Y-19652770D01*
D12*
X8462699Y-19744254D02*
X8348413Y-19744254D01*
X8405556Y-19744254D02*
X8405556Y-19544254D01*
X8405556Y-19544254D02*
X8386508Y-19572825D01*
X8386508Y-19572825D02*
X8367461Y-19591873D01*
X8367461Y-19591873D02*
X8348413Y-19601397D01*
X8548413Y-19725206D02*
X8557937Y-19734730D01*
X8557937Y-19734730D02*
X8548413Y-19744254D01*
X8548413Y-19744254D02*
X8538889Y-19734730D01*
X8538889Y-19734730D02*
X8548413Y-19725206D01*
X8548413Y-19725206D02*
X8548413Y-19744254D01*
X8681746Y-19544254D02*
X8700794Y-19544254D01*
X8700794Y-19544254D02*
X8719842Y-19553778D01*
X8719842Y-19553778D02*
X8729366Y-19563301D01*
X8729366Y-19563301D02*
X8738889Y-19582349D01*
X8738889Y-19582349D02*
X8748413Y-19620444D01*
X8748413Y-19620444D02*
X8748413Y-19668063D01*
X8748413Y-19668063D02*
X8738889Y-19706158D01*
X8738889Y-19706158D02*
X8729366Y-19725206D01*
X8729366Y-19725206D02*
X8719842Y-19734730D01*
X8719842Y-19734730D02*
X8700794Y-19744254D01*
X8700794Y-19744254D02*
X8681746Y-19744254D01*
X8681746Y-19744254D02*
X8662699Y-19734730D01*
X8662699Y-19734730D02*
X8653175Y-19725206D01*
X8653175Y-19725206D02*
X8643651Y-19706158D01*
X8643651Y-19706158D02*
X8634127Y-19668063D01*
X8634127Y-19668063D02*
X8634127Y-19620444D01*
X8634127Y-19620444D02*
X8643651Y-19582349D01*
X8643651Y-19582349D02*
X8653175Y-19563301D01*
X8653175Y-19563301D02*
X8662699Y-19553778D01*
X8662699Y-19553778D02*
X8681746Y-19544254D01*
X8872223Y-19544254D02*
X8891270Y-19544254D01*
X8891270Y-19544254D02*
X8910318Y-19553778D01*
X8910318Y-19553778D02*
X8919842Y-19563301D01*
X8919842Y-19563301D02*
X8929366Y-19582349D01*
X8929366Y-19582349D02*
X8938889Y-19620444D01*
X8938889Y-19620444D02*
X8938889Y-19668063D01*
X8938889Y-19668063D02*
X8929366Y-19706158D01*
X8929366Y-19706158D02*
X8919842Y-19725206D01*
X8919842Y-19725206D02*
X8910318Y-19734730D01*
X8910318Y-19734730D02*
X8891270Y-19744254D01*
X8891270Y-19744254D02*
X8872223Y-19744254D01*
X8872223Y-19744254D02*
X8853175Y-19734730D01*
X8853175Y-19734730D02*
X8843651Y-19725206D01*
X8843651Y-19725206D02*
X8834127Y-19706158D01*
X8834127Y-19706158D02*
X8824604Y-19668063D01*
X8824604Y-19668063D02*
X8824604Y-19620444D01*
X8824604Y-19620444D02*
X8834127Y-19582349D01*
X8834127Y-19582349D02*
X8843651Y-19563301D01*
X8843651Y-19563301D02*
X8853175Y-19553778D01*
X8853175Y-19553778D02*
X8872223Y-19544254D01*
X9062699Y-19544254D02*
X9081747Y-19544254D01*
X9081747Y-19544254D02*
X9100794Y-19553778D01*
X9100794Y-19553778D02*
X9110318Y-19563301D01*
X9110318Y-19563301D02*
X9119842Y-19582349D01*
X9119842Y-19582349D02*
X9129366Y-19620444D01*
X9129366Y-19620444D02*
X9129366Y-19668063D01*
X9129366Y-19668063D02*
X9119842Y-19706158D01*
X9119842Y-19706158D02*
X9110318Y-19725206D01*
X9110318Y-19725206D02*
X9100794Y-19734730D01*
X9100794Y-19734730D02*
X9081747Y-19744254D01*
X9081747Y-19744254D02*
X9062699Y-19744254D01*
X9062699Y-19744254D02*
X9043651Y-19734730D01*
X9043651Y-19734730D02*
X9034127Y-19725206D01*
X9034127Y-19725206D02*
X9024604Y-19706158D01*
X9024604Y-19706158D02*
X9015080Y-19668063D01*
X9015080Y-19668063D02*
X9015080Y-19620444D01*
X9015080Y-19620444D02*
X9024604Y-19582349D01*
X9024604Y-19582349D02*
X9034127Y-19563301D01*
X9034127Y-19563301D02*
X9043651Y-19553778D01*
X9043651Y-19553778D02*
X9062699Y-19544254D01*
X9215080Y-19744254D02*
X9215080Y-19610920D01*
X9215080Y-19629968D02*
X9224604Y-19620444D01*
X9224604Y-19620444D02*
X9243651Y-19610920D01*
X9243651Y-19610920D02*
X9272223Y-19610920D01*
X9272223Y-19610920D02*
X9291270Y-19620444D01*
X9291270Y-19620444D02*
X9300794Y-19639492D01*
X9300794Y-19639492D02*
X9300794Y-19744254D01*
X9300794Y-19639492D02*
X9310318Y-19620444D01*
X9310318Y-19620444D02*
X9329366Y-19610920D01*
X9329366Y-19610920D02*
X9357937Y-19610920D01*
X9357937Y-19610920D02*
X9376985Y-19620444D01*
X9376985Y-19620444D02*
X9386508Y-19639492D01*
X9386508Y-19639492D02*
X9386508Y-19744254D01*
X9481747Y-19744254D02*
X9481747Y-19610920D01*
X9481747Y-19629968D02*
X9491270Y-19620444D01*
X9491270Y-19620444D02*
X9510318Y-19610920D01*
X9510318Y-19610920D02*
X9538889Y-19610920D01*
X9538889Y-19610920D02*
X9557937Y-19620444D01*
X9557937Y-19620444D02*
X9567461Y-19639492D01*
X9567461Y-19639492D02*
X9567461Y-19744254D01*
X9567461Y-19639492D02*
X9576985Y-19620444D01*
X9576985Y-19620444D02*
X9596032Y-19610920D01*
X9596032Y-19610920D02*
X9624604Y-19610920D01*
X9624604Y-19610920D02*
X9643651Y-19620444D01*
X9643651Y-19620444D02*
X9653175Y-19639492D01*
X9653175Y-19639492D02*
X9653175Y-19744254D01*
X10043651Y-19534730D02*
X9872223Y-19791873D01*
X10300794Y-19544254D02*
X10319842Y-19544254D01*
X10319842Y-19544254D02*
X10338890Y-19553778D01*
X10338890Y-19553778D02*
X10348413Y-19563301D01*
X10348413Y-19563301D02*
X10357937Y-19582349D01*
X10357937Y-19582349D02*
X10367461Y-19620444D01*
X10367461Y-19620444D02*
X10367461Y-19668063D01*
X10367461Y-19668063D02*
X10357937Y-19706158D01*
X10357937Y-19706158D02*
X10348413Y-19725206D01*
X10348413Y-19725206D02*
X10338890Y-19734730D01*
X10338890Y-19734730D02*
X10319842Y-19744254D01*
X10319842Y-19744254D02*
X10300794Y-19744254D01*
X10300794Y-19744254D02*
X10281747Y-19734730D01*
X10281747Y-19734730D02*
X10272223Y-19725206D01*
X10272223Y-19725206D02*
X10262699Y-19706158D01*
X10262699Y-19706158D02*
X10253175Y-19668063D01*
X10253175Y-19668063D02*
X10253175Y-19620444D01*
X10253175Y-19620444D02*
X10262699Y-19582349D01*
X10262699Y-19582349D02*
X10272223Y-19563301D01*
X10272223Y-19563301D02*
X10281747Y-19553778D01*
X10281747Y-19553778D02*
X10300794Y-19544254D01*
X10453175Y-19725206D02*
X10462699Y-19734730D01*
X10462699Y-19734730D02*
X10453175Y-19744254D01*
X10453175Y-19744254D02*
X10443651Y-19734730D01*
X10443651Y-19734730D02*
X10453175Y-19725206D01*
X10453175Y-19725206D02*
X10453175Y-19744254D01*
X10586509Y-19544254D02*
X10605556Y-19544254D01*
X10605556Y-19544254D02*
X10624604Y-19553778D01*
X10624604Y-19553778D02*
X10634128Y-19563301D01*
X10634128Y-19563301D02*
X10643651Y-19582349D01*
X10643651Y-19582349D02*
X10653175Y-19620444D01*
X10653175Y-19620444D02*
X10653175Y-19668063D01*
X10653175Y-19668063D02*
X10643651Y-19706158D01*
X10643651Y-19706158D02*
X10634128Y-19725206D01*
X10634128Y-19725206D02*
X10624604Y-19734730D01*
X10624604Y-19734730D02*
X10605556Y-19744254D01*
X10605556Y-19744254D02*
X10586509Y-19744254D01*
X10586509Y-19744254D02*
X10567461Y-19734730D01*
X10567461Y-19734730D02*
X10557937Y-19725206D01*
X10557937Y-19725206D02*
X10548413Y-19706158D01*
X10548413Y-19706158D02*
X10538890Y-19668063D01*
X10538890Y-19668063D02*
X10538890Y-19620444D01*
X10538890Y-19620444D02*
X10548413Y-19582349D01*
X10548413Y-19582349D02*
X10557937Y-19563301D01*
X10557937Y-19563301D02*
X10567461Y-19553778D01*
X10567461Y-19553778D02*
X10586509Y-19544254D01*
X10719842Y-19544254D02*
X10843651Y-19544254D01*
X10843651Y-19544254D02*
X10776985Y-19620444D01*
X10776985Y-19620444D02*
X10805556Y-19620444D01*
X10805556Y-19620444D02*
X10824604Y-19629968D01*
X10824604Y-19629968D02*
X10834128Y-19639492D01*
X10834128Y-19639492D02*
X10843651Y-19658539D01*
X10843651Y-19658539D02*
X10843651Y-19706158D01*
X10843651Y-19706158D02*
X10834128Y-19725206D01*
X10834128Y-19725206D02*
X10824604Y-19734730D01*
X10824604Y-19734730D02*
X10805556Y-19744254D01*
X10805556Y-19744254D02*
X10748413Y-19744254D01*
X10748413Y-19744254D02*
X10729366Y-19734730D01*
X10729366Y-19734730D02*
X10719842Y-19725206D01*
X10938890Y-19744254D02*
X10976985Y-19744254D01*
X10976985Y-19744254D02*
X10996032Y-19734730D01*
X10996032Y-19734730D02*
X11005556Y-19725206D01*
X11005556Y-19725206D02*
X11024604Y-19696635D01*
X11024604Y-19696635D02*
X11034128Y-19658539D01*
X11034128Y-19658539D02*
X11034128Y-19582349D01*
X11034128Y-19582349D02*
X11024604Y-19563301D01*
X11024604Y-19563301D02*
X11015080Y-19553778D01*
X11015080Y-19553778D02*
X10996032Y-19544254D01*
X10996032Y-19544254D02*
X10957937Y-19544254D01*
X10957937Y-19544254D02*
X10938890Y-19553778D01*
X10938890Y-19553778D02*
X10929366Y-19563301D01*
X10929366Y-19563301D02*
X10919842Y-19582349D01*
X10919842Y-19582349D02*
X10919842Y-19629968D01*
X10919842Y-19629968D02*
X10929366Y-19649016D01*
X10929366Y-19649016D02*
X10938890Y-19658539D01*
X10938890Y-19658539D02*
X10957937Y-19668063D01*
X10957937Y-19668063D02*
X10996032Y-19668063D01*
X10996032Y-19668063D02*
X11015080Y-19658539D01*
X11015080Y-19658539D02*
X11024604Y-19649016D01*
X11024604Y-19649016D02*
X11034128Y-19629968D01*
X11205556Y-19610920D02*
X11205556Y-19744254D01*
X11157937Y-19534730D02*
X11110318Y-19677587D01*
X11110318Y-19677587D02*
X11234128Y-19677587D01*
X11300794Y-19544254D02*
X11300794Y-19582349D01*
X11376985Y-19544254D02*
X11376985Y-19582349D01*
X11672223Y-19820444D02*
X11662699Y-19810920D01*
X11662699Y-19810920D02*
X11643651Y-19782349D01*
X11643651Y-19782349D02*
X11634128Y-19763301D01*
X11634128Y-19763301D02*
X11624604Y-19734730D01*
X11624604Y-19734730D02*
X11615080Y-19687111D01*
X11615080Y-19687111D02*
X11615080Y-19649016D01*
X11615080Y-19649016D02*
X11624604Y-19601397D01*
X11624604Y-19601397D02*
X11634128Y-19572825D01*
X11634128Y-19572825D02*
X11643651Y-19553778D01*
X11643651Y-19553778D02*
X11662699Y-19525206D01*
X11662699Y-19525206D02*
X11672223Y-19515682D01*
X11738890Y-19563301D02*
X11748413Y-19553778D01*
X11748413Y-19553778D02*
X11767461Y-19544254D01*
X11767461Y-19544254D02*
X11815080Y-19544254D01*
X11815080Y-19544254D02*
X11834128Y-19553778D01*
X11834128Y-19553778D02*
X11843651Y-19563301D01*
X11843651Y-19563301D02*
X11853175Y-19582349D01*
X11853175Y-19582349D02*
X11853175Y-19601397D01*
X11853175Y-19601397D02*
X11843651Y-19629968D01*
X11843651Y-19629968D02*
X11729366Y-19744254D01*
X11729366Y-19744254D02*
X11853175Y-19744254D01*
X12024604Y-19544254D02*
X11986509Y-19544254D01*
X11986509Y-19544254D02*
X11967461Y-19553778D01*
X11967461Y-19553778D02*
X11957937Y-19563301D01*
X11957937Y-19563301D02*
X11938890Y-19591873D01*
X11938890Y-19591873D02*
X11929366Y-19629968D01*
X11929366Y-19629968D02*
X11929366Y-19706158D01*
X11929366Y-19706158D02*
X11938890Y-19725206D01*
X11938890Y-19725206D02*
X11948413Y-19734730D01*
X11948413Y-19734730D02*
X11967461Y-19744254D01*
X11967461Y-19744254D02*
X12005556Y-19744254D01*
X12005556Y-19744254D02*
X12024604Y-19734730D01*
X12024604Y-19734730D02*
X12034128Y-19725206D01*
X12034128Y-19725206D02*
X12043651Y-19706158D01*
X12043651Y-19706158D02*
X12043651Y-19658539D01*
X12043651Y-19658539D02*
X12034128Y-19639492D01*
X12034128Y-19639492D02*
X12024604Y-19629968D01*
X12024604Y-19629968D02*
X12005556Y-19620444D01*
X12005556Y-19620444D02*
X11967461Y-19620444D01*
X11967461Y-19620444D02*
X11948413Y-19629968D01*
X11948413Y-19629968D02*
X11938890Y-19639492D01*
X11938890Y-19639492D02*
X11929366Y-19658539D01*
X12281747Y-19744254D02*
X12281747Y-19544254D01*
X12367461Y-19744254D02*
X12367461Y-19639492D01*
X12367461Y-19639492D02*
X12357937Y-19620444D01*
X12357937Y-19620444D02*
X12338890Y-19610920D01*
X12338890Y-19610920D02*
X12310318Y-19610920D01*
X12310318Y-19610920D02*
X12291271Y-19620444D01*
X12291271Y-19620444D02*
X12281747Y-19629968D01*
X12491271Y-19744254D02*
X12472223Y-19734730D01*
X12472223Y-19734730D02*
X12462699Y-19725206D01*
X12462699Y-19725206D02*
X12453175Y-19706158D01*
X12453175Y-19706158D02*
X12453175Y-19649016D01*
X12453175Y-19649016D02*
X12462699Y-19629968D01*
X12462699Y-19629968D02*
X12472223Y-19620444D01*
X12472223Y-19620444D02*
X12491271Y-19610920D01*
X12491271Y-19610920D02*
X12519842Y-19610920D01*
X12519842Y-19610920D02*
X12538890Y-19620444D01*
X12538890Y-19620444D02*
X12548413Y-19629968D01*
X12548413Y-19629968D02*
X12557937Y-19649016D01*
X12557937Y-19649016D02*
X12557937Y-19706158D01*
X12557937Y-19706158D02*
X12548413Y-19725206D01*
X12548413Y-19725206D02*
X12538890Y-19734730D01*
X12538890Y-19734730D02*
X12519842Y-19744254D01*
X12519842Y-19744254D02*
X12491271Y-19744254D01*
X12672223Y-19744254D02*
X12653175Y-19734730D01*
X12653175Y-19734730D02*
X12643652Y-19715682D01*
X12643652Y-19715682D02*
X12643652Y-19544254D01*
X12824604Y-19734730D02*
X12805556Y-19744254D01*
X12805556Y-19744254D02*
X12767461Y-19744254D01*
X12767461Y-19744254D02*
X12748413Y-19734730D01*
X12748413Y-19734730D02*
X12738890Y-19715682D01*
X12738890Y-19715682D02*
X12738890Y-19639492D01*
X12738890Y-19639492D02*
X12748413Y-19620444D01*
X12748413Y-19620444D02*
X12767461Y-19610920D01*
X12767461Y-19610920D02*
X12805556Y-19610920D01*
X12805556Y-19610920D02*
X12824604Y-19620444D01*
X12824604Y-19620444D02*
X12834128Y-19639492D01*
X12834128Y-19639492D02*
X12834128Y-19658539D01*
X12834128Y-19658539D02*
X12738890Y-19677587D01*
X12910318Y-19734730D02*
X12929366Y-19744254D01*
X12929366Y-19744254D02*
X12967461Y-19744254D01*
X12967461Y-19744254D02*
X12986509Y-19734730D01*
X12986509Y-19734730D02*
X12996033Y-19715682D01*
X12996033Y-19715682D02*
X12996033Y-19706158D01*
X12996033Y-19706158D02*
X12986509Y-19687111D01*
X12986509Y-19687111D02*
X12967461Y-19677587D01*
X12967461Y-19677587D02*
X12938890Y-19677587D01*
X12938890Y-19677587D02*
X12919842Y-19668063D01*
X12919842Y-19668063D02*
X12910318Y-19649016D01*
X12910318Y-19649016D02*
X12910318Y-19639492D01*
X12910318Y-19639492D02*
X12919842Y-19620444D01*
X12919842Y-19620444D02*
X12938890Y-19610920D01*
X12938890Y-19610920D02*
X12967461Y-19610920D01*
X12967461Y-19610920D02*
X12986509Y-19620444D01*
X13062699Y-19820444D02*
X13072223Y-19810920D01*
X13072223Y-19810920D02*
X13091271Y-19782349D01*
X13091271Y-19782349D02*
X13100794Y-19763301D01*
X13100794Y-19763301D02*
X13110318Y-19734730D01*
X13110318Y-19734730D02*
X13119842Y-19687111D01*
X13119842Y-19687111D02*
X13119842Y-19649016D01*
X13119842Y-19649016D02*
X13110318Y-19601397D01*
X13110318Y-19601397D02*
X13100794Y-19572825D01*
X13100794Y-19572825D02*
X13091271Y-19553778D01*
X13091271Y-19553778D02*
X13072223Y-19525206D01*
X13072223Y-19525206D02*
X13062699Y-19515682D01*
X7897160Y-19816770D02*
X8097160Y-20016770D01*
X8097160Y-19816770D02*
X7897160Y-20016770D01*
X8067871Y-19987481D02*
X8067871Y-19846059D01*
X7926449Y-19846059D01*
X7926449Y-19987481D01*
X8067871Y-19987481D01*
X8348413Y-19827301D02*
X8357937Y-19817778D01*
X8357937Y-19817778D02*
X8376984Y-19808254D01*
X8376984Y-19808254D02*
X8424604Y-19808254D01*
X8424604Y-19808254D02*
X8443651Y-19817778D01*
X8443651Y-19817778D02*
X8453175Y-19827301D01*
X8453175Y-19827301D02*
X8462699Y-19846349D01*
X8462699Y-19846349D02*
X8462699Y-19865397D01*
X8462699Y-19865397D02*
X8453175Y-19893968D01*
X8453175Y-19893968D02*
X8338889Y-20008254D01*
X8338889Y-20008254D02*
X8462699Y-20008254D01*
X8548413Y-19989206D02*
X8557937Y-19998730D01*
X8557937Y-19998730D02*
X8548413Y-20008254D01*
X8548413Y-20008254D02*
X8538889Y-19998730D01*
X8538889Y-19998730D02*
X8548413Y-19989206D01*
X8548413Y-19989206D02*
X8548413Y-20008254D01*
X8634127Y-19827301D02*
X8643651Y-19817778D01*
X8643651Y-19817778D02*
X8662699Y-19808254D01*
X8662699Y-19808254D02*
X8710318Y-19808254D01*
X8710318Y-19808254D02*
X8729366Y-19817778D01*
X8729366Y-19817778D02*
X8738889Y-19827301D01*
X8738889Y-19827301D02*
X8748413Y-19846349D01*
X8748413Y-19846349D02*
X8748413Y-19865397D01*
X8748413Y-19865397D02*
X8738889Y-19893968D01*
X8738889Y-19893968D02*
X8624604Y-20008254D01*
X8624604Y-20008254D02*
X8748413Y-20008254D01*
X8872223Y-19808254D02*
X8891270Y-19808254D01*
X8891270Y-19808254D02*
X8910318Y-19817778D01*
X8910318Y-19817778D02*
X8919842Y-19827301D01*
X8919842Y-19827301D02*
X8929366Y-19846349D01*
X8929366Y-19846349D02*
X8938889Y-19884444D01*
X8938889Y-19884444D02*
X8938889Y-19932063D01*
X8938889Y-19932063D02*
X8929366Y-19970158D01*
X8929366Y-19970158D02*
X8919842Y-19989206D01*
X8919842Y-19989206D02*
X8910318Y-19998730D01*
X8910318Y-19998730D02*
X8891270Y-20008254D01*
X8891270Y-20008254D02*
X8872223Y-20008254D01*
X8872223Y-20008254D02*
X8853175Y-19998730D01*
X8853175Y-19998730D02*
X8843651Y-19989206D01*
X8843651Y-19989206D02*
X8834127Y-19970158D01*
X8834127Y-19970158D02*
X8824604Y-19932063D01*
X8824604Y-19932063D02*
X8824604Y-19884444D01*
X8824604Y-19884444D02*
X8834127Y-19846349D01*
X8834127Y-19846349D02*
X8843651Y-19827301D01*
X8843651Y-19827301D02*
X8853175Y-19817778D01*
X8853175Y-19817778D02*
X8872223Y-19808254D01*
X9062699Y-19808254D02*
X9081747Y-19808254D01*
X9081747Y-19808254D02*
X9100794Y-19817778D01*
X9100794Y-19817778D02*
X9110318Y-19827301D01*
X9110318Y-19827301D02*
X9119842Y-19846349D01*
X9119842Y-19846349D02*
X9129366Y-19884444D01*
X9129366Y-19884444D02*
X9129366Y-19932063D01*
X9129366Y-19932063D02*
X9119842Y-19970158D01*
X9119842Y-19970158D02*
X9110318Y-19989206D01*
X9110318Y-19989206D02*
X9100794Y-19998730D01*
X9100794Y-19998730D02*
X9081747Y-20008254D01*
X9081747Y-20008254D02*
X9062699Y-20008254D01*
X9062699Y-20008254D02*
X9043651Y-19998730D01*
X9043651Y-19998730D02*
X9034127Y-19989206D01*
X9034127Y-19989206D02*
X9024604Y-19970158D01*
X9024604Y-19970158D02*
X9015080Y-19932063D01*
X9015080Y-19932063D02*
X9015080Y-19884444D01*
X9015080Y-19884444D02*
X9024604Y-19846349D01*
X9024604Y-19846349D02*
X9034127Y-19827301D01*
X9034127Y-19827301D02*
X9043651Y-19817778D01*
X9043651Y-19817778D02*
X9062699Y-19808254D01*
X9215080Y-20008254D02*
X9215080Y-19874920D01*
X9215080Y-19893968D02*
X9224604Y-19884444D01*
X9224604Y-19884444D02*
X9243651Y-19874920D01*
X9243651Y-19874920D02*
X9272223Y-19874920D01*
X9272223Y-19874920D02*
X9291270Y-19884444D01*
X9291270Y-19884444D02*
X9300794Y-19903492D01*
X9300794Y-19903492D02*
X9300794Y-20008254D01*
X9300794Y-19903492D02*
X9310318Y-19884444D01*
X9310318Y-19884444D02*
X9329366Y-19874920D01*
X9329366Y-19874920D02*
X9357937Y-19874920D01*
X9357937Y-19874920D02*
X9376985Y-19884444D01*
X9376985Y-19884444D02*
X9386508Y-19903492D01*
X9386508Y-19903492D02*
X9386508Y-20008254D01*
X9481747Y-20008254D02*
X9481747Y-19874920D01*
X9481747Y-19893968D02*
X9491270Y-19884444D01*
X9491270Y-19884444D02*
X9510318Y-19874920D01*
X9510318Y-19874920D02*
X9538889Y-19874920D01*
X9538889Y-19874920D02*
X9557937Y-19884444D01*
X9557937Y-19884444D02*
X9567461Y-19903492D01*
X9567461Y-19903492D02*
X9567461Y-20008254D01*
X9567461Y-19903492D02*
X9576985Y-19884444D01*
X9576985Y-19884444D02*
X9596032Y-19874920D01*
X9596032Y-19874920D02*
X9624604Y-19874920D01*
X9624604Y-19874920D02*
X9643651Y-19884444D01*
X9643651Y-19884444D02*
X9653175Y-19903492D01*
X9653175Y-19903492D02*
X9653175Y-20008254D01*
X10043651Y-19798730D02*
X9872223Y-20055873D01*
X10300794Y-19808254D02*
X10319842Y-19808254D01*
X10319842Y-19808254D02*
X10338890Y-19817778D01*
X10338890Y-19817778D02*
X10348413Y-19827301D01*
X10348413Y-19827301D02*
X10357937Y-19846349D01*
X10357937Y-19846349D02*
X10367461Y-19884444D01*
X10367461Y-19884444D02*
X10367461Y-19932063D01*
X10367461Y-19932063D02*
X10357937Y-19970158D01*
X10357937Y-19970158D02*
X10348413Y-19989206D01*
X10348413Y-19989206D02*
X10338890Y-19998730D01*
X10338890Y-19998730D02*
X10319842Y-20008254D01*
X10319842Y-20008254D02*
X10300794Y-20008254D01*
X10300794Y-20008254D02*
X10281747Y-19998730D01*
X10281747Y-19998730D02*
X10272223Y-19989206D01*
X10272223Y-19989206D02*
X10262699Y-19970158D01*
X10262699Y-19970158D02*
X10253175Y-19932063D01*
X10253175Y-19932063D02*
X10253175Y-19884444D01*
X10253175Y-19884444D02*
X10262699Y-19846349D01*
X10262699Y-19846349D02*
X10272223Y-19827301D01*
X10272223Y-19827301D02*
X10281747Y-19817778D01*
X10281747Y-19817778D02*
X10300794Y-19808254D01*
X10453175Y-19989206D02*
X10462699Y-19998730D01*
X10462699Y-19998730D02*
X10453175Y-20008254D01*
X10453175Y-20008254D02*
X10443651Y-19998730D01*
X10443651Y-19998730D02*
X10453175Y-19989206D01*
X10453175Y-19989206D02*
X10453175Y-20008254D01*
X10586509Y-19808254D02*
X10605556Y-19808254D01*
X10605556Y-19808254D02*
X10624604Y-19817778D01*
X10624604Y-19817778D02*
X10634128Y-19827301D01*
X10634128Y-19827301D02*
X10643651Y-19846349D01*
X10643651Y-19846349D02*
X10653175Y-19884444D01*
X10653175Y-19884444D02*
X10653175Y-19932063D01*
X10653175Y-19932063D02*
X10643651Y-19970158D01*
X10643651Y-19970158D02*
X10634128Y-19989206D01*
X10634128Y-19989206D02*
X10624604Y-19998730D01*
X10624604Y-19998730D02*
X10605556Y-20008254D01*
X10605556Y-20008254D02*
X10586509Y-20008254D01*
X10586509Y-20008254D02*
X10567461Y-19998730D01*
X10567461Y-19998730D02*
X10557937Y-19989206D01*
X10557937Y-19989206D02*
X10548413Y-19970158D01*
X10548413Y-19970158D02*
X10538890Y-19932063D01*
X10538890Y-19932063D02*
X10538890Y-19884444D01*
X10538890Y-19884444D02*
X10548413Y-19846349D01*
X10548413Y-19846349D02*
X10557937Y-19827301D01*
X10557937Y-19827301D02*
X10567461Y-19817778D01*
X10567461Y-19817778D02*
X10586509Y-19808254D01*
X10767461Y-19893968D02*
X10748413Y-19884444D01*
X10748413Y-19884444D02*
X10738890Y-19874920D01*
X10738890Y-19874920D02*
X10729366Y-19855873D01*
X10729366Y-19855873D02*
X10729366Y-19846349D01*
X10729366Y-19846349D02*
X10738890Y-19827301D01*
X10738890Y-19827301D02*
X10748413Y-19817778D01*
X10748413Y-19817778D02*
X10767461Y-19808254D01*
X10767461Y-19808254D02*
X10805556Y-19808254D01*
X10805556Y-19808254D02*
X10824604Y-19817778D01*
X10824604Y-19817778D02*
X10834128Y-19827301D01*
X10834128Y-19827301D02*
X10843651Y-19846349D01*
X10843651Y-19846349D02*
X10843651Y-19855873D01*
X10843651Y-19855873D02*
X10834128Y-19874920D01*
X10834128Y-19874920D02*
X10824604Y-19884444D01*
X10824604Y-19884444D02*
X10805556Y-19893968D01*
X10805556Y-19893968D02*
X10767461Y-19893968D01*
X10767461Y-19893968D02*
X10748413Y-19903492D01*
X10748413Y-19903492D02*
X10738890Y-19913016D01*
X10738890Y-19913016D02*
X10729366Y-19932063D01*
X10729366Y-19932063D02*
X10729366Y-19970158D01*
X10729366Y-19970158D02*
X10738890Y-19989206D01*
X10738890Y-19989206D02*
X10748413Y-19998730D01*
X10748413Y-19998730D02*
X10767461Y-20008254D01*
X10767461Y-20008254D02*
X10805556Y-20008254D01*
X10805556Y-20008254D02*
X10824604Y-19998730D01*
X10824604Y-19998730D02*
X10834128Y-19989206D01*
X10834128Y-19989206D02*
X10843651Y-19970158D01*
X10843651Y-19970158D02*
X10843651Y-19932063D01*
X10843651Y-19932063D02*
X10834128Y-19913016D01*
X10834128Y-19913016D02*
X10824604Y-19903492D01*
X10824604Y-19903492D02*
X10805556Y-19893968D01*
X11015080Y-19808254D02*
X10976985Y-19808254D01*
X10976985Y-19808254D02*
X10957937Y-19817778D01*
X10957937Y-19817778D02*
X10948413Y-19827301D01*
X10948413Y-19827301D02*
X10929366Y-19855873D01*
X10929366Y-19855873D02*
X10919842Y-19893968D01*
X10919842Y-19893968D02*
X10919842Y-19970158D01*
X10919842Y-19970158D02*
X10929366Y-19989206D01*
X10929366Y-19989206D02*
X10938890Y-19998730D01*
X10938890Y-19998730D02*
X10957937Y-20008254D01*
X10957937Y-20008254D02*
X10996032Y-20008254D01*
X10996032Y-20008254D02*
X11015080Y-19998730D01*
X11015080Y-19998730D02*
X11024604Y-19989206D01*
X11024604Y-19989206D02*
X11034128Y-19970158D01*
X11034128Y-19970158D02*
X11034128Y-19922539D01*
X11034128Y-19922539D02*
X11024604Y-19903492D01*
X11024604Y-19903492D02*
X11015080Y-19893968D01*
X11015080Y-19893968D02*
X10996032Y-19884444D01*
X10996032Y-19884444D02*
X10957937Y-19884444D01*
X10957937Y-19884444D02*
X10938890Y-19893968D01*
X10938890Y-19893968D02*
X10929366Y-19903492D01*
X10929366Y-19903492D02*
X10919842Y-19922539D01*
X11205556Y-19808254D02*
X11167461Y-19808254D01*
X11167461Y-19808254D02*
X11148413Y-19817778D01*
X11148413Y-19817778D02*
X11138890Y-19827301D01*
X11138890Y-19827301D02*
X11119842Y-19855873D01*
X11119842Y-19855873D02*
X11110318Y-19893968D01*
X11110318Y-19893968D02*
X11110318Y-19970158D01*
X11110318Y-19970158D02*
X11119842Y-19989206D01*
X11119842Y-19989206D02*
X11129366Y-19998730D01*
X11129366Y-19998730D02*
X11148413Y-20008254D01*
X11148413Y-20008254D02*
X11186509Y-20008254D01*
X11186509Y-20008254D02*
X11205556Y-19998730D01*
X11205556Y-19998730D02*
X11215080Y-19989206D01*
X11215080Y-19989206D02*
X11224604Y-19970158D01*
X11224604Y-19970158D02*
X11224604Y-19922539D01*
X11224604Y-19922539D02*
X11215080Y-19903492D01*
X11215080Y-19903492D02*
X11205556Y-19893968D01*
X11205556Y-19893968D02*
X11186509Y-19884444D01*
X11186509Y-19884444D02*
X11148413Y-19884444D01*
X11148413Y-19884444D02*
X11129366Y-19893968D01*
X11129366Y-19893968D02*
X11119842Y-19903492D01*
X11119842Y-19903492D02*
X11110318Y-19922539D01*
X11300794Y-19808254D02*
X11300794Y-19846349D01*
X11376985Y-19808254D02*
X11376985Y-19846349D01*
X11672223Y-20084444D02*
X11662699Y-20074920D01*
X11662699Y-20074920D02*
X11643651Y-20046349D01*
X11643651Y-20046349D02*
X11634128Y-20027301D01*
X11634128Y-20027301D02*
X11624604Y-19998730D01*
X11624604Y-19998730D02*
X11615080Y-19951111D01*
X11615080Y-19951111D02*
X11615080Y-19913016D01*
X11615080Y-19913016D02*
X11624604Y-19865397D01*
X11624604Y-19865397D02*
X11634128Y-19836825D01*
X11634128Y-19836825D02*
X11643651Y-19817778D01*
X11643651Y-19817778D02*
X11662699Y-19789206D01*
X11662699Y-19789206D02*
X11672223Y-19779682D01*
X11843651Y-19808254D02*
X11748413Y-19808254D01*
X11748413Y-19808254D02*
X11738890Y-19903492D01*
X11738890Y-19903492D02*
X11748413Y-19893968D01*
X11748413Y-19893968D02*
X11767461Y-19884444D01*
X11767461Y-19884444D02*
X11815080Y-19884444D01*
X11815080Y-19884444D02*
X11834128Y-19893968D01*
X11834128Y-19893968D02*
X11843651Y-19903492D01*
X11843651Y-19903492D02*
X11853175Y-19922539D01*
X11853175Y-19922539D02*
X11853175Y-19970158D01*
X11853175Y-19970158D02*
X11843651Y-19989206D01*
X11843651Y-19989206D02*
X11834128Y-19998730D01*
X11834128Y-19998730D02*
X11815080Y-20008254D01*
X11815080Y-20008254D02*
X11767461Y-20008254D01*
X11767461Y-20008254D02*
X11748413Y-19998730D01*
X11748413Y-19998730D02*
X11738890Y-19989206D01*
X12091271Y-20008254D02*
X12091271Y-19808254D01*
X12176985Y-20008254D02*
X12176985Y-19903492D01*
X12176985Y-19903492D02*
X12167461Y-19884444D01*
X12167461Y-19884444D02*
X12148413Y-19874920D01*
X12148413Y-19874920D02*
X12119842Y-19874920D01*
X12119842Y-19874920D02*
X12100794Y-19884444D01*
X12100794Y-19884444D02*
X12091271Y-19893968D01*
X12300794Y-20008254D02*
X12281747Y-19998730D01*
X12281747Y-19998730D02*
X12272223Y-19989206D01*
X12272223Y-19989206D02*
X12262699Y-19970158D01*
X12262699Y-19970158D02*
X12262699Y-19913016D01*
X12262699Y-19913016D02*
X12272223Y-19893968D01*
X12272223Y-19893968D02*
X12281747Y-19884444D01*
X12281747Y-19884444D02*
X12300794Y-19874920D01*
X12300794Y-19874920D02*
X12329366Y-19874920D01*
X12329366Y-19874920D02*
X12348413Y-19884444D01*
X12348413Y-19884444D02*
X12357937Y-19893968D01*
X12357937Y-19893968D02*
X12367461Y-19913016D01*
X12367461Y-19913016D02*
X12367461Y-19970158D01*
X12367461Y-19970158D02*
X12357937Y-19989206D01*
X12357937Y-19989206D02*
X12348413Y-19998730D01*
X12348413Y-19998730D02*
X12329366Y-20008254D01*
X12329366Y-20008254D02*
X12300794Y-20008254D01*
X12481747Y-20008254D02*
X12462699Y-19998730D01*
X12462699Y-19998730D02*
X12453175Y-19979682D01*
X12453175Y-19979682D02*
X12453175Y-19808254D01*
X12634128Y-19998730D02*
X12615080Y-20008254D01*
X12615080Y-20008254D02*
X12576985Y-20008254D01*
X12576985Y-20008254D02*
X12557937Y-19998730D01*
X12557937Y-19998730D02*
X12548413Y-19979682D01*
X12548413Y-19979682D02*
X12548413Y-19903492D01*
X12548413Y-19903492D02*
X12557937Y-19884444D01*
X12557937Y-19884444D02*
X12576985Y-19874920D01*
X12576985Y-19874920D02*
X12615080Y-19874920D01*
X12615080Y-19874920D02*
X12634128Y-19884444D01*
X12634128Y-19884444D02*
X12643652Y-19903492D01*
X12643652Y-19903492D02*
X12643652Y-19922539D01*
X12643652Y-19922539D02*
X12548413Y-19941587D01*
X12719842Y-19998730D02*
X12738890Y-20008254D01*
X12738890Y-20008254D02*
X12776985Y-20008254D01*
X12776985Y-20008254D02*
X12796033Y-19998730D01*
X12796033Y-19998730D02*
X12805556Y-19979682D01*
X12805556Y-19979682D02*
X12805556Y-19970158D01*
X12805556Y-19970158D02*
X12796033Y-19951111D01*
X12796033Y-19951111D02*
X12776985Y-19941587D01*
X12776985Y-19941587D02*
X12748413Y-19941587D01*
X12748413Y-19941587D02*
X12729366Y-19932063D01*
X12729366Y-19932063D02*
X12719842Y-19913016D01*
X12719842Y-19913016D02*
X12719842Y-19903492D01*
X12719842Y-19903492D02*
X12729366Y-19884444D01*
X12729366Y-19884444D02*
X12748413Y-19874920D01*
X12748413Y-19874920D02*
X12776985Y-19874920D01*
X12776985Y-19874920D02*
X12796033Y-19884444D01*
X12872223Y-20084444D02*
X12881747Y-20074920D01*
X12881747Y-20074920D02*
X12900794Y-20046349D01*
X12900794Y-20046349D02*
X12910318Y-20027301D01*
X12910318Y-20027301D02*
X12919842Y-19998730D01*
X12919842Y-19998730D02*
X12929366Y-19951111D01*
X12929366Y-19951111D02*
X12929366Y-19913016D01*
X12929366Y-19913016D02*
X12919842Y-19865397D01*
X12919842Y-19865397D02*
X12910318Y-19836825D01*
X12910318Y-19836825D02*
X12900794Y-19817778D01*
X12900794Y-19817778D02*
X12881747Y-19789206D01*
X12881747Y-19789206D02*
X12872223Y-19779682D01*
M02*
