0
SECTION
2
HEADER
9
$INSUNITS
70
4
0
ENDSEC
0
SECTION
2
TABLES
0
TABLE
2
LTYPE
0
LTYPE
72
65
70
64
2
CONTINUOUS
3
______
73
0
40
0
0
ENDTAB
0
TABLE
2
LAYER
0
ENDTAB
0
ENDSEC
0
SECTION
2
ENTITIES
0
LINE
8
0
10
92.6127397
20
-159.9336995
11
110.3392793
21
-156.8080323
0
LINE
8
0
10
110.3392793
20
-156.8080323
11
107.3872603
21
-140.0663005
0
LINE
8
0
10
107.3872603
20
-140.0663005
11
89.6607207
21
-143.1919677
0
LINE
8
0
10
89.6607207
20
-143.1919677
11
92.6127397
21
-159.9336995
0
LINE
8
0
10
89.3134243
20
-141.2223522
11
107.0399639
21
-138.096685
0
LINE
8
0
10
107.0399639
20
-138.096685
11
104.0879449
21
-121.3549532
0
LINE
8
0
10
104.0879449
20
-121.3549532
11
86.3614053
21
-124.4806204
0
LINE
8
0
10
86.3614053
20
-124.4806204
11
89.3134243
21
-141.2223522
0
LINE
8
0
10
86.0141089
20
-122.5110049
11
103.7406485
21
-119.3853377
0
LINE
8
0
10
103.7406485
20
-119.3853377
11
100.7886295
21
-102.6436059
0
LINE
8
0
10
100.7886295
20
-102.6436059
11
83.0620899
21
-105.7692731
0
LINE
8
0
10
83.0620899
20
-105.7692731
11
86.0141089
21
-122.5110049
0
LINE
8
0
10
82.7147935
20
-103.7996576
11
100.4413331
21
-100.6739904
0
LINE
8
0
10
100.4413331
20
-100.6739904
11
97.4893141
21
-83.9322586
0
LINE
8
0
10
97.4893141
20
-83.9322586
11
79.7627745
21
-87.0579258
0
LINE
8
0
10
79.7627745
20
-87.0579258
11
82.7147935
21
-103.7996576
0
LINE
8
0
10
111.324087
20
-156.6343841
11
129.0506266
21
-153.5087169
0
LINE
8
0
10
129.0506266
20
-153.5087169
11
126.0986076
21
-136.7669851
0
LINE
8
0
10
126.0986076
20
-136.7669851
11
108.372068
21
-139.8926523
0
LINE
8
0
10
108.372068
20
-139.8926523
11
111.324087
21
-156.6343841
0
LINE
8
0
10
108.0247716
20
-137.9230368
11
125.7513112
21
-134.7973696
0
LINE
8
0
10
125.7513112
20
-134.7973696
11
122.7992922
21
-118.0556378
0
LINE
8
0
10
122.7992922
20
-118.0556378
11
105.0727526
21
-121.181305
0
LINE
8
0
10
105.0727526
20
-121.181305
11
108.0247716
21
-137.9230368
0
LINE
8
0
10
104.7254562
20
-119.2116895
11
122.4519958
21
-116.0860223
0
LINE
8
0
10
122.4519958
20
-116.0860223
11
119.4999768
21
-99.3442905
0
LINE
8
0
10
119.4999768
20
-99.3442905
11
101.7734372
21
-102.4699577
0
LINE
8
0
10
101.7734372
20
-102.4699577
11
104.7254562
21
-119.2116895
0
LINE
8
0
10
101.4261408
20
-100.5003422
11
119.1526804
21
-97.374675
0
LINE
8
0
10
119.1526804
20
-97.374675
11
116.2006614
21
-80.6329432
0
LINE
8
0
10
116.2006614
20
-80.6329432
11
98.4741218
21
-83.7586104
0
LINE
8
0
10
98.4741218
20
-83.7586104
11
101.4261408
21
-100.5003422
0
LINE
8
0
10
126.4120713
20
-134.7397873
11
144.4120713
21
-134.7397873
0
LINE
8
0
10
144.4120713
20
-134.7397873
11
144.4120713
21
-117.7397873
0
LINE
8
0
10
144.4120713
20
-117.7397873
11
126.4120713
21
-117.7397873
0
LINE
8
0
10
126.4120713
20
-117.7397873
11
126.4120713
21
-134.7397873
0
LINE
8
0
10
126.4120713
20
-115.7397873
11
144.4120713
21
-115.7397873
0
LINE
8
0
10
144.4120713
20
-115.7397873
11
144.4120713
21
-98.7397873
0
LINE
8
0
10
144.4120713
20
-98.7397873
11
126.4120713
21
-98.7397873
0
LINE
8
0
10
126.4120713
20
-98.7397873
11
126.4120713
21
-115.7397873
0
LINE
8
0
10
126.4120713
20
-96.7397873
11
144.4120713
21
-96.7397873
0
LINE
8
0
10
144.4120713
20
-96.7397873
11
144.4120713
21
-79.7397873
0
LINE
8
0
10
144.4120713
20
-79.7397873
11
126.4120713
21
-79.7397873
0
LINE
8
0
10
126.4120713
20
-79.7397873
11
126.4120713
21
-96.7397873
0
LINE
8
0
10
126.4120713
20
-77.7397873
11
144.4120713
21
-77.7397873
0
LINE
8
0
10
144.4120713
20
-77.7397873
11
144.4120713
21
-60.7397873
0
LINE
8
0
10
144.4120713
20
-60.7397873
11
126.4120713
21
-60.7397873
0
LINE
8
0
10
126.4120713
20
-60.7397873
11
126.4120713
21
-77.7397873
0
LINE
8
0
10
145.4120713
20
-128.7397873
11
163.4120713
21
-128.7397873
0
LINE
8
0
10
163.4120713
20
-128.7397873
11
163.4120713
21
-111.7397873
0
LINE
8
0
10
163.4120713
20
-111.7397873
11
145.4120713
21
-111.7397873
0
LINE
8
0
10
145.4120713
20
-111.7397873
11
145.4120713
21
-128.7397873
0
LINE
8
0
10
145.4120713
20
-109.7397873
11
163.4120713
21
-109.7397873
0
LINE
8
0
10
163.4120713
20
-109.7397873
11
163.4120713
21
-92.7397873
0
LINE
8
0
10
163.4120713
20
-92.7397873
11
145.4120713
21
-92.7397873
0
LINE
8
0
10
145.4120713
20
-92.7397873
11
145.4120713
21
-109.7397873
0
LINE
8
0
10
145.4120713
20
-90.7397873
11
163.4120713
21
-90.7397873
0
LINE
8
0
10
163.4120713
20
-90.7397873
11
163.4120713
21
-73.7397873
0
LINE
8
0
10
163.4120713
20
-73.7397873
11
145.4120713
21
-73.7397873
0
LINE
8
0
10
145.4120713
20
-73.7397873
11
145.4120713
21
-90.7397873
0
LINE
8
0
10
145.4120713
20
-71.7397873
11
163.4120713
21
-71.7397873
0
LINE
8
0
10
163.4120713
20
-71.7397873
11
163.4120713
21
-54.7397873
0
LINE
8
0
10
163.4120713
20
-54.7397873
11
145.4120713
21
-54.7397873
0
LINE
8
0
10
145.4120713
20
-54.7397873
11
145.4120713
21
-71.7397873
0
LINE
8
0
10
164.4120713
20
-134.4064541
11
182.4120713
21
-134.4064541
0
LINE
8
0
10
182.4120713
20
-134.4064541
11
182.4120713
21
-117.4064541
0
LINE
8
0
10
182.4120713
20
-117.4064541
11
164.4120713
21
-117.4064541
0
LINE
8
0
10
164.4120713
20
-117.4064541
11
164.4120713
21
-134.4064541
0
LINE
8
0
10
164.4120713
20
-115.4064541
11
182.4120713
21
-115.4064541
0
LINE
8
0
10
182.4120713
20
-115.4064541
11
182.4120713
21
-98.4064541
0
LINE
8
0
10
182.4120713
20
-98.4064541
11
164.4120713
21
-98.4064541
0
LINE
8
0
10
164.4120713
20
-98.4064541
11
164.4120713
21
-115.4064541
0
LINE
8
0
10
164.4120713
20
-96.4064541
11
182.4120713
21
-96.4064541
0
LINE
8
0
10
182.4120713
20
-96.4064541
11
182.4120713
21
-79.4064541
0
LINE
8
0
10
182.4120713
20
-79.4064541
11
164.4120713
21
-79.4064541
0
LINE
8
0
10
164.4120713
20
-79.4064541
11
164.4120713
21
-96.4064541
0
LINE
8
0
10
164.4120713
20
-77.4064541
11
182.4120713
21
-77.4064541
0
LINE
8
0
10
182.4120713
20
-77.4064541
11
182.4120713
21
-60.4064541
0
LINE
8
0
10
182.4120713
20
-60.4064541
11
164.4120713
21
-60.4064541
0
LINE
8
0
10
164.4120713
20
-60.4064541
11
164.4120713
21
-77.4064541
0
LINE
8
0
10
183.4120713
20
-137.2397873
11
201.4120713
21
-137.2397873
0
LINE
8
0
10
201.4120713
20
-137.2397873
11
201.4120713
21
-120.2397873
0
LINE
8
0
10
201.4120713
20
-120.2397873
11
183.4120713
21
-120.2397873
0
LINE
8
0
10
183.4120713
20
-120.2397873
11
183.4120713
21
-137.2397873
0
LINE
8
0
10
183.4120713
20
-118.2397873
11
201.4120713
21
-118.2397873
0
LINE
8
0
10
201.4120713
20
-118.2397873
11
201.4120713
21
-101.2397873
0
LINE
8
0
10
201.4120713
20
-101.2397873
11
183.4120713
21
-101.2397873
0
LINE
8
0
10
183.4120713
20
-101.2397873
11
183.4120713
21
-118.2397873
0
LINE
8
0
10
183.4120713
20
-99.2397873
11
201.4120713
21
-99.2397873
0
LINE
8
0
10
201.4120713
20
-99.2397873
11
201.4120713
21
-82.2397873
0
LINE
8
0
10
201.4120713
20
-82.2397873
11
183.4120713
21
-82.2397873
0
LINE
8
0
10
183.4120713
20
-82.2397873
11
183.4120713
21
-99.2397873
0
LINE
8
0
10
183.4120713
20
-80.2397873
11
201.4120713
21
-80.2397873
0
LINE
8
0
10
201.4120713
20
-80.2397873
11
201.4120713
21
-63.2397873
0
LINE
8
0
10
201.4120713
20
-63.2397873
11
183.4120713
21
-63.2397873
0
LINE
8
0
10
183.4120713
20
-63.2397873
11
183.4120713
21
-80.2397873
0
LINE
8
0
10
172.572792
20
-156.5478196
11
190.2993316
21
-159.6734868
0
LINE
8
0
10
190.2993316
20
-159.6734868
11
193.2513506
21
-142.931755
0
LINE
8
0
10
193.2513506
20
-142.931755
11
175.524811
21
-139.8060878
0
LINE
8
0
10
175.524811
20
-139.8060878
11
172.572792
21
-156.5478196
0
LINE
8
0
10
196.8053717
20
-161.1334614
11
213.7198389
21
-167.289824
0
LINE
8
0
10
213.7198389
20
-167.289824
11
219.5341813
21
-151.3150494
0
LINE
8
0
10
219.5341813
20
-151.3150494
11
202.6197141
21
-145.1586868
0
LINE
8
0
10
202.6197141
20
-145.1586868
11
196.8053717
21
-161.1334614
0
LINE
8
0
10
203.3037544
20
-143.2793016
11
220.2182216
21
-149.4356642
0
LINE
8
0
10
220.2182216
20
-149.4356642
11
226.032564
21
-133.4608896
0
LINE
8
0
10
226.032564
20
-133.4608896
11
209.1180968
21
-127.304527
0
LINE
8
0
10
209.1180968
20
-127.304527
11
203.3037544
21
-143.2793016
0
LINE
8
0
10
214.23536
20
-167.8052594
11
229.8238172
21
-176.8052594
0
LINE
8
0
10
229.8238172
20
-176.8052594
11
238.3238172
21
-162.0828276
0
LINE
8
0
10
238.3238172
20
-162.0828276
11
222.73536
21
-153.0828276
0
LINE
8
0
10
222.73536
20
-153.0828276
11
214.23536
21
-167.8052594
0
LINE
8
0
10
223.73536
20
-151.3507767
11
239.3238172
21
-160.3507767
0
LINE
8
0
10
239.3238172
20
-160.3507767
11
247.8238172
21
-145.6283449
0
LINE
8
0
10
247.8238172
20
-145.6283449
11
232.23536
21
-136.6283449
0
LINE
8
0
10
232.23536
20
-136.6283449
11
223.73536
21
-151.3507767
0
ENDSEC
0
EOF