0
SECTION
2
HEADER
9
$INSUNITS
70
4
0
ENDSEC
0
SECTION
2
TABLES
0
TABLE
2
LTYPE
0
LTYPE
72
65
70
64
2
CONTINUOUS
3
______
73
0
40
0
0
ENDTAB
0
TABLE
2
LAYER
0
ENDTAB
0
ENDSEC
0
SECTION
2
ENTITIES
0
LINE
8
0
10
94.321883
20
-158.1091915
11
108.1091915
21
-155.678117
0
LINE
8
0
10
108.1091915
20
-155.678117
11
105.678117
21
-141.8908085
0
LINE
8
0
10
105.678117
20
-141.8908085
11
91.8908085
21
-144.321883
0
LINE
8
0
10
91.8908085
20
-144.321883
11
94.321883
21
-158.1091915
0
LINE
8
0
10
91.0225676
20
-139.3978442
11
104.8098761
21
-136.9667697
0
LINE
8
0
10
104.8098761
20
-136.9667697
11
102.3788016
21
-123.1794612
0
LINE
8
0
10
102.3788016
20
-123.1794612
11
88.5914931
21
-125.6105357
0
LINE
8
0
10
88.5914931
20
-125.6105357
11
91.0225676
21
-139.3978442
0
LINE
8
0
10
87.7232522
20
-120.6864969
11
101.5105607
21
-118.2554224
0
LINE
8
0
10
101.5105607
20
-118.2554224
11
99.0794862
21
-104.4681139
0
LINE
8
0
10
99.0794862
20
-104.4681139
11
85.2921777
21
-106.8991884
0
LINE
8
0
10
85.2921777
20
-106.8991884
11
87.7232522
21
-120.6864969
0
LINE
8
0
10
84.4239368
20
-101.9751496
11
98.2112453
21
-99.5440751
0
LINE
8
0
10
98.2112453
20
-99.5440751
11
95.7801708
21
-85.7567666
0
LINE
8
0
10
95.7801708
20
-85.7567666
11
81.9928623
21
-88.1878411
0
LINE
8
0
10
81.9928623
20
-88.1878411
11
84.4239368
21
-101.9751496
0
LINE
8
0
10
113.0332303
20
-154.8098761
11
126.8205388
21
-152.3788016
0
LINE
8
0
10
126.8205388
20
-152.3788016
11
124.3894643
21
-138.5914931
0
LINE
8
0
10
124.3894643
20
-138.5914931
11
110.6021558
21
-141.0225676
0
LINE
8
0
10
110.6021558
20
-141.0225676
11
113.0332303
21
-154.8098761
0
LINE
8
0
10
109.7339149
20
-136.0985288
11
123.5212234
21
-133.6674543
0
LINE
8
0
10
123.5212234
20
-133.6674543
11
121.0901489
21
-119.8801458
0
LINE
8
0
10
121.0901489
20
-119.8801458
11
107.3028404
21
-122.3112203
0
LINE
8
0
10
107.3028404
20
-122.3112203
11
109.7339149
21
-136.0985288
0
LINE
8
0
10
106.4345995
20
-117.3871815
11
120.221908
21
-114.956107
0
LINE
8
0
10
120.221908
20
-114.956107
11
117.7908335
21
-101.1687985
0
LINE
8
0
10
117.7908335
20
-101.1687985
11
104.003525
21
-103.599873
0
LINE
8
0
10
104.003525
20
-103.599873
11
106.4345995
21
-117.3871815
0
LINE
8
0
10
103.1352841
20
-98.6758342
11
116.9225926
21
-96.2447597
0
LINE
8
0
10
116.9225926
20
-96.2447597
11
114.4915181
21
-82.4574512
0
LINE
8
0
10
114.4915181
20
-82.4574512
11
100.7042096
21
-84.8885257
0
LINE
8
0
10
100.7042096
20
-84.8885257
11
103.1352841
21
-98.6758342
0
LINE
8
0
10
128.4120713
20
-133.2397873
11
142.4120713
21
-133.2397873
0
LINE
8
0
10
142.4120713
20
-133.2397873
11
142.4120713
21
-119.2397873
0
LINE
8
0
10
142.4120713
20
-119.2397873
11
128.4120713
21
-119.2397873
0
LINE
8
0
10
128.4120713
20
-119.2397873
11
128.4120713
21
-133.2397873
0
LINE
8
0
10
128.4120713
20
-114.2397873
11
142.4120713
21
-114.2397873
0
LINE
8
0
10
142.4120713
20
-114.2397873
11
142.4120713
21
-100.2397873
0
LINE
8
0
10
142.4120713
20
-100.2397873
11
128.4120713
21
-100.2397873
0
LINE
8
0
10
128.4120713
20
-100.2397873
11
128.4120713
21
-114.2397873
0
LINE
8
0
10
128.4120713
20
-95.2397873
11
142.4120713
21
-95.2397873
0
LINE
8
0
10
142.4120713
20
-95.2397873
11
142.4120713
21
-81.2397873
0
LINE
8
0
10
142.4120713
20
-81.2397873
11
128.4120713
21
-81.2397873
0
LINE
8
0
10
128.4120713
20
-81.2397873
11
128.4120713
21
-95.2397873
0
LINE
8
0
10
128.4120713
20
-76.2397873
11
142.4120713
21
-76.2397873
0
LINE
8
0
10
142.4120713
20
-76.2397873
11
142.4120713
21
-62.2397873
0
LINE
8
0
10
142.4120713
20
-62.2397873
11
128.4120713
21
-62.2397873
0
LINE
8
0
10
128.4120713
20
-62.2397873
11
128.4120713
21
-76.2397873
0
LINE
8
0
10
147.4120713
20
-127.2397873
11
161.4120713
21
-127.2397873
0
LINE
8
0
10
161.4120713
20
-127.2397873
11
161.4120713
21
-113.2397873
0
LINE
8
0
10
161.4120713
20
-113.2397873
11
147.4120713
21
-113.2397873
0
LINE
8
0
10
147.4120713
20
-113.2397873
11
147.4120713
21
-127.2397873
0
LINE
8
0
10
147.4120713
20
-108.2397873
11
161.4120713
21
-108.2397873
0
LINE
8
0
10
161.4120713
20
-108.2397873
11
161.4120713
21
-94.2397873
0
LINE
8
0
10
161.4120713
20
-94.2397873
11
147.4120713
21
-94.2397873
0
LINE
8
0
10
147.4120713
20
-94.2397873
11
147.4120713
21
-108.2397873
0
LINE
8
0
10
147.4120713
20
-89.2397873
11
161.4120713
21
-89.2397873
0
LINE
8
0
10
161.4120713
20
-89.2397873
11
161.4120713
21
-75.2397873
0
LINE
8
0
10
161.4120713
20
-75.2397873
11
147.4120713
21
-75.2397873
0
LINE
8
0
10
147.4120713
20
-75.2397873
11
147.4120713
21
-89.2397873
0
LINE
8
0
10
147.4120713
20
-70.2397873
11
161.4120713
21
-70.2397873
0
LINE
8
0
10
161.4120713
20
-70.2397873
11
161.4120713
21
-56.2397873
0
LINE
8
0
10
161.4120713
20
-56.2397873
11
147.4120713
21
-56.2397873
0
LINE
8
0
10
147.4120713
20
-56.2397873
11
147.4120713
21
-70.2397873
0
LINE
8
0
10
166.4120713
20
-132.9064541
11
180.4120713
21
-132.9064541
0
LINE
8
0
10
180.4120713
20
-132.9064541
11
180.4120713
21
-118.9064541
0
LINE
8
0
10
180.4120713
20
-118.9064541
11
166.4120713
21
-118.9064541
0
LINE
8
0
10
166.4120713
20
-118.9064541
11
166.4120713
21
-132.9064541
0
LINE
8
0
10
166.4120713
20
-113.9064541
11
180.4120713
21
-113.9064541
0
LINE
8
0
10
180.4120713
20
-113.9064541
11
180.4120713
21
-99.9064541
0
LINE
8
0
10
180.4120713
20
-99.9064541
11
166.4120713
21
-99.9064541
0
LINE
8
0
10
166.4120713
20
-99.9064541
11
166.4120713
21
-113.9064541
0
LINE
8
0
10
166.4120713
20
-94.9064541
11
180.4120713
21
-94.9064541
0
LINE
8
0
10
180.4120713
20
-94.9064541
11
180.4120713
21
-80.9064541
0
LINE
8
0
10
180.4120713
20
-80.9064541
11
166.4120713
21
-80.9064541
0
LINE
8
0
10
166.4120713
20
-80.9064541
11
166.4120713
21
-94.9064541
0
LINE
8
0
10
166.4120713
20
-75.9064541
11
180.4120713
21
-75.9064541
0
LINE
8
0
10
180.4120713
20
-75.9064541
11
180.4120713
21
-61.9064541
0
LINE
8
0
10
180.4120713
20
-61.9064541
11
166.4120713
21
-61.9064541
0
LINE
8
0
10
166.4120713
20
-61.9064541
11
166.4120713
21
-75.9064541
0
LINE
8
0
10
185.4120713
20
-135.7397873
11
199.4120713
21
-135.7397873
0
LINE
8
0
10
199.4120713
20
-135.7397873
11
199.4120713
21
-121.7397873
0
LINE
8
0
10
199.4120713
20
-121.7397873
11
185.4120713
21
-121.7397873
0
LINE
8
0
10
185.4120713
20
-121.7397873
11
185.4120713
21
-135.7397873
0
LINE
8
0
10
185.4120713
20
-116.7397873
11
199.4120713
21
-116.7397873
0
LINE
8
0
10
199.4120713
20
-116.7397873
11
199.4120713
21
-102.7397873
0
LINE
8
0
10
199.4120713
20
-102.7397873
11
185.4120713
21
-102.7397873
0
LINE
8
0
10
185.4120713
20
-102.7397873
11
185.4120713
21
-116.7397873
0
LINE
8
0
10
185.4120713
20
-97.7397873
11
199.4120713
21
-97.7397873
0
LINE
8
0
10
199.4120713
20
-97.7397873
11
199.4120713
21
-83.7397873
0
LINE
8
0
10
199.4120713
20
-83.7397873
11
185.4120713
21
-83.7397873
0
LINE
8
0
10
185.4120713
20
-83.7397873
11
185.4120713
21
-97.7397873
0
LINE
8
0
10
185.4120713
20
-78.7397873
11
199.4120713
21
-78.7397873
0
LINE
8
0
10
199.4120713
20
-78.7397873
11
199.4120713
21
-64.7397873
0
LINE
8
0
10
199.4120713
20
-64.7397873
11
185.4120713
21
-64.7397873
0
LINE
8
0
10
185.4120713
20
-64.7397873
11
185.4120713
21
-78.7397873
0
LINE
8
0
10
174.8028798
20
-155.4179043
11
188.5901883
21
-157.8489788
0
LINE
8
0
10
188.5901883
20
-157.8489788
11
191.0212628
21
-144.0616703
0
LINE
8
0
10
191.0212628
20
-144.0616703
11
177.2339543
21
-141.6305958
0
LINE
8
0
10
177.2339543
20
-141.6305958
11
174.8028798
21
-155.4179043
0
LINE
8
0
10
199.1977872
20
-160.4079627
11
212.3534838
21
-165.1962447
0
LINE
8
0
10
212.3534838
20
-165.1962447
11
217.1417658
21
-152.0405481
0
LINE
8
0
10
217.1417658
20
-152.0405481
11
203.9860692
21
-147.2522661
0
LINE
8
0
10
203.9860692
20
-147.2522661
11
199.1977872
21
-160.4079627
0
LINE
8
0
10
205.6961699
20
-142.5538029
11
218.8518665
21
-147.3420849
0
LINE
8
0
10
218.8518665
20
-147.3420849
11
223.6401485
21
-134.1863883
0
LINE
8
0
10
223.6401485
20
-134.1863883
11
210.4844519
21
-129.3981063
0
LINE
8
0
10
210.4844519
20
-129.3981063
11
205.6961699
21
-142.5538029
0
LINE
8
0
10
216.7174108
20
-167.5062213
11
228.8417664
21
-174.5062213
0
LINE
8
0
10
228.8417664
20
-174.5062213
11
235.8417664
21
-162.3818657
0
LINE
8
0
10
235.8417664
20
-162.3818657
11
223.7174108
21
-155.3818657
0
LINE
8
0
10
223.7174108
20
-155.3818657
11
216.7174108
21
-167.5062213
0
LINE
8
0
10
226.2174108
20
-151.0517386
11
238.3417664
21
-158.0517386
0
LINE
8
0
10
238.3417664
20
-158.0517386
11
245.3417664
21
-145.927383
0
LINE
8
0
10
245.3417664
20
-145.927383
11
233.2174108
21
-138.927383
0
LINE
8
0
10
233.2174108
20
-138.927383
11
226.2174108
21
-151.0517386
0
ENDSEC
0
EOF