0
SECTION
2
HEADER
9
$INSUNITS
70
4
0
ENDSEC
0
SECTION
2
TABLES
0
TABLE
2
LTYPE
0
LTYPE
72
65
70
64
2
CONTINUOUS
3
______
73
0
40
0
0
ENDTAB
0
TABLE
2
LAYER
0
ENDTAB
0
ENDSEC
0
SECTION
2
ENTITIES
0
LINE
8
0
10
92.5489049
20
-161.6503726
11
128.1985554
21
-156.640141
0
ARC
8
0
10
127.9202092
20
-154.6596049
40
2
50
277.9999999
51
368.0000001
0
LINE
8
0
10
127.8102071
20
-139.5063062
11
129.9007453
21
-154.3812587
0
LINE
8
0
10
127.8102071
20
-139.5063062
11
166.6131489
21
-139.5063062
0
LINE
8
0
10
166.6131489
20
-139.5063062
11
166.6131489
21
-156.5063062
0
ARC
8
0
10
168.6131489
20
-156.5063062
40
2
50
180
51
270
0
LINE
8
0
10
168.6131489
20
-158.5063062
11
186.1015252
21
-158.5063062
0
LINE
8
0
10
186.1015252
20
-158.5063062
11
202.4420701
21
-163.8156711
0
LINE
8
0
10
202.4420701
20
-163.8156711
11
216.7225567
21
-174.1910519
0
ARC
8
0
10
217.8981272
20
-172.5730179
40
2
50
234.0000001
51
324.0000005
0
LINE
8
0
10
219.5161612
20
-173.7485884
11
229.5085105
21
-159.9952995
0
ARC
8
0
10
227.8904765
20
-158.819729
40
2
50
324
51
413.9106056
0
LINE
8
0
10
229.0685701
20
-157.2035311
11
210.443175
21
-143.6269392
0
LINE
8
0
10
210.443175
20
-143.6269392
11
199.4131489
21
-130.286568
0
LINE
8
0
10
199.4131489
20
-130.286568
11
199.4131489
21
-71.5063062
0
ARC
8
0
10
197.4131489
20
-71.5063062
40
2
50
0
51
90
0
LINE
8
0
10
181.4131489
20
-69.5063061
11
197.4131489
21
-69.5063062
0
ARC
8
0
10
179.4131489
20
-69.5063061
40
2
50
0
51
90
0
LINE
8
0
10
163.413149
20
-67.5063063
11
179.4131489
21
-67.5063061
0
ARC
8
0
10
161.413149
20
-67.5063062
40
2
50
359.9999971
51
450
0
LINE
8
0
10
161.413149
20
-65.5063062
11
143.413149
21
-65.5063062
0
ARC
8
0
10
143.413149
20
-67.5063062
40
2
50
90
51
180
0
LINE
8
0
10
125.4131489
20
-67.5063062
11
141.413149
21
-67.5063062
0
ARC
8
0
10
125.4131489
20
-69.5063062
40
2
50
90
51
180
0
LINE
8
0
10
123.4131489
20
-84.6051008
11
123.4131489
21
-69.5063062
0
LINE
8
0
10
82.5284417
20
-90.3510716
11
123.4131489
21
-84.6051008
0
ARC
8
0
10
82.8067879
20
-92.3316077
40
2
50
98.0000001
51
187.9999999
0
LINE
8
0
10
80.8262518
20
-92.6099539
11
90.2900226
21
-159.9481827
0
ARC
8
0
10
92.2705587
20
-159.6698365
40
2
50
188.0000001
51
277.9999999
0
LINE
8
0
10
94.0423352
20
-157.9060882
11
107.9060882
21
-155.9576648
0
LINE
8
0
10
107.9060882
20
-155.9576648
11
105.9576648
21
-142.0939118
0
LINE
8
0
10
105.9576648
20
-142.0939118
11
92.0939118
21
-144.0423352
0
LINE
8
0
10
92.0939118
20
-144.0423352
11
94.0423352
21
-157.9060882
0
LINE
8
0
10
91.6763925
20
-141.071531
11
105.5401455
21
-139.1231076
0
LINE
8
0
10
105.5401455
20
-139.1231076
11
103.5917221
21
-125.2593546
0
LINE
8
0
10
103.5917221
20
-125.2593546
11
89.7279691
21
-127.207778
0
LINE
8
0
10
89.7279691
20
-127.207778
11
91.6763925
21
-141.071531
0
LINE
8
0
10
89.3104498
20
-124.2369738
11
103.1742028
21
-122.2885504
0
LINE
8
0
10
103.1742028
20
-122.2885504
11
101.2257794
21
-108.4247974
0
LINE
8
0
10
101.2257794
20
-108.4247974
11
87.3620264
21
-110.3732208
0
LINE
8
0
10
87.3620264
20
-110.3732208
11
89.3104498
21
-124.2369738
0
LINE
8
0
10
86.9445071
20
-107.4024166
11
100.8082601
21
-105.4539932
0
LINE
8
0
10
100.8082601
20
-105.4539932
11
98.8598367
21
-91.5902402
0
LINE
8
0
10
98.8598367
20
-91.5902402
11
84.9960837
21
-93.5386636
0
LINE
8
0
10
84.9960837
20
-93.5386636
11
86.9445071
21
-107.4024166
0
LINE
8
0
10
111.8671604
20
-155.4009724
11
125.7309134
21
-153.452549
0
LINE
8
0
10
125.7309134
20
-153.452549
11
123.78249
21
-139.588796
0
LINE
8
0
10
123.78249
20
-139.588796
11
109.918737
21
-141.5372194
0
LINE
8
0
10
109.918737
20
-141.5372194
11
111.8671604
21
-155.4009724
0
LINE
8
0
10
109.5012177
20
-138.5664152
11
123.3649707
21
-136.6179918
0
LINE
8
0
10
123.3649707
20
-136.6179918
11
121.4165473
21
-122.7542388
0
LINE
8
0
10
121.4165473
20
-122.7542388
11
107.5527943
21
-124.7026622
0
LINE
8
0
10
107.5527943
20
-124.7026622
11
109.5012177
21
-138.5664152
0
LINE
8
0
10
107.135275
20
-121.731858
11
120.999028
21
-119.7834346
0
LINE
8
0
10
120.999028
20
-119.7834346
11
119.0506046
21
-105.9196816
0
LINE
8
0
10
119.0506046
20
-105.9196816
11
105.1868516
21
-107.868105
0
LINE
8
0
10
105.1868516
20
-107.868105
11
107.135275
21
-121.731858
0
LINE
8
0
10
104.7693323
20
-104.8973008
11
118.6330853
21
-102.9488774
0
LINE
8
0
10
118.6330853
20
-102.9488774
11
116.6846619
21
-89.0851244
0
LINE
8
0
10
116.6846619
20
-89.0851244
11
102.8209089
21
-91.0335478
0
LINE
8
0
10
102.8209089
20
-91.0335478
11
104.7693323
21
-104.8973008
0
LINE
8
0
10
127.4131489
20
-136.0063062
11
141.4131489
21
-136.0063062
0
LINE
8
0
10
141.4131489
20
-136.0063062
11
141.4131489
21
-122.0063062
0
LINE
8
0
10
141.4131489
20
-122.0063062
11
127.4131489
21
-122.0063062
0
LINE
8
0
10
127.4131489
20
-122.0063062
11
127.4131489
21
-136.0063062
0
LINE
8
0
10
127.4131489
20
-119.0063062
11
141.4131489
21
-119.0063062
0
LINE
8
0
10
141.4131489
20
-119.0063062
11
141.4131489
21
-105.0063062
0
LINE
8
0
10
141.4131489
20
-105.0063062
11
127.4131489
21
-105.0063062
0
LINE
8
0
10
127.4131489
20
-105.0063062
11
127.4131489
21
-119.0063062
0
LINE
8
0
10
127.4131489
20
-102.0063062
11
141.4131489
21
-102.0063062
0
LINE
8
0
10
141.4131489
20
-102.0063062
11
141.4131489
21
-88.0063062
0
LINE
8
0
10
141.4131489
20
-88.0063062
11
127.4131489
21
-88.0063062
0
LINE
8
0
10
127.4131489
20
-88.0063062
11
127.4131489
21
-102.0063062
0
LINE
8
0
10
127.4131489
20
-85.0063062
11
141.4131489
21
-85.0063062
0
LINE
8
0
10
141.4131489
20
-85.0063062
11
141.4131489
21
-71.0063062
0
LINE
8
0
10
141.4131489
20
-71.0063062
11
127.4131489
21
-71.0063062
0
LINE
8
0
10
127.4131489
20
-71.0063062
11
127.4131489
21
-85.0063062
0
LINE
8
0
10
145.413149
20
-134.0063062
11
159.413149
21
-134.0063062
0
LINE
8
0
10
159.413149
20
-134.0063062
11
159.413149
21
-120.0063062
0
LINE
8
0
10
159.413149
20
-120.0063062
11
145.413149
21
-120.0063062
0
LINE
8
0
10
145.413149
20
-120.0063062
11
145.413149
21
-134.0063062
0
LINE
8
0
10
145.413149
20
-117.0063062
11
159.413149
21
-117.0063062
0
LINE
8
0
10
159.413149
20
-117.0063062
11
159.413149
21
-103.0063062
0
LINE
8
0
10
159.413149
20
-103.0063062
11
145.413149
21
-103.0063062
0
LINE
8
0
10
145.413149
20
-103.0063062
11
145.413149
21
-117.0063062
0
LINE
8
0
10
145.413149
20
-100.0063062
11
159.413149
21
-100.0063062
0
LINE
8
0
10
159.413149
20
-100.0063062
11
159.413149
21
-86.0063062
0
LINE
8
0
10
159.413149
20
-86.0063062
11
145.413149
21
-86.0063062
0
LINE
8
0
10
145.413149
20
-86.0063062
11
145.413149
21
-100.0063062
0
LINE
8
0
10
145.413149
20
-83.0063062
11
159.413149
21
-83.0063062
0
LINE
8
0
10
159.413149
20
-83.0063062
11
159.413149
21
-69.0063062
0
LINE
8
0
10
159.413149
20
-69.0063062
11
145.413149
21
-69.0063062
0
LINE
8
0
10
145.413149
20
-69.0063062
11
145.413149
21
-83.0063062
0
LINE
8
0
10
163.4131489
20
-136.0063061
11
177.4131489
21
-136.0063061
0
LINE
8
0
10
177.4131489
20
-136.0063061
11
177.4131489
21
-122.0063061
0
LINE
8
0
10
177.4131489
20
-122.0063061
11
163.4131489
21
-122.0063061
0
LINE
8
0
10
163.4131489
20
-122.0063061
11
163.4131489
21
-136.0063061
0
LINE
8
0
10
163.4131489
20
-119.0063061
11
177.4131489
21
-119.0063061
0
LINE
8
0
10
177.4131489
20
-119.0063061
11
177.4131489
21
-105.0063061
0
LINE
8
0
10
177.4131489
20
-105.0063061
11
163.4131489
21
-105.0063061
0
LINE
8
0
10
163.4131489
20
-105.0063061
11
163.4131489
21
-119.0063061
0
LINE
8
0
10
163.4131489
20
-102.0063061
11
177.4131489
21
-102.0063061
0
LINE
8
0
10
177.4131489
20
-102.0063061
11
177.4131489
21
-88.0063061
0
LINE
8
0
10
177.4131489
20
-88.0063061
11
163.4131489
21
-88.0063061
0
LINE
8
0
10
163.4131489
20
-88.0063061
11
163.4131489
21
-102.0063061
0
LINE
8
0
10
163.4131489
20
-85.0063061
11
177.4131489
21
-85.0063061
0
LINE
8
0
10
177.4131489
20
-85.0063061
11
177.4131489
21
-71.0063061
0
LINE
8
0
10
177.4131489
20
-71.0063061
11
163.4131489
21
-71.0063061
0
LINE
8
0
10
163.4131489
20
-71.0063061
11
163.4131489
21
-85.0063061
0
LINE
8
0
10
181.4131489
20
-138.0063062
11
195.4131489
21
-138.0063062
0
LINE
8
0
10
195.4131489
20
-138.0063062
11
195.4131489
21
-124.0063062
0
LINE
8
0
10
195.4131489
20
-124.0063062
11
181.4131489
21
-124.0063062
0
LINE
8
0
10
181.4131489
20
-124.0063062
11
181.4131489
21
-138.0063062
0
LINE
8
0
10
181.4131489
20
-121.0063062
11
195.4131489
21
-121.0063062
0
LINE
8
0
10
195.4131489
20
-121.0063062
11
195.4131489
21
-107.0063062
0
LINE
8
0
10
195.4131489
20
-107.0063062
11
181.4131489
21
-107.0063062
0
LINE
8
0
10
181.4131489
20
-107.0063062
11
181.4131489
21
-121.0063062
0
LINE
8
0
10
181.4131489
20
-104.0063062
11
195.4131489
21
-104.0063062
0
LINE
8
0
10
195.4131489
20
-104.0063062
11
195.4131489
21
-90.0063062
0
LINE
8
0
10
195.4131489
20
-90.0063062
11
181.4131489
21
-90.0063062
0
LINE
8
0
10
181.4131489
20
-90.0063062
11
181.4131489
21
-104.0063062
0
LINE
8
0
10
181.4131489
20
-87.0063062
11
195.4131489
21
-87.0063062
0
LINE
8
0
10
195.4131489
20
-87.0063062
11
195.4131489
21
-73.0063062
0
LINE
8
0
10
195.4131489
20
-73.0063062
11
181.4131489
21
-73.0063062
0
LINE
8
0
10
181.4131489
20
-73.0063062
11
181.4131489
21
-87.0063062
0
LINE
8
0
10
170.6131489
20
-155.0063062
11
184.6131489
21
-155.0063062
0
LINE
8
0
10
184.6131489
20
-155.0063062
11
184.6131489
21
-141.0063062
0
LINE
8
0
10
184.6131489
20
-141.0063062
11
170.6131489
21
-141.0063062
0
LINE
8
0
10
170.6131489
20
-141.0063062
11
170.6131489
21
-155.0063062
0
LINE
8
0
10
188.7926343
20
-155.7005829
11
202.1074256
21
-160.0268208
0
LINE
8
0
10
202.1074256
20
-160.0268208
11
206.4336635
21
-146.7120295
0
LINE
8
0
10
206.4336635
20
-146.7120295
11
193.1188722
21
-142.3857916
0
LINE
8
0
10
193.1188722
20
-142.3857916
11
188.7926343
21
-155.7005829
0
LINE
8
0
10
205.8355332
20
-161.9549284
11
217.1617711
21
-170.1839219
0
LINE
8
0
10
217.1617711
20
-170.1839219
11
225.3907646
21
-158.857684
0
LINE
8
0
10
225.3907646
20
-158.857684
11
214.0645267
21
-150.6286905
0
LINE
8
0
10
214.0645267
20
-150.6286905
11
205.8355332
21
-161.9549284
0
ENDSEC
0
EOF