0
SECTION
2
HEADER
9
$INSUNITS
70
4
0
ENDSEC
0
SECTION
2
TABLES
0
TABLE
2
LTYPE
0
LTYPE
72
65
70
64
2
CONTINUOUS
3
______
73
0
40
0
0
ENDTAB
0
TABLE
2
LAYER
0
ENDTAB
0
ENDSEC
0
SECTION
2
ENTITIES
0
LINE
8
0
10
225.0923238
20
-153.7511196
11
229.0132719
21
-157.2971666
0
LINE
8
0
10
229.2897866
20
-159.9560868
11
219.5306934
21
-173.3883264
0
LINE
8
0
10
216.7370888
20
-173.8307897
11
203.9127706
21
-164.5133771
0
LINE
8
0
10
203.6613232
20
-164.3577154
11
201.4564803
21
-163.2089579
0
LINE
8
0
10
201.1503912
20
-163.0805405
11
187.7525218
21
-158.7273089
0
LINE
8
0
10
187.4695302
20
-158.6576849
11
184.9794778
21
-158.2345692
0
LINE
8
0
10
184.6444354
20
-158.2063062
11
167.6734126
21
-158.2063062
0
LINE
8
0
10
166.2215071
20
-157.5817954
11
162.0047908
21
-153.130817
0
LINE
8
0
10
160.5528853
20
-152.5063062
11
135.1158052
21
-152.5063062
0
LINE
8
0
10
133.8648944
20
-152.9457864
11
130.3678888
21
-155.7489816
0
LINE
8
0
10
92.7052066
20
-161.3254576
11
129.3953242
21
-156.1689979
0
LINE
8
0
10
90.4463243
20
-159.6232677
11
81.0660573
21
-92.8791997
0
LINE
8
0
10
82.7682472
20
-90.6203174
11
99.8437761
21
-88.2205083
0
LINE
8
0
10
100.8269701
20
-87.7919118
11
124.8619475
21
-68.2543666
0
LINE
8
0
10
126.1234877
20
-67.8063062
11
141.0569838
21
-67.8063062
0
LINE
8
0
10
142.0894716
20
-67.5191894
11
144.7259162
21
-65.9299993
0
LINE
8
0
10
145.7820134
20
-65.643022
11
159.1075106
21
-65.8003369
0
LINE
8
0
10
160.055187
20
-66.0518829
11
162.7601152
21
-67.5546207
0
LINE
8
0
10
163.731401
20
-67.8063061
11
178.5224241
21
-67.8063061
0
LINE
8
0
10
180.0090125
20
-68.4683767
11
181.2131489
21
-69.8063062
0
LINE
8
0
10
181.2131489
20
-69.8063062
11
196.2089861
21
-69.8063062
0
LINE
8
0
10
197.9765619
20
-70.8705308
11
198.6497359
21
-72.1420816
0
LINE
8
0
10
200.4173117
20
-73.2063062
11
222.4131489
21
-73.2063062
0
LINE
8
0
10
224.4131489
20
-75.2063062
11
224.4131489
21
-148.0014499
0
LINE
8
0
10
224.4131724
20
-148.0111509
11
224.4338666
21
-152.2774709
0
ARC
8
0
10
227.6717526
20
-158.7805162
40
2
50
323.999998
51
47.8742805
0
ARC
8
0
10
217.9126594
20
-172.2127558
40
2
50
233.999998
51
323.999998
0
ARC
8
0
10
202.7372
20
-166.131411
40
2
50
53.999998
51
62.4797828
0
ARC
8
0
10
200.5323572
20
-164.9826535
40
2
50
62.4797828
51
71.9999994
0
ARC
8
0
10
187.1344878
20
-160.6294219
40
2
50
71.9999994
51
80.3562727
0
ARC
8
0
10
184.6444354
20
-160.2063062
40
2
50
80.3562727
51
90
0
ARC
8
0
10
167.6734126
20
-156.2063062
40
2
50
223.4518397
51
270
0
ARC
8
0
10
160.5528853
20
-154.5063062
40
2
50
43.4518397
51
90
0
ARC
8
0
10
135.1158052
20
-154.5063062
40
2
50
90
51
128.7156211
0
ARC
8
0
10
129.116978
20
-154.1884617
40
2
50
277.9999997
51
308.7156211
0
ARC
8
0
10
92.4268604
20
-159.3449215
40
2
50
187.9999997
51
277.9999997
0
ARC
8
0
10
83.0465934
20
-92.6008535
40
2
50
97.9999997
51
187.9999997
0
ARC
8
0
10
99.5654299
20
-86.2399722
40
2
50
277.9999997
51
309.1069608
0
ARC
8
0
10
126.1234877
20
-69.8063062
40
2
50
90
51
129.1069608
0
ARC
8
0
10
141.0569838
20
-65.8063062
40
2
50
270
51
301.0806357
0
ARC
8
0
10
145.758404
20
-67.6428826
40
2
50
89.3236248
51
121.0806357
0
ARC
8
0
10
159.0839012
20
-67.8001975
40
2
50
60.9453981
51
89.3236248
0
ARC
8
0
10
163.731401
20
-65.8063061
40
2
50
240.9453981
51
270
0
ARC
8
0
10
178.5224241
20
-69.8063061
40
2
50
41.9872091
51
90
0
ARC
8
0
10
196.2089861
20
-71.8063062
40
2
50
27.8972704
51
90
0
ARC
8
0
10
200.4173117
20
-71.2063062
40
2
50
207.8972704
51
270
0
ARC
8
0
10
222.4131489
20
-75.2063062
40
2
50
0
51
90
0
ARC
8
0
10
226.4131489
20
-148.0014499
40
2
50
180
51
180.2779143
0
ARC
8
0
10
226.4338431
20
-152.2677699
40
2
50
180.2779143
51
227.8742805
0
LINE
8
0
10
94.4638686
20
-159.10913
11
107.8324876
21
-157.2302931
0
LINE
8
0
10
109.5346775
20
-154.9714108
11
107.7950137
21
-142.5930599
0
LINE
8
0
10
105.5361314
20
-140.89087
11
92.1675124
21
-142.7697069
0
LINE
8
0
10
90.4653225
20
-145.0285892
11
92.2049863
21
-157.4069401
0
LINE
8
0
10
92.0979259
20
-142.2745728
11
105.4665449
21
-140.3957359
0
LINE
8
0
10
107.1687348
20
-138.1368536
11
105.429071
21
-125.7585027
0
LINE
8
0
10
103.1701887
20
-124.0563128
11
89.8015697
21
-125.9351497
0
LINE
8
0
10
88.0993798
20
-128.194032
11
89.8390436
21
-140.5723829
0
LINE
8
0
10
89.7319832
20
-125.4400156
11
103.1006022
21
-123.5611787
0
LINE
8
0
10
104.8027921
20
-121.3022964
11
103.0631283
21
-108.9239455
0
LINE
8
0
10
100.804246
20
-107.2217556
11
87.435627
21
-109.1005925
0
LINE
8
0
10
85.7334371
20
-111.3594748
11
87.4731009
21
-123.7378257
0
LINE
8
0
10
87.3660405
20
-108.6054584
11
100.7346595
21
-106.7266215
0
LINE
8
0
10
102.4368494
20
-104.4677392
11
100.6971856
21
-92.0893883
0
LINE
8
0
10
98.4383033
20
-90.3871984
11
85.0696843
21
-92.2660353
0
LINE
8
0
10
83.3674944
20
-94.5249176
11
85.1071582
21
-106.9032685
0
LINE
8
0
10
112.2886938
20
-156.6040142
11
125.6573128
21
-154.7251773
0
LINE
8
0
10
127.3595027
20
-152.466295
11
125.6198389
21
-140.0879441
0
LINE
8
0
10
123.3609566
20
-138.3857542
11
109.9923376
21
-140.2645911
0
LINE
8
0
10
108.2901477
20
-142.5234734
11
110.0298115
21
-154.9018243
0
LINE
8
0
10
109.9227511
20
-139.769457
11
123.2913701
21
-137.8906201
0
LINE
8
0
10
124.99356
20
-135.6317378
11
123.2538962
21
-123.2533869
0
LINE
8
0
10
120.9950139
20
-121.551197
11
107.6263949
21
-123.4300339
0
LINE
8
0
10
105.924205
20
-125.6889162
11
107.6638688
21
-138.0672671
0
LINE
8
0
10
107.5568084
20
-122.9348998
11
120.9254274
21
-121.0560629
0
LINE
8
0
10
122.6276173
20
-118.7971806
11
120.8879535
21
-106.4188297
0
LINE
8
0
10
118.6290712
20
-104.7166398
11
105.2604522
21
-106.5954767
0
LINE
8
0
10
103.5582623
20
-108.854359
11
105.2979261
21
-121.2327099
0
LINE
8
0
10
105.1908657
20
-106.1003426
11
118.5594847
21
-104.2215057
0
LINE
8
0
10
120.2616746
20
-101.9626234
11
118.5220108
21
-89.5842725
0
LINE
8
0
10
116.2631285
20
-87.8820826
11
102.8945095
21
-89.7609195
0
LINE
8
0
10
101.1923196
20
-92.0198018
11
102.9319834
21
-104.3981527
0
LINE
8
0
10
127.6631489
20
-137.2563062
11
141.1631489
21
-137.2563062
0
LINE
8
0
10
143.1631489
20
-135.2563062
11
143.1631489
21
-122.7563062
0
LINE
8
0
10
141.1631489
20
-120.7563062
11
127.6631489
21
-120.7563062
0
LINE
8
0
10
125.6631489
20
-122.7563062
11
125.6631489
21
-135.2563062
0
LINE
8
0
10
127.6631489
20
-120.2563062
11
141.1631489
21
-120.2563062
0
LINE
8
0
10
143.1631489
20
-118.2563062
11
143.1631489
21
-105.7563062
0
LINE
8
0
10
141.1631489
20
-103.7563062
11
127.6631489
21
-103.7563062
0
LINE
8
0
10
125.6631489
20
-105.7563062
11
125.6631489
21
-118.2563062
0
LINE
8
0
10
127.6631489
20
-103.2563062
11
141.1631489
21
-103.2563062
0
LINE
8
0
10
143.1631489
20
-101.2563062
11
143.1631489
21
-88.7563062
0
LINE
8
0
10
141.1631489
20
-86.7563062
11
127.6631489
21
-86.7563062
0
LINE
8
0
10
125.6631489
20
-88.7563062
11
125.6631489
21
-101.2563062
0
LINE
8
0
10
127.6631489
20
-86.2563062
11
141.1631489
21
-86.2563062
0
LINE
8
0
10
143.1631489
20
-84.2563062
11
143.1631489
21
-71.7563062
0
LINE
8
0
10
141.1631489
20
-69.7563062
11
127.6631489
21
-69.7563062
0
LINE
8
0
10
125.6631489
20
-71.7563062
11
125.6631489
21
-84.2563062
0
LINE
8
0
10
145.663149
20
-135.2563062
11
159.163149
21
-135.2563062
0
LINE
8
0
10
161.163149
20
-133.2563062
11
161.163149
21
-120.7563062
0
LINE
8
0
10
159.163149
20
-118.7563062
11
145.663149
21
-118.7563062
0
LINE
8
0
10
143.663149
20
-120.7563062
11
143.663149
21
-133.2563062
0
LINE
8
0
10
145.663149
20
-118.2563062
11
159.163149
21
-118.2563062
0
LINE
8
0
10
161.163149
20
-116.2563062
11
161.163149
21
-103.7563062
0
LINE
8
0
10
159.163149
20
-101.7563062
11
145.663149
21
-101.7563062
0
LINE
8
0
10
143.663149
20
-103.7563062
11
143.663149
21
-116.2563062
0
LINE
8
0
10
145.663149
20
-101.2563062
11
159.163149
21
-101.2563062
0
LINE
8
0
10
161.163149
20
-99.2563062
11
161.163149
21
-86.7563062
0
LINE
8
0
10
159.163149
20
-84.7563062
11
145.663149
21
-84.7563062
0
LINE
8
0
10
143.663149
20
-86.7563062
11
143.663149
21
-99.2563062
0
LINE
8
0
10
145.663149
20
-84.2563062
11
159.163149
21
-84.2563062
0
LINE
8
0
10
161.163149
20
-82.2563062
11
161.163149
21
-69.7563062
0
LINE
8
0
10
159.163149
20
-67.7563062
11
145.663149
21
-67.7563062
0
LINE
8
0
10
143.663149
20
-69.7563062
11
143.663149
21
-82.2563062
0
LINE
8
0
10
163.6631489
20
-137.2563061
11
177.1631489
21
-137.2563061
0
LINE
8
0
10
179.1631489
20
-135.2563061
11
179.1631489
21
-122.7563061
0
LINE
8
0
10
177.1631489
20
-120.7563061
11
163.6631489
21
-120.7563061
0
LINE
8
0
10
161.6631489
20
-122.7563061
11
161.6631489
21
-135.2563061
0
LINE
8
0
10
163.6631489
20
-120.2563061
11
177.1631489
21
-120.2563061
0
LINE
8
0
10
179.1631489
20
-118.2563061
11
179.1631489
21
-105.7563061
0
LINE
8
0
10
177.1631489
20
-103.7563061
11
163.6631489
21
-103.7563061
0
LINE
8
0
10
161.6631489
20
-105.7563061
11
161.6631489
21
-118.2563061
0
LINE
8
0
10
163.6631489
20
-103.2563061
11
177.1631489
21
-103.2563061
0
LINE
8
0
10
179.1631489
20
-101.2563061
11
179.1631489
21
-88.7563061
0
LINE
8
0
10
177.1631489
20
-86.7563061
11
163.6631489
21
-86.7563061
0
LINE
8
0
10
161.6631489
20
-88.7563061
11
161.6631489
21
-101.2563061
0
LINE
8
0
10
163.6631489
20
-86.2563061
11
177.1631489
21
-86.2563061
0
LINE
8
0
10
179.1631489
20
-84.2563061
11
179.1631489
21
-71.7563061
0
LINE
8
0
10
177.1631489
20
-69.7563061
11
163.6631489
21
-69.7563061
0
LINE
8
0
10
161.6631489
20
-71.7563061
11
161.6631489
21
-84.2563061
0
LINE
8
0
10
181.6631489
20
-139.2563062
11
195.1631489
21
-139.2563062
0
LINE
8
0
10
197.1631489
20
-137.2563062
11
197.1631489
21
-124.7563062
0
LINE
8
0
10
195.1631489
20
-122.7563062
11
181.6631489
21
-122.7563062
0
LINE
8
0
10
179.6631489
20
-124.7563062
11
179.6631489
21
-137.2563062
0
LINE
8
0
10
181.6631489
20
-122.2563062
11
195.1631489
21
-122.2563062
0
LINE
8
0
10
197.1631489
20
-120.2563062
11
197.1631489
21
-107.7563062
0
LINE
8
0
10
195.1631489
20
-105.7563062
11
181.6631489
21
-105.7563062
0
LINE
8
0
10
179.6631489
20
-107.7563062
11
179.6631489
21
-120.2563062
0
LINE
8
0
10
181.6631489
20
-105.2563062
11
195.1631489
21
-105.2563062
0
LINE
8
0
10
197.1631489
20
-103.2563062
11
197.1631489
21
-90.7563062
0
LINE
8
0
10
195.1631489
20
-88.7563062
11
181.6631489
21
-88.7563062
0
LINE
8
0
10
179.6631489
20
-90.7563062
11
179.6631489
21
-103.2563062
0
LINE
8
0
10
181.6631489
20
-88.2563062
11
195.1631489
21
-88.2563062
0
LINE
8
0
10
197.1631489
20
-86.2563062
11
197.1631489
21
-73.7563062
0
LINE
8
0
10
195.1631489
20
-71.7563062
11
181.6631489
21
-71.7563062
0
LINE
8
0
10
179.6631489
20
-73.7563062
11
179.6631489
21
-86.2563062
0
LINE
8
0
10
170.8631489
20
-156.2563062
11
184.3631489
21
-156.2563062
0
LINE
8
0
10
186.3631489
20
-154.2563062
11
186.3631489
21
-141.7563062
0
LINE
8
0
10
184.3631489
20
-139.7563062
11
170.8631489
21
-139.7563062
0
LINE
8
0
10
168.8631489
20
-141.7563062
11
168.8631489
21
-154.2563062
0
LINE
8
0
10
188.6441272
20
-156.9666578
11
201.4833902
21
-161.1383872
0
LINE
8
0
10
204.0035372
20
-159.8543082
11
207.8662496
21
-147.9661016
0
LINE
8
0
10
206.5821706
20
-145.4459546
11
193.7429076
21
-141.2742252
0
LINE
8
0
10
191.2227606
20
-142.5583042
11
187.3600482
21
-154.4465108
0
LINE
8
0
10
205.3030558
20
-163.1131459
11
216.2247852
21
-171.0482468
0
LINE
8
0
10
219.0183898
20
-170.6057835
11
226.3657054
21
-160.493071
0
LINE
8
0
10
225.923242
20
-157.6994665
11
215.0015126
21
-149.7643656
0
LINE
8
0
10
212.207908
20
-150.2068289
11
204.8605924
21
-160.3195414
0
ARC
8
0
10
202.1014242
20
-159.2362742
40
2
50
251.9999994
51
341.9999994
0
ARC
8
0
10
205.9641366
20
-147.3480676
40
2
50
341.9999994
51
71.9999994
0
ARC
8
0
10
193.1248736
20
-143.1763382
40
2
50
71.9999994
51
161.9999994
0
ARC
8
0
10
189.2621612
20
-155.0645448
40
2
50
161.9999994
51
251.9999994
0
ARC
8
0
10
217.4003558
20
-169.4302129
40
2
50
233.999998
51
323.999998
0
ARC
8
0
10
224.7476714
20
-159.3175005
40
2
50
323.999998
51
53.999998
0
ARC
8
0
10
213.825942
20
-151.3823995
40
2
50
53.999998
51
143.999998
0
ARC
8
0
10
206.4786264
20
-161.4951119
40
2
50
143.999998
51
233.999998
0
ARC
8
0
10
141.1631489
20
-135.2563062
40
2
50
270
51
0
0
ARC
8
0
10
141.1631489
20
-122.7563062
40
2
50
0
51
90
0
ARC
8
0
10
127.6631489
20
-122.7563062
40
2
50
90
51
180
0
ARC
8
0
10
127.6631489
20
-135.2563062
40
2
50
180
51
270
0
ARC
8
0
10
141.1631489
20
-118.2563062
40
2
50
270
51
0
0
ARC
8
0
10
141.1631489
20
-105.7563062
40
2
50
0
51
90
0
ARC
8
0
10
127.6631489
20
-105.7563062
40
2
50
90
51
180
0
ARC
8
0
10
127.6631489
20
-118.2563062
40
2
50
180
51
270
0
ARC
8
0
10
141.1631489
20
-101.2563062
40
2
50
270
51
0
0
ARC
8
0
10
141.1631489
20
-88.7563062
40
2
50
0
51
90
0
ARC
8
0
10
127.6631489
20
-88.7563062
40
2
50
90
51
180
0
ARC
8
0
10
127.6631489
20
-101.2563062
40
2
50
180
51
270
0
ARC
8
0
10
141.1631489
20
-84.2563062
40
2
50
270
51
0
0
ARC
8
0
10
141.1631489
20
-71.7563062
40
2
50
0
51
90
0
ARC
8
0
10
127.6631489
20
-71.7563062
40
2
50
90
51
180
0
ARC
8
0
10
127.6631489
20
-84.2563062
40
2
50
180
51
270
0
ARC
8
0
10
159.163149
20
-133.2563062
40
2
50
270
51
0
0
ARC
8
0
10
159.163149
20
-120.7563062
40
2
50
0
51
90
0
ARC
8
0
10
145.663149
20
-120.7563062
40
2
50
90
51
180
0
ARC
8
0
10
145.663149
20
-133.2563062
40
2
50
180
51
270
0
ARC
8
0
10
159.163149
20
-116.2563062
40
2
50
270
51
0
0
ARC
8
0
10
159.163149
20
-103.7563062
40
2
50
0
51
90
0
ARC
8
0
10
145.663149
20
-103.7563062
40
2
50
90
51
180
0
ARC
8
0
10
145.663149
20
-116.2563062
40
2
50
180
51
270
0
ARC
8
0
10
159.163149
20
-99.2563062
40
2
50
270
51
0
0
ARC
8
0
10
159.163149
20
-86.7563062
40
2
50
0
51
90
0
ARC
8
0
10
145.663149
20
-86.7563062
40
2
50
90
51
180
0
ARC
8
0
10
145.663149
20
-99.2563062
40
2
50
180
51
270
0
ARC
8
0
10
159.163149
20
-82.2563062
40
2
50
270
51
0
0
ARC
8
0
10
159.163149
20
-69.7563062
40
2
50
0
51
90
0
ARC
8
0
10
145.663149
20
-69.7563062
40
2
50
90
51
180
0
ARC
8
0
10
145.663149
20
-82.2563062
40
2
50
180
51
270
0
ARC
8
0
10
177.1631489
20
-135.2563061
40
2
50
270
51
0
0
ARC
8
0
10
177.1631489
20
-122.7563061
40
2
50
0
51
90
0
ARC
8
0
10
163.6631489
20
-122.7563061
40
2
50
90
51
180
0
ARC
8
0
10
163.6631489
20
-135.2563061
40
2
50
180
51
270
0
ARC
8
0
10
177.1631489
20
-118.2563061
40
2
50
270
51
0
0
ARC
8
0
10
177.1631489
20
-105.7563061
40
2
50
0
51
90
0
ARC
8
0
10
163.6631489
20
-105.7563061
40
2
50
90
51
180
0
ARC
8
0
10
163.6631489
20
-118.2563061
40
2
50
180
51
270
0
ARC
8
0
10
177.1631489
20
-101.2563061
40
2
50
270
51
0
0
ARC
8
0
10
177.1631489
20
-88.7563061
40
2
50
0
51
90
0
ARC
8
0
10
163.6631489
20
-88.7563061
40
2
50
90
51
180
0
ARC
8
0
10
163.6631489
20
-101.2563061
40
2
50
180
51
270
0
ARC
8
0
10
177.1631489
20
-84.2563061
40
2
50
270
51
0
0
ARC
8
0
10
177.1631489
20
-71.7563061
40
2
50
0
51
90
0
ARC
8
0
10
163.6631489
20
-71.7563061
40
2
50
90
51
180
0
ARC
8
0
10
163.6631489
20
-84.2563061
40
2
50
180
51
270
0
ARC
8
0
10
195.1631489
20
-137.2563062
40
2
50
270
51
0
0
ARC
8
0
10
195.1631489
20
-124.7563062
40
2
50
0
51
90
0
ARC
8
0
10
181.6631489
20
-124.7563062
40
2
50
90
51
180
0
ARC
8
0
10
181.6631489
20
-137.2563062
40
2
50
180
51
270
0
ARC
8
0
10
195.1631489
20
-120.2563062
40
2
50
270
51
0
0
ARC
8
0
10
195.1631489
20
-107.7563062
40
2
50
0
51
90
0
ARC
8
0
10
181.6631489
20
-107.7563062
40
2
50
90
51
180
0
ARC
8
0
10
181.6631489
20
-120.2563062
40
2
50
180
51
270
0
ARC
8
0
10
195.1631489
20
-103.2563062
40
2
50
270
51
0
0
ARC
8
0
10
195.1631489
20
-90.7563062
40
2
50
0
51
90
0
ARC
8
0
10
181.6631489
20
-90.7563062
40
2
50
90
51
180
0
ARC
8
0
10
181.6631489
20
-103.2563062
40
2
50
180
51
270
0
ARC
8
0
10
195.1631489
20
-86.2563062
40
2
50
270
51
0
0
ARC
8
0
10
195.1631489
20
-73.7563062
40
2
50
0
51
90
0
ARC
8
0
10
181.6631489
20
-73.7563062
40
2
50
90
51
180
0
ARC
8
0
10
181.6631489
20
-86.2563062
40
2
50
180
51
270
0
ARC
8
0
10
184.3631489
20
-154.2563062
40
2
50
270
51
0
0
ARC
8
0
10
184.3631489
20
-141.7563062
40
2
50
0
51
90
0
ARC
8
0
10
170.8631489
20
-141.7563062
40
2
50
90
51
180
0
ARC
8
0
10
170.8631489
20
-154.2563062
40
2
50
180
51
270
0
ARC
8
0
10
107.5541414
20
-155.249757
40
2
50
277.9999997
51
7.9999997
0
ARC
8
0
10
105.8144776
20
-142.8714061
40
2
50
7.9999997
51
97.9999997
0
ARC
8
0
10
92.4458586
20
-144.750243
40
2
50
97.9999997
51
187.9999997
0
ARC
8
0
10
94.1855224
20
-157.1285939
40
2
50
187.9999997
51
277.9999997
0
ARC
8
0
10
105.1881987
20
-138.4151998
40
2
50
277.9999997
51
7.9999997
0
ARC
8
0
10
103.4485349
20
-126.0368489
40
2
50
7.9999997
51
97.9999997
0
ARC
8
0
10
90.0799159
20
-127.9156858
40
2
50
97.9999997
51
187.9999997
0
ARC
8
0
10
91.8195797
20
-140.2940367
40
2
50
187.9999997
51
277.9999997
0
ARC
8
0
10
125.3789666
20
-152.7446412
40
2
50
277.9999997
51
7.9999997
0
ARC
8
0
10
123.6393028
20
-140.3662903
40
2
50
7.9999997
51
97.9999997
0
ARC
8
0
10
110.2706838
20
-142.2451272
40
2
50
97.9999997
51
187.9999997
0
ARC
8
0
10
112.0103476
20
-154.6234781
40
2
50
187.9999997
51
277.9999997
0
ARC
8
0
10
123.0130239
20
-135.910084
40
2
50
277.9999997
51
7.9999997
0
ARC
8
0
10
121.2733601
20
-123.5317331
40
2
50
7.9999997
51
97.9999997
0
ARC
8
0
10
107.9047411
20
-125.41057
40
2
50
97.9999997
51
187.9999997
0
ARC
8
0
10
109.6444049
20
-137.7889209
40
2
50
187.9999997
51
277.9999997
0
ARC
8
0
10
102.822256
20
-121.5806426
40
2
50
277.9999997
51
7.9999997
0
ARC
8
0
10
101.0825922
20
-109.2022917
40
2
50
7.9999997
51
97.9999997
0
ARC
8
0
10
87.7139732
20
-111.0811286
40
2
50
97.9999997
51
187.9999997
0
ARC
8
0
10
89.453637
20
-123.4594795
40
2
50
187.9999997
51
277.9999997
0
ARC
8
0
10
100.4563133
20
-104.7460854
40
2
50
277.9999997
51
7.9999997
0
ARC
8
0
10
98.7166495
20
-92.3677345
40
2
50
7.9999997
51
97.9999997
0
ARC
8
0
10
85.3480305
20
-94.2465714
40
2
50
97.9999997
51
187.9999997
0
ARC
8
0
10
87.0876943
20
-106.6249223
40
2
50
187.9999997
51
277.9999997
0
ARC
8
0
10
120.6470812
20
-119.0755268
40
2
50
277.9999997
51
7.9999997
0
ARC
8
0
10
118.9074174
20
-106.6971759
40
2
50
7.9999997
51
97.9999997
0
ARC
8
0
10
105.5387984
20
-108.5760128
40
2
50
97.9999997
51
187.9999997
0
ARC
8
0
10
107.2784622
20
-120.9543637
40
2
50
187.9999997
51
277.9999997
0
ARC
8
0
10
118.2811385
20
-102.2409696
40
2
50
277.9999997
51
7.9999997
0
ARC
8
0
10
116.5414747
20
-89.8626187
40
2
50
7.9999997
51
97.9999997
0
ARC
8
0
10
103.1728557
20
-91.7414556
40
2
50
97.9999997
51
187.9999997
0
ARC
8
0
10
104.9125195
20
-104.1198065
40
2
50
187.9999997
51
277.9999997
0
ENDSEC
0
EOF