G04 #@! TF.GenerationSoftware,KiCad,Pcbnew,8.0.7-8.0.7-0~ubuntu24.04.1*
G04 #@! TF.CreationDate,2025-01-02T00:14:12+01:00*
G04 #@! TF.ProjectId,plate-final,706c6174-652d-4666-996e-616c2e6b6963,0.0.2*
G04 #@! TF.SameCoordinates,Original*
G04 #@! TF.FileFunction,Copper,L1,Top*
G04 #@! TF.FilePolarity,Positive*
%FSLAX46Y46*%
G04 Gerber Fmt 4.6, Leading zero omitted, Abs format (unit mm)*
G04 Created by KiCad (PCBNEW 8.0.7-8.0.7-0~ubuntu24.04.1) date 2025-01-02 00:14:12*
%MOMM*%
%LPD*%
G01*
G04 APERTURE LIST*
%ADD10C,0.150000*%
G04 #@! TA.AperFunction,NonConductor*
%ADD11C,0.150000*%
G04 #@! TD*
G04 APERTURE END LIST*
D10*
D11*
X164121356Y-120865886D02*
X164073737Y-120913506D01*
X164073737Y-120913506D02*
X163930880Y-120961125D01*
X163930880Y-120961125D02*
X163835642Y-120961125D01*
X163835642Y-120961125D02*
X163692785Y-120913506D01*
X163692785Y-120913506D02*
X163597547Y-120818267D01*
X163597547Y-120818267D02*
X163549928Y-120723029D01*
X163549928Y-120723029D02*
X163502309Y-120532553D01*
X163502309Y-120532553D02*
X163502309Y-120389696D01*
X163502309Y-120389696D02*
X163549928Y-120199220D01*
X163549928Y-120199220D02*
X163597547Y-120103982D01*
X163597547Y-120103982D02*
X163692785Y-120008744D01*
X163692785Y-120008744D02*
X163835642Y-119961125D01*
X163835642Y-119961125D02*
X163930880Y-119961125D01*
X163930880Y-119961125D02*
X164073737Y-120008744D01*
X164073737Y-120008744D02*
X164121356Y-120056363D01*
X164549928Y-120961125D02*
X164549928Y-119961125D01*
X164978499Y-120961125D02*
X164978499Y-120437315D01*
X164978499Y-120437315D02*
X164930880Y-120342077D01*
X164930880Y-120342077D02*
X164835642Y-120294458D01*
X164835642Y-120294458D02*
X164692785Y-120294458D01*
X164692785Y-120294458D02*
X164597547Y-120342077D01*
X164597547Y-120342077D02*
X164549928Y-120389696D01*
X165597547Y-120961125D02*
X165502309Y-120913506D01*
X165502309Y-120913506D02*
X165454690Y-120865886D01*
X165454690Y-120865886D02*
X165407071Y-120770648D01*
X165407071Y-120770648D02*
X165407071Y-120484934D01*
X165407071Y-120484934D02*
X165454690Y-120389696D01*
X165454690Y-120389696D02*
X165502309Y-120342077D01*
X165502309Y-120342077D02*
X165597547Y-120294458D01*
X165597547Y-120294458D02*
X165740404Y-120294458D01*
X165740404Y-120294458D02*
X165835642Y-120342077D01*
X165835642Y-120342077D02*
X165883261Y-120389696D01*
X165883261Y-120389696D02*
X165930880Y-120484934D01*
X165930880Y-120484934D02*
X165930880Y-120770648D01*
X165930880Y-120770648D02*
X165883261Y-120865886D01*
X165883261Y-120865886D02*
X165835642Y-120913506D01*
X165835642Y-120913506D02*
X165740404Y-120961125D01*
X165740404Y-120961125D02*
X165597547Y-120961125D01*
X166788023Y-120913506D02*
X166692785Y-120961125D01*
X166692785Y-120961125D02*
X166502309Y-120961125D01*
X166502309Y-120961125D02*
X166407071Y-120913506D01*
X166407071Y-120913506D02*
X166359452Y-120865886D01*
X166359452Y-120865886D02*
X166311833Y-120770648D01*
X166311833Y-120770648D02*
X166311833Y-120484934D01*
X166311833Y-120484934D02*
X166359452Y-120389696D01*
X166359452Y-120389696D02*
X166407071Y-120342077D01*
X166407071Y-120342077D02*
X166502309Y-120294458D01*
X166502309Y-120294458D02*
X166692785Y-120294458D01*
X166692785Y-120294458D02*
X166788023Y-120342077D01*
X167930881Y-120913506D02*
X168073738Y-120961125D01*
X168073738Y-120961125D02*
X168311833Y-120961125D01*
X168311833Y-120961125D02*
X168407071Y-120913506D01*
X168407071Y-120913506D02*
X168454690Y-120865886D01*
X168454690Y-120865886D02*
X168502309Y-120770648D01*
X168502309Y-120770648D02*
X168502309Y-120675410D01*
X168502309Y-120675410D02*
X168454690Y-120580172D01*
X168454690Y-120580172D02*
X168407071Y-120532553D01*
X168407071Y-120532553D02*
X168311833Y-120484934D01*
X168311833Y-120484934D02*
X168121357Y-120437315D01*
X168121357Y-120437315D02*
X168026119Y-120389696D01*
X168026119Y-120389696D02*
X167978500Y-120342077D01*
X167978500Y-120342077D02*
X167930881Y-120246839D01*
X167930881Y-120246839D02*
X167930881Y-120151601D01*
X167930881Y-120151601D02*
X167978500Y-120056363D01*
X167978500Y-120056363D02*
X168026119Y-120008744D01*
X168026119Y-120008744D02*
X168121357Y-119961125D01*
X168121357Y-119961125D02*
X168359452Y-119961125D01*
X168359452Y-119961125D02*
X168502309Y-120008744D01*
X168835643Y-120294458D02*
X169026119Y-120961125D01*
X169026119Y-120961125D02*
X169216595Y-120484934D01*
X169216595Y-120484934D02*
X169407071Y-120961125D01*
X169407071Y-120961125D02*
X169597547Y-120294458D01*
X169978500Y-120961125D02*
X169978500Y-120294458D01*
X169978500Y-119961125D02*
X169930881Y-120008744D01*
X169930881Y-120008744D02*
X169978500Y-120056363D01*
X169978500Y-120056363D02*
X170026119Y-120008744D01*
X170026119Y-120008744D02*
X169978500Y-119961125D01*
X169978500Y-119961125D02*
X169978500Y-120056363D01*
X170311833Y-120294458D02*
X170692785Y-120294458D01*
X170454690Y-119961125D02*
X170454690Y-120818267D01*
X170454690Y-120818267D02*
X170502309Y-120913506D01*
X170502309Y-120913506D02*
X170597547Y-120961125D01*
X170597547Y-120961125D02*
X170692785Y-120961125D01*
X171454690Y-120913506D02*
X171359452Y-120961125D01*
X171359452Y-120961125D02*
X171168976Y-120961125D01*
X171168976Y-120961125D02*
X171073738Y-120913506D01*
X171073738Y-120913506D02*
X171026119Y-120865886D01*
X171026119Y-120865886D02*
X170978500Y-120770648D01*
X170978500Y-120770648D02*
X170978500Y-120484934D01*
X170978500Y-120484934D02*
X171026119Y-120389696D01*
X171026119Y-120389696D02*
X171073738Y-120342077D01*
X171073738Y-120342077D02*
X171168976Y-120294458D01*
X171168976Y-120294458D02*
X171359452Y-120294458D01*
X171359452Y-120294458D02*
X171454690Y-120342077D01*
X171883262Y-120961125D02*
X171883262Y-119961125D01*
X172311833Y-120961125D02*
X172311833Y-120437315D01*
X172311833Y-120437315D02*
X172264214Y-120342077D01*
X172264214Y-120342077D02*
X172168976Y-120294458D01*
X172168976Y-120294458D02*
X172026119Y-120294458D01*
X172026119Y-120294458D02*
X171930881Y-120342077D01*
X171930881Y-120342077D02*
X171883262Y-120389696D01*
X173549929Y-120961125D02*
X173549929Y-119961125D01*
X173549929Y-119961125D02*
X173930881Y-119961125D01*
X173930881Y-119961125D02*
X174026119Y-120008744D01*
X174026119Y-120008744D02*
X174073738Y-120056363D01*
X174073738Y-120056363D02*
X174121357Y-120151601D01*
X174121357Y-120151601D02*
X174121357Y-120294458D01*
X174121357Y-120294458D02*
X174073738Y-120389696D01*
X174073738Y-120389696D02*
X174026119Y-120437315D01*
X174026119Y-120437315D02*
X173930881Y-120484934D01*
X173930881Y-120484934D02*
X173549929Y-120484934D01*
X174692786Y-120961125D02*
X174597548Y-120913506D01*
X174597548Y-120913506D02*
X174549929Y-120818267D01*
X174549929Y-120818267D02*
X174549929Y-119961125D01*
X175502310Y-120961125D02*
X175502310Y-120437315D01*
X175502310Y-120437315D02*
X175454691Y-120342077D01*
X175454691Y-120342077D02*
X175359453Y-120294458D01*
X175359453Y-120294458D02*
X175168977Y-120294458D01*
X175168977Y-120294458D02*
X175073739Y-120342077D01*
X175502310Y-120913506D02*
X175407072Y-120961125D01*
X175407072Y-120961125D02*
X175168977Y-120961125D01*
X175168977Y-120961125D02*
X175073739Y-120913506D01*
X175073739Y-120913506D02*
X175026120Y-120818267D01*
X175026120Y-120818267D02*
X175026120Y-120723029D01*
X175026120Y-120723029D02*
X175073739Y-120627791D01*
X175073739Y-120627791D02*
X175168977Y-120580172D01*
X175168977Y-120580172D02*
X175407072Y-120580172D01*
X175407072Y-120580172D02*
X175502310Y-120532553D01*
X175835644Y-120294458D02*
X176216596Y-120294458D01*
X175978501Y-119961125D02*
X175978501Y-120818267D01*
X175978501Y-120818267D02*
X176026120Y-120913506D01*
X176026120Y-120913506D02*
X176121358Y-120961125D01*
X176121358Y-120961125D02*
X176216596Y-120961125D01*
X176930882Y-120913506D02*
X176835644Y-120961125D01*
X176835644Y-120961125D02*
X176645168Y-120961125D01*
X176645168Y-120961125D02*
X176549930Y-120913506D01*
X176549930Y-120913506D02*
X176502311Y-120818267D01*
X176502311Y-120818267D02*
X176502311Y-120437315D01*
X176502311Y-120437315D02*
X176549930Y-120342077D01*
X176549930Y-120342077D02*
X176645168Y-120294458D01*
X176645168Y-120294458D02*
X176835644Y-120294458D01*
X176835644Y-120294458D02*
X176930882Y-120342077D01*
X176930882Y-120342077D02*
X176978501Y-120437315D01*
X176978501Y-120437315D02*
X176978501Y-120532553D01*
X176978501Y-120532553D02*
X176502311Y-120627791D01*
D10*
D11*
X187426118Y-122961125D02*
X186949928Y-122961125D01*
X186949928Y-122961125D02*
X186949928Y-121961125D01*
X188140404Y-122913506D02*
X188045166Y-122961125D01*
X188045166Y-122961125D02*
X187854690Y-122961125D01*
X187854690Y-122961125D02*
X187759452Y-122913506D01*
X187759452Y-122913506D02*
X187711833Y-122818267D01*
X187711833Y-122818267D02*
X187711833Y-122437315D01*
X187711833Y-122437315D02*
X187759452Y-122342077D01*
X187759452Y-122342077D02*
X187854690Y-122294458D01*
X187854690Y-122294458D02*
X188045166Y-122294458D01*
X188045166Y-122294458D02*
X188140404Y-122342077D01*
X188140404Y-122342077D02*
X188188023Y-122437315D01*
X188188023Y-122437315D02*
X188188023Y-122532553D01*
X188188023Y-122532553D02*
X187711833Y-122627791D01*
X188473738Y-122294458D02*
X188854690Y-122294458D01*
X188616595Y-122961125D02*
X188616595Y-122103982D01*
X188616595Y-122103982D02*
X188664214Y-122008744D01*
X188664214Y-122008744D02*
X188759452Y-121961125D01*
X188759452Y-121961125D02*
X188854690Y-121961125D01*
X189045167Y-122294458D02*
X189426119Y-122294458D01*
X189188024Y-121961125D02*
X189188024Y-122818267D01*
X189188024Y-122818267D02*
X189235643Y-122913506D01*
X189235643Y-122913506D02*
X189330881Y-122961125D01*
X189330881Y-122961125D02*
X189426119Y-122961125D01*
M02*
