G04 #@! TF.GenerationSoftware,KiCad,Pcbnew,8.0.7-8.0.7-0~ubuntu24.04.1*
G04 #@! TF.CreationDate,2025-01-02T00:14:13+01:00*
G04 #@! TF.ProjectId,plate-final,706c6174-652d-4666-996e-616c2e6b6963,0.0.2*
G04 #@! TF.SameCoordinates,Original*
G04 #@! TF.FileFunction,Soldermask,Bot*
G04 #@! TF.FilePolarity,Negative*
%FSLAX46Y46*%
G04 Gerber Fmt 4.6, Leading zero omitted, Abs format (unit mm)*
G04 Created by KiCad (PCBNEW 8.0.7-8.0.7-0~ubuntu24.04.1) date 2025-01-02 00:14:13*
%MOMM*%
%LPD*%
G01*
G04 APERTURE LIST*
%ADD10C,0.150000*%
G04 APERTURE END LIST*
D10*
X189304941Y-122961125D02*
X189638274Y-122484934D01*
X189876369Y-122961125D02*
X189876369Y-121961125D01*
X189876369Y-121961125D02*
X189495417Y-121961125D01*
X189495417Y-121961125D02*
X189400179Y-122008744D01*
X189400179Y-122008744D02*
X189352560Y-122056363D01*
X189352560Y-122056363D02*
X189304941Y-122151601D01*
X189304941Y-122151601D02*
X189304941Y-122294458D01*
X189304941Y-122294458D02*
X189352560Y-122389696D01*
X189352560Y-122389696D02*
X189400179Y-122437315D01*
X189400179Y-122437315D02*
X189495417Y-122484934D01*
X189495417Y-122484934D02*
X189876369Y-122484934D01*
X188876369Y-122961125D02*
X188876369Y-122294458D01*
X188876369Y-121961125D02*
X188923988Y-122008744D01*
X188923988Y-122008744D02*
X188876369Y-122056363D01*
X188876369Y-122056363D02*
X188828750Y-122008744D01*
X188828750Y-122008744D02*
X188876369Y-121961125D01*
X188876369Y-121961125D02*
X188876369Y-122056363D01*
X187971608Y-122294458D02*
X187971608Y-123103982D01*
X187971608Y-123103982D02*
X188019227Y-123199220D01*
X188019227Y-123199220D02*
X188066846Y-123246839D01*
X188066846Y-123246839D02*
X188162084Y-123294458D01*
X188162084Y-123294458D02*
X188304941Y-123294458D01*
X188304941Y-123294458D02*
X188400179Y-123246839D01*
X187971608Y-122913506D02*
X188066846Y-122961125D01*
X188066846Y-122961125D02*
X188257322Y-122961125D01*
X188257322Y-122961125D02*
X188352560Y-122913506D01*
X188352560Y-122913506D02*
X188400179Y-122865886D01*
X188400179Y-122865886D02*
X188447798Y-122770648D01*
X188447798Y-122770648D02*
X188447798Y-122484934D01*
X188447798Y-122484934D02*
X188400179Y-122389696D01*
X188400179Y-122389696D02*
X188352560Y-122342077D01*
X188352560Y-122342077D02*
X188257322Y-122294458D01*
X188257322Y-122294458D02*
X188066846Y-122294458D01*
X188066846Y-122294458D02*
X187971608Y-122342077D01*
X187495417Y-122961125D02*
X187495417Y-121961125D01*
X187066846Y-122961125D02*
X187066846Y-122437315D01*
X187066846Y-122437315D02*
X187114465Y-122342077D01*
X187114465Y-122342077D02*
X187209703Y-122294458D01*
X187209703Y-122294458D02*
X187352560Y-122294458D01*
X187352560Y-122294458D02*
X187447798Y-122342077D01*
X187447798Y-122342077D02*
X187495417Y-122389696D01*
X186733512Y-122294458D02*
X186352560Y-122294458D01*
X186590655Y-121961125D02*
X186590655Y-122818267D01*
X186590655Y-122818267D02*
X186543036Y-122913506D01*
X186543036Y-122913506D02*
X186447798Y-122961125D01*
X186447798Y-122961125D02*
X186352560Y-122961125D01*
X176704941Y-120865886D02*
X176752560Y-120913506D01*
X176752560Y-120913506D02*
X176895417Y-120961125D01*
X176895417Y-120961125D02*
X176990655Y-120961125D01*
X176990655Y-120961125D02*
X177133512Y-120913506D01*
X177133512Y-120913506D02*
X177228750Y-120818267D01*
X177228750Y-120818267D02*
X177276369Y-120723029D01*
X177276369Y-120723029D02*
X177323988Y-120532553D01*
X177323988Y-120532553D02*
X177323988Y-120389696D01*
X177323988Y-120389696D02*
X177276369Y-120199220D01*
X177276369Y-120199220D02*
X177228750Y-120103982D01*
X177228750Y-120103982D02*
X177133512Y-120008744D01*
X177133512Y-120008744D02*
X176990655Y-119961125D01*
X176990655Y-119961125D02*
X176895417Y-119961125D01*
X176895417Y-119961125D02*
X176752560Y-120008744D01*
X176752560Y-120008744D02*
X176704941Y-120056363D01*
X176276369Y-120961125D02*
X176276369Y-119961125D01*
X175847798Y-120961125D02*
X175847798Y-120437315D01*
X175847798Y-120437315D02*
X175895417Y-120342077D01*
X175895417Y-120342077D02*
X175990655Y-120294458D01*
X175990655Y-120294458D02*
X176133512Y-120294458D01*
X176133512Y-120294458D02*
X176228750Y-120342077D01*
X176228750Y-120342077D02*
X176276369Y-120389696D01*
X175228750Y-120961125D02*
X175323988Y-120913506D01*
X175323988Y-120913506D02*
X175371607Y-120865886D01*
X175371607Y-120865886D02*
X175419226Y-120770648D01*
X175419226Y-120770648D02*
X175419226Y-120484934D01*
X175419226Y-120484934D02*
X175371607Y-120389696D01*
X175371607Y-120389696D02*
X175323988Y-120342077D01*
X175323988Y-120342077D02*
X175228750Y-120294458D01*
X175228750Y-120294458D02*
X175085893Y-120294458D01*
X175085893Y-120294458D02*
X174990655Y-120342077D01*
X174990655Y-120342077D02*
X174943036Y-120389696D01*
X174943036Y-120389696D02*
X174895417Y-120484934D01*
X174895417Y-120484934D02*
X174895417Y-120770648D01*
X174895417Y-120770648D02*
X174943036Y-120865886D01*
X174943036Y-120865886D02*
X174990655Y-120913506D01*
X174990655Y-120913506D02*
X175085893Y-120961125D01*
X175085893Y-120961125D02*
X175228750Y-120961125D01*
X174038274Y-120913506D02*
X174133512Y-120961125D01*
X174133512Y-120961125D02*
X174323988Y-120961125D01*
X174323988Y-120961125D02*
X174419226Y-120913506D01*
X174419226Y-120913506D02*
X174466845Y-120865886D01*
X174466845Y-120865886D02*
X174514464Y-120770648D01*
X174514464Y-120770648D02*
X174514464Y-120484934D01*
X174514464Y-120484934D02*
X174466845Y-120389696D01*
X174466845Y-120389696D02*
X174419226Y-120342077D01*
X174419226Y-120342077D02*
X174323988Y-120294458D01*
X174323988Y-120294458D02*
X174133512Y-120294458D01*
X174133512Y-120294458D02*
X174038274Y-120342077D01*
X172895416Y-120913506D02*
X172752559Y-120961125D01*
X172752559Y-120961125D02*
X172514464Y-120961125D01*
X172514464Y-120961125D02*
X172419226Y-120913506D01*
X172419226Y-120913506D02*
X172371607Y-120865886D01*
X172371607Y-120865886D02*
X172323988Y-120770648D01*
X172323988Y-120770648D02*
X172323988Y-120675410D01*
X172323988Y-120675410D02*
X172371607Y-120580172D01*
X172371607Y-120580172D02*
X172419226Y-120532553D01*
X172419226Y-120532553D02*
X172514464Y-120484934D01*
X172514464Y-120484934D02*
X172704940Y-120437315D01*
X172704940Y-120437315D02*
X172800178Y-120389696D01*
X172800178Y-120389696D02*
X172847797Y-120342077D01*
X172847797Y-120342077D02*
X172895416Y-120246839D01*
X172895416Y-120246839D02*
X172895416Y-120151601D01*
X172895416Y-120151601D02*
X172847797Y-120056363D01*
X172847797Y-120056363D02*
X172800178Y-120008744D01*
X172800178Y-120008744D02*
X172704940Y-119961125D01*
X172704940Y-119961125D02*
X172466845Y-119961125D01*
X172466845Y-119961125D02*
X172323988Y-120008744D01*
X171990654Y-120294458D02*
X171800178Y-120961125D01*
X171800178Y-120961125D02*
X171609702Y-120484934D01*
X171609702Y-120484934D02*
X171419226Y-120961125D01*
X171419226Y-120961125D02*
X171228750Y-120294458D01*
X170847797Y-120961125D02*
X170847797Y-120294458D01*
X170847797Y-119961125D02*
X170895416Y-120008744D01*
X170895416Y-120008744D02*
X170847797Y-120056363D01*
X170847797Y-120056363D02*
X170800178Y-120008744D01*
X170800178Y-120008744D02*
X170847797Y-119961125D01*
X170847797Y-119961125D02*
X170847797Y-120056363D01*
X170514464Y-120294458D02*
X170133512Y-120294458D01*
X170371607Y-119961125D02*
X170371607Y-120818267D01*
X170371607Y-120818267D02*
X170323988Y-120913506D01*
X170323988Y-120913506D02*
X170228750Y-120961125D01*
X170228750Y-120961125D02*
X170133512Y-120961125D01*
X169371607Y-120913506D02*
X169466845Y-120961125D01*
X169466845Y-120961125D02*
X169657321Y-120961125D01*
X169657321Y-120961125D02*
X169752559Y-120913506D01*
X169752559Y-120913506D02*
X169800178Y-120865886D01*
X169800178Y-120865886D02*
X169847797Y-120770648D01*
X169847797Y-120770648D02*
X169847797Y-120484934D01*
X169847797Y-120484934D02*
X169800178Y-120389696D01*
X169800178Y-120389696D02*
X169752559Y-120342077D01*
X169752559Y-120342077D02*
X169657321Y-120294458D01*
X169657321Y-120294458D02*
X169466845Y-120294458D01*
X169466845Y-120294458D02*
X169371607Y-120342077D01*
X168943035Y-120961125D02*
X168943035Y-119961125D01*
X168514464Y-120961125D02*
X168514464Y-120437315D01*
X168514464Y-120437315D02*
X168562083Y-120342077D01*
X168562083Y-120342077D02*
X168657321Y-120294458D01*
X168657321Y-120294458D02*
X168800178Y-120294458D01*
X168800178Y-120294458D02*
X168895416Y-120342077D01*
X168895416Y-120342077D02*
X168943035Y-120389696D01*
X167276368Y-120961125D02*
X167276368Y-119961125D01*
X167276368Y-119961125D02*
X166895416Y-119961125D01*
X166895416Y-119961125D02*
X166800178Y-120008744D01*
X166800178Y-120008744D02*
X166752559Y-120056363D01*
X166752559Y-120056363D02*
X166704940Y-120151601D01*
X166704940Y-120151601D02*
X166704940Y-120294458D01*
X166704940Y-120294458D02*
X166752559Y-120389696D01*
X166752559Y-120389696D02*
X166800178Y-120437315D01*
X166800178Y-120437315D02*
X166895416Y-120484934D01*
X166895416Y-120484934D02*
X167276368Y-120484934D01*
X166133511Y-120961125D02*
X166228749Y-120913506D01*
X166228749Y-120913506D02*
X166276368Y-120818267D01*
X166276368Y-120818267D02*
X166276368Y-119961125D01*
X165323987Y-120961125D02*
X165323987Y-120437315D01*
X165323987Y-120437315D02*
X165371606Y-120342077D01*
X165371606Y-120342077D02*
X165466844Y-120294458D01*
X165466844Y-120294458D02*
X165657320Y-120294458D01*
X165657320Y-120294458D02*
X165752558Y-120342077D01*
X165323987Y-120913506D02*
X165419225Y-120961125D01*
X165419225Y-120961125D02*
X165657320Y-120961125D01*
X165657320Y-120961125D02*
X165752558Y-120913506D01*
X165752558Y-120913506D02*
X165800177Y-120818267D01*
X165800177Y-120818267D02*
X165800177Y-120723029D01*
X165800177Y-120723029D02*
X165752558Y-120627791D01*
X165752558Y-120627791D02*
X165657320Y-120580172D01*
X165657320Y-120580172D02*
X165419225Y-120580172D01*
X165419225Y-120580172D02*
X165323987Y-120532553D01*
X164990653Y-120294458D02*
X164609701Y-120294458D01*
X164847796Y-119961125D02*
X164847796Y-120818267D01*
X164847796Y-120818267D02*
X164800177Y-120913506D01*
X164800177Y-120913506D02*
X164704939Y-120961125D01*
X164704939Y-120961125D02*
X164609701Y-120961125D01*
X163895415Y-120913506D02*
X163990653Y-120961125D01*
X163990653Y-120961125D02*
X164181129Y-120961125D01*
X164181129Y-120961125D02*
X164276367Y-120913506D01*
X164276367Y-120913506D02*
X164323986Y-120818267D01*
X164323986Y-120818267D02*
X164323986Y-120437315D01*
X164323986Y-120437315D02*
X164276367Y-120342077D01*
X164276367Y-120342077D02*
X164181129Y-120294458D01*
X164181129Y-120294458D02*
X163990653Y-120294458D01*
X163990653Y-120294458D02*
X163895415Y-120342077D01*
X163895415Y-120342077D02*
X163847796Y-120437315D01*
X163847796Y-120437315D02*
X163847796Y-120532553D01*
X163847796Y-120532553D02*
X164323986Y-120627791D01*
M02*
