%TF.GenerationSoftware,KiCad,Pcbnew,8.0.7-8.0.7-0~ubuntu24.04.1*%
%TF.CreationDate,2025-01-01T23:19:51+01:00*%
%TF.ProjectId,plate-final,706c6174-652d-4666-996e-616c2e6b6963,0.0.2*%
%TF.SameCoordinates,Original*%
%TF.FileFunction,Drillmap*%
%TF.FilePolarity,Positive*%
%FSLAX45Y45*%
G04 Gerber Fmt 4.5, Leading zero omitted, Abs format (unit mm)*
G04 Created by KiCad (PCBNEW 8.0.7-8.0.7-0~ubuntu24.04.1) date 2025-01-01 23:19:51*
%MOMM*%
%LPD*%
G01*
G04 APERTURE LIST*
%ADD10C,0.150000*%
%ADD11C,0.200000*%
G04 APERTURE END LIST*
D10*
X11863308Y-10294888D02*
X11668466Y-8908512D01*
X14141315Y-13600631D02*
X14141315Y-12200631D01*
X17741315Y-8800631D02*
X16341315Y-8800631D01*
X9885984Y-9159024D02*
X8499608Y-9353866D01*
X15941315Y-13400631D02*
X15941315Y-12000631D01*
X10595767Y-14209391D02*
X9209391Y-14404233D01*
X19541315Y-8700631D02*
X19541315Y-7300631D01*
X12781021Y-13950631D02*
X16661315Y-13950631D01*
X17741315Y-10500631D02*
X16341315Y-10500631D01*
X19541315Y-12400631D02*
X18141315Y-12400631D01*
X17741315Y-8500631D02*
X17741315Y-7100631D01*
X18141315Y-9000631D02*
X18141315Y-10400631D01*
X19941315Y-13028657D02*
X19941315Y-7150631D01*
X8972797Y-12720778D02*
X9167639Y-14107153D01*
X19541315Y-10400631D02*
X19541315Y-9000631D01*
X9209391Y-14404233D02*
X9404234Y-15790609D01*
X10554015Y-13912311D02*
X10359172Y-12525935D01*
X11668466Y-8908512D02*
X10282091Y-9103355D01*
X15941315Y-10000631D02*
X15941315Y-8600631D01*
X14141315Y-7100631D02*
X12741315Y-7100631D01*
X17741315Y-10200631D02*
X17741315Y-8800631D01*
X14541315Y-10300631D02*
X14541315Y-11700631D01*
X16341315Y-7100631D02*
X16341315Y-8500631D01*
X12099903Y-11978343D02*
X11905060Y-10591968D01*
X20583553Y-16195493D02*
X21716177Y-17018392D01*
X18141315Y-10400631D02*
X19541315Y-10400631D01*
X8252844Y-9035107D02*
X12341315Y-8460510D01*
X11905060Y-10591968D02*
X10518685Y-10786811D01*
X17741315Y-11900631D02*
X17741315Y-10500631D01*
X15941315Y-8300631D02*
X15941315Y-6900631D01*
X9167639Y-14107153D02*
X10554015Y-13912311D01*
X19541315Y-9000631D02*
X18141315Y-9000631D01*
X18141315Y-12100631D02*
X19541315Y-12100631D01*
X12741315Y-7100631D02*
X12741315Y-8500631D01*
X18141315Y-12400631D02*
X18141315Y-13800631D01*
X17741315Y-13600631D02*
X17741315Y-12200631D01*
X10518685Y-10786811D02*
X10713528Y-12173186D01*
X15941315Y-12000631D02*
X14541315Y-12000631D01*
X17061315Y-14100631D02*
X17061315Y-15500631D01*
X22539076Y-15885768D02*
X21406453Y-15062869D01*
X14541315Y-6900631D02*
X14541315Y-8300631D01*
X16141315Y-6550631D02*
G75*
G02*
X16341319Y-6750631I5J-199999D01*
G01*
X15941315Y-10300631D02*
X14541315Y-10300631D01*
X10317420Y-12228855D02*
X10122578Y-10842480D01*
X8082625Y-9260995D02*
X9029002Y-15994818D01*
X14541315Y-10000631D02*
X15941315Y-10000631D01*
X18141315Y-7300631D02*
X18141315Y-8700631D01*
X16341315Y-8500631D02*
X17741315Y-8500631D01*
X20244207Y-16381567D02*
X21672256Y-17419105D01*
X19311887Y-14238579D02*
X18879263Y-15570058D01*
X21044318Y-14362694D02*
X19941315Y-13028657D01*
X17741315Y-7100631D02*
X16341315Y-7100631D01*
X12541315Y-6750631D02*
X14141315Y-6750631D01*
X8736203Y-11037322D02*
X8931045Y-12423697D01*
X17941315Y-6750631D02*
G75*
G02*
X18141319Y-6950631I5J-199999D01*
G01*
X16861315Y-15850631D02*
X18610153Y-15850631D01*
X14141315Y-6750631D02*
G75*
G02*
X14341315Y-6550635I199995J1D01*
G01*
X10476933Y-10489730D02*
X11863308Y-10294888D01*
X20210743Y-16002682D02*
X20643366Y-14671203D01*
X18141315Y-6950631D02*
X19741315Y-6950631D01*
X10950122Y-13856641D02*
X12336497Y-13661799D01*
X10755279Y-12470266D02*
X10950122Y-13856641D01*
X10122578Y-10842480D02*
X8736203Y-11037322D01*
X14541315Y-8300631D02*
X15941315Y-8300631D01*
X12741315Y-10200631D02*
X14141315Y-10200631D01*
X10282091Y-9103355D02*
X10476933Y-10489730D01*
X14141315Y-8500631D02*
X14141315Y-7100631D01*
X22906857Y-15720353D02*
G75*
G02*
X22950848Y-15999528I-117807J-161617D01*
G01*
X12741315Y-13600631D02*
X14141315Y-13600631D01*
X12781021Y-13950631D02*
X12990074Y-15438126D01*
X9404234Y-15790609D02*
X10790609Y-15595766D01*
X17061315Y-15500631D02*
X18461315Y-15500631D01*
X21951616Y-17374859D02*
G75*
G02*
X21672254Y-17419108I-161806J117559D01*
G01*
X21406453Y-15062869D02*
X20583553Y-16195493D01*
X16661315Y-13950631D02*
X16661315Y-15650631D01*
X18610153Y-15850631D02*
X20244207Y-16381567D01*
X19541315Y-12100631D02*
X19541315Y-10700631D01*
X14541315Y-13400631D02*
X15941315Y-13400631D01*
X20643366Y-14671203D02*
X19311887Y-14238579D01*
X16341315Y-13600631D02*
X17741315Y-13600631D01*
X11186716Y-15540097D02*
X12573091Y-15345255D01*
X12573091Y-15345255D02*
X12378249Y-13958880D01*
X21951616Y-17374859D02*
X22950851Y-15999530D01*
X12741315Y-8800631D02*
X12741315Y-10200631D01*
X9254891Y-16165037D02*
X12819855Y-15664014D01*
X14141315Y-11900631D02*
X14141315Y-10500631D01*
X10359172Y-12525935D02*
X8972797Y-12720778D01*
X18141315Y-8700631D02*
X19541315Y-8700631D01*
X12741315Y-10500631D02*
X12741315Y-11900631D01*
X16341315Y-8800631D02*
X16341315Y-10200631D01*
X14141315Y-10200631D02*
X14141315Y-8800631D01*
X8499608Y-9353866D02*
X8694451Y-10740242D01*
X19741315Y-6950631D02*
G75*
G02*
X19941319Y-7150631I5J-199999D01*
G01*
X15941315Y-8600631D02*
X14541315Y-8600631D01*
X18879263Y-15570058D02*
X20210743Y-16002682D01*
X14541315Y-12000631D02*
X14541315Y-13400631D01*
X15941315Y-6900631D02*
X14541315Y-6900631D01*
X16341315Y-6750631D02*
X17941315Y-6750631D01*
X16341315Y-12200631D02*
X16341315Y-13600631D01*
X10790609Y-15595766D02*
X10595767Y-14209391D01*
X12141655Y-12275424D02*
X10755279Y-12470266D01*
X14141315Y-8800631D02*
X12741315Y-8800631D01*
X10080826Y-10545399D02*
X9885984Y-9159024D01*
X8931045Y-12423697D02*
X10317420Y-12228855D01*
X16341315Y-10200631D02*
X17741315Y-10200631D01*
X12990074Y-15438126D02*
G75*
G02*
X12819855Y-15664014I-198055J-27834D01*
G01*
X18461315Y-15500631D02*
X18461315Y-14100631D01*
X18141315Y-10700631D02*
X18141315Y-12100631D01*
X19541315Y-10700631D02*
X18141315Y-10700631D01*
X8082625Y-9260995D02*
G75*
G02*
X8252844Y-9035105I198055J27835D01*
G01*
X12741315Y-12200631D02*
X12741315Y-13600631D01*
X16341315Y-10500631D02*
X16341315Y-11900631D01*
X14141315Y-12200631D02*
X12741315Y-12200631D01*
X14541315Y-8600631D02*
X14541315Y-10000631D01*
X12741315Y-8500631D02*
X14141315Y-8500631D01*
X12378249Y-13958880D02*
X10991874Y-14153722D01*
X22906857Y-15720353D02*
X21044318Y-14362694D01*
X17741315Y-12200631D02*
X16341315Y-12200631D01*
X18461315Y-14100631D02*
X17061315Y-14100631D01*
X16141315Y-6550631D02*
X14341315Y-6550631D01*
X18141315Y-13800631D02*
X19541315Y-13800631D01*
X14141315Y-10500631D02*
X12741315Y-10500631D01*
X8694451Y-10740242D02*
X10080826Y-10545399D01*
X9254891Y-16165037D02*
G75*
G02*
X9029004Y-15994818I-27831J198057D01*
G01*
X12336497Y-13661799D02*
X12141655Y-12275424D01*
X12741315Y-11900631D02*
X14141315Y-11900631D01*
X16341315Y-11900631D02*
X17741315Y-11900631D01*
X12341315Y-6950631D02*
G75*
G02*
X12541315Y-6750635I199995J1D01*
G01*
X19541315Y-13800631D02*
X19541315Y-12400631D01*
X10713528Y-12173186D02*
X12099903Y-11978343D01*
X19541315Y-7300631D02*
X18141315Y-7300631D01*
X15941315Y-11700631D02*
X15941315Y-10300631D01*
X21716177Y-17018392D02*
X22539076Y-15885768D01*
X10991874Y-14153722D02*
X11186716Y-15540097D01*
X14541315Y-11700631D02*
X15941315Y-11700631D01*
X16861315Y-15850631D02*
G75*
G02*
X16661309Y-15650631I-5J200001D01*
G01*
X12341315Y-8460510D02*
X12341315Y-6950631D01*
D11*
X8333955Y-17776287D02*
X8333955Y-17576287D01*
X8333955Y-17576287D02*
X8381574Y-17576287D01*
X8381574Y-17576287D02*
X8410146Y-17585811D01*
X8410146Y-17585811D02*
X8429194Y-17604858D01*
X8429194Y-17604858D02*
X8438717Y-17623906D01*
X8438717Y-17623906D02*
X8448241Y-17662001D01*
X8448241Y-17662001D02*
X8448241Y-17690573D01*
X8448241Y-17690573D02*
X8438717Y-17728668D01*
X8438717Y-17728668D02*
X8429194Y-17747716D01*
X8429194Y-17747716D02*
X8410146Y-17766763D01*
X8410146Y-17766763D02*
X8381574Y-17776287D01*
X8381574Y-17776287D02*
X8333955Y-17776287D01*
X8533956Y-17776287D02*
X8533956Y-17642954D01*
X8533956Y-17681049D02*
X8543479Y-17662001D01*
X8543479Y-17662001D02*
X8553003Y-17652477D01*
X8553003Y-17652477D02*
X8572051Y-17642954D01*
X8572051Y-17642954D02*
X8591098Y-17642954D01*
X8657765Y-17776287D02*
X8657765Y-17642954D01*
X8657765Y-17576287D02*
X8648241Y-17585811D01*
X8648241Y-17585811D02*
X8657765Y-17595335D01*
X8657765Y-17595335D02*
X8667289Y-17585811D01*
X8667289Y-17585811D02*
X8657765Y-17576287D01*
X8657765Y-17576287D02*
X8657765Y-17595335D01*
X8781575Y-17776287D02*
X8762527Y-17766763D01*
X8762527Y-17766763D02*
X8753003Y-17747716D01*
X8753003Y-17747716D02*
X8753003Y-17576287D01*
X8886336Y-17776287D02*
X8867289Y-17766763D01*
X8867289Y-17766763D02*
X8857765Y-17747716D01*
X8857765Y-17747716D02*
X8857765Y-17576287D01*
X9114908Y-17776287D02*
X9114908Y-17576287D01*
X9114908Y-17576287D02*
X9181575Y-17719144D01*
X9181575Y-17719144D02*
X9248241Y-17576287D01*
X9248241Y-17576287D02*
X9248241Y-17776287D01*
X9429194Y-17776287D02*
X9429194Y-17671525D01*
X9429194Y-17671525D02*
X9419670Y-17652477D01*
X9419670Y-17652477D02*
X9400622Y-17642954D01*
X9400622Y-17642954D02*
X9362527Y-17642954D01*
X9362527Y-17642954D02*
X9343479Y-17652477D01*
X9429194Y-17766763D02*
X9410146Y-17776287D01*
X9410146Y-17776287D02*
X9362527Y-17776287D01*
X9362527Y-17776287D02*
X9343479Y-17766763D01*
X9343479Y-17766763D02*
X9333956Y-17747716D01*
X9333956Y-17747716D02*
X9333956Y-17728668D01*
X9333956Y-17728668D02*
X9343479Y-17709620D01*
X9343479Y-17709620D02*
X9362527Y-17700097D01*
X9362527Y-17700097D02*
X9410146Y-17700097D01*
X9410146Y-17700097D02*
X9429194Y-17690573D01*
X9524432Y-17642954D02*
X9524432Y-17842954D01*
X9524432Y-17652477D02*
X9543479Y-17642954D01*
X9543479Y-17642954D02*
X9581575Y-17642954D01*
X9581575Y-17642954D02*
X9600622Y-17652477D01*
X9600622Y-17652477D02*
X9610146Y-17662001D01*
X9610146Y-17662001D02*
X9619670Y-17681049D01*
X9619670Y-17681049D02*
X9619670Y-17738192D01*
X9619670Y-17738192D02*
X9610146Y-17757239D01*
X9610146Y-17757239D02*
X9600622Y-17766763D01*
X9600622Y-17766763D02*
X9581575Y-17776287D01*
X9581575Y-17776287D02*
X9543479Y-17776287D01*
X9543479Y-17776287D02*
X9524432Y-17766763D01*
X9705384Y-17757239D02*
X9714908Y-17766763D01*
X9714908Y-17766763D02*
X9705384Y-17776287D01*
X9705384Y-17776287D02*
X9695860Y-17766763D01*
X9695860Y-17766763D02*
X9705384Y-17757239D01*
X9705384Y-17757239D02*
X9705384Y-17776287D01*
X9705384Y-17652477D02*
X9714908Y-17662001D01*
X9714908Y-17662001D02*
X9705384Y-17671525D01*
X9705384Y-17671525D02*
X9695860Y-17662001D01*
X9695860Y-17662001D02*
X9705384Y-17652477D01*
X9705384Y-17652477D02*
X9705384Y-17671525D01*
M02*
